solid Untitled-5622a937
facet normal -1.0 1.8047785488306463e-14 -2.899069873052369e-14
  outer loop
    vertex 23.783690432773955 23.463475175651254 16.993131592447043
    vertex 23.783690432774318 8.463475175651642 2.40488184921616e-13
    vertex 23.783690432773685 8.463475175651102 16.99313159244686
  endloop
endfacet
facet normal -1.0 1.8047785488306463e-14 -2.899069873052369e-14
  outer loop
    vertex 23.783690432774318 8.463475175651642 2.40488184921616e-13
    vertex 23.783690432773955 23.463475175651254 16.993131592447043
    vertex 23.783690432774634 23.463475175651798 4.209660398046814e-13
  endloop
endfacet
facet normal 2.8990698730525006e-14 1.719348505589045e-14 -1.0
  outer loop
    vertex 23.783690432774634 23.463475175651798 4.209660398046814e-13
    vertex 32.383690432774294 8.46347517565112 4.906741679633341e-13
    vertex 23.783690432774318 8.463475175651642 2.40488184921616e-13
  endloop
endfacet
facet normal 2.8990698730525006e-14 1.719348505589045e-14 -1.0
  outer loop
    vertex 32.383690432774294 8.46347517565112 4.906741679633341e-13
    vertex 23.783690432774634 23.463475175651798 4.209660398046814e-13
    vertex 32.38369043277479 23.4634751756515 6.711520228463996e-13
  endloop
endfacet
facet normal 1.0 -1.8047785488306463e-14 2.899069873052432e-14
  outer loop
    vertex 32.38369043277479 23.4634751756515 6.711520228463996e-13
    vertex 32.38369043277385 8.46347517565112 16.993131592447114
    vertex 32.383690432774294 8.46347517565112 4.906741679633341e-13
  endloop
endfacet
facet normal 1.0 -1.8047785488306463e-14 2.899069873052432e-14
  outer loop
    vertex 32.38369043277385 8.46347517565112 16.993131592447114
    vertex 32.38369043277479 23.4634751756515 6.711520228463996e-13
    vertex 32.38369043277394 23.46347517565132 16.993131592447295
  endloop
endfacet
facet normal -3.654446020877437e-14 2.6362363613572268e-15 1.0
  outer loop
    vertex 31.1336838372473 8.46347517565125 9.245003047224122
    vertex 29.333683837605363 23.463475175876148 9.245003047219825
    vertex 29.33368382825301 8.463475175876216 9.245003047224431
  endloop
endfacet
facet normal -3.654446020877437e-14 2.6362363613572268e-15 1.0
  outer loop
    vertex 29.333683837605363 23.463475175876148 9.245003047219825
    vertex 31.1336838372473 8.46347517565125 9.245003047224122
    vertex 31.133683837605584 23.463475175651272 9.245003047219697
  endloop
endfacet
facet normal -1.0 5.979313016888641e-11 1.086692302281348e-10
  outer loop
    vertex 31.133683837247027 8.463475175671464 15.745003047093602
    vertex 31.133683837605584 23.463475175651272 9.245003047219697
    vertex 31.1336838372473 8.46347517565125 9.245003047224122
  endloop
endfacet
facet normal -1.0 5.979313016888641e-11 1.086692302281348e-10
  outer loop
    vertex 31.133683837605584 23.463475175651272 9.245003047219697
    vertex 31.133683837247027 8.463475175671464 15.745003047093602
    vertex 31.133683839041687 23.463475175633224 15.745003047191508
  endloop
endfacet
facet normal -3.114195317993588e-14 -2.0560857237637125e-14 1.0
  outer loop
    vertex 32.38369043277385 8.46347517565112 16.993131592447114
    vertex 23.783690432773955 23.463475175651254 16.993131592447043
    vertex 23.783690432773685 8.463475175651102 16.99313159244686
  endloop
endfacet
facet normal -3.114195317993588e-14 -2.0560857237637125e-14 1.0
  outer loop
    vertex 23.783690432773955 23.463475175651254 16.993131592447043
    vertex 32.38369043277385 8.46347517565112 16.993131592447114
    vertex 32.38369043277394 23.46347517565132 16.993131592447295
  endloop
endfacet
facet normal 2.014592265027538e-14 1.0 2.3147390119628602e-14
  outer loop
    vertex 23.783690432774634 23.463475175651798 4.209660398046814e-13
    vertex 26.783690432774563 23.463475175650775 3.614359353945325
    vertex 32.38369043277479 23.4634751756515 6.711520228463996e-13
  endloop
endfacet
facet normal 2.014592265027538e-14 1.0 2.3147390119628602e-14
  outer loop
    vertex 26.783690432774563 23.463475175650775 3.614359353945325
    vertex 23.783690432774634 23.463475175651798 4.209660398046814e-13
    vertex 26.452319582876086 23.463475175651812 3.86862915010193
  endloop
endfacet
facet normal 2.014592265027538e-14 1.0 2.3147390119628602e-14
  outer loop
    vertex 26.452319582876086 23.463475175651812 3.86862915010193
    vertex 23.783690432774634 23.463475175651798 4.209660398046814e-13
    vertex 26.19804978671946 23.463475175652896 4.200000000000439
  endloop
endfacet
facet normal 2.014592265027538e-14 1.0 2.3147390119628602e-14
  outer loop
    vertex 26.19804978671946 23.463475175652896 4.200000000000439
    vertex 23.783690432774634 23.463475175651798 4.209660398046814e-13
    vertex 26.038209110712053 23.463475175653617 4.585889527836558
  endloop
endfacet
facet normal 2.014592265027538e-14 1.0 2.3147390119628602e-14
  outer loop
    vertex 26.038209110712053 23.463475175653617 4.585889527836558
    vertex 23.783690432774634 23.463475175651798 4.209660398046814e-13
    vertex 23.783690432773955 23.463475175651254 16.993131592447043
  endloop
endfacet
facet normal 2.014592265027538e-14 1.0 2.3147390119628602e-14
  outer loop
    vertex 32.38369043277479 23.4634751756515 6.711520228463996e-13
    vertex 26.783690432774563 23.463475175650775 3.614359353945325
    vertex 27.169579960610513 23.463475175649695 3.454518677938077
  endloop
endfacet
facet normal 2.014592265027538e-14 1.0 2.3147390119628602e-14
  outer loop
    vertex 32.38369043277479 23.4634751756515 6.711520228463996e-13
    vertex 27.169579960610513 23.463475175649695 3.454518677938077
    vertex 27.583690432774567 23.463475175648792 3.4000000000004804
  endloop
endfacet
facet normal 2.014592265027538e-14 1.0 2.3147390119628602e-14
  outer loop
    vertex 26.038209110712053 23.463475175653617 4.585889527836558
    vertex 23.783690432773955 23.463475175651254 16.993131592447043
    vertex 25.98369043277457 23.463475175654565 5.000000000000611
  endloop
endfacet
facet normal 2.014592265027538e-14 1.0 2.3147390119628602e-14
  outer loop
    vertex 25.98369043277457 23.463475175654565 5.000000000000611
    vertex 23.783690432773955 23.463475175651254 16.993131592447043
    vertex 26.038209110712074 23.463475175655063 5.414110472164667
  endloop
endfacet
facet normal 2.014592265027538e-14 1.0 2.3147390119628602e-14
  outer loop
    vertex 26.038209110712074 23.463475175655063 5.414110472164667
    vertex 23.783690432773955 23.463475175651254 16.993131592447043
    vertex 26.19804978671946 23.463475175655603 5.800000000000436
  endloop
endfacet
facet normal 2.014592265027538e-14 1.0 2.3147390119628602e-14
  outer loop
    vertex 26.19804978671946 23.463475175655603 5.800000000000436
    vertex 23.783690432773955 23.463475175651254 16.993131592447043
    vertex 26.452319582876108 23.463475175655603 6.13137084989896
  endloop
endfacet
facet normal 2.014592265027538e-14 1.0 2.3147390119628602e-14
  outer loop
    vertex 26.452319582876108 23.463475175655603 6.13137084989896
    vertex 23.783690432773955 23.463475175651254 16.993131592447043
    vertex 26.78369043277462 23.463475175655468 6.385640646055585
  endloop
endfacet
facet normal 2.014592265027538e-14 1.0 2.3147390119628602e-14
  outer loop
    vertex 26.78369043277462 23.463475175655468 6.385640646055585
    vertex 23.783690432773955 23.463475175651254 16.993131592447043
    vertex 27.169579960610513 23.463475175654928 6.5454813220630355
  endloop
endfacet
facet normal 2.014592265027538e-14 1.0 2.3147390119628602e-14
  outer loop
    vertex 27.169579960610513 23.463475175654928 6.5454813220630355
    vertex 23.783690432773955 23.463475175651254 16.993131592447043
    vertex 27.583690432774567 23.463475175654207 6.600000000000474
  endloop
endfacet
facet normal 2.014592265027538e-14 1.0 2.3147390119628602e-14
  outer loop
    vertex 27.583690432774567 23.463475175654207 6.600000000000474
    vertex 23.783690432773955 23.463475175651254 16.993131592447043
    vertex 29.333683837605363 23.463475175876148 9.245003047219825
  endloop
endfacet
facet normal 2.014592265027538e-14 1.0 2.3147390119628602e-14
  outer loop
    vertex 27.583690432774567 23.463475175654207 6.600000000000474
    vertex 29.333683837605363 23.463475175876148 9.245003047219825
    vertex 31.133683837605584 23.463475175651272 9.245003047219697
  endloop
endfacet
facet normal 2.014592265027538e-14 1.0 2.3147390119628602e-14
  outer loop
    vertex 29.333683837605363 23.463475175876148 9.245003047219825
    vertex 23.783690432773955 23.463475175651254 16.993131592447043
    vertex 29.33368383004735 23.463475175838607 15.745003047191638
  endloop
endfacet
facet normal 2.014592265027538e-14 1.0 2.3147390119628602e-14
  outer loop
    vertex 32.38369043277479 23.4634751756515 6.711520228463996e-13
    vertex 31.133683837605584 23.463475175651272 9.245003047219697
    vertex 32.38369043277394 23.46347517565132 16.993131592447295
  endloop
endfacet
facet normal 2.014592265027538e-14 1.0 2.3147390119628602e-14
  outer loop
    vertex 31.133683837605584 23.463475175651272 9.245003047219697
    vertex 32.38369043277479 23.4634751756515 6.711520228463996e-13
    vertex 28.969331078829672 23.46347517564748 4.20000000000052
  endloop
endfacet
facet normal 2.014592265027538e-14 1.0 2.3147390119628602e-14
  outer loop
    vertex 28.969331078829672 23.46347517564748 4.20000000000052
    vertex 32.38369043277479 23.4634751756515 6.711520228463996e-13
    vertex 28.715061282673023 23.46347517564748 3.8686291501019947
  endloop
endfacet
facet normal 2.014592265027538e-14 1.0 2.3147390119628602e-14
  outer loop
    vertex 28.715061282673023 23.46347517564748 3.8686291501019947
    vertex 32.38369043277479 23.4634751756515 6.711520228463996e-13
    vertex 28.383690432774557 23.46347517564771 3.6143593539453716
  endloop
endfacet
facet normal 2.014592265027538e-14 1.0 2.3147390119628602e-14
  outer loop
    vertex 28.383690432774557 23.46347517564771 3.6143593539453716
    vertex 32.38369043277479 23.4634751756515 6.711520228463996e-13
    vertex 27.99780090493862 23.46347517564825 3.4545186779379207
  endloop
endfacet
facet normal 2.014592265027538e-14 1.0 2.3147390119628602e-14
  outer loop
    vertex 27.99780090493862 23.46347517564825 3.4545186779379207
    vertex 32.38369043277479 23.4634751756515 6.711520228463996e-13
    vertex 27.583690432774567 23.463475175648792 3.4000000000004804
  endloop
endfacet
facet normal 2.014592265027538e-14 1.0 2.3147390119628602e-14
  outer loop
    vertex 31.133683837605584 23.463475175651272 9.245003047219697
    vertex 28.969331078829672 23.46347517564748 4.20000000000052
    vertex 29.129171754837056 23.46347517564789 4.585889527836468
  endloop
endfacet
facet normal 2.014592265027538e-14 1.0 2.3147390119628602e-14
  outer loop
    vertex 31.133683837605584 23.463475175651272 9.245003047219697
    vertex 29.129171754837056 23.46347517564789 4.585889527836468
    vertex 29.18369043277456 23.46347517564843 5.000000000000524
  endloop
endfacet
facet normal 2.014592265027538e-14 1.0 2.3147390119628602e-14
  outer loop
    vertex 31.133683837605584 23.463475175651272 9.245003047219697
    vertex 29.18369043277456 23.46347517564843 5.000000000000524
    vertex 29.129171754837078 23.463475175649332 5.414110472164577
  endloop
endfacet
facet normal 2.014592265027538e-14 1.0 2.3147390119628602e-14
  outer loop
    vertex 31.133683837605584 23.463475175651272 9.245003047219697
    vertex 29.129171754837078 23.463475175649332 5.414110472164577
    vertex 28.969331078829672 23.46347517565019 5.800000000000517
  endloop
endfacet
facet normal 2.014592265027538e-14 1.0 2.3147390119628602e-14
  outer loop
    vertex 31.133683837605584 23.463475175651272 9.245003047219697
    vertex 28.969331078829672 23.46347517565019 5.800000000000517
    vertex 28.715061282673048 23.463475175651272 6.1313708498990245
  endloop
endfacet
facet normal 2.014592265027538e-14 1.0 2.3147390119628602e-14
  outer loop
    vertex 31.133683837605584 23.463475175651272 9.245003047219697
    vertex 28.715061282673048 23.463475175651272 6.1313708498990245
    vertex 28.383690432774614 23.463475175652402 6.385640646055631
  endloop
endfacet
facet normal 2.014592265027538e-14 1.0 2.3147390119628602e-14
  outer loop
    vertex 31.133683837605584 23.463475175651272 9.245003047219697
    vertex 28.383690432774614 23.463475175652402 6.385640646055631
    vertex 27.99780090493862 23.463475175653482 6.545481322062879
  endloop
endfacet
facet normal 2.014592265027538e-14 1.0 2.3147390119628602e-14
  outer loop
    vertex 31.133683837605584 23.463475175651272 9.245003047219697
    vertex 27.99780090493862 23.463475175653482 6.545481322062879
    vertex 27.583690432774567 23.463475175654207 6.600000000000474
  endloop
endfacet
facet normal 2.014592265027538e-14 1.0 2.3147390119628602e-14
  outer loop
    vertex 32.38369043277394 23.46347517565132 16.993131592447295
    vertex 31.133683837605584 23.463475175651272 9.245003047219697
    vertex 31.133683839041687 23.463475175633224 15.745003047191508
  endloop
endfacet
facet normal 2.014592265027538e-14 1.0 2.3147390119628602e-14
  outer loop
    vertex 32.38369043277394 23.46347517565132 16.993131592447295
    vertex 31.133683839041687 23.463475175633224 15.745003047191508
    vertex 29.33368383004735 23.463475175838607 15.745003047191638
  endloop
endfacet
facet normal 2.014592265027538e-14 1.0 2.3147390119628602e-14
  outer loop
    vertex 32.38369043277394 23.46347517565132 16.993131592447295
    vertex 29.33368383004735 23.463475175838607 15.745003047191638
    vertex 23.783690432773955 23.463475175651254 16.993131592447043
  endloop
endfacet
facet normal 1.0 -7.494582154611142e-10 4.14016797679069e-14
  outer loop
    vertex 29.333683837605363 23.463475175876148 9.245003047219825
    vertex 29.333683828252735 8.463475175876939 15.745003047093551
    vertex 29.33368382825301 8.463475175876216 9.245003047224431
  endloop
endfacet
facet normal 1.0 -7.494582154611142e-10 4.14016797679069e-14
  outer loop
    vertex 29.333683828252735 8.463475175876939 15.745003047093551
    vertex 29.333683837605363 23.463475175876148 9.245003047219825
    vertex 29.33368383004735 23.463475175838607 15.745003047191638
  endloop
endfacet
facet normal 5.01327381919659e-14 8.53509855386626e-12 -1.0
  outer loop
    vertex 29.33368383004735 23.463475175838607 15.745003047191638
    vertex 31.133683837247027 8.463475175671464 15.745003047093602
    vertex 29.333683828252735 8.463475175876939 15.745003047093551
  endloop
endfacet
facet normal 5.01327381919659e-14 8.53509855386626e-12 -1.0
  outer loop
    vertex 31.133683837247027 8.463475175671464 15.745003047093602
    vertex 29.33368383004735 23.463475175838607 15.745003047191638
    vertex 31.133683839041687 23.463475175633224 15.745003047191508
  endloop
endfacet
facet normal -3.6218713213761016e-14 -1.0 -2.124127079240589e-14
  outer loop
    vertex 32.383690432774294 8.46347517565112 4.906741679633341e-13
    vertex 27.99780090491024 8.463475175646877 3.4545186779635486
    vertex 27.583690432746184 8.46347517564751 3.400000000026108
  endloop
endfacet
facet normal -3.6218713213761016e-14 -1.0 -2.124127079240589e-14
  outer loop
    vertex 27.99780090491024 8.463475175646877 3.4545186779635486
    vertex 32.383690432774294 8.46347517565112 4.906741679633341e-13
    vertex 28.383690432746178 8.463475175646607 3.6143593539709995
  endloop
endfacet
facet normal -3.6218713213761016e-14 -1.0 -2.124127079240589e-14
  outer loop
    vertex 28.383690432746178 8.463475175646607 3.6143593539709995
    vertex 32.383690432774294 8.46347517565112 4.906741679633341e-13
    vertex 28.715061282644644 8.463475175646156 3.8686291501276227
  endloop
endfacet
facet normal -3.6218713213761016e-14 -1.0 -2.124127079240589e-14
  outer loop
    vertex 28.715061282644644 8.463475175646156 3.8686291501276227
    vertex 32.383690432774294 8.46347517565112 4.906741679633341e-13
    vertex 28.969331078801293 8.463475175646247 4.200000000026147
  endloop
endfacet
facet normal -3.6218713213761016e-14 -1.0 -2.124127079240589e-14
  outer loop
    vertex 28.969331078801293 8.463475175646247 4.200000000026147
    vertex 32.383690432774294 8.46347517565112 4.906741679633341e-13
    vertex 31.1336838372473 8.46347517565125 9.245003047224122
  endloop
endfacet
facet normal -3.6218713213761016e-14 -1.0 -2.124127079240589e-14
  outer loop
    vertex 31.1336838372473 8.46347517565125 9.245003047224122
    vertex 32.383690432774294 8.46347517565112 4.906741679633341e-13
    vertex 32.38369043277385 8.46347517565112 16.993131592447114
  endloop
endfacet
facet normal -3.6218713213761016e-14 -1.0 -2.124127079240589e-14
  outer loop
    vertex 28.969331078801293 8.463475175646247 4.200000000026147
    vertex 31.1336838372473 8.46347517565125 9.245003047224122
    vertex 29.129171754808677 8.463475175646607 4.585889527862096
  endloop
endfacet
facet normal -3.6218713213761016e-14 -1.0 -2.124127079240589e-14
  outer loop
    vertex 29.129171754808677 8.463475175646607 4.585889527862096
    vertex 31.1336838372473 8.46347517565125 9.245003047224122
    vertex 29.183690432746182 8.463475175647329 5.0000000000261515
  endloop
endfacet
facet normal -3.6218713213761016e-14 -1.0 -2.124127079240589e-14
  outer loop
    vertex 29.183690432746182 8.463475175647329 5.0000000000261515
    vertex 31.1336838372473 8.46347517565125 9.245003047224122
    vertex 29.1291717548087 8.463475175648052 5.414110472190205
  endloop
endfacet
facet normal -3.6218713213761016e-14 -1.0 -2.124127079240589e-14
  outer loop
    vertex 29.1291717548087 8.463475175648052 5.414110472190205
    vertex 31.1336838372473 8.46347517565125 9.245003047224122
    vertex 28.969331078801293 8.463475175649133 5.800000000026144
  endloop
endfacet
facet normal -3.6218713213761016e-14 -1.0 -2.124127079240589e-14
  outer loop
    vertex 28.969331078801293 8.463475175649133 5.800000000026144
    vertex 31.1336838372473 8.46347517565125 9.245003047224122
    vertex 28.715061282644665 8.463475175650126 6.131370849924653
  endloop
endfacet
facet normal -3.6218713213761016e-14 -1.0 -2.124127079240589e-14
  outer loop
    vertex 28.715061282644665 8.463475175650126 6.131370849924653
    vertex 31.1336838372473 8.46347517565125 9.245003047224122
    vertex 28.383690432746235 8.4634751756513 6.385640646081078
  endloop
endfacet
facet normal -3.6218713213761016e-14 -1.0 -2.124127079240589e-14
  outer loop
    vertex 28.383690432746235 8.4634751756513 6.385640646081078
    vertex 31.1336838372473 8.46347517565125 9.245003047224122
    vertex 27.99780090491024 8.463475175652292 6.545481322088507
  endloop
endfacet
facet normal -3.6218713213761016e-14 -1.0 -2.124127079240589e-14
  outer loop
    vertex 27.99780090491024 8.463475175652292 6.545481322088507
    vertex 31.1336838372473 8.46347517565125 9.245003047224122
    vertex 27.583690432746184 8.463475175652924 6.600000000026102
  endloop
endfacet
facet normal -3.6218713213761016e-14 -1.0 -2.124127079240589e-14
  outer loop
    vertex 31.1336838372473 8.46347517565125 9.245003047224122
    vertex 32.38369043277385 8.46347517565112 16.993131592447114
    vertex 31.133683837247027 8.463475175671464 15.745003047093602
  endloop
endfacet
facet normal -3.6218713213761016e-14 -1.0 -2.124127079240589e-14
  outer loop
    vertex 31.133683837247027 8.463475175671464 15.745003047093602
    vertex 32.38369043277385 8.46347517565112 16.993131592447114
    vertex 23.783690432773685 8.463475175651102 16.99313159244686
  endloop
endfacet
facet normal -3.6218713213761016e-14 -1.0 -2.124127079240589e-14
  outer loop
    vertex 23.783690432774318 8.463475175651642 2.40488184921616e-13
    vertex 26.038209110683674 8.463475175652382 4.585889527862186
    vertex 23.783690432773685 8.463475175651102 16.99313159244686
  endloop
endfacet
facet normal -3.6218713213761016e-14 -1.0 -2.124127079240589e-14
  outer loop
    vertex 26.038209110683674 8.463475175652382 4.585889527862186
    vertex 23.783690432774318 8.463475175651642 2.40488184921616e-13
    vertex 26.19804978669108 8.46347517565184 4.200000000026067
  endloop
endfacet
facet normal -3.6218713213761016e-14 -1.0 -2.124127079240589e-14
  outer loop
    vertex 26.19804978669108 8.46347517565184 4.200000000026067
    vertex 23.783690432774318 8.463475175651642 2.40488184921616e-13
    vertex 26.452319582847704 8.463475175650668 3.868629150127558
  endloop
endfacet
facet normal -3.6218713213761016e-14 -1.0 -2.124127079240589e-14
  outer loop
    vertex 26.452319582847704 8.463475175650668 3.868629150127558
    vertex 23.783690432774318 8.463475175651642 2.40488184921616e-13
    vertex 26.78369043274618 8.463475175649675 3.614359353970953
  endloop
endfacet
facet normal -3.6218713213761016e-14 -1.0 -2.124127079240589e-14
  outer loop
    vertex 26.78369043274618 8.463475175649675 3.614359353970953
    vertex 23.783690432774318 8.463475175651642 2.40488184921616e-13
    vertex 32.383690432774294 8.46347517565112 4.906741679633341e-13
  endloop
endfacet
facet normal -3.6218713213761016e-14 -1.0 -2.124127079240589e-14
  outer loop
    vertex 26.78369043274618 8.463475175649675 3.614359353970953
    vertex 32.383690432774294 8.46347517565112 4.906741679633341e-13
    vertex 27.16957996058213 8.463475175648503 3.4545186779635246
  endloop
endfacet
facet normal -3.6218713213761016e-14 -1.0 -2.124127079240589e-14
  outer loop
    vertex 27.16957996058213 8.463475175648503 3.4545186779635246
    vertex 32.383690432774294 8.46347517565112 4.906741679633341e-13
    vertex 27.583690432746184 8.46347517564751 3.400000000026108
  endloop
endfacet
facet normal -3.6218713213761016e-14 -1.0 -2.124127079240589e-14
  outer loop
    vertex 23.783690432773685 8.463475175651102 16.99313159244686
    vertex 26.038209110683674 8.463475175652382 4.585889527862186
    vertex 25.98369043274619 8.463475175653466 5.0000000000262395
  endloop
endfacet
facet normal -3.6218713213761016e-14 -1.0 -2.124127079240589e-14
  outer loop
    vertex 23.783690432773685 8.463475175651102 16.99313159244686
    vertex 25.98369043274619 8.463475175653466 5.0000000000262395
    vertex 26.038209110683695 8.463475175653826 5.4141104721901145
  endloop
endfacet
facet normal -3.6218713213761016e-14 -1.0 -2.124127079240589e-14
  outer loop
    vertex 23.783690432773685 8.463475175651102 16.99313159244686
    vertex 26.038209110683695 8.463475175653826 5.4141104721901145
    vertex 26.19804978669108 8.463475175654368 5.800000000026064
  endloop
endfacet
facet normal -3.6218713213761016e-14 -1.0 -2.124127079240589e-14
  outer loop
    vertex 23.783690432773685 8.463475175651102 16.99313159244686
    vertex 26.19804978669108 8.463475175654368 5.800000000026064
    vertex 26.45231958284773 8.463475175654278 6.131370849924588
  endloop
endfacet
facet normal -3.6218713213761016e-14 -1.0 -2.124127079240589e-14
  outer loop
    vertex 23.783690432773685 8.463475175651102 16.99313159244686
    vertex 26.45231958284773 8.463475175654278 6.131370849924588
    vertex 26.783690432746237 8.463475175654368 6.385640646081212
  endloop
endfacet
facet normal -3.6218713213761016e-14 -1.0 -2.124127079240589e-14
  outer loop
    vertex 23.783690432773685 8.463475175651102 16.99313159244686
    vertex 26.783690432746237 8.463475175654368 6.385640646081212
    vertex 27.16957996058213 8.463475175653556 6.545481322088663
  endloop
endfacet
facet normal -3.6218713213761016e-14 -1.0 -2.124127079240589e-14
  outer loop
    vertex 23.783690432773685 8.463475175651102 16.99313159244686
    vertex 27.16957996058213 8.463475175653556 6.545481322088663
    vertex 27.583690432746184 8.463475175652924 6.600000000026102
  endloop
endfacet
facet normal -3.6218713213761016e-14 -1.0 -2.124127079240589e-14
  outer loop
    vertex 23.783690432773685 8.463475175651102 16.99313159244686
    vertex 27.583690432746184 8.463475175652924 6.600000000026102
    vertex 29.33368382825301 8.463475175876216 9.245003047224431
  endloop
endfacet
facet normal -3.6218713213761016e-14 -1.0 -2.124127079240589e-14
  outer loop
    vertex 29.33368382825301 8.463475175876216 9.245003047224431
    vertex 27.583690432746184 8.463475175652924 6.600000000026102
    vertex 31.1336838372473 8.46347517565125 9.245003047224122
  endloop
endfacet
facet normal -3.6218713213761016e-14 -1.0 -2.124127079240589e-14
  outer loop
    vertex 23.783690432773685 8.463475175651102 16.99313159244686
    vertex 29.33368382825301 8.463475175876216 9.245003047224431
    vertex 29.333683828252735 8.463475175876939 15.745003047093551
  endloop
endfacet
facet normal -3.6218713213761016e-14 -1.0 -2.124127079240589e-14
  outer loop
    vertex 23.783690432773685 8.463475175651102 16.99313159244686
    vertex 29.333683828252735 8.463475175876939 15.745003047093551
    vertex 31.133683837247027 8.463475175671464 15.745003047093602
  endloop
endfacet
facet normal 0.13052619222004475 -1.932449393956496e-12 -0.9914448613738115
  outer loop
    vertex 27.169579960610513 23.463475175654928 6.5454813220630355
    vertex 27.583690432746184 8.463475175652924 6.600000000026102
    vertex 27.16957996058213 8.463475175653556 6.545481322088663
  endloop
endfacet
facet normal 0.13052619222004475 -1.932449393956496e-12 -0.9914448613738115
  outer loop
    vertex 27.583690432746184 8.463475175652924 6.600000000026102
    vertex 27.169579960610513 23.463475175654928 6.5454813220630355
    vertex 27.583690432774567 23.463475175654207 6.600000000000474
  endloop
endfacet
facet normal -0.13052619222004028 -1.4379129554053088e-12 -0.991444861373812
  outer loop
    vertex 27.583690432774567 23.463475175654207 6.600000000000474
    vertex 27.99780090491024 8.463475175652292 6.545481322088507
    vertex 27.583690432746184 8.463475175652924 6.600000000026102
  endloop
endfacet
facet normal -0.13052619222004028 -1.4379129554053088e-12 -0.991444861373812
  outer loop
    vertex 27.99780090491024 8.463475175652292 6.545481322088507
    vertex 27.583690432774567 23.463475175654207 6.600000000000474
    vertex 27.99780090493862 23.463475175653482 6.545481322062879
  endloop
endfacet
facet normal -0.3826834323651136 -8.453851252066418e-13 -0.923879532511277
  outer loop
    vertex 27.99780090493862 23.463475175653482 6.545481322062879
    vertex 28.383690432746235 8.4634751756513 6.385640646081078
    vertex 27.99780090491024 8.463475175652292 6.545481322088507
  endloop
endfacet
facet normal -0.3826834323651136 -8.453851252066418e-13 -0.923879532511277
  outer loop
    vertex 28.383690432746235 8.4634751756513 6.385640646081078
    vertex 27.99780090493862 23.463475175653482 6.545481322062879
    vertex 28.383690432774614 23.463475175652402 6.385640646055631
  endloop
endfacet
facet normal -0.6087614290087121 -1.9524569579028802e-13 -0.7933533402912418
  outer loop
    vertex 28.383690432774614 23.463475175652402 6.385640646055631
    vertex 28.715061282644665 8.463475175650126 6.131370849924653
    vertex 28.383690432746235 8.4634751756513 6.385640646081078
  endloop
endfacet
facet normal -0.6087614290087121 -1.9524569579028802e-13 -0.7933533402912418
  outer loop
    vertex 28.715061282644665 8.463475175650126 6.131370849924653
    vertex 28.383690432774614 23.463475175652402 6.385640646055631
    vertex 28.715061282673048 23.463475175651272 6.1313708498990245
  endloop
endfacet
facet normal -0.7933533402912412 4.681994051355453e-13 -0.608761429008713
  outer loop
    vertex 28.715061282644665 8.463475175650126 6.131370849924653
    vertex 28.969331078829672 23.46347517565019 5.800000000000517
    vertex 28.969331078801293 8.463475175649133 5.800000000026144
  endloop
endfacet
facet normal -0.7933533402912412 4.681994051355453e-13 -0.608761429008713
  outer loop
    vertex 28.969331078829672 23.46347517565019 5.800000000000517
    vertex 28.715061282644665 8.463475175650126 6.131370849924653
    vertex 28.715061282673048 23.463475175651272 6.1313708498990245
  endloop
endfacet
facet normal -0.9238795325112885 1.0997374903374269e-12 -0.3826834323650857
  outer loop
    vertex 28.969331078801293 8.463475175649133 5.800000000026144
    vertex 29.129171754837078 23.463475175649332 5.414110472164577
    vertex 29.1291717548087 8.463475175648052 5.414110472190205
  endloop
endfacet
facet normal -0.9238795325112885 1.0997374903374269e-12 -0.3826834323650857
  outer loop
    vertex 29.129171754837078 23.463475175649332 5.414110472164577
    vertex 28.969331078801293 8.463475175649133 5.800000000026144
    vertex 28.969331078829672 23.46347517565019 5.800000000000517
  endloop
endfacet
facet normal -0.9914448613738123 1.6563302829749757e-12 -0.13052619222003847
  outer loop
    vertex 29.1291717548087 8.463475175648052 5.414110472190205
    vertex 29.18369043277456 23.46347517564843 5.000000000000524
    vertex 29.183690432746182 8.463475175647329 5.0000000000261515
  endloop
endfacet
facet normal -0.9914448613738123 1.6563302829749757e-12 -0.13052619222003847
  outer loop
    vertex 29.18369043277456 23.46347517564843 5.000000000000524
    vertex 29.1291717548087 8.463475175648052 5.414110472190205
    vertex 29.129171754837078 23.463475175649332 5.414110472164577
  endloop
endfacet
facet normal -0.9914448613738058 2.100046904043005e-12 0.13052619222008707
  outer loop
    vertex 29.183690432746182 8.463475175647329 5.0000000000261515
    vertex 29.129171754837056 23.46347517564789 4.585889527836468
    vertex 29.129171754808677 8.463475175646607 4.585889527862096
  endloop
endfacet
facet normal -0.9914448613738058 2.100046904043005e-12 0.13052619222008707
  outer loop
    vertex 29.129171754837056 23.46347517564789 4.585889527836468
    vertex 29.183690432746182 8.463475175647329 5.0000000000261515
    vertex 29.18369043277456 23.46347517564843 5.000000000000524
  endloop
endfacet
facet normal -0.9238795325113087 2.4006487990919806e-12 0.3826834323650369
  outer loop
    vertex 29.129171754808677 8.463475175646607 4.585889527862096
    vertex 28.969331078829672 23.46347517564748 4.20000000000052
    vertex 28.969331078801293 8.463475175646247 4.200000000026147
  endloop
endfacet
facet normal -0.9238795325113087 2.4006487990919806e-12 0.3826834323650369
  outer loop
    vertex 28.969331078829672 23.46347517564748 4.20000000000052
    vertex 29.129171754808677 8.463475175646607 4.585889527862096
    vertex 29.129171754837056 23.46347517564789 4.585889527836468
  endloop
endfacet
facet normal -0.7933533402912042 2.537650445742711e-12 0.6087614290087611
  outer loop
    vertex 28.969331078801293 8.463475175646247 4.200000000026147
    vertex 28.715061282673023 23.46347517564748 3.8686291501019947
    vertex 28.715061282644644 8.463475175646156 3.8686291501276227
  endloop
endfacet
facet normal -0.7933533402912042 2.537650445742711e-12 0.6087614290087611
  outer loop
    vertex 28.715061282673023 23.46347517564748 3.8686291501019947
    vertex 28.969331078801293 8.463475175646247 4.200000000026147
    vertex 28.969331078829672 23.46347517564748 4.20000000000052
  endloop
endfacet
facet normal -0.608761429008741 2.501715408181665e-12 0.7933533402912195
  outer loop
    vertex 28.715061282644644 8.463475175646156 3.8686291501276227
    vertex 28.383690432774557 23.46347517564771 3.6143593539453716
    vertex 28.383690432746178 8.463475175646607 3.6143593539709995
  endloop
endfacet
facet normal -0.608761429008741 2.501715408181665e-12 0.7933533402912195
  outer loop
    vertex 28.383690432774557 23.46347517564771 3.6143593539453716
    vertex 28.715061282644644 8.463475175646156 3.8686291501276227
    vertex 28.715061282673023 23.46347517564748 3.8686291501019947
  endloop
endfacet
facet normal -0.38268343236510954 2.2952925998332374e-12 0.9238795325112785
  outer loop
    vertex 28.383690432746178 8.463475175646607 3.6143593539709995
    vertex 27.99780090493862 23.46347517564825 3.4545186779379207
    vertex 27.99780090491024 8.463475175646877 3.4545186779635486
  endloop
endfacet
facet normal -0.38268343236510954 2.2952925998332374e-12 0.9238795325112785
  outer loop
    vertex 27.99780090493862 23.46347517564825 3.4545186779379207
    vertex 28.383690432746178 8.463475175646607 3.6143593539709995
    vertex 28.383690432774557 23.46347517564771 3.6143593539453716
  endloop
endfacet
facet normal -0.13052619222004475 1.932449393956496e-12 0.9914448613738115
  outer loop
    vertex 27.99780090491024 8.463475175646877 3.4545186779635486
    vertex 27.583690432774567 23.463475175648792 3.4000000000004804
    vertex 27.583690432746184 8.46347517564751 3.400000000026108
  endloop
endfacet
facet normal -0.13052619222004475 1.932449393956496e-12 0.9914448613738115
  outer loop
    vertex 27.583690432774567 23.463475175648792 3.4000000000004804
    vertex 27.99780090491024 8.463475175646877 3.4545186779635486
    vertex 27.99780090493862 23.46347517564825 3.4545186779379207
  endloop
endfacet
facet normal 0.13052619222004028 1.4379129554053088e-12 0.991444861373812
  outer loop
    vertex 27.583690432746184 8.46347517564751 3.400000000026108
    vertex 27.169579960610513 23.463475175649695 3.454518677938077
    vertex 27.16957996058213 8.463475175648503 3.4545186779635246
  endloop
endfacet
facet normal 0.13052619222004028 1.4379129554053088e-12 0.991444861373812
  outer loop
    vertex 27.169579960610513 23.463475175649695 3.454518677938077
    vertex 27.583690432746184 8.46347517564751 3.400000000026108
    vertex 27.583690432774567 23.463475175648792 3.4000000000004804
  endloop
endfacet
facet normal 0.3826834323651136 8.453851252066418e-13 0.923879532511277
  outer loop
    vertex 27.16957996058213 8.463475175648503 3.4545186779635246
    vertex 26.783690432774563 23.463475175650775 3.614359353945325
    vertex 26.78369043274618 8.463475175649675 3.614359353970953
  endloop
endfacet
facet normal 0.3826834323651136 8.453851252066418e-13 0.923879532511277
  outer loop
    vertex 26.783690432774563 23.463475175650775 3.614359353945325
    vertex 27.16957996058213 8.463475175648503 3.4545186779635246
    vertex 27.169579960610513 23.463475175649695 3.454518677938077
  endloop
endfacet
facet normal 0.6087614290087121 1.9524569579028802e-13 0.7933533402912418
  outer loop
    vertex 26.78369043274618 8.463475175649675 3.614359353970953
    vertex 26.452319582876086 23.463475175651812 3.86862915010193
    vertex 26.452319582847704 8.463475175650668 3.868629150127558
  endloop
endfacet
facet normal 0.6087614290087121 1.9524569579028802e-13 0.7933533402912418
  outer loop
    vertex 26.452319582876086 23.463475175651812 3.86862915010193
    vertex 26.78369043274618 8.463475175649675 3.614359353970953
    vertex 26.783690432774563 23.463475175650775 3.614359353945325
  endloop
endfacet
facet normal 0.7933533402912412 -4.681994051355453e-13 0.608761429008713
  outer loop
    vertex 26.452319582876086 23.463475175651812 3.86862915010193
    vertex 26.19804978669108 8.46347517565184 4.200000000026067
    vertex 26.452319582847704 8.463475175650668 3.868629150127558
  endloop
endfacet
facet normal 0.7933533402912412 -4.681994051355453e-13 0.608761429008713
  outer loop
    vertex 26.19804978669108 8.46347517565184 4.200000000026067
    vertex 26.452319582876086 23.463475175651812 3.86862915010193
    vertex 26.19804978671946 23.463475175652896 4.200000000000439
  endloop
endfacet
facet normal 0.9238795325112865 -1.099737490337415e-12 0.3826834323650905
  outer loop
    vertex 26.19804978671946 23.463475175652896 4.200000000000439
    vertex 26.038209110683674 8.463475175652382 4.585889527862186
    vertex 26.19804978669108 8.46347517565184 4.200000000026067
  endloop
endfacet
facet normal 0.9238795325112865 -1.099737490337415e-12 0.3826834323650905
  outer loop
    vertex 26.038209110683674 8.463475175652382 4.585889527862186
    vertex 26.19804978671946 23.463475175652896 4.200000000000439
    vertex 26.038209110712053 23.463475175653617 4.585889527836558
  endloop
endfacet
facet normal 0.9914448613738124 -1.6563302829749792e-12 0.1305261922200367
  outer loop
    vertex 26.038209110712053 23.463475175653617 4.585889527836558
    vertex 25.98369043274619 8.463475175653466 5.0000000000262395
    vertex 26.038209110683674 8.463475175652382 4.585889527862186
  endloop
endfacet
facet normal 0.9914448613738124 -1.6563302829749792e-12 0.1305261922200367
  outer loop
    vertex 25.98369043274619 8.463475175653466 5.0000000000262395
    vertex 26.038209110712053 23.463475175653617 4.585889527836558
    vertex 25.98369043277457 23.463475175654565 5.000000000000611
  endloop
endfacet
facet normal 0.9914448613738058 -2.100046904043005e-12 -0.13052619222008707
  outer loop
    vertex 25.98369043277457 23.463475175654565 5.000000000000611
    vertex 26.038209110683695 8.463475175653826 5.4141104721901145
    vertex 25.98369043274619 8.463475175653466 5.0000000000262395
  endloop
endfacet
facet normal 0.9914448613738058 -2.100046904043005e-12 -0.13052619222008707
  outer loop
    vertex 26.038209110683695 8.463475175653826 5.4141104721901145
    vertex 25.98369043277457 23.463475175654565 5.000000000000611
    vertex 26.038209110712074 23.463475175655063 5.414110472164667
  endloop
endfacet
facet normal 0.9238795325113067 -2.400648799091985e-12 -0.3826834323650416
  outer loop
    vertex 26.038209110712074 23.463475175655063 5.414110472164667
    vertex 26.19804978669108 8.463475175654368 5.800000000026064
    vertex 26.038209110683695 8.463475175653826 5.4141104721901145
  endloop
endfacet
facet normal 0.9238795325113067 -2.400648799091985e-12 -0.3826834323650416
  outer loop
    vertex 26.19804978669108 8.463475175654368 5.800000000026064
    vertex 26.038209110712074 23.463475175655063 5.414110472164667
    vertex 26.19804978671946 23.463475175655603 5.800000000000436
  endloop
endfacet
facet normal 0.7933533402912092 -2.5376504457427094e-12 -0.6087614290087545
  outer loop
    vertex 26.19804978669108 8.463475175654368 5.800000000026064
    vertex 26.452319582876108 23.463475175655603 6.13137084989896
    vertex 26.45231958284773 8.463475175654278 6.131370849924588
  endloop
endfacet
facet normal 0.7933533402912092 -2.5376504457427094e-12 -0.6087614290087545
  outer loop
    vertex 26.452319582876108 23.463475175655603 6.13137084989896
    vertex 26.19804978669108 8.463475175654368 5.800000000026064
    vertex 26.19804978671946 23.463475175655603 5.800000000000436
  endloop
endfacet
facet normal 0.6087614290087325 -2.5017154081816605e-12 -0.7933533402912261
  outer loop
    vertex 26.452319582876108 23.463475175655603 6.13137084989896
    vertex 26.783690432746237 8.463475175654368 6.385640646081212
    vertex 26.45231958284773 8.463475175654278 6.131370849924588
  endloop
endfacet
facet normal 0.6087614290087325 -2.5017154081816605e-12 -0.7933533402912261
  outer loop
    vertex 26.783690432746237 8.463475175654368 6.385640646081212
    vertex 26.452319582876108 23.463475175655603 6.13137084989896
    vertex 26.78369043277462 23.463475175655468 6.385640646055585
  endloop
endfacet
facet normal 0.3826834323651211 -2.2952925998332515e-12 -0.9238795325112739
  outer loop
    vertex 26.78369043277462 23.463475175655468 6.385640646055585
    vertex 27.16957996058213 8.463475175653556 6.545481322088663
    vertex 26.783690432746237 8.463475175654368 6.385640646081212
  endloop
endfacet
facet normal 0.3826834323651211 -2.2952925998332515e-12 -0.9238795325112739
  outer loop
    vertex 27.16957996058213 8.463475175653556 6.545481322088663
    vertex 26.78369043277462 23.463475175655468 6.385640646055585
    vertex 27.169579960610513 23.463475175654928 6.5454813220630355
  endloop
endfacet
endsolid Untitled-5622a937
