 0
SECTION
 2
ENTITIES
  0
POLYLINE
 8
Layer0
 66
     1
70
    8
 10
0.0
 20
 0.0
 30
0.0
  0
VERTEX
  8
MY3DLAYER
10
565.50000352567
20
57.7722750992518
30
157.763158363232
 70
     32
  0
VERTEX
  8
MY3DLAYER
10
565.500003525704
20
360.864550189674
30
157.763158363232
 70
     32
  0
VERTEX
  8
MY3DLAYER
10
343.500003525704
20
360.8645501897
30
157.763158363232
 70
     32
  0
VERTEX
  8
MY3DLAYER
10
343.500003525671
20
57.7722750992767
30
157.763158363232
 70
     32
  0
VERTEX
  8
MY3DLAYER
10
565.50000352567
20
57.7722750992518
30
157.763158363232
 70
     32
  0
SEQEND
  0
POLYLINE
 8
Layer0
 66
     1
70
    8
 10
0.0
 20
 0.0
 30
0.0
  0
VERTEX
  8
MY3DLAYER
10
522.937143135895
20
351.289653564019
30
157.763158363232
 70
     32
  0
VERTEX
  8
MY3DLAYER
10
524.428590560945
20
351.768114728063
30
157.763158363232
 70
     32
  0
VERTEX
  8
MY3DLAYER
10
525.993053008949
20
351.844257724918
30
157.763158363232
 70
     32
  0
VERTEX
  8
MY3DLAYER
10
527.523914949473
20
351.512893535178
30
157.763158363232
 70
     32
  0
VERTEX
  8
MY3DLAYER
10
528.91685067114
20
350.796604080772
30
157.763158363232
 70
     32
  0
VERTEX
  8
MY3DLAYER
10
530.076933906451
20
349.744203304293
30
157.763158363232
 70
     32
  0
VERTEX
  8
MY3DLAYER
10
530.925106900051
20
348.427410579481
30
157.763158363232
 70
     32
  0
VERTEX
  8
MY3DLAYER
10
531.403568064094
20
346.93596315443
30
157.763158363232
 70
     32
  0
VERTEX
  8
MY3DLAYER
10
531.479711060949
20
345.371500706426
30
157.763158363232
 70
     32
  0
VERTEX
  8
MY3DLAYER
10
531.14834687121
20
343.840638765901
30
157.763158363232
 70
     32
  0
VERTEX
  8
MY3DLAYER
10
530.432057416804
20
342.447703044235
30
157.763158363232
 70
     32
  0
VERTEX
  8
MY3DLAYER
10
529.379656640324
20
341.287619808923
30
157.763158363232
 70
     32
  0
VERTEX
  8
MY3DLAYER
10
528.062863915513
20
340.439446815325
30
157.763158363232
 70
     32
  0
VERTEX
  8
MY3DLAYER
10
526.571416490462
20
339.960985651281
30
157.763158363232
 70
     32
  0
VERTEX
  8
MY3DLAYER
10
525.006954042457
20
339.884842654426
30
157.763158363232
 70
     32
  0
VERTEX
  8
MY3DLAYER
10
523.476092101933
20
340.216206844165
30
157.763158363232
 70
     32
  0
VERTEX
  8
MY3DLAYER
10
522.083156380267
20
340.932496298571
30
157.763158363232
 70
     32
  0
VERTEX
  8
MY3DLAYER
10
520.923073144955
20
341.984897075052
30
157.763158363232
 70
     32
  0
VERTEX
  8
MY3DLAYER
10
520.074900151356
20
343.301689799863
30
157.763158363232
 70
     32
  0
VERTEX
  8
MY3DLAYER
10
519.596438987313
20
344.793137224913
30
157.763158363232
 70
     32
  0
VERTEX
  8
MY3DLAYER
10
519.520295990458
20
346.357599672918
30
157.763158363232
 70
     32
  0
VERTEX
  8
MY3DLAYER
10
519.851660180196
20
347.888461613442
30
157.763158363232
 70
     32
  0
VERTEX
  8
MY3DLAYER
10
520.567949634602
20
349.281397335109
30
157.763158363232
 70
     32
  0
VERTEX
  8
MY3DLAYER
10
521.620350411083
20
350.44148057042
30
157.763158363232
 70
     32
  0
VERTEX
  8
MY3DLAYER
10
522.937143135895
20
351.289653564019
30
157.763158363232
 70
     32
  0
SEQEND
  0
POLYLINE
 8
Layer0
 66
     1
70
    8
 10
0.0
 20
 0.0
 30
0.0
  0
VERTEX
  8
MY3DLAYER
10
386.500003525704
20
351.060702612394
30
157.763158363232
 70
     32
  0
VERTEX
  8
MY3DLAYER
10
387.742644212823
20
350.107190876808
30
157.763158363232
 70
     32
  0
VERTEX
  8
MY3DLAYER
10
388.696155948411
20
348.864550189687
30
157.763158363232
 70
     32
  0
VERTEX
  8
MY3DLAYER
10
389.295558483438
20
347.417464460302
30
157.763158363232
 70
     32
  0
VERTEX
  8
MY3DLAYER
10
389.500003525704
20
345.864550189687
30
157.763158363232
 70
     32
  0
VERTEX
  8
MY3DLAYER
10
389.295558483438
20
344.311635919072
30
157.763158363232
 70
     32
  0
VERTEX
  8
MY3DLAYER
10
388.69615594841
20
342.864550189687
30
157.763158363232
 70
     32
  0
VERTEX
  8
MY3DLAYER
10
387.742644212822
20
341.621909502568
30
157.763158363232
 70
     32
  0
VERTEX
  8
MY3DLAYER
10
386.500003525703
20
340.668397766981
30
157.763158363232
 70
     32
  0
VERTEX
  8
MY3DLAYER
10
385.052917796318
20
340.068995231953
30
157.763158363232
 70
     32
  0
VERTEX
  8
MY3DLAYER
10
383.500003525703
20
339.864550189688
30
157.763158363232
 70
     32
  0
VERTEX
  8
MY3DLAYER
10
381.947089255088
20
340.068995231953
30
157.763158363232
 70
     32
  0
VERTEX
  8
MY3DLAYER
10
380.500003525703
20
340.668397766981
30
157.763158363232
 70
     32
  0
VERTEX
  8
MY3DLAYER
10
379.257362838584
20
341.621909502569
30
157.763158363232
 70
     32
  0
VERTEX
  8
MY3DLAYER
10
378.303851102997
20
342.864550189688
30
157.763158363232
 70
     32
  0
VERTEX
  8
MY3DLAYER
10
377.704448567969
20
344.311635919073
30
157.763158363232
 70
     32
  0
VERTEX
  8
MY3DLAYER
10
377.500003525703
20
345.864550189688
30
157.763158363232
 70
     32
  0
VERTEX
  8
MY3DLAYER
10
377.704448567969
20
347.417464460303
30
157.763158363232
 70
     32
  0
VERTEX
  8
MY3DLAYER
10
378.303851102997
20
348.864550189688
30
157.763158363232
 70
     32
  0
VERTEX
  8
MY3DLAYER
10
379.257362838584
20
350.107190876808
30
157.763158363232
 70
     32
  0
VERTEX
  8
MY3DLAYER
10
380.500003525704
20
351.060702612395
30
157.763158363232
 70
     32
  0
VERTEX
  8
MY3DLAYER
10
381.947089255089
20
351.660105147423
30
157.763158363232
 70
     32
  0
VERTEX
  8
MY3DLAYER
10
383.500003525704
20
351.864550189689
30
157.763158363232
 70
     32
  0
VERTEX
  8
MY3DLAYER
10
385.052917796319
20
351.660105147421
30
157.763158363232
 70
     32
  0
VERTEX
  8
MY3DLAYER
10
386.500003525704
20
351.060702612394
30
157.763158363232
 70
     32
  0
SEQEND
  0
POLYLINE
 8
Layer0
 66
     1
70
    8
 10
0.0
 20
 0.0
 30
0.0
  0
VERTEX
  8
MY3DLAYER
10
457.088193976707
20
159.113016836373
30
157.763158363232
 70
     32
  0
VERTEX
  8
MY3DLAYER
10
454.500003525682
20
158.772275099264
30
157.763158363232
 70
     32
  0
VERTEX
  8
MY3DLAYER
10
451.911813074657
20
159.113016836374
30
157.763158363232
 70
     32
  0
VERTEX
  8
MY3DLAYER
10
449.500003525682
20
160.11202106142
30
157.763158363232
 70
     32
  0
VERTEX
  8
MY3DLAYER
10
447.428935713817
20
161.701207287399
30
157.763158363232
 70
     32
  0
VERTEX
  8
MY3DLAYER
10
445.839749487839
20
163.772275099265
30
157.763158363232
 70
     32
  0
VERTEX
  8
MY3DLAYER
10
444.840745262792
20
166.18408464824
30
157.763158363232
 70
     32
  0
VERTEX
  8
MY3DLAYER
10
444.500003525683
20
168.772275099265
30
157.763158363232
 70
     32
  0
VERTEX
  8
MY3DLAYER
10
444.840745262793
20
171.360465550291
30
157.763158363232
 70
     32
  0
VERTEX
  8
MY3DLAYER
10
445.83974948784
20
173.772275099265
30
157.763158363232
 70
     32
  0
VERTEX
  8
MY3DLAYER
10
447.428935713819
20
175.843342911131
30
157.763158363232
 70
     32
  0
VERTEX
  8
MY3DLAYER
10
449.500003525685
20
177.432529137109
30
157.763158363232
 70
     32
  0
VERTEX
  8
MY3DLAYER
10
451.911813074659
20
178.431533362155
30
157.763158363232
 70
     32
  0
VERTEX
  8
MY3DLAYER
10
454.500003525685
20
178.772275099264
30
157.763158363232
 70
     32
  0
VERTEX
  8
MY3DLAYER
10
457.088193976709
20
178.431533362155
30
157.763158363232
 70
     32
  0
VERTEX
  8
MY3DLAYER
10
459.500003525685
20
177.432529137108
30
157.763158363232
 70
     32
  0
VERTEX
  8
MY3DLAYER
10
461.57107133755
20
175.843342911129
30
157.763158363232
 70
     32
  0
VERTEX
  8
MY3DLAYER
10
463.160257563529
20
173.772275099263
30
157.763158363232
 70
     32
  0
VERTEX
  8
MY3DLAYER
10
464.159261788575
20
171.360465550288
30
157.763158363232
 70
     32
  0
VERTEX
  8
MY3DLAYER
10
464.500003525683
20
168.772275099263
30
157.763158363232
 70
     32
  0
VERTEX
  8
MY3DLAYER
10
464.159261788574
20
166.184084648238
30
157.763158363232
 70
     32
  0
VERTEX
  8
MY3DLAYER
10
463.160257563527
20
163.772275099263
30
157.763158363232
 70
     32
  0
VERTEX
  8
MY3DLAYER
10
461.571071337548
20
161.701207287398
30
157.763158363232
 70
     32
  0
VERTEX
  8
MY3DLAYER
10
459.500003525682
20
160.112021061419
30
157.763158363232
 70
     32
  0
VERTEX
  8
MY3DLAYER
10
457.088193976707
20
159.113016836373
30
157.763158363232
 70
     32
  0
SEQEND
  0
POLYLINE
 8
Layer0
 66
     1
70
    8
 10
0.0
 20
 0.0
 30
0.0
  0
VERTEX
  8
MY3DLAYER
10
457.568151821887
20
212.777705781668
30
157.763158363232
 70
     32
  0
VERTEX
  8
MY3DLAYER
10
457.500003474465
20
213.295343871873
30
157.763158363232
 70
     32
  0
VERTEX
  8
MY3DLAYER
10
457.568151821886
20
213.812981962078
30
157.763158363232
 70
     32
  0
VERTEX
  8
MY3DLAYER
10
457.767952666897
20
214.295343871874
30
157.763158363232
 70
     32
  0
VERTEX
  8
MY3DLAYER
10
458.085789912093
20
214.709557434246
30
157.763158363232
 70
     32
  0
VERTEX
  8
MY3DLAYER
10
458.500003474465
20
215.027394679442
30
157.763158363232
 70
     32
  0
VERTEX
  8
MY3DLAYER
10
458.982365384261
20
215.227195524452
30
157.763158363232
 70
     32
  0
VERTEX
  8
MY3DLAYER
10
459.500003474465
20
215.295343871873
30
157.763158363232
 70
     32
  0
VERTEX
  8
MY3DLAYER
10
460.017641564671
20
215.227195524451
30
157.763158363232
 70
     32
  0
VERTEX
  8
MY3DLAYER
10
460.500003474465
20
215.027394679442
30
157.763158363232
 70
     32
  0
VERTEX
  8
MY3DLAYER
10
460.914217036839
20
214.709557434246
30
157.763158363232
 70
     32
  0
VERTEX
  8
MY3DLAYER
10
461.232054282035
20
214.295343871873
30
157.763158363232
 70
     32
  0
VERTEX
  8
MY3DLAYER
10
461.431855127043
20
213.812981962078
30
157.763158363232
 70
     32
  0
VERTEX
  8
MY3DLAYER
10
461.500003474465
20
213.295343871873
30
157.763158363232
 70
     32
  0
VERTEX
  8
MY3DLAYER
10
461.431855127044
20
212.777705781668
30
157.763158363232
 70
     32
  0
VERTEX
  8
MY3DLAYER
10
461.232054282034
20
212.295343871873
30
157.763158363232
 70
     32
  0
VERTEX
  8
MY3DLAYER
10
460.914217036838
20
211.8811303095
30
157.763158363232
 70
     32
  0
VERTEX
  8
MY3DLAYER
10
460.500003474465
20
211.563293064304
30
157.763158363232
 70
     32
  0
VERTEX
  8
MY3DLAYER
10
460.017641564669
20
211.363492219295
30
157.763158363232
 70
     32
  0
VERTEX
  8
MY3DLAYER
10
459.500003474464
20
211.295343871873
30
157.763158363232
 70
     32
  0
VERTEX
  8
MY3DLAYER
10
458.982365384259
20
211.363492219296
30
157.763158363232
 70
     32
  0
VERTEX
  8
MY3DLAYER
10
458.500003474465
20
211.563293064304
30
157.763158363232
 70
     32
  0
VERTEX
  8
MY3DLAYER
10
458.085789912092
20
211.8811303095
30
157.763158363232
 70
     32
  0
VERTEX
  8
MY3DLAYER
10
457.767952666896
20
212.295343871874
30
157.763158363232
 70
     32
  0
VERTEX
  8
MY3DLAYER
10
457.568151821887
20
212.777705781668
30
157.763158363232
 70
     32
  0
SEQEND
  0
POLYLINE
 8
Layer0
 66
     1
70
    8
 10
0.0
 20
 0.0
 30
0.0
  0
VERTEX
  8
MY3DLAYER
10
451.431855127043
20
213.812981962079
30
157.763158363232
 70
     32
  0
VERTEX
  8
MY3DLAYER
10
451.500003474465
20
213.295343871874
30
157.763158363232
 70
     32
  0
VERTEX
  8
MY3DLAYER
10
451.431855127043
20
212.777705781669
30
157.763158363232
 70
     32
  0
VERTEX
  8
MY3DLAYER
10
451.232054282034
20
212.295343871874
30
157.763158363232
 70
     32
  0
VERTEX
  8
MY3DLAYER
10
450.914217036838
20
211.881130309501
30
157.763158363232
 70
     32
  0
VERTEX
  8
MY3DLAYER
10
450.500003474465
20
211.563293064305
30
157.763158363232
 70
     32
  0
VERTEX
  8
MY3DLAYER
10
450.017641564669
20
211.363492219296
30
157.763158363232
 70
     32
  0
VERTEX
  8
MY3DLAYER
10
449.500003474464
20
211.295343871874
30
157.763158363232
 70
     32
  0
VERTEX
  8
MY3DLAYER
10
448.982365384259
20
211.363492219296
30
157.763158363232
 70
     32
  0
VERTEX
  8
MY3DLAYER
10
448.500003474465
20
211.563293064305
30
157.763158363232
 70
     32
  0
VERTEX
  8
MY3DLAYER
10
448.085789912092
20
211.881130309501
30
157.763158363232
 70
     32
  0
VERTEX
  8
MY3DLAYER
10
447.767952666896
20
212.295343871874
30
157.763158363232
 70
     32
  0
VERTEX
  8
MY3DLAYER
10
447.568151821887
20
212.777705781669
30
157.763158363232
 70
     32
  0
VERTEX
  8
MY3DLAYER
10
447.500003474465
20
213.295343871874
30
157.763158363232
 70
     32
  0
VERTEX
  8
MY3DLAYER
10
447.568151821886
20
213.812981962079
30
157.763158363232
 70
     32
  0
VERTEX
  8
MY3DLAYER
10
447.767952666897
20
214.295343871874
30
157.763158363232
 70
     32
  0
VERTEX
  8
MY3DLAYER
10
448.085789912093
20
214.709557434247
30
157.763158363232
 70
     32
  0
VERTEX
  8
MY3DLAYER
10
448.500003474465
20
215.027394679443
30
157.763158363232
 70
     32
  0
VERTEX
  8
MY3DLAYER
10
448.982365384261
20
215.227195524452
30
157.763158363232
 70
     32
  0
VERTEX
  8
MY3DLAYER
10
449.500003474465
20
215.295343871874
30
157.763158363232
 70
     32
  0
VERTEX
  8
MY3DLAYER
10
450.017641564671
20
215.227195524452
30
157.763158363232
 70
     32
  0
VERTEX
  8
MY3DLAYER
10
450.500003474465
20
215.027394679443
30
157.763158363232
 70
     32
  0
VERTEX
  8
MY3DLAYER
10
450.914217036839
20
214.709557434247
30
157.763158363232
 70
     32
  0
VERTEX
  8
MY3DLAYER
10
451.232054282035
20
214.295343871874
30
157.763158363232
 70
     32
  0
VERTEX
  8
MY3DLAYER
10
451.431855127043
20
213.812981962079
30
157.763158363232
 70
     32
  0
SEQEND
  0
POLYLINE
 8
Layer0
 66
     1
70
    8
 10
0.0
 20
 0.0
 30
0.0
  0
VERTEX
  8
MY3DLAYER
10
480.423415740889
20
289.723033845363
30
157.763158363232
 70
     32
  0
VERTEX
  8
MY3DLAYER
10
480.269895884842
20
289.224009754274
30
157.763158363232
 70
     32
  0
VERTEX
  8
MY3DLAYER
10
479.9924501523
20
288.781723359298
30
157.763158363232
 70
     32
  0
VERTEX
  8
MY3DLAYER
10
479.609986011433
20
288.426315747338
30
157.763158363232
 70
     32
  0
VERTEX
  8
MY3DLAYER
10
479.14856776139
20
288.182007359811
30
157.763158363232
 70
     32
  0
VERTEX
  8
MY3DLAYER
10
478.639640293384
20
288.065447409589
30
157.763158363232
 70
     32
  0
VERTEX
  8
MY3DLAYER
10
478.117886173316
20
288.084579264655
30
157.763158363232
 70
     32
  0
VERTEX
  8
MY3DLAYER
10
477.618862082226
20
288.238099120701
30
157.763158363232
 70
     32
  0
VERTEX
  8
MY3DLAYER
10
477.176575687251
20
288.515544853244
30
157.763158363232
 70
     32
  0
VERTEX
  8
MY3DLAYER
10
476.821168075291
20
288.89800899411
30
157.763158363232
 70
     32
  0
VERTEX
  8
MY3DLAYER
10
476.576859687763
20
289.359427244152
30
157.763158363232
 70
     32
  0
VERTEX
  8
MY3DLAYER
10
476.46029973754
20
289.868354712159
30
157.763158363232
 70
     32
  0
VERTEX
  8
MY3DLAYER
10
476.479431592607
20
290.390108832228
30
157.763158363232
 70
     32
  0
VERTEX
  8
MY3DLAYER
10
476.632951448654
20
290.889132923316
30
157.763158363232
 70
     32
  0
VERTEX
  8
MY3DLAYER
10
476.910397181197
20
291.331419318293
30
157.763158363232
 70
     32
  0
VERTEX
  8
MY3DLAYER
10
477.292861322063
20
291.686826930253
30
157.763158363232
 70
     32
  0
VERTEX
  8
MY3DLAYER
10
477.754279572104
20
291.931135317779
30
157.763158363232
 70
     32
  0
VERTEX
  8
MY3DLAYER
10
478.263207040111
20
292.047695268001
30
157.763158363232
 70
     32
  0
VERTEX
  8
MY3DLAYER
10
478.784961160181
20
292.028563412936
30
157.763158363232
 70
     32
  0
VERTEX
  8
MY3DLAYER
10
479.283985251269
20
291.875043556889
30
157.763158363232
 70
     32
  0
VERTEX
  8
MY3DLAYER
10
479.726271646245
20
291.597597824347
30
157.763158363232
 70
     32
  0
VERTEX
  8
MY3DLAYER
10
480.081679258205
20
291.215133683481
30
157.763158363232
 70
     32
  0
VERTEX
  8
MY3DLAYER
10
480.325987645731
20
290.753715433439
30
157.763158363232
 70
     32
  0
VERTEX
  8
MY3DLAYER
10
480.442547595953
20
290.244787965432
30
157.763158363232
 70
     32
  0
VERTEX
  8
MY3DLAYER
10
480.423415740889
20
289.723033845363
30
157.763158363232
 70
     32
  0
SEQEND
  0
POLYLINE
 8
Layer0
 66
     1
70
    8
 10
0.0
 20
 0.0
 30
0.0
  0
VERTEX
  8
MY3DLAYER
10
485.571792683077
20
286.227300909623
30
157.763158363232
 70
     32
  0
VERTEX
  8
MY3DLAYER
10
485.725312539123
20
286.726325000711
30
157.763158363232
 70
     32
  0
VERTEX
  8
MY3DLAYER
10
486.002758271667
20
287.168611395688
30
157.763158363232
 70
     32
  0
VERTEX
  8
MY3DLAYER
10
486.385222412532
20
287.524019007647
30
157.763158363232
 70
     32
  0
VERTEX
  8
MY3DLAYER
10
486.846640662575
20
287.768327395174
30
157.763158363232
 70
     32
  0
VERTEX
  8
MY3DLAYER
10
487.355568130581
20
287.884887345396
30
157.763158363232
 70
     32
  0
VERTEX
  8
MY3DLAYER
10
487.87732225065
20
287.865755490331
30
157.763158363232
 70
     32
  0
VERTEX
  8
MY3DLAYER
10
488.37634634174
20
287.712235634284
30
157.763158363232
 70
     32
  0
VERTEX
  8
MY3DLAYER
10
488.818632736715
20
287.434789901742
30
157.763158363232
 70
     32
  0
VERTEX
  8
MY3DLAYER
10
489.174040348675
20
287.052325760875
30
157.763158363232
 70
     32
  0
VERTEX
  8
MY3DLAYER
10
489.4183487362
20
286.590907510834
30
157.763158363232
 70
     32
  0
VERTEX
  8
MY3DLAYER
10
489.534908686424
20
286.081980042827
30
157.763158363232
 70
     32
  0
VERTEX
  8
MY3DLAYER
10
489.515776831359
20
285.560225922758
30
157.763158363232
 70
     32
  0
VERTEX
  8
MY3DLAYER
10
489.362256975312
20
285.061201831669
30
157.763158363232
 70
     32
  0
VERTEX
  8
MY3DLAYER
10
489.084811242769
20
284.618915436693
30
157.763158363232
 70
     32
  0
VERTEX
  8
MY3DLAYER
10
488.702347101903
20
284.263507824733
30
157.763158363232
 70
     32
  0
VERTEX
  8
MY3DLAYER
10
488.240928851861
20
284.019199437206
30
157.763158363232
 70
     32
  0
VERTEX
  8
MY3DLAYER
10
487.732001383854
20
283.902639486984
30
157.763158363232
 70
     32
  0
VERTEX
  8
MY3DLAYER
10
487.210247263786
20
283.921771342049
30
157.763158363232
 70
     32
  0
VERTEX
  8
MY3DLAYER
10
486.711223172696
20
284.075291198096
30
157.763158363232
 70
     32
  0
VERTEX
  8
MY3DLAYER
10
486.268936777721
20
284.352736930639
30
157.763158363232
 70
     32
  0
VERTEX
  8
MY3DLAYER
10
485.913529165761
20
284.735201071505
30
157.763158363232
 70
     32
  0
VERTEX
  8
MY3DLAYER
10
485.669220778235
20
285.196619321547
30
157.763158363232
 70
     32
  0
VERTEX
  8
MY3DLAYER
10
485.552660828011
20
285.705546789554
30
157.763158363232
 70
     32
  0
VERTEX
  8
MY3DLAYER
10
485.571792683077
20
286.227300909623
30
157.763158363232
 70
     32
  0
SEQEND
  0
POLYLINE
 8
Layer0
 66
     1
70
    8
 10
0.0
 20
 0.0
 30
0.0
  0
VERTEX
  8
MY3DLAYER
10
351.060663697452
20
65.3329352710557
30
157.763158363232
 70
     32
  0
VERTEX
  8
MY3DLAYER
10
351.299041631348
20
65.0222750992757
30
157.763158363232
 70
     32
  0
VERTEX
  8
MY3DLAYER
10
351.448892265106
20
64.6605036669296
30
157.763158363232
 70
     32
  0
VERTEX
  8
MY3DLAYER
10
351.500003525672
20
64.2722750992757
30
157.763158363232
 70
     32
  0
VERTEX
  8
MY3DLAYER
10
351.448892265105
20
63.884046531622
30
157.763158363232
 70
     32
  0
VERTEX
  8
MY3DLAYER
10
351.299041631348
20
63.5222750992757
30
157.763158363232
 70
     32
  0
VERTEX
  8
MY3DLAYER
10
351.060663697451
20
63.211614927496
30
157.763158363232
 70
     32
  0
VERTEX
  8
MY3DLAYER
10
350.750003525672
20
62.9732369935995
30
157.763158363232
 70
     32
  0
VERTEX
  8
MY3DLAYER
10
350.388232093325
20
62.8233863598423
30
157.763158363232
 70
     32
  0
VERTEX
  8
MY3DLAYER
10
350.000003525672
20
62.7722750992759
30
157.763158363232
 70
     32
  0
VERTEX
  8
MY3DLAYER
10
349.611774958018
20
62.8233863598424
30
157.763158363232
 70
     32
  0
VERTEX
  8
MY3DLAYER
10
349.250003525672
20
62.9732369935993
30
157.763158363232
 70
     32
  0
VERTEX
  8
MY3DLAYER
10
348.939343353892
20
63.2116149274962
30
157.763158363232
 70
     32
  0
VERTEX
  8
MY3DLAYER
10
348.700965419995
20
63.522275099276
30
157.763158363232
 70
     32
  0
VERTEX
  8
MY3DLAYER
10
348.551114786238
20
63.8840465316223
30
157.763158363232
 70
     32
  0
VERTEX
  8
MY3DLAYER
10
348.500003525672
20
64.2722750992761
30
157.763158363232
 70
     32
  0
VERTEX
  8
MY3DLAYER
10
348.551114786238
20
64.6605036669299
30
157.763158363232
 70
     32
  0
VERTEX
  8
MY3DLAYER
10
348.700965419995
20
65.0222750992761
30
157.763158363232
 70
     32
  0
VERTEX
  8
MY3DLAYER
10
348.939343353892
20
65.3329352710559
30
157.763158363232
 70
     32
  0
VERTEX
  8
MY3DLAYER
10
349.250003525672
20
65.5713132049527
30
157.763158363232
 70
     32
  0
VERTEX
  8
MY3DLAYER
10
349.611774958018
20
65.7211638387096
30
157.763158363232
 70
     32
  0
VERTEX
  8
MY3DLAYER
10
350.000003525672
20
65.772275099276
30
157.763158363232
 70
     32
  0
VERTEX
  8
MY3DLAYER
10
350.388232093326
20
65.7211638387095
30
157.763158363232
 70
     32
  0
VERTEX
  8
MY3DLAYER
10
350.750003525672
20
65.5713132049529
30
157.763158363232
 70
     32
  0
VERTEX
  8
MY3DLAYER
10
351.060663697452
20
65.3329352710557
30
157.763158363232
 70
     32
  0
SEQEND
  0
POLYLINE
 8
Layer0
 66
     1
70
    8
 10
0.0
 20
 0.0
 30
0.0
  0
VERTEX
  8
MY3DLAYER
10
560.060663697451
20
63.2116149274727
30
157.763158363232
 70
     32
  0
VERTEX
  8
MY3DLAYER
10
559.750003525671
20
62.9732369935759
30
157.763158363232
 70
     32
  0
VERTEX
  8
MY3DLAYER
10
559.388232093325
20
62.823386359819
30
157.763158363232
 70
     32
  0
VERTEX
  8
MY3DLAYER
10
559.000003525671
20
62.7722750992527
30
157.763158363232
 70
     32
  0
VERTEX
  8
MY3DLAYER
10
558.611774958018
20
62.823386359819
30
157.763158363232
 70
     32
  0
VERTEX
  8
MY3DLAYER
10
558.250003525671
20
62.973236993576
30
157.763158363232
 70
     32
  0
VERTEX
  8
MY3DLAYER
10
557.939343353892
20
63.211614927473
30
157.763158363232
 70
     32
  0
VERTEX
  8
MY3DLAYER
10
557.700965419995
20
63.5222750992528
30
157.763158363232
 70
     32
  0
VERTEX
  8
MY3DLAYER
10
557.551114786238
20
63.8840465315991
30
157.763158363232
 70
     32
  0
VERTEX
  8
MY3DLAYER
10
557.500003525671
20
64.2722750992529
30
157.763158363232
 70
     32
  0
VERTEX
  8
MY3DLAYER
10
557.551114786238
20
64.6605036669066
30
157.763158363232
 70
     32
  0
VERTEX
  8
MY3DLAYER
10
557.700965419995
20
65.0222750992528
30
157.763158363232
 70
     32
  0
VERTEX
  8
MY3DLAYER
10
557.939343353892
20
65.3329352710326
30
157.763158363232
 70
     32
  0
VERTEX
  8
MY3DLAYER
10
558.250003525672
20
65.5713132049294
30
157.763158363232
 70
     32
  0
VERTEX
  8
MY3DLAYER
10
558.611774958019
20
65.7211638386863
30
157.763158363232
 70
     32
  0
VERTEX
  8
MY3DLAYER
10
559.000003525672
20
65.7722750992527
30
157.763158363232
 70
     32
  0
VERTEX
  8
MY3DLAYER
10
559.388232093326
20
65.7211638386862
30
157.763158363232
 70
     32
  0
VERTEX
  8
MY3DLAYER
10
559.750003525672
20
65.5713132049293
30
157.763158363232
 70
     32
  0
VERTEX
  8
MY3DLAYER
10
560.060663697452
20
65.3329352710323
30
157.763158363232
 70
     32
  0
VERTEX
  8
MY3DLAYER
10
560.299041631348
20
65.0222750992525
30
157.763158363232
 70
     32
  0
VERTEX
  8
MY3DLAYER
10
560.448892265105
20
64.6605036669062
30
157.763158363232
 70
     32
  0
VERTEX
  8
MY3DLAYER
10
560.500003525671
20
64.2722750992525
30
157.763158363232
 70
     32
  0
VERTEX
  8
MY3DLAYER
10
560.448892265105
20
63.8840465315987
30
157.763158363232
 70
     32
  0
VERTEX
  8
MY3DLAYER
10
560.299041631348
20
63.5222750992525
30
157.763158363232
 70
     32
  0
VERTEX
  8
MY3DLAYER
10
560.060663697451
20
63.2116149274727
30
157.763158363232
 70
     32
  0
SEQEND
  0
POLYLINE
 8
Layer0
 66
     1
70
    8
 10
0.0
 20
 0.0
 30
0.0
  0
VERTEX
  8
MY3DLAYER
10
348.939343353915
20
272.211614927496
30
157.763158363232
 70
     32
  0
VERTEX
  8
MY3DLAYER
10
348.700965420018
20
272.522275099276
30
157.763158363232
 70
     32
  0
VERTEX
  8
MY3DLAYER
10
348.551114786261
20
272.884046531622
30
157.763158363232
 70
     32
  0
VERTEX
  8
MY3DLAYER
10
348.500003525695
20
273.272275099276
30
157.763158363232
 70
     32
  0
VERTEX
  8
MY3DLAYER
10
348.551114786261
20
273.66050366693
30
157.763158363232
 70
     32
  0
VERTEX
  8
MY3DLAYER
10
348.700965420018
20
274.022275099276
30
157.763158363232
 70
     32
  0
VERTEX
  8
MY3DLAYER
10
348.939343353915
20
274.332935271056
30
157.763158363232
 70
     32
  0
VERTEX
  8
MY3DLAYER
10
349.250003525695
20
274.571313204953
30
157.763158363232
 70
     32
  0
VERTEX
  8
MY3DLAYER
10
349.611774958042
20
274.721163838709
30
157.763158363232
 70
     32
  0
VERTEX
  8
MY3DLAYER
10
350.000003525695
20
274.772275099276
30
157.763158363232
 70
     32
  0
VERTEX
  8
MY3DLAYER
10
350.388232093349
20
274.72116383871
30
157.763158363232
 70
     32
  0
VERTEX
  8
MY3DLAYER
10
350.750003525695
20
274.571313204953
30
157.763158363232
 70
     32
  0
VERTEX
  8
MY3DLAYER
10
351.060663697475
20
274.332935271056
30
157.763158363232
 70
     32
  0
VERTEX
  8
MY3DLAYER
10
351.299041631372
20
274.022275099276
30
157.763158363232
 70
     32
  0
VERTEX
  8
MY3DLAYER
10
351.448892265128
20
273.66050366693
30
157.763158363232
 70
     32
  0
VERTEX
  8
MY3DLAYER
10
351.500003525695
20
273.272275099276
30
157.763158363232
 70
     32
  0
VERTEX
  8
MY3DLAYER
10
351.448892265128
20
272.884046531622
30
157.763158363232
 70
     32
  0
VERTEX
  8
MY3DLAYER
10
351.299041631372
20
272.522275099276
30
157.763158363232
 70
     32
  0
VERTEX
  8
MY3DLAYER
10
351.060663697475
20
272.211614927496
30
157.763158363232
 70
     32
  0
VERTEX
  8
MY3DLAYER
10
350.750003525695
20
271.973236993599
30
157.763158363232
 70
     32
  0
VERTEX
  8
MY3DLAYER
10
350.388232093349
20
271.823386359842
30
157.763158363232
 70
     32
  0
VERTEX
  8
MY3DLAYER
10
350.000003525695
20
271.772275099276
30
157.763158363232
 70
     32
  0
VERTEX
  8
MY3DLAYER
10
349.611774958041
20
271.823386359842
30
157.763158363232
 70
     32
  0
VERTEX
  8
MY3DLAYER
10
349.250003525695
20
271.973236993599
30
157.763158363232
 70
     32
  0
VERTEX
  8
MY3DLAYER
10
348.939343353915
20
272.211614927496
30
157.763158363232
 70
     32
  0
SEQEND
  0
POLYLINE
 8
Layer0
 66
     1
70
    8
 10
0.0
 20
 0.0
 30
0.0
  0
VERTEX
  8
MY3DLAYER
10
560.299041631372
20
272.522275099253
30
157.763158363232
 70
     32
  0
VERTEX
  8
MY3DLAYER
10
560.060663697475
20
272.211614927473
30
157.763158363232
 70
     32
  0
VERTEX
  8
MY3DLAYER
10
559.750003525695
20
271.973236993576
30
157.763158363232
 70
     32
  0
VERTEX
  8
MY3DLAYER
10
559.388232093348
20
271.823386359819
30
157.763158363232
 70
     32
  0
VERTEX
  8
MY3DLAYER
10
559.000003525695
20
271.772275099253
30
157.763158363232
 70
     32
  0
VERTEX
  8
MY3DLAYER
10
558.611774958041
20
271.823386359819
30
157.763158363232
 70
     32
  0
VERTEX
  8
MY3DLAYER
10
558.250003525695
20
271.973236993576
30
157.763158363232
 70
     32
  0
VERTEX
  8
MY3DLAYER
10
557.939343353915
20
272.211614927473
30
157.763158363232
 70
     32
  0
VERTEX
  8
MY3DLAYER
10
557.700965420018
20
272.522275099253
30
157.763158363232
 70
     32
  0
VERTEX
  8
MY3DLAYER
10
557.551114786261
20
272.884046531599
30
157.763158363232
 70
     32
  0
VERTEX
  8
MY3DLAYER
10
557.500003525695
20
273.272275099253
30
157.763158363232
 70
     32
  0
VERTEX
  8
MY3DLAYER
10
557.551114786261
20
273.660503666907
30
157.763158363232
 70
     32
  0
VERTEX
  8
MY3DLAYER
10
557.700965420018
20
274.022275099253
30
157.763158363232
 70
     32
  0
VERTEX
  8
MY3DLAYER
10
557.939343353916
20
274.332935271033
30
157.763158363232
 70
     32
  0
VERTEX
  8
MY3DLAYER
10
558.250003525695
20
274.571313204929
30
157.763158363232
 70
     32
  0
VERTEX
  8
MY3DLAYER
10
558.611774958042
20
274.721163838686
30
157.763158363232
 70
     32
  0
VERTEX
  8
MY3DLAYER
10
559.000003525695
20
274.772275099253
30
157.763158363232
 70
     32
  0
VERTEX
  8
MY3DLAYER
10
559.38823209335
20
274.721163838686
30
157.763158363232
 70
     32
  0
VERTEX
  8
MY3DLAYER
10
559.750003525695
20
274.571313204929
30
157.763158363232
 70
     32
  0
VERTEX
  8
MY3DLAYER
10
560.060663697475
20
274.332935271032
30
157.763158363232
 70
     32
  0
VERTEX
  8
MY3DLAYER
10
560.299041631372
20
274.022275099253
30
157.763158363232
 70
     32
  0
VERTEX
  8
MY3DLAYER
10
560.448892265129
20
273.660503666906
30
157.763158363232
 70
     32
  0
VERTEX
  8
MY3DLAYER
10
560.500003525695
20
273.272275099253
30
157.763158363232
 70
     32
  0
VERTEX
  8
MY3DLAYER
10
560.448892265128
20
272.884046531599
30
157.763158363232
 70
     32
  0
VERTEX
  8
MY3DLAYER
10
560.299041631372
20
272.522275099253
30
157.763158363232
 70
     32
  0
SEQEND
  0
POLYLINE
 8
Layer0
 66
     1
70
    8
 10
0.0
 20
 0.0
 30
0.0
  0
VERTEX
  8
MY3DLAYER
10
547.28589305354
20
345.610031511724
30
157.763158363232
 70
     32
  0
VERTEX
  8
MY3DLAYER
10
547.700003525704
20
345.664550189661
30
157.763158363232
 70
     32
  0
VERTEX
  8
MY3DLAYER
10
548.114113997868
20
345.610031511724
30
157.763158363232
 70
     32
  0
VERTEX
  8
MY3DLAYER
10
548.500003525704
20
345.450190835716
30
157.763158363232
 70
     32
  0
VERTEX
  8
MY3DLAYER
10
548.831374375603
20
345.19592103956
30
157.763158363232
 70
     32
  0
VERTEX
  8
MY3DLAYER
10
549.085644171759
20
344.864550189661
30
157.763158363232
 70
     32
  0
VERTEX
  8
MY3DLAYER
10
549.245484847767
20
344.478660661825
30
157.763158363232
 70
     32
  0
VERTEX
  8
MY3DLAYER
10
549.300003525704
20
344.064550189661
30
157.763158363232
 70
     32
  0
VERTEX
  8
MY3DLAYER
10
549.245484847767
20
343.650439717497
30
157.763158363232
 70
     32
  0
VERTEX
  8
MY3DLAYER
10
549.085644171759
20
343.264550189661
30
157.763158363232
 70
     32
  0
VERTEX
  8
MY3DLAYER
10
548.831374375603
20
342.933179339763
30
157.763158363232
 70
     32
  0
VERTEX
  8
MY3DLAYER
10
548.500003525704
20
342.678909543606
30
157.763158363232
 70
     32
  0
VERTEX
  8
MY3DLAYER
10
548.114113997868
20
342.519068867599
30
157.763158363232
 70
     32
  0
VERTEX
  8
MY3DLAYER
10
547.700003525704
20
342.464550189661
30
157.763158363232
 70
     32
  0
VERTEX
  8
MY3DLAYER
10
547.28589305354
20
342.519068867599
30
157.763158363232
 70
     32
  0
VERTEX
  8
MY3DLAYER
10
546.900003525704
20
342.678909543606
30
157.763158363232
 70
     32
  0
VERTEX
  8
MY3DLAYER
10
546.568632675806
20
342.933179339763
30
157.763158363232
 70
     32
  0
VERTEX
  8
MY3DLAYER
10
546.314362879649
20
343.264550189661
30
157.763158363232
 70
     32
  0
VERTEX
  8
MY3DLAYER
10
546.154522203641
20
343.650439717497
30
157.763158363232
 70
     32
  0
VERTEX
  8
MY3DLAYER
10
546.100003525704
20
344.064550189661
30
157.763158363232
 70
     32
  0
VERTEX
  8
MY3DLAYER
10
546.154522203642
20
344.478660661825
30
157.763158363232
 70
     32
  0
VERTEX
  8
MY3DLAYER
10
546.314362879649
20
344.864550189661
30
157.763158363232
 70
     32
  0
VERTEX
  8
MY3DLAYER
10
546.568632675806
20
345.19592103956
30
157.763158363232
 70
     32
  0
VERTEX
  8
MY3DLAYER
10
546.900003525704
20
345.450190835716
30
157.763158363232
 70
     32
  0
VERTEX
  8
MY3DLAYER
10
547.28589305354
20
345.610031511724
30
157.763158363232
 70
     32
  0
SEQEND
  0
POLYLINE
 8
Layer0
 66
     1
70
    8
 10
0.0
 20
 0.0
 30
0.0
  0
VERTEX
  8
MY3DLAYER
10
374.017641615909
20
353.9326985371
30
157.750656527793
 70
     32
  0
VERTEX
  8
MY3DLAYER
10
373.500003525704
20
353.864550189678
30
157.750656527793
 70
     32
  0
VERTEX
  8
MY3DLAYER
10
372.982365435499
20
353.932698537101
30
157.750656527793
 70
     32
  0
VERTEX
  8
MY3DLAYER
10
372.500003525705
20
354.13249938211
30
157.750656527793
 70
     32
  0
VERTEX
  8
MY3DLAYER
10
372.085789963331
20
354.450336627305
30
157.750656527793
 70
     32
  0
VERTEX
  8
MY3DLAYER
10
371.767952718135
20
354.864550189679
30
157.750656527793
 70
     32
  0
VERTEX
  8
MY3DLAYER
10
371.568151873127
20
355.346912099474
30
157.750656527793
 70
     32
  0
VERTEX
  8
MY3DLAYER
10
371.500003525704
20
355.86455018968
30
157.750656527793
 70
     32
  0
VERTEX
  8
MY3DLAYER
10
371.568151873126
20
356.382188279884
30
157.750656527793
 70
     32
  0
VERTEX
  8
MY3DLAYER
10
371.767952718136
20
356.864550189678
30
157.750656527793
 70
     32
  0
VERTEX
  8
MY3DLAYER
10
372.085789963331
20
357.278763752052
30
157.750656527793
 70
     32
  0
VERTEX
  8
MY3DLAYER
10
372.500003525705
20
357.596600997247
30
157.750656527793
 70
     32
  0
VERTEX
  8
MY3DLAYER
10
372.9823654355
20
357.796401842258
30
157.750656527793
 70
     32
  0
VERTEX
  8
MY3DLAYER
10
373.500003525705
20
357.864550189678
30
157.750656527793
 70
     32
  0
VERTEX
  8
MY3DLAYER
10
374.01764161591
20
357.796401842256
30
157.750656527793
 70
     32
  0
VERTEX
  8
MY3DLAYER
10
374.500003525705
20
357.596600997247
30
157.750656527793
 70
     32
  0
VERTEX
  8
MY3DLAYER
10
374.914217088078
20
357.278763752051
30
157.750656527793
 70
     32
  0
VERTEX
  8
MY3DLAYER
10
375.232054333274
20
356.864550189678
30
157.750656527793
 70
     32
  0
VERTEX
  8
MY3DLAYER
10
375.431855178283
20
356.382188279884
30
157.750656527793
 70
     32
  0
VERTEX
  8
MY3DLAYER
10
375.500003525704
20
355.864550189679
30
157.750656527793
 70
     32
  0
VERTEX
  8
MY3DLAYER
10
375.431855178283
20
355.346912099474
30
157.750656527793
 70
     32
  0
VERTEX
  8
MY3DLAYER
10
375.232054333273
20
354.864550189678
30
157.750656527793
 70
     32
  0
VERTEX
  8
MY3DLAYER
10
374.914217088077
20
354.450336627305
30
157.750656527793
 70
     32
  0
VERTEX
  8
MY3DLAYER
10
374.500003525705
20
354.132499382109
30
157.750656527793
 70
     32
  0
VERTEX
  8
MY3DLAYER
10
374.017641615909
20
353.9326985371
30
157.750656527793
 70
     32
  0
SEQEND
  0
POLYLINE
 8
Layer0
 66
     1
70
    8
 10
0.0
 20
 0.0
 30
0.0
  0
VERTEX
  8
MY3DLAYER
10
375.431855178281
20
336.382188279883
30
157.750656527793
 70
     32
  0
VERTEX
  8
MY3DLAYER
10
375.500003525702
20
335.864550189678
30
157.750656527793
 70
     32
  0
VERTEX
  8
MY3DLAYER
10
375.43185517828
20
335.346912099473
30
157.750656527793
 70
     32
  0
VERTEX
  8
MY3DLAYER
10
375.232054333271
20
334.864550189678
30
157.750656527793
 70
     32
  0
VERTEX
  8
MY3DLAYER
10
374.914217088075
20
334.450336627305
30
157.750656527793
 70
     32
  0
VERTEX
  8
MY3DLAYER
10
374.500003525702
20
334.132499382109
30
157.750656527793
 70
     32
  0
VERTEX
  8
MY3DLAYER
10
374.017641615907
20
333.9326985371
30
157.750656527793
 70
     32
  0
VERTEX
  8
MY3DLAYER
10
373.500003525702
20
333.864550189678
30
157.750656527793
 70
     32
  0
VERTEX
  8
MY3DLAYER
10
372.982365435497
20
333.9326985371
30
157.750656527793
 70
     32
  0
VERTEX
  8
MY3DLAYER
10
372.500003525702
20
334.13249938211
30
157.750656527793
 70
     32
  0
VERTEX
  8
MY3DLAYER
10
372.085789963329
20
334.450336627305
30
157.750656527793
 70
     32
  0
VERTEX
  8
MY3DLAYER
10
371.767952718133
20
334.864550189679
30
157.750656527793
 70
     32
  0
VERTEX
  8
MY3DLAYER
10
371.568151873124
20
335.346912099474
30
157.750656527793
 70
     32
  0
VERTEX
  8
MY3DLAYER
10
371.500003525702
20
335.864550189679
30
157.750656527793
 70
     32
  0
VERTEX
  8
MY3DLAYER
10
371.568151873124
20
336.382188279884
30
157.750656527793
 70
     32
  0
VERTEX
  8
MY3DLAYER
10
371.767952718133
20
336.864550189679
30
157.750656527793
 70
     32
  0
VERTEX
  8
MY3DLAYER
10
372.085789963329
20
337.278763752052
30
157.750656527793
 70
     32
  0
VERTEX
  8
MY3DLAYER
10
372.500003525703
20
337.596600997247
30
157.750656527793
 70
     32
  0
VERTEX
  8
MY3DLAYER
10
372.982365435498
20
337.796401842257
30
157.750656527793
 70
     32
  0
VERTEX
  8
MY3DLAYER
10
373.500003525702
20
337.864550189678
30
157.750656527793
 70
     32
  0
VERTEX
  8
MY3DLAYER
10
374.017641615908
20
337.796401842257
30
157.750656527793
 70
     32
  0
VERTEX
  8
MY3DLAYER
10
374.500003525703
20
337.596600997247
30
157.750656527793
 70
     32
  0
VERTEX
  8
MY3DLAYER
10
374.914217088075
20
337.278763752051
30
157.750656527793
 70
     32
  0
VERTEX
  8
MY3DLAYER
10
375.232054333271
20
336.864550189678
30
157.750656527793
 70
     32
  0
VERTEX
  8
MY3DLAYER
10
375.431855178281
20
336.382188279883
30
157.750656527793
 70
     32
  0
SEQEND
  0
POLYLINE
 8
Layer0
 66
     1
70
    8
 10
0.0
 20
 0.0
 30
0.0
  0
VERTEX
  8
MY3DLAYER
10
392.982365435498
20
337.796401842254
30
157.750656527793
 70
     32
  0
VERTEX
  8
MY3DLAYER
10
393.500003525702
20
337.864550189676
30
157.750656527793
 70
     32
  0
VERTEX
  8
MY3DLAYER
10
394.017641615908
20
337.796401842254
30
157.750656527793
 70
     32
  0
VERTEX
  8
MY3DLAYER
10
394.500003525703
20
337.596600997245
30
157.750656527793
 70
     32
  0
VERTEX
  8
MY3DLAYER
10
394.914217088075
20
337.278763752049
30
157.750656527793
 70
     32
  0
VERTEX
  8
MY3DLAYER
10
395.232054333271
20
336.864550189676
30
157.750656527793
 70
     32
  0
VERTEX
  8
MY3DLAYER
10
395.431855178281
20
336.382188279881
30
157.750656527793
 70
     32
  0
VERTEX
  8
MY3DLAYER
10
395.500003525702
20
335.864550189676
30
157.750656527793
 70
     32
  0
VERTEX
  8
MY3DLAYER
10
395.43185517828
20
335.346912099471
30
157.750656527793
 70
     32
  0
VERTEX
  8
MY3DLAYER
10
395.232054333271
20
334.864550189676
30
157.750656527793
 70
     32
  0
VERTEX
  8
MY3DLAYER
10
394.914217088075
20
334.450336627303
30
157.750656527793
 70
     32
  0
VERTEX
  8
MY3DLAYER
10
394.500003525702
20
334.132499382107
30
157.750656527793
 70
     32
  0
VERTEX
  8
MY3DLAYER
10
394.017641615907
20
333.932698537098
30
157.750656527793
 70
     32
  0
VERTEX
  8
MY3DLAYER
10
393.500003525702
20
333.864550189676
30
157.750656527793
 70
     32
  0
VERTEX
  8
MY3DLAYER
10
392.982365435497
20
333.932698537098
30
157.750656527793
 70
     32
  0
VERTEX
  8
MY3DLAYER
10
392.500003525702
20
334.132499382107
30
157.750656527793
 70
     32
  0
VERTEX
  8
MY3DLAYER
10
392.085789963329
20
334.450336627303
30
157.750656527793
 70
     32
  0
VERTEX
  8
MY3DLAYER
10
391.767952718133
20
334.864550189676
30
157.750656527793
 70
     32
  0
VERTEX
  8
MY3DLAYER
10
391.568151873124
20
335.346912099471
30
157.750656527793
 70
     32
  0
VERTEX
  8
MY3DLAYER
10
391.500003525702
20
335.864550189676
30
157.750656527793
 70
     32
  0
VERTEX
  8
MY3DLAYER
10
391.568151873124
20
336.382188279881
30
157.750656527793
 70
     32
  0
VERTEX
  8
MY3DLAYER
10
391.767952718133
20
336.864550189676
30
157.750656527793
 70
     32
  0
VERTEX
  8
MY3DLAYER
10
392.085789963329
20
337.278763752049
30
157.750656527793
 70
     32
  0
VERTEX
  8
MY3DLAYER
10
392.500003525703
20
337.596600997245
30
157.750656527793
 70
     32
  0
VERTEX
  8
MY3DLAYER
10
392.982365435498
20
337.796401842254
30
157.750656527793
 70
     32
  0
SEQEND
  0
POLYLINE
 8
Layer0
 66
     1
70
    8
 10
0.0
 20
 0.0
 30
0.0
  0
VERTEX
  8
MY3DLAYER
10
394.017641615909
20
353.932698537099
30
157.750656527793
 70
     32
  0
VERTEX
  8
MY3DLAYER
10
393.500003525704
20
353.864550189676
30
157.750656527793
 70
     32
  0
VERTEX
  8
MY3DLAYER
10
392.982365435499
20
353.932698537098
30
157.750656527793
 70
     32
  0
VERTEX
  8
MY3DLAYER
10
392.500003525704
20
354.132499382108
30
157.750656527793
 70
     32
  0
VERTEX
  8
MY3DLAYER
10
392.085789963331
20
354.450336627303
30
157.750656527793
 70
     32
  0
VERTEX
  8
MY3DLAYER
10
391.767952718136
20
354.864550189677
30
157.750656527793
 70
     32
  0
VERTEX
  8
MY3DLAYER
10
391.568151873126
20
355.346912099472
30
157.750656527793
 70
     32
  0
VERTEX
  8
MY3DLAYER
10
391.500003525704
20
355.864550189676
30
157.750656527793
 70
     32
  0
VERTEX
  8
MY3DLAYER
10
391.568151873127
20
356.382188279882
30
157.750656527793
 70
     32
  0
VERTEX
  8
MY3DLAYER
10
391.767952718136
20
356.864550189677
30
157.750656527793
 70
     32
  0
VERTEX
  8
MY3DLAYER
10
392.085789963331
20
357.278763752049
30
157.750656527793
 70
     32
  0
VERTEX
  8
MY3DLAYER
10
392.500003525705
20
357.596600997246
30
157.750656527793
 70
     32
  0
VERTEX
  8
MY3DLAYER
10
392.9823654355
20
357.796401842254
30
157.750656527793
 70
     32
  0
VERTEX
  8
MY3DLAYER
10
393.500003525705
20
357.864550189676
30
157.750656527793
 70
     32
  0
VERTEX
  8
MY3DLAYER
10
394.01764161591
20
357.796401842255
30
157.750656527793
 70
     32
  0
VERTEX
  8
MY3DLAYER
10
394.500003525705
20
357.596600997245
30
157.750656527793
 70
     32
  0
VERTEX
  8
MY3DLAYER
10
394.914217088078
20
357.27876375205
30
157.750656527793
 70
     32
  0
VERTEX
  8
MY3DLAYER
10
395.232054333274
20
356.864550189676
30
157.750656527793
 70
     32
  0
VERTEX
  8
MY3DLAYER
10
395.431855178283
20
356.382188279881
30
157.750656527793
 70
     32
  0
VERTEX
  8
MY3DLAYER
10
395.500003525704
20
355.864550189676
30
157.750656527793
 70
     32
  0
VERTEX
  8
MY3DLAYER
10
395.431855178283
20
355.346912099471
30
157.750656527793
 70
     32
  0
VERTEX
  8
MY3DLAYER
10
395.232054333273
20
354.864550189676
30
157.750656527793
 70
     32
  0
VERTEX
  8
MY3DLAYER
10
394.914217088077
20
354.450336627304
30
157.750656527793
 70
     32
  0
VERTEX
  8
MY3DLAYER
10
394.500003525704
20
354.132499382107
30
157.750656527793
 70
     32
  0
VERTEX
  8
MY3DLAYER
10
394.017641615909
20
353.932698537099
30
157.750656527793
 70
     32
  0
SEQEND
  0
POLYLINE
 8
Layer0
 66
     1
70
    8
 10
0.0
 20
 0.0
 30
0.0
  0
VERTEX
  8
MY3DLAYER
10
517.431855178281
20
336.382188279878
30
157.763158363232
 70
     32
  0
VERTEX
  8
MY3DLAYER
10
517.500003525703
20
335.864550189673
30
157.763158363232
 70
     32
  0
VERTEX
  8
MY3DLAYER
10
517.43185517828
20
335.346912099468
30
157.763158363232
 70
     32
  0
VERTEX
  8
MY3DLAYER
10
517.232054333271
20
334.864550189673
30
157.763158363232
 70
     32
  0
VERTEX
  8
MY3DLAYER
10
516.914217088075
20
334.4503366273
30
157.763158363232
 70
     32
  0
VERTEX
  8
MY3DLAYER
10
516.500003525702
20
334.132499382105
30
157.763158363232
 70
     32
  0
VERTEX
  8
MY3DLAYER
10
516.017641615907
20
333.932698537095
30
157.763158363232
 70
     32
  0
VERTEX
  8
MY3DLAYER
10
515.500003525702
20
333.864550189674
30
157.763158363232
 70
     32
  0
VERTEX
  8
MY3DLAYER
10
514.982365435497
20
333.932698537095
30
157.763158363232
 70
     32
  0
VERTEX
  8
MY3DLAYER
10
514.500003525702
20
334.132499382105
30
157.763158363232
 70
     32
  0
VERTEX
  8
MY3DLAYER
10
514.085789963329
20
334.450336627301
30
157.763158363232
 70
     32
  0
VERTEX
  8
MY3DLAYER
10
513.767952718133
20
334.864550189674
30
157.763158363232
 70
     32
  0
VERTEX
  8
MY3DLAYER
10
513.568151873124
20
335.346912099469
30
157.763158363232
 70
     32
  0
VERTEX
  8
MY3DLAYER
10
513.500003525703
20
335.864550189674
30
157.763158363232
 70
     32
  0
VERTEX
  8
MY3DLAYER
10
513.568151873124
20
336.382188279879
30
157.763158363232
 70
     32
  0
VERTEX
  8
MY3DLAYER
10
513.767952718133
20
336.864550189674
30
157.763158363232
 70
     32
  0
VERTEX
  8
MY3DLAYER
10
514.085789963329
20
337.278763752047
30
157.763158363232
 70
     32
  0
VERTEX
  8
MY3DLAYER
10
514.500003525702
20
337.596600997243
30
157.763158363232
 70
     32
  0
VERTEX
  8
MY3DLAYER
10
514.982365435498
20
337.796401842252
30
157.763158363232
 70
     32
  0
VERTEX
  8
MY3DLAYER
10
515.500003525703
20
337.864550189674
30
157.763158363232
 70
     32
  0
VERTEX
  8
MY3DLAYER
10
516.017641615908
20
337.796401842252
30
157.763158363232
 70
     32
  0
VERTEX
  8
MY3DLAYER
10
516.500003525702
20
337.596600997242
30
157.763158363232
 70
     32
  0
VERTEX
  8
MY3DLAYER
10
516.914217088076
20
337.278763752046
30
157.763158363232
 70
     32
  0
VERTEX
  8
MY3DLAYER
10
517.232054333271
20
336.864550189673
30
157.763158363232
 70
     32
  0
VERTEX
  8
MY3DLAYER
10
517.431855178281
20
336.382188279878
30
157.763158363232
 70
     32
  0
SEQEND
  0
POLYLINE
 8
Layer0
 66
     1
70
    8
 10
0.0
 20
 0.0
 30
0.0
  0
VERTEX
  8
MY3DLAYER
10
517.431855178283
20
356.382188279878
30
157.763158363232
 70
     32
  0
VERTEX
  8
MY3DLAYER
10
517.500003525705
20
355.864550189673
30
157.763158363232
 70
     32
  0
VERTEX
  8
MY3DLAYER
10
517.431855178282
20
355.346912099468
30
157.763158363232
 70
     32
  0
VERTEX
  8
MY3DLAYER
10
517.232054333273
20
354.864550189674
30
157.763158363232
 70
     32
  0
VERTEX
  8
MY3DLAYER
10
516.914217088078
20
354.4503366273
30
157.763158363232
 70
     32
  0
VERTEX
  8
MY3DLAYER
10
516.500003525704
20
354.132499382105
30
157.763158363232
 70
     32
  0
VERTEX
  8
MY3DLAYER
10
516.017641615909
20
353.932698537095
30
157.763158363232
 70
     32
  0
VERTEX
  8
MY3DLAYER
10
515.500003525704
20
353.864550189674
30
157.763158363232
 70
     32
  0
VERTEX
  8
MY3DLAYER
10
514.982365435499
20
353.932698537096
30
157.763158363232
 70
     32
  0
VERTEX
  8
MY3DLAYER
10
514.500003525704
20
354.132499382105
30
157.763158363232
 70
     32
  0
VERTEX
  8
MY3DLAYER
10
514.085789963331
20
354.450336627302
30
157.763158363232
 70
     32
  0
VERTEX
  8
MY3DLAYER
10
513.767952718136
20
354.864550189674
30
157.763158363232
 70
     32
  0
VERTEX
  8
MY3DLAYER
10
513.568151873126
20
355.346912099469
30
157.763158363232
 70
     32
  0
VERTEX
  8
MY3DLAYER
10
513.500003525705
20
355.864550189674
30
157.763158363232
 70
     32
  0
VERTEX
  8
MY3DLAYER
10
513.568151873126
20
356.382188279879
30
157.763158363232
 70
     32
  0
VERTEX
  8
MY3DLAYER
10
513.767952718136
20
356.864550189674
30
157.763158363232
 70
     32
  0
VERTEX
  8
MY3DLAYER
10
514.085789963332
20
357.278763752048
30
157.763158363232
 70
     32
  0
VERTEX
  8
MY3DLAYER
10
514.500003525705
20
357.596600997243
30
157.763158363232
 70
     32
  0
VERTEX
  8
MY3DLAYER
10
514.9823654355
20
357.796401842252
30
157.763158363232
 70
     32
  0
VERTEX
  8
MY3DLAYER
10
515.500003525705
20
357.864550189674
30
157.763158363232
 70
     32
  0
VERTEX
  8
MY3DLAYER
10
516.01764161591
20
357.796401842252
30
157.763158363232
 70
     32
  0
VERTEX
  8
MY3DLAYER
10
516.500003525705
20
357.596600997243
30
157.763158363232
 70
     32
  0
VERTEX
  8
MY3DLAYER
10
516.914217088078
20
357.278763752047
30
157.763158363232
 70
     32
  0
VERTEX
  8
MY3DLAYER
10
517.232054333274
20
356.864550189674
30
157.763158363232
 70
     32
  0
VERTEX
  8
MY3DLAYER
10
517.431855178283
20
356.382188279878
30
157.763158363232
 70
     32
  0
SEQEND
  0
POLYLINE
 8
Layer0
 66
     1
70
    8
 10
0.0
 20
 0.0
 30
0.0
  0
VERTEX
  8
MY3DLAYER
10
534.982365435498
20
337.79640184225
30
157.763158363232
 70
     32
  0
VERTEX
  8
MY3DLAYER
10
535.500003525703
20
337.864550189671
30
157.763158363232
 70
     32
  0
VERTEX
  8
MY3DLAYER
10
536.017641615908
20
337.796401842249
30
157.763158363232
 70
     32
  0
VERTEX
  8
MY3DLAYER
10
536.500003525702
20
337.59660099724
30
157.763158363232
 70
     32
  0
VERTEX
  8
MY3DLAYER
10
536.914217088076
20
337.278763752044
30
157.763158363232
 70
     32
  0
VERTEX
  8
MY3DLAYER
10
537.232054333271
20
336.864550189671
30
157.763158363232
 70
     32
  0
VERTEX
  8
MY3DLAYER
10
537.431855178281
20
336.382188279876
30
157.763158363232
 70
     32
  0
VERTEX
  8
MY3DLAYER
10
537.500003525702
20
335.864550189671
30
157.763158363232
 70
     32
  0
VERTEX
  8
MY3DLAYER
10
537.43185517828
20
335.346912099466
30
157.763158363232
 70
     32
  0
VERTEX
  8
MY3DLAYER
10
537.232054333271
20
334.864550189671
30
157.763158363232
 70
     32
  0
VERTEX
  8
MY3DLAYER
10
536.914217088075
20
334.450336627298
30
157.763158363232
 70
     32
  0
VERTEX
  8
MY3DLAYER
10
536.500003525702
20
334.132499382102
30
157.763158363232
 70
     32
  0
VERTEX
  8
MY3DLAYER
10
536.017641615907
20
333.932698537093
30
157.763158363232
 70
     32
  0
VERTEX
  8
MY3DLAYER
10
535.500003525702
20
333.864550189671
30
157.763158363232
 70
     32
  0
VERTEX
  8
MY3DLAYER
10
534.982365435497
20
333.932698537093
30
157.763158363232
 70
     32
  0
VERTEX
  8
MY3DLAYER
10
534.500003525702
20
334.132499382103
30
157.763158363232
 70
     32
  0
VERTEX
  8
MY3DLAYER
10
534.085789963329
20
334.450336627298
30
157.763158363232
 70
     32
  0
VERTEX
  8
MY3DLAYER
10
533.767952718133
20
334.864550189671
30
157.763158363232
 70
     32
  0
VERTEX
  8
MY3DLAYER
10
533.568151873124
20
335.346912099466
30
157.763158363232
 70
     32
  0
VERTEX
  8
MY3DLAYER
10
533.500003525702
20
335.864550189672
30
157.763158363232
 70
     32
  0
VERTEX
  8
MY3DLAYER
10
533.568151873124
20
336.382188279877
30
157.763158363232
 70
     32
  0
VERTEX
  8
MY3DLAYER
10
533.767952718133
20
336.864550189671
30
157.763158363232
 70
     32
  0
VERTEX
  8
MY3DLAYER
10
534.085789963329
20
337.278763752045
30
157.763158363232
 70
     32
  0
VERTEX
  8
MY3DLAYER
10
534.500003525702
20
337.59660099724
30
157.763158363232
 70
     32
  0
VERTEX
  8
MY3DLAYER
10
534.982365435498
20
337.79640184225
30
157.763158363232
 70
     32
  0
SEQEND
  0
POLYLINE
 8
Layer0
 66
     1
70
    8
 10
0.0
 20
 0.0
 30
0.0
  0
VERTEX
  8
MY3DLAYER
10
536.017641615909
20
353.932698537093
30
157.763158363232
 70
     32
  0
VERTEX
  8
MY3DLAYER
10
535.500003525704
20
353.864550189671
30
157.763158363232
 70
     32
  0
VERTEX
  8
MY3DLAYER
10
534.982365435499
20
353.932698537094
30
157.763158363232
 70
     32
  0
VERTEX
  8
MY3DLAYER
10
534.500003525704
20
354.132499382103
30
157.763158363232
 70
     32
  0
VERTEX
  8
MY3DLAYER
10
534.085789963332
20
354.450336627299
30
157.763158363232
 70
     32
  0
VERTEX
  8
MY3DLAYER
10
533.767952718136
20
354.864550189671
30
157.763158363232
 70
     32
  0
VERTEX
  8
MY3DLAYER
10
533.568151873126
20
355.346912099466
30
157.763158363232
 70
     32
  0
VERTEX
  8
MY3DLAYER
10
533.500003525705
20
355.864550189672
30
157.763158363232
 70
     32
  0
VERTEX
  8
MY3DLAYER
10
533.568151873126
20
356.382188279877
30
157.763158363232
 70
     32
  0
VERTEX
  8
MY3DLAYER
10
533.767952718136
20
356.864550189671
30
157.763158363232
 70
     32
  0
VERTEX
  8
MY3DLAYER
10
534.085789963332
20
357.278763752045
30
157.763158363232
 70
     32
  0
VERTEX
  8
MY3DLAYER
10
534.500003525705
20
357.59660099724
30
157.763158363232
 70
     32
  0
VERTEX
  8
MY3DLAYER
10
534.9823654355
20
357.79640184225
30
157.763158363232
 70
     32
  0
VERTEX
  8
MY3DLAYER
10
535.500003525705
20
357.864550189671
30
157.763158363232
 70
     32
  0
VERTEX
  8
MY3DLAYER
10
536.01764161591
20
357.796401842249
30
157.763158363232
 70
     32
  0
VERTEX
  8
MY3DLAYER
10
536.500003525705
20
357.59660099724
30
157.763158363232
 70
     32
  0
VERTEX
  8
MY3DLAYER
10
536.914217088078
20
357.278763752044
30
157.763158363232
 70
     32
  0
VERTEX
  8
MY3DLAYER
10
537.232054333274
20
356.864550189671
30
157.763158363232
 70
     32
  0
VERTEX
  8
MY3DLAYER
10
537.431855178283
20
356.382188279877
30
157.763158363232
 70
     32
  0
VERTEX
  8
MY3DLAYER
10
537.500003525705
20
355.864550189672
30
157.763158363232
 70
     32
  0
VERTEX
  8
MY3DLAYER
10
537.431855178282
20
355.346912099467
30
157.763158363232
 70
     32
  0
VERTEX
  8
MY3DLAYER
10
537.232054333274
20
354.864550189671
30
157.763158363232
 70
     32
  0
VERTEX
  8
MY3DLAYER
10
536.914217088078
20
354.450336627298
30
157.763158363232
 70
     32
  0
VERTEX
  8
MY3DLAYER
10
536.500003525704
20
354.132499382102
30
157.763158363232
 70
     32
  0
VERTEX
  8
MY3DLAYER
10
536.017641615909
20
353.932698537093
30
157.763158363232
 70
     32
  0
SEQEND
  0
POLYLINE
 8
Layer0
 66
     1
70
    8
 10
0.0
 20
 0.0
 30
0.0
  0
VERTEX
  8
MY3DLAYER
10
449.670374189364
20
330.570454964189
30
157.763158363232
 70
     32
  0
VERTEX
  8
MY3DLAYER
10
449.500003320809
20
331.864550189702
30
157.763158363232
 70
     32
  0
VERTEX
  8
MY3DLAYER
10
449.670374189364
20
333.158645415214
30
157.763158363232
 70
     32
  0
VERTEX
  8
MY3DLAYER
10
450.169876301887
20
334.364550189702
30
157.763158363232
 70
     32
  0
VERTEX
  8
MY3DLAYER
10
450.964469414877
20
335.400084095634
30
157.763158363232
 70
     32
  0
VERTEX
  8
MY3DLAYER
10
452.00000332081
20
336.194677208624
30
157.763158363232
 70
     32
  0
VERTEX
  8
MY3DLAYER
10
453.205908095297
20
336.694179321147
30
157.763158363232
 70
     32
  0
VERTEX
  8
MY3DLAYER
10
454.50000332081
20
336.864550189701
30
157.763158363232
 70
     32
  0
VERTEX
  8
MY3DLAYER
10
455.794098546322
20
336.694179321147
30
157.763158363232
 70
     32
  0
VERTEX
  8
MY3DLAYER
10
457.00000332081
20
336.194677208623
30
157.763158363232
 70
     32
  0
VERTEX
  8
MY3DLAYER
10
458.035537226743
20
335.400084095634
30
157.763158363232
 70
     32
  0
VERTEX
  8
MY3DLAYER
10
458.830130339732
20
334.364550189701
30
157.763158363232
 70
     32
  0
VERTEX
  8
MY3DLAYER
10
459.329632452255
20
333.158645415213
30
157.763158363232
 70
     32
  0
VERTEX
  8
MY3DLAYER
10
459.500003320809
20
331.864550189701
30
157.763158363232
 70
     32
  0
VERTEX
  8
MY3DLAYER
10
459.329632452255
20
330.570454964188
30
157.763158363232
 70
     32
  0
VERTEX
  8
MY3DLAYER
10
458.830130339731
20
329.364550189701
30
157.763158363232
 70
     32
  0
VERTEX
  8
MY3DLAYER
10
458.035537226742
20
328.329016283768
30
157.763158363232
 70
     32
  0
VERTEX
  8
MY3DLAYER
10
457.000003320809
20
327.534423170779
30
157.763158363232
 70
     32
  0
VERTEX
  8
MY3DLAYER
10
455.794098546321
20
327.034921058256
30
157.763158363232
 70
     32
  0
VERTEX
  8
MY3DLAYER
10
454.500003320809
20
326.864550189701
30
157.763158363232
 70
     32
  0
VERTEX
  8
MY3DLAYER
10
453.205908095296
20
327.034921058256
30
157.763158363232
 70
     32
  0
VERTEX
  8
MY3DLAYER
10
452.000003320809
20
327.534423170779
30
157.763158363232
 70
     32
  0
VERTEX
  8
MY3DLAYER
10
450.964469414876
20
328.329016283769
30
157.763158363232
 70
     32
  0
VERTEX
  8
MY3DLAYER
10
450.169876301887
20
329.364550189702
30
157.763158363232
 70
     32
  0
VERTEX
  8
MY3DLAYER
10
449.670374189364
20
330.570454964189
30
157.763158363232
 70
     32
  0
SEQEND
  0
POLYLINE
 8
Layer0
 66
     1
70
    8
 10
0.0
 20
 0.0
 30
0.0
  0
VERTEX
  8
MY3DLAYER
10
468.060663794342
20
325.678889630489
30
157.763158363232
 70
     32
  0
VERTEX
  8
MY3DLAYER
10
467.750003622562
20
325.440511696592
30
157.763158363232
 70
     32
  0
VERTEX
  8
MY3DLAYER
10
467.388232190216
20
325.290661062835
30
157.763158363232
 70
     32
  0
VERTEX
  8
MY3DLAYER
10
467.000003622562
20
325.239549802269
30
157.763158363232
 70
     32
  0
VERTEX
  8
MY3DLAYER
10
466.611775054908
20
325.290661062836
30
157.763158363232
 70
     32
  0
VERTEX
  8
MY3DLAYER
10
466.250003622562
20
325.440511696592
30
157.763158363232
 70
     32
  0
VERTEX
  8
MY3DLAYER
10
465.939343450782
20
325.678889630489
30
157.763158363232
 70
     32
  0
VERTEX
  8
MY3DLAYER
10
465.700965516885
20
325.989549802269
30
157.763158363232
 70
     32
  0
VERTEX
  8
MY3DLAYER
10
465.551114883128
20
326.351321234615
30
157.763158363232
 70
     32
  0
VERTEX
  8
MY3DLAYER
10
465.500003622562
20
326.739549802269
30
157.763158363232
 70
     32
  0
VERTEX
  8
MY3DLAYER
10
465.551114883128
20
327.127778369923
30
157.763158363232
 70
     32
  0
VERTEX
  8
MY3DLAYER
10
465.700965516885
20
327.489549802269
30
157.763158363232
 70
     32
  0
VERTEX
  8
MY3DLAYER
10
465.939343450782
20
327.800209974049
30
157.763158363232
 70
     32
  0
VERTEX
  8
MY3DLAYER
10
466.250003622562
20
328.038587907946
30
157.763158363232
 70
     32
  0
VERTEX
  8
MY3DLAYER
10
466.611775054908
20
328.188438541703
30
157.763158363232
 70
     32
  0
VERTEX
  8
MY3DLAYER
10
467.000003622562
20
328.239549802269
30
157.763158363232
 70
     32
  0
VERTEX
  8
MY3DLAYER
10
467.388232190216
20
328.188438541703
30
157.763158363232
 70
     32
  0
VERTEX
  8
MY3DLAYER
10
467.750003622562
20
328.038587907946
30
157.763158363232
 70
     32
  0
VERTEX
  8
MY3DLAYER
10
468.060663794342
20
327.800209974049
30
157.763158363232
 70
     32
  0
VERTEX
  8
MY3DLAYER
10
468.299041728239
20
327.489549802269
30
157.763158363232
 70
     32
  0
VERTEX
  8
MY3DLAYER
10
468.448892361995
20
327.127778369923
30
157.763158363232
 70
     32
  0
VERTEX
  8
MY3DLAYER
10
468.500003622562
20
326.739549802269
30
157.763158363232
 70
     32
  0
VERTEX
  8
MY3DLAYER
10
468.448892361995
20
326.351321234615
30
157.763158363232
 70
     32
  0
VERTEX
  8
MY3DLAYER
10
468.299041728239
20
325.989549802269
30
157.763158363232
 70
     32
  0
VERTEX
  8
MY3DLAYER
10
468.060663794342
20
325.678889630489
30
157.763158363232
 70
     32
  0
SEQEND
  0
POLYLINE
 8
Layer0
 66
     1
70
    8
 10
0.0
 20
 0.0
 30
0.0
  0
VERTEX
  8
MY3DLAYER
10
467.000003730594
20
335.489550189694
30
157.763158363232
 70
     32
  0
VERTEX
  8
MY3DLAYER
10
466.611775162941
20
335.540661450261
30
157.763158363232
 70
     32
  0
VERTEX
  8
MY3DLAYER
10
466.250003730594
20
335.690512084018
30
157.763158363232
 70
     32
  0
VERTEX
  8
MY3DLAYER
10
465.939343558814
20
335.928890017915
30
157.763158363232
 70
     32
  0
VERTEX
  8
MY3DLAYER
10
465.700965624918
20
336.239550189694
30
157.763158363232
 70
     32
  0
VERTEX
  8
MY3DLAYER
10
465.551114991161
20
336.601321622041
30
157.763158363232
 70
     32
  0
VERTEX
  8
MY3DLAYER
10
465.500003730595
20
336.989550189695
30
157.763158363232
 70
     32
  0
VERTEX
  8
MY3DLAYER
10
465.551114991161
20
337.377778757348
30
157.763158363232
 70
     32
  0
VERTEX
  8
MY3DLAYER
10
465.700965624918
20
337.739550189694
30
157.763158363232
 70
     32
  0
VERTEX
  8
MY3DLAYER
10
465.939343558815
20
338.050210361474
30
157.763158363232
 70
     32
  0
VERTEX
  8
MY3DLAYER
10
466.250003730595
20
338.288588295371
30
157.763158363232
 70
     32
  0
VERTEX
  8
MY3DLAYER
10
466.611775162941
20
338.438438929128
30
157.763158363232
 70
     32
  0
VERTEX
  8
MY3DLAYER
10
467.000003730594
20
338.489550189694
30
157.763158363232
 70
     32
  0
VERTEX
  8
MY3DLAYER
10
467.388232298248
20
338.438438929128
30
157.763158363232
 70
     32
  0
VERTEX
  8
MY3DLAYER
10
467.750003730595
20
338.288588295371
30
157.763158363232
 70
     32
  0
VERTEX
  8
MY3DLAYER
10
468.060663902375
20
338.050210361474
30
157.763158363232
 70
     32
  0
VERTEX
  8
MY3DLAYER
10
468.299041836271
20
337.739550189694
30
157.763158363232
 70
     32
  0
VERTEX
  8
MY3DLAYER
10
468.448892470028
20
337.377778757348
30
157.763158363232
 70
     32
  0
VERTEX
  8
MY3DLAYER
10
468.500003730595
20
336.989550189694
30
157.763158363232
 70
     32
  0
VERTEX
  8
MY3DLAYER
10
468.448892470028
20
336.60132162204
30
157.763158363232
 70
     32
  0
VERTEX
  8
MY3DLAYER
10
468.299041836271
20
336.239550189694
30
157.763158363232
 70
     32
  0
VERTEX
  8
MY3DLAYER
10
468.060663902374
20
335.928890017914
30
157.763158363232
 70
     32
  0
VERTEX
  8
MY3DLAYER
10
467.750003730594
20
335.690512084018
30
157.763158363232
 70
     32
  0
VERTEX
  8
MY3DLAYER
10
467.388232298248
20
335.540661450261
30
157.763158363232
 70
     32
  0
VERTEX
  8
MY3DLAYER
10
467.000003730594
20
335.489550189694
30
157.763158363232
 70
     32
  0
SEQEND
  0
POLYLINE
 8
Layer0
 66
     1
70
    8
 10
0.0
 20
 0.0
 30
0.0
  0
VERTEX
  8
MY3DLAYER
10
441.250003730594
20
335.69051208402
30
157.763158363232
 70
     32
  0
VERTEX
  8
MY3DLAYER
10
440.939343558814
20
335.928890017917
30
157.763158363232
 70
     32
  0
VERTEX
  8
MY3DLAYER
10
440.700965624918
20
336.239550189697
30
157.763158363232
 70
     32
  0
VERTEX
  8
MY3DLAYER
10
440.551114991161
20
336.601321622043
30
157.763158363232
 70
     32
  0
VERTEX
  8
MY3DLAYER
10
440.500003730594
20
336.989550189697
30
157.763158363232
 70
     32
  0
VERTEX
  8
MY3DLAYER
10
440.551114991161
20
337.377778757351
30
157.763158363232
 70
     32
  0
VERTEX
  8
MY3DLAYER
10
440.700965624918
20
337.739550189697
30
157.763158363232
 70
     32
  0
VERTEX
  8
MY3DLAYER
10
440.939343558815
20
338.050210361477
30
157.763158363232
 70
     32
  0
VERTEX
  8
MY3DLAYER
10
441.250003730595
20
338.288588295374
30
157.763158363232
 70
     32
  0
VERTEX
  8
MY3DLAYER
10
441.611775162941
20
338.43843892913
30
157.763158363232
 70
     32
  0
VERTEX
  8
MY3DLAYER
10
442.000003730594
20
338.489550189697
30
157.763158363232
 70
     32
  0
VERTEX
  8
MY3DLAYER
10
442.388232298248
20
338.43843892913
30
157.763158363232
 70
     32
  0
VERTEX
  8
MY3DLAYER
10
442.750003730595
20
338.288588295373
30
157.763158363232
 70
     32
  0
VERTEX
  8
MY3DLAYER
10
443.060663902374
20
338.050210361476
30
157.763158363232
 70
     32
  0
VERTEX
  8
MY3DLAYER
10
443.299041836271
20
337.739550189697
30
157.763158363232
 70
     32
  0
VERTEX
  8
MY3DLAYER
10
443.448892470028
20
337.37777875735
30
157.763158363232
 70
     32
  0
VERTEX
  8
MY3DLAYER
10
443.500003730594
20
336.989550189697
30
157.763158363232
 70
     32
  0
VERTEX
  8
MY3DLAYER
10
443.448892470028
20
336.601321622043
30
157.763158363232
 70
     32
  0
VERTEX
  8
MY3DLAYER
10
443.299041836271
20
336.239550189697
30
157.763158363232
 70
     32
  0
VERTEX
  8
MY3DLAYER
10
443.060663902374
20
335.928890017917
30
157.763158363232
 70
     32
  0
VERTEX
  8
MY3DLAYER
10
442.750003730594
20
335.69051208402
30
157.763158363232
 70
     32
  0
VERTEX
  8
MY3DLAYER
10
442.388232298248
20
335.540661450263
30
157.763158363232
 70
     32
  0
VERTEX
  8
MY3DLAYER
10
442.000003730594
20
335.489550189697
30
157.763158363232
 70
     32
  0
VERTEX
  8
MY3DLAYER
10
441.611775162941
20
335.540661450263
30
157.763158363232
 70
     32
  0
VERTEX
  8
MY3DLAYER
10
441.250003730594
20
335.69051208402
30
157.763158363232
 70
     32
  0
SEQEND
  0
POLYLINE
 8
Layer0
 66
     1
70
    8
 10
0.0
 20
 0.0
 30
0.0
  0
VERTEX
  8
MY3DLAYER
10
442.750003622562
20
328.038587907947
30
157.763158363232
 70
     32
  0
VERTEX
  8
MY3DLAYER
10
443.060663794342
20
327.80020997405
30
157.763158363232
 70
     32
  0
VERTEX
  8
MY3DLAYER
10
443.299041728239
20
327.48954980227
30
157.763158363232
 70
     32
  0
VERTEX
  8
MY3DLAYER
10
443.448892361995
20
327.127778369924
30
157.763158363232
 70
     32
  0
VERTEX
  8
MY3DLAYER
10
443.500003622562
20
326.73954980227
30
157.763158363232
 70
     32
  0
VERTEX
  8
MY3DLAYER
10
443.448892361995
20
326.351321234617
30
157.763158363232
 70
     32
  0
VERTEX
  8
MY3DLAYER
10
443.299041728239
20
325.98954980227
30
157.763158363232
 70
     32
  0
VERTEX
  8
MY3DLAYER
10
443.060663794342
20
325.678889630491
30
157.763158363232
 70
     32
  0
VERTEX
  8
MY3DLAYER
10
442.750003622562
20
325.440511696594
30
157.763158363232
 70
     32
  0
VERTEX
  8
MY3DLAYER
10
442.388232190215
20
325.290661062837
30
157.763158363232
 70
     32
  0
VERTEX
  8
MY3DLAYER
10
442.000003622562
20
325.239549802271
30
157.763158363232
 70
     32
  0
VERTEX
  8
MY3DLAYER
10
441.611775054908
20
325.290661062837
30
157.763158363232
 70
     32
  0
VERTEX
  8
MY3DLAYER
10
441.250003622562
20
325.440511696594
30
157.763158363232
 70
     32
  0
VERTEX
  8
MY3DLAYER
10
440.939343450782
20
325.678889630491
30
157.763158363232
 70
     32
  0
VERTEX
  8
MY3DLAYER
10
440.700965516885
20
325.989549802271
30
157.763158363232
 70
     32
  0
VERTEX
  8
MY3DLAYER
10
440.551114883128
20
326.351321234617
30
157.763158363232
 70
     32
  0
VERTEX
  8
MY3DLAYER
10
440.500003622562
20
326.739549802271
30
157.763158363232
 70
     32
  0
VERTEX
  8
MY3DLAYER
10
440.551114883128
20
327.127778369924
30
157.763158363232
 70
     32
  0
VERTEX
  8
MY3DLAYER
10
440.700965516885
20
327.489549802271
30
157.763158363232
 70
     32
  0
VERTEX
  8
MY3DLAYER
10
440.939343450782
20
327.80020997405
30
157.763158363232
 70
     32
  0
VERTEX
  8
MY3DLAYER
10
441.250003622562
20
328.038587907947
30
157.763158363232
 70
     32
  0
VERTEX
  8
MY3DLAYER
10
441.611775054908
20
328.188438541704
30
157.763158363232
 70
     32
  0
VERTEX
  8
MY3DLAYER
10
442.000003622562
20
328.239549802271
30
157.763158363232
 70
     32
  0
VERTEX
  8
MY3DLAYER
10
442.388232190216
20
328.188438541704
30
157.763158363232
 70
     32
  0
VERTEX
  8
MY3DLAYER
10
442.750003622562
20
328.038587907947
30
157.763158363232
 70
     32
  0
SEQEND
 0
ENDSEC
 0
EOF
