 0
SECTION
 2
ENTITIES
  0
POLYLINE
 8
Layer0
 66
     1
70
    8
 10
0.0
 20
 0.0
 30
0.0
  0
VERTEX
  8
MY3DLAYER
10
222.000003525709
20
374.682275090485
30
52.3749965057726
 70
     32
  0
VERTEX
  8
MY3DLAYER
10
221.999997866323
20
714.682275695329
30
52.3750021682138
 70
     32
  0
VERTEX
  8
MY3DLAYER
10
261.999997866327
20
754.682275695323
30
52.3750021682134
 70
     32
  0
VERTEX
  8
MY3DLAYER
10
646.999997866321
20
754.682275695284
30
52.3750085756791
 70
     32
  0
VERTEX
  8
MY3DLAYER
10
686.999997866318
20
714.68227569528
30
52.3750085756839
 70
     32
  0
VERTEX
  8
MY3DLAYER
10
687.000003525703
20
374.682275090435
30
52.3750029132382
 70
     32
  0
VERTEX
  8
MY3DLAYER
10
647.000003525698
20
334.68227509044
30
52.3750029132334
 70
     32
  0
VERTEX
  8
MY3DLAYER
10
262.000003525704
20
334.682275090481
30
52.374996505774
 70
     32
  0
VERTEX
  8
MY3DLAYER
10
222.000003525709
20
374.682275090485
30
52.3749965057726
 70
     32
  0
SEQEND
  0
POLYLINE
 8
Layer0
 66
     1
70
    8
 10
0.0
 20
 0.0
 30
0.0
  0
VERTEX
  8
MY3DLAYER
10
676.482365435517
20
542.750423740282
30
52.3750029147123
 70
     32
  0
VERTEX
  8
MY3DLAYER
10
677.00000352572
20
542.682275392859
30
52.3750029147065
 70
     32
  0
VERTEX
  8
MY3DLAYER
10
677.517641615927
20
542.750423740281
30
52.3750029147059
 70
     32
  0
VERTEX
  8
MY3DLAYER
10
678.000003525721
20
542.95022458529
30
52.3750029147073
 70
     32
  0
VERTEX
  8
MY3DLAYER
10
678.414217088094
20
543.268061830486
30
52.3750029147123
 70
     32
  0
VERTEX
  8
MY3DLAYER
10
678.73205433329
20
543.682275392859
30
52.3750029147118
 70
     32
  0
VERTEX
  8
MY3DLAYER
10
678.931855178299
20
544.164637302654
30
52.375002914707
 70
     32
  0
VERTEX
  8
MY3DLAYER
10
679.00000352572
20
544.682275392859
30
52.3750029147064
 70
     32
  0
VERTEX
  8
MY3DLAYER
10
678.931855178299
20
545.199913483064
30
52.3750029147068
 70
     32
  0
VERTEX
  8
MY3DLAYER
10
678.73205433329
20
545.682275392859
30
52.375002914712
 70
     32
  0
VERTEX
  8
MY3DLAYER
10
678.414217088095
20
546.096488955232
30
52.3750029147115
 70
     32
  0
VERTEX
  8
MY3DLAYER
10
678.000003525722
20
546.414326200428
30
52.3750029147075
 70
     32
  0
VERTEX
  8
MY3DLAYER
10
677.517641615926
20
546.614127045437
30
52.375002914706
 70
     32
  0
VERTEX
  8
MY3DLAYER
10
677.000003525721
20
546.682275392859
30
52.3750029147073
 70
     32
  0
VERTEX
  8
MY3DLAYER
10
676.482365435516
20
546.614127045438
30
52.3750029147118
 70
     32
  0
VERTEX
  8
MY3DLAYER
10
676.000003525722
20
546.414326200428
30
52.3750029147114
 70
     32
  0
VERTEX
  8
MY3DLAYER
10
675.585789963349
20
546.096488955233
30
52.3750029147066
 70
     32
  0
VERTEX
  8
MY3DLAYER
10
675.267952718152
20
545.68227539286
30
52.3750029147058
 70
     32
  0
VERTEX
  8
MY3DLAYER
10
675.068151873142
20
545.199913483064
30
52.3750029147079
 70
     32
  0
VERTEX
  8
MY3DLAYER
10
675.000003525721
20
544.68227539286
30
52.3750029147116
 70
     32
  0
VERTEX
  8
MY3DLAYER
10
675.068151873142
20
544.164637302654
30
52.3750029147074
 70
     32
  0
VERTEX
  8
MY3DLAYER
10
675.267952718152
20
543.682275392859
30
52.3750029147064
 70
     32
  0
VERTEX
  8
MY3DLAYER
10
675.585789963348
20
543.268061830486
30
52.3750029147069
 70
     32
  0
VERTEX
  8
MY3DLAYER
10
676.000003525721
20
542.95022458529
30
52.3750029147112
 70
     32
  0
VERTEX
  8
MY3DLAYER
10
676.482365435517
20
542.750423740282
30
52.3750029147123
 70
     32
  0
SEQEND
  0
POLYLINE
 8
Layer0
 66
     1
70
    8
 10
0.0
 20
 0.0
 30
0.0
  0
VERTEX
  8
MY3DLAYER
10
675.999997866316
20
712.272190879119
30
52.3750085756837
 70
     32
  0
VERTEX
  8
MY3DLAYER
10
675.585784303944
20
711.954353633924
30
52.3750085756786
 70
     32
  0
VERTEX
  8
MY3DLAYER
10
675.267947058749
20
711.540140071551
30
52.3750085756786
 70
     32
  0
VERTEX
  8
MY3DLAYER
10
675.06814621374
20
711.057778161756
30
52.3750085756803
 70
     32
  0
VERTEX
  8
MY3DLAYER
10
674.999997866318
20
710.540140071551
30
52.3750085756842
 70
     32
  0
VERTEX
  8
MY3DLAYER
10
675.068146213739
20
710.022501981346
30
52.3750085756803
 70
     32
  0
VERTEX
  8
MY3DLAYER
10
675.267947058749
20
709.540140071551
30
52.3750085756782
 70
     32
  0
VERTEX
  8
MY3DLAYER
10
675.585784303943
20
709.125926509178
30
52.3750085756791
 70
     32
  0
VERTEX
  8
MY3DLAYER
10
675.999997866317
20
708.808089263982
30
52.3750085756838
 70
     32
  0
VERTEX
  8
MY3DLAYER
10
676.482359776111
20
708.608288418973
30
52.3750085756839
 70
     32
  0
VERTEX
  8
MY3DLAYER
10
676.999997866318
20
708.540140071551
30
52.3750085756798
 70
     32
  0
VERTEX
  8
MY3DLAYER
10
677.517635956522
20
708.608288418973
30
52.3750085756782
 70
     32
  0
VERTEX
  8
MY3DLAYER
10
677.999997866316
20
708.808089263982
30
52.3750085756793
 70
     32
  0
VERTEX
  8
MY3DLAYER
10
678.41421142869
20
709.125926509178
30
52.3750085756841
 70
     32
  0
VERTEX
  8
MY3DLAYER
10
678.732048673887
20
709.540140071551
30
52.3750085756842
 70
     32
  0
VERTEX
  8
MY3DLAYER
10
678.931849518896
20
710.022501981345
30
52.3750085756787
 70
     32
  0
VERTEX
  8
MY3DLAYER
10
678.999997866318
20
710.54014007155
30
52.3750085756791
 70
     32
  0
VERTEX
  8
MY3DLAYER
10
678.931849518896
20
711.057778161756
30
52.3750085756793
 70
     32
  0
VERTEX
  8
MY3DLAYER
10
678.732048673886
20
711.540140071551
30
52.375008575684
 70
     32
  0
VERTEX
  8
MY3DLAYER
10
678.41421142869
20
711.954353633924
30
52.3750085756842
 70
     32
  0
VERTEX
  8
MY3DLAYER
10
677.999997866317
20
712.272190879119
30
52.3750085756795
 70
     32
  0
VERTEX
  8
MY3DLAYER
10
677.517635956521
20
712.471991724128
30
52.3750085756777
 70
     32
  0
VERTEX
  8
MY3DLAYER
10
676.999997866317
20
712.54014007155
30
52.3750085756798
 70
     32
  0
VERTEX
  8
MY3DLAYER
10
676.482359776111
20
712.471991724129
30
52.375008575684
 70
     32
  0
VERTEX
  8
MY3DLAYER
10
675.999997866316
20
712.272190879119
30
52.3750085756837
 70
     32
  0
SEQEND
  0
POLYLINE
 8
Layer0
 66
     1
70
    8
 10
0.0
 20
 0.0
 30
0.0
  0
VERTEX
  8
MY3DLAYER
10
640.867384613475
20
744.877208524744
30
52.3750085756786
 70
     32
  0
VERTEX
  8
MY3DLAYER
10
640.873874042149
20
744.682275695284
30
52.3750085756786
 70
     32
  0
VERTEX
  8
MY3DLAYER
10
640.884756165196
20
744.355392830388
30
52.3750085756795
 70
     32
  0
VERTEX
  8
MY3DLAYER
10
641.036591635381
20
743.855853663072
30
52.3750085756795
 70
     32
  0
VERTEX
  8
MY3DLAYER
10
641.312543687655
20
743.412633791526
30
52.3750085756782
 70
     32
  0
VERTEX
  8
MY3DLAYER
10
641.693806645687
20
743.055937917539
30
52.3750085756835
 70
     32
  0
VERTEX
  8
MY3DLAYER
10
642.154398068957
20
742.810074275454
30
52.3750085756791
 70
     32
  0
VERTEX
  8
MY3DLAYER
10
642.662929413128
20
742.691798066172
30
52.3750085756796
 70
     32
  0
VERTEX
  8
MY3DLAYER
10
643.184745107486
20
742.709169617894
30
52.3750085756788
 70
     32
  0
VERTEX
  8
MY3DLAYER
10
643.6842842748
20
742.861005088078
30
52.3750085756793
 70
     32
  0
VERTEX
  8
MY3DLAYER
10
644.127504146347
20
743.136957140351
30
52.3750085756792
 70
     32
  0
VERTEX
  8
MY3DLAYER
10
644.260753752914
20
743.279384184961
30
52.3750085756791
 70
     32
  0
VERTEX
  8
MY3DLAYER
10
644.484200020335
20
743.518220098384
30
52.3750085756784
 70
     32
  0
VERTEX
  8
MY3DLAYER
10
644.73006366242
20
743.978811521653
30
52.3750085756784
 70
     32
  0
VERTEX
  8
MY3DLAYER
10
644.848339871702
20
744.487342865824
30
52.3750085756839
 70
     32
  0
VERTEX
  8
MY3DLAYER
10
644.830968319979
20
745.009158560182
30
52.3750085756833
 70
     32
  0
VERTEX
  8
MY3DLAYER
10
644.679132849796
20
745.508697727497
30
52.3750085756784
 70
     32
  0
VERTEX
  8
MY3DLAYER
10
644.403180797521
20
745.951917599042
30
52.3750085756838
 70
     32
  0
VERTEX
  8
MY3DLAYER
10
644.02191783949
20
746.30861347303
30
52.3750085756792
 70
     32
  0
VERTEX
  8
MY3DLAYER
10
643.561326416219
20
746.554477115116
30
52.3750085756791
 70
     32
  0
VERTEX
  8
MY3DLAYER
10
643.05279507205
20
746.672753324396
30
52.3750085756832
 70
     32
  0
VERTEX
  8
MY3DLAYER
10
642.530979377691
20
746.655381772675
30
52.375008575679
 70
     32
  0
VERTEX
  8
MY3DLAYER
10
642.031440210377
20
746.503546302491
30
52.3750085756783
 70
     32
  0
VERTEX
  8
MY3DLAYER
10
641.58822033883
20
746.227594250216
30
52.3750085756783
 70
     32
  0
VERTEX
  8
MY3DLAYER
10
641.231524464841
20
745.846331292186
30
52.3750085756831
 70
     32
  0
VERTEX
  8
MY3DLAYER
10
640.985660822758
20
745.385739868917
30
52.37500857568
 70
     32
  0
VERTEX
  8
MY3DLAYER
10
640.867384613475
20
744.877208524744
30
52.3750085756786
 70
     32
  0
SEQEND
  0
POLYLINE
 8
Layer0
 66
     1
70
    8
 10
0.0
 20
 0.0
 30
0.0
  0
VERTEX
  8
MY3DLAYER
10
675.267952718132
20
377.824410714168
30
52.3750029132322
 70
     32
  0
VERTEX
  8
MY3DLAYER
10
675.585789963329
20
377.410197151795
30
52.3750029132333
 70
     32
  0
VERTEX
  8
MY3DLAYER
10
676.000003525702
20
377.092359906599
30
52.3750029132373
 70
     32
  0
VERTEX
  8
MY3DLAYER
10
676.482365435497
20
376.892559061591
30
52.3750029132384
 70
     32
  0
VERTEX
  8
MY3DLAYER
10
677.000003525702
20
376.824410714167
30
52.3750029132334
 70
     32
  0
VERTEX
  8
MY3DLAYER
10
677.517641615907
20
376.89255906159
30
52.3750029132327
 70
     32
  0
VERTEX
  8
MY3DLAYER
10
678.000003525702
20
377.092359906599
30
52.3750029132335
 70
     32
  0
VERTEX
  8
MY3DLAYER
10
678.414217088076
20
377.410197151794
30
52.3750029132383
 70
     32
  0
VERTEX
  8
MY3DLAYER
10
678.73205433327
20
377.824410714168
30
52.3750029132375
 70
     32
  0
VERTEX
  8
MY3DLAYER
10
678.931855178282
20
378.306772623962
30
52.3750029132326
 70
     32
  0
VERTEX
  8
MY3DLAYER
10
679.000003525702
20
378.824410714168
30
52.3750029132327
 70
     32
  0
VERTEX
  8
MY3DLAYER
10
678.931855178281
20
379.342048804372
30
52.3750029132326
 70
     32
  0
VERTEX
  8
MY3DLAYER
10
678.73205433327
20
379.824410714168
30
52.3750029132378
 70
     32
  0
VERTEX
  8
MY3DLAYER
10
678.414217088076
20
380.238624276541
30
52.3750029132387
 70
     32
  0
VERTEX
  8
MY3DLAYER
10
678.000003525702
20
380.556461521736
30
52.3750029132331
 70
     32
  0
VERTEX
  8
MY3DLAYER
10
677.517641615908
20
380.756262366746
30
52.3750029132324
 70
     32
  0
VERTEX
  8
MY3DLAYER
10
677.000003525704
20
380.824410714167
30
52.3750029132339
 70
     32
  0
VERTEX
  8
MY3DLAYER
10
676.482365435498
20
380.756262366747
30
52.3750029132387
 70
     32
  0
VERTEX
  8
MY3DLAYER
10
676.000003525702
20
380.556461521736
30
52.3750029132369
 70
     32
  0
VERTEX
  8
MY3DLAYER
10
675.585789963329
20
380.238624276541
30
52.375002913233
 70
     32
  0
VERTEX
  8
MY3DLAYER
10
675.267952718133
20
379.824410714168
30
52.3750029132327
 70
     32
  0
VERTEX
  8
MY3DLAYER
10
675.068151873124
20
379.342048804374
30
52.3750029132335
 70
     32
  0
VERTEX
  8
MY3DLAYER
10
675.000003525702
20
378.824410714168
30
52.3750029132378
 70
     32
  0
VERTEX
  8
MY3DLAYER
10
675.068151873126
20
378.306772623964
30
52.3750029132337
 70
     32
  0
VERTEX
  8
MY3DLAYER
10
675.267952718132
20
377.824410714168
30
52.3750029132322
 70
     32
  0
SEQEND
  0
POLYLINE
 8
Layer0
 66
     1
70
    8
 10
0.0
 20
 0.0
 30
0.0
  0
VERTEX
  8
MY3DLAYER
10
640.92601624939
20
345.199913180646
30
52.3750029132341
 70
     32
  0
VERTEX
  8
MY3DLAYER
10
640.857867901968
20
344.682275090441
30
52.3750029132332
 70
     32
  0
VERTEX
  8
MY3DLAYER
10
640.92601624939
20
344.164637000236
30
52.3750029132342
 70
     32
  0
VERTEX
  8
MY3DLAYER
10
641.125817094399
20
343.68227509044
30
52.375002913238
 70
     32
  0
VERTEX
  8
MY3DLAYER
10
641.443654339596
20
343.268061528068
30
52.3750029132374
 70
     32
  0
VERTEX
  8
MY3DLAYER
10
641.857867901968
20
342.950224282871
30
52.3750029132329
 70
     32
  0
VERTEX
  8
MY3DLAYER
10
642.340229811763
20
342.750423437863
30
52.3750029132332
 70
     32
  0
VERTEX
  8
MY3DLAYER
10
642.857867901967
20
342.682275090441
30
52.3750029132334
 70
     32
  0
VERTEX
  8
MY3DLAYER
10
643.375505992173
20
342.750423437862
30
52.3750029132375
 70
     32
  0
VERTEX
  8
MY3DLAYER
10
643.857867901967
20
342.950224282871
30
52.3750029132382
 70
     32
  0
VERTEX
  8
MY3DLAYER
10
644.272081464341
20
343.268061528068
30
52.375002913233
 70
     32
  0
VERTEX
  8
MY3DLAYER
10
644.589918709536
20
343.682275090441
30
52.3750029132338
 70
     32
  0
VERTEX
  8
MY3DLAYER
10
644.789719554545
20
344.164637000236
30
52.3750029132382
 70
     32
  0
VERTEX
  8
MY3DLAYER
10
644.857867901967
20
344.682275090441
30
52.3750029132339
 70
     32
  0
VERTEX
  8
MY3DLAYER
10
644.789719554545
20
345.199913180645
30
52.3750029132379
 70
     32
  0
VERTEX
  8
MY3DLAYER
10
644.589918709537
20
345.682275090441
30
52.3750029132337
 70
     32
  0
VERTEX
  8
MY3DLAYER
10
644.272081464341
20
346.096488652813
30
52.3750029132337
 70
     32
  0
VERTEX
  8
MY3DLAYER
10
643.857867901968
20
346.414325898009
30
52.3750029132382
 70
     32
  0
VERTEX
  8
MY3DLAYER
10
643.375505992173
20
346.614126743019
30
52.3750029132374
 70
     32
  0
VERTEX
  8
MY3DLAYER
10
642.857867901969
20
346.682275090441
30
52.3750029132329
 70
     32
  0
VERTEX
  8
MY3DLAYER
10
642.340229811762
20
346.614126743019
30
52.3750029132339
 70
     32
  0
VERTEX
  8
MY3DLAYER
10
641.857867901969
20
346.414325898009
30
52.375002913233
 70
     32
  0
VERTEX
  8
MY3DLAYER
10
641.443654339596
20
346.096488652814
30
52.3750029132378
 70
     32
  0
VERTEX
  8
MY3DLAYER
10
641.1258170944
20
345.68227509044
30
52.3750029132382
 70
     32
  0
VERTEX
  8
MY3DLAYER
10
640.92601624939
20
345.199913180646
30
52.3750029132341
 70
     32
  0
SEQEND
  0
POLYLINE
 8
Layer0
 66
     1
70
    8
 10
0.0
 20
 0.0
 30
0.0
  0
VERTEX
  8
MY3DLAYER
10
452.568151873123
20
345.199913180667
30
52.3750032813838
 70
     32
  0
VERTEX
  8
MY3DLAYER
10
452.500003525702
20
344.682275090462
30
52.3750032813839
 70
     32
  0
VERTEX
  8
MY3DLAYER
10
452.568151873124
20
344.164637000257
30
52.3750032813841
 70
     32
  0
VERTEX
  8
MY3DLAYER
10
452.767952718133
20
343.682275090461
30
52.3750032813884
 70
     32
  0
VERTEX
  8
MY3DLAYER
10
453.085789963328
20
343.268061528089
30
52.3750032813885
 70
     32
  0
VERTEX
  8
MY3DLAYER
10
453.500003525701
20
342.950224282892
30
52.3750032813831
 70
     32
  0
VERTEX
  8
MY3DLAYER
10
453.982365435497
20
342.750423437883
30
52.3750032813828
 70
     32
  0
VERTEX
  8
MY3DLAYER
10
454.500003525701
20
342.682275090461
30
52.3750032813845
 70
     32
  0
VERTEX
  8
MY3DLAYER
10
455.017641615908
20
342.750423437884
30
52.3750032813881
 70
     32
  0
VERTEX
  8
MY3DLAYER
10
455.500003525702
20
342.950224282892
30
52.3750032813885
 70
     32
  0
VERTEX
  8
MY3DLAYER
10
455.914217088075
20
343.268061528088
30
52.3750032813832
 70
     32
  0
VERTEX
  8
MY3DLAYER
10
456.232054333271
20
343.682275090461
30
52.3750032813842
 70
     32
  0
VERTEX
  8
MY3DLAYER
10
456.431855178282
20
344.164637000256
30
52.3750032813842
 70
     32
  0
VERTEX
  8
MY3DLAYER
10
456.500003525704
20
344.682275090461
30
52.3750032813891
 70
     32
  0
VERTEX
  8
MY3DLAYER
10
456.431855178282
20
345.199913180667
30
52.3750032813838
 70
     32
  0
VERTEX
  8
MY3DLAYER
10
456.232054333272
20
345.682275090462
30
52.3750032813841
 70
     32
  0
VERTEX
  8
MY3DLAYER
10
455.914217088075
20
346.096488652835
30
52.3750032813836
 70
     32
  0
VERTEX
  8
MY3DLAYER
10
455.500003525703
20
346.414325898031
30
52.3750032813884
 70
     32
  0
VERTEX
  8
MY3DLAYER
10
455.017641615907
20
346.61412674304
30
52.3750032813882
 70
     32
  0
VERTEX
  8
MY3DLAYER
10
454.500003525703
20
346.682275090462
30
52.3750032813846
 70
     32
  0
VERTEX
  8
MY3DLAYER
10
453.982365435497
20
346.61412674304
30
52.3750032813836
 70
     32
  0
VERTEX
  8
MY3DLAYER
10
453.500003525703
20
346.414325898031
30
52.3750032813831
 70
     32
  0
VERTEX
  8
MY3DLAYER
10
453.085789963329
20
346.096488652835
30
52.3750032813888
 70
     32
  0
VERTEX
  8
MY3DLAYER
10
452.767952718134
20
345.682275090461
30
52.3750032813886
 70
     32
  0
VERTEX
  8
MY3DLAYER
10
452.568151873123
20
345.199913180667
30
52.3750032813838
 70
     32
  0
SEQEND
  0
POLYLINE
 8
Layer0
 66
     1
70
    8
 10
0.0
 20
 0.0
 30
0.0
  0
VERTEX
  8
MY3DLAYER
10
265.142139149437
20
346.41432589805
30
52.3749965057731
 70
     32
  0
VERTEX
  8
MY3DLAYER
10
264.727925587063
20
346.096488652854
30
52.3749965057777
 70
     32
  0
VERTEX
  8
MY3DLAYER
10
264.410088341867
20
345.682275090481
30
52.374996505778
 70
     32
  0
VERTEX
  8
MY3DLAYER
10
264.210287496858
20
345.199913180687
30
52.3749965057729
 70
     32
  0
VERTEX
  8
MY3DLAYER
10
264.142139149436
20
344.682275090481
30
52.3749965057738
 70
     32
  0
VERTEX
  8
MY3DLAYER
10
264.210287496858
20
344.164637000277
30
52.374996505773
 70
     32
  0
VERTEX
  8
MY3DLAYER
10
264.410088341867
20
343.68227509048
30
52.3749965057777
 70
     32
  0
VERTEX
  8
MY3DLAYER
10
264.727925587063
20
343.268061528107
30
52.3749965057775
 70
     32
  0
VERTEX
  8
MY3DLAYER
10
265.142139149436
20
342.950224282912
30
52.3749965057732
 70
     32
  0
VERTEX
  8
MY3DLAYER
10
265.624501059231
20
342.750423437904
30
52.3749965057723
 70
     32
  0
VERTEX
  8
MY3DLAYER
10
266.142139149436
20
342.682275090481
30
52.3749965057735
 70
     32
  0
VERTEX
  8
MY3DLAYER
10
266.659777239641
20
342.750423437902
30
52.3749965057781
 70
     32
  0
VERTEX
  8
MY3DLAYER
10
267.142139149436
20
342.950224282912
30
52.3749965057738
 70
     32
  0
VERTEX
  8
MY3DLAYER
10
267.55635271181
20
343.268061528107
30
52.3749965057727
 70
     32
  0
VERTEX
  8
MY3DLAYER
10
267.874189957005
20
343.68227509048
30
52.3749965057729
 70
     32
  0
VERTEX
  8
MY3DLAYER
10
268.073990802015
20
344.164637000276
30
52.3749965057731
 70
     32
  0
VERTEX
  8
MY3DLAYER
10
268.142139149437
20
344.682275090481
30
52.3749965057776
 70
     32
  0
VERTEX
  8
MY3DLAYER
10
268.073990802015
20
345.199913180686
30
52.3749965057729
 70
     32
  0
VERTEX
  8
MY3DLAYER
10
267.874189957006
20
345.68227509048
30
52.3749965057727
 70
     32
  0
VERTEX
  8
MY3DLAYER
10
267.55635271181
20
346.096488652854
30
52.3749965057734
 70
     32
  0
VERTEX
  8
MY3DLAYER
10
267.142139149437
20
346.41432589805
30
52.3749965057738
 70
     32
  0
VERTEX
  8
MY3DLAYER
10
266.659777239641
20
346.614126743059
30
52.374996505778
 70
     32
  0
VERTEX
  8
MY3DLAYER
10
266.142139149437
20
346.682275090481
30
52.3749965057736
 70
     32
  0
VERTEX
  8
MY3DLAYER
10
265.624501059231
20
346.61412674306
30
52.3749965057726
 70
     32
  0
VERTEX
  8
MY3DLAYER
10
265.142139149437
20
346.41432589805
30
52.3749965057731
 70
     32
  0
SEQEND
  0
POLYLINE
 8
Layer0
 66
     1
70
    8
 10
0.0
 20
 0.0
 30
0.0
  0
VERTEX
  8
MY3DLAYER
10
232.517641615915
20
380.756262366794
30
52.3749965057725
 70
     32
  0
VERTEX
  8
MY3DLAYER
10
232.00000352571
20
380.824410714215
30
52.3749965057723
 70
     32
  0
VERTEX
  8
MY3DLAYER
10
231.482365435505
20
380.756262366793
30
52.3749965057762
 70
     32
  0
VERTEX
  8
MY3DLAYER
10
231.00000352571
20
380.556461521785
30
52.3749965057728
 70
     32
  0
VERTEX
  8
MY3DLAYER
10
230.585789963337
20
380.238624276588
30
52.3749965057716
 70
     32
  0
VERTEX
  8
MY3DLAYER
10
230.267952718141
20
379.824410714216
30
52.374996505772
 70
     32
  0
VERTEX
  8
MY3DLAYER
10
230.068151873131
20
379.34204880442
30
52.3749965057713
 70
     32
  0
VERTEX
  8
MY3DLAYER
10
230.000003525709
20
378.824410714216
30
52.3749965057765
 70
     32
  0
VERTEX
  8
MY3DLAYER
10
230.068151873132
20
378.306772624011
30
52.3749965057714
 70
     32
  0
VERTEX
  8
MY3DLAYER
10
230.267952718141
20
377.824410714216
30
52.3749965057716
 70
     32
  0
VERTEX
  8
MY3DLAYER
10
230.585789963336
20
377.410197151842
30
52.3749965057721
 70
     32
  0
VERTEX
  8
MY3DLAYER
10
231.000003525709
20
377.092359906647
30
52.3749965057734
 70
     32
  0
VERTEX
  8
MY3DLAYER
10
231.482365435504
20
376.892559061637
30
52.3749965057765
 70
     32
  0
VERTEX
  8
MY3DLAYER
10
232.000003525709
20
376.824410714215
30
52.3749965057718
 70
     32
  0
VERTEX
  8
MY3DLAYER
10
232.517641615914
20
376.892559061638
30
52.3749965057722
 70
     32
  0
VERTEX
  8
MY3DLAYER
10
233.000003525709
20
377.092359906646
30
52.3749965057725
 70
     32
  0
VERTEX
  8
MY3DLAYER
10
233.414217088082
20
377.410197151842
30
52.374996505777
 70
     32
  0
VERTEX
  8
MY3DLAYER
10
233.732054333279
20
377.824410714215
30
52.3749965057757
 70
     32
  0
VERTEX
  8
MY3DLAYER
10
233.931855178288
20
378.306772624011
30
52.3749965057726
 70
     32
  0
VERTEX
  8
MY3DLAYER
10
234.000003525709
20
378.824410714215
30
52.3749965057715
 70
     32
  0
VERTEX
  8
MY3DLAYER
10
233.931855178288
20
379.342048804421
30
52.3749965057725
 70
     32
  0
VERTEX
  8
MY3DLAYER
10
233.732054333279
20
379.824410714215
30
52.374996505776
 70
     32
  0
VERTEX
  8
MY3DLAYER
10
233.414217088083
20
380.238624276588
30
52.3749965057767
 70
     32
  0
VERTEX
  8
MY3DLAYER
10
233.00000352571
20
380.556461521784
30
52.374996505772
 70
     32
  0
VERTEX
  8
MY3DLAYER
10
232.517641615915
20
380.756262366794
30
52.3749965057725
 70
     32
  0
SEQEND
  0
POLYLINE
 8
Layer0
 66
     1
70
    8
 10
0.0
 20
 0.0
 30
0.0
  0
VERTEX
  8
MY3DLAYER
10
232.517641615933
20
546.614127045485
30
52.3749965072433
 70
     32
  0
VERTEX
  8
MY3DLAYER
10
232.000003525728
20
546.682275392907
30
52.3749965072443
 70
     32
  0
VERTEX
  8
MY3DLAYER
10
231.482365435523
20
546.614127045484
30
52.3749965072479
 70
     32
  0
VERTEX
  8
MY3DLAYER
10
231.000003525729
20
546.414326200475
30
52.3749965072445
 70
     32
  0
VERTEX
  8
MY3DLAYER
10
230.585789963355
20
546.09648895528
30
52.3749965072432
 70
     32
  0
VERTEX
  8
MY3DLAYER
10
230.26795271816
20
545.682275392906
30
52.3749965072439
 70
     32
  0
VERTEX
  8
MY3DLAYER
10
230.06815187315
20
545.199913483111
30
52.3749965072439
 70
     32
  0
VERTEX
  8
MY3DLAYER
10
230.000003525728
20
544.682275392906
30
52.3749965072487
 70
     32
  0
VERTEX
  8
MY3DLAYER
10
230.06815187315
20
544.164637302701
30
52.374996507244
 70
     32
  0
VERTEX
  8
MY3DLAYER
10
230.267952718159
20
543.682275392907
30
52.3749965072439
 70
     32
  0
VERTEX
  8
MY3DLAYER
10
230.585789963355
20
543.268061830534
30
52.3749965072439
 70
     32
  0
VERTEX
  8
MY3DLAYER
10
231.000003525728
20
542.950224585338
30
52.3749965072443
 70
     32
  0
VERTEX
  8
MY3DLAYER
10
231.482365435522
20
542.750423740328
30
52.3749965072481
 70
     32
  0
VERTEX
  8
MY3DLAYER
10
232.000003525727
20
542.682275392907
30
52.374996507244
 70
     32
  0
VERTEX
  8
MY3DLAYER
10
232.517641615932
20
542.750423740328
30
52.3749965072439
 70
     32
  0
VERTEX
  8
MY3DLAYER
10
233.000003525728
20
542.950224585337
30
52.3749965072442
 70
     32
  0
VERTEX
  8
MY3DLAYER
10
233.414217088101
20
543.268061830533
30
52.3749965072484
 70
     32
  0
VERTEX
  8
MY3DLAYER
10
233.732054333297
20
543.682275392906
30
52.3749965072476
 70
     32
  0
VERTEX
  8
MY3DLAYER
10
233.931855178306
20
544.164637302701
30
52.3749965072444
 70
     32
  0
VERTEX
  8
MY3DLAYER
10
234.000003525728
20
544.682275392906
30
52.3749965072438
 70
     32
  0
VERTEX
  8
MY3DLAYER
10
233.931855178306
20
545.199913483111
30
52.3749965072441
 70
     32
  0
VERTEX
  8
MY3DLAYER
10
233.732054333298
20
545.682275392906
30
52.3749965072477
 70
     32
  0
VERTEX
  8
MY3DLAYER
10
233.414217088101
20
546.09648895528
30
52.3749965072482
 70
     32
  0
VERTEX
  8
MY3DLAYER
10
233.000003525729
20
546.414326200475
30
52.3749965072442
 70
     32
  0
VERTEX
  8
MY3DLAYER
10
232.517641615933
20
546.614127045485
30
52.3749965072433
 70
     32
  0
SEQEND
  0
POLYLINE
 8
Layer0
 66
     1
70
    8
 10
0.0
 20
 0.0
 30
0.0
  0
VERTEX
  8
MY3DLAYER
10
233.732048673891
20
711.540140071598
30
52.3750021682177
 70
     32
  0
VERTEX
  8
MY3DLAYER
10
233.414211428696
20
711.954353633971
30
52.375002168218
 70
     32
  0
VERTEX
  8
MY3DLAYER
10
232.999997866322
20
712.272190879166
30
52.3750021682137
 70
     32
  0
VERTEX
  8
MY3DLAYER
10
232.517635956528
20
712.471991724176
30
52.3750021682136
 70
     32
  0
VERTEX
  8
MY3DLAYER
10
231.999997866322
20
712.540140071597
30
52.3750021682141
 70
     32
  0
VERTEX
  8
MY3DLAYER
10
231.482359776118
20
712.471991724175
30
52.3750021682176
 70
     32
  0
VERTEX
  8
MY3DLAYER
10
230.999997866323
20
712.272190879166
30
52.3750021682149
 70
     32
  0
VERTEX
  8
MY3DLAYER
10
230.58578430395
20
711.954353633971
30
52.3750021682131
 70
     32
  0
VERTEX
  8
MY3DLAYER
10
230.267947058754
20
711.540140071599
30
52.3750021682138
 70
     32
  0
VERTEX
  8
MY3DLAYER
10
230.068146213745
20
711.057778161803
30
52.3750021682135
 70
     32
  0
VERTEX
  8
MY3DLAYER
10
229.999997866322
20
710.540140071598
30
52.3750021682186
 70
     32
  0
VERTEX
  8
MY3DLAYER
10
230.068146213744
20
710.022501981393
30
52.3750021682139
 70
     32
  0
VERTEX
  8
MY3DLAYER
10
230.267947058753
20
709.540140071599
30
52.3750021682141
 70
     32
  0
VERTEX
  8
MY3DLAYER
10
230.585784303949
20
709.125926509224
30
52.3750021682136
 70
     32
  0
VERTEX
  8
MY3DLAYER
10
230.999997866322
20
708.808089264029
30
52.3750021682149
 70
     32
  0
VERTEX
  8
MY3DLAYER
10
231.482359776117
20
708.60828841902
30
52.3750021682173
 70
     32
  0
VERTEX
  8
MY3DLAYER
10
231.999997866323
20
708.540140071598
30
52.3750021682143
 70
     32
  0
VERTEX
  8
MY3DLAYER
10
232.517635956527
20
708.60828841902
30
52.3750021682133
 70
     32
  0
VERTEX
  8
MY3DLAYER
10
232.999997866322
20
708.808089264029
30
52.3750021682138
 70
     32
  0
VERTEX
  8
MY3DLAYER
10
233.414211428695
20
709.125926509224
30
52.3750021682187
 70
     32
  0
VERTEX
  8
MY3DLAYER
10
233.732048673891
20
709.540140071597
30
52.375002168218
 70
     32
  0
VERTEX
  8
MY3DLAYER
10
233.9318495189
20
710.022501981393
30
52.3750021682147
 70
     32
  0
VERTEX
  8
MY3DLAYER
10
233.999997866322
20
710.540140071598
30
52.3750021682138
 70
     32
  0
VERTEX
  8
MY3DLAYER
10
233.931849518901
20
711.057778161803
30
52.3750021682147
 70
     32
  0
VERTEX
  8
MY3DLAYER
10
233.732048673891
20
711.540140071598
30
52.3750021682177
 70
     32
  0
SEQEND
  0
POLYLINE
 8
Layer0
 66
     1
70
    8
 10
0.0
 20
 0.0
 30
0.0
  0
VERTEX
  8
MY3DLAYER
10
268.073985142635
20
744.164637605118
30
52.3750021682135
 70
     32
  0
VERTEX
  8
MY3DLAYER
10
268.142133490057
20
744.682275695323
30
52.3750021682175
 70
     32
  0
VERTEX
  8
MY3DLAYER
10
268.073985142635
20
745.199913785528
30
52.3750021682138
 70
     32
  0
VERTEX
  8
MY3DLAYER
10
267.874184297626
20
745.682275695324
30
52.3750021682127
 70
     32
  0
VERTEX
  8
MY3DLAYER
10
267.55634705243
20
746.096489257696
30
52.3750021682133
 70
     32
  0
VERTEX
  8
MY3DLAYER
10
267.142133490057
20
746.414326502894
30
52.3750021682141
 70
     32
  0
VERTEX
  8
MY3DLAYER
10
266.659771580262
20
746.614127347902
30
52.3750021682192
 70
     32
  0
VERTEX
  8
MY3DLAYER
10
266.142133490057
20
746.682275695324
30
52.3750021682133
 70
     32
  0
VERTEX
  8
MY3DLAYER
10
265.624495399852
20
746.614127347902
30
52.3750021682127
 70
     32
  0
VERTEX
  8
MY3DLAYER
10
265.142133490057
20
746.414326502893
30
52.3750021682142
 70
     32
  0
VERTEX
  8
MY3DLAYER
10
264.727919927684
20
746.096489257696
30
52.3750021682182
 70
     32
  0
VERTEX
  8
MY3DLAYER
10
264.410082682488
20
745.682275695323
30
52.3750021682178
 70
     32
  0
VERTEX
  8
MY3DLAYER
10
264.210281837479
20
745.199913785529
30
52.3750021682137
 70
     32
  0
VERTEX
  8
MY3DLAYER
10
264.142133490057
20
744.682275695323
30
52.3750021682133
 70
     32
  0
VERTEX
  8
MY3DLAYER
10
264.210281837478
20
744.164637605119
30
52.3750021682127
 70
     32
  0
VERTEX
  8
MY3DLAYER
10
264.410082682487
20
743.682275695324
30
52.3750021682184
 70
     32
  0
VERTEX
  8
MY3DLAYER
10
264.727919927684
20
743.268062132951
30
52.3750021682183
 70
     32
  0
VERTEX
  8
MY3DLAYER
10
265.142133490056
20
742.950224887755
30
52.3750021682138
 70
     32
  0
VERTEX
  8
MY3DLAYER
10
265.624495399851
20
742.750424042746
30
52.3750021682125
 70
     32
  0
VERTEX
  8
MY3DLAYER
10
266.142133490057
20
742.682275695324
30
52.3750021682138
 70
     32
  0
VERTEX
  8
MY3DLAYER
10
266.659771580262
20
742.750424042746
30
52.3750021682187
 70
     32
  0
VERTEX
  8
MY3DLAYER
10
267.142133490057
20
742.950224887756
30
52.3750021682137
 70
     32
  0
VERTEX
  8
MY3DLAYER
10
267.55634705243
20
743.26806213295
30
52.3750021682136
 70
     32
  0
VERTEX
  8
MY3DLAYER
10
267.874184297625
20
743.682275695324
30
52.3750021682129
 70
     32
  0
VERTEX
  8
MY3DLAYER
10
268.073985142635
20
744.164637605118
30
52.3750021682135
 70
     32
  0
SEQEND
  0
POLYLINE
 8
Layer0
 66
     1
70
    8
 10
0.0
 20
 0.0
 30
0.0
  0
VERTEX
  8
MY3DLAYER
10
452.568146213745
20
745.199913785512
30
52.3750089438271
 70
     32
  0
VERTEX
  8
MY3DLAYER
10
452.499997866322
20
744.682275695306
30
52.3750089438259
 70
     32
  0
VERTEX
  8
MY3DLAYER
10
452.568146213745
20
744.164637605102
30
52.3750089438263
 70
     32
  0
VERTEX
  8
MY3DLAYER
10
452.767947058753
20
743.682275695306
30
52.3750089438316
 70
     32
  0
VERTEX
  8
MY3DLAYER
10
453.08578430395
20
743.268062132934
30
52.3750089438319
 70
     32
  0
VERTEX
  8
MY3DLAYER
10
453.499997866323
20
742.950224887737
30
52.3750089438262
 70
     32
  0
VERTEX
  8
MY3DLAYER
10
453.982359776116
20
742.750424042728
30
52.3750089438261
 70
     32
  0
VERTEX
  8
MY3DLAYER
10
454.499997866322
20
742.682275695306
30
52.3750089438273
 70
     32
  0
VERTEX
  8
MY3DLAYER
10
455.017635956527
20
742.750424042728
30
52.3750089438315
 70
     32
  0
VERTEX
  8
MY3DLAYER
10
455.499997866323
20
742.950224887737
30
52.3750089438307
 70
     32
  0
VERTEX
  8
MY3DLAYER
10
455.914211428696
20
743.268062132932
30
52.375008943827
 70
     32
  0
VERTEX
  8
MY3DLAYER
10
456.232048673891
20
743.682275695305
30
52.3750089438272
 70
     32
  0
VERTEX
  8
MY3DLAYER
10
456.431849518903
20
744.1646376051
30
52.3750089438271
 70
     32
  0
VERTEX
  8
MY3DLAYER
10
456.499997866324
20
744.682275695306
30
52.3750089438314
 70
     32
  0
VERTEX
  8
MY3DLAYER
10
456.431849518903
20
745.199913785511
30
52.3750089438273
 70
     32
  0
VERTEX
  8
MY3DLAYER
10
456.232048673891
20
745.682275695305
30
52.3750089438269
 70
     32
  0
VERTEX
  8
MY3DLAYER
10
455.914211428696
20
746.096489257678
30
52.3750089438263
 70
     32
  0
VERTEX
  8
MY3DLAYER
10
455.499997866323
20
746.414326502874
30
52.3750089438312
 70
     32
  0
VERTEX
  8
MY3DLAYER
10
455.017635956528
20
746.614127347885
30
52.3750089438318
 70
     32
  0
VERTEX
  8
MY3DLAYER
10
454.499997866322
20
746.682275695306
30
52.3750089438271
 70
     32
  0
VERTEX
  8
MY3DLAYER
10
453.982359776118
20
746.614127347884
30
52.3750089438265
 70
     32
  0
VERTEX
  8
MY3DLAYER
10
453.499997866323
20
746.414326502875
30
52.3750089438265
 70
     32
  0
VERTEX
  8
MY3DLAYER
10
453.08578430395
20
746.09648925768
30
52.375008943832
 70
     32
  0
VERTEX
  8
MY3DLAYER
10
452.767947058753
20
745.682275695306
30
52.3750089438309
 70
     32
  0
VERTEX
  8
MY3DLAYER
10
452.568146213745
20
745.199913785512
30
52.3750089438271
 70
     32
  0
SEQEND
  0
POLYLINE
 8
Layer0
 66
     1
70
    8
 10
0.0
 20
 0.0
 30
0.0
  0
VERTEX
  8
MY3DLAYER
10
641.982277972044
20
673.700001341101
30
52.3749973090411
 70
     32
  0
VERTEX
  8
MY3DLAYER
10
621.982277972047
20
693.700001341103
30
52.3749973090405
 70
     32
  0
VERTEX
  8
MY3DLAYER
10
287.000002872811
20
693.700001341142
30
52.37499730904
 70
     32
  0
VERTEX
  8
MY3DLAYER
10
267.000002872809
20
673.700001341144
30
52.3749973090399
 70
     32
  0
VERTEX
  8
MY3DLAYER
10
267.00000287278
20
413.500001341143
30
52.3749970850233
 70
     32
  0
VERTEX
  8
MY3DLAYER
10
287.000002872778
20
393.500001341141
30
52.3749970850234
 70
     32
  0
VERTEX
  8
MY3DLAYER
10
621.982277972012
20
393.500001341103
30
52.3749970850247
 70
     32
  0
VERTEX
  8
MY3DLAYER
10
641.982277972014
20
413.500001341101
30
52.3749970850247
 70
     32
  0
VERTEX
  8
MY3DLAYER
10
641.982277972044
20
673.700001341101
30
52.3749973090411
 70
     32
  0
SEQEND
 0
ENDSEC
 0
EOF
