  0
SECTION
  2
HEADER
  9
$ACADVER
  1
AC1015
  9
$ACADMAINTVER
 70
     6
  9
$DWGCODEPAGE
  3
ANSI_1252
  9
$INSBASE
 10
0.0
 20
0.0
 30
0.0
  9
$EXTMIN
 10
222.000003078888
 20
-45.3177247775112
 30
355.374985197782
  9
$EXTMAX
 10
687.000003450453
 20
374.682282656543
 30
355.375005704646
  9
$LIMMIN
 10
0.0
 20
0.0
  9
$LIMMAX
 10
12.0
 20
9.0
  9
$ORTHOMODE
 70
     0
  9
$REGENMODE
 70
     1
  9
$FILLMODE
 70
     1
  9
$QTEXTMODE
 70
     0
  9
$MIRRTEXT
 70
     1
  9
$LTSCALE
 40
1.0
  9
$ATTMODE
 70
     1
  9
$TEXTSIZE
 40
0.2
  9
$TRACEWID
 40
0.05
  9
$TEXTSTYLE
  7
Standard
  9
$CLAYER
  8
0
  9
$CELTYPE
  6
ByBlock
  9
$CECOLOR
 62
   256
  9
$CELTSCALE
 40
1.0
  9
$DISPSILH
 70
     0
  9
$DIMSCALE
 40
1.0
  9
$DIMASZ
 40
0.18
  9
$DIMEXO
 40
0.0625
  9
$DIMDLI
 40
0.38
  9
$DIMRND
 40
0.0
  9
$DIMDLE
 40
0.0
  9
$DIMEXE
 40
0.18
  9
$DIMTP
 40
0.0
  9
$DIMTM
 40
0.0
  9
$DIMTXT
 40
0.18
  9
$DIMCEN
 40
0.09
  9
$DIMTSZ
 40
0.0
  9
$DIMTOL
 70
     0
  9
$DIMLIM
 70
     0
  9
$DIMTIH
 70
     1
  9
$DIMTOH
 70
     1
  9
$DIMSE1
 70
     0
  9
$DIMSE2
 70
     0
  9
$DIMTAD
 70
     0
  9
$DIMZIN
 70
     0
  9
$DIMBLK
  1

  9
$DIMASO
 70
     1
  9
$DIMSHO
 70
     1
  9
$DIMPOST
  1

  9
$DIMAPOST
  1

  9
$DIMALT
 70
     0
  9
$DIMALTD
 70
     2
  9
$DIMALTF
 40
25.4
  9
$DIMLFAC
 40
1.0
  9
$DIMTOFL
 70
     0
  9
$DIMTVP
 40
0.0
  9
$DIMTIX
 70
     0
  9
$DIMSOXD
 70
     0
  9
$DIMSAH
 70
     0
  9
$DIMBLK1
  1

  9
$DIMBLK2
  1

  9
$DIMSTYLE
  2
Standard
  9
$DIMCLRD
 70
     0
  9
$DIMCLRE
 70
     0
  9
$DIMCLRT
 70
     0
  9
$DIMTFAC
 40
1.0
  9
$DIMGAP
 40
0.09
  9
$DIMJUST
 70
     0
  9
$DIMSD1
 70
     0
  9
$DIMSD2
 70
     0
  9
$DIMTOLJ
 70
     1
  9
$DIMTZIN
 70
     0
  9
$DIMALTZ
 70
     0
  9
$DIMALTTZ
 70
     0
  9
$DIMUPT
 70
     0
  9
$DIMDEC
 70
     4
  9
$DIMTDEC
 70
     4
  9
$DIMALTU
 70
     2
  9
$DIMALTTD
 70
     2
  9
$DIMTXSTY
  7
Standard
  9
$DIMAUNIT
 70
     0
  9
$DIMADEC
 70
     0
  9
$DIMALTRND
 40
0.0
  9
$DIMAZIN
 70
     0
  9
$DIMDSEP
 70
    46
  9
$DIMATFIT
 70
     3
  9
$DIMFRAC
 70
     0
  9
$DIMLDRBLK
  1

  9
$DIMLUNIT
 70
     2
  9
$DIMLWD
 70
    -2
  9
$DIMLWE
 70
    -2
  9
$DIMTMOVE
 70
     2
  9
$LUNITS
 70
     2
  9
$LUPREC
 70
     4
  9
$SKETCHINC
 40
0.1
  9
$FILLETRAD
 40
0.5
  9
$AUNITS
 70
     0
  9
$AUPREC
 70
     0
  9
$MENU
  1
.
  9
$ELEVATION
 40
0.0
  9
$PELEVATION
 40
0.0
  9
$THICKNESS
 40
0.0
  9
$LIMCHECK
 70
     0
  9
$CHAMFERA
 40
0.0
  9
$CHAMFERB
 40
0.0
  9
$CHAMFERC
 40
0.0
  9
$CHAMFERD
 40
0.0
  9
$SKPOLY
 70
     0
  9
$TDCREATE
 40
2456786.849305544
  9
$TDUCREATE
 40
2456786.807638889
  9
$TDUPDATE
 40
2456786.849872673
  9
$TDUUPDATE
 40
2456786.808206019
  9
$TDINDWG
 40
0.0000000116
  9
$TDUSRTIMER
 40
2456786.807650463
  9
$USRTIMER
 70
     1
  9
$ANGBASE
 50
0.0
  9
$ANGDIR
 70
     0
  9
$PDMODE
 70
     0
  9
$PDSIZE
 40
0.0
  9
$PLINEWID
 40
0.0
  9
$SPLFRAME
 70
     0
  9
$SPLINETYPE
 70
     6
  9
$SPLINESEGS
 70
     8
  9
$HANDSEED
  5
2EA
  9
$SURFTAB1
 70
     6
  9
$SURFTAB2
 70
     6
  9
$SURFTYPE
 70
     6
  9
$SURFU
 70
     6
  9
$SURFV
 70
     6
  9
$UCSBASE
  2

  9
$UCSNAME
  2

  9
$UCSORG
 10
0.0
 20
0.0
 30
0.0
  9
$UCSXDIR
 10
1.0
 20
0.0
 30
0.0
  9
$UCSYDIR
 10
0.0
 20
1.0
 30
0.0
  9
$UCSORTHOREF
  2

  9
$UCSORTHOVIEW
 70
     0
  9
$UCSORGTOP
 10
0.0
 20
0.0
 30
0.0
  9
$UCSORGBOTTOM
 10
0.0
 20
0.0
 30
0.0
  9
$UCSORGLEFT
 10
0.0
 20
0.0
 30
0.0
  9
$UCSORGRIGHT
 10
0.0
 20
0.0
 30
0.0
  9
$UCSORGFRONT
 10
0.0
 20
0.0
 30
0.0
  9
$UCSORGBACK
 10
0.0
 20
0.0
 30
0.0
  9
$PUCSBASE
  2

  9
$PUCSNAME
  2

  9
$PUCSORG
 10
0.0
 20
0.0
 30
0.0
  9
$PUCSXDIR
 10
1.0
 20
0.0
 30
0.0
  9
$PUCSYDIR
 10
0.0
 20
1.0
 30
0.0
  9
$PUCSORTHOREF
  2

  9
$PUCSORTHOVIEW
 70
     0
  9
$PUCSORGTOP
 10
0.0
 20
0.0
 30
0.0
  9
$PUCSORGBOTTOM
 10
0.0
 20
0.0
 30
0.0
  9
$PUCSORGLEFT
 10
0.0
 20
0.0
 30
0.0
  9
$PUCSORGRIGHT
 10
0.0
 20
0.0
 30
0.0
  9
$PUCSORGFRONT
 10
0.0
 20
0.0
 30
0.0
  9
$PUCSORGBACK
 10
0.0
 20
0.0
 30
0.0
  9
$USERI1
 70
     0
  9
$USERI2
 70
     0
  9
$USERI3
 70
     0
  9
$USERI4
 70
     0
  9
$USERI5
 70
     0
  9
$USERR1
 40
0.0
  9
$USERR2
 40
0.0
  9
$USERR3
 40
0.0
  9
$USERR4
 40
0.0
  9
$USERR5
 40
0.0
  9
$WORLDVIEW
 70
     1
  9
$SHADEDGE
 70
     3
  9
$SHADEDIF
 70
    70
  9
$TILEMODE
 70
     1
  9
$MAXACTVP
 70
    64
  9
$PINSBASE
 10
0.0
 20
0.0
 30
0.0
  9
$PLIMCHECK
 70
     0
  9
$PEXTMIN
 10
1.000000000000000E+20
 20
1.000000000000000E+20
 30
1.000000000000000E+20
  9
$PEXTMAX
 10
-1.000000000000000E+20
 20
-1.000000000000000E+20
 30
-1.000000000000000E+20
  9
$PLIMMIN
 10
0.0
 20
0.0
  9
$PLIMMAX
 10
0.0
 20
0.0
  9
$UNITMODE
 70
     0
  9
$VISRETAIN
 70
     1
  9
$PLINEGEN
 70
     0
  9
$PSLTSCALE
 70
     1
  9
$TREEDEPTH
 70
  3020
  9
$CMLSTYLE
  2
Standard
  9
$CMLJUST
 70
     0
  9
$CMLSCALE
 40
1.0
  9
$PROXYGRAPHICS
 70
     1
  9
$MEASUREMENT
 70
     0
  9
$CELWEIGHT
370
    -1
  9
$ENDCAPS
280
     0
  9
$JOINSTYLE
280
     0
  9
$LWDISPLAY
290
     0
  9
$INSUNITS
 70
     0
  9
$HYPERLINKBASE
  1

  9
$STYLESHEET
  1

  9
$XEDIT
290
     1
  9
$CEPSNTYPE
380
     0
  9
$PSTYLEMODE
290
     1
  9
$FINGERPRINTGUID
  2
{E9C64971-F899-2CA4-8DF5-C5499C6C20FC}
  9
$VERSIONGUID
  2
{FAEB1C32-E019-11D5-929B-00C0DF256EC4}
  9
$EXTNAMES
290
     1
  9
$PSVPSCALE
 40
0.0
  9
$OLESTARTUP
290
     0
  0
ENDSEC
  0
SECTION
  2
CLASSES
  0
CLASS
  1
ACDBDICTIONARYWDFLT
  2
AcDbDictionaryWithDefault
  3
ObjectDBX Classes
 90
        0
280
     0
281
     0
  0
CLASS
  1
SCALE
  2
AcDbScale
  3
ObjectDBX Classes
 90
     1153
280
     0
281
     0
  0
CLASS
  1
VISUALSTYLE
  2
AcDbVisualStyle
  3
ObjectDBX Classes
 90
     4095
280
     0
281
     0
  0
CLASS
  1
MATERIAL
  2
AcDbMaterial
  3
ObjectDBX Classes
 90
     1153
280
     0
281
     0
  0
CLASS
  1
TABLESTYLE
  2
AcDbTableStyle
  3
ObjectDBX Classes
 90
     4095
280
     0
281
     0
  0
CLASS
  1
SUN
  2
AcDbSun
  3
SCENEOE
 90
     1153
280
     0
281
     0
  0
CLASS
  1
RASTERVARIABLES
  2
AcDbRasterVariables
  3
ISM
 90
        0
280
     0
281
     0
  0
CLASS
  1
ACDBPLACEHOLDER
  2
AcDbPlaceHolder
  3
ObjectDBX Classes
 90
        0
280
     0
281
     0
  0
CLASS
  1
LAYOUT
  2
AcDbLayout
  3
ObjectDBX Classes
 90
        0
280
     0
281
     0
  0
ENDSEC
  0
SECTION
  2
TABLES
  0
TABLE
  2
VPORT
  5
8
330
0
100
AcDbSymbolTable
 70
     1
  0
VPORT
  5
29F
330
8
100
AcDbSymbolTableRecord
100
AcDbViewportTableRecord
  2
*Active
 70
     0
 10
0.0
 20
0.0
 11
1.0
 21
1.0
 12
326.6690937317782
 22
153.4591656880876
 13
0.0
 23
0.0
 14
0.5
 24
0.5
 15
0.5
 25
0.5
 16
0.0
 26
0.0
 36
1.0
 17
0.0
 27
0.0
 37
0.0
 40
594.6949696886976
 41
1.65748502994012
 42
50.0
 43
0.0
 44
0.0
 50
0.0
 51
0.0
 71
    16
 72
   100
 73
     1
 74
     3
 75
     1
 76
     1
 77
     0
 78
     0
281
     0
 65
     1
110
0.0
120
0.0
130
0.0
111
1.0
121
0.0
131
0.0
112
0.0
122
1.0
132
0.0
 79
     0
146
0.0
  0
ENDTAB
  0
TABLE
  2
LTYPE
  5
5
330
0
100
AcDbSymbolTable
 70
     1
  0
LTYPE
  5
14
330
5
100
AcDbSymbolTableRecord
100
AcDbLinetypeTableRecord
  2
ByBlock
 70
     0
  3

 72
    65
 73
     0
 40
0.0
  0
LTYPE
  5
15
330
5
100
AcDbSymbolTableRecord
100
AcDbLinetypeTableRecord
  2
ByLayer
 70
     0
  3

 72
    65
 73
     0
 40
0.0
  0
LTYPE
  5
16
330
5
100
AcDbSymbolTableRecord
100
AcDbLinetypeTableRecord
  2
Continuous
 70
     0
  3
Solid line
 72
    65
 73
     0
 40
0.0
  0
ENDTAB
  0
TABLE
  2
LAYER
  5
2
330
0
100
AcDbSymbolTable
 70
     2
  0
LAYER
  5
10
330
2
100
AcDbSymbolTableRecord
100
AcDbLayerTableRecord
  2
0
 70
     0
 62
     7
  6
Continuous
370
    -3
390
F
  0
LAYER
  5
2A0
330
2
100
AcDbSymbolTableRecord
100
AcDbLayerTableRecord
  2
Layer0
 70
     0
 62
     7
  6
Continuous
370
    -3
390
F
  0
ENDTAB
  0
TABLE
  2
STYLE
  5
3
330
0
100
AcDbSymbolTable
 70
     1
  0
STYLE
  5
11
330
3
100
AcDbSymbolTableRecord
100
AcDbTextStyleTableRecord
  2
Standard
 70
     0
 40
0.0
 41
1.0
 50
0.0
 71
     0
 42
0.2
  3
txt
  4

  0
ENDTAB
  0
TABLE
  2
VIEW
  5
6
330
0
100
AcDbSymbolTable
 70
     0
  0
ENDTAB
  0
TABLE
  2
UCS
  5
7
330
0
100
AcDbSymbolTable
 70
     0
  0
ENDTAB
  0
TABLE
  2
APPID
  5
9
330
0
100
AcDbSymbolTable
 70
     1
  0
APPID
  5
12
330
9
100
AcDbSymbolTableRecord
100
AcDbRegAppTableRecord
  2
ACAD
 70
     0
  0
ENDTAB
  0
TABLE
  2
DIMSTYLE
  5
A
330
0
100
AcDbSymbolTable
 70
     1
100
AcDbDimStyleTable
  0
DIMSTYLE
105
20
330
A
100
AcDbSymbolTableRecord
100
AcDbDimStyleTableRecord
  2
Standard
 70
     0
178
     0
340
11
  0
ENDTAB
  0
TABLE
  2
BLOCK_RECORD
  5
1
330
0
100
AcDbSymbolTable
 70
     0
  0
BLOCK_RECORD
  5
1D
330
1
100
AcDbSymbolTableRecord
100
AcDbBlockTableRecord
  2
*Model_Space
340
1E
  0
BLOCK_RECORD
  5
1B
330
1
100
AcDbSymbolTableRecord
100
AcDbBlockTableRecord
  2
*Paper_Space
340
1C
  0
ENDTAB
  0
ENDSEC
  0
SECTION
  2
BLOCKS
  0
BLOCK
  5
2C3
330
1D
100
AcDbEntity
  8
0
100
AcDbBlockBegin
  2
*Model_Space
 70
     0
 10
0.0
 20
0.0
 30
0.0
  3
*Model_Space
  1
*Model_Space
  0
ENDBLK
  5
2C4
330
1D
100
AcDbEntity
  8
0
100
AcDbBlockEnd
  0
BLOCK
  5
2C5
330
1B
100
AcDbEntity
 67
     1
  8
0
100
AcDbBlockBegin
  2
*Paper_Space
 70
     0
 10
0.0
 20
0.0
 30
0.0
  3
*Paper_Space
  1
*Paper_Space
  0
ENDBLK
  5
2C6
330
1B
100
AcDbEntity
 67
     1
  8
0
100
AcDbBlockEnd
  0
ENDSEC
  0
SECTION
  2
ENTITIES
  0
POLYLINE
  5
21
330
1D
100
AcDbEntity
  8
Layer0
100
AcDbPolyFaceMesh
 66
     1
 10
0.0
 20
0.0
 30
0.0
 70
    64
 71
   306
 72
   330
  0
VERTEX
  5
22
330
21
100
AcDbEntity
  8
Layer0
100
AcDbVertex
100
AcDbPolyFaceMeshVertex
 10
24.999998599761
 20
361.1822747976362
 30
-0.0000068849190029
 70
   192
  0
VERTEX
  5
23
330
21
100
AcDbEntity
  8
Layer0
100
AcDbVertex
100
AcDbPolyFaceMeshVertex
 10
190.568146743355
 20
409.4823658949752
 30
-0.0000122309519952
 70
   192
  0
VERTEX
  5
24
330
21
100
AcDbEntity
  8
Layer0
100
AcDbVertex
100
AcDbPolyFaceMeshVertex
 10
190.499998386752
 20
410.0000039839712
 30
-0.0000122496750237
 70
   192
  0
VERTEX
  5
25
330
21
100
AcDbEntity
  8
Layer0
100
AcDbVertex
100
AcDbPolyFaceMeshVertex
 10
190.767947596922
 20
409.0000039887252
 30
-0.0000122114500414
 70
   192
  0
VERTEX
  5
26
330
21
100
AcDbEntity
  8
Layer0
100
AcDbVertex
100
AcDbPolyFaceMeshVertex
 10
191.085784849464
 20
408.5857904319892
 30
-0.0000121924900327
 70
   192
  0
VERTEX
  5
27
330
21
100
AcDbEntity
  8
Layer0
100
AcDbVertex
100
AcDbPolyFaceMeshVertex
 10
191.499998417476
 20
408.2679531941402
 30
-0.0000121753620306
 70
   192
  0
VERTEX
  5
28
330
21
100
AcDbEntity
  8
Layer0
100
AcDbVertex
100
AcDbPolyFaceMeshVertex
 10
191.982360330814
 20
408.0681523576872
 30
-0.0000121612459907
 70
   192
  0
VERTEX
  5
29
330
21
100
AcDbEntity
  8
Layer0
100
AcDbVertex
100
AcDbPolyFaceMeshVertex
 10
359.982273698996
 20
361.1822807396252
 30
-0.0000018242120063
 70
   192
  0
VERTEX
  5
2A
330
21
100
AcDbEntity
  8
Layer0
100
AcDbVertex
100
AcDbPolyFaceMeshVertex
 10
192.499998422229
 20
408.0000040194472
 30
-0.0000121510969961
 70
   192
  0
VERTEX
  5
2B
330
21
100
AcDbEntity
  8
Layer0
100
AcDbVertex
100
AcDbPolyFaceMeshVertex
 10
193.017636511224
 20
408.0681523760512
 30
-0.0000121456100146
 70
   192
  0
VERTEX
  5
2C
330
21
100
AcDbEntity
  8
Layer0
100
AcDbVertex
100
AcDbPolyFaceMeshVertex
 10
193.499998417476
 20
408.2679532296172
 30
-0.0000121451529935
 70
   192
  0
VERTEX
  5
2D
330
21
100
AcDbEntity
  8
Layer0
100
AcDbVertex
100
AcDbPolyFaceMeshVertex
 10
193.914211974211
 20
408.5857904821602
 30
-0.0000121497550367
 70
   192
  0
VERTEX
  5
2E
330
21
100
AcDbEntity
  8
Layer0
100
AcDbVertex
100
AcDbPolyFaceMeshVertex
 10
194.23204921206
 20
409.0000040501712
 30
-0.0000121591120319
 70
   192
  0
VERTEX
  5
2F
330
21
100
AcDbEntity
  8
Layer0
100
AcDbVertex
100
AcDbPolyFaceMeshVertex
 10
194.431850048514
 20
409.4823659635102
 30
-0.0000121725810232
 70
   192
  0
VERTEX
  5
30
330
21
100
AcDbEntity
  8
Layer0
100
AcDbVertex
100
AcDbPolyFaceMeshVertex
 10
194.499998386754
 20
410.0000040549242
 30
-0.0000121892500147
 70
   192
  0
VERTEX
  5
31
330
21
100
AcDbEntity
  8
Layer0
100
AcDbVertex
100
AcDbPolyFaceMeshVertex
 10
25.00000392477398
 20
60.9822747976359
 30
0.0000031523849771
 70
   192
  0
VERTEX
  5
32
330
21
100
AcDbEntity
  8
Layer0
100
AcDbVertex
100
AcDbPolyFaceMeshVertex
 10
191.982361698142
 20
11.9318550579995
 30
-0.0000042831100018
 70
   192
  0
VERTEX
  5
33
330
21
100
AcDbEntity
  8
Layer0
100
AcDbVertex
100
AcDbPolyFaceMeshVertex
 10
359.9822790240099
 20
60.9822807396241
 30
0.0000082130929968
 70
   192
  0
VERTEX
  5
34
330
21
100
AcDbEntity
  8
Layer0
100
AcDbVertex
100
AcDbPolyFaceMeshVertex
 10
191.499999791892
 20
11.7320542044341
 30
-0.0000042835679892
 70
   192
  0
VERTEX
  5
35
330
21
100
AcDbEntity
  8
Layer0
100
AcDbVertex
100
AcDbPolyFaceMeshVertex
 10
191.085786235156
 20
11.4142169518904
 30
-0.000004278967026
 70
   192
  0
VERTEX
  5
36
330
21
100
AcDbEntity
  8
Layer0
100
AcDbVertex
100
AcDbPolyFaceMeshVertex
 10
190.767948997308
 20
11.00000338388
 30
-0.0000042696100309
 70
   192
  0
VERTEX
  5
37
330
21
100
AcDbEntity
  8
Layer0
100
AcDbVertex
100
AcDbPolyFaceMeshVertex
 10
190.568148160855
 20
10.51764147054021
 30
-0.0000042561360374
 70
   192
  0
VERTEX
  5
38
330
21
100
AcDbEntity
  8
Layer0
100
AcDbVertex
100
AcDbPolyFaceMeshVertex
 10
190.499999822615
 20
10.0000033791271
 30
-0.0000042394710249
 70
   192
  0
VERTEX
  5
39
330
21
100
AcDbEntity
  8
Layer0
100
AcDbVertex
100
AcDbPolyFaceMeshVertex
 10
192.499999787138
 20
12.0000034146028
 30
-0.0000042776210307
 70
   192
  0
VERTEX
  5
3A
330
21
100
AcDbEntity
  8
Layer0
100
AcDbVertex
100
AcDbPolyFaceMeshVertex
 10
193.017637878552
 20
11.9318550763631
 30
-0.000004267474992
 70
   192
  0
VERTEX
  5
3B
330
21
100
AcDbEntity
  8
Layer0
100
AcDbVertex
100
AcDbPolyFaceMeshVertex
 10
193.499999791892
 20
11.7320542399106
 30
-0.0000042533580427
 70
   192
  0
VERTEX
  5
3C
330
21
100
AcDbEntity
  8
Layer0
100
AcDbVertex
100
AcDbPolyFaceMeshVertex
 10
193.914213359902
 20
11.4142170020621
 30
-0.0000042362320301
 70
   192
  0
VERTEX
  5
3D
330
21
100
AcDbEntity
  8
Layer0
100
AcDbVertex
100
AcDbPolyFaceMeshVertex
 10
194.232050612445
 20
11.0000034453271
 30
-0.0000042172720214
 70
   192
  0
VERTEX
  5
3E
330
21
100
AcDbEntity
  8
Layer0
100
AcDbVertex
100
AcDbPolyFaceMeshVertex
 10
194.431851466013
 20
10.5176415390763
 30
-0.0000041977660317
 70
   192
  0
VERTEX
  5
3F
330
21
100
AcDbEntity
  8
Layer0
100
AcDbVertex
100
AcDbPolyFaceMeshVertex
 10
194.499999822616
 20
10.0000034500794
 30
-0.0000041790470391
 70
   192
  0
VERTEX
  5
40
330
21
100
AcDbEntity
  8
Layer0
100
AcDbVertex
100
AcDbPolyFaceMeshVertex
 10
2.142135446347993
 20
10.0000000379978
 30
-0.0000003094550038
 70
   192
  0
VERTEX
  5
41
330
21
100
AcDbEntity
  8
Layer0
100
AcDbVertex
100
AcDbPolyFaceMeshVertex
 10
2.210282367089007
 20
409.4823625538432
 30
-0.0000083009369973
 70
   192
  0
VERTEX
  5
42
330
21
100
AcDbEntity
  8
Layer0
100
AcDbVertex
100
AcDbPolyFaceMeshVertex
 10
2.142134010485961
 20
410.0000006428402
 30
-0.0000083196609921
 70
   192
  0
VERTEX
  5
43
330
21
100
AcDbEntity
  8
Layer0
100
AcDbVertex
100
AcDbPolyFaceMeshVertex
 10
2.210283784588967
 20
10.5176381294111
 30
-0.0000003261180268
 70
   192
  0
VERTEX
  5
44
330
21
100
AcDbEntity
  8
Layer0
100
AcDbVertex
100
AcDbPolyFaceMeshVertex
 10
2.410083220654997
 20
409.0000006475942
 30
-0.0000082814350435
 70
   192
  0
VERTEX
  5
45
330
21
100
AcDbEntity
  8
Layer0
100
AcDbVertex
100
AcDbPolyFaceMeshVertex
 10
2.41008462104196
 20
11.0000000427507
 30
-0.0000003395930435
 70
   192
  0
VERTEX
  5
46
330
21
100
AcDbEntity
  8
Layer0
100
AcDbVertex
100
AcDbPolyFaceMeshVertex
 10
2.727920473197969
 20
408.5857870908582
 30
-0.0000082624750348
 70
   192
  0
VERTEX
  5
47
330
21
100
AcDbEntity
  8
Layer0
100
AcDbVertex
100
AcDbPolyFaceMeshVertex
 10
2.727921858889999
 20
11.414213610761
 30
-0.0000003489500386
 70
   192
  0
VERTEX
  5
48
330
21
100
AcDbEntity
  8
Layer0
100
AcDbVertex
100
AcDbPolyFaceMeshVertex
 10
3.142134041208976
 20
408.2679498530102
 30
-0.000008245347999
 70
   192
  0
VERTEX
  5
49
330
21
100
AcDbEntity
  8
Layer0
100
AcDbVertex
100
AcDbPolyFaceMeshVertex
 10
3.142135415624978
 20
11.7320508633042
 30
-0.000000353552025
 70
   192
  0
VERTEX
  5
4A
330
21
100
AcDbEntity
  8
Layer0
100
AcDbVertex
100
AcDbPolyFaceMeshVertex
 10
3.624495954547967
 20
408.0681490165562
 30
-0.0000082312309928
 70
   192
  0
VERTEX
  5
4B
330
21
100
AcDbEntity
  8
Layer0
100
AcDbVertex
100
AcDbPolyFaceMeshVertex
 10
3.624497321875992
 20
11.9318517168697
 30
-0.0000003530930144
 70
   192
  0
VERTEX
  5
4C
330
21
100
AcDbEntity
  8
Layer0
100
AcDbVertex
100
AcDbPolyFaceMeshVertex
 10
4.142134045961996
 20
408.0000006783162
 30
-0.0000082210819983
 70
   192
  0
VERTEX
  5
4D
330
21
100
AcDbEntity
  8
Layer0
100
AcDbVertex
100
AcDbPolyFaceMeshVertex
 10
4.142135410871958
 20
12.0000000734735
 30
-0.0000003476030201
 70
   192
  0
VERTEX
  5
4E
330
21
100
AcDbEntity
  8
Layer0
100
AcDbVertex
100
AcDbPolyFaceMeshVertex
 10
4.659772134957961
 20
408.0681490349202
 30
-0.0000082155960399
 70
   192
  0
VERTEX
  5
4F
330
21
100
AcDbEntity
  8
Layer0
100
AcDbVertex
100
AcDbPolyFaceMeshVertex
 10
4.659773502285987
 20
11.9318517352332
 30
-0.0000003374590278
 70
   192
  0
VERTEX
  5
50
330
21
100
AcDbEntity
  8
Layer0
100
AcDbVertex
100
AcDbPolyFaceMeshVertex
 10
4.999998954526006
 20
341.1822744428712
 30
-0.0000065034340082
 70
   192
  0
VERTEX
  5
51
330
21
100
AcDbEntity
  8
Layer0
100
AcDbVertex
100
AcDbPolyFaceMeshVertex
 10
5.142134041209999
 20
408.2679498884862
 30
-0.0000082151340166
 70
   192
  0
VERTEX
  5
52
330
21
100
AcDbEntity
  8
Layer0
100
AcDbVertex
100
AcDbPolyFaceMeshVertex
 10
5.556347597944978
 20
408.5857871410292
 30
-0.0000082197400388
 70
   192
  0
VERTEX
  5
53
330
21
100
AcDbEntity
  8
Layer0
100
AcDbVertex
100
AcDbPolyFaceMeshVertex
 10
5.87418483579296
 20
409.0000007090412
 30
-0.000008229097034
 70
   192
  0
VERTEX
  5
54
330
21
100
AcDbEntity
  8
Layer0
100
AcDbVertex
100
AcDbPolyFaceMeshVertex
 10
6.073985672245954
 20
409.4823626223792
 30
-0.0000082425660253
 70
   192
  0
VERTEX
  5
55
330
21
100
AcDbEntity
  8
Layer0
100
AcDbVertex
100
AcDbPolyFaceMeshVertex
 10
6.142134010485961
 20
410.0000007137922
 30
-0.0000082592350168
 70
   192
  0
VERTEX
  5
56
330
21
100
AcDbEntity
  8
Layer0
100
AcDbVertex
100
AcDbPolyFaceMeshVertex
 10
5.000003570009994
 20
80.9822744428715
 30
0.0000021666049861
 70
   192
  0
VERTEX
  5
57
330
21
100
AcDbEntity
  8
Layer0
100
AcDbVertex
100
AcDbPolyFaceMeshVertex
 10
5.142135415624978
 20
11.73205089878
 30
-0.0000003233370194
 70
   192
  0
VERTEX
  5
58
330
21
100
AcDbEntity
  8
Layer0
100
AcDbVertex
100
AcDbPolyFaceMeshVertex
 10
5.556348983635985
 20
11.4142136609323
 30
-0.0000003062150427
 70
   192
  0
VERTEX
  5
59
330
21
100
AcDbEntity
  8
Layer0
100
AcDbVertex
100
AcDbPolyFaceMeshVertex
 10
5.874186236178957
 20
11.0000001041971
 30
-0.0000002872540108
 70
   192
  0
VERTEX
  5
5A
330
21
100
AcDbEntity
  8
Layer0
100
AcDbVertex
100
AcDbPolyFaceMeshVertex
 10
6.073987089745003
 20
10.5176381979471
 30
-0.0000002677480211
 70
   192
  0
VERTEX
  5
5B
330
21
100
AcDbEntity
  8
Layer0
100
AcDbVertex
100
AcDbPolyFaceMeshVertex
 10
6.142135446348959
 20
10.0000001089501
 30
-0.0000002490290285
 70
   192
  0
VERTEX
  5
5C
330
21
100
AcDbEntity
  8
Layer0
100
AcDbVertex
100
AcDbPolyFaceMeshVertex
 10
-32.00000100762401
 20
375.8578644134892
 30
-0.0000076684290207
 70
   192
  0
VERTEX
  5
5D
330
21
100
AcDbEntity
  8
Layer0
100
AcDbVertex
100
AcDbPolyFaceMeshVertex
 10
-31.99999806560103
 20
209.9999997347982
 30
-0.0000020006110049
 70
   192
  0
VERTEX
  5
5E
330
21
100
AcDbEntity
  8
Layer0
100
AcDbVertex
100
AcDbPolyFaceMeshVertex
 10
-31.93185265102002
 20
375.3402263244932
 30
-0.0000076497000236
 70
   192
  0
VERTEX
  5
5F
330
21
100
AcDbEntity
  8
Layer0
100
AcDbVertex
100
AcDbPolyFaceMeshVertex
 10
-32.00000078300303
 20
44.1421350561057
 30
-0.0000019922920274
 70
   192
  0
VERTEX
  5
60
330
21
100
AcDbEntity
  8
Layer0
100
AcDbVertex
100
AcDbPolyFaceMeshVertex
 10
-31.93184972736202
 20
210.5176378262122
 30
-0.0000020172710151
 70
   192
  0
VERTEX
  5
61
330
21
100
AcDbEntity
  8
Layer0
100
AcDbVertex
100
AcDbPolyFaceMeshVertex
 10
-31.73205179745503
 20
374.8578644182412
 30
-0.0000076301950003
 70
   192
  0
VERTEX
  5
62
330
21
100
AcDbEntity
  8
Layer0
100
AcDbVertex
100
AcDbPolyFaceMeshVertex
 10
-31.73204889090903
 20
210.9999997395512
 30
-0.0000020307400064
 70
   192
  0
VERTEX
  5
63
330
21
100
AcDbEntity
  8
Layer0
100
AcDbVertex
100
AcDbPolyFaceMeshVertex
 10
-31.41421454491203
 20
374.4436508615072
 30
-0.0000076112340253
 70
   192
  0
VERTEX
  5
64
330
21
100
AcDbEntity
  8
Layer0
100
AcDbVertex
100
AcDbPolyFaceMeshVertex
 10
-31.41421165306002
 20
211.4142133075612
 30
-0.0000020400970016
 70
   192
  0
VERTEX
  5
65
330
21
100
AcDbEntity
  8
Layer0
100
AcDbVertex
100
AcDbPolyFaceMeshVertex
 10
-31.00000097690102
 20
374.1258136236582
 30
-0.0000075941130149
 70
   192
  0
VERTEX
  5
66
330
21
100
AcDbEntity
  8
Layer0
100
AcDbVertex
100
AcDbPolyFaceMeshVertex
 10
-30.99999809632502
 20
211.7320505601052
 30
-0.0000020447039901
 70
   192
  0
VERTEX
  5
67
330
21
100
AcDbEntity
  8
Layer0
100
AcDbVertex
100
AcDbPolyFaceMeshVertex
 10
-30.51763906356203
 20
373.9260127872062
 30
-0.0000075800000445
 70
   192
  0
VERTEX
  5
68
330
21
100
AcDbEntity
  8
Layer0
100
AcDbVertex
100
AcDbPolyFaceMeshVertex
 10
-30.51763619007403
 20
211.9318514136712
 30
-0.0000020442500386
 70
   192
  0
VERTEX
  5
69
330
21
100
AcDbEntity
  8
Layer0
100
AcDbVertex
100
AcDbPolyFaceMeshVertex
 10
-30.00000097214803
 20
373.8578644489662
 30
-0.0000075698470141
 70
   192
  0
VERTEX
  5
6A
330
21
100
AcDbEntity
  8
Layer0
100
AcDbVertex
100
AcDbPolyFaceMeshVertex
 10
-29.99999810107801
 20
211.9999997702742
 30
-0.0000020387550421
 70
   192
  0
VERTEX
  5
6B
330
21
100
AcDbEntity
  8
Layer0
100
AcDbVertex
100
AcDbPolyFaceMeshVertex
 10
-29.48236288315201
 20
373.9260128055692
 30
-0.0000075643559967
 70
   192
  0
VERTEX
  5
6C
330
21
100
AcDbEntity
  8
Layer0
100
AcDbVertex
100
AcDbPolyFaceMeshVertex
 10
-29.48236000966401
 20
211.9318514320342
 30
-0.0000020286050244
 70
   192
  0
VERTEX
  5
6D
330
21
100
AcDbEntity
  8
Layer0
100
AcDbVertex
100
AcDbPolyFaceMeshVertex
 10
-29.00000097690102
 20
374.1258136591352
 30
-0.0000075638980093
 70
   192
  0
VERTEX
  5
6E
330
21
100
AcDbEntity
  8
Layer0
100
AcDbVertex
100
AcDbPolyFaceMeshVertex
 10
-28.99999809632502
 20
211.7320505955822
 30
-0.0000020144890414
 70
   192
  0
VERTEX
  5
6F
330
21
100
AcDbEntity
  8
Layer0
100
AcDbVertex
100
AcDbPolyFaceMeshVertex
 10
-28.58578742016601
 20
374.4436509116782
 30
-0.0000075685090337
 70
   192
  0
VERTEX
  5
70
330
21
100
AcDbEntity
  8
Layer0
100
AcDbVertex
100
AcDbPolyFaceMeshVertex
 10
-28.58578452831401
 20
211.4142133577332
 30
-0.0000019973710437
 70
   192
  0
VERTEX
  5
71
330
21
100
AcDbEntity
  8
Layer0
100
AcDbVertex
100
AcDbPolyFaceMeshVertex
 10
-28.26795018231701
 20
374.8578644796892
 30
-0.0000075778650057
 70
   192
  0
VERTEX
  5
72
330
21
100
AcDbEntity
  8
Layer0
100
AcDbVertex
100
AcDbPolyFaceMeshVertex
 10
-28.26794727577101
 20
210.9999998009982
 30
-0.000001978411035
 70
   192
  0
VERTEX
  5
73
330
21
100
AcDbEntity
  8
Layer0
100
AcDbVertex
100
AcDbPolyFaceMeshVertex
 10
-28.06814934586401
 20
375.3402263930282
 30
-0.0000075913310411
 70
   192
  0
VERTEX
  5
74
330
21
100
AcDbEntity
  8
Layer0
100
AcDbVertex
100
AcDbPolyFaceMeshVertex
 10
-28.06814642220502
 20
210.5176378947472
 30
-0.0000019589010094
 70
   192
  0
VERTEX
  5
75
330
21
100
AcDbEntity
  8
Layer0
100
AcDbVertex
100
AcDbPolyFaceMeshVertex
 10
-28.00000100762401
 20
375.8578644844422
 30
-0.0000076079940072
 70
   192
  0
VERTEX
  5
76
330
21
100
AcDbEntity
  8
Layer0
100
AcDbVertex
100
AcDbPolyFaceMeshVertex
 10
-27.99999806560103
 20
209.9999998057512
 30
-0.0000019401770146
 70
   192
  0
VERTEX
  5
77
330
21
100
AcDbEntity
  8
Layer0
100
AcDbVertex
100
AcDbPolyFaceMeshVertex
 10
-40.00000108109802
 20
379.9999998953142
 30
-0.0000079308690033
 70
   192
  0
VERTEX
  5
78
330
21
100
AcDbEntity
  8
Layer0
100
AcDbVertex
100
AcDbPolyFaceMeshVertex
 10
-31.73205183293101
 20
376.8578644182412
 30
-0.000007698556999
 70
   192
  0
VERTEX
  5
79
330
21
100
AcDbEntity
  8
Layer0
100
AcDbVertex
100
AcDbPolyFaceMeshVertex
 10
-0.0000017906270386
 20
420.0000006048432
 30
-0.0000086938389927
 70
   192
  0
VERTEX
  5
7A
330
21
100
AcDbEntity
  8
Layer0
100
AcDbVertex
100
AcDbPolyFaceMeshVertex
 10
-31.93185266938303
 20
376.3755025049032
 30
-0.0000076850880077
 70
   192
  0
VERTEX
  5
7B
330
21
100
AcDbEntity
  8
Layer0
100
AcDbVertex
100
AcDbPolyFaceMeshVertex
 10
-40.00000070952902
 20
39.99999929047029
 30
-0.0000019715610051
 70
   192
  0
VERTEX
  5
7C
330
21
100
AcDbEntity
  8
Layer0
100
AcDbVertex
100
AcDbPolyFaceMeshVertex
 10
-31.41421459508302
 20
377.2720779862532
 30
-0.0000077079150174
 70
   192
  0
VERTEX
  5
7D
330
21
100
AcDbEntity
  8
Layer0
100
AcDbVertex
100
AcDbPolyFaceMeshVertex
 10
-31.00000103834802
 20
377.5899152387962
 30
-0.0000077125220059
 70
   192
  0
VERTEX
  5
7E
330
21
100
AcDbEntity
  8
Layer0
100
AcDbVertex
100
AcDbPolyFaceMeshVertex
 10
-30.51763913209703
 20
377.7897160923622
 30
-0.0000077120679975
 70
   192
  0
VERTEX
  5
7F
330
21
100
AcDbEntity
  8
Layer0
100
AcDbVertex
100
AcDbPolyFaceMeshVertex
 10
-30.00000104310101
 20
377.8578644489662
 30
-0.0000077065730011
 70
   192
  0
VERTEX
  5
80
330
21
100
AcDbEntity
  8
Layer0
100
AcDbVertex
100
AcDbPolyFaceMeshVertex
 10
-29.48236295168701
 20
377.7897161107252
 30
-0.0000076964230402
 70
   192
  0
VERTEX
  5
81
330
21
100
AcDbEntity
  8
Layer0
100
AcDbVertex
100
AcDbPolyFaceMeshVertex
 10
-29.00000103834802
 20
377.5899152742732
 30
-0.0000076823070003
 70
   192
  0
VERTEX
  5
82
330
21
100
AcDbEntity
  8
Layer0
100
AcDbVertex
100
AcDbPolyFaceMeshVertex
 10
-28.58578747033701
 20
377.2720780364252
 30
-0.0000076651890026
 70
   192
  0
VERTEX
  5
83
330
21
100
AcDbEntity
  8
Layer0
100
AcDbVertex
100
AcDbPolyFaceMeshVertex
 10
-28.26795021779301
 20
376.8578644796892
 30
-0.0000076462280276
 70
   192
  0
VERTEX
  5
84
330
21
100
AcDbEntity
  8
Layer0
100
AcDbVertex
100
AcDbPolyFaceMeshVertex
 10
-28.06814936422703
 20
376.3755025734372
 30
-0.000007626718002
 70
   192
  0
VERTEX
  5
85
330
21
100
AcDbEntity
  8
Layer0
100
AcDbVertex
100
AcDbPolyFaceMeshVertex
 10
-31.93185244476302
 20
44.65977314752028
 30
-0.0000020089510144
 70
   192
  0
VERTEX
  5
86
330
21
100
AcDbEntity
  8
Layer0
100
AcDbVertex
100
AcDbPolyFaceMeshVertex
 10
-31.93184970899802
 20
209.4823616458022
 30
-0.000001981883031
 70
   192
  0
VERTEX
  5
87
330
21
100
AcDbEntity
  8
Layer0
100
AcDbVertex
100
AcDbPolyFaceMeshVertex
 10
-31.73205160831003
 20
45.14213506085876
 30
-0.0000020224210289
 70
   192
  0
VERTEX
  5
88
330
21
100
AcDbEntity
  8
Layer0
100
AcDbVertex
100
AcDbPolyFaceMeshVertex
 10
-31.73204885543103
 20
208.9999997395512
 30
-0.0000019623770413
 70
   192
  0
VERTEX
  5
89
330
21
100
AcDbEntity
  8
Layer0
100
AcDbVertex
100
AcDbPolyFaceMeshVertex
 10
-31.41421437046102
 20
45.55634862887057
 30
-0.0000020317770009
 70
   192
  0
VERTEX
  5
8A
330
21
100
AcDbEntity
  8
Layer0
100
AcDbVertex
100
AcDbPolyFaceMeshVertex
 10
-31.41421160288903
 20
208.5857861828152
 30
-0.0000019434160095
 70
   192
  0
VERTEX
  5
8B
330
21
100
AcDbEntity
  8
Layer0
100
AcDbVertex
100
AcDbPolyFaceMeshVertex
 10
-31.00000081372602
 20
45.87418588141373
 30
-0.0000020363850126
 70
   192
  0
VERTEX
  5
8C
330
21
100
AcDbEntity
  8
Layer0
100
AcDbVertex
100
AcDbPolyFaceMeshVertex
 10
-30.99999803487702
 20
208.2679489449672
 30
-0.0000019262949991
 70
   192
  0
VERTEX
  5
8D
330
21
100
AcDbEntity
  8
Layer0
100
AcDbVertex
100
AcDbPolyFaceMeshVertex
 10
-30.51763890747503
 20
46.07398673497913
 30
-0.0000020359300379
 70
   192
  0
VERTEX
  5
8E
330
21
100
AcDbEntity
  8
Layer0
100
AcDbVertex
100
AcDbPolyFaceMeshVertex
 10
-30.51763612153903
 20
208.0681481085152
 30
-0.0000019121820287
 70
   192
  0
VERTEX
  5
8F
330
21
100
AcDbEntity
  8
Layer0
100
AcDbVertex
100
AcDbPolyFaceMeshVertex
 10
-30.00000081847801
 20
46.14213509158309
 30
-0.0000020304360078
 70
   192
  0
VERTEX
  5
90
330
21
100
AcDbEntity
  8
Layer0
100
AcDbVertex
100
AcDbPolyFaceMeshVertex
 10
-29.99999803012503
 20
207.9999997702742
 30
-0.0000019020289983
 70
   192
  0
VERTEX
  5
91
330
21
100
AcDbEntity
  8
Layer0
100
AcDbVertex
100
AcDbPolyFaceMeshVertex
 10
-29.48236272706501
 20
46.07398675334234
 30
-0.0000020202850237
 70
   192
  0
VERTEX
  5
92
330
21
100
AcDbEntity
  8
Layer0
100
AcDbVertex
100
AcDbPolyFaceMeshVertex
 10
-29.48235994112903
 20
208.0681481268782
 30
-0.0000018965370145
 70
   192
  0
VERTEX
  5
93
330
21
100
AcDbEntity
  8
Layer0
100
AcDbVertex
100
AcDbPolyFaceMeshVertex
 10
-29.00000081372602
 20
45.87418591689018
 30
-0.0000020061690407
 70
   192
  0
VERTEX
  5
94
330
21
100
AcDbEntity
  8
Layer0
100
AcDbVertex
100
AcDbPolyFaceMeshVertex
 10
-28.99999803487702
 20
208.2679489804442
 30
-0.0000018960799935
 70
   192
  0
VERTEX
  5
95
330
21
100
AcDbEntity
  8
Layer0
100
AcDbVertex
100
AcDbPolyFaceMeshVertex
 10
-28.58578724571501
 20
45.55634867904184
 30
-0.0000019890520093
 70
   192
  0
VERTEX
  5
96
330
21
100
AcDbEntity
  8
Layer0
100
AcDbVertex
100
AcDbPolyFaceMeshVertex
 10
-28.58578447814202
 20
208.5857862329862
 30
-0.0000019006910179
 70
   192
  0
VERTEX
  5
97
330
21
100
AcDbEntity
  8
Layer0
100
AcDbVertex
100
AcDbPolyFaceMeshVertex
 10
-28.26794999317201
 20
45.14213512230664
 30
-0.0000019700910343
 70
   192
  0
VERTEX
  5
98
330
21
100
AcDbEntity
  8
Layer0
100
AcDbVertex
100
AcDbPolyFaceMeshVertex
 10
-28.26794724029301
 20
208.9999998009982
 30
-0.0000019100469899
 70
   192
  0
VERTEX
  5
99
330
21
100
AcDbEntity
  8
Layer0
100
AcDbVertex
100
AcDbPolyFaceMeshVertex
 10
-28.06814913960602
 20
44.65977321605481
 30
-0.0000019505810087
 70
   192
  0
VERTEX
  5
9A
330
21
100
AcDbEntity
  8
Layer0
100
AcDbVertex
100
AcDbPolyFaceMeshVertex
 10
-28.06814640384101
 20
209.4823617143372
 30
-0.0000019235130253
 70
   192
  0
VERTEX
  5
9B
330
21
100
AcDbEntity
  8
Layer0
100
AcDbVertex
100
AcDbPolyFaceMeshVertex
 10
-28.00000078300303
 20
44.14213512705926
 30
-0.0000019318570139
 70
   192
  0
VERTEX
  5
9C
330
21
100
AcDbEntity
  8
Layer0
100
AcDbVertex
100
AcDbPolyFaceMeshVertex
 10
378.867386573226
 20
9.805073890969304
 30
-0.0000010189210116
 70
   192
  0
VERTEX
  5
9D
330
21
100
AcDbEntity
  8
Layer0
100
AcDbVertex
100
AcDbPolyFaceMeshVertex
 10
379.982278669245
 20
80.9822810943882
 30
0.0000078316080021
 70
   192
  0
VERTEX
  5
9E
330
21
100
AcDbEntity
  8
Layer0
100
AcDbVertex
100
AcDbPolyFaceMeshVertex
 10
378.873875998441
 20
10.000006720544
 30
-0.0000010254860285
 70
   192
  0
VERTEX
  5
9F
330
21
100
AcDbEntity
  8
Layer0
100
AcDbVertex
100
AcDbPolyFaceMeshVertex
 10
378.8847581156909
 20
10.326889585634
 30
-0.0000010364960303
 70
   192
  0
VERTEX
  5
A0
330
21
100
AcDbEntity
  8
Layer0
100
AcDbVertex
100
AcDbPolyFaceMeshVertex
 10
379.036593577015
 20
10.8264287556426
 30
-0.0000010512770245
 70
   192
  0
VERTEX
  5
A1
330
21
100
AcDbEntity
  8
Layer0
100
AcDbVertex
100
AcDbPolyFaceMeshVertex
 10
379.312545621427
 20
11.2696486320841
 30
-0.0000010622559898
 70
   192
  0
VERTEX
  5
A2
330
21
100
AcDbEntity
  8
Layer0
100
AcDbVertex
100
AcDbPolyFaceMeshVertex
 10
379.693808573131
 20
11.6263445128343
 30
-0.0000010686940186
 70
   192
  0
VERTEX
  5
A3
330
21
100
AcDbEntity
  8
Layer0
100
AcDbVertex
100
AcDbPolyFaceMeshVertex
 10
380.15439999204
 20
11.872208163089
 30
-0.0000010701360225
 70
   192
  0
VERTEX
  5
A4
330
21
100
AcDbEntity
  8
Layer0
100
AcDbVertex
100
AcDbPolyFaceMeshVertex
 10
-31.93185242639802
 20
43.62449696711014
 30
-0.0000019735630303
 70
   192
  0
VERTEX
  5
A5
330
21
100
AcDbEntity
  8
Layer0
100
AcDbVertex
100
AcDbPolyFaceMeshVertex
 10
-31.73205157283303
 20
43.14213506085867
 30
-0.0000019540570406
 70
   192
  0
VERTEX
  5
A6
330
21
100
AcDbEntity
  8
Layer0
100
AcDbVertex
100
AcDbPolyFaceMeshVertex
 10
0.0
 20
0.0
 30
0.0
 70
   192
  0
VERTEX
  5
A7
330
21
100
AcDbEntity
  8
Layer0
100
AcDbVertex
100
AcDbPolyFaceMeshVertex
 10
-31.41421432029003
 20
42.7279215041242
 30
-0.0000019350960088
 70
   192
  0
VERTEX
  5
A8
330
21
100
AcDbEntity
  8
Layer0
100
AcDbVertex
100
AcDbPolyFaceMeshVertex
 10
-31.00000075227902
 20
42.41008426627636
 30
-0.0000019179760216
 70
   192
  0
VERTEX
  5
A9
330
21
100
AcDbEntity
  8
Layer0
100
AcDbVertex
100
AcDbPolyFaceMeshVertex
 10
-30.51763883893901
 20
42.21028342982315
 30
-0.000001903862028
 70
   192
  0
VERTEX
  5
AA
330
21
100
AcDbEntity
  8
Layer0
100
AcDbVertex
100
AcDbPolyFaceMeshVertex
 10
-30.00000074752603
 20
42.14213509158327
 30
-0.0000018937089976
 70
   192
  0
VERTEX
  5
AB
330
21
100
AcDbEntity
  8
Layer0
100
AcDbVertex
100
AcDbPolyFaceMeshVertex
 10
-29.48236265852901
 20
42.21028344818637
 30
-0.000001888218037
 70
   192
  0
VERTEX
  5
AC
330
21
100
AcDbEntity
  8
Layer0
100
AcDbVertex
100
AcDbPolyFaceMeshVertex
 10
-29.00000075227902
 20
42.41008430175262
 30
-0.0000018877599928
 70
   192
  0
VERTEX
  5
AD
330
21
100
AcDbEntity
  8
Layer0
100
AcDbVertex
100
AcDbPolyFaceMeshVertex
 10
-28.58578719554401
 20
42.72792155429546
 30
-0.0000018923710172
 70
   192
  0
VERTEX
  5
AE
330
21
100
AcDbEntity
  8
Layer0
100
AcDbVertex
100
AcDbPolyFaceMeshVertex
 10
-28.26794995769501
 20
43.14213512230637
 30
-0.0000019017280124
 70
   192
  0
VERTEX
  5
AF
330
21
100
AcDbEntity
  8
Layer0
100
AcDbVertex
100
AcDbPolyFaceMeshVertex
 10
-28.06814912124202
 20
43.62449703564467
 30
-0.000001915193991
 70
   192
  0
VERTEX
  5
B0
330
21
100
AcDbEntity
  8
Layer0
100
AcDbVertex
100
AcDbPolyFaceMeshVertex
 10
2.210282348725968
 20
410.5176387342532
 30
-0.0000083363240151
 70
   192
  0
VERTEX
  5
B1
330
21
100
AcDbEntity
  8
Layer0
100
AcDbVertex
100
AcDbPolyFaceMeshVertex
 10
2.410083185178962
 20
411.0000006475942
 30
-0.0000083497980086
 70
   192
  0
VERTEX
  5
B2
330
21
100
AcDbEntity
  8
Layer0
100
AcDbVertex
100
AcDbPolyFaceMeshVertex
 10
2.727920423027001
 20
411.4142142156052
 30
-0.0000083591550037
 70
   192
  0
VERTEX
  5
B3
330
21
100
AcDbEntity
  8
Layer0
100
AcDbVertex
100
AcDbPolyFaceMeshVertex
 10
3.142133979761979
 20
411.7320514681482
 30
-0.0000083637569901
 70
   192
  0
VERTEX
  5
B4
330
21
100
AcDbEntity
  8
Layer0
100
AcDbVertex
100
AcDbPolyFaceMeshVertex
 10
3.624495886012994
 20
411.9318523217122
 30
-0.0000083632990027
 70
   192
  0
VERTEX
  5
B5
330
21
100
AcDbEntity
  8
Layer0
100
AcDbVertex
100
AcDbPolyFaceMeshVertex
 10
4.14213397500896
 20
412.0000006783172
 30
-0.0000083578090084
 70
   192
  0
VERTEX
  5
B6
330
21
100
AcDbEntity
  8
Layer0
100
AcDbVertex
100
AcDbPolyFaceMeshVertex
 10
384.999998209366
 20
420.0000074340542
 30
-0.0000092849530233
 70
   192
  0
VERTEX
  5
B7
330
21
100
AcDbEntity
  8
Layer0
100
AcDbVertex
100
AcDbPolyFaceMeshVertex
 10
4.659772066422988
 20
411.9318523400772
 30
-0.0000083476639929
 70
   192
  0
VERTEX
  5
B8
330
21
100
AcDbEntity
  8
Layer0
100
AcDbVertex
100
AcDbPolyFaceMeshVertex
 10
5.142133979761979
 20
411.7320515036242
 30
-0.0000083335430077
 70
   192
  0
VERTEX
  5
B9
330
21
100
AcDbEntity
  8
Layer0
100
AcDbVertex
100
AcDbPolyFaceMeshVertex
 10
5.556347547772987
 20
411.4142142657752
 30
-0.0000083164200078
 70
   192
  0
VERTEX
  5
BA
330
21
100
AcDbEntity
  8
Layer0
100
AcDbVertex
100
AcDbPolyFaceMeshVertex
 10
5.874184800316982
 20
411.0000007090412
 30
-0.0000082974599991
 70
   192
  0
VERTEX
  5
BB
330
21
100
AcDbEntity
  8
Layer0
100
AcDbVertex
100
AcDbPolyFaceMeshVertex
 10
6.073985653882005
 20
410.5176388027892
 30
-0.0000082779540094
 70
   192
  0
VERTEX
  5
BC
330
21
100
AcDbEntity
  8
Layer0
100
AcDbVertex
100
AcDbPolyFaceMeshVertex
 10
192.499998351275
 20
412.0000040194482
 30
-0.0000122878240063
 70
   192
  0
VERTEX
  5
BD
330
21
100
AcDbEntity
  8
Layer0
100
AcDbVertex
100
AcDbPolyFaceMeshVertex
 10
191.98236026228
 20
411.9318556628442
 30
-0.0000122933130342
 70
   192
  0
VERTEX
  5
BE
330
21
100
AcDbEntity
  8
Layer0
100
AcDbVertex
100
AcDbPolyFaceMeshVertex
 10
191.499998356028
 20
411.7320548092782
 30
-0.0000122937710216
 70
   192
  0
VERTEX
  5
BF
330
21
100
AcDbEntity
  8
Layer0
100
AcDbVertex
100
AcDbPolyFaceMeshVertex
 10
191.085784799293
 20
411.4142175567352
 30
-0.0000122891700016
 70
   192
  0
VERTEX
  5
C0
330
21
100
AcDbEntity
  8
Layer0
100
AcDbVertex
100
AcDbPolyFaceMeshVertex
 10
190.767947561445
 20
411.0000039887252
 30
-0.0000122798130064
 70
   192
  0
VERTEX
  5
C1
330
21
100
AcDbEntity
  8
Layer0
100
AcDbVertex
100
AcDbPolyFaceMeshVertex
 10
190.568146724992
 20
410.5176420753852
 30
-0.000012266339013
 70
   192
  0
VERTEX
  5
C2
330
21
100
AcDbEntity
  8
Layer0
100
AcDbVertex
100
AcDbPolyFaceMeshVertex
 10
193.01763644269
 20
411.9318556812082
 30
-0.0000122776780245
 70
   192
  0
VERTEX
  5
C3
330
21
100
AcDbEntity
  8
Layer0
100
AcDbVertex
100
AcDbPolyFaceMeshVertex
 10
193.499998356028
 20
411.7320548447552
 30
-0.0000122635620414
 70
   192
  0
VERTEX
  5
C4
330
21
100
AcDbEntity
  8
Layer0
100
AcDbVertex
100
AcDbPolyFaceMeshVertex
 10
193.914211924039
 20
411.4142176069062
 30
-0.0000122464350056
 70
   192
  0
VERTEX
  5
C5
330
21
100
AcDbEntity
  8
Layer0
100
AcDbVertex
100
AcDbPolyFaceMeshVertex
 10
194.232049176583
 20
411.0000040501712
 30
-0.000012227474997
 70
   192
  0
VERTEX
  5
C6
330
21
100
AcDbEntity
  8
Layer0
100
AcDbVertex
100
AcDbPolyFaceMeshVertex
 10
194.431850030151
 20
410.5176421439202
 30
-0.0000122079690072
 70
   192
  0
VERTEX
  5
C7
330
21
100
AcDbEntity
  8
Layer0
100
AcDbVertex
100
AcDbPolyFaceMeshVertex
 10
379.125811937711
 20
411.0000073298572
 30
-0.0000090660670367
 70
   192
  0
VERTEX
  5
C8
330
21
100
AcDbEntity
  8
Layer0
100
AcDbVertex
100
AcDbPolyFaceMeshVertex
 10
378.9260111012579
 20
410.5176454165182
 30
-0.0000090525930432
 70
   192
  0
VERTEX
  5
C9
330
21
100
AcDbEntity
  8
Layer0
100
AcDbVertex
100
AcDbPolyFaceMeshVertex
 10
378.857862763018
 20
410.0000073251042
 30
-0.0000090359280307
 70
   192
  0
VERTEX
  5
CA
330
21
100
AcDbEntity
  8
Layer0
100
AcDbVertex
100
AcDbPolyFaceMeshVertex
 10
379.4436491755599
 20
411.4142208978682
 30
-0.0000090754230087
 70
   192
  0
VERTEX
  5
CB
330
21
100
AcDbEntity
  8
Layer0
100
AcDbVertex
100
AcDbPolyFaceMeshVertex
 10
379.857862732295
 20
411.7320581504112
 30
-0.000009080024995
 70
   192
  0
VERTEX
  5
CC
330
21
100
AcDbEntity
  8
Layer0
100
AcDbVertex
100
AcDbPolyFaceMeshVertex
 10
380.340224638546
 20
411.9318590039762
 30
-0.0000090795670076
 70
   192
  0
VERTEX
  5
CD
330
21
100
AcDbEntity
  8
Layer0
100
AcDbVertex
100
AcDbPolyFaceMeshVertex
 10
380.857862727541
 20
412.0000073605802
 30
-0.0000090740770133
 70
   192
  0
VERTEX
  5
CE
330
21
100
AcDbEntity
  8
Layer0
100
AcDbVertex
100
AcDbPolyFaceMeshVertex
 10
381.375500818956
 20
411.9318590223402
 30
-0.0000090639310315
 70
   192
  0
VERTEX
  5
CF
330
21
100
AcDbEntity
  8
Layer0
100
AcDbVertex
100
AcDbPolyFaceMeshVertex
 10
381.8578627322939
 20
411.7320581858882
 30
-0.0000090498149916
 70
   192
  0
VERTEX
  5
D0
330
21
100
AcDbEntity
  8
Layer0
100
AcDbVertex
100
AcDbPolyFaceMeshVertex
 10
382.272076300305
 20
411.4142209480392
 30
-0.0000090326880127
 70
   192
  0
VERTEX
  5
D1
330
21
100
AcDbEntity
  8
Layer0
100
AcDbVertex
100
AcDbPolyFaceMeshVertex
 10
382.589913552848
 20
411.0000073913042
 30
-0.0000090137290272
 70
   192
  0
VERTEX
  5
D2
330
21
100
AcDbEntity
  8
Layer0
100
AcDbVertex
100
AcDbPolyFaceMeshVertex
 10
382.7897144064129
 20
410.5176454850532
 30
-0.0000089942270165
 70
   192
  0
VERTEX
  5
D3
330
21
100
AcDbEntity
  8
Layer0
100
AcDbVertex
100
AcDbPolyFaceMeshVertex
 10
382.857862763017
 20
410.0000073960572
 30
-0.0000089754990427
 70
   192
  0
VERTEX
  5
D4
330
21
100
AcDbEntity
  8
Layer0
100
AcDbVertex
100
AcDbPolyFaceMeshVertex
 10
379.98227405376
 20
341.1822810943882
 30
-0.0000008384320154
 70
   192
  0
VERTEX
  5
D5
330
21
100
AcDbEntity
  8
Layer0
100
AcDbVertex
100
AcDbPolyFaceMeshVertex
 10
378.926011119621
 20
409.4823692361082
 30
-0.0000090172060254
 70
   192
  0
VERTEX
  5
D6
330
21
100
AcDbEntity
  8
Layer0
100
AcDbVertex
100
AcDbPolyFaceMeshVertex
 10
379.125811973188
 20
409.0000073298572
 30
-0.0000089977029916
 70
   192
  0
VERTEX
  5
D7
330
21
100
AcDbEntity
  8
Layer0
100
AcDbVertex
100
AcDbPolyFaceMeshVertex
 10
379.443649225731
 20
408.5857937731212
 30
-0.0000089787430397
 70
   192
  0
VERTEX
  5
D8
330
21
100
AcDbEntity
  8
Layer0
100
AcDbVertex
100
AcDbPolyFaceMeshVertex
 10
379.857862793742
 20
408.2679565352742
 30
-0.0000089616160039
 70
   192
  0
VERTEX
  5
D9
330
21
100
AcDbEntity
  8
Layer0
100
AcDbVertex
100
AcDbPolyFaceMeshVertex
 10
380.34022470708
 20
408.0681556988202
 30
-0.0000089475000209
 70
   192
  0
VERTEX
  5
DA
330
21
100
AcDbEntity
  8
Layer0
100
AcDbVertex
100
AcDbPolyFaceMeshVertex
 10
380.662931334113
 20
11.9904843813913
 30
-0.0000010664959973
 70
   192
  0
VERTEX
  5
DB
330
21
100
AcDbEntity
  8
Layer0
100
AcDbVertex
100
AcDbPolyFaceMeshVertex
 10
380.857862798495
 20
408.0000073605802
 30
-0.0000089373500032
 70
   192
  0
VERTEX
  5
DC
330
21
100
AcDbEntity
  8
Layer0
100
AcDbVertex
100
AcDbPolyFaceMeshVertex
 10
381.18474702878
 20
11.9731128389253
 30
-0.0000010580189951
 70
   192
  0
VERTEX
  5
DD
330
21
100
AcDbEntity
  8
Layer0
100
AcDbVertex
100
AcDbPolyFaceMeshVertex
 10
381.37550088749
 20
408.0681557171842
 30
-0.0000089318640448
 70
   192
  0
VERTEX
  5
DE
330
21
100
AcDbEntity
  8
Layer0
100
AcDbVertex
100
AcDbPolyFaceMeshVertex
 10
381.6842861987869
 20
11.821277377602
 30
-0.0000010452820334
 70
   192
  0
VERTEX
  5
DF
330
21
100
AcDbEntity
  8
Layer0
100
AcDbVertex
100
AcDbPolyFaceMeshVertex
 10
381.857862793741
 20
408.2679565707502
 30
-0.0000089314070237
 70
   192
  0
VERTEX
  5
E0
330
21
100
AcDbEntity
  8
Layer0
100
AcDbVertex
100
AcDbPolyFaceMeshVertex
 10
382.127506075229
 20
11.5453253331905
 30
-0.0000010291540207
 70
   192
  0
VERTEX
  5
E1
330
21
100
AcDbEntity
  8
Layer0
100
AcDbVertex
100
AcDbPolyFaceMeshVertex
 10
382.272076350476
 20
408.5857938232932
 30
-0.0000089360090101
 70
   192
  0
VERTEX
  5
E2
330
21
100
AcDbEntity
  8
Layer0
100
AcDbVertex
100
AcDbPolyFaceMeshVertex
 10
382.260755684322
 20
11.402898290945
 30
-0.0000010222730111
 70
   192
  0
VERTEX
  5
E3
330
21
100
AcDbEntity
  8
Layer0
100
AcDbVertex
100
AcDbPolyFaceMeshVertex
 10
382.484201955979
 20
11.1640623814851
 30
-0.000001010732035
 70
   192
  0
VERTEX
  5
E4
330
21
100
AcDbEntity
  8
Layer0
100
AcDbVertex
100
AcDbPolyFaceMeshVertex
 10
382.589913588324
 20
409.0000073913042
 30
-0.0000089453650389
 70
   192
  0
VERTEX
  5
E5
330
21
100
AcDbEntity
  8
Layer0
100
AcDbVertex
100
AcDbPolyFaceMeshVertex
 10
382.730065606234
 20
10.70347096257741
 30
-0.0000009912740211
 70
   192
  0
VERTEX
  5
E6
330
21
100
AcDbEntity
  8
Layer0
100
AcDbVertex
100
AcDbPolyFaceMeshVertex
 10
382.789714424777
 20
409.4823693046432
 30
-0.0000089588390324
 70
   192
  0
VERTEX
  5
E7
330
21
100
AcDbEntity
  8
Layer0
100
AcDbVertex
100
AcDbPolyFaceMeshVertex
 10
382.848341824537
 20
10.1949396205041
 30
-0.0000009721100014
 70
   192
  0
VERTEX
  5
E8
330
21
100
AcDbEntity
  8
Layer0
100
AcDbVertex
100
AcDbPolyFaceMeshVertex
 10
412.999998992369
 20
375.8578723069942
 30
-0.0000073531010116
 70
   192
  0
VERTEX
  5
E9
330
21
100
AcDbEntity
  8
Layer0
100
AcDbVertex
100
AcDbPolyFaceMeshVertex
 10
413.000001934392
 20
210.0000076283022
 30
-0.0000016852850422
 70
   192
  0
VERTEX
  5
EA
330
21
100
AcDbEntity
  8
Layer0
100
AcDbVertex
100
AcDbPolyFaceMeshVertex
 10
413.068147348973
 20
375.3402342179972
 30
-0.0000073343730378
 70
   192
  0
VERTEX
  5
EB
330
21
100
AcDbEntity
  8
Layer0
100
AcDbVertex
100
AcDbPolyFaceMeshVertex
 10
412.999999216994
 20
44.14214294961081
 30
-0.0000016769679974
 70
   192
  0
VERTEX
  5
EC
330
21
100
AcDbEntity
  8
Layer0
100
AcDbVertex
100
AcDbPolyFaceMeshVertex
 10
413.068150272632
 20
210.5176457197172
 30
-0.0000017019449956
 70
   192
  0
VERTEX
  5
ED
330
21
100
AcDbEntity
  8
Layer0
100
AcDbVertex
100
AcDbPolyFaceMeshVertex
 10
413.267948202538
 20
374.8578723117472
 30
-0.0000073148660249
 70
   192
  0
VERTEX
  5
EE
330
21
100
AcDbEntity
  8
Layer0
100
AcDbVertex
100
AcDbPolyFaceMeshVertex
 10
413.2679511090849
 20
211.0000076330552
 30
-0.0000017154130205
 70
   192
  0
VERTEX
  5
EF
330
21
100
AcDbEntity
  8
Layer0
100
AcDbVertex
100
AcDbPolyFaceMeshVertex
 10
413.585785455081
 20
374.4436587550112
 30
-0.0000072959060162
 70
   192
  0
VERTEX
  5
F0
330
21
100
AcDbEntity
  8
Layer0
100
AcDbVertex
100
AcDbPolyFaceMeshVertex
 10
413.585788346933
 20
211.4142212010662
 30
-0.0000017247710389
 70
   192
  0
VERTEX
  5
F1
330
21
100
AcDbEntity
  8
Layer0
100
AcDbVertex
100
AcDbPolyFaceMeshVertex
 10
413.999999023092
 20
374.1258215171632
 30
-0.0000072787880185
 70
   192
  0
VERTEX
  5
F2
330
21
100
AcDbEntity
  8
Layer0
100
AcDbVertex
100
AcDbPolyFaceMeshVertex
 10
414.000001903668
 20
211.7320584536102
 30
-0.0000017293810401
 70
   192
  0
VERTEX
  5
F3
330
21
100
AcDbEntity
  8
Layer0
100
AcDbVertex
100
AcDbPolyFaceMeshVertex
 10
414.482360936432
 20
373.9260206807092
 30
-0.0000072646730018
 70
   192
  0
VERTEX
  5
F4
330
21
100
AcDbEntity
  8
Layer0
100
AcDbVertex
100
AcDbPolyFaceMeshVertex
 10
414.482363809921
 20
211.9318593071742
 30
-0.0000017289250422
 70
   192
  0
VERTEX
  5
F5
330
21
100
AcDbEntity
  8
Layer0
100
AcDbVertex
100
AcDbPolyFaceMeshVertex
 10
414.999999027847
 20
373.8578723424702
 30
-0.0000072545190051
 70
   192
  0
VERTEX
  5
F6
330
21
100
AcDbEntity
  8
Layer0
100
AcDbVertex
100
AcDbPolyFaceMeshVertex
 10
415.000001898915
 20
212.0000076637792
 30
-0.0000017234279994
 70
   192
  0
VERTEX
  5
F7
330
21
100
AcDbEntity
  8
Layer0
100
AcDbVertex
100
AcDbPolyFaceMeshVertex
 10
415.517637116842
 20
373.9260206990742
 30
-0.0000072490259981
 70
   192
  0
VERTEX
  5
F8
330
21
100
AcDbEntity
  8
Layer0
100
AcDbVertex
100
AcDbPolyFaceMeshVertex
 10
415.517639990331
 20
211.9318593255392
 30
-0.0000017132780386
 70
   192
  0
VERTEX
  5
F9
330
21
100
AcDbEntity
  8
Layer0
100
AcDbVertex
100
AcDbPolyFaceMeshVertex
 10
415.999999023093
 20
374.1258215526402
 30
-0.0000072485700002
 70
   192
  0
VERTEX
  5
FA
330
21
100
AcDbEntity
  8
Layer0
100
AcDbVertex
100
AcDbPolyFaceMeshVertex
 10
416.000001903668
 20
211.7320584890862
 30
-0.0000016991630218
 70
   192
  0
VERTEX
  5
FB
330
21
100
AcDbEntity
  8
Layer0
100
AcDbVertex
100
AcDbPolyFaceMeshVertex
 10
416.414212579828
 20
374.4436588051832
 30
-0.000007253181991
 70
   192
  0
VERTEX
  5
FC
330
21
100
AcDbEntity
  8
Layer0
100
AcDbVertex
100
AcDbPolyFaceMeshVertex
 10
416.41421547168
 20
211.4142212512382
 30
-0.0000016820459905
 70
   192
  0
VERTEX
  5
FD
330
21
100
AcDbEntity
  8
Layer0
100
AcDbVertex
100
AcDbPolyFaceMeshVertex
 10
416.7320498176759
 20
374.8578723731942
 30
-0.0000072625380199
 70
   192
  0
VERTEX
  5
FE
330
21
100
AcDbEntity
  8
Layer0
100
AcDbVertex
100
AcDbPolyFaceMeshVertex
 10
416.732052724223
 20
211.0000076945022
 30
-0.0000016630850155
 70
   192
  0
VERTEX
  5
FF
330
21
100
AcDbEntity
  8
Layer0
100
AcDbVertex
100
AcDbPolyFaceMeshVertex
 10
416.931850654129
 20
375.3402342865332
 30
-0.0000072760020089
 70
   192
  0
VERTEX
  5
100
330
21
100
AcDbEntity
  8
Layer0
100
AcDbVertex
100
AcDbPolyFaceMeshVertex
 10
416.9318535777879
 20
210.5176457882522
 30
-0.0000016435740235
 70
   192
  0
VERTEX
  5
101
330
21
100
AcDbEntity
  8
Layer0
100
AcDbVertex
100
AcDbPolyFaceMeshVertex
 10
416.999998992369
 20
375.8578723779462
 30
-0.0000072926659982
 70
   192
  0
VERTEX
  5
102
330
21
100
AcDbEntity
  8
Layer0
100
AcDbVertex
100
AcDbPolyFaceMeshVertex
 10
417.000001934392
 20
210.0000076992562
 30
-0.0000016248500287
 70
   192
  0
VERTEX
  5
103
330
21
100
AcDbEntity
  8
Layer0
100
AcDbVertex
100
AcDbPolyFaceMeshVertex
 10
384.999999999994
 20
0.0000068292102995
 30
-0.0000005911199992
 70
   192
  0
VERTEX
  5
104
330
21
100
AcDbEntity
  8
Layer0
100
AcDbVertex
100
AcDbPolyFaceMeshVertex
 10
413.068147573597
 20
43.62450486061459
 30
-0.0000016582409899
 70
   192
  0
VERTEX
  5
105
330
21
100
AcDbEntity
  8
Layer0
100
AcDbVertex
100
AcDbPolyFaceMeshVertex
 10
413.267948427162
 20
43.14214295436361
 30
-0.0000016387330106
 70
   192
  0
VERTEX
  5
106
330
21
100
AcDbEntity
  8
Layer0
100
AcDbVertex
100
AcDbPolyFaceMeshVertex
 10
413.5857856797049
 20
42.72792939762842
 30
-0.0000016197730019
 70
   192
  0
VERTEX
  5
107
330
21
100
AcDbEntity
  8
Layer0
100
AcDbVertex
100
AcDbPolyFaceMeshVertex
 10
413.999999247715
 20
42.41009215978017
 30
-0.0000016026560274
 70
   192
  0
VERTEX
  5
108
330
21
100
AcDbEntity
  8
Layer0
100
AcDbVertex
100
AcDbPolyFaceMeshVertex
 10
414.482361161054
 20
42.21029132332738
 30
-0.0000015885390212
 70
   192
  0
VERTEX
  5
109
330
21
100
AcDbEntity
  8
Layer0
100
AcDbVertex
100
AcDbPolyFaceMeshVertex
 10
424.999999290467
 20
40.00000753873869
 30
-0.0000013540940245
 70
   192
  0
VERTEX
  5
10A
330
21
100
AcDbEntity
  8
Layer0
100
AcDbVertex
100
AcDbPolyFaceMeshVertex
 10
414.999999252469
 20
42.14214298508753
 30
-0.0000015783850245
 70
   192
  0
VERTEX
  5
10B
330
21
100
AcDbEntity
  8
Layer0
100
AcDbVertex
100
AcDbPolyFaceMeshVertex
 10
415.517637341464
 20
42.21029134169135
 30
-0.0000015728930407
 70
   192
  0
VERTEX
  5
10C
330
21
100
AcDbEntity
  8
Layer0
100
AcDbVertex
100
AcDbPolyFaceMeshVertex
 10
415.999999247715
 20
42.41009219525688
 30
-0.0000015724370428
 70
   192
  0
VERTEX
  5
10D
330
21
100
AcDbEntity
  8
Layer0
100
AcDbVertex
100
AcDbPolyFaceMeshVertex
 10
416.4142128044509
 20
42.72792944779968
 30
-0.0000015770480104
 70
   192
  0
VERTEX
  5
10E
330
21
100
AcDbEntity
  8
Layer0
100
AcDbVertex
100
AcDbPolyFaceMeshVertex
 10
416.7320500423
 20
43.14214301581059
 30
-0.0000015864050056
 70
   192
  0
VERTEX
  5
10F
330
21
100
AcDbEntity
  8
Layer0
100
AcDbVertex
100
AcDbPolyFaceMeshVertex
 10
416.9318508787539
 20
43.62450492914979
 30
-0.0000015998689946
 70
   192
  0
VERTEX
  5
110
330
21
100
AcDbEntity
  8
Layer0
100
AcDbVertex
100
AcDbPolyFaceMeshVertex
 10
416.9999992169929
 20
44.1421430205637
 30
-0.0000016165330408
 70
   192
  0
VERTEX
  5
111
330
21
100
AcDbEntity
  8
Layer0
100
AcDbVertex
100
AcDbPolyFaceMeshVertex
 10
424.9999989188959
 20
380.0000081435842
 30
-0.0000073133970204
 70
   192
  0
VERTEX
  5
112
330
21
100
AcDbEntity
  8
Layer0
100
AcDbVertex
100
AcDbPolyFaceMeshVertex
 10
2.210283802952006
 20
9.482361949001003
 30
-0.000000290731009
 70
   192
  0
VERTEX
  5
113
330
21
100
AcDbEntity
  8
Layer0
100
AcDbVertex
100
AcDbPolyFaceMeshVertex
 10
2.410084656517995
 20
9.000000042750806
 30
-0.0000002712289984
 70
   192
  0
VERTEX
  5
114
330
21
100
AcDbEntity
  8
Layer0
100
AcDbVertex
100
AcDbPolyFaceMeshVertex
 10
2.727921909060967
 20
8.585786486014904
 30
-0.0000002522700129
 70
   192
  0
VERTEX
  5
115
330
21
100
AcDbEntity
  8
Layer0
100
AcDbVertex
100
AcDbPolyFaceMeshVertex
 10
3.142135477071974
 20
8.267949248166204
 30
-0.0000002351430339
 70
   192
  0
VERTEX
  5
116
330
21
100
AcDbEntity
  8
Layer0
100
AcDbVertex
100
AcDbPolyFaceMeshVertex
 10
3.624497390410966
 20
8.068148411713402
 30
-0.0000002210260277
 70
   192
  0
VERTEX
  5
117
330
21
100
AcDbEntity
  8
Layer0
100
AcDbVertex
100
AcDbPolyFaceMeshVertex
 10
4.142135481824994
 20
8.000000073473402
 30
-0.0000002108770332
 70
   192
  0
VERTEX
  5
118
330
21
100
AcDbEntity
  8
Layer0
100
AcDbVertex
100
AcDbPolyFaceMeshVertex
 10
4.65977357082096
 20
8.068148430076704
 30
-0.000000205391018
 70
   192
  0
VERTEX
  5
119
330
21
100
AcDbEntity
  8
Layer0
100
AcDbVertex
100
AcDbPolyFaceMeshVertex
 10
5.142135477071974
 20
8.267949283642004
 30
-0.0000002049289947
 70
   192
  0
VERTEX
  5
11A
330
21
100
AcDbEntity
  8
Layer0
100
AcDbVertex
100
AcDbPolyFaceMeshVertex
 10
5.556349033807976
 20
8.585786536186205
 30
-0.0000002095339937
 70
   192
  0
VERTEX
  5
11B
330
21
100
AcDbEntity
  8
Layer0
100
AcDbVertex
100
AcDbPolyFaceMeshVertex
 10
5.874186271655958
 20
9.000000104197
 30
-0.0000002188910457
 70
   192
  0
VERTEX
  5
11C
330
21
100
AcDbEntity
  8
Layer0
100
AcDbVertex
100
AcDbPolyFaceMeshVertex
 10
6.073987108109009
 20
9.482362017537
 30
-0.0000002323610033
 70
   192
  0
VERTEX
  5
11D
330
21
100
AcDbEntity
  8
Layer0
100
AcDbVertex
100
AcDbPolyFaceMeshVertex
 10
192.499999858091
 20
8.000003414603
 30
-0.0000041408940206
 70
   192
  0
VERTEX
  5
11E
330
21
100
AcDbEntity
  8
Layer0
100
AcDbVertex
100
AcDbPolyFaceMeshVertex
 10
191.982361766677
 20
8.068151752843299
 30
-0.0000041510430151
 70
   192
  0
VERTEX
  5
11F
330
21
100
AcDbEntity
  8
Layer0
100
AcDbVertex
100
AcDbPolyFaceMeshVertex
 10
191.499999853338
 20
8.267952589296499
 30
-0.0000041651600213
 70
   192
  0
VERTEX
  5
120
330
21
100
AcDbEntity
  8
Layer0
100
AcDbVertex
100
AcDbPolyFaceMeshVertex
 10
191.085786285328
 20
8.585789827144303
 30
-0.0000041822870003
 70
   192
  0
VERTEX
  5
121
330
21
100
AcDbEntity
  8
Layer0
100
AcDbVertex
100
AcDbPolyFaceMeshVertex
 10
190.767949032784
 20
9.000003383880099
 30
-0.000004201247009
 70
   192
  0
VERTEX
  5
122
330
21
100
AcDbEntity
  8
Layer0
100
AcDbVertex
100
AcDbPolyFaceMeshVertex
 10
190.568148179219
 20
9.482365290130502
 30
-0.0000042207490196
 70
   192
  0
VERTEX
  5
123
330
21
100
AcDbEntity
  8
Layer0
100
AcDbVertex
100
AcDbPolyFaceMeshVertex
 10
193.017637947087
 20
8.068151771206999
 30
-0.0000041354080054
 70
   192
  0
VERTEX
  5
124
330
21
100
AcDbEntity
  8
Layer0
100
AcDbVertex
100
AcDbPolyFaceMeshVertex
 10
193.499999853338
 20
8.267952624773102
 30
-0.0000041349500179
 70
   192
  0
VERTEX
  5
125
330
21
100
AcDbEntity
  8
Layer0
100
AcDbVertex
100
AcDbPolyFaceMeshVertex
 10
193.914213410074
 20
8.585789877316103
 30
-0.0000041395520043
 70
   192
  0
VERTEX
  5
126
330
21
100
AcDbEntity
  8
Layer0
100
AcDbVertex
100
AcDbPolyFaceMeshVertex
 10
194.232050647922
 20
9.000003445327202
 30
-0.0000041489089995
 70
   192
  0
VERTEX
  5
127
330
21
100
AcDbEntity
  8
Layer0
100
AcDbVertex
100
AcDbPolyFaceMeshVertex
 10
194.431851484377
 20
9.4823653586662
 30
-0.0000041623790139
 70
   192
  0
VERTEX
  5
128
330
21
100
AcDbEntity
  8
Layer0
100
AcDbVertex
100
AcDbPolyFaceMeshVertex
 10
379.231526441782
 20
8.835951129986803
 30
-0.0000009802980117
 70
   192
  0
VERTEX
  5
129
330
21
100
AcDbEntity
  8
Layer0
100
AcDbVertex
100
AcDbPolyFaceMeshVertex
 10
378.985662791529
 20
9.296542548894699
 30
-0.0000009997530128
 70
   192
  0
VERTEX
  5
12A
330
21
100
AcDbEntity
  8
Layer0
100
AcDbVertex
100
AcDbPolyFaceMeshVertex
 10
379.5882223225329
 20
8.4546881782831
 30
-0.0000009618719901
 70
   192
  0
VERTEX
  5
12B
330
21
100
AcDbEntity
  8
Layer0
100
AcDbVertex
100
AcDbPolyFaceMeshVertex
 10
380.031442198975
 20
8.178736133870302
 30
-0.0000009457440342
 70
   192
  0
VERTEX
  5
12C
330
21
100
AcDbEntity
  8
Layer0
100
AcDbVertex
100
AcDbPolyFaceMeshVertex
 10
380.530981368983
 20
8.026900672547505
 30
-0.0000009330080388
 70
   192
  0
VERTEX
  5
12D
330
21
100
AcDbEntity
  8
Layer0
100
AcDbVertex
100
AcDbPolyFaceMeshVertex
 10
381.052797063649
 20
8.009529130082
 30
-0.0000009245350157
 70
   192
  0
VERTEX
  5
12E
330
21
100
AcDbEntity
  8
Layer0
100
AcDbVertex
100
AcDbPolyFaceMeshVertex
 10
381.561328405722
 20
8.127805348383205
 30
-0.0000009208910114
 70
   192
  0
VERTEX
  5
12F
330
21
100
AcDbEntity
  8
Layer0
100
AcDbVertex
100
AcDbPolyFaceMeshVertex
 10
382.021919824631
 20
8.3736689986386
 30
-0.0000009223369943
 70
   192
  0
VERTEX
  5
130
330
21
100
AcDbEntity
  8
Layer0
100
AcDbVertex
100
AcDbPolyFaceMeshVertex
 10
382.403182776335
 20
8.730364879389803
 30
-0.0000009287739999
 70
   192
  0
VERTEX
  5
131
330
21
100
AcDbEntity
  8
Layer0
100
AcDbVertex
100
AcDbPolyFaceMeshVertex
 10
382.679134820747
 20
9.17358475583
 30
-0.0000009397500094
 70
   192
  0
VERTEX
  5
132
330
21
100
AcDbEntity
  8
Layer0
100
AcDbVertex
100
AcDbPolyFaceMeshVertex
 10
382.83097028207
 20
9.6731239258379
 30
-0.0000009545360058
 70
   192
  0
VERTEX
  5
133
330
21
100
AcDbEntity
  8
Layer0
100
AcDbVertex
100
AcDbPolyFaceMeshVertex
 10
413.0681473306109
 20
376.3755103984072
 30
-0.0000073697610219
 70
   192
  0
VERTEX
  5
134
330
21
100
AcDbEntity
  8
Layer0
100
AcDbVertex
100
AcDbPolyFaceMeshVertex
 10
413.267948167061
 20
376.8578723117472
 30
-0.00000738322899
 70
   192
  0
VERTEX
  5
135
330
21
100
AcDbEntity
  8
Layer0
100
AcDbVertex
100
AcDbPolyFaceMeshVertex
 10
413.585785404911
 20
377.2720858797582
 30
-0.0000073925870083
 70
   192
  0
VERTEX
  5
136
330
21
100
AcDbEntity
  8
Layer0
100
AcDbVertex
100
AcDbPolyFaceMeshVertex
 10
413.999998961645
 20
377.5899231323012
 30
-0.0000073971970096
 70
   192
  0
VERTEX
  5
137
330
21
100
AcDbEntity
  8
Layer0
100
AcDbVertex
100
AcDbPolyFaceMeshVertex
 10
414.482360867897
 20
377.7897239858652
 30
-0.0000073967410117
 70
   192
  0
VERTEX
  5
138
330
21
100
AcDbEntity
  8
Layer0
100
AcDbVertex
100
AcDbPolyFaceMeshVertex
 10
414.999998956893
 20
377.8578723424702
 30
-0.000007391244992
 70
   192
  0
VERTEX
  5
139
330
21
100
AcDbEntity
  8
Layer0
100
AcDbVertex
100
AcDbPolyFaceMeshVertex
 10
415.5176370483069
 20
377.7897240042302
 30
-0.0000073810950312
 70
   192
  0
VERTEX
  5
13A
330
21
100
AcDbEntity
  8
Layer0
100
AcDbVertex
100
AcDbPolyFaceMeshVertex
 10
415.9999989616459
 20
377.5899231677772
 30
-0.0000073669789913
 70
   192
  0
VERTEX
  5
13B
330
21
100
AcDbEntity
  8
Layer0
100
AcDbVertex
100
AcDbPolyFaceMeshVertex
 10
416.414212529657
 20
377.2720859299292
 30
-0.0000073498609936
 70
   192
  0
VERTEX
  5
13C
330
21
100
AcDbEntity
  8
Layer0
100
AcDbVertex
100
AcDbPolyFaceMeshVertex
 10
416.7320497821989
 20
376.8578723731942
 30
-0.0000073309000186
 70
   192
  0
VERTEX
  5
13D
330
21
100
AcDbEntity
  8
Layer0
100
AcDbVertex
100
AcDbPolyFaceMeshVertex
 10
416.931850635767
 20
376.3755104669432
 30
-0.0000073113890267
 70
   192
  0
VERTEX
  5
13E
330
21
100
AcDbEntity
  8
Layer0
100
AcDbVertex
100
AcDbPolyFaceMeshVertex
 10
413.0681475552329
 20
44.65978104102472
 30
-0.0000016936280076
 70
   192
  0
VERTEX
  5
13F
330
21
100
AcDbEntity
  8
Layer0
100
AcDbVertex
100
AcDbPolyFaceMeshVertex
 10
413.068150290996
 20
209.4823695393072
 30
-0.0000016665580347
 70
   192
  0
VERTEX
  5
140
330
21
100
AcDbEntity
  8
Layer0
100
AcDbVertex
100
AcDbPolyFaceMeshVertex
 10
413.267948391687
 20
45.1421429543637
 30
-0.0000017070960325
 70
   192
  0
VERTEX
  5
141
330
21
100
AcDbEntity
  8
Layer0
100
AcDbVertex
100
AcDbPolyFaceMeshVertex
 10
413.2679511445609
 20
209.0000076330552
 30
-0.0000016470499986
 70
   192
  0
VERTEX
  5
142
330
21
100
AcDbEntity
  8
Layer0
100
AcDbVertex
100
AcDbPolyFaceMeshVertex
 10
413.585785629533
 20
45.55635652237461
 30
-0.0000017164530277
 70
   192
  0
VERTEX
  5
143
330
21
100
AcDbEntity
  8
Layer0
100
AcDbVertex
100
AcDbPolyFaceMeshVertex
 10
413.5857883971059
 20
208.5857940763202
 30
-0.0000016280899899
 70
   192
  0
VERTEX
  5
144
330
21
100
AcDbEntity
  8
Layer0
100
AcDbVertex
100
AcDbPolyFaceMeshVertex
 10
413.999999186269
 20
45.87419377491781
 30
-0.0000017210639953
 70
   192
  0
VERTEX
  5
145
330
21
100
AcDbEntity
  8
Layer0
100
AcDbVertex
100
AcDbPolyFaceMeshVertex
 10
414.000001965117
 20
208.2679568384722
 30
-0.0000016109730154
 70
   192
  0
VERTEX
  5
146
330
21
100
AcDbEntity
  8
Layer0
100
AcDbVertex
100
AcDbPolyFaceMeshVertex
 10
414.482361092519
 20
46.07399462848334
 30
-0.0000017206070311
 70
   192
  0
VERTEX
  5
147
330
21
100
AcDbEntity
  8
Layer0
100
AcDbVertex
100
AcDbPolyFaceMeshVertex
 10
414.482363878455
 20
208.0681560020182
 30
-0.0000015968570324
 70
   192
  0
VERTEX
  5
148
330
21
100
AcDbEntity
  8
Layer0
100
AcDbVertex
100
AcDbPolyFaceMeshVertex
 10
414.999999181517
 20
46.14214298508716
 30
-0.0000017151120346
 70
   192
  0
VERTEX
  5
149
330
21
100
AcDbEntity
  8
Layer0
100
AcDbVertex
100
AcDbPolyFaceMeshVertex
 10
415.000001969868
 20
208.0000076637792
 30
-0.0000015867030356
 70
   192
  0
VERTEX
  5
14A
330
21
100
AcDbEntity
  8
Layer0
100
AcDbVertex
100
AcDbPolyFaceMeshVertex
 10
415.51763727293
 20
46.07399464684732
 30
-0.0000017049609937
 70
   192
  0
VERTEX
  5
14B
330
21
100
AcDbEntity
  8
Layer0
100
AcDbVertex
100
AcDbPolyFaceMeshVertex
 10
415.517640058865
 20
208.0681560203832
 30
-0.0000015812100287
 70
   192
  0
VERTEX
  5
14C
330
21
100
AcDbEntity
  8
Layer0
100
AcDbVertex
100
AcDbPolyFaceMeshVertex
 10
415.9999991862679
 20
45.87419381039425
 30
-0.0000016908450107
 70
   192
  0
VERTEX
  5
14D
330
21
100
AcDbEntity
  8
Layer0
100
AcDbVertex
100
AcDbPolyFaceMeshVertex
 10
416.000001965117
 20
208.2679568739492
 30
-0.0000015807540308
 70
   192
  0
VERTEX
  5
14E
330
21
100
AcDbEntity
  8
Layer0
100
AcDbVertex
100
AcDbPolyFaceMeshVertex
 10
416.414212754279
 20
45.55635657254587
 30
-0.0000016737280362
 70
   192
  0
VERTEX
  5
14F
330
21
100
AcDbEntity
  8
Layer0
100
AcDbVertex
100
AcDbPolyFaceMeshVertex
 10
416.4142155218519
 20
208.5857941264912
 30
-0.0000015853649984
 70
   192
  0
VERTEX
  5
150
330
21
100
AcDbEntity
  8
Layer0
100
AcDbVertex
100
AcDbPolyFaceMeshVertex
 10
416.732050006824
 20
45.14214301581068
 30
-0.0000016547680275
 70
   192
  0
VERTEX
  5
151
330
21
100
AcDbEntity
  8
Layer0
100
AcDbVertex
100
AcDbPolyFaceMeshVertex
 10
416.7320527596989
 20
209.0000076945022
 30
-0.0000015947219936
 70
   192
  0
VERTEX
  5
152
330
21
100
AcDbEntity
  8
Layer0
100
AcDbVertex
100
AcDbPolyFaceMeshVertex
 10
416.931850860389
 20
44.65978110955993
 30
-0.0000016352560124
 70
   192
  0
VERTEX
  5
153
330
21
100
AcDbEntity
  8
Layer0
100
AcDbVertex
100
AcDbPolyFaceMeshVertex
 10
416.931853596152
 20
209.4823696078412
 30
-0.0000016081860394
 70
   192
  0
VERTEX
  5
154
330
21
100
AcDbEntity
  8
Layer0
100
AcDbFaceRecord
 10
0.0
 20
0.0
 30
0.0
 70
   128
 71
    -1
 72
     2
 73
    -3
  0
VERTEX
  5
155
330
21
100
AcDbEntity
  8
Layer0
100
AcDbFaceRecord
 10
0.0
 20
0.0
 30
0.0
 70
   128
 71
    -2
 72
    -1
 73
     4
  0
VERTEX
  5
156
330
21
100
AcDbEntity
  8
Layer0
100
AcDbFaceRecord
 10
0.0
 20
0.0
 30
0.0
 70
   128
 71
    -4
 72
    -1
 73
     5
  0
VERTEX
  5
157
330
21
100
AcDbEntity
  8
Layer0
100
AcDbFaceRecord
 10
0.0
 20
0.0
 30
0.0
 70
   128
 71
    -5
 72
    -1
 73
     6
  0
VERTEX
  5
158
330
21
100
AcDbEntity
  8
Layer0
100
AcDbFaceRecord
 10
0.0
 20
0.0
 30
0.0
 70
   128
 71
    -6
 72
    -1
 73
     7
  0
VERTEX
  5
159
330
21
100
AcDbEntity
  8
Layer0
100
AcDbFaceRecord
 10
0.0
 20
0.0
 30
0.0
 70
   128
 71
    -7
 72
     1
 73
    -8
  0
VERTEX
  5
15A
330
21
100
AcDbEntity
  8
Layer0
100
AcDbFaceRecord
 10
0.0
 20
0.0
 30
0.0
 70
   128
 71
    -7
 72
    -8
 73
     9
  0
VERTEX
  5
15B
330
21
100
AcDbEntity
  8
Layer0
100
AcDbFaceRecord
 10
0.0
 20
0.0
 30
0.0
 70
   128
 71
    -9
 72
    -8
 73
    10
  0
VERTEX
  5
15C
330
21
100
AcDbEntity
  8
Layer0
100
AcDbFaceRecord
 10
0.0
 20
0.0
 30
0.0
 70
   128
 71
   -10
 72
    -8
 73
    11
  0
VERTEX
  5
15D
330
21
100
AcDbEntity
  8
Layer0
100
AcDbFaceRecord
 10
0.0
 20
0.0
 30
0.0
 70
   128
 71
   -11
 72
    -8
 73
    12
  0
VERTEX
  5
15E
330
21
100
AcDbEntity
  8
Layer0
100
AcDbFaceRecord
 10
0.0
 20
0.0
 30
0.0
 70
   128
 71
   -12
 72
    -8
 73
    13
  0
VERTEX
  5
15F
330
21
100
AcDbEntity
  8
Layer0
100
AcDbFaceRecord
 10
0.0
 20
0.0
 30
0.0
 70
   128
 71
   -13
 72
    -8
 73
    14
  0
VERTEX
  5
160
330
21
100
AcDbEntity
  8
Layer0
100
AcDbFaceRecord
 10
0.0
 20
0.0
 30
0.0
 70
   128
 71
   -14
 72
    -8
 73
    15
  0
VERTEX
  5
161
330
21
100
AcDbEntity
  8
Layer0
100
AcDbFaceRecord
 10
0.0
 20
0.0
 30
0.0
 70
   128
 71
   -16
 72
   -17
 73
    18
  0
VERTEX
  5
162
330
21
100
AcDbEntity
  8
Layer0
100
AcDbFaceRecord
 10
0.0
 20
0.0
 30
0.0
 70
   128
 71
   -17
 72
   -16
 73
    19
  0
VERTEX
  5
163
330
21
100
AcDbEntity
  8
Layer0
100
AcDbFaceRecord
 10
0.0
 20
0.0
 30
0.0
 70
   128
 71
   -19
 72
   -16
 73
    20
  0
VERTEX
  5
164
330
21
100
AcDbEntity
  8
Layer0
100
AcDbFaceRecord
 10
0.0
 20
0.0
 30
0.0
 70
   128
 71
   -20
 72
   -16
 73
    21
  0
VERTEX
  5
165
330
21
100
AcDbEntity
  8
Layer0
100
AcDbFaceRecord
 10
0.0
 20
0.0
 30
0.0
 70
   128
 71
   -21
 72
   -16
 73
    22
  0
VERTEX
  5
166
330
21
100
AcDbEntity
  8
Layer0
100
AcDbFaceRecord
 10
0.0
 20
0.0
 30
0.0
 70
   128
 71
   -22
 72
   -16
 73
    23
  0
VERTEX
  5
167
330
21
100
AcDbEntity
  8
Layer0
100
AcDbFaceRecord
 10
0.0
 20
0.0
 30
0.0
 70
   128
 71
   -18
 72
    17
 73
   -24
  0
VERTEX
  5
168
330
21
100
AcDbEntity
  8
Layer0
100
AcDbFaceRecord
 10
0.0
 20
0.0
 30
0.0
 70
   128
 71
   -18
 72
    24
 73
   -25
  0
VERTEX
  5
169
330
21
100
AcDbEntity
  8
Layer0
100
AcDbFaceRecord
 10
0.0
 20
0.0
 30
0.0
 70
   128
 71
   -18
 72
    25
 73
   -26
  0
VERTEX
  5
16A
330
21
100
AcDbEntity
  8
Layer0
100
AcDbFaceRecord
 10
0.0
 20
0.0
 30
0.0
 70
   128
 71
   -18
 72
    26
 73
   -27
  0
VERTEX
  5
16B
330
21
100
AcDbEntity
  8
Layer0
100
AcDbFaceRecord
 10
0.0
 20
0.0
 30
0.0
 70
   128
 71
   -18
 72
    27
 73
   -28
  0
VERTEX
  5
16C
330
21
100
AcDbEntity
  8
Layer0
100
AcDbFaceRecord
 10
0.0
 20
0.0
 30
0.0
 70
   128
 71
   -18
 72
    28
 73
   -29
  0
VERTEX
  5
16D
330
21
100
AcDbEntity
  8
Layer0
100
AcDbFaceRecord
 10
0.0
 20
0.0
 30
0.0
 70
   128
 71
   -18
 72
    29
 73
   -30
  0
VERTEX
  5
16E
330
21
100
AcDbEntity
  8
Layer0
100
AcDbFaceRecord
 10
0.0
 20
0.0
 30
0.0
 70
   128
 71
   -31
 72
    32
 73
   -33
  0
VERTEX
  5
16F
330
21
100
AcDbEntity
  8
Layer0
100
AcDbFaceRecord
 10
0.0
 20
0.0
 30
0.0
 70
   128
 71
   -32
 72
    31
 73
   -34
  0
VERTEX
  5
170
330
21
100
AcDbEntity
  8
Layer0
100
AcDbFaceRecord
 10
0.0
 20
0.0
 30
0.0
 70
   128
 71
   -32
 72
   -34
 73
    35
  0
VERTEX
  5
171
330
21
100
AcDbEntity
  8
Layer0
100
AcDbFaceRecord
 10
0.0
 20
0.0
 30
0.0
 70
   128
 71
   -35
 72
    34
 73
   -36
  0
VERTEX
  5
172
330
21
100
AcDbEntity
  8
Layer0
100
AcDbFaceRecord
 10
0.0
 20
0.0
 30
0.0
 70
   128
 71
   -35
 72
   -36
 73
    37
  0
VERTEX
  5
173
330
21
100
AcDbEntity
  8
Layer0
100
AcDbFaceRecord
 10
0.0
 20
0.0
 30
0.0
 70
   128
 71
   -37
 72
    36
 73
   -38
  0
VERTEX
  5
174
330
21
100
AcDbEntity
  8
Layer0
100
AcDbFaceRecord
 10
0.0
 20
0.0
 30
0.0
 70
   128
 71
   -37
 72
   -38
 73
    39
  0
VERTEX
  5
175
330
21
100
AcDbEntity
  8
Layer0
100
AcDbFaceRecord
 10
0.0
 20
0.0
 30
0.0
 70
   128
 71
   -39
 72
    38
 73
   -40
  0
VERTEX
  5
176
330
21
100
AcDbEntity
  8
Layer0
100
AcDbFaceRecord
 10
0.0
 20
0.0
 30
0.0
 70
   128
 71
   -39
 72
   -40
 73
    41
  0
VERTEX
  5
177
330
21
100
AcDbEntity
  8
Layer0
100
AcDbFaceRecord
 10
0.0
 20
0.0
 30
0.0
 70
   128
 71
   -41
 72
    40
 73
   -42
  0
VERTEX
  5
178
330
21
100
AcDbEntity
  8
Layer0
100
AcDbFaceRecord
 10
0.0
 20
0.0
 30
0.0
 70
   128
 71
   -41
 72
   -42
 73
    43
  0
VERTEX
  5
179
330
21
100
AcDbEntity
  8
Layer0
100
AcDbFaceRecord
 10
0.0
 20
0.0
 30
0.0
 70
   128
 71
   -43
 72
    42
 73
   -44
  0
VERTEX
  5
17A
330
21
100
AcDbEntity
  8
Layer0
100
AcDbFaceRecord
 10
0.0
 20
0.0
 30
0.0
 70
   128
 71
   -43
 72
   -44
 73
    45
  0
VERTEX
  5
17B
330
21
100
AcDbEntity
  8
Layer0
100
AcDbFaceRecord
 10
0.0
 20
0.0
 30
0.0
 70
   128
 71
   -45
 72
    44
 73
   -46
  0
VERTEX
  5
17C
330
21
100
AcDbEntity
  8
Layer0
100
AcDbFaceRecord
 10
0.0
 20
0.0
 30
0.0
 70
   128
 71
   -45
 72
   -46
 73
   -47
  0
VERTEX
  5
17D
330
21
100
AcDbEntity
  8
Layer0
100
AcDbFaceRecord
 10
0.0
 20
0.0
 30
0.0
 70
   128
 71
   -45
 72
   -47
 73
    48
  0
VERTEX
  5
17E
330
21
100
AcDbEntity
  8
Layer0
100
AcDbFaceRecord
 10
0.0
 20
0.0
 30
0.0
 70
   128
 71
   -48
 72
    47
 73
    -1
  0
VERTEX
  5
17F
330
21
100
AcDbEntity
  8
Layer0
100
AcDbFaceRecord
 10
0.0
 20
0.0
 30
0.0
 70
   128
 71
   -48
 72
    -1
 73
    49
  0
VERTEX
  5
180
330
21
100
AcDbEntity
  8
Layer0
100
AcDbFaceRecord
 10
0.0
 20
0.0
 30
0.0
 70
   128
 71
   -49
 72
    -1
 73
    50
  0
VERTEX
  5
181
330
21
100
AcDbEntity
  8
Layer0
100
AcDbFaceRecord
 10
0.0
 20
0.0
 30
0.0
 70
   128
 71
   -50
 72
    -1
 73
    51
  0
VERTEX
  5
182
330
21
100
AcDbEntity
  8
Layer0
100
AcDbFaceRecord
 10
0.0
 20
0.0
 30
0.0
 70
   128
 71
   -51
 72
    -1
 73
    52
  0
VERTEX
  5
183
330
21
100
AcDbEntity
  8
Layer0
100
AcDbFaceRecord
 10
0.0
 20
0.0
 30
0.0
 70
   128
 71
   -46
 72
    53
 73
   -47
  0
VERTEX
  5
184
330
21
100
AcDbEntity
  8
Layer0
100
AcDbFaceRecord
 10
0.0
 20
0.0
 30
0.0
 70
   128
 71
   -53
 72
    46
 73
   -54
  0
VERTEX
  5
185
330
21
100
AcDbEntity
  8
Layer0
100
AcDbFaceRecord
 10
0.0
 20
0.0
 30
0.0
 70
   128
 71
   -53
 72
   -54
 73
    16
  0
VERTEX
  5
186
330
21
100
AcDbEntity
  8
Layer0
100
AcDbFaceRecord
 10
0.0
 20
0.0
 30
0.0
 70
   128
 71
   -16
 72
    54
 73
   -55
  0
VERTEX
  5
187
330
21
100
AcDbEntity
  8
Layer0
100
AcDbFaceRecord
 10
0.0
 20
0.0
 30
0.0
 70
   128
 71
   -16
 72
    55
 73
   -56
  0
VERTEX
  5
188
330
21
100
AcDbEntity
  8
Layer0
100
AcDbFaceRecord
 10
0.0
 20
0.0
 30
0.0
 70
   128
 71
   -16
 72
    56
 73
   -57
  0
VERTEX
  5
189
330
21
100
AcDbEntity
  8
Layer0
100
AcDbFaceRecord
 10
0.0
 20
0.0
 30
0.0
 70
   128
 71
   -16
 72
    57
 73
   -58
  0
VERTEX
  5
18A
330
21
100
AcDbEntity
  8
Layer0
100
AcDbFaceRecord
 10
0.0
 20
0.0
 30
0.0
 70
   128
 71
   -59
 72
   -60
 73
    61
  0
VERTEX
  5
18B
330
21
100
AcDbEntity
  8
Layer0
100
AcDbFaceRecord
 10
0.0
 20
0.0
 30
0.0
 70
   128
 71
   -60
 72
   -59
 73
   -62
  0
VERTEX
  5
18C
330
21
100
AcDbEntity
  8
Layer0
100
AcDbFaceRecord
 10
0.0
 20
0.0
 30
0.0
 70
   128
 71
   -61
 72
    60
 73
   -63
  0
VERTEX
  5
18D
330
21
100
AcDbEntity
  8
Layer0
100
AcDbFaceRecord
 10
0.0
 20
0.0
 30
0.0
 70
   128
 71
   -61
 72
   -63
 73
    64
  0
VERTEX
  5
18E
330
21
100
AcDbEntity
  8
Layer0
100
AcDbFaceRecord
 10
0.0
 20
0.0
 30
0.0
 70
   128
 71
   -64
 72
    63
 73
   -65
  0
VERTEX
  5
18F
330
21
100
AcDbEntity
  8
Layer0
100
AcDbFaceRecord
 10
0.0
 20
0.0
 30
0.0
 70
   128
 71
   -64
 72
   -65
 73
    66
  0
VERTEX
  5
190
330
21
100
AcDbEntity
  8
Layer0
100
AcDbFaceRecord
 10
0.0
 20
0.0
 30
0.0
 70
   128
 71
   -66
 72
    65
 73
   -67
  0
VERTEX
  5
191
330
21
100
AcDbEntity
  8
Layer0
100
AcDbFaceRecord
 10
0.0
 20
0.0
 30
0.0
 70
   128
 71
   -66
 72
   -67
 73
    68
  0
VERTEX
  5
192
330
21
100
AcDbEntity
  8
Layer0
100
AcDbFaceRecord
 10
0.0
 20
0.0
 30
0.0
 70
   128
 71
   -68
 72
    67
 73
   -69
  0
VERTEX
  5
193
330
21
100
AcDbEntity
  8
Layer0
100
AcDbFaceRecord
 10
0.0
 20
0.0
 30
0.0
 70
   128
 71
   -68
 72
   -69
 73
    70
  0
VERTEX
  5
194
330
21
100
AcDbEntity
  8
Layer0
100
AcDbFaceRecord
 10
0.0
 20
0.0
 30
0.0
 70
   128
 71
   -70
 72
    69
 73
   -71
  0
VERTEX
  5
195
330
21
100
AcDbEntity
  8
Layer0
100
AcDbFaceRecord
 10
0.0
 20
0.0
 30
0.0
 70
   128
 71
   -70
 72
   -71
 73
    72
  0
VERTEX
  5
196
330
21
100
AcDbEntity
  8
Layer0
100
AcDbFaceRecord
 10
0.0
 20
0.0
 30
0.0
 70
   128
 71
   -72
 72
    71
 73
   -73
  0
VERTEX
  5
197
330
21
100
AcDbEntity
  8
Layer0
100
AcDbFaceRecord
 10
0.0
 20
0.0
 30
0.0
 70
   128
 71
   -72
 72
   -73
 73
    74
  0
VERTEX
  5
198
330
21
100
AcDbEntity
  8
Layer0
100
AcDbFaceRecord
 10
0.0
 20
0.0
 30
0.0
 70
   128
 71
   -74
 72
    73
 73
   -75
  0
VERTEX
  5
199
330
21
100
AcDbEntity
  8
Layer0
100
AcDbFaceRecord
 10
0.0
 20
0.0
 30
0.0
 70
   128
 71
   -74
 72
   -75
 73
    76
  0
VERTEX
  5
19A
330
21
100
AcDbEntity
  8
Layer0
100
AcDbFaceRecord
 10
0.0
 20
0.0
 30
0.0
 70
   128
 71
   -76
 72
    75
 73
   -77
  0
VERTEX
  5
19B
330
21
100
AcDbEntity
  8
Layer0
100
AcDbFaceRecord
 10
0.0
 20
0.0
 30
0.0
 70
   128
 71
   -76
 72
   -77
 73
    78
  0
VERTEX
  5
19C
330
21
100
AcDbEntity
  8
Layer0
100
AcDbFaceRecord
 10
0.0
 20
0.0
 30
0.0
 70
   128
 71
   -78
 72
    77
 73
   -79
  0
VERTEX
  5
19D
330
21
100
AcDbEntity
  8
Layer0
100
AcDbFaceRecord
 10
0.0
 20
0.0
 30
0.0
 70
   128
 71
   -78
 72
   -79
 73
    80
  0
VERTEX
  5
19E
330
21
100
AcDbEntity
  8
Layer0
100
AcDbFaceRecord
 10
0.0
 20
0.0
 30
0.0
 70
   128
 71
   -80
 72
    79
 73
   -81
  0
VERTEX
  5
19F
330
21
100
AcDbEntity
  8
Layer0
100
AcDbFaceRecord
 10
0.0
 20
0.0
 30
0.0
 70
   128
 71
   -80
 72
   -81
 73
    82
  0
VERTEX
  5
1A0
330
21
100
AcDbEntity
  8
Layer0
100
AcDbFaceRecord
 10
0.0
 20
0.0
 30
0.0
 70
   128
 71
   -82
 72
    81
 73
   -83
  0
VERTEX
  5
1A1
330
21
100
AcDbEntity
  8
Layer0
100
AcDbFaceRecord
 10
0.0
 20
0.0
 30
0.0
 70
   128
 71
   -82
 72
   -83
 73
    84
  0
VERTEX
  5
1A2
330
21
100
AcDbEntity
  8
Layer0
100
AcDbFaceRecord
 10
0.0
 20
0.0
 30
0.0
 70
   128
 71
   -84
 72
    83
 73
   -85
  0
VERTEX
  5
1A3
330
21
100
AcDbEntity
  8
Layer0
100
AcDbFaceRecord
 10
0.0
 20
0.0
 30
0.0
 70
   128
 71
   -86
 72
   -87
 73
    88
  0
VERTEX
  5
1A4
330
21
100
AcDbEntity
  8
Layer0
100
AcDbFaceRecord
 10
0.0
 20
0.0
 30
0.0
 70
   128
 71
   -87
 72
   -86
 73
    89
  0
VERTEX
  5
1A5
330
21
100
AcDbEntity
  8
Layer0
100
AcDbFaceRecord
 10
0.0
 20
0.0
 30
0.0
 70
   128
 71
   -89
 72
   -86
 73
    59
  0
VERTEX
  5
1A6
330
21
100
AcDbEntity
  8
Layer0
100
AcDbFaceRecord
 10
0.0
 20
0.0
 30
0.0
 70
   128
 71
   -59
 72
    86
 73
   -90
  0
VERTEX
  5
1A7
330
21
100
AcDbEntity
  8
Layer0
100
AcDbFaceRecord
 10
0.0
 20
0.0
 30
0.0
 70
   128
 71
   -88
 72
    87
 73
   -91
  0
VERTEX
  5
1A8
330
21
100
AcDbEntity
  8
Layer0
100
AcDbFaceRecord
 10
0.0
 20
0.0
 30
0.0
 70
   128
 71
   -88
 72
    91
 73
   -92
  0
VERTEX
  5
1A9
330
21
100
AcDbEntity
  8
Layer0
100
AcDbFaceRecord
 10
0.0
 20
0.0
 30
0.0
 70
   128
 71
   -88
 72
    92
 73
   -93
  0
VERTEX
  5
1AA
330
21
100
AcDbEntity
  8
Layer0
100
AcDbFaceRecord
 10
0.0
 20
0.0
 30
0.0
 70
   128
 71
   -88
 72
    93
 73
   -94
  0
VERTEX
  5
1AB
330
21
100
AcDbEntity
  8
Layer0
100
AcDbFaceRecord
 10
0.0
 20
0.0
 30
0.0
 70
   128
 71
   -88
 72
    94
 73
   -95
  0
VERTEX
  5
1AC
330
21
100
AcDbEntity
  8
Layer0
100
AcDbFaceRecord
 10
0.0
 20
0.0
 30
0.0
 70
   128
 71
   -88
 72
    95
 73
   -96
  0
VERTEX
  5
1AD
330
21
100
AcDbEntity
  8
Layer0
100
AcDbFaceRecord
 10
0.0
 20
0.0
 30
0.0
 70
   128
 71
   -88
 72
    96
 73
   -97
  0
VERTEX
  5
1AE
330
21
100
AcDbEntity
  8
Layer0
100
AcDbFaceRecord
 10
0.0
 20
0.0
 30
0.0
 70
   128
 71
   -88
 72
    97
 73
   -98
  0
VERTEX
  5
1AF
330
21
100
AcDbEntity
  8
Layer0
100
AcDbFaceRecord
 10
0.0
 20
0.0
 30
0.0
 70
   128
 71
   -88
 72
    98
 73
   -99
  0
VERTEX
  5
1B0
330
21
100
AcDbEntity
  8
Layer0
100
AcDbFaceRecord
 10
0.0
 20
0.0
 30
0.0
 70
   128
 71
   -88
 72
    99
 73
   -84
  0
VERTEX
  5
1B1
330
21
100
AcDbEntity
  8
Layer0
100
AcDbFaceRecord
 10
0.0
 20
0.0
 30
0.0
 70
   128
 71
   -88
 72
   -84
 73
   -85
  0
VERTEX
  5
1B2
330
21
100
AcDbEntity
  8
Layer0
100
AcDbFaceRecord
 10
0.0
 20
0.0
 30
0.0
 70
   128
 71
  -100
 72
   -60
 73
    62
  0
VERTEX
  5
1B3
330
21
100
AcDbEntity
  8
Layer0
100
AcDbFaceRecord
 10
0.0
 20
0.0
 30
0.0
 70
   128
 71
   -60
 72
  -100
 73
   101
  0
VERTEX
  5
1B4
330
21
100
AcDbEntity
  8
Layer0
100
AcDbFaceRecord
 10
0.0
 20
0.0
 30
0.0
 70
   128
 71
  -101
 72
   100
 73
  -102
  0
VERTEX
  5
1B5
330
21
100
AcDbEntity
  8
Layer0
100
AcDbFaceRecord
 10
0.0
 20
0.0
 30
0.0
 70
   128
 71
  -101
 72
  -102
 73
   103
  0
VERTEX
  5
1B6
330
21
100
AcDbEntity
  8
Layer0
100
AcDbFaceRecord
 10
0.0
 20
0.0
 30
0.0
 70
   128
 71
  -103
 72
   102
 73
  -104
  0
VERTEX
  5
1B7
330
21
100
AcDbEntity
  8
Layer0
100
AcDbFaceRecord
 10
0.0
 20
0.0
 30
0.0
 70
   128
 71
  -103
 72
  -104
 73
   105
  0
VERTEX
  5
1B8
330
21
100
AcDbEntity
  8
Layer0
100
AcDbFaceRecord
 10
0.0
 20
0.0
 30
0.0
 70
   128
 71
  -105
 72
   104
 73
  -106
  0
VERTEX
  5
1B9
330
21
100
AcDbEntity
  8
Layer0
100
AcDbFaceRecord
 10
0.0
 20
0.0
 30
0.0
 70
   128
 71
  -105
 72
  -106
 73
   107
  0
VERTEX
  5
1BA
330
21
100
AcDbEntity
  8
Layer0
100
AcDbFaceRecord
 10
0.0
 20
0.0
 30
0.0
 70
   128
 71
  -107
 72
   106
 73
  -108
  0
VERTEX
  5
1BB
330
21
100
AcDbEntity
  8
Layer0
100
AcDbFaceRecord
 10
0.0
 20
0.0
 30
0.0
 70
   128
 71
  -107
 72
  -108
 73
   109
  0
VERTEX
  5
1BC
330
21
100
AcDbEntity
  8
Layer0
100
AcDbFaceRecord
 10
0.0
 20
0.0
 30
0.0
 70
   128
 71
  -109
 72
   108
 73
  -110
  0
VERTEX
  5
1BD
330
21
100
AcDbEntity
  8
Layer0
100
AcDbFaceRecord
 10
0.0
 20
0.0
 30
0.0
 70
   128
 71
  -109
 72
  -110
 73
   111
  0
VERTEX
  5
1BE
330
21
100
AcDbEntity
  8
Layer0
100
AcDbFaceRecord
 10
0.0
 20
0.0
 30
0.0
 70
   128
 71
  -111
 72
   110
 73
  -112
  0
VERTEX
  5
1BF
330
21
100
AcDbEntity
  8
Layer0
100
AcDbFaceRecord
 10
0.0
 20
0.0
 30
0.0
 70
   128
 71
  -111
 72
  -112
 73
   113
  0
VERTEX
  5
1C0
330
21
100
AcDbEntity
  8
Layer0
100
AcDbFaceRecord
 10
0.0
 20
0.0
 30
0.0
 70
   128
 71
  -113
 72
   112
 73
  -114
  0
VERTEX
  5
1C1
330
21
100
AcDbEntity
  8
Layer0
100
AcDbFaceRecord
 10
0.0
 20
0.0
 30
0.0
 70
   128
 71
  -113
 72
  -114
 73
   115
  0
VERTEX
  5
1C2
330
21
100
AcDbEntity
  8
Layer0
100
AcDbFaceRecord
 10
0.0
 20
0.0
 30
0.0
 70
   128
 71
  -115
 72
   114
 73
  -116
  0
VERTEX
  5
1C3
330
21
100
AcDbEntity
  8
Layer0
100
AcDbFaceRecord
 10
0.0
 20
0.0
 30
0.0
 70
   128
 71
  -115
 72
  -116
 73
   117
  0
VERTEX
  5
1C4
330
21
100
AcDbEntity
  8
Layer0
100
AcDbFaceRecord
 10
0.0
 20
0.0
 30
0.0
 70
   128
 71
  -117
 72
   116
 73
  -118
  0
VERTEX
  5
1C5
330
21
100
AcDbEntity
  8
Layer0
100
AcDbFaceRecord
 10
0.0
 20
0.0
 30
0.0
 70
   128
 71
  -117
 72
  -118
 73
   119
  0
VERTEX
  5
1C6
330
21
100
AcDbEntity
  8
Layer0
100
AcDbFaceRecord
 10
0.0
 20
0.0
 30
0.0
 70
   128
 71
  -119
 72
   118
 73
  -120
  0
VERTEX
  5
1C7
330
21
100
AcDbEntity
  8
Layer0
100
AcDbFaceRecord
 10
0.0
 20
0.0
 30
0.0
 70
   128
 71
  -119
 72
  -120
 73
   121
  0
VERTEX
  5
1C8
330
21
100
AcDbEntity
  8
Layer0
100
AcDbFaceRecord
 10
0.0
 20
0.0
 30
0.0
 70
   128
 71
  -121
 72
   120
 73
  -122
  0
VERTEX
  5
1C9
330
21
100
AcDbEntity
  8
Layer0
100
AcDbFaceRecord
 10
0.0
 20
0.0
 30
0.0
 70
   128
 71
  -121
 72
  -122
 73
    85
  0
VERTEX
  5
1CA
330
21
100
AcDbEntity
  8
Layer0
100
AcDbFaceRecord
 10
0.0
 20
0.0
 30
0.0
 70
   128
 71
  -123
 72
   124
 73
   -18
  0
VERTEX
  5
1CB
330
21
100
AcDbEntity
  8
Layer0
100
AcDbFaceRecord
 10
0.0
 20
0.0
 30
0.0
 70
   128
 71
  -124
 72
   123
 73
  -125
  0
VERTEX
  5
1CC
330
21
100
AcDbEntity
  8
Layer0
100
AcDbFaceRecord
 10
0.0
 20
0.0
 30
0.0
 70
   128
 71
  -124
 72
   125
 73
  -126
  0
VERTEX
  5
1CD
330
21
100
AcDbEntity
  8
Layer0
100
AcDbFaceRecord
 10
0.0
 20
0.0
 30
0.0
 70
   128
 71
  -124
 72
   126
 73
  -127
  0
VERTEX
  5
1CE
330
21
100
AcDbEntity
  8
Layer0
100
AcDbFaceRecord
 10
0.0
 20
0.0
 30
0.0
 70
   128
 71
  -124
 72
   127
 73
  -128
  0
VERTEX
  5
1CF
330
21
100
AcDbEntity
  8
Layer0
100
AcDbFaceRecord
 10
0.0
 20
0.0
 30
0.0
 70
   128
 71
  -124
 72
   128
 73
  -129
  0
VERTEX
  5
1D0
330
21
100
AcDbEntity
  8
Layer0
100
AcDbFaceRecord
 10
0.0
 20
0.0
 30
0.0
 70
   128
 71
  -124
 72
   129
 73
  -130
  0
VERTEX
  5
1D1
330
21
100
AcDbEntity
  8
Layer0
100
AcDbFaceRecord
 10
0.0
 20
0.0
 30
0.0
 70
   128
 71
   -90
 72
   -62
 73
   -59
  0
VERTEX
  5
1D2
330
21
100
AcDbEntity
  8
Layer0
100
AcDbFaceRecord
 10
0.0
 20
0.0
 30
0.0
 70
   128
 71
   -62
 72
   -90
 73
   131
  0
VERTEX
  5
1D3
330
21
100
AcDbEntity
  8
Layer0
100
AcDbFaceRecord
 10
0.0
 20
0.0
 30
0.0
 70
   128
 71
  -131
 72
   -90
 73
   132
  0
VERTEX
  5
1D4
330
21
100
AcDbEntity
  8
Layer0
100
AcDbFaceRecord
 10
0.0
 20
0.0
 30
0.0
 70
   128
 71
  -132
 72
    90
 73
  -133
  0
VERTEX
  5
1D5
330
21
100
AcDbEntity
  8
Layer0
100
AcDbFaceRecord
 10
0.0
 20
0.0
 30
0.0
 70
   128
 71
  -132
 72
  -133
 73
   134
  0
VERTEX
  5
1D6
330
21
100
AcDbEntity
  8
Layer0
100
AcDbFaceRecord
 10
0.0
 20
0.0
 30
0.0
 70
   128
 71
  -134
 72
  -133
 73
   135
  0
VERTEX
  5
1D7
330
21
100
AcDbEntity
  8
Layer0
100
AcDbFaceRecord
 10
0.0
 20
0.0
 30
0.0
 70
   128
 71
  -135
 72
  -133
 73
   136
  0
VERTEX
  5
1D8
330
21
100
AcDbEntity
  8
Layer0
100
AcDbFaceRecord
 10
0.0
 20
0.0
 30
0.0
 70
   128
 71
  -136
 72
  -133
 73
   137
  0
VERTEX
  5
1D9
330
21
100
AcDbEntity
  8
Layer0
100
AcDbFaceRecord
 10
0.0
 20
0.0
 30
0.0
 70
   128
 71
  -137
 72
  -133
 73
   138
  0
VERTEX
  5
1DA
330
21
100
AcDbEntity
  8
Layer0
100
AcDbFaceRecord
 10
0.0
 20
0.0
 30
0.0
 70
   128
 71
  -138
 72
  -133
 73
   139
  0
VERTEX
  5
1DB
330
21
100
AcDbEntity
  8
Layer0
100
AcDbFaceRecord
 10
0.0
 20
0.0
 30
0.0
 70
   128
 71
  -139
 72
  -133
 73
   140
  0
VERTEX
  5
1DC
330
21
100
AcDbEntity
  8
Layer0
100
AcDbFaceRecord
 10
0.0
 20
0.0
 30
0.0
 70
   128
 71
  -140
 72
  -133
 73
   141
  0
VERTEX
  5
1DD
330
21
100
AcDbEntity
  8
Layer0
100
AcDbFaceRecord
 10
0.0
 20
0.0
 30
0.0
 70
   128
 71
  -141
 72
  -133
 73
   142
  0
VERTEX
  5
1DE
330
21
100
AcDbEntity
  8
Layer0
100
AcDbFaceRecord
 10
0.0
 20
0.0
 30
0.0
 70
   128
 71
  -142
 72
  -133
 73
   122
  0
VERTEX
  5
1DF
330
21
100
AcDbEntity
  8
Layer0
100
AcDbFaceRecord
 10
0.0
 20
0.0
 30
0.0
 70
   128
 71
  -122
 72
  -133
 73
   -85
  0
VERTEX
  5
1E0
330
21
100
AcDbEntity
  8
Layer0
100
AcDbFaceRecord
 10
0.0
 20
0.0
 30
0.0
 70
   128
 71
   -85
 72
  -133
 73
   -88
  0
VERTEX
  5
1E1
330
21
100
AcDbEntity
  8
Layer0
100
AcDbFaceRecord
 10
0.0
 20
0.0
 30
0.0
 70
   128
 71
   -88
 72
  -133
 73
   -33
  0
VERTEX
  5
1E2
330
21
100
AcDbEntity
  8
Layer0
100
AcDbFaceRecord
 10
0.0
 20
0.0
 30
0.0
 70
   128
 71
   -88
 72
    33
 73
  -143
  0
VERTEX
  5
1E3
330
21
100
AcDbEntity
  8
Layer0
100
AcDbFaceRecord
 10
0.0
 20
0.0
 30
0.0
 70
   128
 71
   -88
 72
   143
 73
  -144
  0
VERTEX
  5
1E4
330
21
100
AcDbEntity
  8
Layer0
100
AcDbFaceRecord
 10
0.0
 20
0.0
 30
0.0
 70
   128
 71
   -88
 72
   144
 73
  -145
  0
VERTEX
  5
1E5
330
21
100
AcDbEntity
  8
Layer0
100
AcDbFaceRecord
 10
0.0
 20
0.0
 30
0.0
 70
   128
 71
   -88
 72
   145
 73
  -146
  0
VERTEX
  5
1E6
330
21
100
AcDbEntity
  8
Layer0
100
AcDbFaceRecord
 10
0.0
 20
0.0
 30
0.0
 70
   128
 71
   -88
 72
   146
 73
  -147
  0
VERTEX
  5
1E7
330
21
100
AcDbEntity
  8
Layer0
100
AcDbFaceRecord
 10
0.0
 20
0.0
 30
0.0
 70
   128
 71
   -88
 72
   147
 73
  -148
  0
VERTEX
  5
1E8
330
21
100
AcDbEntity
  8
Layer0
100
AcDbFaceRecord
 10
0.0
 20
0.0
 30
0.0
 70
   128
 71
   -88
 72
  -148
 73
   149
  0
VERTEX
  5
1E9
330
21
100
AcDbEntity
  8
Layer0
100
AcDbFaceRecord
 10
0.0
 20
0.0
 30
0.0
 70
   128
 71
  -149
 72
   148
 73
  -150
  0
VERTEX
  5
1EA
330
21
100
AcDbEntity
  8
Layer0
100
AcDbFaceRecord
 10
0.0
 20
0.0
 30
0.0
 70
   128
 71
  -149
 72
   150
 73
  -151
  0
VERTEX
  5
1EB
330
21
100
AcDbEntity
  8
Layer0
100
AcDbFaceRecord
 10
0.0
 20
0.0
 30
0.0
 70
   128
 71
  -149
 72
   151
 73
  -152
  0
VERTEX
  5
1EC
330
21
100
AcDbEntity
  8
Layer0
100
AcDbFaceRecord
 10
0.0
 20
0.0
 30
0.0
 70
   128
 71
  -149
 72
   152
 73
  -153
  0
VERTEX
  5
1ED
330
21
100
AcDbEntity
  8
Layer0
100
AcDbFaceRecord
 10
0.0
 20
0.0
 30
0.0
 70
   128
 71
  -149
 72
   153
 73
  -154
  0
VERTEX
  5
1EE
330
21
100
AcDbEntity
  8
Layer0
100
AcDbFaceRecord
 10
0.0
 20
0.0
 30
0.0
 70
   128
 71
  -149
 72
   154
 73
   -52
  0
VERTEX
  5
1EF
330
21
100
AcDbEntity
  8
Layer0
100
AcDbFaceRecord
 10
0.0
 20
0.0
 30
0.0
 70
   128
 71
  -149
 72
   -52
 73
  -155
  0
VERTEX
  5
1F0
330
21
100
AcDbEntity
  8
Layer0
100
AcDbFaceRecord
 10
0.0
 20
0.0
 30
0.0
 70
   128
 71
  -155
 72
   -52
 73
   156
  0
VERTEX
  5
1F1
330
21
100
AcDbEntity
  8
Layer0
100
AcDbFaceRecord
 10
0.0
 20
0.0
 30
0.0
 70
   128
 71
  -156
 72
   -52
 73
    -1
  0
VERTEX
  5
1F2
330
21
100
AcDbEntity
  8
Layer0
100
AcDbFaceRecord
 10
0.0
 20
0.0
 30
0.0
 70
   128
 71
  -156
 72
    -1
 73
   157
  0
VERTEX
  5
1F3
330
21
100
AcDbEntity
  8
Layer0
100
AcDbFaceRecord
 10
0.0
 20
0.0
 30
0.0
 70
   128
 71
  -157
 72
    -1
 73
   158
  0
VERTEX
  5
1F4
330
21
100
AcDbEntity
  8
Layer0
100
AcDbFaceRecord
 10
0.0
 20
0.0
 30
0.0
 70
   128
 71
  -158
 72
    -1
 73
   159
  0
VERTEX
  5
1F5
330
21
100
AcDbEntity
  8
Layer0
100
AcDbFaceRecord
 10
0.0
 20
0.0
 30
0.0
 70
   128
 71
  -159
 72
    -1
 73
   160
  0
VERTEX
  5
1F6
330
21
100
AcDbEntity
  8
Layer0
100
AcDbFaceRecord
 10
0.0
 20
0.0
 30
0.0
 70
   128
 71
  -160
 72
    -1
 73
     3
  0
VERTEX
  5
1F7
330
21
100
AcDbEntity
  8
Layer0
100
AcDbFaceRecord
 10
0.0
 20
0.0
 30
0.0
 70
   128
 71
  -149
 72
   155
 73
  -161
  0
VERTEX
  5
1F8
330
21
100
AcDbEntity
  8
Layer0
100
AcDbFaceRecord
 10
0.0
 20
0.0
 30
0.0
 70
   128
 71
  -149
 72
   161
 73
  -162
  0
VERTEX
  5
1F9
330
21
100
AcDbEntity
  8
Layer0
100
AcDbFaceRecord
 10
0.0
 20
0.0
 30
0.0
 70
   128
 71
  -149
 72
   162
 73
  -163
  0
VERTEX
  5
1FA
330
21
100
AcDbEntity
  8
Layer0
100
AcDbFaceRecord
 10
0.0
 20
0.0
 30
0.0
 70
   128
 71
  -149
 72
   163
 73
  -164
  0
VERTEX
  5
1FB
330
21
100
AcDbEntity
  8
Layer0
100
AcDbFaceRecord
 10
0.0
 20
0.0
 30
0.0
 70
   128
 71
  -149
 72
   164
 73
  -165
  0
VERTEX
  5
1FC
330
21
100
AcDbEntity
  8
Layer0
100
AcDbFaceRecord
 10
0.0
 20
0.0
 30
0.0
 70
   128
 71
  -149
 72
   165
 73
   -15
  0
VERTEX
  5
1FD
330
21
100
AcDbEntity
  8
Layer0
100
AcDbFaceRecord
 10
0.0
 20
0.0
 30
0.0
 70
   128
 71
  -149
 72
   -15
 73
  -166
  0
VERTEX
  5
1FE
330
21
100
AcDbEntity
  8
Layer0
100
AcDbFaceRecord
 10
0.0
 20
0.0
 30
0.0
 70
   128
 71
  -166
 72
   -15
 73
   167
  0
VERTEX
  5
1FF
330
21
100
AcDbEntity
  8
Layer0
100
AcDbFaceRecord
 10
0.0
 20
0.0
 30
0.0
 70
   128
 71
  -167
 72
   -15
 73
    -8
  0
VERTEX
  5
200
330
21
100
AcDbEntity
  8
Layer0
100
AcDbFaceRecord
 10
0.0
 20
0.0
 30
0.0
 70
   128
 71
  -167
 72
    -8
 73
   168
  0
VERTEX
  5
201
330
21
100
AcDbEntity
  8
Layer0
100
AcDbFaceRecord
 10
0.0
 20
0.0
 30
0.0
 70
   128
 71
  -149
 72
   166
 73
  -169
  0
VERTEX
  5
202
330
21
100
AcDbEntity
  8
Layer0
100
AcDbFaceRecord
 10
0.0
 20
0.0
 30
0.0
 70
   128
 71
  -149
 72
   169
 73
  -170
  0
VERTEX
  5
203
330
21
100
AcDbEntity
  8
Layer0
100
AcDbFaceRecord
 10
0.0
 20
0.0
 30
0.0
 70
   128
 71
  -149
 72
   170
 73
  -171
  0
VERTEX
  5
204
330
21
100
AcDbEntity
  8
Layer0
100
AcDbFaceRecord
 10
0.0
 20
0.0
 30
0.0
 70
   128
 71
  -149
 72
   171
 73
  -172
  0
VERTEX
  5
205
330
21
100
AcDbEntity
  8
Layer0
100
AcDbFaceRecord
 10
0.0
 20
0.0
 30
0.0
 70
   128
 71
  -149
 72
   172
 73
  -173
  0
VERTEX
  5
206
330
21
100
AcDbEntity
  8
Layer0
100
AcDbFaceRecord
 10
0.0
 20
0.0
 30
0.0
 70
   128
 71
  -149
 72
   173
 73
  -174
  0
VERTEX
  5
207
330
21
100
AcDbEntity
  8
Layer0
100
AcDbFaceRecord
 10
0.0
 20
0.0
 30
0.0
 70
   128
 71
  -149
 72
   174
 73
  -175
  0
VERTEX
  5
208
330
21
100
AcDbEntity
  8
Layer0
100
AcDbFaceRecord
 10
0.0
 20
0.0
 30
0.0
 70
   128
 71
  -149
 72
   175
 73
  -176
  0
VERTEX
  5
209
330
21
100
AcDbEntity
  8
Layer0
100
AcDbFaceRecord
 10
0.0
 20
0.0
 30
0.0
 70
   128
 71
  -149
 72
   176
 73
  -177
  0
VERTEX
  5
20A
330
21
100
AcDbEntity
  8
Layer0
100
AcDbFaceRecord
 10
0.0
 20
0.0
 30
0.0
 70
   128
 71
  -149
 72
   177
 73
  -178
  0
VERTEX
  5
20B
330
21
100
AcDbEntity
  8
Layer0
100
AcDbFaceRecord
 10
0.0
 20
0.0
 30
0.0
 70
   128
 71
  -179
 72
  -168
 73
     8
  0
VERTEX
  5
20C
330
21
100
AcDbEntity
  8
Layer0
100
AcDbFaceRecord
 10
0.0
 20
0.0
 30
0.0
 70
   128
 71
  -168
 72
  -179
 73
   180
  0
VERTEX
  5
20D
330
21
100
AcDbEntity
  8
Layer0
100
AcDbFaceRecord
 10
0.0
 20
0.0
 30
0.0
 70
   128
 71
  -180
 72
  -179
 73
   181
  0
VERTEX
  5
20E
330
21
100
AcDbEntity
  8
Layer0
100
AcDbFaceRecord
 10
0.0
 20
0.0
 30
0.0
 70
   128
 71
  -181
 72
  -179
 73
   182
  0
VERTEX
  5
20F
330
21
100
AcDbEntity
  8
Layer0
100
AcDbFaceRecord
 10
0.0
 20
0.0
 30
0.0
 70
   128
 71
  -182
 72
  -179
 73
   183
  0
VERTEX
  5
210
330
21
100
AcDbEntity
  8
Layer0
100
AcDbFaceRecord
 10
0.0
 20
0.0
 30
0.0
 70
   128
 71
  -183
 72
  -179
 73
   184
  0
VERTEX
  5
211
330
21
100
AcDbEntity
  8
Layer0
100
AcDbFaceRecord
 10
0.0
 20
0.0
 30
0.0
 70
   128
 71
  -184
 72
   179
 73
  -124
  0
VERTEX
  5
212
330
21
100
AcDbEntity
  8
Layer0
100
AcDbFaceRecord
 10
0.0
 20
0.0
 30
0.0
 70
   128
 71
  -184
 72
  -124
 73
  -130
  0
VERTEX
  5
213
330
21
100
AcDbEntity
  8
Layer0
100
AcDbFaceRecord
 10
0.0
 20
0.0
 30
0.0
 70
   128
 71
  -184
 72
   130
 73
  -185
  0
VERTEX
  5
214
330
21
100
AcDbEntity
  8
Layer0
100
AcDbFaceRecord
 10
0.0
 20
0.0
 30
0.0
 70
   128
 71
  -184
 72
  -185
 73
   186
  0
VERTEX
  5
215
330
21
100
AcDbEntity
  8
Layer0
100
AcDbFaceRecord
 10
0.0
 20
0.0
 30
0.0
 70
   128
 71
  -186
 72
   185
 73
  -187
  0
VERTEX
  5
216
330
21
100
AcDbEntity
  8
Layer0
100
AcDbFaceRecord
 10
0.0
 20
0.0
 30
0.0
 70
   128
 71
  -186
 72
  -187
 73
   188
  0
VERTEX
  5
217
330
21
100
AcDbEntity
  8
Layer0
100
AcDbFaceRecord
 10
0.0
 20
0.0
 30
0.0
 70
   128
 71
  -188
 72
   187
 73
  -189
  0
VERTEX
  5
218
330
21
100
AcDbEntity
  8
Layer0
100
AcDbFaceRecord
 10
0.0
 20
0.0
 30
0.0
 70
   128
 71
  -188
 72
  -189
 73
   190
  0
VERTEX
  5
219
330
21
100
AcDbEntity
  8
Layer0
100
AcDbFaceRecord
 10
0.0
 20
0.0
 30
0.0
 70
   128
 71
  -190
 72
   189
 73
  -191
  0
VERTEX
  5
21A
330
21
100
AcDbEntity
  8
Layer0
100
AcDbFaceRecord
 10
0.0
 20
0.0
 30
0.0
 70
   128
 71
  -190
 72
  -191
 73
   192
  0
VERTEX
  5
21B
330
21
100
AcDbEntity
  8
Layer0
100
AcDbFaceRecord
 10
0.0
 20
0.0
 30
0.0
 70
   128
 71
  -192
 72
   191
 73
  -193
  0
VERTEX
  5
21C
330
21
100
AcDbEntity
  8
Layer0
100
AcDbFaceRecord
 10
0.0
 20
0.0
 30
0.0
 70
   128
 71
  -192
 72
   193
 73
  -194
  0
VERTEX
  5
21D
330
21
100
AcDbEntity
  8
Layer0
100
AcDbFaceRecord
 10
0.0
 20
0.0
 30
0.0
 70
   128
 71
  -192
 72
  -194
 73
   195
  0
VERTEX
  5
21E
330
21
100
AcDbEntity
  8
Layer0
100
AcDbFaceRecord
 10
0.0
 20
0.0
 30
0.0
 70
   128
 71
  -195
 72
   194
 73
  -196
  0
VERTEX
  5
21F
330
21
100
AcDbEntity
  8
Layer0
100
AcDbFaceRecord
 10
0.0
 20
0.0
 30
0.0
 70
   128
 71
  -195
 72
  -196
 73
   197
  0
VERTEX
  5
220
330
21
100
AcDbEntity
  8
Layer0
100
AcDbFaceRecord
 10
0.0
 20
0.0
 30
0.0
 70
   128
 71
  -197
 72
   196
 73
  -198
  0
VERTEX
  5
221
330
21
100
AcDbEntity
  8
Layer0
100
AcDbFaceRecord
 10
0.0
 20
0.0
 30
0.0
 70
   128
 71
  -197
 72
  -198
 73
   178
  0
VERTEX
  5
222
330
21
100
AcDbEntity
  8
Layer0
100
AcDbFaceRecord
 10
0.0
 20
0.0
 30
0.0
 70
   128
 71
  -199
 72
  -200
 73
   201
  0
VERTEX
  5
223
330
21
100
AcDbEntity
  8
Layer0
100
AcDbFaceRecord
 10
0.0
 20
0.0
 30
0.0
 70
   128
 71
  -200
 72
  -199
 73
  -202
  0
VERTEX
  5
224
330
21
100
AcDbEntity
  8
Layer0
100
AcDbFaceRecord
 10
0.0
 20
0.0
 30
0.0
 70
   128
 71
  -201
 72
   200
 73
  -203
  0
VERTEX
  5
225
330
21
100
AcDbEntity
  8
Layer0
100
AcDbFaceRecord
 10
0.0
 20
0.0
 30
0.0
 70
   128
 71
  -201
 72
  -203
 73
   204
  0
VERTEX
  5
226
330
21
100
AcDbEntity
  8
Layer0
100
AcDbFaceRecord
 10
0.0
 20
0.0
 30
0.0
 70
   128
 71
  -204
 72
   203
 73
  -205
  0
VERTEX
  5
227
330
21
100
AcDbEntity
  8
Layer0
100
AcDbFaceRecord
 10
0.0
 20
0.0
 30
0.0
 70
   128
 71
  -204
 72
  -205
 73
   206
  0
VERTEX
  5
228
330
21
100
AcDbEntity
  8
Layer0
100
AcDbFaceRecord
 10
0.0
 20
0.0
 30
0.0
 70
   128
 71
  -206
 72
   205
 73
  -207
  0
VERTEX
  5
229
330
21
100
AcDbEntity
  8
Layer0
100
AcDbFaceRecord
 10
0.0
 20
0.0
 30
0.0
 70
   128
 71
  -206
 72
  -207
 73
   208
  0
VERTEX
  5
22A
330
21
100
AcDbEntity
  8
Layer0
100
AcDbFaceRecord
 10
0.0
 20
0.0
 30
0.0
 70
   128
 71
  -208
 72
   207
 73
  -209
  0
VERTEX
  5
22B
330
21
100
AcDbEntity
  8
Layer0
100
AcDbFaceRecord
 10
0.0
 20
0.0
 30
0.0
 70
   128
 71
  -208
 72
  -209
 73
   210
  0
VERTEX
  5
22C
330
21
100
AcDbEntity
  8
Layer0
100
AcDbFaceRecord
 10
0.0
 20
0.0
 30
0.0
 70
   128
 71
  -210
 72
   209
 73
  -211
  0
VERTEX
  5
22D
330
21
100
AcDbEntity
  8
Layer0
100
AcDbFaceRecord
 10
0.0
 20
0.0
 30
0.0
 70
   128
 71
  -210
 72
  -211
 73
   212
  0
VERTEX
  5
22E
330
21
100
AcDbEntity
  8
Layer0
100
AcDbFaceRecord
 10
0.0
 20
0.0
 30
0.0
 70
   128
 71
  -212
 72
   211
 73
  -213
  0
VERTEX
  5
22F
330
21
100
AcDbEntity
  8
Layer0
100
AcDbFaceRecord
 10
0.0
 20
0.0
 30
0.0
 70
   128
 71
  -212
 72
  -213
 73
   214
  0
VERTEX
  5
230
330
21
100
AcDbEntity
  8
Layer0
100
AcDbFaceRecord
 10
0.0
 20
0.0
 30
0.0
 70
   128
 71
  -214
 72
   213
 73
  -215
  0
VERTEX
  5
231
330
21
100
AcDbEntity
  8
Layer0
100
AcDbFaceRecord
 10
0.0
 20
0.0
 30
0.0
 70
   128
 71
  -214
 72
  -215
 73
   216
  0
VERTEX
  5
232
330
21
100
AcDbEntity
  8
Layer0
100
AcDbFaceRecord
 10
0.0
 20
0.0
 30
0.0
 70
   128
 71
  -216
 72
   215
 73
  -217
  0
VERTEX
  5
233
330
21
100
AcDbEntity
  8
Layer0
100
AcDbFaceRecord
 10
0.0
 20
0.0
 30
0.0
 70
   128
 71
  -216
 72
  -217
 73
   218
  0
VERTEX
  5
234
330
21
100
AcDbEntity
  8
Layer0
100
AcDbFaceRecord
 10
0.0
 20
0.0
 30
0.0
 70
   128
 71
  -218
 72
   217
 73
  -219
  0
VERTEX
  5
235
330
21
100
AcDbEntity
  8
Layer0
100
AcDbFaceRecord
 10
0.0
 20
0.0
 30
0.0
 70
   128
 71
  -218
 72
  -219
 73
   220
  0
VERTEX
  5
236
330
21
100
AcDbEntity
  8
Layer0
100
AcDbFaceRecord
 10
0.0
 20
0.0
 30
0.0
 70
   128
 71
  -220
 72
   219
 73
  -221
  0
VERTEX
  5
237
330
21
100
AcDbEntity
  8
Layer0
100
AcDbFaceRecord
 10
0.0
 20
0.0
 30
0.0
 70
   128
 71
  -220
 72
  -221
 73
   222
  0
VERTEX
  5
238
330
21
100
AcDbEntity
  8
Layer0
100
AcDbFaceRecord
 10
0.0
 20
0.0
 30
0.0
 70
   128
 71
  -222
 72
   221
 73
  -223
  0
VERTEX
  5
239
330
21
100
AcDbEntity
  8
Layer0
100
AcDbFaceRecord
 10
0.0
 20
0.0
 30
0.0
 70
   128
 71
  -222
 72
  -223
 73
   224
  0
VERTEX
  5
23A
330
21
100
AcDbEntity
  8
Layer0
100
AcDbFaceRecord
 10
0.0
 20
0.0
 30
0.0
 70
   128
 71
  -224
 72
   223
 73
  -225
  0
VERTEX
  5
23B
330
21
100
AcDbEntity
  8
Layer0
100
AcDbFaceRecord
 10
0.0
 20
0.0
 30
0.0
 70
   128
 71
  -226
 72
  -202
 73
  -199
  0
VERTEX
  5
23C
330
21
100
AcDbEntity
  8
Layer0
100
AcDbFaceRecord
 10
0.0
 20
0.0
 30
0.0
 70
   128
 71
  -202
 72
  -226
 73
   227
  0
VERTEX
  5
23D
330
21
100
AcDbEntity
  8
Layer0
100
AcDbFaceRecord
 10
0.0
 20
0.0
 30
0.0
 70
   128
 71
  -227
 72
  -226
 73
   228
  0
VERTEX
  5
23E
330
21
100
AcDbEntity
  8
Layer0
100
AcDbFaceRecord
 10
0.0
 20
0.0
 30
0.0
 70
   128
 71
  -228
 72
  -226
 73
   229
  0
VERTEX
  5
23F
330
21
100
AcDbEntity
  8
Layer0
100
AcDbFaceRecord
 10
0.0
 20
0.0
 30
0.0
 70
   128
 71
  -229
 72
  -226
 73
   230
  0
VERTEX
  5
240
330
21
100
AcDbEntity
  8
Layer0
100
AcDbFaceRecord
 10
0.0
 20
0.0
 30
0.0
 70
   128
 71
  -230
 72
  -226
 73
   231
  0
VERTEX
  5
241
330
21
100
AcDbEntity
  8
Layer0
100
AcDbFaceRecord
 10
0.0
 20
0.0
 30
0.0
 70
   128
 71
  -231
 72
   226
 73
  -232
  0
VERTEX
  5
242
330
21
100
AcDbEntity
  8
Layer0
100
AcDbFaceRecord
 10
0.0
 20
0.0
 30
0.0
 70
   128
 71
  -231
 72
  -232
 73
   233
  0
VERTEX
  5
243
330
21
100
AcDbEntity
  8
Layer0
100
AcDbFaceRecord
 10
0.0
 20
0.0
 30
0.0
 70
   128
 71
  -233
 72
  -232
 73
   234
  0
VERTEX
  5
244
330
21
100
AcDbEntity
  8
Layer0
100
AcDbFaceRecord
 10
0.0
 20
0.0
 30
0.0
 70
   128
 71
  -234
 72
  -232
 73
   235
  0
VERTEX
  5
245
330
21
100
AcDbEntity
  8
Layer0
100
AcDbFaceRecord
 10
0.0
 20
0.0
 30
0.0
 70
   128
 71
  -235
 72
  -232
 73
   236
  0
VERTEX
  5
246
330
21
100
AcDbEntity
  8
Layer0
100
AcDbFaceRecord
 10
0.0
 20
0.0
 30
0.0
 70
   128
 71
  -236
 72
  -232
 73
   237
  0
VERTEX
  5
247
330
21
100
AcDbEntity
  8
Layer0
100
AcDbFaceRecord
 10
0.0
 20
0.0
 30
0.0
 70
   128
 71
  -237
 72
  -232
 73
   238
  0
VERTEX
  5
248
330
21
100
AcDbEntity
  8
Layer0
100
AcDbFaceRecord
 10
0.0
 20
0.0
 30
0.0
 70
   128
 71
  -238
 72
  -232
 73
   239
  0
VERTEX
  5
249
330
21
100
AcDbEntity
  8
Layer0
100
AcDbFaceRecord
 10
0.0
 20
0.0
 30
0.0
 70
   128
 71
  -239
 72
  -232
 73
  -225
  0
VERTEX
  5
24A
330
21
100
AcDbEntity
  8
Layer0
100
AcDbFaceRecord
 10
0.0
 20
0.0
 30
0.0
 70
   128
 71
  -225
 72
   232
 73
  -240
  0
VERTEX
  5
24B
330
21
100
AcDbEntity
  8
Layer0
100
AcDbFaceRecord
 10
0.0
 20
0.0
 30
0.0
 70
   128
 71
  -133
 72
   -31
 73
   -33
  0
VERTEX
  5
24C
330
21
100
AcDbEntity
  8
Layer0
100
AcDbFaceRecord
 10
0.0
 20
0.0
 30
0.0
 70
   128
 71
   -31
 72
  -133
 73
   241
  0
VERTEX
  5
24D
330
21
100
AcDbEntity
  8
Layer0
100
AcDbFaceRecord
 10
0.0
 20
0.0
 30
0.0
 70
   128
 71
  -241
 72
  -133
 73
   242
  0
VERTEX
  5
24E
330
21
100
AcDbEntity
  8
Layer0
100
AcDbFaceRecord
 10
0.0
 20
0.0
 30
0.0
 70
   128
 71
  -242
 72
  -133
 73
   243
  0
VERTEX
  5
24F
330
21
100
AcDbEntity
  8
Layer0
100
AcDbFaceRecord
 10
0.0
 20
0.0
 30
0.0
 70
   128
 71
  -243
 72
  -133
 73
   244
  0
VERTEX
  5
250
330
21
100
AcDbEntity
  8
Layer0
100
AcDbFaceRecord
 10
0.0
 20
0.0
 30
0.0
 70
   128
 71
  -244
 72
  -133
 73
   245
  0
VERTEX
  5
251
330
21
100
AcDbEntity
  8
Layer0
100
AcDbFaceRecord
 10
0.0
 20
0.0
 30
0.0
 70
   128
 71
  -245
 72
  -133
 73
   246
  0
VERTEX
  5
252
330
21
100
AcDbEntity
  8
Layer0
100
AcDbFaceRecord
 10
0.0
 20
0.0
 30
0.0
 70
   128
 71
  -246
 72
   133
 73
  -226
  0
VERTEX
  5
253
330
21
100
AcDbEntity
  8
Layer0
100
AcDbFaceRecord
 10
0.0
 20
0.0
 30
0.0
 70
   128
 71
  -246
 72
  -226
 73
   247
  0
VERTEX
  5
254
330
21
100
AcDbEntity
  8
Layer0
100
AcDbFaceRecord
 10
0.0
 20
0.0
 30
0.0
 70
   128
 71
  -247
 72
  -226
 73
   248
  0
VERTEX
  5
255
330
21
100
AcDbEntity
  8
Layer0
100
AcDbFaceRecord
 10
0.0
 20
0.0
 30
0.0
 70
   128
 71
  -248
 72
  -226
 73
   249
  0
VERTEX
  5
256
330
21
100
AcDbEntity
  8
Layer0
100
AcDbFaceRecord
 10
0.0
 20
0.0
 30
0.0
 70
   128
 71
  -249
 72
  -226
 73
   250
  0
VERTEX
  5
257
330
21
100
AcDbEntity
  8
Layer0
100
AcDbFaceRecord
 10
0.0
 20
0.0
 30
0.0
 70
   128
 71
  -250
 72
  -226
 73
   251
  0
VERTEX
  5
258
330
21
100
AcDbEntity
  8
Layer0
100
AcDbFaceRecord
 10
0.0
 20
0.0
 30
0.0
 70
   128
 71
  -251
 72
  -226
 73
    58
  0
VERTEX
  5
259
330
21
100
AcDbEntity
  8
Layer0
100
AcDbFaceRecord
 10
0.0
 20
0.0
 30
0.0
 70
   128
 71
   -58
 72
  -226
 73
  -252
  0
VERTEX
  5
25A
330
21
100
AcDbEntity
  8
Layer0
100
AcDbFaceRecord
 10
0.0
 20
0.0
 30
0.0
 70
   128
 71
   -58
 72
   252
 73
  -253
  0
VERTEX
  5
25B
330
21
100
AcDbEntity
  8
Layer0
100
AcDbFaceRecord
 10
0.0
 20
0.0
 30
0.0
 70
   128
 71
   -58
 72
  -253
 73
   -16
  0
VERTEX
  5
25C
330
21
100
AcDbEntity
  8
Layer0
100
AcDbFaceRecord
 10
0.0
 20
0.0
 30
0.0
 70
   128
 71
   -16
 72
   253
 73
  -254
  0
VERTEX
  5
25D
330
21
100
AcDbEntity
  8
Layer0
100
AcDbFaceRecord
 10
0.0
 20
0.0
 30
0.0
 70
   128
 71
   -16
 72
   254
 73
  -255
  0
VERTEX
  5
25E
330
21
100
AcDbEntity
  8
Layer0
100
AcDbFaceRecord
 10
0.0
 20
0.0
 30
0.0
 70
   128
 71
   -16
 72
   255
 73
  -256
  0
VERTEX
  5
25F
330
21
100
AcDbEntity
  8
Layer0
100
AcDbFaceRecord
 10
0.0
 20
0.0
 30
0.0
 70
   128
 71
   -16
 72
   256
 73
  -257
  0
VERTEX
  5
260
330
21
100
AcDbEntity
  8
Layer0
100
AcDbFaceRecord
 10
0.0
 20
0.0
 30
0.0
 70
   128
 71
   -16
 72
   257
 73
   -23
  0
VERTEX
  5
261
330
21
100
AcDbEntity
  8
Layer0
100
AcDbFaceRecord
 10
0.0
 20
0.0
 30
0.0
 70
   128
 71
  -252
 72
  -226
 73
   258
  0
VERTEX
  5
262
330
21
100
AcDbEntity
  8
Layer0
100
AcDbFaceRecord
 10
0.0
 20
0.0
 30
0.0
 70
   128
 71
  -258
 72
  -226
 73
   259
  0
VERTEX
  5
263
330
21
100
AcDbEntity
  8
Layer0
100
AcDbFaceRecord
 10
0.0
 20
0.0
 30
0.0
 70
   128
 71
  -259
 72
  -226
 73
   260
  0
VERTEX
  5
264
330
21
100
AcDbEntity
  8
Layer0
100
AcDbFaceRecord
 10
0.0
 20
0.0
 30
0.0
 70
   128
 71
  -260
 72
  -226
 73
   261
  0
VERTEX
  5
265
330
21
100
AcDbEntity
  8
Layer0
100
AcDbFaceRecord
 10
0.0
 20
0.0
 30
0.0
 70
   128
 71
  -261
 72
  -226
 73
   262
  0
VERTEX
  5
266
330
21
100
AcDbEntity
  8
Layer0
100
AcDbFaceRecord
 10
0.0
 20
0.0
 30
0.0
 70
   128
 71
  -262
 72
  -226
 73
    30
  0
VERTEX
  5
267
330
21
100
AcDbEntity
  8
Layer0
100
AcDbFaceRecord
 10
0.0
 20
0.0
 30
0.0
 70
   128
 71
   -30
 72
  -226
 73
  -263
  0
VERTEX
  5
268
330
21
100
AcDbEntity
  8
Layer0
100
AcDbFaceRecord
 10
0.0
 20
0.0
 30
0.0
 70
   128
 71
   -30
 72
   263
 73
  -264
  0
VERTEX
  5
269
330
21
100
AcDbEntity
  8
Layer0
100
AcDbFaceRecord
 10
0.0
 20
0.0
 30
0.0
 70
   128
 71
   -30
 72
  -264
 73
   -18
  0
VERTEX
  5
26A
330
21
100
AcDbEntity
  8
Layer0
100
AcDbFaceRecord
 10
0.0
 20
0.0
 30
0.0
 70
   128
 71
   -18
 72
   264
 73
  -123
  0
VERTEX
  5
26B
330
21
100
AcDbEntity
  8
Layer0
100
AcDbFaceRecord
 10
0.0
 20
0.0
 30
0.0
 70
   128
 71
  -263
 72
  -226
 73
   265
  0
VERTEX
  5
26C
330
21
100
AcDbEntity
  8
Layer0
100
AcDbFaceRecord
 10
0.0
 20
0.0
 30
0.0
 70
   128
 71
  -265
 72
  -226
 73
   266
  0
VERTEX
  5
26D
330
21
100
AcDbEntity
  8
Layer0
100
AcDbFaceRecord
 10
0.0
 20
0.0
 30
0.0
 70
   128
 71
  -266
 72
  -226
 73
   267
  0
VERTEX
  5
26E
330
21
100
AcDbEntity
  8
Layer0
100
AcDbFaceRecord
 10
0.0
 20
0.0
 30
0.0
 70
   128
 71
  -267
 72
  -226
 73
   268
  0
VERTEX
  5
26F
330
21
100
AcDbEntity
  8
Layer0
100
AcDbFaceRecord
 10
0.0
 20
0.0
 30
0.0
 70
   128
 71
  -268
 72
  -226
 73
   269
  0
VERTEX
  5
270
330
21
100
AcDbEntity
  8
Layer0
100
AcDbFaceRecord
 10
0.0
 20
0.0
 30
0.0
 70
   128
 71
  -269
 72
  -226
 73
   270
  0
VERTEX
  5
271
330
21
100
AcDbEntity
  8
Layer0
100
AcDbFaceRecord
 10
0.0
 20
0.0
 30
0.0
 70
   128
 71
  -270
 72
  -226
 73
   271
  0
VERTEX
  5
272
330
21
100
AcDbEntity
  8
Layer0
100
AcDbFaceRecord
 10
0.0
 20
0.0
 30
0.0
 70
   128
 71
  -271
 72
  -226
 73
   272
  0
VERTEX
  5
273
330
21
100
AcDbEntity
  8
Layer0
100
AcDbFaceRecord
 10
0.0
 20
0.0
 30
0.0
 70
   128
 71
  -272
 72
  -226
 73
   273
  0
VERTEX
  5
274
330
21
100
AcDbEntity
  8
Layer0
100
AcDbFaceRecord
 10
0.0
 20
0.0
 30
0.0
 70
   128
 71
  -273
 72
  -226
 73
   198
  0
VERTEX
  5
275
330
21
100
AcDbEntity
  8
Layer0
100
AcDbFaceRecord
 10
0.0
 20
0.0
 30
0.0
 70
   128
 71
  -198
 72
  -226
 73
  -178
  0
VERTEX
  5
276
330
21
100
AcDbEntity
  8
Layer0
100
AcDbFaceRecord
 10
0.0
 20
0.0
 30
0.0
 70
   128
 71
  -178
 72
  -226
 73
  -149
  0
VERTEX
  5
277
330
21
100
AcDbEntity
  8
Layer0
100
AcDbFaceRecord
 10
0.0
 20
0.0
 30
0.0
 70
   128
 71
  -149
 72
  -226
 73
  -199
  0
VERTEX
  5
278
330
21
100
AcDbEntity
  8
Layer0
100
AcDbFaceRecord
 10
0.0
 20
0.0
 30
0.0
 70
   128
 71
  -149
 72
   199
 73
  -274
  0
VERTEX
  5
279
330
21
100
AcDbEntity
  8
Layer0
100
AcDbFaceRecord
 10
0.0
 20
0.0
 30
0.0
 70
   128
 71
  -149
 72
   274
 73
  -275
  0
VERTEX
  5
27A
330
21
100
AcDbEntity
  8
Layer0
100
AcDbFaceRecord
 10
0.0
 20
0.0
 30
0.0
 70
   128
 71
  -149
 72
   275
 73
  -276
  0
VERTEX
  5
27B
330
21
100
AcDbEntity
  8
Layer0
100
AcDbFaceRecord
 10
0.0
 20
0.0
 30
0.0
 70
   128
 71
  -149
 72
   276
 73
  -277
  0
VERTEX
  5
27C
330
21
100
AcDbEntity
  8
Layer0
100
AcDbFaceRecord
 10
0.0
 20
0.0
 30
0.0
 70
   128
 71
  -149
 72
   277
 73
  -278
  0
VERTEX
  5
27D
330
21
100
AcDbEntity
  8
Layer0
100
AcDbFaceRecord
 10
0.0
 20
0.0
 30
0.0
 70
   128
 71
  -149
 72
  -278
 73
   240
  0
VERTEX
  5
27E
330
21
100
AcDbEntity
  8
Layer0
100
AcDbFaceRecord
 10
0.0
 20
0.0
 30
0.0
 70
   128
 71
  -240
 72
   278
 73
  -279
  0
VERTEX
  5
27F
330
21
100
AcDbEntity
  8
Layer0
100
AcDbFaceRecord
 10
0.0
 20
0.0
 30
0.0
 70
   128
 71
  -240
 72
   279
 73
  -280
  0
VERTEX
  5
280
330
21
100
AcDbEntity
  8
Layer0
100
AcDbFaceRecord
 10
0.0
 20
0.0
 30
0.0
 70
   128
 71
  -240
 72
   280
 73
  -281
  0
VERTEX
  5
281
330
21
100
AcDbEntity
  8
Layer0
100
AcDbFaceRecord
 10
0.0
 20
0.0
 30
0.0
 70
   128
 71
  -240
 72
   281
 73
  -282
  0
VERTEX
  5
282
330
21
100
AcDbEntity
  8
Layer0
100
AcDbFaceRecord
 10
0.0
 20
0.0
 30
0.0
 70
   128
 71
  -240
 72
   282
 73
  -283
  0
VERTEX
  5
283
330
21
100
AcDbEntity
  8
Layer0
100
AcDbFaceRecord
 10
0.0
 20
0.0
 30
0.0
 70
   128
 71
  -240
 72
   283
 73
  -284
  0
VERTEX
  5
284
330
21
100
AcDbEntity
  8
Layer0
100
AcDbFaceRecord
 10
0.0
 20
0.0
 30
0.0
 70
   128
 71
  -240
 72
   284
 73
  -224
  0
VERTEX
  5
285
330
21
100
AcDbEntity
  8
Layer0
100
AcDbFaceRecord
 10
0.0
 20
0.0
 30
0.0
 70
   128
 71
  -240
 72
  -224
 73
  -225
  0
VERTEX
  5
286
330
21
100
AcDbEntity
  8
Layer0
100
AcDbFaceRecord
 10
0.0
 20
0.0
 30
0.0
 70
   128
 71
  -285
 72
  -200
 73
   202
  0
VERTEX
  5
287
330
21
100
AcDbEntity
  8
Layer0
100
AcDbFaceRecord
 10
0.0
 20
0.0
 30
0.0
 70
   128
 71
  -200
 72
  -285
 73
   286
  0
VERTEX
  5
288
330
21
100
AcDbEntity
  8
Layer0
100
AcDbFaceRecord
 10
0.0
 20
0.0
 30
0.0
 70
   128
 71
  -286
 72
   285
 73
  -287
  0
VERTEX
  5
289
330
21
100
AcDbEntity
  8
Layer0
100
AcDbFaceRecord
 10
0.0
 20
0.0
 30
0.0
 70
   128
 71
  -286
 72
  -287
 73
   288
  0
VERTEX
  5
28A
330
21
100
AcDbEntity
  8
Layer0
100
AcDbFaceRecord
 10
0.0
 20
0.0
 30
0.0
 70
   128
 71
  -288
 72
   287
 73
  -289
  0
VERTEX
  5
28B
330
21
100
AcDbEntity
  8
Layer0
100
AcDbFaceRecord
 10
0.0
 20
0.0
 30
0.0
 70
   128
 71
  -288
 72
  -289
 73
   290
  0
VERTEX
  5
28C
330
21
100
AcDbEntity
  8
Layer0
100
AcDbFaceRecord
 10
0.0
 20
0.0
 30
0.0
 70
   128
 71
  -290
 72
   289
 73
  -291
  0
VERTEX
  5
28D
330
21
100
AcDbEntity
  8
Layer0
100
AcDbFaceRecord
 10
0.0
 20
0.0
 30
0.0
 70
   128
 71
  -290
 72
  -291
 73
   292
  0
VERTEX
  5
28E
330
21
100
AcDbEntity
  8
Layer0
100
AcDbFaceRecord
 10
0.0
 20
0.0
 30
0.0
 70
   128
 71
  -292
 72
   291
 73
  -293
  0
VERTEX
  5
28F
330
21
100
AcDbEntity
  8
Layer0
100
AcDbFaceRecord
 10
0.0
 20
0.0
 30
0.0
 70
   128
 71
  -292
 72
  -293
 73
   294
  0
VERTEX
  5
290
330
21
100
AcDbEntity
  8
Layer0
100
AcDbFaceRecord
 10
0.0
 20
0.0
 30
0.0
 70
   128
 71
  -294
 72
   293
 73
  -295
  0
VERTEX
  5
291
330
21
100
AcDbEntity
  8
Layer0
100
AcDbFaceRecord
 10
0.0
 20
0.0
 30
0.0
 70
   128
 71
  -294
 72
  -295
 73
   296
  0
VERTEX
  5
292
330
21
100
AcDbEntity
  8
Layer0
100
AcDbFaceRecord
 10
0.0
 20
0.0
 30
0.0
 70
   128
 71
  -296
 72
   295
 73
  -297
  0
VERTEX
  5
293
330
21
100
AcDbEntity
  8
Layer0
100
AcDbFaceRecord
 10
0.0
 20
0.0
 30
0.0
 70
   128
 71
  -296
 72
  -297
 73
   298
  0
VERTEX
  5
294
330
21
100
AcDbEntity
  8
Layer0
100
AcDbFaceRecord
 10
0.0
 20
0.0
 30
0.0
 70
   128
 71
  -298
 72
   297
 73
  -299
  0
VERTEX
  5
295
330
21
100
AcDbEntity
  8
Layer0
100
AcDbFaceRecord
 10
0.0
 20
0.0
 30
0.0
 70
   128
 71
  -298
 72
  -299
 73
   300
  0
VERTEX
  5
296
330
21
100
AcDbEntity
  8
Layer0
100
AcDbFaceRecord
 10
0.0
 20
0.0
 30
0.0
 70
   128
 71
  -300
 72
   299
 73
  -301
  0
VERTEX
  5
297
330
21
100
AcDbEntity
  8
Layer0
100
AcDbFaceRecord
 10
0.0
 20
0.0
 30
0.0
 70
   128
 71
  -300
 72
  -301
 73
   302
  0
VERTEX
  5
298
330
21
100
AcDbEntity
  8
Layer0
100
AcDbFaceRecord
 10
0.0
 20
0.0
 30
0.0
 70
   128
 71
  -302
 72
   301
 73
  -303
  0
VERTEX
  5
299
330
21
100
AcDbEntity
  8
Layer0
100
AcDbFaceRecord
 10
0.0
 20
0.0
 30
0.0
 70
   128
 71
  -302
 72
  -303
 73
   304
  0
VERTEX
  5
29A
330
21
100
AcDbEntity
  8
Layer0
100
AcDbFaceRecord
 10
0.0
 20
0.0
 30
0.0
 70
   128
 71
  -304
 72
   303
 73
  -305
  0
VERTEX
  5
29B
330
21
100
AcDbEntity
  8
Layer0
100
AcDbFaceRecord
 10
0.0
 20
0.0
 30
0.0
 70
   128
 71
  -304
 72
  -305
 73
   306
  0
VERTEX
  5
29C
330
21
100
AcDbEntity
  8
Layer0
100
AcDbFaceRecord
 10
0.0
 20
0.0
 30
0.0
 70
   128
 71
  -306
 72
   305
 73
  -239
  0
VERTEX
  5
29D
330
21
100
AcDbEntity
  8
Layer0
100
AcDbFaceRecord
 10
0.0
 20
0.0
 30
0.0
 70
   128
 71
  -306
 72
  -239
 73
   225
  0
SEQEND
  5
29E
330
21
100
AcDbEntity
  8
Layer0
  0
ENDSEC
  0
SECTION
  2
OBJECTS
  0
DICTIONARY
  5
C
330
0
100
AcDbDictionary
281
     1
  3
ACAD_GROUP
350
D
  3
ACAD_IMAGE_VARS
350
2E8
  3
ACAD_LAYOUT
350
1A
  3
ACAD_MLINESTYLE
350
17
  3
ACAD_PLOTSETTINGS
350
19
  3
ACAD_PLOTSTYLENAME
350
E
  3
ACAD_SCALELIST
350
2A1
  3
APPDATA
350
2E6
  3
DWGPROPS
350
2E9
  0
DICTIONARY
  5
D
102
{ACAD_REACTORS
330
C
102
}
330
C
100
AcDbDictionary
281
     1
  0
RASTERVARIABLES
  5
2E8
102
{ACAD_REACTORS
330
C
102
}
330
C
100
AcDbRasterVariables
 90
        0
 70
     1
 71
     1
 72
     0
  0
DICTIONARY
  5
1A
102
{ACAD_REACTORS
330
C
102
}
330
C
100
AcDbDictionary
281
     1
  3
Blatt 1
350
1C
  3
Model
350
1E
  0
DICTIONARY
  5
17
102
{ACAD_REACTORS
330
C
102
}
330
C
100
AcDbDictionary
281
     1
  3
Standard
350
18
  0
DICTIONARY
  5
19
102
{ACAD_REACTORS
330
C
102
}
330
C
100
AcDbDictionary
281
     1
  0
ACDBDICTIONARYWDFLT
  5
E
102
{ACAD_REACTORS
330
C
102
}
330
C
100
AcDbDictionary
281
     1
  3
Normal
350
F
100
AcDbDictionaryWithDefault
340
F
  0
DICTIONARY
  5
2A1
102
{ACAD_REACTORS
330
C
102
}
330
C
100
AcDbDictionary
281
     1
  3
A0
350
2A2
  3
A1
350
2A3
  3
A2
350
2A4
  3
A3
350
2A5
  3
A4
350
2A6
  3
A5
350
2A7
  3
A6
350
2A8
  3
A7
350
2A9
  3
A8
350
2AA
  3
A9
350
2AB
  3
B0
350
2AC
  3
B1
350
2AD
  3
B2
350
2AE
  3
B3
350
2AF
  3
B4
350
2B0
  3
B5
350
2B1
  3
B6
350
2B2
  3
B7
350
2B3
  3
B8
350
2B4
  3
B9
350
2B5
  3
C0
350
2B6
  3
C1
350
2B7
  3
C2
350
2B8
  3
C3
350
2B9
  3
C4
350
2BA
  3
C5
350
2BB
  3
C6
350
2BC
  3
C7
350
2BD
  3
C8
350
2BE
  3
C9
350
2BF
  3
D0
350
2C0
  3
D1
350
2C1
  3
D2
350
2C2
  0
DICTIONARY
  5
2E6
102
{ACAD_REACTORS
330
C
102
}
330
C
100
AcDbDictionary
281
     1
  0
XRECORD
  5
2E9
102
{ACAD_REACTORS
330
C
102
}
330
C
100
AcDbXrecord
280
     1
  1
DWGPROPS COOKIE
  2

  3

  4

  6

  7

  8
vincent
  9

300
=
301
=
302
=
303
=
304
=
305
=
306
=
307
=
308
=
309
=
 40
0.0
 41
2456786.807638889
 42
2456786.808206019
  1

 90
        0
  0
LAYOUT
  5
1C
102
{ACAD_REACTORS
330
1A
102
}
330
1A
100
AcDbPlotSettings
  1

  2
none_device
  4

  6

 40
0.0
 41
0.0
 42
0.0
 43
0.0
 44
0.0
 45
0.0
 46
0.0
 47
0.0
 48
0.0
 49
0.0
140
0.0
141
0.0
142
1.0
143
1.0
 70
   688
 72
     0
 73
     0
 74
     5
  7

 75
    16
147
1.0
148
0.0
149
0.0
100
AcDbLayout
  1
Blatt 1
 70
     1
 71
     1
 10
0.0
 20
0.0
 11
0.0
 21
0.0
 12
0.0
 22
0.0
 32
0.0
 14
1.000000000000000E+20
 24
1.000000000000000E+20
 34
1.000000000000000E+20
 15
-1.000000000000000E+20
 25
-1.000000000000000E+20
 35
-1.000000000000000E+20
146
0.0
 13
0.0
 23
0.0
 33
0.0
 16
1.0
 26
0.0
 36
0.0
 17
0.0
 27
1.0
 37
0.0
 76
     0
330
1B
  0
LAYOUT
  5
1E
102
{ACAD_REACTORS
330
1A
102
}
330
1A
100
AcDbPlotSettings
  1

  2
none_device
  4
Letter_(8.50_x_11.00_Inches)
  6

 40
6.35
 41
6.35
 42
6.35
 43
6.35
 44
215.9
 45
279.4
 46
0.0
 47
0.0
 48
0.0
 49
0.0
140
0.0
141
0.0
142
1.0
143
1.0
 70
  1712
 72
     0
 73
     0
 74
     0
  7

 75
     0
147
1.0
148
0.0
149
0.0
100
AcDbLayout
  1
Model
 70
     1
 71
     0
 10
0.0
 20
0.0
 11
12.0
 21
9.0
 12
0.0
 22
0.0
 32
0.0
 14
222.000003078888
 24
-45.3177247775112
 34
355.374985197782
 15
687.000003450453
 25
374.682282656543
 35
355.375005704646
146
0.0
 13
0.0
 23
0.0
 33
0.0
 16
1.0
 26
0.0
 36
0.0
 17
0.0
 27
1.0
 37
0.0
 76
     0
330
1D
331
29F
  0
MLINESTYLE
  5
18
102
{ACAD_REACTORS
330
17
102
}
330
17
100
AcDbMlineStyle
  2
Standard
 70
     0
  3

 62
   256
 51
90.0
 52
90.0
 71
     2
 49
0.5
 62
   256
  6
BYLAYER
 49
-0.5
 62
   256
  6
BYLAYER
  0
ACDBPLACEHOLDER
  5
F
102
{ACAD_REACTORS
330
E
102
}
330
E
  0
SCALE
  5
2A2
102
{ACAD_REACTORS
330
2A1
102
}
330
2A1
100
AcDbScale
 70
     0
300
1:1
140
1.0
141
1.0
290
     1
  0
SCALE
  5
2A3
102
{ACAD_REACTORS
330
2A1
102
}
330
2A1
100
AcDbScale
 70
     0
300
1:2
140
1.0
141
2.0
290
     0
  0
SCALE
  5
2A4
102
{ACAD_REACTORS
330
2A1
102
}
330
2A1
100
AcDbScale
 70
     0
300
1:4
140
1.0
141
4.0
290
     0
  0
SCALE
  5
2A5
102
{ACAD_REACTORS
330
2A1
102
}
330
2A1
100
AcDbScale
 70
     0
300
1:5
140
1.0
141
5.0
290
     0
  0
SCALE
  5
2A6
102
{ACAD_REACTORS
330
2A1
102
}
330
2A1
100
AcDbScale
 70
     0
300
1:8
140
1.0
141
8.0
290
     0
  0
SCALE
  5
2A7
102
{ACAD_REACTORS
330
2A1
102
}
330
2A1
100
AcDbScale
 70
     0
300
1:10
140
1.0
141
10.0
290
     0
  0
SCALE
  5
2A8
102
{ACAD_REACTORS
330
2A1
102
}
330
2A1
100
AcDbScale
 70
     0
300
1:16
140
1.0
141
16.0
290
     0
  0
SCALE
  5
2A9
102
{ACAD_REACTORS
330
2A1
102
}
330
2A1
100
AcDbScale
 70
     0
300
1:20
140
1.0
141
20.0
290
     0
  0
SCALE
  5
2AA
102
{ACAD_REACTORS
330
2A1
102
}
330
2A1
100
AcDbScale
 70
     0
300
1:30
140
1.0
141
30.0
290
     0
  0
SCALE
  5
2AB
102
{ACAD_REACTORS
330
2A1
102
}
330
2A1
100
AcDbScale
 70
     0
300
1:40
140
1.0
141
40.0
290
     0
  0
SCALE
  5
2AC
102
{ACAD_REACTORS
330
2A1
102
}
330
2A1
100
AcDbScale
 70
     0
300
1:50
140
1.0
141
50.0
290
     0
  0
SCALE
  5
2AD
102
{ACAD_REACTORS
330
2A1
102
}
330
2A1
100
AcDbScale
 70
     0
300
1:100
140
1.0
141
100.0
290
     0
  0
SCALE
  5
2AE
102
{ACAD_REACTORS
330
2A1
102
}
330
2A1
100
AcDbScale
 70
     0
300
2:1
140
2.0
141
1.0
290
     0
  0
SCALE
  5
2AF
102
{ACAD_REACTORS
330
2A1
102
}
330
2A1
100
AcDbScale
 70
     0
300
4:1
140
4.0
141
1.0
290
     0
  0
SCALE
  5
2B0
102
{ACAD_REACTORS
330
2A1
102
}
330
2A1
100
AcDbScale
 70
     0
300
8:1
140
8.0
141
1.0
290
     0
  0
SCALE
  5
2B1
102
{ACAD_REACTORS
330
2A1
102
}
330
2A1
100
AcDbScale
 70
     0
300
10:1
140
10.0
141
1.0
290
     0
  0
SCALE
  5
2B2
102
{ACAD_REACTORS
330
2A1
102
}
330
2A1
100
AcDbScale
 70
     0
300
100:1
140
100.0
141
1.0
290
     0
  0
SCALE
  5
2B3
102
{ACAD_REACTORS
330
2A1
102
}
330
2A1
100
AcDbScale
 70
     0
300
1/128" = 1'-0"
140
0.0078125
141
12.0
290
     0
  0
SCALE
  5
2B4
102
{ACAD_REACTORS
330
2A1
102
}
330
2A1
100
AcDbScale
 70
     0
300
1/64" = 1'-0"
140
0.015625
141
12.0
290
     0
  0
SCALE
  5
2B5
102
{ACAD_REACTORS
330
2A1
102
}
330
2A1
100
AcDbScale
 70
     0
300
1/32" = 1'-0"
140
0.03125
141
12.0
290
     0
  0
SCALE
  5
2B6
102
{ACAD_REACTORS
330
2A1
102
}
330
2A1
100
AcDbScale
 70
     0
300
1/16" = 1'-0"
140
0.0625
141
12.0
290
     0
  0
SCALE
  5
2B7
102
{ACAD_REACTORS
330
2A1
102
}
330
2A1
100
AcDbScale
 70
     0
300
3/32" = 1'-0"
140
0.09375
141
12.0
290
     0
  0
SCALE
  5
2B8
102
{ACAD_REACTORS
330
2A1
102
}
330
2A1
100
AcDbScale
 70
     0
300
1/8" = 1'-0"
140
0.125
141
12.0
290
     0
  0
SCALE
  5
2B9
102
{ACAD_REACTORS
330
2A1
102
}
330
2A1
100
AcDbScale
 70
     0
300
3/16" = 1'-0"
140
0.1875
141
12.0
290
     0
  0
SCALE
  5
2BA
102
{ACAD_REACTORS
330
2A1
102
}
330
2A1
100
AcDbScale
 70
     0
300
1/4" = 1'-0"
140
0.25
141
12.0
290
     0
  0
SCALE
  5
2BB
102
{ACAD_REACTORS
330
2A1
102
}
330
2A1
100
AcDbScale
 70
     0
300
3/8" = 1'-0"
140
0.375
141
12.0
290
     0
  0
SCALE
  5
2BC
102
{ACAD_REACTORS
330
2A1
102
}
330
2A1
100
AcDbScale
 70
     0
300
1/2" = 1'-0"
140
0.5
141
12.0
290
     0
  0
SCALE
  5
2BD
102
{ACAD_REACTORS
330
2A1
102
}
330
2A1
100
AcDbScale
 70
     0
300
3/4" = 1'-0"
140
0.75
141
12.0
290
     0
  0
SCALE
  5
2BE
102
{ACAD_REACTORS
330
2A1
102
}
330
2A1
100
AcDbScale
 70
     0
300
1" = 1'-0"
140
1.0
141
12.0
290
     0
  0
SCALE
  5
2BF
102
{ACAD_REACTORS
330
2A1
102
}
330
2A1
100
AcDbScale
 70
     0
300
1-1/2" = 1'-0"
140
1.5
141
12.0
290
     0
  0
SCALE
  5
2C0
102
{ACAD_REACTORS
330
2A1
102
}
330
2A1
100
AcDbScale
 70
     0
300
3" = 1'-0"
140
3.0
141
12.0
290
     0
  0
SCALE
  5
2C1
102
{ACAD_REACTORS
330
2A1
102
}
330
2A1
100
AcDbScale
 70
     0
300
6" = 1'-0"
140
6.0
141
12.0
290
     0
  0
SCALE
  5
2C2
102
{ACAD_REACTORS
330
2A1
102
}
330
2A1
100
AcDbScale
 70
     0
300
1'-0" = 1'-0"
140
12.0
141
12.0
290
     0
  0
ENDSEC
  0
EOF
