 0
SECTION
 2
ENTITIES
  0
POLYLINE
 8
Layer0
 66
     1
10
0.0
 20
 0.0
 30
0.0
70
    64
71
298
72
   1
  0
VERTEX
  8
Layer0
10
675.00001137306
20
164.682276951647
30
49.3749964023119
 70
     192
  0
VERTEX
  8
Layer0
10
675.068156993901
20
-0.657949635631258
30
49.3749963939725
 70
     192
  0
VERTEX
  8
Layer0
10
675.000008655661
20
-1.17558772704426
30
49.3749964106331
 70
     192
  0
VERTEX
  8
Layer0
10
675.068159729663
20
164.16463886265
30
49.3749964210388
 70
     192
  0
VERTEX
  8
Layer0
10
675.267957830354
20
-0.175587722291652
30
49.3749963805047
 70
     192
  0
VERTEX
  8
Layer0
10
675.267960583229
20
163.6822769564
30
49.374996440547
 70
     192
  0
VERTEX
  8
Layer0
10
675.585795068201
20
0.238625845719486
30
49.3749963711474
 70
     192
  0
VERTEX
  8
Layer0
10
675.585797835772
20
163.268063399665
30
49.3749964595071
 70
     192
  0
VERTEX
  8
Layer0
10
676.000008624936
20
0.556463098262734
30
49.3749963665364
 70
     192
  0
VERTEX
  8
Layer0
10
676.000011403784
20
162.950226161817
30
49.3749964766239
 70
     192
  0
VERTEX
  8
Layer0
10
676.482370531187
20
0.75626395182727
30
49.3749963669932
 70
     192
  0
VERTEX
  8
Layer0
10
676.482373317122
20
162.750425325363
30
49.3749964907403
 70
     192
  0
VERTEX
  8
Layer0
10
677.000008620185
20
0.824412308432084
30
49.3749963724888
 70
     192
  0
VERTEX
  8
Layer0
10
677.000011408536
20
162.682276987124
30
49.3749965008942
 70
     192
  0
VERTEX
  8
Layer0
10
677.517646711597
20
0.756263970192155
30
49.3749963826394
 70
     192
  0
VERTEX
  8
Layer0
10
677.517649497532
20
162.750425343728
30
49.3749965063866
 70
     192
  0
VERTEX
  8
Layer0
10
678.000008624936
20
0.556463133738453
30
49.3749963967553
 70
     192
  0
VERTEX
  8
Layer0
10
678.000011403784
20
162.950226197292
30
49.3749965068425
 70
     192
  0
VERTEX
  8
Layer0
10
678.414222192947
20
0.23862589589075
30
49.3749964138721
 70
     192
  0
VERTEX
  8
Layer0
10
678.414224960518
20
163.268063449836
30
49.3749965022319
 70
     192
  0
VERTEX
  8
Layer0
10
678.732059445492
20
-0.17558766084553
30
49.3749964328326
 70
     192
  0
VERTEX
  8
Layer0
10
678.732062198366
20
163.682277017846
30
49.3749964928749
 70
     192
  0
VERTEX
  8
Layer0
10
678.931860299057
20
-0.657949567095334
30
49.3749964523442
 70
     192
  0
VERTEX
  8
Layer0
10
678.931863034819
20
164.164638931187
30
49.3749964794105
 70
     192
  0
VERTEX
  8
Layer0
10
679.000008655661
20
-1.17558765609224
30
49.3749964710675
 70
     192
  0
VERTEX
  8
Layer0
10
679.00001137306
20
164.682277022599
30
49.3749964627463
 70
     192
  0
VERTEX
  8
Layer0
10
262.000009438668
20
-45.3177306766572
30
49.3749980876001
 70
     192
  0
VERTEX
  8
Layer0
10
266.142144920493
20
-37.3177306031828
30
49.3749978767251
 70
     192
  0
VERTEX
  8
Layer0
10
647.000009438662
20
-45.3177238474451
30
49.3749974964811
 70
     192
  0
VERTEX
  8
Layer0
10
265.624506829079
20
-37.2495822649437
30
49.3749978665762
 70
     192
  0
VERTEX
  8
Layer0
10
265.14214491574
20
-37.0497814284901
30
49.3749978524582
 70
     192
  0
VERTEX
  8
Layer0
10
264.727931347729
20
-36.7319441906418
30
49.3749978353322
 70
     192
  0
VERTEX
  8
Layer0
10
264.410094095186
20
-36.3177306339064
30
49.3749978163722
 70
     192
  0
VERTEX
  8
Layer0
10
264.21029324162
20
-35.8353687276556
30
49.3749977968703
 70
     192
  0
VERTEX
  8
Layer0
10
264.142144885017
20
-35.3177306386594
30
49.3749977781472
 70
     192
  0
VERTEX
  8
Layer0
10
264.142143449154
20
364.682269966185
30
49.3749897679406
 70
     192
  0
VERTEX
  8
Layer0
10
266.65978300949
20
-37.2495822465802
30
49.3749978822106
 70
     192
  0
VERTEX
  8
Layer0
10
267.14214491574
20
-37.0497813930135
30
49.374997882669
 70
     192
  0
VERTEX
  8
Layer0
10
267.556358472476
20
-36.7319441404703
30
49.3749978780674
 70
     192
  0
VERTEX
  8
Layer0
10
267.874195710324
20
-36.317730572459
30
49.3749978687111
 70
     192
  0
VERTEX
  8
Layer0
10
268.073996546777
20
-35.8353686591204
30
49.3749978552402
 70
     192
  0
VERTEX
  8
Layer0
10
268.142144885017
20
-35.3177305677065
30
49.3749978385726
 70
     192
  0
VERTEX
  8
Layer0
10
454.500009296761
20
-37.3177272620523
30
49.3749939467072
 70
     192
  0
VERTEX
  8
Layer0
10
453.982371205348
20
-37.2495789238124
30
49.3749939365583
 70
     192
  0
VERTEX
  8
Layer0
10
453.500009292009
20
-37.0497780873581
30
49.3749939224414
 70
     192
  0
VERTEX
  8
Layer0
10
453.085795723998
20
-36.7319408495109
30
49.3749939053143
 70
     192
  0
VERTEX
  8
Layer0
10
452.767958471454
20
-36.3177272927745
30
49.3749938863547
 70
     192
  0
VERTEX
  8
Layer0
10
452.568157617889
20
-35.8353653865247
30
49.3749938668524
 70
     192
  0
VERTEX
  8
Layer0
10
452.500009261285
20
-35.3177272975277
30
49.3749938481303
 70
     192
  0
VERTEX
  8
Layer0
10
452.500007825422
20
364.682273307317
30
49.3749858379291
 70
     192
  0
VERTEX
  8
Layer0
10
455.017647385758
20
-37.2495789054476
30
49.3749939521936
 70
     192
  0
VERTEX
  8
Layer0
10
455.500009292008
20
-37.0497780518827
30
49.3749939526511
 70
     192
  0
VERTEX
  8
Layer0
10
455.914222848744
20
-36.7319407993397
30
49.3749939480499
 70
     192
  0
VERTEX
  8
Layer0
10
456.232060086592
20
-36.3177272313288
30
49.3749939386925
 70
     192
  0
VERTEX
  8
Layer0
10
456.431860923045
20
-35.8353653179887
30
49.3749939252225
 70
     192
  0
VERTEX
  8
Layer0
10
456.500009261285
20
-35.3177272265758
30
49.3749939085544
 70
     192
  0
VERTEX
  8
Layer0
10
641.231535880449
20
-36.4817795466673
30
49.3749971073034
 70
     192
  0
VERTEX
  8
Layer0
10
640.985672230195
20
-36.0211881277607
30
49.3749970878485
 70
     192
  0
VERTEX
  8
Layer0
10
640.867396011893
20
-35.5126567856863
30
49.3749970686803
 70
     192
  0
VERTEX
  8
Layer0
10
640.857872201685
20
364.68227664845
30
49.3749890516676
 70
     192
  0
VERTEX
  8
Layer0
10
641.5882317612
20
-36.8630424983726
30
49.374997125729
 70
     192
  0
VERTEX
  8
Layer0
10
642.031451637641
20
-37.1389945427843
30
49.3749971418568
 70
     192
  0
VERTEX
  8
Layer0
10
642.530990807649
20
-37.2908300041077
30
49.3749971545941
 70
     192
  0
VERTEX
  8
Layer0
10
643.052806502316
20
-37.3082015465739
30
49.3749971630664
 70
     192
  0
VERTEX
  8
Layer0
10
643.561337844389
20
-37.1899253282721
30
49.3749971667099
 70
     192
  0
VERTEX
  8
Layer0
10
644.021929263297
20
-36.9440616780175
30
49.3749971652648
 70
     192
  0
VERTEX
  8
Layer0
10
644.403192215003
20
-36.587365797266
30
49.374997158827
 70
     192
  0
VERTEX
  8
Layer0
10
644.679144259414
20
-36.1441459208247
30
49.3749971478517
 70
     192
  0
VERTEX
  8
Layer0
10
644.830979720738
20
-35.6446067508167
30
49.3749971330658
 70
     192
  0
VERTEX
  8
Layer0
10
644.848351263205
20
-35.1227910561525
30
49.374997115491
 70
     192
  0
VERTEX
  8
Layer0
10
644.857872201685
20
364.682276719401
30
49.3749891120964
 70
     192
  0
VERTEX
  8
Layer0
10
647.000007648034
20
374.682276757399
30
49.3749888026478
 70
     192
  0
VERTEX
  8
Layer0
10
675.000008431037
20
330.540141630339
30
49.3749907344955
 70
     192
  0
VERTEX
  8
Layer0
10
675.068156769278
20
331.057779721752
30
49.3749907178353
 70
     192
  0
VERTEX
  8
Layer0
10
675.267957605729
20
331.540141635092
30
49.3749907043671
 70
     192
  0
VERTEX
  8
Layer0
10
675.585794843578
20
331.954355203102
30
49.3749906950094
 70
     192
  0
VERTEX
  8
Layer0
10
676.000008400313
20
332.272192455646
30
49.3749906903984
 70
     192
  0
VERTEX
  8
Layer0
10
676.482370306564
20
332.471993309211
30
49.3749906908552
 70
     192
  0
VERTEX
  8
Layer0
10
687.000008357563
20
334.682277466928
30
49.3749907742039
 70
     192
  0
VERTEX
  8
Layer0
10
677.00000839556
20
332.540141665815
30
49.3749906963508
 70
     192
  0
VERTEX
  8
Layer0
10
677.517646486974
20
332.471993327576
30
49.3749907065015
 70
     192
  0
VERTEX
  8
Layer0
10
678.000008400314
20
332.272192491122
30
49.3749907206173
 70
     192
  0
VERTEX
  8
Layer0
10
678.414221968325
20
331.954355253273
30
49.3749907377341
 70
     192
  0
VERTEX
  8
Layer0
10
678.732059220867
20
331.540141696538
30
49.3749907566954
 70
     192
  0
VERTEX
  8
Layer0
10
678.931860074435
20
331.057779790288
30
49.3749907762066
 70
     192
  0
VERTEX
  8
Layer0
10
679.000008431036
20
330.540141701291
30
49.3749907949299
 70
     192
  0
VERTEX
  8
Layer0
10
676.482370599722
20
-3.1074393533287
30
49.3749964990612
 70
     192
  0
VERTEX
  8
Layer0
10
687.000008729133
20
-5.31772313791666
30
49.3749967335073
 70
     192
  0
VERTEX
  8
Layer0
10
676.000008686383
20
-2.90763851687482
30
49.3749964849449
 70
     192
  0
VERTEX
  8
Layer0
10
675.585795118372
20
-2.58980127902671
30
49.3749964678279
 70
     192
  0
VERTEX
  8
Layer0
10
675.267957865829
20
-2.17558772229156
30
49.374996448868
 70
     192
  0
VERTEX
  8
Layer0
10
675.068157012266
20
-1.69322581604139
30
49.3749964293599
 70
     192
  0
VERTEX
  8
Layer0
10
677.000008691137
20
-3.17558769156773
30
49.3749965092152
 70
     192
  0
VERTEX
  8
Layer0
10
677.517646780132
20
-3.107439334964
30
49.3749965147074
 70
     192
  0
VERTEX
  8
Layer0
10
678.000008686383
20
-2.90763848139928
30
49.3749965151639
 70
     192
  0
VERTEX
  8
Layer0
10
678.414222243119
20
-2.58980122885545
30
49.3749965105527
 70
     192
  0
VERTEX
  8
Layer0
10
678.732059480968
20
-2.17558766084544
30
49.3749965011959
 70
     192
  0
VERTEX
  8
Layer0
10
678.931860317422
20
-1.69322574750529
30
49.3749964877316
 70
     192
  0
VERTEX
  8
Layer0
10
675.06815678764
20
330.022503541342
30
49.3749907532227
 70
     192
  0
VERTEX
  8
Layer0
10
675.068159711299
20
165.199915043061
30
49.3749963856514
 70
     192
  0
VERTEX
  8
Layer0
10
675.267957641205
20
329.540141635092
30
49.37499077273
 70
     192
  0
VERTEX
  8
Layer0
10
675.267960547752
20
165.6822769564
30
49.3749963721837
 70
     192
  0
VERTEX
  8
Layer0
10
675.585794893749
20
329.125928078356
30
49.3749907916896
 70
     192
  0
VERTEX
  8
Layer0
10
675.585797785601
20
166.096490524412
30
49.3749963628264
 70
     192
  0
VERTEX
  8
Layer0
10
676.00000846176
20
328.808090840509
30
49.3749908088073
 70
     192
  0
VERTEX
  8
Layer0
10
676.000011342336
20
166.414327776955
30
49.3749963582155
 70
     192
  0
VERTEX
  8
Layer0
10
676.4823703751
20
328.608290004055
30
49.3749908229228
 70
     192
  0
VERTEX
  8
Layer0
10
676.482373248588
20
166.614128630519
30
49.3749963586722
 70
     192
  0
VERTEX
  8
Layer0
10
677.000008466515
20
328.540141665815
30
49.3749908330773
 70
     192
  0
VERTEX
  8
Layer0
10
677.000011337582
20
166.682276987124
30
49.3749963641683
 70
     192
  0
VERTEX
  8
Layer0
10
677.51764655551
20
328.60829002242
30
49.3749908385691
 70
     192
  0
VERTEX
  8
Layer0
10
677.517649428998
20
166.614128648884
30
49.3749963743184
 70
     192
  0
VERTEX
  8
Layer0
10
678.00000846176
20
328.808090875984
30
49.3749908390263
 70
     192
  0
VERTEX
  8
Layer0
10
678.000011342336
20
166.41432781243
30
49.3749963884341
 70
     192
  0
VERTEX
  8
Layer0
10
678.414222018495
20
329.125928128527
30
49.3749908344143
 70
     192
  0
VERTEX
  8
Layer0
10
678.414224910347
20
166.096490574583
30
49.3749964055511
 70
     192
  0
VERTEX
  8
Layer0
10
678.732059256343
20
329.540141696538
30
49.3749908250583
 70
     192
  0
VERTEX
  8
Layer0
10
678.73206216289
20
165.682277017846
30
49.3749964245116
 70
     192
  0
VERTEX
  8
Layer0
10
678.931860092796
20
330.022503609878
30
49.3749908115941
 70
     192
  0
VERTEX
  8
Layer0
10
678.931863016455
20
165.199915111597
30
49.3749964440231
 70
     192
  0
VERTEX
  8
Layer0
10
640.926020558288
20
364.164638559452
30
49.37498907039
 70
     192
  0
VERTEX
  8
Layer0
10
640.873885437108
20
-35.3177239561108
30
49.3749970621158
 70
     192
  0
VERTEX
  8
Layer0
10
640.884767554358
20
-34.990841091021
30
49.3749970511055
 70
     192
  0
VERTEX
  8
Layer0
10
641.036603015682
20
-34.4913019210132
30
49.3749970363243
 70
     192
  0
VERTEX
  8
Layer0
10
641.125821411855
20
363.682276653202
30
49.3749890898922
 70
     192
  0
VERTEX
  8
Layer0
10
641.312555060093
20
-34.0480820445711
30
49.3749970253445
 70
     192
  0
VERTEX
  8
Layer0
10
641.443658664398
20
363.268063096467
30
49.3749891088531
 70
     192
  0
VERTEX
  8
Layer0
10
641.693818011798
20
-33.6913861638213
30
49.3749970189071
 70
     192
  0
VERTEX
  8
Layer0
10
641.857872232409
20
362.950225858619
30
49.3749891259791
 70
     192
  0
VERTEX
  8
Layer0
10
642.154409430707
20
-33.4455225135656
30
49.3749970174656
 70
     192
  0
VERTEX
  8
Layer0
10
642.340234145747
20
362.750425022165
30
49.3749891400953
 70
     192
  0
VERTEX
  8
Layer0
10
642.66294077278
20
-33.3272462952648
30
49.3749970211049
 70
     192
  0
VERTEX
  8
Layer0
10
642.857872237162
20
362.682276683926
30
49.3749891502458
 70
     192
  0
VERTEX
  8
Layer0
10
643.184756467447
20
-33.3446178377301
30
49.3749970295818
 70
     192
  0
VERTEX
  8
Layer0
10
643.375510326157
20
362.75042504053
30
49.374989155732
 70
     192
  0
VERTEX
  8
Layer0
10
643.684295637454
20
-33.4964532990543
30
49.374997042319
 70
     192
  0
VERTEX
  8
Layer0
10
643.857872232409
20
362.950225894094
30
49.3749891561888
 70
     192
  0
VERTEX
  8
Layer0
10
644.127515513896
20
-33.7724053434661
30
49.374997058447
 70
     192
  0
VERTEX
  8
Layer0
10
644.272085789143
20
363.268063146639
30
49.374989151587
 70
     192
  0
VERTEX
  8
Layer0
10
644.260765122989
20
-33.9148323857091
30
49.3749970653285
 70
     192
  0
VERTEX
  8
Layer0
10
644.484211394647
20
-34.1536682951704
30
49.3749970768689
 70
     192
  0
VERTEX
  8
Layer0
10
644.589923026992
20
363.682276714648
30
49.3749891422304
 70
     192
  0
VERTEX
  8
Layer0
10
644.730075044902
20
-34.6142597140771
30
49.3749970963272
 70
     192
  0
VERTEX
  8
Layer0
10
644.789723863445
20
364.164638627989
30
49.3749891287566
 70
     192
  0
VERTEX
  8
Layer0
10
222.000008729139
20
-5.31773138618597
30
49.3749961160402
 70
     192
  0
VERTEX
  8
Layer0
10
230.267957865834
20
-2.17559561579731
30
49.3749961335443
 70
     192
  0
VERTEX
  8
Layer0
10
230.06815701227
20
-1.6932337095457
30
49.3749961140381
 70
     192
  0
VERTEX
  8
Layer0
10
230.000008655666
20
-1.17559562055038
30
49.3749960953098
 70
     192
  0
VERTEX
  8
Layer0
10
230.000008431044
20
330.540133736833
30
49.3749904191722
 70
     192
  0
VERTEX
  8
Layer0
10
230.585795118378
20
-2.58980917253183
30
49.374996152505
 70
     192
  0
VERTEX
  8
Layer0
10
231.000008686389
20
-2.90764641037985
30
49.3749961696251
 70
     192
  0
VERTEX
  8
Layer0
10
231.482370599729
20
-3.1074472468336
30
49.374996183739
 70
     192
  0
VERTEX
  8
Layer0
10
232.000008691142
20
-3.17559558507276
30
49.3749961938923
 70
     192
  0
VERTEX
  8
Layer0
10
232.517646780139
20
-3.10744722847006
30
49.3749961993834
 70
     192
  0
VERTEX
  8
Layer0
10
233.000008686389
20
-2.90764637490341
30
49.3749961998406
 70
     192
  0
VERTEX
  8
Layer0
10
233.414222243124
20
-2.58980912236052
30
49.3749961952296
 70
     192
  0
VERTEX
  8
Layer0
10
233.732059480973
20
-2.17559555434952
30
49.3749961858735
 70
     192
  0
VERTEX
  8
Layer0
10
233.931860317426
20
-1.69323364101158
30
49.374996172408
 70
     192
  0
VERTEX
  8
Layer0
10
234.000008655665
20
-1.17559554959659
30
49.3749961557444
 70
     192
  0
VERTEX
  8
Layer0
10
234.000011373068
20
164.682269129096
30
49.3749961474276
 70
     192
  0
VERTEX
  8
Layer0
10
262.000007648041
20
374.682269928188
30
49.3749893937624
 70
     192
  0
VERTEX
  8
Layer0
10
264.210291787394
20
365.199908057598
30
49.3749897512768
 70
     192
  0
VERTEX
  8
Layer0
10
264.410092623847
20
365.682269970938
30
49.3749897378025
 70
     192
  0
VERTEX
  8
Layer0
10
264.727929861695
20
366.096483538948
30
49.3749897284463
 70
     192
  0
VERTEX
  8
Layer0
10
265.14214341843
20
366.414320791492
30
49.3749897238439
 70
     192
  0
VERTEX
  8
Layer0
10
265.624505324681
20
366.614121645057
30
49.3749897243029
 70
     192
  0
VERTEX
  8
Layer0
10
266.142143413677
20
366.682270001661
30
49.3749897297924
 70
     192
  0
VERTEX
  8
Layer0
10
266.659781505091
20
366.614121663422
30
49.3749897399372
 70
     192
  0
VERTEX
  8
Layer0
10
267.142143418431
20
366.414320826968
30
49.3749897540547
 70
     192
  0
VERTEX
  8
Layer0
10
267.556356986442
20
366.09648358912
30
49.3749897711815
 70
     192
  0
VERTEX
  8
Layer0
10
267.874194238985
20
365.682270032384
30
49.3749897901415
 70
     192
  0
VERTEX
  8
Layer0
10
268.07399509255
20
365.199908126134
30
49.3749898096468
 70
     192
  0
VERTEX
  8
Layer0
10
268.142143449154
20
364.682270037137
30
49.374989828366
 70
     192
  0
VERTEX
  8
Layer0
10
454.500007789946
20
366.682273342793
30
49.3749857997799
 70
     192
  0
VERTEX
  8
Layer0
10
453.98236970095
20
366.614124986188
30
49.3749857942904
 70
     192
  0
VERTEX
  8
Layer0
10
453.500007794698
20
366.414324132624
30
49.3749857938322
 70
     192
  0
VERTEX
  8
Layer0
10
453.085794237963
20
366.09648688008
30
49.3749857984338
 70
     192
  0
VERTEX
  8
Layer0
10
452.767957000115
20
365.68227331207
30
49.3749858077905
 70
     192
  0
VERTEX
  8
Layer0
10
452.568156163663
20
365.199911398729
30
49.3749858212644
 70
     192
  0
VERTEX
  8
Layer0
10
455.01764588136
20
366.614125004553
30
49.3749858099261
 70
     192
  0
VERTEX
  8
Layer0
10
455.500007794698
20
366.4143241681
30
49.3749858240419
 70
     192
  0
VERTEX
  8
Layer0
10
455.914221362709
20
366.096486930252
30
49.3749858411694
 70
     192
  0
VERTEX
  8
Layer0
10
456.232058615253
20
365.682273373517
30
49.3749858601286
 70
     192
  0
VERTEX
  8
Layer0
10
456.431859468819
20
365.199911467266
30
49.3749858796345
 70
     192
  0
VERTEX
  8
Layer0
10
456.500007825422
20
364.682273378268
30
49.3749858983532
 70
     192
  0
VERTEX
  8
Layer0
10
641.125821376378
20
365.682276653202
30
49.374989021529
 70
     192
  0
VERTEX
  8
Layer0
10
640.926020539925
20
365.199914739862
30
49.3749890350024
 70
     192
  0
VERTEX
  8
Layer0
10
641.443658614227
20
366.096490221213
30
49.3749890121731
 70
     192
  0
VERTEX
  8
Layer0
10
641.857872170962
20
366.414327473757
30
49.3749890075706
 70
     192
  0
VERTEX
  8
Layer0
10
642.340234077213
20
366.614128327321
30
49.3749890080282
 70
     192
  0
VERTEX
  8
Layer0
10
642.857872166208
20
366.682276683926
30
49.3749890135195
 70
     192
  0
VERTEX
  8
Layer0
10
643.375510257623
20
366.614128345686
30
49.3749890236646
 70
     192
  0
VERTEX
  8
Layer0
10
643.857872170961
20
366.414327509232
30
49.3749890377802
 70
     192
  0
VERTEX
  8
Layer0
10
644.272085738973
20
366.096490271385
30
49.3749890549074
 70
     192
  0
VERTEX
  8
Layer0
10
644.589922991515
20
365.682276714648
30
49.3749890738672
 70
     192
  0
VERTEX
  8
Layer0
10
644.789723845081
20
365.199914808399
30
49.3749890933691
 70
     192
  0
VERTEX
  8
Layer0
10
452.568156182026
20
364.164635218319
30
49.374985856652
 70
     192
  0
VERTEX
  8
Layer0
10
452.568157599525
20
-34.8000892061148
30
49.3749938314656
 70
     192
  0
VERTEX
  8
Layer0
10
452.767957035592
20
363.68227331207
30
49.3749858761537
 70
     192
  0
VERTEX
  8
Layer0
10
452.767958435978
20
-34.3177272927746
30
49.3749938179911
 70
     192
  0
VERTEX
  8
Layer0
10
453.085794288134
20
363.268059755334
30
49.3749858951135
 70
     192
  0
VERTEX
  8
Layer0
10
453.085795673826
20
-33.9035137247645
30
49.3749938086339
 70
     192
  0
VERTEX
  8
Layer0
10
453.500007856147
20
362.950222517486
30
49.3749859122408
 70
     192
  0
VERTEX
  8
Layer0
10
453.500009230561
20
-33.5856764722206
30
49.3749938040332
 70
     192
  0
VERTEX
  8
Layer0
10
453.982369769485
20
362.750421681032
30
49.3749859263575
 70
     192
  0
VERTEX
  8
Layer0
10
453.982371136812
20
-33.3858756186563
30
49.3749938044905
 70
     192
  0
VERTEX
  8
Layer0
10
454.500007860899
20
362.682273342793
30
49.3749859365062
 70
     192
  0
VERTEX
  8
Layer0
10
454.500009225809
20
-33.3177272620522
30
49.3749938099804
 70
     192
  0
VERTEX
  8
Layer0
10
455.017645949895
20
362.750421699397
30
49.3749859419931
 70
     192
  0
VERTEX
  8
Layer0
10
455.017647317222
20
-33.3858756002914
30
49.3749938201258
 70
     192
  0
VERTEX
  8
Layer0
10
455.500007856147
20
362.950222552962
30
49.3749859424509
 70
     192
  0
VERTEX
  8
Layer0
10
455.500009230561
20
-33.5856764367449
30
49.3749938342429
 70
     192
  0
VERTEX
  8
Layer0
10
455.914221412881
20
363.268059805505
30
49.374985937849
 70
     192
  0
VERTEX
  8
Layer0
10
455.914222798572
20
-33.9035136745935
30
49.3749938513691
 70
     192
  0
VERTEX
  8
Layer0
10
456.23205865073
20
363.682273373517
30
49.3749859284919
 70
     192
  0
VERTEX
  8
Layer0
10
456.232060051116
20
-34.3177272313289
30
49.3749938703289
 70
     192
  0
VERTEX
  8
Layer0
10
456.431859487182
20
364.164635286856
30
49.3749859150221
 70
     192
  0
VERTEX
  8
Layer0
10
456.431860904681
20
-34.800089137579
30
49.3749938898357
 70
     192
  0
VERTEX
  8
Layer0
10
264.210291805758
20
364.164631877188
30
49.3749897866644
 70
     192
  0
VERTEX
  8
Layer0
10
264.210293223257
20
-34.8000925472455
30
49.3749977614834
 70
     192
  0
VERTEX
  8
Layer0
10
264.410092659323
20
363.682269970938
30
49.3749898061658
 70
     192
  0
VERTEX
  8
Layer0
10
264.410094059709
20
-34.3177306339065
30
49.3749977480086
 70
     192
  0
VERTEX
  8
Layer0
10
264.727929911866
20
363.268056414202
30
49.3749898251259
 70
     192
  0
VERTEX
  8
Layer0
10
264.727931297558
20
-33.9035170658954
30
49.3749977386518
 70
     192
  0
VERTEX
  8
Layer0
10
265.142143479877
20
362.950219176354
30
49.3749898422525
 70
     192
  0
VERTEX
  8
Layer0
10
265.142144854293
20
-33.5856798133521
30
49.37499773405
 70
     192
  0
VERTEX
  8
Layer0
10
265.624505393216
20
362.750418339901
30
49.37498985637
 70
     192
  0
VERTEX
  8
Layer0
10
265.624506760544
20
-33.3858789597872
30
49.3749977345084
 70
     192
  0
VERTEX
  8
Layer0
10
266.14214348463
20
362.68227000166
30
49.3749898665187
 70
     192
  0
VERTEX
  8
Layer0
10
266.14214484954
20
-33.3177306031827
30
49.3749977399983
 70
     192
  0
VERTEX
  8
Layer0
10
266.659781573626
20
362.750418358265
30
49.3749898720043
 70
     192
  0
VERTEX
  8
Layer0
10
266.659782940954
20
-33.3858789414238
30
49.3749977501428
 70
     192
  0
VERTEX
  8
Layer0
10
267.142143479878
20
362.95021921183
30
49.3749898724633
 70
     192
  0
VERTEX
  8
Layer0
10
267.142144854294
20
-33.5856797778756
30
49.3749977642608
 70
     192
  0
VERTEX
  8
Layer0
10
267.556357036613
20
363.268056464373
30
49.3749898678611
 70
     192
  0
VERTEX
  8
Layer0
10
267.556358422304
20
-33.9035170157239
30
49.374997781387
 70
     192
  0
VERTEX
  8
Layer0
10
267.874194274461
20
363.682270032384
30
49.3749898585047
 70
     192
  0
VERTEX
  8
Layer0
10
267.874195674848
20
-34.3177305724591
30
49.3749978003475
 70
     192
  0
VERTEX
  8
Layer0
10
268.073995110914
20
364.164631945724
30
49.3749898450343
 70
     192
  0
VERTEX
  8
Layer0
10
268.073996528413
20
-34.8000924787103
30
49.3749978198533
 70
     192
  0
VERTEX
  8
Layer0
10
230.000011373067
20
164.682269058142
30
49.374996086993
 70
     192
  0
VERTEX
  8
Layer0
10
230.068156993905
20
-0.657957529135564
30
49.3749960786507
 70
     192
  0
VERTEX
  8
Layer0
10
230.06815972967
20
164.164630969146
30
49.3749961057209
 70
     192
  0
VERTEX
  8
Layer0
10
230.267957830358
20
-0.175595615797403
30
49.3749960651811
 70
     192
  0
VERTEX
  8
Layer0
10
230.267960583237
20
163.682269062895
30
49.3749961252273
 70
     192
  0
VERTEX
  8
Layer0
10
230.585795068207
20
0.238617952214593
30
49.3749960558241
 70
     192
  0
VERTEX
  8
Layer0
10
230.58579783578
20
163.268055506159
30
49.3749961441882
 70
     192
  0
VERTEX
  8
Layer0
10
231.000008624942
20
0.556455204757524
30
49.3749960512165
 70
     192
  0
VERTEX
  8
Layer0
10
231.000011403791
20
162.950218268311
30
49.3749961613085
 70
     192
  0
VERTEX
  8
Layer0
10
231.482370531193
20
0.756256058322377
30
49.374996051671
 70
     192
  0
VERTEX
  8
Layer0
10
231.482373317129
20
162.750417431858
30
49.3749961754225
 70
     192
  0
VERTEX
  8
Layer0
10
232.00000862019
20
0.824404414926875
30
49.3749960571659
 70
     192
  0
VERTEX
  8
Layer0
10
232.000011408544
20
162.682269093618
30
49.3749961855753
 70
     192
  0
VERTEX
  8
Layer0
10
232.517646711603
20
0.756256076686269
30
49.3749960673155
 70
     192
  0
VERTEX
  8
Layer0
10
232.517649497539
20
162.750417450222
30
49.3749961910669
 70
     192
  0
VERTEX
  8
Layer0
10
233.000008624942
20
0.556455240233966
30
49.374996081432
 70
     192
  0
VERTEX
  8
Layer0
10
233.000011403791
20
162.950218303788
30
49.374996191524
 70
     192
  0
VERTEX
  8
Layer0
10
233.414222192953
20
0.238618002385857
30
49.374996098549
 70
     192
  0
VERTEX
  8
Layer0
10
233.414224960526
20
163.268055556331
30
49.3749961869131
 70
     192
  0
VERTEX
  8
Layer0
10
233.732059445496
20
-0.175595554349341
30
49.3749961175103
 70
     192
  0
VERTEX
  8
Layer0
10
233.732062198375
20
163.682269124342
30
49.3749961775569
 70
     192
  0
VERTEX
  8
Layer0
10
233.931860299061
20
-0.657957460601445
30
49.3749961370206
 70
     192
  0
VERTEX
  8
Layer0
10
233.931863034827
20
164.164631037681
30
49.3749961640908
 70
     192
  0
VERTEX
  8
Layer0
10
222.000008357569
20
334.682269218659
30
49.3749901567328
 70
     192
  0
VERTEX
  8
Layer0
10
230.068156769284
20
331.057771828246
30
49.3749904025131
 70
     192
  0
VERTEX
  8
Layer0
10
230.267957605737
20
331.540133741586
30
49.3749903890435
 70
     192
  0
VERTEX
  8
Layer0
10
230.585794843585
20
331.954347309598
30
49.3749903796865
 70
     192
  0
VERTEX
  8
Layer0
10
231.00000840032
20
332.27218456214
30
49.3749903750789
 70
     192
  0
VERTEX
  8
Layer0
10
231.482370306571
20
332.471985415705
30
49.374990375533
 70
     192
  0
VERTEX
  8
Layer0
10
232.000008395567
20
332.54013377231
30
49.3749903810279
 70
     192
  0
VERTEX
  8
Layer0
10
232.517646486981
20
332.471985434069
30
49.3749903911779
 70
     192
  0
VERTEX
  8
Layer0
10
233.00000840032
20
332.272184597616
30
49.3749904052941
 70
     192
  0
VERTEX
  8
Layer0
10
233.414221968331
20
331.954347359769
30
49.3749904224111
 70
     192
  0
VERTEX
  8
Layer0
10
233.732059220874
20
331.540133803033
30
49.3749904413727
 70
     192
  0
VERTEX
  8
Layer0
10
233.931860074441
20
331.057771896782
30
49.374990460883
 70
     192
  0
VERTEX
  8
Layer0
10
234.000008431043
20
330.540133807785
30
49.3749904796068
 70
     192
  0
VERTEX
  8
Layer0
10
230.068156787648
20
330.022495647837
30
49.3749904379005
 70
     192
  0
VERTEX
  8
Layer0
10
230.068159711306
20
165.199907149556
30
49.3749960703335
 70
     192
  0
VERTEX
  8
Layer0
10
230.267957641213
20
329.540133741586
30
49.3749904574064
 70
     192
  0
VERTEX
  8
Layer0
10
230.26796054776
20
165.682269062895
30
49.3749960568641
 70
     192
  0
VERTEX
  8
Layer0
10
230.585794893756
20
329.125920184852
30
49.3749904763667
 70
     192
  0
VERTEX
  8
Layer0
10
230.585797785608
20
166.096482630906
30
49.3749960475075
 70
     192
  0
VERTEX
  8
Layer0
10
231.000008461767
20
328.808082947002
30
49.3749904934879
 70
     192
  0
VERTEX
  8
Layer0
10
231.000011342343
20
166.414319883449
30
49.3749960429
 70
     192
  0
VERTEX
  8
Layer0
10
231.482370375106
20
328.608282110549
30
49.3749905076006
 70
     192
  0
VERTEX
  8
Layer0
10
231.482373248594
20
166.614120737015
30
49.3749960433543
 70
     192
  0
VERTEX
  8
Layer0
10
232.00000846652
20
328.54013377231
30
49.3749905177544
 70
     192
  0
VERTEX
  8
Layer0
10
232.00001133759
20
166.682269093618
30
49.3749960488494
 70
     192
  0
VERTEX
  8
Layer0
10
232.517646555516
20
328.608282128913
30
49.3749905232455
 70
     192
  0
VERTEX
  8
Layer0
10
232.517649429004
20
166.614120755378
30
49.3749960589988
 70
     192
  0
VERTEX
  8
Layer0
10
233.000008461767
20
328.808082982478
30
49.3749905237034
 70
     192
  0
VERTEX
  8
Layer0
10
233.000011342343
20
166.414319918926
30
49.3749960731155
 70
     192
  0
VERTEX
  8
Layer0
10
233.414222018502
20
329.125920235023
30
49.3749905190913
 70
     192
  0
VERTEX
  8
Layer0
10
233.414224910355
20
166.096482681077
30
49.3749960902324
 70
     192
  0
VERTEX
  8
Layer0
10
233.732059256351
20
329.540133803033
30
49.3749905097356
 70
     192
  0
VERTEX
  8
Layer0
10
233.732062162897
20
165.682269124342
30
49.3749961091936
 70
     192
  0
VERTEX
  8
Layer0
10
233.931860092804
20
330.022495716372
30
49.3749904962704
 70
     192
  0
VERTEX
  8
Layer0
10
233.931863016463
20
165.199907218091
30
49.3749961287034
 70
     192
  0
VERTEX
  8
Layer0
10
0.0
 20
 0.0
 30
0.0
 70
     128
 71
-1
 72
2
 73
-3
  0
VERTEX
  8
Layer0
10
0.0
 20
 0.0
 30
0.0
 70
     128
 71
-2
 72
1
 73
-4
  0
VERTEX
  8
Layer0
10
0.0
 20
 0.0
 30
0.0
 70
     128
 71
-2
 72
-4
 73
5
  0
VERTEX
  8
Layer0
10
0.0
 20
 0.0
 30
0.0
 70
     128
 71
-5
 72
4
 73
-6
  0
VERTEX
  8
Layer0
10
0.0
 20
 0.0
 30
0.0
 70
     128
 71
-5
 72
-6
 73
7
  0
VERTEX
  8
Layer0
10
0.0
 20
 0.0
 30
0.0
 70
     128
 71
-7
 72
6
 73
-8
  0
VERTEX
  8
Layer0
10
0.0
 20
 0.0
 30
0.0
 70
     128
 71
-7
 72
-8
 73
9
  0
VERTEX
  8
Layer0
10
0.0
 20
 0.0
 30
0.0
 70
     128
 71
-9
 72
8
 73
-10
  0
VERTEX
  8
Layer0
10
0.0
 20
 0.0
 30
0.0
 70
     128
 71
-9
 72
-10
 73
11
  0
VERTEX
  8
Layer0
10
0.0
 20
 0.0
 30
0.0
 70
     128
 71
-11
 72
10
 73
-12
  0
VERTEX
  8
Layer0
10
0.0
 20
 0.0
 30
0.0
 70
     128
 71
-11
 72
-12
 73
13
  0
VERTEX
  8
Layer0
10
0.0
 20
 0.0
 30
0.0
 70
     128
 71
-13
 72
12
 73
-14
  0
VERTEX
  8
Layer0
10
0.0
 20
 0.0
 30
0.0
 70
     128
 71
-13
 72
-14
 73
15
  0
VERTEX
  8
Layer0
10
0.0
 20
 0.0
 30
0.0
 70
     128
 71
-15
 72
14
 73
-16
  0
VERTEX
  8
Layer0
10
0.0
 20
 0.0
 30
0.0
 70
     128
 71
-15
 72
-16
 73
17
  0
VERTEX
  8
Layer0
10
0.0
 20
 0.0
 30
0.0
 70
     128
 71
-17
 72
16
 73
-18
  0
VERTEX
  8
Layer0
10
0.0
 20
 0.0
 30
0.0
 70
     128
 71
-17
 72
-18
 73
19
  0
VERTEX
  8
Layer0
10
0.0
 20
 0.0
 30
0.0
 70
     128
 71
-19
 72
18
 73
-20
  0
VERTEX
  8
Layer0
10
0.0
 20
 0.0
 30
0.0
 70
     128
 71
-19
 72
-20
 73
21
  0
VERTEX
  8
Layer0
10
0.0
 20
 0.0
 30
0.0
 70
     128
 71
-21
 72
20
 73
-22
  0
VERTEX
  8
Layer0
10
0.0
 20
 0.0
 30
0.0
 70
     128
 71
-21
 72
-22
 73
23
  0
VERTEX
  8
Layer0
10
0.0
 20
 0.0
 30
0.0
 70
     128
 71
-23
 72
22
 73
-24
  0
VERTEX
  8
Layer0
10
0.0
 20
 0.0
 30
0.0
 70
     128
 71
-23
 72
-24
 73
25
  0
VERTEX
  8
Layer0
10
0.0
 20
 0.0
 30
0.0
 70
     128
 71
-25
 72
24
 73
-26
  0
VERTEX
  8
Layer0
10
0.0
 20
 0.0
 30
0.0
 70
     128
 71
-27
 72
-28
 73
29
  0
VERTEX
  8
Layer0
10
0.0
 20
 0.0
 30
0.0
 70
     128
 71
-28
 72
-27
 73
30
  0
VERTEX
  8
Layer0
10
0.0
 20
 0.0
 30
0.0
 70
     128
 71
-30
 72
-27
 73
31
  0
VERTEX
  8
Layer0
10
0.0
 20
 0.0
 30
0.0
 70
     128
 71
-31
 72
-27
 73
32
  0
VERTEX
  8
Layer0
10
0.0
 20
 0.0
 30
0.0
 70
     128
 71
-32
 72
-27
 73
33
  0
VERTEX
  8
Layer0
10
0.0
 20
 0.0
 30
0.0
 70
     128
 71
-33
 72
-27
 73
34
  0
VERTEX
  8
Layer0
10
0.0
 20
 0.0
 30
0.0
 70
     128
 71
-34
 72
-27
 73
35
  0
VERTEX
  8
Layer0
10
0.0
 20
 0.0
 30
0.0
 70
     128
 71
-35
 72
-27
 73
-36
  0
VERTEX
  8
Layer0
10
0.0
 20
 0.0
 30
0.0
 70
     128
 71
-29
 72
28
 73
-37
  0
VERTEX
  8
Layer0
10
0.0
 20
 0.0
 30
0.0
 70
     128
 71
-29
 72
37
 73
-38
  0
VERTEX
  8
Layer0
10
0.0
 20
 0.0
 30
0.0
 70
     128
 71
-29
 72
38
 73
-39
  0
VERTEX
  8
Layer0
10
0.0
 20
 0.0
 30
0.0
 70
     128
 71
-29
 72
39
 73
-40
  0
VERTEX
  8
Layer0
10
0.0
 20
 0.0
 30
0.0
 70
     128
 71
-29
 72
40
 73
-41
  0
VERTEX
  8
Layer0
10
0.0
 20
 0.0
 30
0.0
 70
     128
 71
-29
 72
41
 73
-42
  0
VERTEX
  8
Layer0
10
0.0
 20
 0.0
 30
0.0
 70
     128
 71
-29
 72
-42
 73
-43
  0
VERTEX
  8
Layer0
10
0.0
 20
 0.0
 30
0.0
 70
     128
 71
-43
 72
-42
 73
44
  0
VERTEX
  8
Layer0
10
0.0
 20
 0.0
 30
0.0
 70
     128
 71
-44
 72
-42
 73
45
  0
VERTEX
  8
Layer0
10
0.0
 20
 0.0
 30
0.0
 70
     128
 71
-45
 72
-42
 73
46
  0
VERTEX
  8
Layer0
10
0.0
 20
 0.0
 30
0.0
 70
     128
 71
-46
 72
-42
 73
47
  0
VERTEX
  8
Layer0
10
0.0
 20
 0.0
 30
0.0
 70
     128
 71
-47
 72
-42
 73
48
  0
VERTEX
  8
Layer0
10
0.0
 20
 0.0
 30
0.0
 70
     128
 71
-48
 72
-42
 73
49
  0
VERTEX
  8
Layer0
10
0.0
 20
 0.0
 30
0.0
 70
     128
 71
-49
 72
-42
 73
-50
  0
VERTEX
  8
Layer0
10
0.0
 20
 0.0
 30
0.0
 70
     128
 71
-29
 72
43
 73
-51
  0
VERTEX
  8
Layer0
10
0.0
 20
 0.0
 30
0.0
 70
     128
 71
-29
 72
51
 73
-52
  0
VERTEX
  8
Layer0
10
0.0
 20
 0.0
 30
0.0
 70
     128
 71
-29
 72
52
 73
-53
  0
VERTEX
  8
Layer0
10
0.0
 20
 0.0
 30
0.0
 70
     128
 71
-29
 72
53
 73
-54
  0
VERTEX
  8
Layer0
10
0.0
 20
 0.0
 30
0.0
 70
     128
 71
-29
 72
54
 73
-55
  0
VERTEX
  8
Layer0
10
0.0
 20
 0.0
 30
0.0
 70
     128
 71
-29
 72
55
 73
-56
  0
VERTEX
  8
Layer0
10
0.0
 20
 0.0
 30
0.0
 70
     128
 71
-29
 72
-56
 73
-57
  0
VERTEX
  8
Layer0
10
0.0
 20
 0.0
 30
0.0
 70
     128
 71
-57
 72
-56
 73
58
  0
VERTEX
  8
Layer0
10
0.0
 20
 0.0
 30
0.0
 70
     128
 71
-58
 72
-56
 73
59
  0
VERTEX
  8
Layer0
10
0.0
 20
 0.0
 30
0.0
 70
     128
 71
-59
 72
-56
 73
-60
  0
VERTEX
  8
Layer0
10
0.0
 20
 0.0
 30
0.0
 70
     128
 71
-29
 72
57
 73
-61
  0
VERTEX
  8
Layer0
10
0.0
 20
 0.0
 30
0.0
 70
     128
 71
-29
 72
61
 73
-62
  0
VERTEX
  8
Layer0
10
0.0
 20
 0.0
 30
0.0
 70
     128
 71
-29
 72
62
 73
-63
  0
VERTEX
  8
Layer0
10
0.0
 20
 0.0
 30
0.0
 70
     128
 71
-29
 72
63
 73
-64
  0
VERTEX
  8
Layer0
10
0.0
 20
 0.0
 30
0.0
 70
     128
 71
-29
 72
64
 73
-65
  0
VERTEX
  8
Layer0
10
0.0
 20
 0.0
 30
0.0
 70
     128
 71
-29
 72
65
 73
-66
  0
VERTEX
  8
Layer0
10
0.0
 20
 0.0
 30
0.0
 70
     128
 71
-29
 72
66
 73
-67
  0
VERTEX
  8
Layer0
10
0.0
 20
 0.0
 30
0.0
 70
     128
 71
-29
 72
67
 73
-68
  0
VERTEX
  8
Layer0
10
0.0
 20
 0.0
 30
0.0
 70
     128
 71
-29
 72
68
 73
-69
  0
VERTEX
  8
Layer0
10
0.0
 20
 0.0
 30
0.0
 70
     128
 71
-29
 72
69
 73
-70
  0
VERTEX
  8
Layer0
10
0.0
 20
 0.0
 30
0.0
 70
     128
 71
-29
 72
-70
 73
-71
  0
VERTEX
  8
Layer0
10
0.0
 20
 0.0
 30
0.0
 70
     128
 71
-29
 72
-71
 73
-72
  0
VERTEX
  8
Layer0
10
0.0
 20
 0.0
 30
0.0
 70
     128
 71
-29
 72
-72
 73
-73
  0
VERTEX
  8
Layer0
10
0.0
 20
 0.0
 30
0.0
 70
     128
 71
-73
 72
-72
 73
74
  0
VERTEX
  8
Layer0
10
0.0
 20
 0.0
 30
0.0
 70
     128
 71
-74
 72
-72
 73
75
  0
VERTEX
  8
Layer0
10
0.0
 20
 0.0
 30
0.0
 70
     128
 71
-75
 72
-72
 73
76
  0
VERTEX
  8
Layer0
10
0.0
 20
 0.0
 30
0.0
 70
     128
 71
-76
 72
-72
 73
77
  0
VERTEX
  8
Layer0
10
0.0
 20
 0.0
 30
0.0
 70
     128
 71
-77
 72
-72
 73
78
  0
VERTEX
  8
Layer0
10
0.0
 20
 0.0
 30
0.0
 70
     128
 71
-78
 72
72
 73
-79
  0
VERTEX
  8
Layer0
10
0.0
 20
 0.0
 30
0.0
 70
     128
 71
-78
 72
-79
 73
80
  0
VERTEX
  8
Layer0
10
0.0
 20
 0.0
 30
0.0
 70
     128
 71
-80
 72
-79
 73
81
  0
VERTEX
  8
Layer0
10
0.0
 20
 0.0
 30
0.0
 70
     128
 71
-81
 72
-79
 73
82
  0
VERTEX
  8
Layer0
10
0.0
 20
 0.0
 30
0.0
 70
     128
 71
-82
 72
-79
 73
83
  0
VERTEX
  8
Layer0
10
0.0
 20
 0.0
 30
0.0
 70
     128
 71
-83
 72
-79
 73
84
  0
VERTEX
  8
Layer0
10
0.0
 20
 0.0
 30
0.0
 70
     128
 71
-84
 72
-79
 73
85
  0
VERTEX
  8
Layer0
10
0.0
 20
 0.0
 30
0.0
 70
     128
 71
-85
 72
-79
 73
86
  0
VERTEX
  8
Layer0
10
0.0
 20
 0.0
 30
0.0
 70
     128
 71
-86
 72
-79
 73
-26
  0
VERTEX
  8
Layer0
10
0.0
 20
 0.0
 30
0.0
 70
     128
 71
-29
 72
-87
 73
88
  0
VERTEX
  8
Layer0
10
0.0
 20
 0.0
 30
0.0
 70
     128
 71
-87
 72
-29
 73
89
  0
VERTEX
  8
Layer0
10
0.0
 20
 0.0
 30
0.0
 70
     128
 71
-89
 72
-29
 73
90
  0
VERTEX
  8
Layer0
10
0.0
 20
 0.0
 30
0.0
 70
     128
 71
-90
 72
-29
 73
91
  0
VERTEX
  8
Layer0
10
0.0
 20
 0.0
 30
0.0
 70
     128
 71
-91
 72
-29
 73
92
  0
VERTEX
  8
Layer0
10
0.0
 20
 0.0
 30
0.0
 70
     128
 71
-92
 72
-29
 73
3
  0
VERTEX
  8
Layer0
10
0.0
 20
 0.0
 30
0.0
 70
     128
 71
-3
 72
-29
 73
-73
  0
VERTEX
  8
Layer0
10
0.0
 20
 0.0
 30
0.0
 70
     128
 71
-88
 72
87
 73
-93
  0
VERTEX
  8
Layer0
10
0.0
 20
 0.0
 30
0.0
 70
     128
 71
-88
 72
93
 73
-94
  0
VERTEX
  8
Layer0
10
0.0
 20
 0.0
 30
0.0
 70
     128
 71
-88
 72
94
 73
-95
  0
VERTEX
  8
Layer0
10
0.0
 20
 0.0
 30
0.0
 70
     128
 71
-88
 72
95
 73
-96
  0
VERTEX
  8
Layer0
10
0.0
 20
 0.0
 30
0.0
 70
     128
 71
-88
 72
96
 73
-97
  0
VERTEX
  8
Layer0
10
0.0
 20
 0.0
 30
0.0
 70
     128
 71
-88
 72
97
 73
-98
  0
VERTEX
  8
Layer0
10
0.0
 20
 0.0
 30
0.0
 70
     128
 71
-88
 72
98
 73
-25
  0
VERTEX
  8
Layer0
10
0.0
 20
 0.0
 30
0.0
 70
     128
 71
-88
 72
-25
 73
-26
  0
VERTEX
  8
Layer0
10
0.0
 20
 0.0
 30
0.0
 70
     128
 71
-88
 72
-26
 73
79
  0
VERTEX
  8
Layer0
10
0.0
 20
 0.0
 30
0.0
 70
     128
 71
-73
 72
-1
 73
-3
  0
VERTEX
  8
Layer0
10
0.0
 20
 0.0
 30
0.0
 70
     128
 71
-1
 72
73
 73
-99
  0
VERTEX
  8
Layer0
10
0.0
 20
 0.0
 30
0.0
 70
     128
 71
-1
 72
-99
 73
100
  0
VERTEX
  8
Layer0
10
0.0
 20
 0.0
 30
0.0
 70
     128
 71
-100
 72
99
 73
-101
  0
VERTEX
  8
Layer0
10
0.0
 20
 0.0
 30
0.0
 70
     128
 71
-100
 72
-101
 73
102
  0
VERTEX
  8
Layer0
10
0.0
 20
 0.0
 30
0.0
 70
     128
 71
-102
 72
101
 73
-103
  0
VERTEX
  8
Layer0
10
0.0
 20
 0.0
 30
0.0
 70
     128
 71
-102
 72
-103
 73
104
  0
VERTEX
  8
Layer0
10
0.0
 20
 0.0
 30
0.0
 70
     128
 71
-104
 72
103
 73
-105
  0
VERTEX
  8
Layer0
10
0.0
 20
 0.0
 30
0.0
 70
     128
 71
-104
 72
-105
 73
106
  0
VERTEX
  8
Layer0
10
0.0
 20
 0.0
 30
0.0
 70
     128
 71
-106
 72
105
 73
-107
  0
VERTEX
  8
Layer0
10
0.0
 20
 0.0
 30
0.0
 70
     128
 71
-106
 72
-107
 73
108
  0
VERTEX
  8
Layer0
10
0.0
 20
 0.0
 30
0.0
 70
     128
 71
-108
 72
107
 73
-109
  0
VERTEX
  8
Layer0
10
0.0
 20
 0.0
 30
0.0
 70
     128
 71
-108
 72
-109
 73
110
  0
VERTEX
  8
Layer0
10
0.0
 20
 0.0
 30
0.0
 70
     128
 71
-110
 72
109
 73
-111
  0
VERTEX
  8
Layer0
10
0.0
 20
 0.0
 30
0.0
 70
     128
 71
-110
 72
-111
 73
112
  0
VERTEX
  8
Layer0
10
0.0
 20
 0.0
 30
0.0
 70
     128
 71
-112
 72
111
 73
-113
  0
VERTEX
  8
Layer0
10
0.0
 20
 0.0
 30
0.0
 70
     128
 71
-112
 72
-113
 73
114
  0
VERTEX
  8
Layer0
10
0.0
 20
 0.0
 30
0.0
 70
     128
 71
-114
 72
113
 73
-115
  0
VERTEX
  8
Layer0
10
0.0
 20
 0.0
 30
0.0
 70
     128
 71
-114
 72
-115
 73
116
  0
VERTEX
  8
Layer0
10
0.0
 20
 0.0
 30
0.0
 70
     128
 71
-116
 72
115
 73
-117
  0
VERTEX
  8
Layer0
10
0.0
 20
 0.0
 30
0.0
 70
     128
 71
-116
 72
-117
 73
118
  0
VERTEX
  8
Layer0
10
0.0
 20
 0.0
 30
0.0
 70
     128
 71
-118
 72
117
 73
-119
  0
VERTEX
  8
Layer0
10
0.0
 20
 0.0
 30
0.0
 70
     128
 71
-118
 72
-119
 73
120
  0
VERTEX
  8
Layer0
10
0.0
 20
 0.0
 30
0.0
 70
     128
 71
-120
 72
119
 73
-86
  0
VERTEX
  8
Layer0
10
0.0
 20
 0.0
 30
0.0
 70
     128
 71
-120
 72
-86
 73
26
  0
VERTEX
  8
Layer0
10
0.0
 20
 0.0
 30
0.0
 70
     128
 71
-121
 72
-59
 73
60
  0
VERTEX
  8
Layer0
10
0.0
 20
 0.0
 30
0.0
 70
     128
 71
-59
 72
-121
 73
122
  0
VERTEX
  8
Layer0
10
0.0
 20
 0.0
 30
0.0
 70
     128
 71
-122
 72
-121
 73
123
  0
VERTEX
  8
Layer0
10
0.0
 20
 0.0
 30
0.0
 70
     128
 71
-123
 72
-121
 73
124
  0
VERTEX
  8
Layer0
10
0.0
 20
 0.0
 30
0.0
 70
     128
 71
-124
 72
121
 73
-125
  0
VERTEX
  8
Layer0
10
0.0
 20
 0.0
 30
0.0
 70
     128
 71
-124
 72
-125
 73
126
  0
VERTEX
  8
Layer0
10
0.0
 20
 0.0
 30
0.0
 70
     128
 71
-126
 72
125
 73
-127
  0
VERTEX
  8
Layer0
10
0.0
 20
 0.0
 30
0.0
 70
     128
 71
-126
 72
-127
 73
128
  0
VERTEX
  8
Layer0
10
0.0
 20
 0.0
 30
0.0
 70
     128
 71
-128
 72
127
 73
-129
  0
VERTEX
  8
Layer0
10
0.0
 20
 0.0
 30
0.0
 70
     128
 71
-128
 72
-129
 73
130
  0
VERTEX
  8
Layer0
10
0.0
 20
 0.0
 30
0.0
 70
     128
 71
-130
 72
129
 73
-131
  0
VERTEX
  8
Layer0
10
0.0
 20
 0.0
 30
0.0
 70
     128
 71
-130
 72
-131
 73
132
  0
VERTEX
  8
Layer0
10
0.0
 20
 0.0
 30
0.0
 70
     128
 71
-132
 72
131
 73
-133
  0
VERTEX
  8
Layer0
10
0.0
 20
 0.0
 30
0.0
 70
     128
 71
-132
 72
-133
 73
134
  0
VERTEX
  8
Layer0
10
0.0
 20
 0.0
 30
0.0
 70
     128
 71
-134
 72
133
 73
-135
  0
VERTEX
  8
Layer0
10
0.0
 20
 0.0
 30
0.0
 70
     128
 71
-134
 72
-135
 73
136
  0
VERTEX
  8
Layer0
10
0.0
 20
 0.0
 30
0.0
 70
     128
 71
-136
 72
135
 73
-137
  0
VERTEX
  8
Layer0
10
0.0
 20
 0.0
 30
0.0
 70
     128
 71
-136
 72
-137
 73
138
  0
VERTEX
  8
Layer0
10
0.0
 20
 0.0
 30
0.0
 70
     128
 71
-138
 72
137
 73
-139
  0
VERTEX
  8
Layer0
10
0.0
 20
 0.0
 30
0.0
 70
     128
 71
-138
 72
-139
 73
140
  0
VERTEX
  8
Layer0
10
0.0
 20
 0.0
 30
0.0
 70
     128
 71
-140
 72
-139
 73
141
  0
VERTEX
  8
Layer0
10
0.0
 20
 0.0
 30
0.0
 70
     128
 71
-141
 72
139
 73
-142
  0
VERTEX
  8
Layer0
10
0.0
 20
 0.0
 30
0.0
 70
     128
 71
-141
 72
-142
 73
143
  0
VERTEX
  8
Layer0
10
0.0
 20
 0.0
 30
0.0
 70
     128
 71
-143
 72
142
 73
-144
  0
VERTEX
  8
Layer0
10
0.0
 20
 0.0
 30
0.0
 70
     128
 71
-143
 72
-144
 73
70
  0
VERTEX
  8
Layer0
10
0.0
 20
 0.0
 30
0.0
 70
     128
 71
-70
 72
144
 73
-71
  0
VERTEX
  8
Layer0
10
0.0
 20
 0.0
 30
0.0
 70
     128
 71
-145
 72
-146
 73
27
  0
VERTEX
  8
Layer0
10
0.0
 20
 0.0
 30
0.0
 70
     128
 71
-146
 72
-145
 73
147
  0
VERTEX
  8
Layer0
10
0.0
 20
 0.0
 30
0.0
 70
     128
 71
-147
 72
-145
 73
148
  0
VERTEX
  8
Layer0
10
0.0
 20
 0.0
 30
0.0
 70
     128
 71
-148
 72
-145
 73
-149
  0
VERTEX
  8
Layer0
10
0.0
 20
 0.0
 30
0.0
 70
     128
 71
-27
 72
146
 73
-150
  0
VERTEX
  8
Layer0
10
0.0
 20
 0.0
 30
0.0
 70
     128
 71
-27
 72
150
 73
-151
  0
VERTEX
  8
Layer0
10
0.0
 20
 0.0
 30
0.0
 70
     128
 71
-27
 72
151
 73
-152
  0
VERTEX
  8
Layer0
10
0.0
 20
 0.0
 30
0.0
 70
     128
 71
-27
 72
152
 73
-153
  0
VERTEX
  8
Layer0
10
0.0
 20
 0.0
 30
0.0
 70
     128
 71
-27
 72
153
 73
-154
  0
VERTEX
  8
Layer0
10
0.0
 20
 0.0
 30
0.0
 70
     128
 71
-27
 72
154
 73
-155
  0
VERTEX
  8
Layer0
10
0.0
 20
 0.0
 30
0.0
 70
     128
 71
-27
 72
155
 73
-156
  0
VERTEX
  8
Layer0
10
0.0
 20
 0.0
 30
0.0
 70
     128
 71
-27
 72
156
 73
-157
  0
VERTEX
  8
Layer0
10
0.0
 20
 0.0
 30
0.0
 70
     128
 71
-27
 72
157
 73
-158
  0
VERTEX
  8
Layer0
10
0.0
 20
 0.0
 30
0.0
 70
     128
 71
-27
 72
158
 73
-159
  0
VERTEX
  8
Layer0
10
0.0
 20
 0.0
 30
0.0
 70
     128
 71
-27
 72
-159
 73
-160
  0
VERTEX
  8
Layer0
10
0.0
 20
 0.0
 30
0.0
 70
     128
 71
-27
 72
-160
 73
-161
  0
VERTEX
  8
Layer0
10
0.0
 20
 0.0
 30
0.0
 70
     128
 71
-27
 72
-161
 73
-36
  0
VERTEX
  8
Layer0
10
0.0
 20
 0.0
 30
0.0
 70
     128
 71
-36
 72
-161
 73
162
  0
VERTEX
  8
Layer0
10
0.0
 20
 0.0
 30
0.0
 70
     128
 71
-162
 72
-161
 73
163
  0
VERTEX
  8
Layer0
10
0.0
 20
 0.0
 30
0.0
 70
     128
 71
-163
 72
-161
 73
164
  0
VERTEX
  8
Layer0
10
0.0
 20
 0.0
 30
0.0
 70
     128
 71
-164
 72
-161
 73
165
  0
VERTEX
  8
Layer0
10
0.0
 20
 0.0
 30
0.0
 70
     128
 71
-165
 72
-161
 73
166
  0
VERTEX
  8
Layer0
10
0.0
 20
 0.0
 30
0.0
 70
     128
 71
-166
 72
-161
 73
167
  0
VERTEX
  8
Layer0
10
0.0
 20
 0.0
 30
0.0
 70
     128
 71
-167
 72
161
 73
-72
  0
VERTEX
  8
Layer0
10
0.0
 20
 0.0
 30
0.0
 70
     128
 71
-167
 72
-72
 73
168
  0
VERTEX
  8
Layer0
10
0.0
 20
 0.0
 30
0.0
 70
     128
 71
-168
 72
-72
 73
169
  0
VERTEX
  8
Layer0
10
0.0
 20
 0.0
 30
0.0
 70
     128
 71
-169
 72
-72
 73
170
  0
VERTEX
  8
Layer0
10
0.0
 20
 0.0
 30
0.0
 70
     128
 71
-170
 72
-72
 73
171
  0
VERTEX
  8
Layer0
10
0.0
 20
 0.0
 30
0.0
 70
     128
 71
-171
 72
-72
 73
172
  0
VERTEX
  8
Layer0
10
0.0
 20
 0.0
 30
0.0
 70
     128
 71
-172
 72
-72
 73
173
  0
VERTEX
  8
Layer0
10
0.0
 20
 0.0
 30
0.0
 70
     128
 71
-173
 72
-72
 73
-174
  0
VERTEX
  8
Layer0
10
0.0
 20
 0.0
 30
0.0
 70
     128
 71
-173
 72
174
 73
-175
  0
VERTEX
  8
Layer0
10
0.0
 20
 0.0
 30
0.0
 70
     128
 71
-173
 72
175
 73
-176
  0
VERTEX
  8
Layer0
10
0.0
 20
 0.0
 30
0.0
 70
     128
 71
-173
 72
176
 73
-177
  0
VERTEX
  8
Layer0
10
0.0
 20
 0.0
 30
0.0
 70
     128
 71
-173
 72
177
 73
-178
  0
VERTEX
  8
Layer0
10
0.0
 20
 0.0
 30
0.0
 70
     128
 71
-173
 72
-178
 73
-42
  0
VERTEX
  8
Layer0
10
0.0
 20
 0.0
 30
0.0
 70
     128
 71
-42
 72
178
 73
-179
  0
VERTEX
  8
Layer0
10
0.0
 20
 0.0
 30
0.0
 70
     128
 71
-42
 72
179
 73
-50
  0
VERTEX
  8
Layer0
10
0.0
 20
 0.0
 30
0.0
 70
     128
 71
-174
 72
-72
 73
180
  0
VERTEX
  8
Layer0
10
0.0
 20
 0.0
 30
0.0
 70
     128
 71
-180
 72
-72
 73
181
  0
VERTEX
  8
Layer0
10
0.0
 20
 0.0
 30
0.0
 70
     128
 71
-181
 72
-72
 73
182
  0
VERTEX
  8
Layer0
10
0.0
 20
 0.0
 30
0.0
 70
     128
 71
-182
 72
-72
 73
183
  0
VERTEX
  8
Layer0
10
0.0
 20
 0.0
 30
0.0
 70
     128
 71
-183
 72
-72
 73
184
  0
VERTEX
  8
Layer0
10
0.0
 20
 0.0
 30
0.0
 70
     128
 71
-184
 72
-72
 73
185
  0
VERTEX
  8
Layer0
10
0.0
 20
 0.0
 30
0.0
 70
     128
 71
-185
 72
-72
 73
-186
  0
VERTEX
  8
Layer0
10
0.0
 20
 0.0
 30
0.0
 70
     128
 71
-185
 72
-186
 73
-56
  0
VERTEX
  8
Layer0
10
0.0
 20
 0.0
 30
0.0
 70
     128
 71
-56
 72
186
 73
-187
  0
VERTEX
  8
Layer0
10
0.0
 20
 0.0
 30
0.0
 70
     128
 71
-56
 72
187
 73
-60
  0
VERTEX
  8
Layer0
10
0.0
 20
 0.0
 30
0.0
 70
     128
 71
-186
 72
-72
 73
188
  0
VERTEX
  8
Layer0
10
0.0
 20
 0.0
 30
0.0
 70
     128
 71
-188
 72
-72
 73
189
  0
VERTEX
  8
Layer0
10
0.0
 20
 0.0
 30
0.0
 70
     128
 71
-189
 72
-72
 73
190
  0
VERTEX
  8
Layer0
10
0.0
 20
 0.0
 30
0.0
 70
     128
 71
-190
 72
-72
 73
191
  0
VERTEX
  8
Layer0
10
0.0
 20
 0.0
 30
0.0
 70
     128
 71
-191
 72
-72
 73
192
  0
VERTEX
  8
Layer0
10
0.0
 20
 0.0
 30
0.0
 70
     128
 71
-192
 72
-72
 73
193
  0
VERTEX
  8
Layer0
10
0.0
 20
 0.0
 30
0.0
 70
     128
 71
-193
 72
-72
 73
194
  0
VERTEX
  8
Layer0
10
0.0
 20
 0.0
 30
0.0
 70
     128
 71
-194
 72
-72
 73
195
  0
VERTEX
  8
Layer0
10
0.0
 20
 0.0
 30
0.0
 70
     128
 71
-195
 72
-72
 73
196
  0
VERTEX
  8
Layer0
10
0.0
 20
 0.0
 30
0.0
 70
     128
 71
-196
 72
-72
 73
71
  0
VERTEX
  8
Layer0
10
0.0
 20
 0.0
 30
0.0
 70
     128
 71
-197
 72
-49
 73
50
  0
VERTEX
  8
Layer0
10
0.0
 20
 0.0
 30
0.0
 70
     128
 71
-49
 72
-197
 73
198
  0
VERTEX
  8
Layer0
10
0.0
 20
 0.0
 30
0.0
 70
     128
 71
-198
 72
197
 73
-199
  0
VERTEX
  8
Layer0
10
0.0
 20
 0.0
 30
0.0
 70
     128
 71
-198
 72
-199
 73
200
  0
VERTEX
  8
Layer0
10
0.0
 20
 0.0
 30
0.0
 70
     128
 71
-200
 72
199
 73
-201
  0
VERTEX
  8
Layer0
10
0.0
 20
 0.0
 30
0.0
 70
     128
 71
-200
 72
-201
 73
202
  0
VERTEX
  8
Layer0
10
0.0
 20
 0.0
 30
0.0
 70
     128
 71
-202
 72
201
 73
-203
  0
VERTEX
  8
Layer0
10
0.0
 20
 0.0
 30
0.0
 70
     128
 71
-202
 72
-203
 73
204
  0
VERTEX
  8
Layer0
10
0.0
 20
 0.0
 30
0.0
 70
     128
 71
-204
 72
203
 73
-205
  0
VERTEX
  8
Layer0
10
0.0
 20
 0.0
 30
0.0
 70
     128
 71
-204
 72
-205
 73
206
  0
VERTEX
  8
Layer0
10
0.0
 20
 0.0
 30
0.0
 70
     128
 71
-206
 72
205
 73
-207
  0
VERTEX
  8
Layer0
10
0.0
 20
 0.0
 30
0.0
 70
     128
 71
-206
 72
-207
 73
208
  0
VERTEX
  8
Layer0
10
0.0
 20
 0.0
 30
0.0
 70
     128
 71
-208
 72
207
 73
-209
  0
VERTEX
  8
Layer0
10
0.0
 20
 0.0
 30
0.0
 70
     128
 71
-208
 72
-209
 73
210
  0
VERTEX
  8
Layer0
10
0.0
 20
 0.0
 30
0.0
 70
     128
 71
-210
 72
209
 73
-211
  0
VERTEX
  8
Layer0
10
0.0
 20
 0.0
 30
0.0
 70
     128
 71
-210
 72
-211
 73
212
  0
VERTEX
  8
Layer0
10
0.0
 20
 0.0
 30
0.0
 70
     128
 71
-212
 72
211
 73
-213
  0
VERTEX
  8
Layer0
10
0.0
 20
 0.0
 30
0.0
 70
     128
 71
-212
 72
-213
 73
214
  0
VERTEX
  8
Layer0
10
0.0
 20
 0.0
 30
0.0
 70
     128
 71
-214
 72
213
 73
-215
  0
VERTEX
  8
Layer0
10
0.0
 20
 0.0
 30
0.0
 70
     128
 71
-214
 72
-215
 73
216
  0
VERTEX
  8
Layer0
10
0.0
 20
 0.0
 30
0.0
 70
     128
 71
-216
 72
215
 73
-217
  0
VERTEX
  8
Layer0
10
0.0
 20
 0.0
 30
0.0
 70
     128
 71
-216
 72
-217
 73
218
  0
VERTEX
  8
Layer0
10
0.0
 20
 0.0
 30
0.0
 70
     128
 71
-218
 72
217
 73
-185
  0
VERTEX
  8
Layer0
10
0.0
 20
 0.0
 30
0.0
 70
     128
 71
-218
 72
-185
 73
56
  0
VERTEX
  8
Layer0
10
0.0
 20
 0.0
 30
0.0
 70
     128
 71
-219
 72
-35
 73
36
  0
VERTEX
  8
Layer0
10
0.0
 20
 0.0
 30
0.0
 70
     128
 71
-35
 72
-219
 73
220
  0
VERTEX
  8
Layer0
10
0.0
 20
 0.0
 30
0.0
 70
     128
 71
-220
 72
219
 73
-221
  0
VERTEX
  8
Layer0
10
0.0
 20
 0.0
 30
0.0
 70
     128
 71
-220
 72
-221
 73
222
  0
VERTEX
  8
Layer0
10
0.0
 20
 0.0
 30
0.0
 70
     128
 71
-222
 72
221
 73
-223
  0
VERTEX
  8
Layer0
10
0.0
 20
 0.0
 30
0.0
 70
     128
 71
-222
 72
-223
 73
224
  0
VERTEX
  8
Layer0
10
0.0
 20
 0.0
 30
0.0
 70
     128
 71
-224
 72
223
 73
-225
  0
VERTEX
  8
Layer0
10
0.0
 20
 0.0
 30
0.0
 70
     128
 71
-224
 72
-225
 73
226
  0
VERTEX
  8
Layer0
10
0.0
 20
 0.0
 30
0.0
 70
     128
 71
-226
 72
225
 73
-227
  0
VERTEX
  8
Layer0
10
0.0
 20
 0.0
 30
0.0
 70
     128
 71
-226
 72
-227
 73
228
  0
VERTEX
  8
Layer0
10
0.0
 20
 0.0
 30
0.0
 70
     128
 71
-228
 72
227
 73
-229
  0
VERTEX
  8
Layer0
10
0.0
 20
 0.0
 30
0.0
 70
     128
 71
-228
 72
-229
 73
230
  0
VERTEX
  8
Layer0
10
0.0
 20
 0.0
 30
0.0
 70
     128
 71
-230
 72
229
 73
-231
  0
VERTEX
  8
Layer0
10
0.0
 20
 0.0
 30
0.0
 70
     128
 71
-230
 72
-231
 73
232
  0
VERTEX
  8
Layer0
10
0.0
 20
 0.0
 30
0.0
 70
     128
 71
-232
 72
231
 73
-233
  0
VERTEX
  8
Layer0
10
0.0
 20
 0.0
 30
0.0
 70
     128
 71
-232
 72
-233
 73
234
  0
VERTEX
  8
Layer0
10
0.0
 20
 0.0
 30
0.0
 70
     128
 71
-234
 72
233
 73
-235
  0
VERTEX
  8
Layer0
10
0.0
 20
 0.0
 30
0.0
 70
     128
 71
-234
 72
-235
 73
236
  0
VERTEX
  8
Layer0
10
0.0
 20
 0.0
 30
0.0
 70
     128
 71
-236
 72
235
 73
-237
  0
VERTEX
  8
Layer0
10
0.0
 20
 0.0
 30
0.0
 70
     128
 71
-236
 72
-237
 73
238
  0
VERTEX
  8
Layer0
10
0.0
 20
 0.0
 30
0.0
 70
     128
 71
-238
 72
237
 73
-239
  0
VERTEX
  8
Layer0
10
0.0
 20
 0.0
 30
0.0
 70
     128
 71
-238
 72
-239
 73
240
  0
VERTEX
  8
Layer0
10
0.0
 20
 0.0
 30
0.0
 70
     128
 71
-240
 72
239
 73
-173
  0
VERTEX
  8
Layer0
10
0.0
 20
 0.0
 30
0.0
 70
     128
 71
-240
 72
-173
 73
42
  0
VERTEX
  8
Layer0
10
0.0
 20
 0.0
 30
0.0
 70
     128
 71
-241
 72
242
 73
-148
  0
VERTEX
  8
Layer0
10
0.0
 20
 0.0
 30
0.0
 70
     128
 71
-242
 72
241
 73
-243
  0
VERTEX
  8
Layer0
10
0.0
 20
 0.0
 30
0.0
 70
     128
 71
-242
 72
-243
 73
244
  0
VERTEX
  8
Layer0
10
0.0
 20
 0.0
 30
0.0
 70
     128
 71
-244
 72
243
 73
-245
  0
VERTEX
  8
Layer0
10
0.0
 20
 0.0
 30
0.0
 70
     128
 71
-244
 72
-245
 73
246
  0
VERTEX
  8
Layer0
10
0.0
 20
 0.0
 30
0.0
 70
     128
 71
-246
 72
245
 73
-247
  0
VERTEX
  8
Layer0
10
0.0
 20
 0.0
 30
0.0
 70
     128
 71
-246
 72
-247
 73
248
  0
VERTEX
  8
Layer0
10
0.0
 20
 0.0
 30
0.0
 70
     128
 71
-248
 72
247
 73
-249
  0
VERTEX
  8
Layer0
10
0.0
 20
 0.0
 30
0.0
 70
     128
 71
-248
 72
-249
 73
250
  0
VERTEX
  8
Layer0
10
0.0
 20
 0.0
 30
0.0
 70
     128
 71
-250
 72
249
 73
-251
  0
VERTEX
  8
Layer0
10
0.0
 20
 0.0
 30
0.0
 70
     128
 71
-250
 72
-251
 73
252
  0
VERTEX
  8
Layer0
10
0.0
 20
 0.0
 30
0.0
 70
     128
 71
-252
 72
251
 73
-253
  0
VERTEX
  8
Layer0
10
0.0
 20
 0.0
 30
0.0
 70
     128
 71
-252
 72
-253
 73
254
  0
VERTEX
  8
Layer0
10
0.0
 20
 0.0
 30
0.0
 70
     128
 71
-254
 72
253
 73
-255
  0
VERTEX
  8
Layer0
10
0.0
 20
 0.0
 30
0.0
 70
     128
 71
-254
 72
-255
 73
256
  0
VERTEX
  8
Layer0
10
0.0
 20
 0.0
 30
0.0
 70
     128
 71
-256
 72
255
 73
-257
  0
VERTEX
  8
Layer0
10
0.0
 20
 0.0
 30
0.0
 70
     128
 71
-256
 72
-257
 73
258
  0
VERTEX
  8
Layer0
10
0.0
 20
 0.0
 30
0.0
 70
     128
 71
-258
 72
257
 73
-259
  0
VERTEX
  8
Layer0
10
0.0
 20
 0.0
 30
0.0
 70
     128
 71
-258
 72
-259
 73
260
  0
VERTEX
  8
Layer0
10
0.0
 20
 0.0
 30
0.0
 70
     128
 71
-260
 72
259
 73
-261
  0
VERTEX
  8
Layer0
10
0.0
 20
 0.0
 30
0.0
 70
     128
 71
-260
 72
-261
 73
262
  0
VERTEX
  8
Layer0
10
0.0
 20
 0.0
 30
0.0
 70
     128
 71
-262
 72
261
 73
-263
  0
VERTEX
  8
Layer0
10
0.0
 20
 0.0
 30
0.0
 70
     128
 71
-262
 72
-263
 73
159
  0
VERTEX
  8
Layer0
10
0.0
 20
 0.0
 30
0.0
 70
     128
 71
-159
 72
263
 73
-160
  0
VERTEX
  8
Layer0
10
0.0
 20
 0.0
 30
0.0
 70
     128
 71
-264
 72
-149
 73
145
  0
VERTEX
  8
Layer0
10
0.0
 20
 0.0
 30
0.0
 70
     128
 71
-149
 72
-264
 73
265
  0
VERTEX
  8
Layer0
10
0.0
 20
 0.0
 30
0.0
 70
     128
 71
-265
 72
-264
 73
266
  0
VERTEX
  8
Layer0
10
0.0
 20
 0.0
 30
0.0
 70
     128
 71
-266
 72
264
 73
-161
  0
VERTEX
  8
Layer0
10
0.0
 20
 0.0
 30
0.0
 70
     128
 71
-266
 72
-161
 73
267
  0
VERTEX
  8
Layer0
10
0.0
 20
 0.0
 30
0.0
 70
     128
 71
-267
 72
-161
 73
268
  0
VERTEX
  8
Layer0
10
0.0
 20
 0.0
 30
0.0
 70
     128
 71
-268
 72
-161
 73
269
  0
VERTEX
  8
Layer0
10
0.0
 20
 0.0
 30
0.0
 70
     128
 71
-269
 72
-161
 73
270
  0
VERTEX
  8
Layer0
10
0.0
 20
 0.0
 30
0.0
 70
     128
 71
-270
 72
-161
 73
271
  0
VERTEX
  8
Layer0
10
0.0
 20
 0.0
 30
0.0
 70
     128
 71
-271
 72
-161
 73
272
  0
VERTEX
  8
Layer0
10
0.0
 20
 0.0
 30
0.0
 70
     128
 71
-272
 72
-161
 73
273
  0
VERTEX
  8
Layer0
10
0.0
 20
 0.0
 30
0.0
 70
     128
 71
-273
 72
-161
 73
274
  0
VERTEX
  8
Layer0
10
0.0
 20
 0.0
 30
0.0
 70
     128
 71
-274
 72
-161
 73
275
  0
VERTEX
  8
Layer0
10
0.0
 20
 0.0
 30
0.0
 70
     128
 71
-275
 72
-161
 73
276
  0
VERTEX
  8
Layer0
10
0.0
 20
 0.0
 30
0.0
 70
     128
 71
-276
 72
-161
 73
-160
  0
VERTEX
  8
Layer0
10
0.0
 20
 0.0
 30
0.0
 70
     128
 71
-149
 72
-241
 73
-148
  0
VERTEX
  8
Layer0
10
0.0
 20
 0.0
 30
0.0
 70
     128
 71
-241
 72
149
 73
-277
  0
VERTEX
  8
Layer0
10
0.0
 20
 0.0
 30
0.0
 70
     128
 71
-241
 72
-277
 73
278
  0
VERTEX
  8
Layer0
10
0.0
 20
 0.0
 30
0.0
 70
     128
 71
-278
 72
277
 73
-279
  0
VERTEX
  8
Layer0
10
0.0
 20
 0.0
 30
0.0
 70
     128
 71
-278
 72
-279
 73
280
  0
VERTEX
  8
Layer0
10
0.0
 20
 0.0
 30
0.0
 70
     128
 71
-280
 72
279
 73
-281
  0
VERTEX
  8
Layer0
10
0.0
 20
 0.0
 30
0.0
 70
     128
 71
-280
 72
-281
 73
282
  0
VERTEX
  8
Layer0
10
0.0
 20
 0.0
 30
0.0
 70
     128
 71
-282
 72
281
 73
-283
  0
VERTEX
  8
Layer0
10
0.0
 20
 0.0
 30
0.0
 70
     128
 71
-282
 72
-283
 73
284
  0
VERTEX
  8
Layer0
10
0.0
 20
 0.0
 30
0.0
 70
     128
 71
-284
 72
283
 73
-285
  0
VERTEX
  8
Layer0
10
0.0
 20
 0.0
 30
0.0
 70
     128
 71
-284
 72
-285
 73
286
  0
VERTEX
  8
Layer0
10
0.0
 20
 0.0
 30
0.0
 70
     128
 71
-286
 72
285
 73
-287
  0
VERTEX
  8
Layer0
10
0.0
 20
 0.0
 30
0.0
 70
     128
 71
-286
 72
-287
 73
288
  0
VERTEX
  8
Layer0
10
0.0
 20
 0.0
 30
0.0
 70
     128
 71
-288
 72
287
 73
-289
  0
VERTEX
  8
Layer0
10
0.0
 20
 0.0
 30
0.0
 70
     128
 71
-288
 72
-289
 73
290
  0
VERTEX
  8
Layer0
10
0.0
 20
 0.0
 30
0.0
 70
     128
 71
-290
 72
289
 73
-291
  0
VERTEX
  8
Layer0
10
0.0
 20
 0.0
 30
0.0
 70
     128
 71
-290
 72
-291
 73
292
  0
VERTEX
  8
Layer0
10
0.0
 20
 0.0
 30
0.0
 70
     128
 71
-292
 72
291
 73
-293
  0
VERTEX
  8
Layer0
10
0.0
 20
 0.0
 30
0.0
 70
     128
 71
-292
 72
-293
 73
294
  0
VERTEX
  8
Layer0
10
0.0
 20
 0.0
 30
0.0
 70
     128
 71
-294
 72
293
 73
-295
  0
VERTEX
  8
Layer0
10
0.0
 20
 0.0
 30
0.0
 70
     128
 71
-294
 72
-295
 73
296
  0
VERTEX
  8
Layer0
10
0.0
 20
 0.0
 30
0.0
 70
     128
 71
-296
 72
295
 73
-297
  0
VERTEX
  8
Layer0
10
0.0
 20
 0.0
 30
0.0
 70
     128
 71
-296
 72
-297
 73
298
  0
VERTEX
  8
Layer0
10
0.0
 20
 0.0
 30
0.0
 70
     128
 71
-298
 72
297
 73
-276
  0
VERTEX
  8
Layer0
10
0.0
 20
 0.0
 30
0.0
 70
     128
 71
-298
 72
-276
 73
160
  0
SEQEND
 0
ENDSEC
 0
EOF
