solid sparkcube_v1
facet normal 1.11452513201958e-13 1.0 1.80847299116431e-14
outer loop
vertex 923.082042791574 308.63686567566 51.3784307094454
vertex 940.07517438402 308.636865675658 36.3784307094455
vertex 923.082042791574 308.63686567566 36.3784307094452
endloop
endfacet
facet normal 1.11452513201958e-13 1.0 1.80847299116431e-14
outer loop
vertex 940.07517438402 308.636865675658 36.3784307094455
vertex 923.082042791574 308.63686567566 51.3784307094454
vertex 940.07517438402 308.636865675658 51.3784307094457
endloop
endfacet
facet normal 1.0 -1.11452513201959e-13 -1.18070600165589e-15
outer loop
vertex 940.075174384019 299.036865675658 36.3784307094449
vertex 940.07517438402 308.636865675658 51.3784307094457
vertex 940.075174384019 299.036865675657 51.3784307094453
endloop
endfacet
facet normal 1.0 -1.11452513201959e-13 -1.18070600165589e-15
outer loop
vertex 940.07517438402 308.636865675658 51.3784307094457
vertex 940.075174384019 299.036865675658 36.3784307094449
vertex 940.07517438402 308.636865675658 36.3784307094455
endloop
endfacet
facet normal -1.11452513201959e-13 -1.0 -1.80847299116431e-14
outer loop
vertex 940.075174384019 299.036865675657 51.3784307094453
vertex 923.082042791572 299.03686567566 36.3784307094452
vertex 940.075174384019 299.036865675658 36.3784307094449
endloop
endfacet
facet normal -1.11452513201959e-13 -1.0 -1.80847299116431e-14
outer loop
vertex 923.082042791572 299.03686567566 36.3784307094452
vertex 940.075174384019 299.036865675657 51.3784307094453
vertex 923.082042791572 299.03686567566 51.3784307094454
endloop
endfacet
facet normal -1.0 1.19006274680208e-13 2.10104274189036e-14
outer loop
vertex 930.8301713368 300.286872270827 51.3784307094453
vertex 930.8301713368 302.086872279821 39.3784307096702
vertex 930.8301713368 300.286872270827 39.3784307094453
endloop
endfacet
facet normal -1.0 1.19006274680208e-13 2.10104274189036e-14
outer loop
vertex 930.8301713368 302.086872279821 39.3784307096702
vertex 930.8301713368 300.286872270827 51.3784307094453
vertex 930.8301713368 302.086872270828 51.3784307096702
endloop
endfacet
facet normal -1.08586768413662e-10 1.0 5.97931671133117e-11
outer loop
vertex 924.33017133693 300.286872270828 39.3784307094657
vertex 930.8301713368 300.286872270827 51.3784307094453
vertex 930.8301713368 300.286872270827 39.3784307094453
endloop
endfacet
facet normal -1.08586768413662e-10 1.0 5.97931671133117e-11
outer loop
vertex 930.8301713368 300.286872270827 51.3784307094453
vertex 924.33017133693 300.286872270828 39.3784307094657
vertex 924.330171336828 300.286872269392 51.3784307094274
endloop
endfacet
facet normal -1.0 1.1360376765137e-13 -2.18666618009079e-15
outer loop
vertex 923.082042791574 308.63686567566 51.3784307094454
vertex 923.082042791572 299.03686567566 36.3784307094452
vertex 923.082042791572 299.03686567566 51.3784307094454
endloop
endfacet
facet normal -1.0 1.1360376765137e-13 -2.18666618009079e-15
outer loop
vertex 923.082042791572 299.03686567566 36.3784307094452
vertex 923.082042791574 308.63686567566 51.3784307094454
vertex 923.082042791574 308.63686567566 36.3784307094452
endloop
endfacet
facet normal 1.49359164594261e-12 -1.19643195152147e-10 1.0
outer loop
vertex 930.8301713368 300.286872270827 39.3784307094453
vertex 924.330171336931 302.086872279822 39.378430709671
vertex 924.33017133693 300.286872270828 39.3784307094657
endloop
endfacet
facet normal 1.49359164594261e-12 -1.19643195152147e-10 1.0
outer loop
vertex 924.330171336931 302.086872279822 39.378430709671
vertex 930.8301713368 300.286872270827 39.3784307094453
vertex 930.8301713368 302.086872279821 39.3784307096702
endloop
endfacet
facet normal -4.77319906208393e-15 -2.01828670736121e-14 1.0
outer loop
vertex 923.082042791572 299.03686567566 51.3784307094454
vertex 924.330171336828 300.286872269392 51.3784307094274
vertex 923.082042791574 308.63686567566 51.3784307094454
endloop
endfacet
facet normal -4.77319906208393e-15 -2.01828670736121e-14 1.0
outer loop
vertex 924.330171336828 300.286872269392 51.3784307094274
vertex 923.082042791572 299.03686567566 51.3784307094454
vertex 940.075174384019 299.036865675657 51.3784307094453
endloop
endfacet
facet normal -4.77319906208393e-15 -2.01828670736121e-14 1.0
outer loop
vertex 924.330171336828 300.286872269392 51.3784307094274
vertex 940.075174384019 299.036865675657 51.3784307094453
vertex 930.8301713368 300.286872270827 51.3784307094453
endloop
endfacet
facet normal -4.77319906208393e-15 -2.01828670736121e-14 1.0
outer loop
vertex 930.8301713368 300.286872270827 51.3784307094453
vertex 940.075174384019 299.036865675657 51.3784307094453
vertex 930.8301713368 302.086872270828 51.3784307096702
endloop
endfacet
facet normal -4.77319906208393e-15 -2.01828670736121e-14 1.0
outer loop
vertex 930.8301713368 302.086872270828 51.3784307096702
vertex 940.075174384019 299.036865675657 51.3784307094453
vertex 934.275174384019 302.451225029603 51.3784307094442
endloop
endfacet
facet normal -4.77319906208393e-15 -2.01828670736121e-14 1.0
outer loop
vertex 930.8301713368 302.086872270828 51.3784307096702
vertex 934.275174384019 302.451225029603 51.3784307094442
vertex 933.943803534121 302.70549482576 51.3784307094452
endloop
endfacet
facet normal -4.77319906208393e-15 -2.01828670736121e-14 1.0
outer loop
vertex 930.8301713368 302.086872270828 51.3784307096702
vertex 933.943803534121 302.70549482576 51.3784307094452
vertex 933.689533737964 303.036865675658 51.3784307094463
endloop
endfacet
facet normal -4.77319906208393e-15 -2.01828670736121e-14 1.0
outer loop
vertex 930.8301713368 302.086872270828 51.3784307096702
vertex 933.689533737964 303.036865675658 51.3784307094463
vertex 933.529693061957 303.422755203494 51.3784307094474
endloop
endfacet
facet normal -4.77319906208393e-15 -2.01828670736121e-14 1.0
outer loop
vertex 930.8301713368 302.086872270828 51.3784307096702
vertex 933.529693061957 303.422755203494 51.3784307094474
vertex 933.47517438402 303.836865675658 51.3784307094481
endloop
endfacet
facet normal -4.77319906208393e-15 -2.01828670736121e-14 1.0
outer loop
vertex 934.275174384019 302.451225029603 51.3784307094442
vertex 940.075174384019 299.036865675657 51.3784307094453
vertex 934.661063911855 302.291384353596 51.3784307094433
endloop
endfacet
facet normal -4.77319906208393e-15 -2.01828670736121e-14 1.0
outer loop
vertex 934.661063911855 302.291384353596 51.3784307094433
vertex 940.075174384019 299.036865675657 51.3784307094453
vertex 935.07517438402 302.236865675658 51.3784307094423
endloop
endfacet
facet normal -4.77319906208393e-15 -2.01828670736121e-14 1.0
outer loop
vertex 935.07517438402 302.236865675658 51.3784307094423
vertex 940.075174384019 299.036865675657 51.3784307094453
vertex 935.489284856184 302.291384353596 51.3784307094418
endloop
endfacet
facet normal -4.77319906208393e-15 -2.01828670736121e-14 1.0
outer loop
vertex 935.489284856184 302.291384353596 51.3784307094418
vertex 940.075174384019 299.036865675657 51.3784307094453
vertex 935.875174384019 302.451225029603 51.3784307094414
endloop
endfacet
facet normal -4.77319906208393e-15 -2.01828670736121e-14 1.0
outer loop
vertex 935.875174384019 302.451225029603 51.3784307094414
vertex 940.075174384019 299.036865675657 51.3784307094453
vertex 936.206545233918 302.70549482576 51.3784307094414
endloop
endfacet
facet normal -4.77319906208393e-15 -2.01828670736121e-14 1.0
outer loop
vertex 936.206545233918 302.70549482576 51.3784307094414
vertex 940.075174384019 299.036865675657 51.3784307094453
vertex 936.460815030075 303.036865675658 51.3784307094416
endloop
endfacet
facet normal -4.77319906208393e-15 -2.01828670736121e-14 1.0
outer loop
vertex 936.460815030075 303.036865675658 51.3784307094416
vertex 940.075174384019 299.036865675657 51.3784307094453
vertex 936.620655706082 303.422755203494 51.3784307094421
endloop
endfacet
facet normal -4.77319906208393e-15 -2.01828670736121e-14 1.0
outer loop
vertex 936.620655706082 303.422755203494 51.3784307094421
vertex 940.075174384019 299.036865675657 51.3784307094453
vertex 936.67517438402 303.836865675658 51.3784307094427
endloop
endfacet
facet normal -4.77319906208393e-15 -2.01828670736121e-14 1.0
outer loop
vertex 923.082042791574 308.63686567566 51.3784307094454
vertex 924.330171336828 302.086872278386 51.3784307096328
vertex 940.07517438402 308.636865675658 51.3784307094457
endloop
endfacet
facet normal -4.77319906208393e-15 -2.01828670736121e-14 1.0
outer loop
vertex 924.330171336828 302.086872278386 51.3784307096328
vertex 923.082042791574 308.63686567566 51.3784307094454
vertex 924.330171336828 300.286872269392 51.3784307094274
endloop
endfacet
facet normal -4.77319906208393e-15 -2.01828670736121e-14 1.0
outer loop
vertex 940.07517438402 308.636865675658 51.3784307094457
vertex 924.330171336828 302.086872278386 51.3784307096328
vertex 934.27517438402 305.222506321713 51.3784307094496
endloop
endfacet
facet normal -4.77319906208393e-15 -2.01828670736121e-14 1.0
outer loop
vertex 934.27517438402 305.222506321713 51.3784307094496
vertex 924.330171336828 302.086872278386 51.3784307096328
vertex 933.943803534121 304.968236525557 51.3784307094496
endloop
endfacet
facet normal -4.77319906208393e-15 -2.01828670736121e-14 1.0
outer loop
vertex 933.943803534121 304.968236525557 51.3784307094496
vertex 924.330171336828 302.086872278386 51.3784307096328
vertex 930.8301713368 302.086872270828 51.3784307096702
endloop
endfacet
facet normal -4.77319906208393e-15 -2.01828670736121e-14 1.0
outer loop
vertex 933.943803534121 304.968236525557 51.3784307094496
vertex 930.8301713368 302.086872270828 51.3784307096702
vertex 933.689533737965 304.636865675658 51.3784307094494
endloop
endfacet
facet normal -4.77319906208393e-15 -2.01828670736121e-14 1.0
outer loop
vertex 933.689533737965 304.636865675658 51.3784307094494
vertex 930.8301713368 302.086872270828 51.3784307096702
vertex 933.529693061957 304.250976147822 51.3784307094489
endloop
endfacet
facet normal -4.77319906208393e-15 -2.01828670736121e-14 1.0
outer loop
vertex 933.529693061957 304.250976147822 51.3784307094489
vertex 930.8301713368 302.086872270828 51.3784307096702
vertex 933.47517438402 303.836865675658 51.3784307094481
endloop
endfacet
facet normal -4.77319906208393e-15 -2.01828670736121e-14 1.0
outer loop
vertex 940.07517438402 308.636865675658 51.3784307094457
vertex 934.27517438402 305.222506321713 51.3784307094496
vertex 934.661063911856 305.382346997721 51.378430709449
endloop
endfacet
facet normal -4.77319906208393e-15 -2.01828670736121e-14 1.0
outer loop
vertex 940.07517438402 308.636865675658 51.3784307094457
vertex 934.661063911856 305.382346997721 51.378430709449
vertex 935.07517438402 305.436865675658 51.3784307094485
endloop
endfacet
facet normal -4.77319906208393e-15 -2.01828670736121e-14 1.0
outer loop
vertex 940.07517438402 308.636865675658 51.3784307094457
vertex 935.07517438402 305.436865675658 51.3784307094485
vertex 935.489284856184 305.382346997721 51.3784307094476
endloop
endfacet
facet normal -4.77319906208393e-15 -2.01828670736121e-14 1.0
outer loop
vertex 940.07517438402 308.636865675658 51.3784307094457
vertex 935.489284856184 305.382346997721 51.3784307094476
vertex 935.87517438402 305.222506321713 51.3784307094468
endloop
endfacet
facet normal -4.77319906208393e-15 -2.01828670736121e-14 1.0
outer loop
vertex 940.07517438402 308.636865675658 51.3784307094457
vertex 935.87517438402 305.222506321713 51.3784307094468
vertex 936.206545233918 304.968236525556 51.3784307094457
endloop
endfacet
facet normal -4.77319906208393e-15 -2.01828670736121e-14 1.0
outer loop
vertex 940.07517438402 308.636865675658 51.3784307094457
vertex 936.206545233918 304.968236525556 51.3784307094457
vertex 936.460815030075 304.636865675658 51.3784307094447
endloop
endfacet
facet normal -4.77319906208393e-15 -2.01828670736121e-14 1.0
outer loop
vertex 940.07517438402 308.636865675658 51.3784307094457
vertex 936.460815030075 304.636865675658 51.3784307094447
vertex 936.620655706082 304.250976147822 51.3784307094436
endloop
endfacet
facet normal -4.77319906208393e-15 -2.01828670736121e-14 1.0
outer loop
vertex 940.07517438402 308.636865675658 51.3784307094457
vertex 936.620655706082 304.250976147822 51.3784307094436
vertex 936.67517438402 303.836865675658 51.3784307094427
endloop
endfacet
facet normal -4.77319906208393e-15 -2.01828670736121e-14 1.0
outer loop
vertex 940.07517438402 308.636865675658 51.3784307094457
vertex 936.67517438402 303.836865675658 51.3784307094427
vertex 940.075174384019 299.036865675657 51.3784307094453
endloop
endfacet
facet normal -1.23863494253112e-13 -1.0 -7.49458252405538e-10
outer loop
vertex 930.8301713368 302.086872270828 51.3784307096702
vertex 924.330171336931 302.086872279822 39.378430709671
vertex 930.8301713368 302.086872279821 39.3784307096702
endloop
endfacet
facet normal -1.23863494253112e-13 -1.0 -7.49458252405538e-10
outer loop
vertex 924.330171336931 302.086872279822 39.378430709671
vertex 930.8301713368 302.086872270828 51.3784307096702
vertex 924.330171336828 302.086872278386 51.3784307096328
endloop
endfacet
facet normal 1.0 -1.325945526634e-13 8.51672436280871e-12
outer loop
vertex 924.33017133693 300.286872270828 39.3784307094657
vertex 924.330171336828 302.086872278386 51.3784307096328
vertex 924.330171336828 300.286872269392 51.3784307094274
endloop
endfacet
facet normal 1.0 -1.325945526634e-13 8.51672436280871e-12
outer loop
vertex 924.330171336828 302.086872278386 51.3784307096328
vertex 924.33017133693 300.286872270828 39.3784307094657
vertex 924.330171336931 302.086872279822 39.378430709671
endloop
endfacet
facet normal 2.86707973486255e-15 3.62556576370979e-14 -1.0
outer loop
vertex 923.082042791574 308.63686567566 36.3784307094452
vertex 933.529693061931 304.250976147851 36.3784307094476
vertex 933.475174383994 303.836865675687 36.3784307094469
endloop
endfacet
facet normal 2.86707973486255e-15 3.62556576370979e-14 -1.0
outer loop
vertex 933.529693061931 304.250976147851 36.3784307094476
vertex 923.082042791574 308.63686567566 36.3784307094452
vertex 933.689533737939 304.636865675687 36.3784307094483
endloop
endfacet
facet normal 2.86707973486255e-15 3.62556576370979e-14 -1.0
outer loop
vertex 933.689533737939 304.636865675687 36.3784307094483
vertex 923.082042791574 308.63686567566 36.3784307094452
vertex 933.943803534095 304.968236525585 36.3784307094483
endloop
endfacet
facet normal 2.86707973486255e-15 3.62556576370979e-14 -1.0
outer loop
vertex 933.943803534095 304.968236525585 36.3784307094483
vertex 923.082042791574 308.63686567566 36.3784307094452
vertex 934.275174383994 305.222506321742 36.3784307094483
endloop
endfacet
facet normal 2.86707973486255e-15 3.62556576370979e-14 -1.0
outer loop
vertex 934.275174383994 305.222506321742 36.3784307094483
vertex 923.082042791574 308.63686567566 36.3784307094452
vertex 940.07517438402 308.636865675658 36.3784307094455
endloop
endfacet
facet normal 2.86707973486255e-15 3.62556576370979e-14 -1.0
outer loop
vertex 934.275174383994 305.222506321742 36.3784307094483
vertex 940.07517438402 308.636865675658 36.3784307094455
vertex 934.66106391183 305.382346997749 36.3784307094477
endloop
endfacet
facet normal 2.86707973486255e-15 3.62556576370979e-14 -1.0
outer loop
vertex 934.66106391183 305.382346997749 36.3784307094477
vertex 940.07517438402 308.636865675658 36.3784307094455
vertex 935.075174383994 305.436865675686 36.3784307094474
endloop
endfacet
facet normal 2.86707973486255e-15 3.62556576370979e-14 -1.0
outer loop
vertex 935.075174383994 305.436865675686 36.3784307094474
vertex 940.07517438402 308.636865675658 36.3784307094455
vertex 935.489284856158 305.382346997749 36.3784307094463
endloop
endfacet
facet normal 2.86707973486255e-15 3.62556576370979e-14 -1.0
outer loop
vertex 935.489284856158 305.382346997749 36.3784307094463
vertex 940.07517438402 308.636865675658 36.3784307094455
vertex 935.875174383994 305.222506321741 36.3784307094457
endloop
endfacet
facet normal 2.86707973486255e-15 3.62556576370979e-14 -1.0
outer loop
vertex 935.875174383994 305.222506321741 36.3784307094457
vertex 940.07517438402 308.636865675658 36.3784307094455
vertex 936.206545233892 304.968236525585 36.3784307094446
endloop
endfacet
facet normal 2.86707973486255e-15 3.62556576370979e-14 -1.0
outer loop
vertex 936.206545233892 304.968236525585 36.3784307094446
vertex 940.07517438402 308.636865675658 36.3784307094455
vertex 936.460815030049 304.636865675686 36.3784307094436
endloop
endfacet
facet normal 2.86707973486255e-15 3.62556576370979e-14 -1.0
outer loop
vertex 936.460815030049 304.636865675686 36.3784307094436
vertex 940.07517438402 308.636865675658 36.3784307094455
vertex 936.620655706056 304.25097614785 36.3784307094425
endloop
endfacet
facet normal 2.86707973486255e-15 3.62556576370979e-14 -1.0
outer loop
vertex 936.620655706056 304.25097614785 36.3784307094425
vertex 940.07517438402 308.636865675658 36.3784307094455
vertex 936.675174383994 303.836865675686 36.3784307094414
endloop
endfacet
facet normal 2.86707973486255e-15 3.62556576370979e-14 -1.0
outer loop
vertex 936.675174383994 303.836865675686 36.3784307094414
vertex 940.07517438402 308.636865675658 36.3784307094455
vertex 940.075174384019 299.036865675658 36.3784307094449
endloop
endfacet
facet normal 2.86707973486255e-15 3.62556576370979e-14 -1.0
outer loop
vertex 923.082042791574 308.63686567566 36.3784307094452
vertex 940.075174384019 299.036865675658 36.3784307094449
vertex 923.082042791572 299.03686567566 36.3784307094452
endloop
endfacet
facet normal 2.86707973486255e-15 3.62556576370979e-14 -1.0
outer loop
vertex 940.075174384019 299.036865675658 36.3784307094449
vertex 923.082042791574 308.63686567566 36.3784307094452
vertex 934.275174383994 302.451225029631 36.3784307094431
endloop
endfacet
facet normal 2.86707973486255e-15 3.62556576370979e-14 -1.0
outer loop
vertex 934.275174383994 302.451225029631 36.3784307094431
vertex 923.082042791574 308.63686567566 36.3784307094452
vertex 933.943803534095 302.705494825788 36.3784307094441
endloop
endfacet
facet normal 2.86707973486255e-15 3.62556576370979e-14 -1.0
outer loop
vertex 933.943803534095 302.705494825788 36.3784307094441
vertex 923.082042791574 308.63686567566 36.3784307094452
vertex 933.689533737939 303.036865675687 36.3784307094452
endloop
endfacet
facet normal 2.86707973486255e-15 3.62556576370979e-14 -1.0
outer loop
vertex 933.689533737939 303.036865675687 36.3784307094452
vertex 923.082042791574 308.63686567566 36.3784307094452
vertex 933.529693061931 303.422755203523 36.3784307094463
endloop
endfacet
facet normal 2.86707973486255e-15 3.62556576370979e-14 -1.0
outer loop
vertex 933.529693061931 303.422755203523 36.3784307094463
vertex 923.082042791574 308.63686567566 36.3784307094452
vertex 933.475174383994 303.836865675687 36.3784307094469
endloop
endfacet
facet normal 2.86707973486255e-15 3.62556576370979e-14 -1.0
outer loop
vertex 940.075174384019 299.036865675658 36.3784307094449
vertex 934.275174383994 302.451225029631 36.3784307094431
vertex 934.66106391183 302.291384353624 36.378430709442
endloop
endfacet
facet normal 2.86707973486255e-15 3.62556576370979e-14 -1.0
outer loop
vertex 940.075174384019 299.036865675658 36.3784307094449
vertex 934.66106391183 302.291384353624 36.378430709442
vertex 935.075174383994 302.236865675686 36.3784307094412
endloop
endfacet
facet normal 2.86707973486255e-15 3.62556576370979e-14 -1.0
outer loop
vertex 940.075174384019 299.036865675658 36.3784307094449
vertex 935.075174383994 302.236865675686 36.3784307094412
vertex 935.489284856158 302.291384353624 36.3784307094405
endloop
endfacet
facet normal 2.86707973486255e-15 3.62556576370979e-14 -1.0
outer loop
vertex 940.075174384019 299.036865675658 36.3784307094449
vertex 935.489284856158 302.291384353624 36.3784307094405
vertex 935.875174383994 302.451225029631 36.3784307094401
endloop
endfacet
facet normal 2.86707973486255e-15 3.62556576370979e-14 -1.0
outer loop
vertex 940.075174384019 299.036865675658 36.3784307094449
vertex 935.875174383994 302.451225029631 36.3784307094401
vertex 936.206545233892 302.705494825788 36.3784307094401
endloop
endfacet
facet normal 2.86707973486255e-15 3.62556576370979e-14 -1.0
outer loop
vertex 940.075174384019 299.036865675658 36.3784307094449
vertex 936.206545233892 302.705494825788 36.3784307094401
vertex 936.460815030049 303.036865675686 36.3784307094405
endloop
endfacet
facet normal 2.86707973486255e-15 3.62556576370979e-14 -1.0
outer loop
vertex 940.075174384019 299.036865675658 36.3784307094449
vertex 936.460815030049 303.036865675686 36.3784307094405
vertex 936.620655706056 303.422755203522 36.3784307094408
endloop
endfacet
facet normal 2.86707973486255e-15 3.62556576370979e-14 -1.0
outer loop
vertex 940.075174384019 299.036865675658 36.3784307094449
vertex 936.620655706056 303.422755203522 36.3784307094408
vertex 936.675174383994 303.836865675686 36.3784307094414
endloop
endfacet
facet normal 0.866025403784471 0.499999999999944 -5.40699235683029e-13
outer loop
vertex 933.689533737939 303.036865675687 36.3784307094452
vertex 933.529693061957 303.422755203494 51.3784307094474
vertex 933.689533737964 303.036865675658 51.3784307094463
endloop
endfacet
facet normal 0.965925826289086 0.258819045102454 -1.16923882863042e-12
outer loop
vertex 933.529693061957 303.422755203494 51.3784307094474
vertex 933.689533737939 303.036865675687 36.3784307094452
vertex 933.529693061931 303.422755203523 36.3784307094463
endloop
endfacet
facet normal -5.28874372306707e-14 -1.0 -1.89443235326782e-12
outer loop
vertex 935.07517438402 305.436865675658 51.3784307094485
vertex 934.66106391183 305.382346997749 36.3784307094477
vertex 935.075174383994 305.436865675686 36.3784307094474
endloop
endfacet
facet normal 0.258819045102438 -0.965925826289091 -2.27455729062698e-12
outer loop
vertex 934.66106391183 305.382346997749 36.3784307094477
vertex 935.07517438402 305.436865675658 51.3784307094485
vertex 934.661063911856 305.382346997721 51.378430709449
endloop
endfacet
facet normal 1.0 -1.15167184291373e-13 -1.71809672766524e-12
outer loop
vertex 933.475174383994 303.836865675687 36.3784307094469
vertex 933.529693061957 304.250976147822 51.3784307094489
vertex 933.47517438402 303.836865675658 51.3784307094481
endloop
endfacet
facet normal 0.965925826289041 -0.258819045102624 -2.14986917399865e-12
outer loop
vertex 933.529693061957 304.250976147822 51.3784307094489
vertex 933.475174383994 303.836865675687 36.3784307094469
vertex 933.529693061931 304.250976147851 36.3784307094476
endloop
endfacet
facet normal -0.499999999999919 0.866025403784485 2.49967490751361e-12
outer loop
vertex 935.875174383994 302.451225029631 36.3784307094401
vertex 936.206545233918 302.70549482576 51.3784307094414
vertex 936.206545233892 302.705494825788 36.3784307094401
endloop
endfacet
facet normal -0.707106781186503 0.707106781186592 2.55444381036129e-12
outer loop
vertex 936.206545233918 302.70549482576 51.3784307094414
vertex 935.875174383994 302.451225029631 36.3784307094401
vertex 935.875174384019 302.451225029603 51.3784307094414
endloop
endfacet
facet normal 0.866025403784389 -0.500000000000086 -2.43513158895086e-12
outer loop
vertex 933.689533737939 304.636865675687 36.3784307094483
vertex 933.943803534121 304.968236525557 51.3784307094496
vertex 933.689533737965 304.636865675658 51.3784307094494
endloop
endfacet
facet normal 0.707106781186494 -0.707106781186601 -2.55444381036129e-12
outer loop
vertex 933.943803534121 304.968236525557 51.3784307094496
vertex 933.689533737939 304.636865675687 36.3784307094483
vertex 933.943803534095 304.968236525585 36.3784307094483
endloop
endfacet
facet normal 0.965925826289051 -0.258819045102585 -2.1498691739986e-12
outer loop
vertex 933.529693061931 304.250976147851 36.3784307094476
vertex 933.689533737965 304.636865675658 51.3784307094494
vertex 933.529693061957 304.250976147822 51.3784307094489
endloop
endfacet
facet normal 0.866025403784382 -0.500000000000098 -2.43513158895087e-12
outer loop
vertex 933.689533737965 304.636865675658 51.3784307094494
vertex 933.529693061931 304.250976147851 36.3784307094476
vertex 933.689533737939 304.636865675687 36.3784307094483
endloop
endfacet
facet normal -0.258819045102443 0.965925826289089 2.27455729062699e-12
outer loop
vertex 935.489284856158 302.291384353624 36.3784307094405
vertex 935.875174384019 302.451225029603 51.3784307094414
vertex 935.875174383994 302.451225029631 36.3784307094401
endloop
endfacet
facet normal -0.499999999999933 0.866025403784478 2.49967490751362e-12
outer loop
vertex 935.875174384019 302.451225029603 51.3784307094414
vertex 935.489284856158 302.291384353624 36.3784307094405
vertex 935.489284856184 302.291384353596 51.3784307094418
endloop
endfacet
facet normal 0.707106781186602 0.707106781186493 1.24688116628378e-13
outer loop
vertex 933.943803534095 302.705494825788 36.3784307094441
vertex 933.689533737964 303.036865675658 51.3784307094463
vertex 933.943803534121 302.70549482576 51.3784307094452
endloop
endfacet
facet normal 0.866025403784482 0.499999999999925 -5.40699235683084e-13
outer loop
vertex 933.689533737964 303.036865675658 51.3784307094463
vertex 933.943803534095 302.705494825788 36.3784307094441
vertex 933.689533737939 303.036865675687 36.3784307094452
endloop
endfacet
facet normal 0.707106781186602 0.707106781186493 1.24688116628378e-13
outer loop
vertex 933.943803534095 302.705494825788 36.3784307094441
vertex 934.275174384019 302.451225029603 51.3784307094442
vertex 934.275174383994 302.451225029631 36.3784307094431
endloop
endfacet
facet normal 0.500000000000064 0.866025403784402 7.81578179848458e-13
outer loop
vertex 934.275174384019 302.451225029603 51.3784307094442
vertex 933.943803534095 302.705494825788 36.3784307094441
vertex 933.943803534121 302.70549482576 51.3784307094452
endloop
endfacet
facet normal 0.500000000000051 0.866025403784409 7.81578179848493e-13
outer loop
vertex 934.275174383994 302.451225029631 36.3784307094431
vertex 934.661063911855 302.291384353596 51.3784307094433
vertex 934.66106391183 302.291384353624 36.378430709442
endloop
endfacet
facet normal 0.258819045102595 0.965925826289048 1.38520498173086e-12
outer loop
vertex 934.661063911855 302.291384353596 51.3784307094433
vertex 934.275174383994 302.451225029631 36.3784307094431
vertex 934.275174384019 302.451225029603 51.3784307094442
endloop
endfacet
facet normal 0.258819045102589 0.96592582628905 1.38520498173087e-12
outer loop
vertex 934.66106391183 302.291384353624 36.378430709442
vertex 935.07517438402 302.236865675658 51.3784307094423
vertex 935.075174383994 302.236865675686 36.3784307094412
endloop
endfacet
facet normal 6.20837026429648e-14 1.0 1.89443235326781e-12
outer loop
vertex 935.07517438402 302.236865675658 51.3784307094423
vertex 934.66106391183 302.291384353624 36.378430709442
vertex 934.661063911855 302.291384353596 51.3784307094433
endloop
endfacet
facet normal -0.965925826289085 -0.258819045102459 1.1692388286304e-12
outer loop
vertex 936.620655706082 304.250976147822 51.3784307094436
vertex 936.675174383994 303.836865675686 36.3784307094414
vertex 936.67517438402 303.836865675658 51.3784307094427
endloop
endfacet
facet normal -1.0 9.04388543309447e-14 1.71809672766519e-12
outer loop
vertex 936.675174383994 303.836865675686 36.3784307094414
vertex 936.620655706082 304.250976147822 51.3784307094436
vertex 936.620655706056 304.25097614785 36.3784307094425
endloop
endfacet
facet normal -0.866025403784471 -0.499999999999944 5.40699235683029e-13
outer loop
vertex 936.460815030075 304.636865675658 51.3784307094447
vertex 936.620655706056 304.25097614785 36.3784307094425
vertex 936.620655706082 304.250976147822 51.3784307094436
endloop
endfacet
facet normal -0.965925826289095 -0.25881904510242 1.1692388286305e-12
outer loop
vertex 936.620655706056 304.25097614785 36.3784307094425
vertex 936.460815030075 304.636865675658 51.3784307094447
vertex 936.460815030049 304.636865675686 36.3784307094436
endloop
endfacet
facet normal 5.43488592535418e-14 1.0 1.89443235326782e-12
outer loop
vertex 935.075174383994 302.236865675686 36.3784307094412
vertex 935.489284856184 302.291384353596 51.3784307094418
vertex 935.489284856158 302.291384353624 36.3784307094405
endloop
endfacet
facet normal -0.258819045102436 0.965925826289091 2.27455729062698e-12
outer loop
vertex 935.489284856184 302.291384353596 51.3784307094418
vertex 935.075174383994 302.236865675686 36.3784307094412
vertex 935.07517438402 302.236865675658 51.3784307094423
endloop
endfacet
facet normal -0.258819045102608 -0.965925826289045 -1.38520498173083e-12
outer loop
vertex 935.489284856184 305.382346997721 51.3784307094476
vertex 935.075174383994 305.436865675686 36.3784307094474
vertex 935.489284856158 305.382346997749 36.3784307094463
endloop
endfacet
facet normal -6.00697918065323e-14 -1.0 -1.89443235326781e-12
outer loop
vertex 935.075174383994 305.436865675686 36.3784307094474
vertex 935.489284856184 305.382346997721 51.3784307094476
vertex 935.07517438402 305.436865675658 51.3784307094485
endloop
endfacet
facet normal -0.707106781186602 -0.707106781186493 -1.24688116628378e-13
outer loop
vertex 936.206545233918 304.968236525556 51.3784307094457
vertex 935.875174383994 305.222506321741 36.3784307094457
vertex 936.206545233892 304.968236525585 36.3784307094446
endloop
endfacet
facet normal -0.500000000000035 -0.866025403784419 -7.81578179848538e-13
outer loop
vertex 935.875174383994 305.222506321741 36.3784307094457
vertex 936.206545233918 304.968236525556 51.3784307094457
vertex 935.87517438402 305.222506321713 51.3784307094468
endloop
endfacet
facet normal -0.707106781186602 -0.707106781186493 -1.24688116628378e-13
outer loop
vertex 936.206545233918 304.968236525556 51.3784307094457
vertex 936.460815030049 304.636865675686 36.3784307094436
vertex 936.460815030075 304.636865675658 51.3784307094447
endloop
endfacet
facet normal -0.866025403784481 -0.499999999999926 5.40699235683082e-13
outer loop
vertex 936.460815030049 304.636865675686 36.3784307094436
vertex 936.206545233918 304.968236525556 51.3784307094457
vertex 936.206545233892 304.968236525585 36.3784307094446
endloop
endfacet
facet normal 0.258819045102446 -0.965925826289088 -2.27455729062699e-12
outer loop
vertex 934.661063911856 305.382346997721 51.378430709449
vertex 934.275174383994 305.222506321742 36.3784307094483
vertex 934.66106391183 305.382346997749 36.3784307094477
endloop
endfacet
facet normal 0.499999999999915 -0.866025403784488 -2.49967490751361e-12
outer loop
vertex 934.275174383994 305.222506321742 36.3784307094483
vertex 934.661063911856 305.382346997721 51.378430709449
vertex 934.27517438402 305.222506321713 51.3784307094496
endloop
endfacet
facet normal 0.499999999999933 -0.866025403784477 -2.49967490751362e-12
outer loop
vertex 934.27517438402 305.222506321713 51.3784307094496
vertex 933.943803534095 304.968236525585 36.3784307094483
vertex 934.275174383994 305.222506321742 36.3784307094483
endloop
endfacet
facet normal 0.707106781186491 -0.707106781186604 -2.55444381036129e-12
outer loop
vertex 933.943803534095 304.968236525585 36.3784307094483
vertex 934.27517438402 305.222506321713 51.3784307094496
vertex 933.943803534121 304.968236525557 51.3784307094496
endloop
endfacet
facet normal 0.965925826289094 0.258819045102424 -1.16923882863049e-12
outer loop
vertex 933.529693061931 303.422755203523 36.3784307094463
vertex 933.47517438402 303.836865675658 51.3784307094481
vertex 933.529693061957 303.422755203494 51.3784307094474
endloop
endfacet
facet normal 1.0 -7.23403901328511e-14 -1.71809672766516e-12
outer loop
vertex 933.47517438402 303.836865675658 51.3784307094481
vertex 933.529693061931 303.422755203523 36.3784307094463
vertex 933.475174383994 303.836865675687 36.3784307094469
endloop
endfacet
facet normal -0.500000000000085 -0.86602540378439 -7.81578179848397e-13
outer loop
vertex 935.87517438402 305.222506321713 51.3784307094468
vertex 935.489284856158 305.382346997749 36.3784307094463
vertex 935.875174383994 305.222506321741 36.3784307094457
endloop
endfacet
facet normal -0.25881904510258 -0.965925826289052 -1.38520498173089e-12
outer loop
vertex 935.489284856158 305.382346997749 36.3784307094463
vertex 935.87517438402 305.222506321713 51.3784307094468
vertex 935.489284856184 305.382346997721 51.3784307094476
endloop
endfacet
facet normal -1.0 9.70687200932688e-14 1.71809672766521e-12
outer loop
vertex 936.67517438402 303.836865675658 51.3784307094427
vertex 936.620655706056 303.422755203522 36.3784307094408
vertex 936.620655706082 303.422755203494 51.3784307094421
endloop
endfacet
facet normal -0.965925826289051 0.258819045102584 2.14986917399859e-12
outer loop
vertex 936.620655706056 303.422755203522 36.3784307094408
vertex 936.67517438402 303.836865675658 51.3784307094427
vertex 936.675174383994 303.836865675686 36.3784307094414
endloop
endfacet
facet normal -0.965925826289043 0.258819045102614 2.14986917399864e-12
outer loop
vertex 936.620655706082 303.422755203494 51.3784307094421
vertex 936.460815030049 303.036865675686 36.3784307094405
vertex 936.460815030075 303.036865675658 51.3784307094416
endloop
endfacet
facet normal -0.866025403784382 0.500000000000098 2.43513158895087e-12
outer loop
vertex 936.460815030049 303.036865675686 36.3784307094405
vertex 936.620655706082 303.422755203494 51.3784307094421
vertex 936.620655706056 303.422755203522 36.3784307094408
endloop
endfacet
facet normal -0.866025403784389 0.500000000000086 2.43513158895086e-12
outer loop
vertex 936.460815030075 303.036865675658 51.3784307094416
vertex 936.206545233892 302.705494825788 36.3784307094401
vertex 936.206545233918 302.70549482576 51.3784307094414
endloop
endfacet
facet normal -0.707106781186481 0.707106781186615 2.5544438103613e-12
outer loop
vertex 936.206545233892 302.705494825788 36.3784307094401
vertex 936.460815030075 303.036865675658 51.3784307094416
vertex 936.460815030049 303.036865675686 36.3784307094405
endloop
endfacet
endsolid sparkcube_v1
