solid Untitled-565e2926
facet normal 1.1682698935823115e-13 1.0 -1.5160977234311964e-29
  outer loop
    vertex 923.0820427915739 308.6368656756599 51.3784307094454
    vertex 940.07517438402 308.636865675658 36.3784307094455
    vertex 923.0820427915739 308.6368656756599 36.3784307094452
  endloop
endfacet
facet normal 1.1682698935823115e-13 1.0 -1.516097723431197e-29
  outer loop
    vertex 940.07517438402 308.636865675658 51.378430709445695
    vertex 940.07517438402 308.636865675658 36.3784307094455
    vertex 923.0820427915739 308.6368656756599 51.3784307094454
  endloop
endfacet
facet normal 1.0 -1.1279865930190446e-13 -7.470027914652897e-27
  outer loop
    vertex 940.07517438402 308.636865675658 51.378430709445695
    vertex 940.075174384019 299.036865675657 51.37843070944529
    vertex 940.075174384019 299.03686567565796 36.3784307094449
  endloop
endfacet
facet normal 1.0 -1.1279865930191611e-13 -5.938019010059329e-30
  outer loop
    vertex 940.07517438402 308.636865675658 51.378430709445695
    vertex 940.075174384019 299.03686567565796 36.3784307094449
    vertex 940.07517438402 308.636865675658 36.3784307094455
  endloop
endfacet
facet normal -1.1948214820727665e-13 -1.0 -6.617521345712228e-14
  outer loop
    vertex 940.075174384019 299.036865675657 51.37843070944529
    vertex 923.0820427915719 299.03686567566 36.3784307094452
    vertex 940.075174384019 299.03686567565796 36.3784307094449
  endloop
endfacet
facet normal -1.7789564288638796e-13 -1.0 -3.0321954468620717e-29
  outer loop
    vertex 923.0820427915719 299.03686567566 51.3784307094454
    vertex 923.0820427915719 299.03686567566 36.3784307094452
    vertex 940.075174384019 299.036865675657 51.37843070944529
  endloop
endfacet
facet normal -1.0 0.0 0.0
  outer loop
    vertex 930.8301713368 302.08687227982097 39.3784307096702
    vertex 930.8301713367952 300.2868722711856 36.37843070926316
    vertex 930.8301713368 300.286872270827 51.37843070944529
  endloop
endfacet
facet normal -1.0 0.0 0.0
  outer loop
    vertex 930.8301713367952 300.2868722711856 36.37843070926316
    vertex 930.8301713368 302.08687227982097 39.3784307096702
    vertex 930.8301713367952 302.08687228017953 36.37843070948805
  endloop
endfacet
facet normal -1.0 0.0 0.0
  outer loop
    vertex 930.8301713368 302.08687227982097 39.3784307096702
    vertex 930.8301713368 300.286872270827 51.37843070944529
    vertex 930.8301713368 302.086872270828 51.37843070967019
  endloop
endfacet
facet normal 1.4577057510077548e-13 1.0 -0.0
  outer loop
    vertex 924.3301713369251 300.2868722711865 36.37843070928356
    vertex 930.8301713368 300.286872270827 51.37843070944529
    vertex 930.8301713367952 300.2868722711856 36.37843070926316
  endloop
endfacet
facet normal 1.4577057510077548e-13 1.0 -0.0
  outer loop
    vertex 930.8301713368 300.286872270827 51.37843070944529
    vertex 924.3301713369251 300.2868722711865 36.37843070928356
    vertex 924.33017133693 300.2868722708279 39.3784307094657
  endloop
endfacet
facet normal -2.2077300671496924e-10 1.0 1.196643376965985e-10
  outer loop
    vertex 930.8301713368 300.286872270827 51.37843070944529
    vertex 924.33017133693 300.2868722708279 39.3784307094657
    vertex 924.330171336828 300.286872269392 51.37843070942739
  endloop
endfacet
facet normal -1.0 2.0679754205351384e-13 -1.1876038020118771e-29
  outer loop
    vertex 923.0820427915739 308.6368656756599 51.3784307094454
    vertex 923.0820427915719 299.03686567566 36.3784307094452
    vertex 923.0820427915719 299.03686567566 51.3784307094454
  endloop
endfacet
facet normal -1.0 2.0679754205351384e-13 1.1876038020118771e-29
  outer loop
    vertex 923.0820427915739 308.6368656756599 36.3784307094452
    vertex 923.0820427915719 299.03686567566 36.3784307094452
    vertex 923.0820427915739 308.6368656756599 51.3784307094454
  endloop
endfacet
facet normal 1.4423727502278584e-11 -2.9827677504032466e-24 1.0
  outer loop
    vertex 924.330171336828 300.286872269392 51.37843070942739
    vertex 923.0820427915739 308.6368656756599 51.3784307094454
    vertex 923.0820427915719 299.03686567566 51.3784307094454
  endloop
endfacet
facet normal 5.97410741292471e-15 1.4396091717296811e-11 1.0
  outer loop
    vertex 940.075174384019 299.036865675657 51.37843070944529
    vertex 924.330171336828 300.286872269392 51.37843070942739
    vertex 923.0820427915719 299.03686567566 51.3784307094454
  endloop
endfacet
facet normal -2.75402264647103e-12 -2.0368650739215805e-11 1.0
  outer loop
    vertex 940.075174384019 299.036865675657 51.37843070944529
    vertex 930.8301713368 300.286872270827 51.37843070944529
    vertex 924.330171336828 300.286872269392 51.37843070942739
  endloop
endfacet
facet normal -1.689344686166219e-11 -1.2494331495335352e-10 1.0
  outer loop
    vertex 940.075174384019 299.036865675657 51.37843070944529
    vertex 930.8301713368 302.086872270828 51.37843070967019
    vertex 930.8301713368 300.286872270827 51.37843070944529
  endloop
endfacet
facet normal 5.558049522173965e-11 9.473549376327074e-11 1.0
  outer loop
    vertex 940.075174384019 299.036865675657 51.37843070944529
    vertex 934.275174384019 302.451225029603 51.378430709444196
    vertex 930.8301713368 302.086872270828 51.37843070967019
  endloop
endfacet
facet normal 5.8016315322176305e-11 7.170449573626354e-11 1.0
  outer loop
    vertex 934.275174384019 302.451225029603 51.378430709444196
    vertex 933.943803534121 302.70549482576 51.37843070944519
    vertex 930.8301713368 302.086872270828 51.37843070967019
  endloop
endfacet
facet normal 6.327843931008497e-11 4.521933358945394e-11 1.0
  outer loop
    vertex 933.943803534121 302.70549482576 51.37843070944519
    vertex 933.6895337379639 303.036865675658 51.3784307094463
    vertex 930.8301713368 302.086872270828 51.37843070967019
  endloop
endfacet
facet normal 6.96664630693044e-11 2.5992173840780114e-11 1.0
  outer loop
    vertex 933.6895337379639 303.036865675658 51.3784307094463
    vertex 933.5296930619569 303.422755203494 51.3784307094474
    vertex 930.8301713368 302.086872270828 51.37843070967019
  endloop
endfacet
facet normal 7.82530274343132e-11 8.640640648017796e-12 1.0
  outer loop
    vertex 933.5296930619569 303.422755203494 51.3784307094474
    vertex 933.4751743840199 303.836865675658 51.37843070944809
    vertex 930.8301713368 302.086872270828 51.37843070967019
  endloop
endfacet
facet normal 8.338174617399127e-12 1.4484579579764329e-11 1.0
  outer loop
    vertex 940.075174384019 299.036865675657 51.37843070944529
    vertex 934.661063911855 302.29138435359596 51.37843070944329
    vertex 934.275174384019 302.451225029603 51.378430709444196
  endloop
endfacet
facet normal 3.207499512190416e-12 5.949356843241969e-12 1.0
  outer loop
    vertex 940.075174384019 299.036865675657 51.37843070944529
    vertex 935.0751743840199 302.23686567565795 51.37843070944229
    vertex 934.661063911855 302.29138435359596 51.37843070944329
  endloop
endfacet
facet normal 8.916461449053088e-13 2.330835956860717e-12 1.0
  outer loop
    vertex 940.075174384019 299.036865675657 51.37843070944529
    vertex 935.4892848561839 302.29138435359596 51.378430709441794
    vertex 935.0751743840199 302.23686567565795 51.37843070944229
  endloop
endfacet
facet normal 3.649986419849369e-13 1.5887454951054448e-12 1.0
  outer loop
    vertex 940.075174384019 299.036865675657 51.37843070944529
    vertex 935.8751743840189 302.451225029603 51.3784307094414
    vertex 935.4892848561839 302.29138435359596 51.378430709441794
  endloop
endfacet
facet normal -4.499072638485936e-13 5.863305616728348e-13 1.0
  outer loop
    vertex 940.075174384019 299.036865675657 51.37843070944529
    vertex 936.2065452339178 302.70549482576 51.3784307094414
    vertex 935.8751743840189 302.451225029603 51.3784307094414
  endloop
endfacet
facet normal -9.185670614878174e-13 9.212117706478151e-14 1.0
  outer loop
    vertex 940.075174384019 299.036865675657 51.37843070944529
    vertex 936.4608150300749 303.036865675658 51.3784307094416
    vertex 936.2065452339178 302.70549482576 51.3784307094414
  endloop
endfacet
facet normal -1.6757317206551764e-12 -5.920451150193899e-13 1.0
  outer loop
    vertex 940.075174384019 299.036865675657 51.37843070944529
    vertex 936.620655706082 303.422755203494 51.3784307094421
    vertex 936.4608150300749 303.036865675658 51.3784307094416
  endloop
endfacet
facet normal -2.3621221737383097e-12 -1.1326762972422651e-12 1.0
  outer loop
    vertex 940.075174384019 299.036865675657 51.37843070944529
    vertex 936.6751743840199 303.836865675658 51.378430709442696
    vertex 936.620655706082 303.422755203494 51.3784307094421
  endloop
endfacet
facet normal -1.7922322227751782e-14 2.860786444154586e-11 1.0
  outer loop
    vertex 940.07517438402 308.636865675658 51.378430709445695
    vertex 923.0820427915739 308.6368656756599 51.3784307094454
    vertex 924.330171336828 302.086872278386 51.378430709632795
  endloop
endfacet
facet normal -7.490044634362827e-10 -1.1411464309024395e-10 1.0
  outer loop
    vertex 924.330171336828 302.086872278386 51.378430709632795
    vertex 923.0820427915739 308.6368656756599 51.3784307094454
    vertex 924.330171336828 300.286872269392 51.37843070942739
  endloop
endfacet
facet normal 3.88899000585176e-11 -6.491952479209613e-11 1.0
  outer loop
    vertex 940.07517438402 308.636865675658 51.378430709445695
    vertex 924.330171336828 302.086872278386 51.378430709632795
    vertex 934.27517438402 305.222506321713 51.3784307094496
  endloop
endfacet
facet normal 3.1269823968287996e-11 -4.075162799991407e-11 1.0
  outer loop
    vertex 934.27517438402 305.222506321713 51.3784307094496
    vertex 924.330171336828 302.086872278386 51.378430709632795
    vertex 933.943803534121 304.96823652555696 51.3784307094496
  endloop
endfacet
facet normal -5.7527315281758e-12 8.27736194228353e-11 1.0
  outer loop
    vertex 933.943803534121 304.96823652555696 51.3784307094496
    vertex 924.330171336828 302.086872278386 51.378430709632795
    vertex 930.8301713368 302.086872270828 51.37843070967019
  endloop
endfacet
facet normal 2.463260853723577e-10 -1.8962537326819572e-10 1.0
  outer loop
    vertex 933.943803534121 304.96823652555696 51.3784307094496
    vertex 930.8301713368 302.086872270828 51.37843070967019
    vertex 933.6895337379649 304.636865675658 51.3784307094494
  endloop
endfacet
facet normal 1.2426888760547577e-10 -5.276001454799286e-11 1.0
  outer loop
    vertex 933.6895337379649 304.636865675658 51.3784307094494
    vertex 930.8301713368 302.086872270828 51.37843070967019
    vertex 933.5296930619569 304.2509761478219 51.3784307094489
  endloop
endfacet
facet normal 9.340325895324696e-11 -1.425796481133296e-11 1.0
  outer loop
    vertex 933.5296930619569 304.2509761478219 51.3784307094489
    vertex 930.8301713368 302.086872270828 51.37843070967019
    vertex 933.4751743840199 303.836865675658 51.37843070944809
  endloop
endfacet
facet normal 3.728391984532955e-12 -5.190385094635398e-12 1.0
  outer loop
    vertex 940.07517438402 308.636865675658 51.378430709445695
    vertex 934.27517438402 305.222506321713 51.3784307094496
    vertex 934.661063911856 305.382346997721 51.37843070944899
  endloop
endfacet
facet normal 1.3640020900476961e-12 -1.2570636561097751e-12 1.0
  outer loop
    vertex 940.07517438402 308.636865675658 51.378430709445695
    vertex 934.661063911856 305.382346997721 51.37843070944899
    vertex 935.0751743840199 305.43686567565794 51.378430709448494
  endloop
endfacet
facet normal 1.9027773389315885e-12 -2.0988999824908263e-12 1.0
  outer loop
    vertex 940.07517438402 308.636865675658 51.378430709445695
    vertex 935.0751743840199 305.43686567565794 51.378430709448494
    vertex 935.4892848561839 305.382346997721 51.37843070944759
  endloop
endfacet
facet normal 1.4443378446721301e-12 -1.4529203203911173e-12 1.0
  outer loop
    vertex 940.07517438402 308.636865675658 51.378430709445695
    vertex 935.4892848561839 305.382346997721 51.37843070944759
    vertex 935.87517438402 305.222506321713 51.3784307094468
  endloop
endfacet
facet normal 1.8439070435608564e-12 -1.9444299892236134e-12 1.0
  outer loop
    vertex 940.07517438402 308.636865675658 51.378430709445695
    vertex 935.87517438402 305.222506321713 51.3784307094468
    vertex 936.2065452339178 304.968236525556 51.378430709445695
  endloop
endfacet
facet normal 1.6629095654724513e-12 -1.753565202629331e-12 1.0
  outer loop
    vertex 940.07517438402 308.636865675658 51.378430709445695
    vertex 936.2065452339178 304.968236525556 51.378430709445695
    vertex 936.4608150300749 304.636865675658 51.37843070944469
  endloop
endfacet
facet normal 1.9611515420215838e-12 -2.0230536220491964e-12 1.0
  outer loop
    vertex 940.07517438402 308.636865675658 51.378430709445695
    vertex 936.4608150300749 304.636865675658 51.37843070944469
    vertex 936.620655706082 304.2509761478219 51.3784307094436
  endloop
endfacet
facet normal 1.8500433415723765e-12 -1.9355399372452708e-12 1.0
  outer loop
    vertex 940.07517438402 308.636865675658 51.378430709445695
    vertex 936.620655706082 304.2509761478219 51.3784307094436
    vertex 936.6751743840199 303.836865675658 51.378430709442696
  endloop
endfacet
facet normal -8.227666913787867e-13 -4.229949723812136e-14 1.0
  outer loop
    vertex 940.07517438402 308.636865675658 51.378430709445695
    vertex 936.6751743840199 303.836865675658 51.378430709442696
    vertex 940.075174384019 299.036865675657 51.37843070944529
  endloop
endfacet
facet normal -1.5271203115056513e-13 -1.0 -7.494154926253791e-10
  outer loop
    vertex 930.8301713368 302.08687227982097 39.3784307096702
    vertex 924.330171336926 302.08687228018056 36.37843070948885
    vertex 930.8301713367952 302.08687228017953 36.37843070948805
  endloop
endfacet
facet normal -1.5271203115056513e-13 -1.0 -7.494154926253791e-10
  outer loop
    vertex 924.330171336926 302.08687228018056 36.37843070948885
    vertex 930.8301713368 302.08687227982097 39.3784307096702
    vertex 924.3301713369309 302.086872279822 39.378430709670994
  endloop
endfacet
facet normal -1.5271203115056513e-13 -1.0 -7.494154926253791e-10
  outer loop
    vertex 924.3301713369309 302.086872279822 39.378430709670994
    vertex 930.8301713368 302.08687227982097 39.3784307096702
    vertex 930.8301713368 302.086872270828 51.37843070967019
  endloop
endfacet
facet normal -1.1627702288242135e-09 -1.0 -1.1966433770844152e-10
  outer loop
    vertex 930.8301713368 302.086872270828 51.37843070967019
    vertex 924.330171336828 302.086872278386 51.378430709632795
    vertex 924.3301713369309 302.086872279822 39.378430709670994
  endloop
endfacet
facet normal 1.0 -9.69688523312787e-22 8.497499000771458e-12
  outer loop
    vertex 924.330171336828 302.086872278386 51.378430709632795
    vertex 924.330171336828 300.286872269392 51.37843070942739
    vertex 924.33017133693 300.2868722708279 39.3784307094657
  endloop
endfacet
facet normal 1.0 -5.013273731479648e-13 8.572698106912903e-12
  outer loop
    vertex 924.3301713369251 300.2868722711865 36.37843070928356
    vertex 924.330171336828 302.086872278386 51.378430709632795
    vertex 924.33017133693 300.2868722708279 39.3784307094657
  endloop
endfacet
facet normal 1.0 -5.013273731479648e-13 8.572698106912903e-12
  outer loop
    vertex 924.330171336828 302.086872278386 51.378430709632795
    vertex 924.3301713369251 300.2868722711865 36.37843070928356
    vertex 924.330171336926 302.08687228018056 36.37843070948885
  endloop
endfacet
facet normal 1.0 -5.013273731479648e-13 8.572698106912903e-12
  outer loop
    vertex 924.330171336828 302.086872278386 51.378430709632795
    vertex 924.330171336926 302.08687228018056 36.37843070948885
    vertex 924.3301713369309 302.086872279822 39.378430709670994
  endloop
endfacet
facet normal 8.897474345494658e-13 1.5716671699738399e-12 -1.0
  outer loop
    vertex 933.529693061931 304.25097614785096 36.3784307094476
    vertex 933.475174383994 303.83686567568697 36.378430709446896
    vertex 923.0820427915739 308.6368656756599 36.3784307094452
  endloop
endfacet
facet normal 8.492346710550969e-13 1.4751615052070515e-12 -1.0
  outer loop
    vertex 933.689533737939 304.6368656756869 36.3784307094483
    vertex 933.529693061931 304.25097614785096 36.3784307094476
    vertex 923.0820427915739 308.6368656756599 36.3784307094452
  endloop
endfacet
facet normal 2.2721713515609993e-13 -1.743498399362933e-13 -1.0
  outer loop
    vertex 933.9438035340949 304.9682365255849 36.3784307094483
    vertex 933.689533737939 304.6368656756869 36.3784307094483
    vertex 923.0820427915739 308.6368656756599 36.3784307094452
  endloop
endfacet
facet normal 1.9866013834258823e-13 -2.5889893286026234e-13 -1.0
  outer loop
    vertex 934.2751743839939 305.222506321742 36.3784307094483
    vertex 933.9438035340949 304.9682365255849 36.3784307094483
    vertex 923.0820427915739 308.6368656756599 36.3784307094452
  endloop
endfacet
facet normal 1.7922322230992823e-14 -8.514031041456587e-13 -1.0
  outer loop
    vertex 940.07517438402 308.636865675658 36.3784307094455
    vertex 934.2751743839939 305.222506321742 36.3784307094483
    vertex 923.0820427915739 308.6368656756599 36.3784307094452
  endloop
endfacet
facet normal -4.178572186370908e-12 6.277216243459124e-12 -1.0
  outer loop
    vertex 940.07517438402 308.636865675658 36.3784307094455
    vertex 934.6610639118298 305.382346997749 36.37843070944769
    vertex 934.2751743839939 305.222506321742 36.3784307094483
  endloop
endfacet
facet normal -7.93174184908178e-13 6.453792235444594e-13 -1.0
  outer loop
    vertex 940.07517438402 308.636865675658 36.3784307094455
    vertex 935.0751743839938 305.43686567568597 36.3784307094474
    vertex 934.6610639118298 305.382346997749 36.37843070944769
  endloop
endfacet
facet normal -2.2788260665521434e-12 2.9667102886456344e-12 -1.0
  outer loop
    vertex 940.07517438402 308.636865675658 36.3784307094455
    vertex 935.489284856158 305.382346997749 36.37843070944629
    vertex 935.0751743839938 305.43686567568597 36.3784307094474
  endloop
endfacet
facet normal -1.0421701968667805e-12 1.2241585433279853e-12 -1.0
  outer loop
    vertex 940.07517438402 308.636865675658 36.3784307094455
    vertex 935.8751743839939 305.2225063217409 36.378430709445695
    vertex 935.489284856158 305.382346997749 36.37843070944629
  endloop
endfacet
facet normal -1.7301730325015275e-12 2.070470138025501e-12 -1.0
  outer loop
    vertex 940.07517438402 308.636865675658 36.3784307094455
    vertex 936.206545233892 304.9682365255849 36.3784307094446
    vertex 935.8751743839939 305.2225063217409 36.378430709445695
  endloop
endfacet
facet normal -1.518553284603856e-12 1.8473136695000905e-12 -1.0
  outer loop
    vertex 940.07517438402 308.636865675658 36.3784307094455
    vertex 936.460815030049 304.636865675686 36.3784307094436
    vertex 936.206545233892 304.9682365255849 36.3784307094446
  endloop
endfacet
facet normal -1.8132110230613662e-12 2.1135634078054306e-12 -1.0
  outer loop
    vertex 940.07517438402 308.636865675658 36.3784307094455
    vertex 936.6206557060559 304.25097614785 36.37843070944249
    vertex 936.460815030049 304.636865675686 36.3784307094436
  endloop
endfacet
facet normal -2.1285445400037638e-12 2.361933896199857e-12 -1.0
  outer loop
    vertex 940.07517438402 308.636865675658 36.3784307094455
    vertex 936.6751743839939 303.836865675686 36.378430709441396
    vertex 936.6206557060559 304.25097614785 36.37843070944249
  endloop
endfacet
facet normal 1.1172043682250604e-12 6.286175284000434e-14 -1.0
  outer loop
    vertex 940.07517438402 308.636865675658 36.3784307094455
    vertex 940.075174384019 299.03686567565796 36.3784307094449
    vertex 936.6751743839939 303.836865675686 36.378430709441396
  endloop
endfacet
facet normal -1.7590427374960005e-14 3.6389491561235245e-27 -1.0
  outer loop
    vertex 923.0820427915739 308.6368656756599 36.3784307094452
    vertex 924.330171336926 302.08687228018056 36.37843070948885
    vertex 924.3301713369251 300.2868722711865 36.37843070928356
  endloop
endfacet
facet normal -1.7590427374960005e-14 3.6389491561235245e-27 -1.0
  outer loop
    vertex 924.330171336926 302.08687228018056 36.37843070948885
    vertex 923.0820427915739 308.6368656756599 36.3784307094452
    vertex 930.8301713367952 302.08687228017953 36.37843070948805
  endloop
endfacet
facet normal -1.7590427374960005e-14 3.6389491561235245e-27 -1.0
  outer loop
    vertex 930.8301713367952 302.08687228017953 36.37843070948805
    vertex 923.0820427915739 308.6368656756599 36.3784307094452
    vertex 940.075174384019 299.03686567565796 36.3784307094449
  endloop
endfacet
facet normal -1.7590427374960005e-14 3.6389491561235245e-27 -1.0
  outer loop
    vertex 930.8301713367952 302.08687228017953 36.37843070948805
    vertex 940.075174384019 299.03686567565796 36.3784307094449
    vertex 930.8301713367952 300.2868722711856 36.37843070926316
  endloop
endfacet
facet normal -1.7590427374960005e-14 3.6389491561235245e-27 -1.0
  outer loop
    vertex 923.0820427915719 299.03686567566 36.3784307094452
    vertex 924.3301713369251 300.2868722711865 36.37843070928356
    vertex 940.075174384019 299.03686567565796 36.3784307094449
  endloop
endfacet
facet normal -1.7590427374960005e-14 3.6389491561235245e-27 -1.0
  outer loop
    vertex 924.3301713369251 300.2868722711865 36.37843070928356
    vertex 923.0820427915719 299.03686567566 36.3784307094452
    vertex 923.0820427915739 308.6368656756599 36.3784307094452
  endloop
endfacet
facet normal -1.7590427374960005e-14 3.6389491561235245e-27 -1.0
  outer loop
    vertex 940.075174384019 299.03686567565796 36.3784307094449
    vertex 924.3301713369251 300.2868722711865 36.37843070928356
    vertex 930.8301713367952 300.2868722711856 36.37843070926316
  endloop
endfacet
facet normal -7.815041923312893e-12 -1.3802408266265994e-11 -1.0
  outer loop
    vertex 940.075174384019 299.03686567565796 36.3784307094449
    vertex 923.0820427915739 308.6368656756599 36.3784307094452
    vertex 934.2751743839939 302.451225029631 36.378430709443094
  endloop
endfacet
facet normal 7.128090030519321e-12 1.3237708018134364e-11 -1.0
  outer loop
    vertex 934.2751743839939 302.451225029631 36.378430709443094
    vertex 923.0820427915739 308.6368656756599 36.3784307094452
    vertex 933.9438035340949 302.705494825788 36.3784307094441
  endloop
endfacet
facet normal 2.9301401405718208e-12 5.550256252294021e-12 -1.0
  outer loop
    vertex 933.9438035340949 302.705494825788 36.3784307094441
    vertex 923.0820427915739 308.6368656756599 36.3784307094452
    vertex 933.689533737939 303.03686567568695 36.3784307094452
  endloop
endfacet
facet normal 1.925703178875531e-12 3.6476569706084275e-12 -1.0
  outer loop
    vertex 933.689533737939 303.03686567568695 36.3784307094452
    vertex 923.0820427915739 308.6368656756599 36.3784307094452
    vertex 933.529693061931 303.422755203523 36.37843070944629
  endloop
endfacet
facet normal 8.910974040195421e-13 1.5745901721297351e-12 -1.0
  outer loop
    vertex 933.529693061931 303.422755203523 36.37843070944629
    vertex 923.0820427915739 308.6368656756599 36.3784307094452
    vertex 933.475174383994 303.83686567568697 36.378430709446896
  endloop
endfacet
facet normal -1.035275545798675e-11 -1.811324288419848e-11 -1.0
  outer loop
    vertex 940.075174384019 299.03686567565796 36.3784307094449
    vertex 934.2751743839939 302.451225029631 36.378430709443094
    vertex 934.6610639118298 302.291384353624 36.378430709442
  endloop
endfacet
facet normal -2.6264471468106746e-12 -5.260009924710843e-12 -1.0
  outer loop
    vertex 940.075174384019 299.03686567565796 36.3784307094449
    vertex 934.6610639118298 302.291384353624 36.378430709442
    vertex 935.0751743839938 302.2368656756859 36.3784307094412
  endloop
endfacet
facet normal -1.2744305195273777e-12 -3.1474839445886075e-12 -1.0
  outer loop
    vertex 940.075174384019 299.03686567565796 36.3784307094449
    vertex 935.0751743839938 302.2368656756859 36.3784307094412
    vertex 935.489284856158 302.291384353624 36.378430709440494
  endloop
endfacet
facet normal -2.9247675765176415e-13 -1.7638288118292077e-12 -1.0
  outer loop
    vertex 940.075174384019 299.03686567565796 36.3784307094449
    vertex 935.489284856158 302.291384353624 36.378430709440494
    vertex 935.8751743839939 302.451225029631 36.3784307094401
  endloop
endfacet
facet normal 5.542335858971415e-13 -7.222912716202091e-13 -1.0
  outer loop
    vertex 940.075174384019 299.03686567565796 36.3784307094449
    vertex 935.8751743839939 302.451225029631 36.3784307094401
    vertex 936.206545233892 302.705494825788 36.3784307094401
  endloop
endfacet
facet normal 1.3712155651473596e-12 1.3922952285521486e-13 -1.0
  outer loop
    vertex 940.075174384019 299.03686567565796 36.3784307094449
    vertex 936.206545233892 302.705494825788 36.3784307094401
    vertex 936.460815030049 303.03686567568593 36.378430709440494
  endloop
endfacet
facet normal 1.4223696501091684e-12 1.8545183422376487e-13 -1.0
  outer loop
    vertex 940.075174384019 299.03686567565796 36.3784307094449
    vertex 936.460815030049 303.03686567568593 36.378430709440494
    vertex 936.6206557060559 303.422755203522 36.3784307094408
  endloop
endfacet
facet normal 2.6021466483749886e-12 1.1146958679478023e-12 -1.0
  outer loop
    vertex 940.075174384019 299.03686567565796 36.3784307094449
    vertex 936.6206557060559 303.422755203522 36.3784307094408
    vertex 936.6751743839939 303.836865675686 36.378430709441396
  endloop
endfacet
facet normal 0.92387953251171 0.3826834323640686 -7.949992404968558e-13
  outer loop
    vertex 933.5296930619569 303.422755203494 51.3784307094474
    vertex 933.6895337379639 303.036865675658 51.3784307094463
    vertex 933.689533737939 303.03686567568695 36.3784307094452
  endloop
endfacet
facet normal 0.9238795325108249 0.382683432366205 -8.593948397473625e-13
  outer loop
    vertex 933.529693061931 303.422755203523 36.37843070944629
    vertex 933.5296930619569 303.422755203494 51.3784307094474
    vertex 933.689533737939 303.03686567568695 36.3784307094452
  endloop
endfacet
facet normal 0.1305261922189408 -0.9914448613739567 -2.078112295383103e-12
  outer loop
    vertex 935.0751743840199 305.43686567565794 51.378430709448494
    vertex 934.6610639118298 305.382346997749 36.37843070944769
    vertex 935.0751743839938 305.43686567568597 36.3784307094474
  endloop
endfacet
facet normal 0.13052619221889056 -0.9914448613739633 -2.076700762217276e-12
  outer loop
    vertex 934.661063911856 305.382346997721 51.37843070944899
    vertex 934.6610639118298 305.382346997749 36.37843070944769
    vertex 935.0751743840199 305.43686567565794 51.378430709448494
  endloop
endfacet
facet normal 0.9914448613739391 -0.130526192219075 -1.9582899455542464e-12
  outer loop
    vertex 933.5296930619569 304.2509761478219 51.3784307094489
    vertex 933.4751743840199 303.836865675658 51.37843070944809
    vertex 933.475174383994 303.83686567568697 36.378430709446896
  endloop
endfacet
facet normal 0.9914448613739969 -0.13052619221863626 -1.9706107106936732e-12
  outer loop
    vertex 933.529693061931 304.25097614785096 36.3784307094476
    vertex 933.5296930619569 304.2509761478219 51.3784307094489
    vertex 933.475174383994 303.83686567568697 36.378430709446896
  endloop
endfacet
facet normal -0.6087614290096186 0.7933533402905463 2.5269612044021545e-12
  outer loop
    vertex 936.2065452339178 302.70549482576 51.3784307094414
    vertex 936.206545233892 302.705494825788 36.3784307094401
    vertex 935.8751743839939 302.451225029631 36.3784307094401
  endloop
endfacet
facet normal -0.608761429008852 0.7933533402911346 2.500051528590559e-12
  outer loop
    vertex 936.2065452339178 302.70549482576 51.3784307094414
    vertex 935.8751743839939 302.451225029631 36.3784307094401
    vertex 935.8751743840189 302.451225029603 51.3784307094414
  endloop
endfacet
facet normal 0.7933533402923503 -0.6087614290072675 -2.5501423288408185e-12
  outer loop
    vertex 933.943803534121 304.96823652555696 51.3784307094496
    vertex 933.6895337379649 304.636865675658 51.3784307094494
    vertex 933.689533737939 304.6368656756869 36.3784307094483
  endloop
endfacet
facet normal 0.7933533402916783 -0.6087614290081436 -2.5194000885910767e-12
  outer loop
    vertex 933.9438035340949 304.9682365255849 36.3784307094483
    vertex 933.943803534121 304.96823652555696 51.3784307094496
    vertex 933.689533737939 304.6368656756869 36.3784307094483
  endloop
endfacet
facet normal 0.9238795325108249 -0.382683432366205 -2.342008384207343e-12
  outer loop
    vertex 933.6895337379649 304.636865675658 51.3784307094494
    vertex 933.5296930619569 304.2509761478219 51.3784307094489
    vertex 933.529693061931 304.25097614785096 36.3784307094476
  endloop
endfacet
facet normal 0.9238795325107931 -0.38268343236628144 -2.3397070766136257e-12
  outer loop
    vertex 933.689533737939 304.6368656756869 36.3784307094483
    vertex 933.6895337379649 304.636865675658 51.3784307094494
    vertex 933.529693061931 304.25097614785096 36.3784307094476
  endloop
endfacet
facet normal -0.3826834323643452 0.9238795325115953 2.3657679040871636e-12
  outer loop
    vertex 935.8751743840189 302.451225029603 51.3784307094414
    vertex 935.8751743839939 302.451225029631 36.3784307094401
    vertex 935.489284856158 302.291384353624 36.378430709440494
  endloop
endfacet
facet normal -0.3826834323650166 0.923879532511317 2.3860093854334115e-12
  outer loop
    vertex 935.4892848561839 302.29138435359596 51.378430709441794
    vertex 935.8751743840189 302.451225029603 51.3784307094414
    vertex 935.489284856158 302.291384353624 36.378430709440494
  endloop
endfacet
facet normal 0.7933533402902175 0.6087614290100472 -2.4879828245085787e-13
  outer loop
    vertex 933.6895337379639 303.036865675658 51.3784307094463
    vertex 933.943803534121 302.70549482576 51.37843070944519
    vertex 933.9438035340949 302.705494825788 36.3784307094441
  endloop
endfacet
facet normal 0.7933533402925589 0.6087614290069957 -1.4169768784754899e-13
  outer loop
    vertex 933.689533737939 303.03686567568695 36.3784307094452
    vertex 933.6895337379639 303.036865675658 51.3784307094463
    vertex 933.9438035340949 302.705494825788 36.3784307094441
  endloop
endfacet
facet normal 0.6087614290085752 0.7933533402913467 4.638347605577608e-13
  outer loop
    vertex 934.275174384019 302.451225029603 51.378430709444196
    vertex 934.2751743839939 302.451225029631 36.378430709443094
    vertex 933.9438035340949 302.705494825788 36.3784307094441
  endloop
endfacet
facet normal 0.6087614290098954 0.7933533402903339 4.1749692290678016e-13
  outer loop
    vertex 933.943803534121 302.70549482576 51.37843070944519
    vertex 934.275174384019 302.451225029603 51.378430709444196
    vertex 933.9438035340949 302.705494825788 36.3784307094441
  endloop
endfacet
facet normal 0.38268343236434516 0.9238795325115953 1.0829680118444744e-12
  outer loop
    vertex 934.661063911855 302.29138435359596 51.37843070944329
    vertex 934.6610639118298 302.291384353624 36.378430709442
    vertex 934.2751743839939 302.451225029631 36.378430709443094
  endloop
endfacet
facet normal 0.3826834323642529 0.9238795325116334 1.085744163501483e-12
  outer loop
    vertex 934.275174384019 302.451225029603 51.378430709444196
    vertex 934.661063911855 302.29138435359596 51.37843070944329
    vertex 934.2751743839939 302.451225029631 36.378430709443094
  endloop
endfacet
facet normal 0.1305261922212769 0.9914448613736492 1.6228342472759267e-12
  outer loop
    vertex 935.0751743840199 302.23686567565795 51.37843070944229
    vertex 935.0751743839938 302.2368656756859 36.3784307094412
    vertex 934.6610639118298 302.291384353624 36.378430709442
  endloop
endfacet
facet normal 0.13052619222099726 0.9914448613736859 1.6306868559737538e-12
  outer loop
    vertex 934.661063911855 302.29138435359596 51.37843070944329
    vertex 935.0751743840199 302.23686567565795 51.37843070944229
    vertex 934.6610639118298 302.291384353624 36.378430709442
  endloop
endfacet
facet normal -0.9914448613736595 -0.13052619222119863 1.4739489221189741e-12
  outer loop
    vertex 936.620655706082 304.2509761478219 51.3784307094436
    vertex 936.6751743839939 303.836865675686 36.378430709441396
    vertex 936.6751743840199 303.836865675658 51.378430709442696
  endloop
endfacet
facet normal -0.9914448613736613 -0.13052619222118467 1.4735565464728276e-12
  outer loop
    vertex 936.6206557060559 304.25097614785 36.37843070944249
    vertex 936.6751743839939 303.836865675686 36.378430709441396
    vertex 936.620655706082 304.2509761478219 51.3784307094436
  endloop
endfacet
facet normal -0.9238795325115886 -0.382683432364361 8.847192487892956e-13
  outer loop
    vertex 936.4608150300749 304.636865675658 51.37843070944469
    vertex 936.6206557060559 304.25097614785 36.37843070944249
    vertex 936.620655706082 304.2509761478219 51.3784307094436
  endloop
endfacet
facet normal -0.9238795325117256 -0.3826834323640303 8.74755726165337e-13
  outer loop
    vertex 936.460815030049 304.636865675686 36.3784307094436
    vertex 936.6206557060559 304.25097614785 36.37843070944249
    vertex 936.4608150300749 304.636865675658 51.37843070944469
  endloop
endfacet
facet normal -0.13052619222127684 0.9914448613736492 2.0751304103334125e-12
  outer loop
    vertex 935.4892848561839 302.29138435359596 51.378430709441794
    vertex 935.489284856158 302.291384353624 36.378430709440494
    vertex 935.0751743839938 302.2368656756859 36.3784307094412
  endloop
endfacet
facet normal -0.13052619222127687 0.9914448613736492 2.075129985684501e-12
  outer loop
    vertex 935.0751743840199 302.23686567565795 51.37843070944229
    vertex 935.4892848561839 302.29138435359596 51.378430709441794
    vertex 935.0751743839938 302.2368656756859 36.3784307094412
  endloop
endfacet
facet normal -0.13052619221894085 -0.9914448613739567 -1.6228350965743203e-12
  outer loop
    vertex 935.4892848561839 305.382346997721 51.37843070944759
    vertex 935.0751743839938 305.43686567568597 36.3784307094474
    vertex 935.489284856158 305.382346997749 36.37843070944629
  endloop
endfacet
facet normal -0.13052619221883466 -0.9914448613739707 -1.6258174062723463e-12
  outer loop
    vertex 935.0751743840199 305.43686567565794 51.378430709448494
    vertex 935.0751743839938 305.43686567568597 36.3784307094474
    vertex 935.4892848561839 305.382346997721 51.37843070944759
  endloop
endfacet
facet normal -0.6087614290081228 -0.7933533402916939 -4.846490562205324e-13
  outer loop
    vertex 936.2065452339178 304.968236525556 51.378430709445695
    vertex 935.8751743839939 305.2225063217409 36.378430709445695
    vertex 936.206545233892 304.9682365255849 36.3784307094446
  endloop
endfacet
facet normal -0.608761429010104 -0.7933533402901737 -4.151109896735672e-13
  outer loop
    vertex 935.87517438402 305.222506321713 51.3784307094468
    vertex 935.8751743839939 305.2225063217409 36.378430709445695
    vertex 936.2065452339178 304.968236525556 51.378430709445695
  endloop
endfacet
facet normal -0.793353340290426 -0.6087614290097751 2.2787360553809777e-13
  outer loop
    vertex 936.2065452339178 304.968236525556 51.378430709445695
    vertex 936.460815030049 304.636865675686 36.3784307094436
    vertex 936.4608150300749 304.636865675658 51.37843070944469
  endloop
endfacet
facet normal -0.7933533402912667 -0.6087614290086796 1.8941953659333606e-13
  outer loop
    vertex 936.206545233892 304.9682365255849 36.3784307094446
    vertex 936.460815030049 304.636865675686 36.3784307094436
    vertex 936.2065452339178 304.968236525556 51.378430709445695
  endloop
endfacet
facet normal 0.3826834323642529 -0.9238795325116334 -2.3906147348395157e-12
  outer loop
    vertex 934.661063911856 305.382346997721 51.37843070944899
    vertex 934.2751743839939 305.222506321742 36.3784307094483
    vertex 934.6610639118298 305.382346997749 36.37843070944769
  endloop
endfacet
facet normal 0.38268343236628144 -0.9238795325107931 -2.451753869916251e-12
  outer loop
    vertex 934.27517438402 305.222506321713 51.3784307094496
    vertex 934.2751743839939 305.222506321742 36.3784307094483
    vertex 934.661063911856 305.382346997721 51.37843070944899
  endloop
endfacet
facet normal 0.6087614290086432 -0.7933533402912947 -2.594111214987467e-12
  outer loop
    vertex 934.27517438402 305.222506321713 51.3784307094496
    vertex 933.9438035340949 304.9682365255849 36.3784307094483
    vertex 934.2751743839939 305.222506321742 36.3784307094483
  endloop
endfacet
facet normal 0.6087614290071475 -0.7933533402924423 -2.5416132543452544e-12
  outer loop
    vertex 933.943803534121 304.96823652555696 51.3784307094496
    vertex 933.9438035340949 304.9682365255849 36.3784307094483
    vertex 934.27517438402 305.222506321713 51.3784307094496
  endloop
endfacet
facet normal 0.9914448613739408 0.13052619221906098 -1.4649183371786557e-12
  outer loop
    vertex 933.4751743840199 303.836865675658 51.37843070944809
    vertex 933.5296930619569 303.422755203494 51.3784307094474
    vertex 933.529693061931 303.422755203523 36.37843070944629
  endloop
endfacet
facet normal 0.9914448613739949 0.13052619221865028 -1.453382747979966e-12
  outer loop
    vertex 933.475174383994 303.83686567568697 36.378430709446896
    vertex 933.4751743840199 303.836865675658 51.37843070944809
    vertex 933.529693061931 303.422755203523 36.37843070944629
  endloop
endfacet
facet normal -0.3826834323663737 -0.9238795325107552 -1.05256340932373e-12
  outer loop
    vertex 935.87517438402 305.222506321713 51.3784307094468
    vertex 935.489284856158 305.382346997749 36.37843070944629
    vertex 935.8751743839939 305.2225063217409 36.378430709445695
  endloop
endfacet
facet normal -0.3826834323661286 -0.9238795325108565 -1.0599458218051503e-12
  outer loop
    vertex 935.4892848561839 305.382346997721 51.37843070944759
    vertex 935.489284856158 305.382346997749 36.37843070944629
    vertex 935.87517438402 305.222506321713 51.3784307094468
  endloop
endfacet
facet normal -0.9914448613736613 0.13052619222118467 1.9615809750504903e-12
  outer loop
    vertex 936.6751743840199 303.836865675658 51.378430709442696
    vertex 936.6206557060559 303.422755203522 36.3784307094408
    vertex 936.620655706082 303.422755203494 51.3784307094421
  endloop
endfacet
facet normal -0.9914448613736613 0.13052619222118467 1.9615809750504923e-12
  outer loop
    vertex 936.6751743839939 303.836865675686 36.378430709441396
    vertex 936.6206557060559 303.422755203522 36.3784307094408
    vertex 936.6751743840199 303.836865675658 51.378430709442696
  endloop
endfacet
facet normal -0.9238795325115572 0.3826834323644374 2.3021151031283788e-12
  outer loop
    vertex 936.620655706082 303.422755203494 51.3784307094421
    vertex 936.460815030049 303.03686567568593 36.378430709440494
    vertex 936.4608150300749 303.036865675658 51.3784307094416
  endloop
endfacet
facet normal -0.9238795325117416 0.38268343236399205 2.315536511302361e-12
  outer loop
    vertex 936.6206557060559 303.422755203522 36.3784307094408
    vertex 936.460815030049 303.03686567568593 36.378430709440494
    vertex 936.620655706082 303.422755203494 51.3784307094421
  endloop
endfacet
facet normal -0.793353340290426 0.6087614290097751 2.5003115613602598e-12
  outer loop
    vertex 936.4608150300749 303.036865675658 51.3784307094416
    vertex 936.206545233892 302.705494825788 36.3784307094401
    vertex 936.2065452339178 302.70549482576 51.3784307094414
  endloop
endfacet
facet normal -0.793353340290386 0.6087614290098273 2.4984796571076935e-12
  outer loop
    vertex 936.460815030049 303.03686567568593 36.378430709440494
    vertex 936.206545233892 302.705494825788 36.3784307094401
    vertex 936.4608150300749 303.036865675658 51.3784307094416
  endloop
endfacet
endsolid Untitled-565e2926
