  0
SECTION
  2
HEADER
  9
$ACADVER
  1
AC1014
  9
$ACADMAINTVER
 70
     9
  9
$DWGCODEPAGE
  3
MAC-ROMAN
  9
$INSBASE
 10
0.0
 20
0.0
 30
0.0
  9
$EXTMIN
 10
1.000000000000000E+20
 20
1.000000000000000E+20
 30
1.000000000000000E+20
  9
$EXTMAX
 10
-1.000000000000000E+20
 20
-1.000000000000000E+20
 30
-1.000000000000000E+20
  9
$LIMMIN
 10
0.0
 20
0.0
  9
$LIMMAX
 10
12.0
 20
9.0
  9
$ORTHOMODE
 70
     0
  9
$REGENMODE
 70
     1
  9
$FILLMODE
 70
     1
  9
$QTEXTMODE
 70
     0
  9
$MIRRTEXT
 70
     1
  9
$DRAGMODE
 70
     2
  9
$LTSCALE
 40
1.0
  9
$OSMODE
 70
    37
  9
$ATTMODE
 70
     1
  9
$TEXTSIZE
 40
0.2
  9
$TRACEWID
 40
0.05
  9
$TEXTSTYLE
  7
STANDARD
  9
$CLAYER
  8
0
  9
$CELTYPE
  6
BYLAYER
  9
$CECOLOR
 62
   256
  9
$CELTSCALE
 40
1.0
  9
$DELOBJ
 70
     1
  9
$DISPSILH
 70
     0
  9
$DIMSCALE
 40
1.0
  9
$DIMASZ
 40
0.18
  9
$DIMEXO
 40
0.0625
  9
$DIMDLI
 40
0.38
  9
$DIMRND
 40
0.0
  9
$DIMDLE
 40
0.0
  9
$DIMEXE
 40
0.18
  9
$DIMTP
 40
0.0
  9
$DIMTM
 40
0.0
  9
$DIMTXT
 40
0.18
  9
$DIMCEN
 40
0.09
  9
$DIMTSZ
 40
0.0
  9
$DIMTOL
 70
     0
  9
$DIMLIM
 70
     0
  9
$DIMTIH
 70
     1
  9
$DIMTOH
 70
     1
  9
$DIMSE1
 70
     0
  9
$DIMSE2
 70
     0
  9
$DIMTAD
 70
     0
  9
$DIMZIN
 70
     0
  9
$DIMBLK
  1

  9
$DIMASO
 70
     1
  9
$DIMSHO
 70
     1
  9
$DIMPOST
  1

  9
$DIMAPOST
  1

  9
$DIMALT
 70
     0
  9
$DIMALTD
 70
     2
  9
$DIMALTF
 40
25.4
  9
$DIMLFAC
 40
1.0
  9
$DIMTOFL
 70
     0
  9
$DIMTVP
 40
0.0
  9
$DIMTIX
 70
     0
  9
$DIMSOXD
 70
     0
  9
$DIMSAH
 70
     0
  9
$DIMBLK1
  1

  9
$DIMBLK2
  1

  9
$DIMSTYLE
  2
STANDARD
  9
$DIMCLRD
 70
     0
  9
$DIMCLRE
 70
     0
  9
$DIMCLRT
 70
     0
  9
$DIMTFAC
 40
1.0
  9
$DIMGAP
 40
0.09
  9
$DIMJUST
 70
     0
  9
$DIMSD1
 70
     0
  9
$DIMSD2
 70
     0
  9
$DIMTOLJ
 70
     1
  9
$DIMTZIN
 70
     0
  9
$DIMALTZ
 70
     0
  9
$DIMALTTZ
 70
     0
  9
$DIMFIT
 70
     3
  9
$DIMUPT
 70
     0
  9
$DIMUNIT
 70
     2
  9
$DIMDEC
 70
     4
  9
$DIMTDEC
 70
     4
  9
$DIMALTU
 70
     2
  9
$DIMALTTD
 70
     2
  9
$DIMTXSTY
  7
STANDARD
  9
$DIMAUNIT
 70
     0
  9
$LUNITS
 70
     2
  9
$LUPREC
 70
     4
  9
$SKETCHINC
 40
0.1
  9
$FILLETRAD
 40
0.5
  9
$AUNITS
 70
     0
  9
$AUPREC
 70
     0
  9
$MENU
  1
.
  9
$ELEVATION
 40
0.0
  9
$PELEVATION
 40
0.0
  9
$THICKNESS
 40
0.0
  9
$LIMCHECK
 70
     0
  9
$CHAMFERA
 40
0.0
  9
$CHAMFERB
 40
0.0
  9
$CHAMFERC
 40
0.0
  9
$CHAMFERD
 40
0.0
  9
$SKPOLY
 70
     0
  9
$TDCREATE
 40
2457212.606087951
  9
$TDUPDATE
 40
2457212.606099537
  9
$TDINDWG
 40
0.0000000116
  9
$TDUSRTIMER
 40
0.0000000116
  9
$USRTIMER
 70
     1
  9
$ANGBASE
 50
0.0
  9
$ANGDIR
 70
     0
  9
$PDMODE
 70
     0
  9
$PDSIZE
 40
0.0
  9
$PLINEWID
 40
0.0
  9
$COORDS
 70
     1
  9
$SPLFRAME
 70
     0
  9
$SPLINETYPE
 70
     6
  9
$SPLINESEGS
 70
     8
  9
$ATTDIA
 70
     0
  9
$ATTREQ
 70
     1
  9
$HANDLING
 70
     1
  9
$HANDSEED
  5
311
  9
$SURFTAB1
 70
     6
  9
$SURFTAB2
 70
     6
  9
$SURFTYPE
 70
     6
  9
$SURFU
 70
     6
  9
$SURFV
 70
     6
  9
$UCSNAME
  2

  9
$UCSORG
 10
0.0
 20
0.0
 30
0.0
  9
$UCSXDIR
 10
1.0
 20
0.0
 30
0.0
  9
$UCSYDIR
 10
0.0
 20
1.0
 30
0.0
  9
$PUCSNAME
  2

  9
$PUCSORG
 10
0.0
 20
0.0
 30
0.0
  9
$PUCSXDIR
 10
1.0
 20
0.0
 30
0.0
  9
$PUCSYDIR
 10
0.0
 20
1.0
 30
0.0
  9
$USERI1
 70
     0
  9
$USERI2
 70
     0
  9
$USERI3
 70
     0
  9
$USERI4
 70
     0
  9
$USERI5
 70
     0
  9
$USERR1
 40
0.0
  9
$USERR2
 40
0.0
  9
$USERR3
 40
0.0
  9
$USERR4
 40
0.0
  9
$USERR5
 40
0.0
  9
$WORLDVIEW
 70
     1
  9
$SHADEDGE
 70
     3
  9
$SHADEDIF
 70
    70
  9
$TILEMODE
 70
     1
  9
$MAXACTVP
 70
    64
  9
$PINSBASE
 10
0.0
 20
0.0
 30
0.0
  9
$PLIMCHECK
 70
     0
  9
$PEXTMIN
 10
1.000000000000000E+20
 20
1.000000000000000E+20
 30
1.000000000000000E+20
  9
$PEXTMAX
 10
-1.000000000000000E+20
 20
-1.000000000000000E+20
 30
-1.000000000000000E+20
  9
$PLIMMIN
 10
0.0
 20
0.0
  9
$PLIMMAX
 10
12.0
 20
9.0
  9
$UNITMODE
 70
     0
  9
$VISRETAIN
 70
     1
  9
$PLINEGEN
 70
     0
  9
$PSLTSCALE
 70
     1
  9
$TREEDEPTH
 70
  3020
  9
$PICKSTYLE
 70
     1
  9
$CMLSTYLE
  2
STANDARD
  9
$CMLJUST
 70
     0
  9
$CMLSCALE
 40
1.0
  9
$PROXYGRAPHICS
 70
     1
  9
$MEASUREMENT
 70
     1
  0
ENDSEC
  0
SECTION
  2
CLASSES
  0
CLASS
  1
ACDBDICTIONARYWDFLT
  2
AcDbDictionaryWithDefault
  3
ObjectDBX Classes
 90
        0
280
     0
281
     0
  0
CLASS
  1
VISUALSTYLE
  2
AcDbVisualStyle
  3
ObjectDBX Classes
 90
     4095
280
     0
281
     0
  0
CLASS
  1
MATERIAL
  2
AcDbMaterial
  3
ObjectDBX Classes
 90
     1153
280
     0
281
     0
  0
CLASS
  1
SCALE
  2
AcDbScale
  3
ObjectDBX Classes
 90
     1153
280
     0
281
     0
  0
CLASS
  1
SUN
  2
AcDbSun
  3
SCENEOE
 90
     1153
280
     0
281
     0
  0
CLASS
  1
DICTIONARYVAR
  2
AcDbDictionaryVar
  3
ObjectDBX Classes
 90
        0
280
     0
281
     0
  0
CLASS
  1
XRECORD
  2
AcDbXrecord
  3
ObjectDBX Classes
 90
        0
280
     0
281
     0
  0
CLASS
  1
LWPOLYLINE
  2
AcDbPolyline
  3
ObjectDBX Classes
 90
        0
280
     0
281
     1
  0
CLASS
  1
HATCH
  2
AcDbHatch
  3
ObjectDBX Classes
 90
        0
280
     0
281
     1
  0
CLASS
  1
ACDBPLACEHOLDER
  2
AcDbPlaceHolder
  3
ObjectDBX Classes
 90
        0
280
     0
281
     0
  0
CLASS
  1
LAYOUT
  2
AcDbLayout
  3
ObjectDBX Classes
 90
        0
280
     0
281
     0
  0
ENDSEC
  0
SECTION
  2
TABLES
  0
TABLE
  2
VPORT
  5
8
102
{ACAD_XDICTIONARY
360
307
102
}
330
0
100
AcDbSymbolTable
 70
     1
  0
VPORT
  5
29
330
8
100
AcDbSymbolTableRecord
100
AcDbViewportTableRecord
  2
*ACTIVE
 70
     0
 10
0.0
 20
0.0
 11
1.0
 21
1.0
 12
0.0
 22
0.0
 13
0.0
 23
0.0
 14
0.5
 24
0.5
 15
0.5
 25
0.5
 16
0.0
 26
0.0
 36
1.0
 17
0.0
 27
0.0
 37
-1000.0
 40
505.4585507469725
 41
1.773946360153257
 42
50.0
 43
779.2438949230428
 44
1583.901549289421
 50
0.0
 51
0.0
 71
     0
 72
   100
 73
     1
 74
     3
 75
     0
 76
     0
 77
     0
 78
     0
  0
ENDTAB
  0
TABLE
  2
LTYPE
  5
5
330
0
100
AcDbSymbolTable
 70
     1
  0
LTYPE
  5
14
330
5
100
AcDbSymbolTableRecord
100
AcDbLinetypeTableRecord
  2
BYBLOCK
 70
     0
  3

 72
    65
 73
     0
 40
0.0
  0
LTYPE
  5
15
330
5
100
AcDbSymbolTableRecord
100
AcDbLinetypeTableRecord
  2
BYLAYER
 70
     0
  3

 72
    65
 73
     0
 40
0.0
  0
LTYPE
  5
16
330
5
100
AcDbSymbolTableRecord
100
AcDbLinetypeTableRecord
  2
CONTINUOUS
 70
     0
  3
Solid line
 72
    65
 73
     0
 40
0.0
  0
ENDTAB
  0
TABLE
  2
LAYER
  5
2
330
0
100
AcDbSymbolTable
 70
     3
  0
LAYER
  5
10
330
2
100
AcDbSymbolTableRecord
100
AcDbLayerTableRecord
  2
0
 70
     0
 62
     7
  6
CONTINUOUS
  0
LAYER
  5
6A
330
2
100
AcDbSymbolTableRecord
100
AcDbLayerTableRecord
  2
PROFILEEDGES
 70
     0
 62
     7
  6
CONTINUOUS
  0
LAYER
  5
6B
330
2
100
AcDbSymbolTableRecord
100
AcDbLayerTableRecord
  2
SECTIONCUTEDGES
 70
     0
 62
     7
  6
CONTINUOUS
  0
ENDTAB
  0
TABLE
  2
STYLE
  5
3
330
0
100
AcDbSymbolTable
 70
     1
  0
STYLE
  5
11
330
3
100
AcDbSymbolTableRecord
100
AcDbTextStyleTableRecord
  2
STANDARD
 70
     0
 40
0.0
 41
1.0
 50
0.0
 71
     0
 42
0.2
  3
txt
  4

  0
ENDTAB
  0
TABLE
  2
VIEW
  5
6
330
0
100
AcDbSymbolTable
 70
     0
  0
ENDTAB
  0
TABLE
  2
UCS
  5
7
330
0
100
AcDbSymbolTable
 70
     0
  0
ENDTAB
  0
TABLE
  2
APPID
  5
9
330
0
100
AcDbSymbolTable
 70
     1
  0
APPID
  5
12
330
9
100
AcDbSymbolTableRecord
100
AcDbRegAppTableRecord
  2
ACAD
 70
     0
  0
ENDTAB
  0
TABLE
  2
DIMSTYLE
  5
A
330
0
100
AcDbSymbolTable
 70
     1
  0
DIMSTYLE
105
27
330
A
100
AcDbSymbolTableRecord
100
AcDbDimStyleTableRecord
  2
STANDARD
 70
     0
  3

  4

  5

  6

  7

 40
1.0
 41
0.18
 42
0.0625
 43
0.38
 44
0.18
 45
0.0
 46
0.0
 47
0.0
 48
0.0
140
0.18
141
0.09
142
0.0
143
25.4
144
1.0
145
0.0
146
1.0
147
0.09
 71
     0
 72
     0
 73
     1
 74
     1
 75
     0
 76
     0
 77
     0
 78
     0
170
     0
171
     2
172
     0
173
     0
174
     0
175
     0
176
     0
177
     0
178
     0
270
     2
271
     4
272
     4
273
     2
274
     2
340
11
275
     0
280
     0
281
     0
282
     0
283
     1
284
     0
285
     0
286
     0
287
     3
288
     0
  0
ENDTAB
  0
TABLE
  2
BLOCK_RECORD
  5
1
330
0
100
AcDbSymbolTable
 70
     1
  0
BLOCK_RECORD
  5
1F
330
1
100
AcDbSymbolTableRecord
100
AcDbBlockTableRecord
  2
*MODEL_SPACE
  0
BLOCK_RECORD
  5
1B
330
1
100
AcDbSymbolTableRecord
100
AcDbBlockTableRecord
  2
*PAPER_SPACE
  0
ENDTAB
  0
ENDSEC
  0
SECTION
  2
BLOCKS
  0
BLOCK
  5
20
330
1F
100
AcDbEntity
  8
0
100
AcDbBlockBegin
  2
*MODEL_SPACE
 70
     0
 10
0.0
 20
0.0
 30
0.0
  3
*MODEL_SPACE
  1

  0
ENDBLK
  5
21
330
1F
100
AcDbEntity
  8
0
100
AcDbBlockEnd
  0
BLOCK
  5
1C
330
1B
100
AcDbEntity
 67
     1
  8
0
100
AcDbBlockBegin
  2
*PAPER_SPACE
 70
     0
 10
0.0
 20
0.0
 30
0.0
  3
*PAPER_SPACE
  1

  0
ENDBLK
  5
1D
330
1B
100
AcDbEntity
 67
     1
  8
0
100
AcDbBlockEnd
  0
ENDSEC
  0
SECTION
  2
ENTITIES
  0
LINE
  5
6C
330
1F
100
AcDbEntity
  8
0
 62
   178
100
AcDbLine
 10
112.8468491130755
 20
-149.6826488497654
 30
0.0
 11
113.2610626706521
 21
-149.3648115983104
 31
0.0
  0
LINE
  5
6D
330
1F
100
AcDbEntity
  8
0
 62
   178
100
AcDbLine
 10
-266.2830932066402
 20
-149.364817332229
 30
0.0
 11
-265.8688796394701
 21
-149.6826545711609
 31
0.0
  0
LINE
  5
6E
330
1F
100
AcDbEntity
  8
0
 62
   178
100
AcDbLine
 10
41.65398203028401
 20
-47.80060769462921
 30
0.0
 11
41.84977131841949
 21
-47.80060769462907
 31
0.0
  0
LINE
  5
6F
330
1F
100
AcDbEntity
  8
0
 62
   178
100
AcDbLine
 10
130.9898013150609
 20
-46.87463282224162
 30
0.0
 11
131.052870752921
 21
-46.68883624039389
 31
0.0
  0
LINE
  5
70
330
1F
100
AcDbEntity
  8
0
 62
   178
100
AcDbLine
 10
155.9889841436794
 20
-157.9505987937464
 30
0.0
 11
155.9889842188889
 21
-160.9505987937463
 31
0.0
  0
LINE
  5
71
330
1F
100
AcDbEntity
  8
0
 62
   178
100
AcDbLine
 10
115.9889848532066
 20
-157.9505980307726
 30
0.0
 11
115.9889849284175
 21
-160.9505980307725
 31
0.0
  0
LINE
  5
72
330
1F
100
AcDbEntity
  8
0
 62
   178
100
AcDbLine
 10
-309.0110162278859
 20
-157.9506059665416
 30
0.0
 11
-309.0110161526754
 21
-160.9506053705208
 31
0.0
  0
LINE
  5
73
330
1F
100
AcDbEntity
  8
0
 62
   178
100
AcDbLine
 10
-269.0110151467871
 20
-157.9506038110682
 30
0.0
 11
-269.0110150715763
 21
-160.9505974396535
 31
0.0
  0
LINE
  5
74
330
1F
100
AcDbEntity
  8
0
 62
   178
100
AcDbLine
 10
-269.0110151467871
 20
-157.9506038110682
 30
0.0
 11
115.9889848532066
 21
-157.9505980307726
 31
0.0
  0
LINE
  5
75
330
1F
100
AcDbEntity
  8
0
 62
   178
100
AcDbLine
 10
155.9889789402089
 20
145.0494006102054
 30
0.0
 11
155.9889790154183
 21
142.0494006102054
 31
0.0
  0
LINE
  5
76
330
1F
100
AcDbEntity
  8
0
 62
   178
100
AcDbLine
 10
115.988979649736
 20
145.0494013731791
 30
0.0
 11
115.9889797334636
 21
142.0494013731792
 31
0.0
  0
LINE
  5
77
330
1F
100
AcDbEntity
  8
0
 62
   178
100
AcDbLine
 10
-309.0110214313567
 20
145.0493940334305
 30
0.0
 11
-309.0110213561466
 21
142.0494005887888
 31
0.0
  0
LINE
  5
78
330
1F
100
AcDbEntity
  8
0
 62
   178
100
AcDbLine
 10
-269.0110203502583
 20
145.0494019642989
 30
0.0
 11
-269.0110202750473
 21
142.0494019642983
 31
0.0
  0
LINE
  5
79
330
1F
100
AcDbEntity
  8
0
 62
   178
100
AcDbLine
 10
-309.0110196707528
 20
102.0494013600041
 30
0.0
 11
-312.0110196707528
 21
102.0494013191817
 31
0.0
  0
LINE
  5
7A
330
1F
100
AcDbEntity
  8
0
 62
   178
100
AcDbLine
 10
-309.0110213561466
 20
142.0494005887888
 30
0.0
 11
-312.0110209845755
 21
142.0494005479665
 31
0.0
  0
LINE
  5
7B
330
1F
100
AcDbEntity
  8
0
 62
   178
100
AcDbLine
 10
-309.0110162278859
 20
-157.9506059665416
 30
0.0
 11
-312.0110158563159
 21
-157.9505994520362
 31
0.0
  0
LINE
  5
7C
330
1F
100
AcDbEntity
  8
0
 62
   178
100
AcDbLine
 10
-309.0110157510831
 20
-117.9505986399986
 30
0.0
 11
-312.011015751083
 21
-117.950598680821
 31
0.0
  0
LINE
  5
7D
330
1F
100
AcDbEntity
  8
0
 62
   178
100
AcDbLine
 10
-309.0110196707528
 20
102.0494013600041
 30
0.0
 11
-309.0110157510831
 21
-117.9505986399986
 31
0.0
  0
LINE
  5
7E
330
1F
100
AcDbEntity
  8
0
 62
   178
100
AcDbLine
 10
158.9889803292414
 20
102.0494084302831
 30
0.0
 11
155.9889803292415
 21
102.0494083849362
 31
0.0
  0
LINE
  5
7F
330
1F
100
AcDbEntity
  8
0
 62
   178
100
AcDbLine
 10
158.9889790154202
 20
142.0494076590678
 30
0.0
 11
155.9889790154183
 21
142.0494006102054
 31
0.0
  0
LINE
  5
80
330
1F
100
AcDbEntity
  8
0
 62
   178
100
AcDbLine
 10
158.9889835443794
 20
-157.9505981523759
 30
0.0
 11
155.9889841436794
 21
-157.9505987937464
 31
0.0
  0
LINE
  5
81
330
1F
100
AcDbEntity
  8
0
 62
   178
100
AcDbLine
 10
158.9889836496107
 20
-117.9505973811615
 30
0.0
 11
155.9889836496107
 21
-117.9505974265084
 31
0.0
  0
LINE
  5
82
330
1F
100
AcDbEntity
  8
0
 62
   178
100
AcDbLine
 10
-269.0110202750473
 20
142.0494019642983
 30
0.0
 11
-309.0110196707528
 21
102.0494013600041
 31
0.0
  0
LINE
  5
83
330
1F
100
AcDbEntity
  8
0
 62
   178
100
AcDbLine
 10
-309.0110157510831
 20
-117.9505986399986
 30
0.0
 11
-269.0110151467871
 21
-157.9506038110682
 31
0.0
  0
LINE
  5
84
330
1F
100
AcDbEntity
  8
0
 62
   178
100
AcDbLine
 10
115.9889848532066
 20
-157.9505980307726
 30
0.0
 11
155.9889836496107
 21
-117.9505974265084
 31
0.0
  0
LINE
  5
85
330
1F
100
AcDbEntity
  8
0
 62
   178
100
AcDbLine
 10
155.9889836496107
 20
-117.9505974265084
 30
0.0
 11
155.9889803292415
 21
102.0494083849362
 31
0.0
  0
LINE
  5
86
330
1F
100
AcDbEntity
  8
0
 62
   178
100
AcDbLine
 10
115.9889797334636
 20
142.0494013731792
 30
0.0
 11
155.9889803292415
 21
102.0494083849362
 31
0.0
  0
LINE
  5
87
330
1F
100
AcDbEntity
  8
0
 62
   178
100
AcDbLine
 10
143.9889819995698
 20
-7.950598167763602
 30
0.0
 11
144.0571303391684
 21
-7.432960076529269
 31
0.0
  0
LINE
  5
88
330
1F
100
AcDbEntity
  8
0
 62
   178
100
AcDbLine
 10
144.0571303391684
 20
-7.432960076529269
 30
0.0
 11
144.256931176894
 21
-6.950598163714944
 31
0.0
  0
LINE
  5
89
330
1F
100
AcDbEntity
  8
0
 62
   178
100
AcDbLine
 10
144.256931176894
 20
-6.950598163714944
 30
0.0
 11
144.5747684158322
 21
-6.536384596541675
 31
0.0
  0
LINE
  5
8A
330
1F
100
AcDbEntity
  8
0
 62
   178
100
AcDbLine
 10
144.5747684158322
 20
-6.536384596541675
 30
0.0
 11
144.9889819734003
 21
-6.218547345089596
 31
0.0
  0
LINE
  5
8B
330
1F
100
AcDbEntity
  8
0
 62
   178
100
AcDbLine
 10
144.9889819734003
 20
-6.218547345089596
 30
0.0
 11
145.4713438801735
 21
-6.018746492791698
 31
0.0
  0
LINE
  5
8C
330
1F
100
AcDbEntity
  8
0
 62
   178
100
AcDbLine
 10
145.4713438801735
 20
-6.018746492791698
 30
0.0
 11
145.988981969349
 21
-5.950598137547958
 31
0.0
  0
LINE
  5
8D
330
1F
100
AcDbEntity
  8
0
 62
   178
100
AcDbLine
 10
145.988981969349
 20
-5.950598137547958
 30
0.0
 11
146.5066200605836
 21
-6.018746477149953
 31
0.0
  0
LINE
  5
8E
330
1F
100
AcDbEntity
  8
0
 62
   178
100
AcDbLine
 10
146.5066200605836
 20
-6.018746477149953
 30
0.0
 11
146.9889819734005
 21
-6.218547314873452
 31
0.0
  0
LINE
  5
8F
330
1F
100
AcDbEntity
  8
0
 62
   178
100
AcDbLine
 10
146.9889819734005
 20
-6.218547314873452
 30
0.0
 11
147.4031955405786
 21
-6.536384553810159
 31
0.0
  0
LINE
  5
90
330
1F
100
AcDbEntity
  8
0
 62
   178
100
AcDbLine
 10
147.4031955405786
 20
-6.536384553810159
 30
0.0
 11
147.7210327920319
 21
-6.950598111382954
 31
0.0
  0
LINE
  5
91
330
1F
100
AcDbEntity
  8
0
 62
   178
100
AcDbLine
 10
147.7210327920319
 20
-6.950598111382954
 30
0.0
 11
147.9208336443249
 21
-7.432960018158377
 31
0.0
  0
LINE
  5
92
330
1F
100
AcDbEntity
  8
0
 62
   178
100
AcDbLine
 10
147.9208336443249
 20
-7.432960018158377
 30
0.0
 11
147.9889819995699
 21
-7.950598107334066
 31
0.0
  0
LINE
  5
93
330
1F
100
AcDbEntity
  8
0
 62
   178
100
AcDbLine
 10
147.9889819995699
 20
-7.950598107334066
 30
0.0
 11
147.9208336599674
 21
-8.468236198568512
 31
0.0
  0
LINE
  5
94
330
1F
100
AcDbEntity
  8
0
 62
   178
100
AcDbLine
 10
147.9208336599674
 20
-8.468236198568512
 30
0.0
 11
147.7210328222399
 21
-8.950598111382092
 31
0.0
  0
LINE
  5
95
330
1F
100
AcDbEntity
  8
0
 62
   178
100
AcDbLine
 10
147.7210328222399
 20
-8.950598111382092
 30
0.0
 11
147.4031955833052
 21
-9.364811678557055
 31
0.0
  0
LINE
  5
96
330
1F
100
AcDbEntity
  8
0
 62
   178
100
AcDbLine
 10
147.4031955833052
 20
-9.364811678557055
 30
0.0
 11
146.9889820257369
 21
-9.682648930010554
 31
0.0
  0
LINE
  5
97
330
1F
100
AcDbEntity
  8
0
 62
   178
100
AcDbLine
 10
146.9889820257369
 20
-9.682648930010554
 30
0.0
 11
146.5066201189604
 21
-9.882449782307031
 31
0.0
  0
LINE
  5
98
330
1F
100
AcDbEntity
  8
0
 62
   178
100
AcDbLine
 10
146.5066201189604
 20
-9.882449782307031
 30
0.0
 11
145.9889820297848
 21
-9.950598137548695
 31
0.0
  0
LINE
  5
99
330
1F
100
AcDbEntity
  8
0
 62
   178
100
AcDbLine
 10
145.9889820297848
 20
-9.950598137548695
 30
0.0
 11
145.4713439385502
 21
-9.882449797947128
 31
0.0
  0
LINE
  5
9A
330
1F
100
AcDbEntity
  8
0
 62
   178
100
AcDbLine
 10
145.4713439385502
 20
-9.882449797947128
 30
0.0
 11
144.9889820257367
 21
-9.682648960225412
 31
0.0
  0
LINE
  5
9B
330
1F
100
AcDbEntity
  8
0
 62
   178
100
AcDbLine
 10
144.9889820257367
 20
-9.682648960225412
 30
0.0
 11
144.5747684585589
 21
-9.364811721286744
 31
0.0
  0
LINE
  5
9C
330
1F
100
AcDbEntity
  8
0
 62
   178
100
AcDbLine
 10
144.5747684585589
 20
-9.364811721286744
 30
0.0
 11
144.256931207102
 21
-8.95059816371582
 31
0.0
  0
LINE
  5
9D
330
1F
100
AcDbEntity
  8
0
 62
   178
100
AcDbLine
 10
144.256931207102
 20
-8.95059816371582
 30
0.0
 11
144.0571303548109
 21
-8.468236256939406
 31
0.0
  0
LINE
  5
9E
330
1F
100
AcDbEntity
  8
0
 62
   178
100
AcDbLine
 10
144.0571303548109
 20
-8.468236256939406
 30
0.0
 11
143.9889819995698
 21
-7.950598167763602
 31
0.0
  0
LINE
  5
9F
330
1F
100
AcDbEntity
  8
0
 62
   178
100
AcDbLine
 10
-76.51102008525007
 20
130.0493985010587
 30
0.0
 11
-77.02865817648475
 21
130.1175468406605
 31
0.0
  0
LINE
  5
A0
330
1F
100
AcDbEntity
  8
0
 62
   178
100
AcDbLine
 10
-77.02865817648475
 20
130.1175468406605
 30
0.0
 11
-77.51102008929796
 21
130.3173476783843
 31
0.0
  0
LINE
  5
A1
330
1F
100
AcDbEntity
  8
0
 62
   178
100
AcDbLine
 10
-77.51102008929796
 20
130.3173476783843
 30
0.0
 11
-77.92523365647732
 21
130.6351849173209
 31
0.0
  0
LINE
  5
A2
330
1F
100
AcDbEntity
  8
0
 62
   178
100
AcDbLine
 10
-77.92523365647732
 20
130.6351849173209
 30
0.0
 11
-78.24307090792836
 21
131.0493984748934
 31
0.0
  0
LINE
  5
A3
330
1F
100
AcDbEntity
  8
0
 62
   178
100
AcDbLine
 10
-78.24307090792836
 20
131.0493984748934
 30
0.0
 11
-78.4428717602258
 21
131.5317603816693
 31
0.0
  0
LINE
  5
A4
330
1F
100
AcDbEntity
  8
0
 62
   178
100
AcDbLine
 10
-78.4428717602258
 20
131.5317603816693
 30
0.0
 11
-78.51102011546594
 21
132.0493984708452
 31
0.0
  0
LINE
  5
A5
330
1F
100
AcDbEntity
  8
0
 62
   178
100
AcDbLine
 10
-78.51102011546594
 20
132.0493984708452
 30
0.0
 11
-78.44287177586601
 21
132.5670365620793
 31
0.0
  0
LINE
  5
A6
330
1F
100
AcDbEntity
  8
0
 62
   178
100
AcDbLine
 10
-78.44287177586601
 20
132.5670365620793
 30
0.0
 11
-78.24307093814153
 21
133.0493984748933
 31
0.0
  0
LINE
  5
A7
330
1F
100
AcDbEntity
  8
0
 62
   178
100
AcDbLine
 10
-78.24307093814153
 20
133.0493984748933
 30
0.0
 11
-77.9252336992031
 21
133.463612042067
 31
0.0
  0
LINE
  5
A8
330
1F
100
AcDbEntity
  8
0
 62
   178
100
AcDbLine
 10
-77.9252336992031
 20
133.463612042067
 30
0.0
 11
-77.51102014163635
 21
133.781449293522
 31
0.0
  0
LINE
  5
A9
330
1F
100
AcDbEntity
  8
0
 62
   178
100
AcDbLine
 10
-77.51102014163635
 20
133.781449293522
 30
0.0
 11
-77.02865823485725
 21
133.9812501458169
 31
0.0
  0
LINE
  5
AA
330
1F
100
AcDbEntity
  8
0
 62
   178
100
AcDbLine
 10
-77.02865823485725
 20
133.9812501458169
 30
0.0
 11
-76.51102014568163
 21
134.0493985010587
 31
0.0
  0
LINE
  5
AB
330
1F
100
AcDbEntity
  8
0
 62
   178
100
AcDbLine
 10
-76.51102014568163
 20
134.0493985010587
 30
0.0
 11
-75.99338205444711
 21
133.9812501614581
 31
0.0
  0
LINE
  5
AC
330
1F
100
AcDbEntity
  8
0
 62
   178
100
AcDbLine
 10
-75.99338205444711
 20
133.9812501614581
 30
0.0
 11
-75.51102014163645
 21
133.7814493237359
 31
0.0
  0
LINE
  5
AD
330
1F
100
AcDbEntity
  8
0
 62
   178
100
AcDbLine
 10
-75.51102014163645
 20
133.7814493237359
 30
0.0
 11
-75.09680657445709
 21
133.4636120847981
 31
0.0
  0
LINE
  5
AE
330
1F
100
AcDbEntity
  8
0
 62
   178
100
AcDbLine
 10
-75.09680657445709
 20
133.4636120847981
 30
0.0
 11
-74.77896932300361
 21
133.0493985272258
 31
0.0
  0
LINE
  5
AF
330
1F
100
AcDbEntity
  8
0
 62
   178
100
AcDbLine
 10
-74.77896932300361
 20
133.0493985272258
 30
0.0
 11
-74.57916847070896
 21
132.5670366204505
 31
0.0
  0
LINE
  5
B0
330
1F
100
AcDbEntity
  8
0
 62
   178
100
AcDbLine
 10
-74.57916847070896
 20
132.5670366204505
 30
0.0
 11
-74.51102011546521
 21
132.049398531275
 31
0.0
  0
LINE
  5
B1
330
1F
100
AcDbEntity
  8
0
 62
   178
100
AcDbLine
 10
-74.51102011546521
 20
132.049398531275
 30
0.0
 11
-74.57916845506875
 21
131.5317604400406
 31
0.0
  0
LINE
  5
B2
330
1F
100
AcDbEntity
  8
0
 62
   178
100
AcDbLine
 10
-74.57916845506875
 20
131.5317604400406
 30
0.0
 11
-74.77896929279045
 21
131.0493985272259
 31
0.0
  0
LINE
  5
B3
330
1F
100
AcDbEntity
  8
0
 62
   178
100
AcDbLine
 10
-74.77896929279045
 20
131.0493985272259
 30
0.0
 11
-75.0968065317313
 21
130.6351849600519
 31
0.0
  0
LINE
  5
B4
330
1F
100
AcDbEntity
  8
0
 62
   178
100
AcDbLine
 10
-75.0968065317313
 20
130.6351849600519
 30
0.0
 11
-75.51102008929804
 21
130.3173477085975
 31
0.0
  0
LINE
  5
B5
330
1F
100
AcDbEntity
  8
0
 62
   178
100
AcDbLine
 10
-75.51102008929804
 20
130.3173477085975
 30
0.0
 11
-75.99338199607462
 21
130.1175468563019
 31
0.0
  0
LINE
  5
B6
330
1F
100
AcDbEntity
  8
0
 62
   178
100
AcDbLine
 10
-75.99338199607462
 20
130.1175468563019
 30
0.0
 11
-76.51102008525007
 21
130.0493985010587
 31
0.0
  0
LINE
  5
B7
330
1F
100
AcDbEntity
  8
0
 62
   178
100
AcDbLine
 10
-74.51101528935365
 20
-147.9506008726819
 30
0.0
 11
-74.57916362896097
 21
-148.4682389639167
 31
0.0
  0
LINE
  5
B8
330
1F
100
AcDbEntity
  8
0
 62
   178
100
AcDbLine
 10
-74.57916362896097
 20
-148.4682389639167
 30
0.0
 11
-74.77896446668302
 21
-148.9506008767299
 31
0.0
  0
LINE
  5
B9
330
1F
100
AcDbEntity
  8
0
 62
   178
100
AcDbLine
 10
-74.77896446668302
 20
-148.9506008767299
 30
0.0
 11
-75.09680170561522
 21
-149.3648144439045
 31
0.0
  0
LINE
  5
BA
330
1F
100
AcDbEntity
  8
0
 62
   178
100
AcDbLine
 10
-75.09680170561522
 20
-149.3648144439045
 30
0.0
 11
-75.51101526318648
 21
-149.6826516953583
 31
0.0
  0
LINE
  5
BB
330
1F
100
AcDbEntity
  8
0
 62
   178
100
AcDbLine
 10
-75.51101526318648
 20
-149.6826516953583
 30
0.0
 11
-75.99337716996341
 21
-149.8824525476545
 31
0.0
  0
LINE
  5
BC
330
1F
100
AcDbEntity
  8
0
 62
   178
100
AcDbLine
 10
-75.99337716996341
 20
-149.8824525476545
 30
0.0
 11
-76.51101525913921
 21
-149.950600902897
 31
0.0
  0
LINE
  5
BD
330
1F
100
AcDbEntity
  8
0
 62
   178
100
AcDbLine
 10
-76.51101525913921
 20
-149.950600902897
 30
0.0
 11
-77.02865335037355
 21
-149.8824525632951
 31
0.0
  0
LINE
  5
BE
330
1F
100
AcDbEntity
  8
0
 62
   178
100
AcDbLine
 10
-77.02865335037355
 20
-149.8824525632951
 30
0.0
 11
-77.51101526318656
 21
-149.6826517255732
 31
0.0
  0
LINE
  5
BF
330
1F
100
AcDbEntity
  8
0
 62
   178
100
AcDbLine
 10
-77.51101526318656
 20
-149.6826517255732
 30
0.0
 11
-77.92522883036159
 21
-149.3648144866349
 31
0.0
  0
LINE
  5
C0
330
1F
100
AcDbEntity
  8
0
 62
   178
100
AcDbLine
 10
-77.92522883036159
 20
-149.3648144866349
 30
0.0
 11
-78.24306608182093
 21
-148.9506009290632
 31
0.0
  0
LINE
  5
C1
330
1F
100
AcDbEntity
  8
0
 62
   178
100
AcDbLine
 10
-78.24306608182093
 20
-148.9506009290632
 30
0.0
 11
-78.44286693411838
 21
-148.4682390222867
 31
0.0
  0
LINE
  5
C2
330
1F
100
AcDbEntity
  8
0
 62
   178
100
AcDbLine
 10
-78.44286693411838
 20
-148.4682390222867
 30
0.0
 11
-78.51101528935472
 21
-147.9506009331116
 31
0.0
  0
LINE
  5
C3
330
1F
100
AcDbEntity
  8
0
 62
   178
100
AcDbLine
 10
-78.51101528935472
 20
-147.9506009331116
 30
0.0
 11
-78.44286694975895
 21
-147.4329628418766
 31
0.0
  0
LINE
  5
C4
330
1F
100
AcDbEntity
  8
0
 62
   178
100
AcDbLine
 10
-78.44286694975895
 20
-147.4329628418766
 30
0.0
 11
-78.2430661120296
 21
-146.9506009290631
 31
0.0
  0
LINE
  5
C5
330
1F
100
AcDbEntity
  8
0
 62
   178
100
AcDbLine
 10
-78.2430661120296
 20
-146.9506009290631
 30
0.0
 11
-77.92522887309153
 21
-146.5363873618888
 31
0.0
  0
LINE
  5
C6
330
1F
100
AcDbEntity
  8
0
 62
   178
100
AcDbLine
 10
-77.92522887309153
 20
-146.5363873618888
 30
0.0
 11
-77.51101531552027
 21
-146.2185501104352
 31
0.0
  0
LINE
  5
C7
330
1F
100
AcDbEntity
  8
0
 62
   178
100
AcDbLine
 10
-77.51101531552027
 20
-146.2185501104352
 30
0.0
 11
-77.02865340874956
 21
-146.0187492581385
 31
0.0
  0
LINE
  5
C8
330
1F
100
AcDbEntity
  8
0
 62
   178
100
AcDbLine
 10
-77.02865340874956
 20
-146.0187492581385
 30
0.0
 11
-76.51101531957438
 21
-145.9506009028967
 31
0.0
  0
LINE
  5
C9
330
1F
100
AcDbEntity
  8
0
 62
   178
100
AcDbLine
 10
-76.51101531957438
 20
-145.9506009028967
 30
0.0
 11
-75.99337722833943
 21
-146.0187492424978
 31
0.0
  0
LINE
  5
CA
330
1F
100
AcDbEntity
  8
0
 62
   178
100
AcDbLine
 10
-75.99337722833943
 20
-146.0187492424978
 30
0.0
 11
-75.51101531552018
 21
-146.2185500802204
 31
0.0
  0
LINE
  5
CB
330
1F
100
AcDbEntity
  8
0
 62
   178
100
AcDbLine
 10
-75.51101531552018
 20
-146.2185500802204
 30
0.0
 11
-75.09680174834516
 21
-146.5363873191581
 31
0.0
  0
LINE
  5
CC
330
1F
100
AcDbEntity
  8
0
 62
   178
100
AcDbLine
 10
-75.09680174834516
 20
-146.5363873191581
 30
0.0
 11
-74.77896449689167
 21
-146.9506008767298
 31
0.0
  0
LINE
  5
CD
330
1F
100
AcDbEntity
  8
0
 62
   178
100
AcDbLine
 10
-74.77896449689167
 20
-146.9506008767298
 30
0.0
 11
-74.57916364460154
 21
-147.4329627835066
 31
0.0
  0
LINE
  5
CE
330
1F
100
AcDbEntity
  8
0
 62
   178
100
AcDbLine
 10
-74.57916364460154
 20
-147.4329627835066
 30
0.0
 11
-74.51101528935365
 21
-147.9506008726819
 31
0.0
  0
LINE
  5
CF
330
1F
100
AcDbEntity
  8
0
 62
   178
100
AcDbLine
 10
-297.0110158051577
 20
-113.8084686103434
 30
0.0
 11
-297.0791641447561
 21
-114.3261067015777
 31
0.0
  0
LINE
  5
D0
330
1F
100
AcDbEntity
  8
0
 62
   178
100
AcDbLine
 10
-297.0791641447561
 20
-114.3261067015777
 30
0.0
 11
-297.2789649824859
 21
-114.8084686143913
 31
0.0
  0
LINE
  5
D1
330
1F
100
AcDbEntity
  8
0
 62
   178
100
AcDbLine
 10
-297.2789649824859
 20
-114.8084686143913
 30
0.0
 11
-297.5968022214224
 21
-115.2226821815656
 31
0.0
  0
LINE
  5
D2
330
1F
100
AcDbEntity
  8
0
 62
   178
100
AcDbLine
 10
-297.5968022214224
 20
-115.2226821815656
 30
0.0
 11
-298.0110157789908
 21
-115.5405194330199
 31
0.0
  0
LINE
  5
D3
330
1F
100
AcDbEntity
  8
0
 62
   178
100
AcDbLine
 10
-298.0110157789908
 20
-115.5405194330199
 30
0.0
 11
-298.4933776857673
 21
-115.7403202853157
 31
0.0
  0
LINE
  5
D4
330
1F
100
AcDbEntity
  8
0
 62
   178
100
AcDbLine
 10
-298.4933776857673
 20
-115.7403202853157
 30
0.0
 11
-299.0110157749425
 21
-115.808468640558
 31
0.0
  0
LINE
  5
D5
330
1F
100
AcDbEntity
  8
0
 62
   178
100
AcDbLine
 10
-299.0110157749425
 20
-115.808468640558
 30
0.0
 11
-299.5286538661775
 21
-115.7403203009563
 31
0.0
  0
LINE
  5
D6
330
1F
100
AcDbEntity
  8
0
 62
   178
100
AcDbLine
 10
-299.5286538661775
 20
-115.7403203009563
 30
0.0
 11
-300.0110157789907
 21
-115.5405194632344
 31
0.0
  0
LINE
  5
D7
330
1F
100
AcDbEntity
  8
0
 62
   178
100
AcDbLine
 10
-300.0110157789907
 20
-115.5405194632344
 30
0.0
 11
-300.4252293461687
 21
-115.2226822242962
 31
0.0
  0
LINE
  5
D8
330
1F
100
AcDbEntity
  8
0
 62
   178
100
AcDbLine
 10
-300.4252293461687
 20
-115.2226822242962
 30
0.0
 11
-300.7430665976235
 21
-114.8084686667245
 31
0.0
  0
LINE
  5
D9
330
1F
100
AcDbEntity
  8
0
 62
   178
100
AcDbLine
 10
-300.7430665976235
 20
-114.8084686667245
 30
0.0
 11
-300.9428674499126
 21
-114.3261067599477
 31
0.0
  0
LINE
  5
DA
330
1F
100
AcDbEntity
  8
0
 62
   178
100
AcDbLine
 10
-300.9428674499126
 20
-114.3261067599477
 30
0.0
 11
-301.0110158051576
 21
-113.8084686707726
 31
0.0
  0
LINE
  5
DB
330
1F
100
AcDbEntity
  8
0
 62
   178
100
AcDbLine
 10
-301.0110158051576
 20
-113.8084686707726
 30
0.0
 11
-300.9428674655605
 21
-113.2908305795378
 31
0.0
  0
LINE
  5
DC
330
1F
100
AcDbEntity
  8
0
 62
   178
100
AcDbLine
 10
-300.9428674655605
 20
-113.2908305795378
 30
0.0
 11
-300.7430666278334
 21
-112.8084686667243
 31
0.0
  0
LINE
  5
DD
330
1F
100
AcDbEntity
  8
0
 62
   178
100
AcDbLine
 10
-300.7430666278334
 20
-112.8084686667243
 30
0.0
 11
-300.4252293888956
 21
-112.3942550995501
 31
0.0
  0
LINE
  5
DE
330
1F
100
AcDbEntity
  8
0
 62
   178
100
AcDbLine
 10
-300.4252293888956
 20
-112.3942550995501
 30
0.0
 11
-300.0110158313275
 21
-112.0764178480968
 31
0.0
  0
LINE
  5
DF
330
1F
100
AcDbEntity
  8
0
 62
   178
100
AcDbLine
 10
-300.0110158313275
 20
-112.0764178480968
 30
0.0
 11
-299.528653924552
 21
-111.8766169958001
 31
0.0
  0
LINE
  5
E0
330
1F
100
AcDbEntity
  8
0
 62
   178
100
AcDbLine
 10
-299.528653924552
 20
-111.8766169958001
 30
0.0
 11
-299.0110158353769
 21
-111.8084686405583
 31
0.0
  0
LINE
  5
E1
330
1F
100
AcDbEntity
  8
0
 62
   178
100
AcDbLine
 10
-299.0110158353769
 20
-111.8084686405583
 30
0.0
 11
-298.4933777441419
 21
-111.8766169801595
 31
0.0
  0
LINE
  5
E2
330
1F
100
AcDbEntity
  8
0
 62
   178
100
AcDbLine
 10
-298.4933777441419
 20
-111.8766169801595
 30
0.0
 11
-298.0110158313273
 21
-112.0764178178821
 31
0.0
  0
LINE
  5
E3
330
1F
100
AcDbEntity
  8
0
 62
   178
100
AcDbLine
 10
-298.0110158313273
 20
-112.0764178178821
 30
0.0
 11
-297.5968022641492
 21
-112.3942550568194
 31
0.0
  0
LINE
  5
E4
330
1F
100
AcDbEntity
  8
0
 62
   178
100
AcDbLine
 10
-297.5968022641492
 20
-112.3942550568194
 30
0.0
 11
-297.2789650126959
 21
-112.8084686143913
 31
0.0
  0
LINE
  5
E5
330
1F
100
AcDbEntity
  8
0
 62
   178
100
AcDbLine
 10
-297.2789650126959
 20
-112.8084686143913
 30
0.0
 11
-297.079164160404
 21
-113.2908305211678
 31
0.0
  0
LINE
  5
E6
330
1F
100
AcDbEntity
  8
0
 62
   178
100
AcDbLine
 10
-297.079164160404
 20
-113.2908305211678
 30
0.0
 11
-297.0110158051577
 21
-113.8084686103434
 31
0.0
  0
LINE
  5
E7
330
1F
100
AcDbEntity
  8
0
 62
   178
100
AcDbLine
 10
-262.8688796656307
 20
-147.9506037182765
 30
0.0
 11
-262.9370280052293
 21
-148.4682418095108
 31
0.0
  0
LINE
  5
E8
330
1F
100
AcDbEntity
  8
0
 62
   178
100
AcDbLine
 10
-262.9370280052293
 20
-148.4682418095108
 30
0.0
 11
-263.1368288429456
 21
-148.9506037223241
 31
0.0
  0
LINE
  5
E9
330
1F
100
AcDbEntity
  8
0
 62
   178
100
AcDbLine
 10
-263.1368288429456
 20
-148.9506037223241
 30
0.0
 11
-263.4546660818942
 21
-149.3648172894993
 31
0.0
  0
LINE
  5
EA
330
1F
100
AcDbEntity
  8
0
 62
   178
100
AcDbLine
 10
-263.4546660818942
 20
-149.3648172894993
 30
0.0
 11
-263.8688796394612
 21
-149.6826545409529
 31
0.0
  0
LINE
  5
EB
330
1F
100
AcDbEntity
  8
0
 62
   178
100
AcDbLine
 10
-263.8688796394612
 20
-149.6826545409529
 30
0.0
 11
-264.3512415462374
 21
-149.8824553932488
 31
0.0
  0
LINE
  5
EC
330
1F
100
AcDbEntity
  8
0
 62
   178
100
AcDbLine
 10
-264.3512415462374
 20
-149.8824553932488
 30
0.0
 11
-264.8688796354126
 21
-149.9506037484913
 31
0.0
  0
LINE
  5
ED
330
1F
100
AcDbEntity
  8
0
 62
   178
100
AcDbLine
 10
-264.8688796354126
 20
-149.9506037484913
 30
0.0
 11
-265.3865177266475
 21
-149.8824554088892
 31
0.0
  0
LINE
  5
EE
330
1F
100
AcDbEntity
  8
0
 62
   178
100
AcDbLine
 10
-265.3865177266475
 20
-149.8824554088892
 30
0.0
 11
-265.8688796394701
 21
-149.6826545711609
 31
0.0
  0
LINE
  5
EF
330
1F
100
AcDbEntity
  8
0
 62
   178
100
AcDbLine
 10
-266.2830932066402
 20
-149.364817332229
 30
0.0
 11
-266.6009304580835
 21
-148.9506037746581
 31
0.0
  0
LINE
  5
F0
330
1F
100
AcDbEntity
  8
0
 62
   178
100
AcDbLine
 10
-266.6009304580835
 20
-148.9506037746581
 30
0.0
 11
-266.8007313103854
 21
-148.4682418678815
 31
0.0
  0
LINE
  5
F1
330
1F
100
AcDbEntity
  8
0
 62
   178
100
AcDbLine
 10
-266.8007313103854
 20
-148.4682418678815
 30
0.0
 11
-266.8688796656309
 21
-147.950603778706
 31
0.0
  0
LINE
  5
F2
330
1F
100
AcDbEntity
  8
0
 62
   178
100
AcDbLine
 10
-266.8688796656309
 20
-147.950603778706
 30
0.0
 11
-266.8007313260233
 21
-147.4329656874715
 31
0.0
  0
LINE
  5
F3
330
1F
100
AcDbEntity
  8
0
 62
   178
100
AcDbLine
 10
-266.8007313260233
 20
-147.4329656874715
 30
0.0
 11
-266.6009304883042
 21
-146.9506037746575
 31
0.0
  0
LINE
  5
F4
330
1F
100
AcDbEntity
  8
0
 62
   178
100
AcDbLine
 10
-266.6009304883042
 20
-146.9506037746575
 30
0.0
 11
-266.2830932493659
 21
-146.5363902074826
 31
0.0
  0
LINE
  5
F5
330
1F
100
AcDbEntity
  8
0
 62
   178
100
AcDbLine
 10
-266.2830932493659
 20
-146.5363902074826
 30
0.0
 11
-265.868879691799
 21
-146.2185529560299
 31
0.0
  0
LINE
  5
F6
330
1F
100
AcDbEntity
  8
0
 62
   178
100
AcDbLine
 10
-265.868879691799
 20
-146.2185529560299
 30
0.0
 11
-265.3865177850221
 21
-146.0187521037328
 31
0.0
  0
LINE
  5
F7
330
1F
100
AcDbEntity
  8
0
 62
   178
100
AcDbLine
 10
-265.3865177850221
 20
-146.0187521037328
 30
0.0
 11
-264.8688796958469
 21
-145.9506037484913
 31
0.0
  0
LINE
  5
F8
330
1F
100
AcDbEntity
  8
0
 62
   178
100
AcDbLine
 10
-264.8688796958469
 20
-145.9506037484913
 30
0.0
 11
-264.3512416046119
 21
-146.0187520880923
 31
0.0
  0
LINE
  5
F9
330
1F
100
AcDbEntity
  8
0
 62
   178
100
AcDbLine
 10
-264.3512416046119
 20
-146.0187520880923
 30
0.0
 11
-263.8688796917991
 21
-146.2185529258151
 31
0.0
  0
LINE
  5
FA
330
1F
100
AcDbEntity
  8
0
 62
   178
100
AcDbLine
 10
-263.8688796917991
 20
-146.2185529258151
 30
0.0
 11
-263.4546661246199
 21
-146.5363901647529
 31
0.0
  0
LINE
  5
FB
330
1F
100
AcDbEntity
  8
0
 62
   178
100
AcDbLine
 10
-263.4546661246199
 20
-146.5363901647529
 30
0.0
 11
-263.1368288731662
 21
-146.950603722324
 31
0.0
  0
LINE
  5
FC
330
1F
100
AcDbEntity
  8
0
 62
   178
100
AcDbLine
 10
-263.1368288731662
 20
-146.950603722324
 30
0.0
 11
-262.937028020864
 21
-147.4329656291009
 31
0.0
  0
LINE
  5
FD
330
1F
100
AcDbEntity
  8
0
 62
   178
100
AcDbLine
 10
-262.937028020864
 20
-147.4329656291009
 30
0.0
 11
-262.8688796656307
 21
-147.9506037182765
 31
0.0
  0
LINE
  5
FE
330
1F
100
AcDbEntity
  8
0
 62
   178
100
AcDbLine
 10
-297.0110195996783
 20
97.9072595461512
 30
0.0
 11
-297.0791679392794
 21
97.38962145491664
 31
0.0
  0
LINE
  5
FF
330
1F
100
AcDbEntity
  8
0
 62
   178
100
AcDbLine
 10
-297.0791679392794
 20
97.38962145491664
 30
0.0
 11
-297.2789687769954
 21
96.9072595421033
 31
0.0
  0
LINE
  5
100
330
1F
100
AcDbEntity
  8
0
 62
   178
100
AcDbLine
 10
-297.2789687769954
 20
96.9072595421033
 30
0.0
 11
-297.5968060159365
 21
96.49304597492687
 31
0.0
  0
LINE
  5
101
330
1F
100
AcDbEntity
  8
0
 62
   178
100
AcDbLine
 10
-297.5968060159365
 20
96.49304597492687
 30
0.0
 11
-298.011019573511
 21
96.17520872347511
 31
0.0
  0
LINE
  5
102
330
1F
100
AcDbEntity
  8
0
 62
   178
100
AcDbLine
 10
-298.011019573511
 20
96.17520872347511
 30
0.0
 11
-298.4933814802879
 21
95.97540787117703
 31
0.0
  0
LINE
  5
103
330
1F
100
AcDbEntity
  8
0
 62
   178
100
AcDbLine
 10
-298.4933814802879
 20
95.97540787117703
 30
0.0
 11
-299.011019569463
 21
95.90725951593501
 31
0.0
  0
LINE
  5
104
330
1F
100
AcDbEntity
  8
0
 62
   178
100
AcDbLine
 10
-299.011019569463
 20
95.90725951593501
 30
0.0
 11
-299.528657660698
 21
95.9754078555384
 31
0.0
  0
LINE
  5
105
330
1F
100
AcDbEntity
  8
0
 62
   178
100
AcDbLine
 10
-299.528657660698
 20
95.9754078555384
 30
0.0
 11
-300.0110195735109
 21
96.17520869326019
 31
0.0
  0
LINE
  5
106
330
1F
100
AcDbEntity
  8
0
 62
   178
100
AcDbLine
 10
-300.0110195735109
 20
96.17520869326019
 30
0.0
 11
-300.4252331406829
 21
96.49304593219843
 31
0.0
  0
LINE
  5
107
330
1F
100
AcDbEntity
  8
0
 62
   178
100
AcDbLine
 10
-300.4252331406829
 20
96.49304593219843
 30
0.0
 11
-300.7430703921329
 21
96.90725948976811
 31
0.0
  0
LINE
  5
108
330
1F
100
AcDbEntity
  8
0
 62
   178
100
AcDbLine
 10
-300.7430703921329
 20
96.90725948976811
 30
0.0
 11
-300.9428712444359
 21
97.3896213965468
 31
0.0
  0
LINE
  5
109
330
1F
100
AcDbEntity
  8
0
 62
   178
100
AcDbLine
 10
-300.9428712444359
 20
97.3896213965468
 30
0.0
 11
-301.0110195996781
 21
97.90725948572157
 31
0.0
  0
LINE
  5
10A
330
1F
100
AcDbEntity
  8
0
 62
   178
100
AcDbLine
 10
-301.0110195996781
 20
97.90725948572157
 30
0.0
 11
-300.9428712600703
 21
98.42489757695694
 31
0.0
  0
LINE
  5
10B
330
1F
100
AcDbEntity
  8
0
 62
   178
100
AcDbLine
 10
-300.9428712600703
 20
98.42489757695694
 30
0.0
 11
-300.743070422354
 21
98.9072594897682
 31
0.0
  0
LINE
  5
10C
330
1F
100
AcDbEntity
  8
0
 62
   178
100
AcDbLine
 10
-300.743070422354
 20
98.9072594897682
 30
0.0
 11
-300.4252331834161
 21
99.32147305694525
 31
0.0
  0
LINE
  5
10D
330
1F
100
AcDbEntity
  8
0
 62
   178
100
AcDbLine
 10
-300.4252331834161
 20
99.32147305694525
 30
0.0
 11
-300.0110196258417
 21
99.63931030839792
 31
0.0
  0
LINE
  5
10E
330
1F
100
AcDbEntity
  8
0
 62
   178
100
AcDbLine
 10
-300.0110196258417
 20
99.63931030839792
 30
0.0
 11
-299.5286577190619
 21
99.83911116069473
 31
0.0
  0
LINE
  5
10F
330
1F
100
AcDbEntity
  8
0
 62
   178
100
AcDbLine
 10
-299.5286577190619
 20
99.83911116069473
 30
0.0
 11
-299.0110196298867
 21
99.9072595159351
 31
0.0
  0
LINE
  5
110
330
1F
100
AcDbEntity
  8
0
 62
   178
100
AcDbLine
 10
-299.0110196298867
 20
99.9072595159351
 30
0.0
 11
-298.4933815386517
 21
99.83911117633336
 31
0.0
  0
LINE
  5
111
330
1F
100
AcDbEntity
  8
0
 62
   178
100
AcDbLine
 10
-298.4933815386517
 20
99.83911117633336
 30
0.0
 11
-298.0110196258414
 21
99.6393103386133
 31
0.0
  0
LINE
  5
112
330
1F
100
AcDbEntity
  8
0
 62
   178
100
AcDbLine
 10
-298.0110196258414
 20
99.6393103386133
 30
0.0
 11
-297.5968060586697
 21
99.32147309967307
 31
0.0
  0
LINE
  5
113
330
1F
100
AcDbEntity
  8
0
 62
   178
100
AcDbLine
 10
-297.5968060586697
 20
99.32147309967307
 30
0.0
 11
-297.2789688072164
 21
98.90725954210339
 31
0.0
  0
LINE
  5
114
330
1F
100
AcDbEntity
  8
0
 62
   178
100
AcDbLine
 10
-297.2789688072164
 20
98.90725954210339
 30
0.0
 11
-297.0791679549138
 21
98.42489763532677
 31
0.0
  0
LINE
  5
115
330
1F
100
AcDbEntity
  8
0
 62
   178
100
AcDbLine
 10
-297.0791679549138
 20
98.42489763532677
 30
0.0
 11
-297.0110195996783
 21
97.9072595461512
 31
0.0
  0
LINE
  5
116
330
1F
100
AcDbEntity
  8
0
 62
   178
100
AcDbLine
 10
145.9889804305474
 20
95.90726623872062
 30
0.0
 11
145.4713423393097
 21
95.97541457832247
 31
0.0
  0
LINE
  5
117
330
1F
100
AcDbEntity
  8
0
 62
   178
100
AcDbLine
 10
145.4713423393097
 20
95.97541457832247
 30
0.0
 11
144.9889804265017
 21
96.17521541604589
 31
0.0
  0
LINE
  5
118
330
1F
100
AcDbEntity
  8
0
 62
   178
100
AcDbLine
 10
144.9889804265017
 20
96.17521541604589
 30
0.0
 11
144.5747668593282
 21
96.49305265498263
 31
0.0
  0
LINE
  5
119
330
1F
100
AcDbEntity
  8
0
 62
   178
100
AcDbLine
 10
144.5747668593282
 20
96.49305265498263
 30
0.0
 11
144.2569296078711
 21
96.90726621255534
 31
0.0
  0
LINE
  5
11A
330
1F
100
AcDbEntity
  8
0
 62
   178
100
AcDbLine
 10
144.2569296078711
 20
96.90726621255534
 30
0.0
 11
144.0571287555715
 21
97.38962811933281
 31
0.0
  0
LINE
  5
11B
330
1F
100
AcDbEntity
  8
0
 62
   178
100
AcDbLine
 10
144.0571287555715
 20
97.38962811933281
 30
0.0
 11
143.9889804003359
 21
97.90726620850808
 31
0.0
  0
LINE
  5
11C
330
1F
100
AcDbEntity
  8
0
 62
   178
100
AcDbLine
 10
143.9889804003359
 20
97.90726620850808
 30
0.0
 11
144.0571287399311
 21
98.42490429974295
 31
0.0
  0
LINE
  5
11D
330
1F
100
AcDbEntity
  8
0
 62
   178
100
AcDbLine
 10
144.0571287399311
 20
98.42490429974295
 30
0.0
 11
144.2569295776535
 21
98.90726621255543
 31
0.0
  0
LINE
  5
11E
330
1F
100
AcDbEntity
  8
0
 62
   178
100
AcDbLine
 10
144.2569295776535
 20
98.90726621255543
 30
0.0
 11
144.5747668165968
 21
99.32147977972883
 31
0.0
  0
LINE
  5
11F
330
1F
100
AcDbEntity
  8
0
 62
   178
100
AcDbLine
 10
144.5747668165968
 20
99.32147977972883
 30
0.0
 11
144.9889803741694
 21
99.63931703118362
 31
0.0
  0
LINE
  5
120
330
1F
100
AcDbEntity
  8
0
 62
   178
100
AcDbLine
 10
144.9889803741694
 20
99.63931703118362
 30
0.0
 11
145.4713422809455
 21
99.8391178834789
 31
0.0
  0
LINE
  5
121
330
1F
100
AcDbEntity
  8
0
 62
   178
100
AcDbLine
 10
145.4713422809455
 20
99.8391178834789
 30
0.0
 11
145.988980370121
 21
99.90726623872061
 31
0.0
  0
LINE
  5
122
330
1F
100
AcDbEntity
  8
0
 62
   178
100
AcDbLine
 10
145.988980370121
 20
99.90726623872061
 30
0.0
 11
146.5066184613556
 21
99.83911789912055
 31
0.0
  0
LINE
  5
123
330
1F
100
AcDbEntity
  8
0
 62
   178
100
AcDbLine
 10
146.5066184613556
 20
99.83911789912055
 30
0.0
 11
146.9889803741693
 21
99.63931706139854
 31
0.0
  0
LINE
  5
124
330
1F
100
AcDbEntity
  8
0
 62
   178
100
AcDbLine
 10
146.9889803741693
 20
99.63931706139854
 30
0.0
 11
147.4031939413429
 21
99.3214798224603
 31
0.0
  0
LINE
  5
125
330
1F
100
AcDbEntity
  8
0
 62
   178
100
AcDbLine
 10
147.4031939413429
 20
99.3214798224603
 30
0.0
 11
147.7210311927914
 21
98.9072662648876
 31
0.0
  0
LINE
  5
126
330
1F
100
AcDbEntity
  8
0
 62
   178
100
AcDbLine
 10
147.7210311927914
 20
98.9072662648876
 30
0.0
 11
147.9208320450883
 21
98.42490435811261
 31
0.0
  0
LINE
  5
127
330
1F
100
AcDbEntity
  8
0
 62
   178
100
AcDbLine
 10
147.9208320450883
 20
98.42490435811261
 30
0.0
 11
147.9889804003357
 21
97.90726626893708
 31
0.0
  0
LINE
  5
128
330
1F
100
AcDbEntity
  8
0
 62
   178
100
AcDbLine
 10
147.9889804003357
 20
97.90726626893708
 30
0.0
 11
147.9208320607276
 21
97.38962817770248
 31
0.0
  0
LINE
  5
129
330
1F
100
AcDbEntity
  8
0
 62
   178
100
AcDbLine
 10
147.9208320607276
 20
97.38962817770248
 30
0.0
 11
147.721031223009
 21
96.90726626488751
 31
0.0
  0
LINE
  5
12A
330
1F
100
AcDbEntity
  8
0
 62
   178
100
AcDbLine
 10
147.721031223009
 20
96.90726626488751
 30
0.0
 11
147.4031939840742
 21
96.4930526977141
 31
0.0
  0
LINE
  5
12B
330
1F
100
AcDbEntity
  8
0
 62
   178
100
AcDbLine
 10
147.4031939840742
 20
96.4930526977141
 30
0.0
 11
146.9889804265016
 21
96.17521544626081
 31
0.0
  0
LINE
  5
12C
330
1F
100
AcDbEntity
  8
0
 62
   178
100
AcDbLine
 10
146.9889804265016
 20
96.17521544626081
 30
0.0
 11
146.5066185197198
 21
95.97541459396422
 31
0.0
  0
LINE
  5
12D
330
1F
100
AcDbEntity
  8
0
 62
   178
100
AcDbLine
 10
146.5066185197198
 20
95.97541459396422
 30
0.0
 11
145.9889804305474
 21
95.90726623872062
 31
0.0
  0
LINE
  5
12E
330
1F
100
AcDbEntity
  8
0
 62
   178
100
AcDbLine
 10
145.9889841646317
 20
-111.8084619177724
 30
0.0
 11
146.5066222558663
 21
-111.8766102573746
 31
0.0
  0
LINE
  5
12F
330
1F
100
AcDbEntity
  8
0
 62
   178
100
AcDbLine
 10
146.5066222558663
 20
-111.8766102573746
 30
0.0
 11
146.9889841686745
 21
-112.0764110950965
 31
0.0
  0
LINE
  5
130
330
1F
100
AcDbEntity
  8
0
 62
   178
100
AcDbLine
 10
146.9889841686745
 20
-112.0764110950965
 30
0.0
 11
147.4031977358519
 21
-112.3942483340345
 31
0.0
  0
LINE
  5
131
330
1F
100
AcDbEntity
  8
0
 62
   178
100
AcDbLine
 10
147.4031977358519
 20
-112.3942483340345
 30
0.0
 11
147.7210349873091
 21
-112.8084618916062
 31
0.0
  0
LINE
  5
132
330
1F
100
AcDbEntity
  8
0
 62
   178
100
AcDbLine
 10
147.7210349873091
 20
-112.8084618916062
 30
0.0
 11
147.9208358396053
 21
-113.2908237983819
 31
0.0
  0
LINE
  5
133
330
1F
100
AcDbEntity
  8
0
 62
   178
100
AcDbLine
 10
147.9208358396053
 20
-113.2908237983819
 30
0.0
 11
147.9889841948411
 21
-113.808461887558
 31
0.0
  0
LINE
  5
134
330
1F
100
AcDbEntity
  8
0
 62
   178
100
AcDbLine
 10
147.9889841948411
 20
-113.808461887558
 30
0.0
 11
147.9208358552455
 21
-114.3260999787919
 31
0.0
  0
LINE
  5
135
330
1F
100
AcDbEntity
  8
0
 62
   178
100
AcDbLine
 10
147.9208358552455
 20
-114.3260999787919
 30
0.0
 11
147.7210350175236
 21
-114.8084618916063
 31
0.0
  0
LINE
  5
136
330
1F
100
AcDbEntity
  8
0
 62
   178
100
AcDbLine
 10
147.7210350175236
 20
-114.8084618916063
 30
0.0
 11
147.4031977785791
 21
-115.2226754587807
 31
0.0
  0
LINE
  5
137
330
1F
100
AcDbEntity
  8
0
 62
   178
100
AcDbLine
 10
147.4031977785791
 20
-115.2226754587807
 30
0.0
 11
146.9889842210106
 21
-115.5405127102341
 31
0.0
  0
LINE
  5
138
330
1F
100
AcDbEntity
  8
0
 62
   178
100
AcDbLine
 10
146.9889842210106
 20
-115.5405127102341
 30
0.0
 11
146.5066223142378
 21
-115.7403135625307
 31
0.0
  0
LINE
  5
139
330
1F
100
AcDbEntity
  8
0
 62
   178
100
AcDbLine
 10
146.5066223142378
 20
-115.7403135625307
 30
0.0
 11
145.9889842250622
 21
-115.8084619177724
 31
0.0
  0
LINE
  5
13A
330
1F
100
AcDbEntity
  8
0
 62
   178
100
AcDbLine
 10
145.9889842250622
 20
-115.8084619177724
 30
0.0
 11
145.4713461338276
 21
-115.7403135781714
 31
0.0
  0
LINE
  5
13B
330
1F
100
AcDbEntity
  8
0
 62
   178
100
AcDbLine
 10
145.4713461338276
 20
-115.7403135781714
 30
0.0
 11
144.9889842210107
 21
-115.5405127404485
 31
0.0
  0
LINE
  5
13C
330
1F
100
AcDbEntity
  8
0
 62
   178
100
AcDbLine
 10
144.9889842210107
 20
-115.5405127404485
 30
0.0
 11
144.5747706538331
 21
-115.2226755015112
 31
0.0
  0
LINE
  5
13D
330
1F
100
AcDbEntity
  8
0
 62
   178
100
AcDbLine
 10
144.5747706538331
 20
-115.2226755015112
 30
0.0
 11
144.2569334023856
 21
-114.8084619439394
 31
0.0
  0
LINE
  5
13E
330
1F
100
AcDbEntity
  8
0
 62
   178
100
AcDbLine
 10
144.2569334023856
 20
-114.8084619439394
 30
0.0
 11
144.0571325500894
 21
-114.3261000371628
 31
0.0
  0
LINE
  5
13F
330
1F
100
AcDbEntity
  8
0
 62
   178
100
AcDbLine
 10
144.0571325500894
 20
-114.3261000371628
 30
0.0
 11
143.9889841948413
 21
-113.8084619479873
 31
0.0
  0
LINE
  5
140
330
1F
100
AcDbEntity
  8
0
 62
   178
100
AcDbLine
 10
143.9889841948413
 20
-113.8084619479873
 30
0.0
 11
144.0571325344492
 21
-113.2908238567529
 31
0.0
  0
LINE
  5
141
330
1F
100
AcDbEntity
  8
0
 62
   178
100
AcDbLine
 10
144.0571325344492
 20
-113.2908238567529
 30
0.0
 11
144.2569333721712
 21
-112.8084619439395
 31
0.0
  0
LINE
  5
142
330
1F
100
AcDbEntity
  8
0
 62
   178
100
AcDbLine
 10
144.2569333721712
 20
-112.8084619439395
 30
0.0
 11
144.5747706111059
 21
-112.3942483767642
 31
0.0
  0
LINE
  5
143
330
1F
100
AcDbEntity
  8
0
 62
   178
100
AcDbLine
 10
144.5747706111059
 20
-112.3942483767642
 30
0.0
 11
144.9889841686746
 21
-112.0764111253108
 31
0.0
  0
LINE
  5
144
330
1F
100
AcDbEntity
  8
0
 62
   178
100
AcDbLine
 10
144.9889841686746
 20
-112.0764111253108
 30
0.0
 11
145.4713460754561
 21
-111.876610273015
 31
0.0
  0
LINE
  5
145
330
1F
100
AcDbEntity
  8
0
 62
   178
100
AcDbLine
 10
145.4713460754561
 20
-111.876610273015
 30
0.0
 11
145.9889841646317
 21
-111.8084619177724
 31
0.0
  0
LINE
  5
146
330
1F
100
AcDbEntity
  8
0
 62
   178
100
AcDbLine
 10
109.8468490869083
 20
-147.950598087517
 30
0.0
 11
109.9149974265163
 21
-147.432959996282
 31
0.0
  0
LINE
  5
147
330
1F
100
AcDbEntity
  8
0
 62
   178
100
AcDbLine
 10
109.9149974265163
 20
-147.432959996282
 30
0.0
 11
110.114798264235
 21
-146.9505980834689
 31
0.0
  0
LINE
  5
148
330
1F
100
AcDbEntity
  8
0
 62
   178
100
AcDbLine
 10
110.114798264235
 20
-146.9505980834689
 30
0.0
 11
110.4326355031701
 21
-146.5363845162942
 31
0.0
  0
LINE
  5
149
330
1F
100
AcDbEntity
  8
0
 62
   178
100
AcDbLine
 10
110.4326355031701
 20
-146.5363845162942
 30
0.0
 11
110.8468490607467
 21
-146.2185472648402
 31
0.0
  0
LINE
  5
14A
330
1F
100
AcDbEntity
  8
0
 62
   178
100
AcDbLine
 10
110.8468490607467
 20
-146.2185472648402
 30
0.0
 11
111.3292109675247
 21
-146.0187464125443
 31
0.0
  0
LINE
  5
14B
330
1F
100
AcDbEntity
  8
0
 62
   178
100
AcDbLine
 10
111.3292109675247
 20
-146.0187464125443
 30
0.0
 11
111.8468490566999
 21
-145.9505980573018
 31
0.0
  0
LINE
  5
14C
330
1F
100
AcDbEntity
  8
0
 62
   178
100
AcDbLine
 10
111.8468490566999
 20
-145.9505980573018
 30
0.0
 11
112.3644871479348
 21
-146.0187463969037
 31
0.0
  0
LINE
  5
14D
330
1F
100
AcDbEntity
  8
0
 62
   178
100
AcDbLine
 10
112.3644871479348
 20
-146.0187463969037
 30
0.0
 11
112.8468490607472
 21
-146.2185472346255
 31
0.0
  0
LINE
  5
14E
330
1F
100
AcDbEntity
  8
0
 62
   178
100
AcDbLine
 10
112.8468490607472
 20
-146.2185472346255
 30
0.0
 11
113.2610626279167
 21
-146.5363844735639
 31
0.0
  0
LINE
  5
14F
330
1F
100
AcDbEntity
  8
0
 62
   178
100
AcDbLine
 10
113.2610626279167
 20
-146.5363844735639
 30
0.0
 11
113.5788998793736
 21
-146.9505980311357
 31
0.0
  0
LINE
  5
150
330
1F
100
AcDbEntity
  8
0
 62
   178
100
AcDbLine
 10
113.5788998793736
 20
-146.9505980311357
 30
0.0
 11
113.778700731673
 21
-147.432959937912
 31
0.0
  0
LINE
  5
151
330
1F
100
AcDbEntity
  8
0
 62
   178
100
AcDbLine
 10
113.778700731673
 20
-147.432959937912
 30
0.0
 11
113.8468490869088
 21
-147.9505980270871
 31
0.0
  0
LINE
  5
152
330
1F
100
AcDbEntity
  8
0
 62
   178
100
AcDbLine
 10
113.8468490869088
 20
-147.9505980270871
 30
0.0
 11
113.7787007473137
 21
-148.4682361183222
 31
0.0
  0
LINE
  5
153
330
1F
100
AcDbEntity
  8
0
 62
   178
100
AcDbLine
 10
113.7787007473137
 20
-148.4682361183222
 30
0.0
 11
113.5788999095914
 21
-148.9505980311358
 31
0.0
  0
LINE
  5
154
330
1F
100
AcDbEntity
  8
0
 62
   178
100
AcDbLine
 10
113.5788999095914
 20
-148.9505980311358
 30
0.0
 11
113.2610626706521
 21
-149.3648115983104
 31
0.0
  0
LINE
  5
155
330
1F
100
AcDbEntity
  8
0
 62
   178
100
AcDbLine
 10
112.8468491130755
 20
-149.6826488497654
 30
0.0
 11
112.3644872063016
 21
-149.8824497020603
 31
0.0
  0
LINE
  5
156
330
1F
100
AcDbEntity
  8
0
 62
   178
100
AcDbLine
 10
112.3644872063016
 20
-149.8824497020603
 30
0.0
 11
111.8468491171232
 21
-149.950598057302
 31
0.0
  0
LINE
  5
157
330
1F
100
AcDbEntity
  8
0
 62
   178
100
AcDbLine
 10
111.8468491171232
 20
-149.950598057302
 30
0.0
 11
111.3292110258915
 21
-149.8824497177008
 31
0.0
  0
LINE
  5
158
330
1F
100
AcDbEntity
  8
0
 62
   178
100
AcDbLine
 10
111.3292110258915
 20
-149.8824497177008
 30
0.0
 11
110.8468491130752
 21
-149.6826488799786
 31
0.0
  0
LINE
  5
159
330
1F
100
AcDbEntity
  8
0
 62
   178
100
AcDbLine
 10
110.8468491130752
 20
-149.6826488799786
 30
0.0
 11
110.4326355459055
 21
-149.3648116410407
 31
0.0
  0
LINE
  5
15A
330
1F
100
AcDbEntity
  8
0
 62
   178
100
AcDbLine
 10
110.4326355459055
 20
-149.3648116410407
 30
0.0
 11
110.1147982944531
 21
-148.950598083469
 31
0.0
  0
LINE
  5
15B
330
1F
100
AcDbEntity
  8
0
 62
   178
100
AcDbLine
 10
110.1147982944531
 20
-148.950598083469
 30
0.0
 11
109.914997442157
 21
-148.4682361766922
 31
0.0
  0
LINE
  5
15C
330
1F
100
AcDbEntity
  8
0
 62
   178
100
AcDbLine
 10
109.914997442157
 20
-148.4682361766922
 30
0.0
 11
109.8468490869083
 21
-147.950598087517
 31
0.0
  0
LINE
  5
15D
330
1F
100
AcDbEntity
  8
0
 62
   178
100
AcDbLine
 10
-259.0110192064386
 20
72.04939574136768
 30
0.0
 11
-239.0110195196841
 21
92.04939603241291
 31
0.0
  0
LINE
  5
15E
330
1F
100
AcDbEntity
  8
0
 62
   178
100
AcDbLine
 10
-239.0110159047551
 20
-107.9506033689513
 30
0.0
 11
-259.0110162043118
 21
-87.95060367369189
 31
0.0
  0
LINE
  5
15F
330
1F
100
AcDbEntity
  8
0
 62
   178
100
AcDbLine
 10
-259.0110192064386
 20
72.04939574136768
 30
0.0
 11
-259.0110162043118
 21
-87.95060367369189
 31
0.0
  0
LINE
  5
160
330
1F
100
AcDbEntity
  8
0
 62
   178
100
AcDbLine
 10
-239.0110159047551
 20
-107.9506033689513
 30
0.0
 11
19.98898292916234
 21
-107.950600384713
 31
0.0
  0
LINE
  5
161
330
1F
100
AcDbEntity
  8
0
 62
   178
100
AcDbLine
 10
44.40466681818972
 20
-24.95059938046658
 30
0.0
 11
105.9889828524336
 21
-24.95059751040922
 31
0.0
  0
LINE
  5
162
330
1F
100
AcDbEntity
  8
0
 62
   178
100
AcDbLine
 10
85.98898048882549
 20
92.04940095600838
 30
0.0
 11
-239.0110195196841
 21
92.04939603241291
 31
0.0
  0
LINE
  5
163
330
1F
100
AcDbEntity
  8
0
 62
   178
100
AcDbLine
 10
105.9889828524336
 20
-24.95059751040922
 30
0.0
 11
105.988980790978
 21
72.04940125815703
 31
0.0
  0
LINE
  5
164
330
1F
100
AcDbEntity
  8
0
 62
   178
100
AcDbLine
 10
105.988980790978
 20
72.04940125815703
 30
0.0
 11
85.98898048882549
 21
92.04940095600838
 31
0.0
  0
LINE
  5
165
330
1F
100
AcDbEntity
  8
0
 62
   178
100
AcDbLine
 10
19.98898197739965
 20
-44.95059974932416
 30
0.0
 11
44.40466681818972
 21
-24.95059938046658
 31
0.0
  0
LINE
  5
166
330
1F
100
AcDbEntity
  8
0
 62
   178
100
AcDbLine
 10
19.98898292916234
 20
-107.950600384713
 30
0.0
 11
19.98898197739965
 21
-44.95059974932416
 31
0.0
  0
LINE
  5
167
330
1F
100
AcDbEntity
  8
0
 62
   178
100
AcDbLine
 10
-299.0110180325723
 20
-5.950604576875535
 30
0.0
 11
-298.4933799479306
 21
-6.018752915612602
 31
0.0
  0
LINE
  5
168
330
1F
100
AcDbEntity
  8
0
 62
   178
100
AcDbLine
 10
-299.5286561182053
 20
-6.01875292991549
 30
0.0
 11
-299.0110180325723
 21
-5.950604576875535
 31
0.0
  0
LINE
  5
169
330
1F
100
AcDbEntity
  8
0
 62
   178
100
AcDbLine
 10
-300.0110180230058
 20
-6.218553778533627
 30
0.0
 11
-299.5286561182053
 21
-6.01875292991549
 31
0.0
  0
LINE
  5
16A
330
1F
100
AcDbEntity
  8
0
 62
   178
100
AcDbLine
 10
-300.4252315807128
 20
-6.536391025815119
 30
0.0
 11
-300.0110180230058
 21
-6.218553778533627
 31
0.0
  0
LINE
  5
16B
330
1F
100
AcDbEntity
  8
0
 62
   178
100
AcDbLine
 10
-300.7430688218568
 20
-6.95060458944518
 30
0.0
 11
-300.4252315807128
 21
-6.536391025815119
 31
0.0
  0
LINE
  5
16C
330
1F
100
AcDbEntity
  8
0
 62
   178
100
AcDbLine
 10
-300.9428696632604
 20
-7.432966500289185
 30
0.0
 11
-300.7430688218568
 21
-6.95060458944518
 31
0.0
  0
LINE
  5
16D
330
1F
100
AcDbEntity
  8
0
 62
   178
100
AcDbLine
 10
-301.011018007027
 20
-7.950604591657575
 30
0.0
 11
-300.9428696632604
 21
-7.432966500289185
 31
0.0
  0
LINE
  5
16E
330
1F
100
AcDbEntity
  8
0
 62
   178
100
AcDbLine
 10
-300.9428696553362
 20
-8.468242683035717
 30
0.0
 11
-301.011018007027
 21
-7.950604591657575
 31
0.0
  0
LINE
  5
16F
330
1F
100
AcDbEntity
  8
0
 62
   178
100
AcDbLine
 10
-300.7430688050089
 20
-8.950604593491548
 30
0.0
 11
-300.9428696553362
 21
-8.468242683035717
 31
0.0
  0
LINE
  5
170
330
1F
100
AcDbEntity
  8
0
 62
   178
100
AcDbLine
 10
-300.4252315534147
 20
-9.364818155234344
 30
0.0
 11
-300.7430688050089
 21
-8.950604593491548
 31
0.0
  0
LINE
  5
171
330
1F
100
AcDbEntity
  8
0
 62
   178
100
AcDbLine
 10
-300.0110179840375
 20
-9.68265539771744
 30
0.0
 11
-300.4252315534147
 21
-9.364818155234344
 31
0.0
  0
LINE
  5
172
330
1F
100
AcDbEntity
  8
0
 62
   178
100
AcDbLine
 10
-299.5286560699706
 20
-9.882456236406416
 30
0.0
 11
-300.0110179840375
 21
-9.68265539771744
 31
0.0
  0
LINE
  5
173
330
1F
100
AcDbEntity
  8
0
 62
   178
100
AcDbLine
 10
-299.0110179787357
 20
-9.950604576008546
 30
0.0
 11
-299.5286560699706
 21
-9.882456236406416
 31
0.0
  0
LINE
  5
174
330
1F
100
AcDbEntity
  8
0
 62
   178
100
AcDbLine
 10
-298.4933798895605
 20
-9.882456220766477
 30
0.0
 11
-299.0110179787357
 21
-9.950604576008546
 31
0.0
  0
LINE
  5
175
330
1F
100
AcDbEntity
  8
0
 62
   178
100
AcDbLine
 10
-298.0110179827776
 20
-9.68265536846921
 30
0.0
 11
-298.4933798895605
 21
-9.882456220766477
 31
0.0
  0
LINE
  5
176
330
1F
100
AcDbEntity
  8
0
 62
   178
100
AcDbLine
 10
-297.5968044252062
 20
-9.364818117016634
 30
0.0
 11
-298.0110179827776
 21
-9.68265536846921
 31
0.0
  0
LINE
  5
177
330
1F
100
AcDbEntity
  8
0
 62
   178
100
AcDbLine
 10
-297.2789671862743
 20
-8.950604549841335
 30
0.0
 11
-297.5968044252062
 21
-9.364818117016634
 31
0.0
  0
LINE
  5
178
330
1F
100
AcDbEntity
  8
0
 62
   178
100
AcDbLine
 10
-297.0791663485522
 20
-8.46824263702762
 30
0.0
 11
-297.2789671862743
 21
-8.950604549841335
 31
0.0
  0
LINE
  5
179
330
1F
100
AcDbEntity
  8
0
 62
   178
100
AcDbLine
 10
-297.0110180089446
 20
-7.950604545793376
 30
0.0
 11
-297.0791663485522
 21
-8.46824263702762
 31
0.0
  0
LINE
  5
17A
330
1F
100
AcDbEntity
  8
0
 62
   178
100
AcDbLine
 10
-297.0791663641929
 20
-7.432966456617663
 30
0.0
 11
-297.0110180089446
 21
-7.950604545793376
 31
0.0
  0
LINE
  5
17B
330
1F
100
AcDbEntity
  8
0
 62
   178
100
AcDbLine
 10
-297.278967216489
 20
-6.950604549841
 30
0.0
 11
-297.0791663641929
 21
-7.432966456617663
 31
0.0
  0
LINE
  5
17C
330
1F
100
AcDbEntity
  8
0
 62
   178
100
AcDbLine
 10
-297.5968044679364
 20
-6.536390992272716
 30
0.0
 11
-297.278967216489
 21
-6.950604549841
 31
0.0
  0
LINE
  5
17D
330
1F
100
AcDbEntity
  8
0
 62
   178
100
AcDbLine
 10
-298.0110180351113
 20
-6.218553753330957
 30
0.0
 11
-297.5968044679364
 21
-6.536390992272716
 31
0.0
  0
LINE
  5
17E
330
1F
100
AcDbEntity
  8
0
 62
   178
100
AcDbLine
 10
-298.4933799479306
 20
-6.018752915612602
 30
0.0
 11
-298.0110180351113
 21
-6.218553753330957
 31
0.0
  0
LINE
  5
17F
330
1F
100
AcDbEntity
  8
0
 62
   178
100
AcDbLine
 10
126.0539820006232
 20
-105.3506076786793
 30
0.0
 11
126.0539811999324
 21
-52.35059653029692
 31
0.0
  0
LINE
  5
180
330
1F
100
AcDbEntity
  8
0
 62
   178
100
AcDbLine
 10
126.0539811999324
 20
-52.35059653029692
 30
0.0
 11
45.60398180793926
 21
-52.35059774568578
 31
0.0
  0
LINE
  5
181
330
1F
100
AcDbEntity
  8
0
 62
   178
100
AcDbLine
 10
45.60398260863017
 20
-105.3506088940687
 30
0.0
 11
126.0539820006232
 21
-105.3506076786793
 31
0.0
  0
LINE
  5
182
330
1F
100
AcDbEntity
  8
0
 62
   178
100
AcDbLine
 10
45.60398180793926
 20
-52.35059774568578
 30
0.0
 11
45.60398260863017
 21
-105.3506088940687
 31
0.0
  0
LINE
  5
183
330
1F
100
AcDbEntity
  8
0
 62
   178
100
AcDbLine
 10
40.46395198339081
 20
-45.38746556909446
 30
0.0
 11
40.35494389061505
 21
-45.55060771425411
 31
0.0
  0
LINE
  5
184
330
1F
100
AcDbEntity
  8
0
 62
   178
100
AcDbLine
 10
40.59332181981868
 20
-45.23994753887327
 30
0.0
 11
40.46395198339081
 21
-45.38746556909446
 31
0.0
  0
LINE
  5
185
330
1F
100
AcDbEntity
  8
0
 62
   178
100
AcDbLine
 10
40.74083984613144
 20
-45.11057769798739
 30
0.0
 11
40.59332181981868
 21
-45.23994753887327
 31
0.0
  0
LINE
  5
186
330
1F
100
AcDbEntity
  8
0
 62
   178
100
AcDbLine
 10
40.90398198799785
 20
-45.00156960028296
 30
0.0
 11
40.74083984613144
 21
-45.11057769798739
 31
0.0
  0
LINE
  5
187
330
1F
100
AcDbEntity
  8
0
 62
   178
100
AcDbLine
 10
41.07995683813852
 20
-44.91478840453446
 30
0.0
 11
40.90398198799785
 21
-45.00156960028296
 31
0.0
  0
LINE
  5
188
330
1F
100
AcDbEntity
  8
0
 62
   178
100
AcDbLine
 10
41.26575341808006
 20
-44.85171896106057
 30
0.0
 11
41.07995683813852
 21
-44.91478840453446
 31
0.0
  0
LINE
  5
189
330
1F
100
AcDbEntity
  8
0
 62
   178
100
AcDbLine
 10
41.45819269682539
 20
-44.81344040552651
 30
0.0
 11
41.26575341808006
 21
-44.85171896106057
 31
0.0
  0
LINE
  5
18A
330
1F
100
AcDbEntity
  8
0
 62
   178
100
AcDbLine
 10
41.65398198496177
 20
-44.80060769462908
 30
0.0
 11
41.45819269682539
 21
-44.81344040552651
 31
0.0
  0
LINE
  5
18B
330
1F
100
AcDbEntity
  8
0
 62
   178
100
AcDbLine
 10
41.84977127348556
 20
-44.81344039961078
 30
0.0
 11
41.65398198496177
 21
-44.80060769462908
 31
0.0
  0
LINE
  5
18C
330
1F
100
AcDbEntity
  8
0
 62
   178
100
AcDbLine
 10
42.04221055338766
 20
-44.85171894933055
 30
0.0
 11
41.84977127348556
 21
-44.81344039961078
 31
0.0
  0
LINE
  5
18D
330
1F
100
AcDbEntity
  8
0
 62
   178
100
AcDbLine
 10
42.22800713523379
 20
-44.91478838719043
 30
0.0
 11
42.04221055338766
 21
-44.85171894933055
 31
0.0
  0
LINE
  5
18E
330
1F
100
AcDbEntity
  8
0
 62
   178
100
AcDbLine
 10
42.40398198799787
 20
-45.00156957762189
 30
0.0
 11
42.22800713523379
 21
-44.91478838719043
 31
0.0
  0
LINE
  5
18F
330
1F
100
AcDbEntity
  8
0
 62
   178
100
AcDbLine
 10
42.56712413315764
 20
-45.11057767039702
 30
0.0
 11
42.40398198799787
 21
-45.00156957762189
 31
0.0
  0
LINE
  5
190
330
1F
100
AcDbEntity
  8
0
 62
   178
100
AcDbLine
 10
42.71464216337829
 20
-45.23994750682546
 30
0.0
 11
42.56712413315764
 21
-45.11057767039702
 31
0.0
  0
LINE
  5
191
330
1F
100
AcDbEntity
  8
0
 62
   178
100
AcDbLine
 10
42.84401200426451
 20
-45.38746553313776
 30
0.0
 11
42.71464216337829
 21
-45.23994750682546
 31
0.0
  0
LINE
  5
192
330
1F
100
AcDbEntity
  8
0
 62
   178
100
AcDbLine
 10
42.95302010196831
 20
-45.55060767500424
 30
0.0
 11
42.84401200426451
 21
-45.38746553313776
 31
0.0
  0
LINE
  5
193
330
1F
100
AcDbEntity
  8
0
 62
   178
100
AcDbLine
 10
43.03980129771759
 20
-45.72658252514554
 30
0.0
 11
42.95302010196831
 21
-45.55060767500424
 31
0.0
  0
LINE
  5
194
330
1F
100
AcDbEntity
  8
0
 62
   178
100
AcDbLine
 10
43.10287074119073
 20
-45.91237910508638
 30
0.0
 11
43.03980129771759
 21
-45.72658252514554
 31
0.0
  0
LINE
  5
195
330
1F
100
AcDbEntity
  8
0
 62
   178
100
AcDbLine
 10
43.14114929672573
 20
-46.10481838383203
 30
0.0
 11
43.10287074119073
 21
-45.91237910508638
 31
0.0
  0
LINE
  5
196
330
1F
100
AcDbEntity
  8
0
 62
   178
100
AcDbLine
 10
43.15398200762287
 20
-46.30060767196798
 30
0.0
 11
43.14114929672573
 21
-46.10481838383203
 31
0.0
  0
LINE
  5
197
330
1F
100
AcDbEntity
  8
0
 62
   178
100
AcDbLine
 10
43.1411493026408
 20
-46.49639696049215
 30
0.0
 11
43.15398200762287
 21
-46.30060767196798
 31
0.0
  0
LINE
  5
198
330
1F
100
AcDbEntity
  8
0
 62
   178
100
AcDbLine
 10
43.10287075292135
 20
-46.68883624039393
 30
0.0
 11
43.1411493026408
 21
-46.49639696049215
 31
0.0
  0
LINE
  5
199
330
1F
100
AcDbEntity
  8
0
 62
   178
100
AcDbLine
 10
43.03980131506115
 20
-46.87463282224081
 30
0.0
 11
43.10287075292135
 21
-46.68883624039393
 31
0.0
  0
LINE
  5
19A
330
1F
100
AcDbEntity
  8
0
 62
   178
100
AcDbLine
 10
42.95302012462938
 20
-47.05060767500422
 30
0.0
 11
43.03980131506115
 21
-46.87463282224081
 31
0.0
  0
LINE
  5
19B
330
1F
100
AcDbEntity
  8
0
 62
   178
100
AcDbLine
 10
42.84401203185488
 20
-47.21374982016392
 30
0.0
 11
42.95302012462938
 21
-47.05060767500422
 31
0.0
  0
LINE
  5
19C
330
1F
100
AcDbEntity
  8
0
 62
   178
100
AcDbLine
 10
42.71464219542637
 20
-47.3612678503851
 30
0.0
 11
42.84401203185488
 21
-47.21374982016392
 31
0.0
  0
LINE
  5
19D
330
1F
100
AcDbEntity
  8
0
 62
   178
100
AcDbLine
 10
42.56712416911397
 20
-47.49063769127071
 30
0.0
 11
42.71464219542637
 21
-47.3612678503851
 31
0.0
  0
LINE
  5
19E
330
1F
100
AcDbEntity
  8
0
 62
   178
100
AcDbLine
 10
42.40398202724793
 20
-47.59964578897519
 30
0.0
 11
42.56712416911397
 21
-47.49063769127071
 31
0.0
  0
LINE
  5
19F
330
1F
100
AcDbEntity
  8
0
 62
   178
100
AcDbLine
 10
42.22800717710636
 20
-47.68642698472429
 30
0.0
 11
42.40398202724793
 21
-47.59964578897519
 31
0.0
  0
LINE
  5
1A0
330
1F
100
AcDbEntity
  8
0
 62
   178
100
AcDbLine
 10
42.042210597165
 20
-47.74949642819775
 30
0.0
 11
42.22800717710636
 21
-47.68642698472429
 31
0.0
  0
LINE
  5
1A1
330
1F
100
AcDbEntity
  8
0
 62
   178
100
AcDbLine
 10
41.84977131841949
 20
-47.80060769462907
 30
0.0
 11
42.042210597165
 21
-47.74949642819775
 31
0.0
  0
LINE
  5
1A2
330
1F
100
AcDbEntity
  8
0
 62
   178
100
AcDbLine
 10
41.45819274175932
 20
-47.78777498964797
 30
0.0
 11
41.65398203028401
 21
-47.80060769462921
 31
0.0
  0
LINE
  5
1A3
330
1F
100
AcDbEntity
  8
0
 62
   178
100
AcDbLine
 10
41.2657534618574
 20
-47.74949643992777
 30
0.0
 11
41.45819274175932
 21
-47.78777498964797
 31
0.0
  0
LINE
  5
1A4
330
1F
100
AcDbEntity
  8
0
 62
   178
100
AcDbLine
 10
41.0799568800111
 20
-47.68642700206833
 30
0.0
 11
41.2657534618574
 21
-47.74949643992777
 31
0.0
  0
LINE
  5
1A5
330
1F
100
AcDbEntity
  8
0
 62
   178
100
AcDbLine
 10
40.90398202724791
 20
-47.59964581163626
 30
0.0
 11
41.0799568800111
 21
-47.68642700206833
 31
0.0
  0
LINE
  5
1A6
330
1F
100
AcDbEntity
  8
0
 62
   178
100
AcDbLine
 10
40.74083988208778
 20
-47.49063771886108
 30
0.0
 11
40.90398202724791
 21
-47.59964581163626
 31
0.0
  0
LINE
  5
1A7
330
1F
100
AcDbEntity
  8
0
 62
   178
100
AcDbLine
 10
40.59332185186677
 20
-47.36126788243292
 30
0.0
 11
40.74083988208778
 21
-47.49063771886108
 31
0.0
  0
LINE
  5
1A8
330
1F
100
AcDbEntity
  8
0
 62
   178
100
AcDbLine
 10
40.46395201098119
 20
-47.21374985612061
 30
0.0
 11
40.59332185186677
 21
-47.36126788243292
 31
0.0
  0
LINE
  5
1A9
330
1F
100
AcDbEntity
  8
0
 62
   178
100
AcDbLine
 10
40.35494391327612
 20
-47.05060771425413
 30
0.0
 11
40.46395201098119
 21
-47.21374985612061
 31
0.0
  0
LINE
  5
1AA
330
1F
100
AcDbEntity
  8
0
 62
   178
100
AcDbLine
 10
40.26816271752729
 20
-46.87463286411279
 30
0.0
 11
40.35494391327612
 21
-47.05060771425413
 31
0.0
  0
LINE
  5
1AB
330
1F
100
AcDbEntity
  8
0
 62
   178
100
AcDbLine
 10
40.20509327405414
 20
-46.68883628417177
 30
0.0
 11
40.26816271752729
 21
-46.87463286411279
 31
0.0
  0
LINE
  5
1AC
330
1F
100
AcDbEntity
  8
0
 62
   178
100
AcDbLine
 10
40.16681471851933
 20
-46.49639700542635
 30
0.0
 11
40.20509327405414
 21
-46.68883628417177
 31
0.0
  0
LINE
  5
1AD
330
1F
100
AcDbEntity
  8
0
 62
   178
100
AcDbLine
 10
40.15398200762283
 20
-46.30060771729035
 30
0.0
 11
40.16681471851933
 21
-46.49639700542635
 31
0.0
  0
LINE
  5
1AE
330
1F
100
AcDbEntity
  8
0
 62
   178
100
AcDbLine
 10
40.16681471260426
 20
-46.10481842876618
 30
0.0
 11
40.15398200762283
 21
-46.30060771729035
 31
0.0
  0
LINE
  5
1AF
330
1F
100
AcDbEntity
  8
0
 62
   178
100
AcDbLine
 10
40.20509326232353
 20
-45.91237914886421
 30
0.0
 11
40.16681471260426
 21
-46.10481842876618
 31
0.0
  0
LINE
  5
1B0
330
1F
100
AcDbEntity
  8
0
 62
   178
100
AcDbLine
 10
40.26816270018373
 20
-45.72658256701752
 30
0.0
 11
40.20509326232353
 21
-45.91237914886421
 31
0.0
  0
LINE
  5
1B1
330
1F
100
AcDbEntity
  8
0
 62
   178
100
AcDbLine
 10
40.35494389061505
 20
-45.55060771425411
 30
0.0
 11
40.26816270018373
 21
-45.72658256701752
 31
0.0
  0
LINE
  5
1B2
330
1F
100
AcDbEntity
  8
0
 62
   178
100
AcDbLine
 10
128.2181627175276
 20
-46.87463286411342
 30
0.0
 11
128.3049439132763
 21
-47.05060771425477
 31
0.0
  0
LINE
  5
1B3
330
1F
100
AcDbEntity
  8
0
 62
   178
100
AcDbLine
 10
128.1550932740538
 20
-46.68883628417186
 30
0.0
 11
128.2181627175276
 21
-46.87463286411342
 31
0.0
  0
LINE
  5
1B4
330
1F
100
AcDbEntity
  8
0
 62
   178
100
AcDbLine
 10
128.1168147185194
 20
-46.49639700542646
 30
0.0
 11
128.1550932740538
 21
-46.68883628417186
 31
0.0
  0
LINE
  5
1B5
330
1F
100
AcDbEntity
  8
0
 62
   178
100
AcDbLine
 10
128.1039820076228
 20
-46.30060771729026
 30
0.0
 11
128.1168147185194
 21
-46.49639700542646
 31
0.0
  0
LINE
  5
1B6
330
1F
100
AcDbEntity
  8
0
 62
   178
100
AcDbLine
 10
128.1168147126039
 20
-46.10481842876629
 30
0.0
 11
128.1039820076228
 21
-46.30060771729026
 31
0.0
  0
LINE
  5
1B7
330
1F
100
AcDbEntity
  8
0
 62
   178
100
AcDbLine
 10
128.1550932623236
 20
-45.9123791488643
 30
0.0
 11
128.1168147126039
 21
-46.10481842876629
 31
0.0
  0
LINE
  5
1B8
330
1F
100
AcDbEntity
  8
0
 62
   178
100
AcDbLine
 10
128.2181627001833
 20
-45.72658256701816
 30
0.0
 11
128.1550932623236
 21
-45.9123791488643
 31
0.0
  0
LINE
  5
1B9
330
1F
100
AcDbEntity
  8
0
 62
   178
100
AcDbLine
 10
128.3049438906145
 20
-45.55060771425475
 30
0.0
 11
128.2181627001833
 21
-45.72658256701816
 31
0.0
  0
LINE
  5
1BA
330
1F
100
AcDbEntity
  8
0
 62
   178
100
AcDbLine
 10
128.4139519833907
 20
-45.38746556909432
 30
0.0
 11
128.3049438906145
 21
-45.55060771425475
 31
0.0
  0
LINE
  5
1BB
330
1F
100
AcDbEntity
  8
0
 62
   178
100
AcDbLine
 10
128.5433218198185
 20
-45.23994753887313
 30
0.0
 11
128.4139519833907
 21
-45.38746556909432
 31
0.0
  0
LINE
  5
1BC
330
1F
100
AcDbEntity
  8
0
 62
   178
100
AcDbLine
 10
128.690839846131
 20
-45.11057769798748
 30
0.0
 11
128.5433218198185
 21
-45.23994753887313
 31
0.0
  0
LINE
  5
1BD
330
1F
100
AcDbEntity
  8
0
 62
   178
100
AcDbLine
 10
128.8539819879977
 20
-45.00156960028301
 30
0.0
 11
128.690839846131
 21
-45.11057769798748
 31
0.0
  0
LINE
  5
1BE
330
1F
100
AcDbEntity
  8
0
 62
   178
100
AcDbLine
 10
129.0299568381386
 20
-44.91478840453422
 30
0.0
 11
128.8539819879977
 21
-45.00156960028301
 31
0.0
  0
LINE
  5
1BF
330
1F
100
AcDbEntity
  8
0
 62
   178
100
AcDbLine
 10
129.2157534180796
 20
-44.85171896106087
 30
0.0
 11
129.0299568381386
 21
-44.91478840453422
 31
0.0
  0
LINE
  5
1C0
330
1F
100
AcDbEntity
  8
0
 62
   178
100
AcDbLine
 10
129.4081926968249
 20
-44.81344040552626
 30
0.0
 11
129.2157534180796
 21
-44.85171896106087
 31
0.0
  0
LINE
  5
1C1
330
1F
100
AcDbEntity
  8
0
 62
   178
100
AcDbLine
 10
129.6039819849617
 20
-44.80060769462908
 30
0.0
 11
129.4081926968249
 21
-44.81344040552626
 31
0.0
  0
LINE
  5
1C2
330
1F
100
AcDbEntity
  8
0
 62
   178
100
AcDbLine
 10
129.799771273485
 20
-44.81344039961049
 30
0.0
 11
129.6039819849617
 21
-44.80060769462908
 31
0.0
  0
LINE
  5
1C3
330
1F
100
AcDbEntity
  8
0
 62
   178
100
AcDbLine
 10
129.9922105533873
 20
-44.85171894933033
 30
0.0
 11
129.799771273485
 21
-44.81344039961049
 31
0.0
  0
LINE
  5
1C4
330
1F
100
AcDbEntity
  8
0
 62
   178
100
AcDbLine
 10
130.1780071352339
 20
-44.91478838719009
 30
0.0
 11
129.9922105533873
 21
-44.85171894933033
 31
0.0
  0
LINE
  5
1C5
330
1F
100
AcDbEntity
  8
0
 62
   178
100
AcDbLine
 10
130.3539819879977
 20
-45.00156957762216
 30
0.0
 11
130.1780071352339
 21
-44.91478838719009
 31
0.0
  0
LINE
  5
1C6
330
1F
100
AcDbEntity
  8
0
 62
   178
100
AcDbLine
 10
130.5171241331572
 20
-45.11057767039729
 30
0.0
 11
130.3539819879977
 21
-45.00156957762216
 31
0.0
  0
LINE
  5
1C7
330
1F
100
AcDbEntity
  8
0
 62
   178
100
AcDbLine
 10
130.6646421633782
 20
-45.23994750682591
 30
0.0
 11
130.5171241331572
 21
-45.11057767039729
 31
0.0
  0
LINE
  5
1C8
330
1F
100
AcDbEntity
  8
0
 62
   178
100
AcDbLine
 10
130.7940120042645
 20
-45.38746553313821
 30
0.0
 11
130.6646421633782
 21
-45.23994750682591
 31
0.0
  0
LINE
  5
1C9
330
1F
100
AcDbEntity
  8
0
 62
   178
100
AcDbLine
 10
130.9030201019685
 20
-45.55060767500392
 30
0.0
 11
130.7940120042645
 21
-45.38746553313821
 31
0.0
  0
LINE
  5
1CA
330
1F
100
AcDbEntity
  8
0
 62
   178
100
AcDbLine
 10
130.9898012977171
 20
-45.72658252514526
 30
0.0
 11
130.9030201019685
 21
-45.55060767500392
 31
0.0
  0
LINE
  5
1CB
330
1F
100
AcDbEntity
  8
0
 62
   178
100
AcDbLine
 10
131.0528707411909
 20
-45.91237910508629
 30
0.0
 11
130.9898012977171
 21
-45.72658252514526
 31
0.0
  0
LINE
  5
1CC
330
1F
100
AcDbEntity
  8
0
 62
   178
100
AcDbLine
 10
131.0911492967257
 20
-46.10481838383171
 30
0.0
 11
131.0528707411909
 21
-45.91237910508629
 31
0.0
  0
LINE
  5
1CD
330
1F
100
AcDbEntity
  8
0
 62
   178
100
AcDbLine
 10
131.1039820076229
 20
-46.30060767196843
 30
0.0
 11
131.0911492967257
 21
-46.10481838383171
 31
0.0
  0
LINE
  5
1CE
330
1F
100
AcDbEntity
  8
0
 62
   178
100
AcDbLine
 10
131.0911493026408
 20
-46.49639696049188
 30
0.0
 11
131.1039820076229
 21
-46.30060767196843
 31
0.0
  0
LINE
  5
1CF
330
1F
100
AcDbEntity
  8
0
 62
   178
100
AcDbLine
 10
131.052870752921
 20
-46.68883624039389
 30
0.0
 11
131.0911493026408
 21
-46.49639696049188
 31
0.0
  0
LINE
  5
1D0
330
1F
100
AcDbEntity
  8
0
 62
   178
100
AcDbLine
 10
130.9030201246297
 20
-47.05060767500395
 30
0.0
 11
130.9898013150609
 21
-46.87463282224162
 31
0.0
  0
LINE
  5
1D1
330
1F
100
AcDbEntity
  8
0
 62
   178
100
AcDbLine
 10
130.794012031855
 20
-47.21374982016437
 30
0.0
 11
130.9030201246297
 21
-47.05060767500395
 31
0.0
  0
LINE
  5
1D2
330
1F
100
AcDbEntity
  8
0
 62
   178
100
AcDbLine
 10
130.6646421954261
 20
-47.36126785038555
 30
0.0
 11
130.794012031855
 21
-47.21374982016437
 31
0.0
  0
LINE
  5
1D3
330
1F
100
AcDbEntity
  8
0
 62
   178
100
AcDbLine
 10
130.5171241691137
 20
-47.49063769127103
 30
0.0
 11
130.6646421954261
 21
-47.36126785038555
 31
0.0
  0
LINE
  5
1D4
330
1F
100
AcDbEntity
  8
0
 62
   178
100
AcDbLine
 10
130.353982027248
 20
-47.59964578897546
 30
0.0
 11
130.5171241691137
 21
-47.49063769127103
 31
0.0
  0
LINE
  5
1D5
330
1F
100
AcDbEntity
  8
0
 62
   178
100
AcDbLine
 10
130.178007177106
 20
-47.68642698472395
 30
0.0
 11
130.353982027248
 21
-47.59964578897546
 31
0.0
  0
LINE
  5
1D6
330
1F
100
AcDbEntity
  8
0
 62
   178
100
AcDbLine
 10
129.992210597165
 20
-47.74949642819753
 30
0.0
 11
130.178007177106
 21
-47.68642698472395
 31
0.0
  0
LINE
  5
1D7
330
1F
100
AcDbEntity
  8
0
 62
   178
100
AcDbLine
 10
129.7997713184198
 20
-47.78777498373191
 30
0.0
 11
129.992210597165
 21
-47.74949642819753
 31
0.0
  0
LINE
  5
1D8
330
1F
100
AcDbEntity
  8
0
 62
   178
100
AcDbLine
 10
129.603982030284
 20
-47.80060769462907
 30
0.0
 11
129.7997713184198
 21
-47.78777498373191
 31
0.0
  0
LINE
  5
1D9
330
1F
100
AcDbEntity
  8
0
 62
   178
100
AcDbLine
 10
129.4081927417596
 20
-47.78777498964768
 30
0.0
 11
129.603982030284
 21
-47.80060769462907
 31
0.0
  0
LINE
  5
1DA
330
1F
100
AcDbEntity
  8
0
 62
   178
100
AcDbLine
 10
129.2157534618574
 20
-47.74949643992807
 30
0.0
 11
129.4081927417596
 21
-47.78777498964768
 31
0.0
  0
LINE
  5
1DB
330
1F
100
AcDbEntity
  8
0
 62
   178
100
AcDbLine
 10
129.0299568800108
 20
-47.68642700206808
 30
0.0
 11
129.2157534618574
 21
-47.74949643992807
 31
0.0
  0
LINE
  5
1DC
330
1F
100
AcDbEntity
  8
0
 62
   178
100
AcDbLine
 10
128.853982027248
 20
-47.59964581163631
 30
0.0
 11
129.0299568800108
 21
-47.68642700206808
 31
0.0
  0
LINE
  5
1DD
330
1F
100
AcDbEntity
  8
0
 62
   178
100
AcDbLine
 10
128.6908398820875
 20
-47.49063771886117
 30
0.0
 11
128.853982027248
 21
-47.59964581163631
 31
0.0
  0
LINE
  5
1DE
330
1F
100
AcDbEntity
  8
0
 62
   178
100
AcDbLine
 10
128.5433218518665
 20
-47.36126788243278
 30
0.0
 11
128.6908398820875
 21
-47.49063771886117
 31
0.0
  0
LINE
  5
1DF
330
1F
100
AcDbEntity
  8
0
 62
   178
100
AcDbLine
 10
128.4139520109813
 20
-47.21374985612047
 30
0.0
 11
128.5433218518665
 21
-47.36126788243278
 31
0.0
  0
LINE
  5
1E0
330
1F
100
AcDbEntity
  8
0
 62
   178
100
AcDbLine
 10
128.3049439132763
 20
-47.05060771425477
 30
0.0
 11
128.4139520109813
 21
-47.21374985612047
 31
0.0
  0
LINE
  5
1E1
330
1F
100
AcDbEntity
  8
0
 62
   178
100
AcDbLine
 10
129.215753461857
 20
-112.749496439928
 30
0.0
 11
129.4081927417598
 21
-112.7877749896479
 31
0.0
  0
LINE
  5
1E2
330
1F
100
AcDbEntity
  8
0
 62
   178
100
AcDbLine
 10
129.0299568800103
 20
-112.6864270020683
 30
0.0
 11
129.215753461857
 21
-112.749496439928
 31
0.0
  0
LINE
  5
1E3
330
1F
100
AcDbEntity
  8
0
 62
   178
100
AcDbLine
 10
128.8539820272478
 20
-112.5996458116365
 30
0.0
 11
129.0299568800103
 21
-112.6864270020683
 31
0.0
  0
LINE
  5
1E4
330
1F
100
AcDbEntity
  8
0
 62
   178
100
AcDbLine
 10
128.690839882087
 20
-112.4906377188614
 30
0.0
 11
128.8539820272478
 21
-112.5996458116365
 31
0.0
  0
LINE
  5
1E5
330
1F
100
AcDbEntity
  8
0
 62
   178
100
AcDbLine
 10
128.5433218518667
 20
-112.3612678824329
 30
0.0
 11
128.690839882087
 21
-112.4906377188614
 31
0.0
  0
LINE
  5
1E6
330
1F
100
AcDbEntity
  8
0
 62
   178
100
AcDbLine
 10
128.4139520109811
 20
-112.2137498561206
 30
0.0
 11
128.5433218518667
 21
-112.3612678824329
 31
0.0
  0
LINE
  5
1E7
330
1F
100
AcDbEntity
  8
0
 62
   178
100
AcDbLine
 10
128.3049439132759
 20
-112.0506077142543
 30
0.0
 11
128.4139520109811
 21
-112.2137498561206
 31
0.0
  0
LINE
  5
1E8
330
1F
100
AcDbEntity
  8
0
 62
   178
100
AcDbLine
 10
128.2181627175278
 20
-111.874632864113
 30
0.0
 11
128.3049439132759
 21
-112.0506077142543
 31
0.0
  0
LINE
  5
1E9
330
1F
100
AcDbEntity
  8
0
 62
   178
100
AcDbLine
 10
128.1550932740534
 20
-111.688836284172
 30
0.0
 11
128.2181627175278
 21
-111.874632864113
 31
0.0
  0
LINE
  5
1EA
330
1F
100
AcDbEntity
  8
0
 62
   178
100
AcDbLine
 10
128.1168147185199
 20
-111.4963970054266
 30
0.0
 11
128.1550932740534
 21
-111.688836284172
 31
0.0
  0
LINE
  5
1EB
330
1F
100
AcDbEntity
  8
0
 62
   178
100
AcDbLine
 10
128.1039820076228
 20
-111.3006077172903
 30
0.0
 11
128.1168147185199
 21
-111.4963970054266
 31
0.0
  0
LINE
  5
1EC
330
1F
100
AcDbEntity
  8
0
 62
   178
100
AcDbLine
 10
128.1168147126041
 20
-111.1048184287665
 30
0.0
 11
128.1039820076228
 21
-111.3006077172903
 31
0.0
  0
LINE
  5
1ED
330
1F
100
AcDbEntity
  8
0
 62
   178
100
AcDbLine
 10
128.1550932623234
 20
-110.9123791488645
 30
0.0
 11
128.1168147126041
 21
-111.1048184287665
 31
0.0
  0
LINE
  5
1EE
330
1F
100
AcDbEntity
  8
0
 62
   178
100
AcDbLine
 10
128.2181627001829
 20
-110.7265825670177
 30
0.0
 11
128.1550932623234
 21
-110.9123791488645
 31
0.0
  0
LINE
  5
1EF
330
1F
100
AcDbEntity
  8
0
 62
   178
100
AcDbLine
 10
128.3049438906147
 20
-110.5506077142543
 30
0.0
 11
128.2181627001829
 21
-110.7265825670177
 31
0.0
  0
LINE
  5
1F0
330
1F
100
AcDbEntity
  8
0
 62
   178
100
AcDbLine
 10
128.4139519833907
 20
-110.3874655690944
 30
0.0
 11
128.3049438906147
 21
-110.5506077142543
 31
0.0
  0
LINE
  5
1F1
330
1F
100
AcDbEntity
  8
0
 62
   178
100
AcDbLine
 10
128.5433218198189
 20
-110.2399475388732
 30
0.0
 11
128.4139519833907
 21
-110.3874655690944
 31
0.0
  0
LINE
  5
1F2
330
1F
100
AcDbEntity
  8
0
 62
   178
100
AcDbLine
 10
128.6908398461314
 20
-110.1105776979877
 30
0.0
 11
128.5433218198189
 21
-110.2399475388732
 31
0.0
  0
LINE
  5
1F3
330
1F
100
AcDbEntity
  8
0
 62
   178
100
AcDbLine
 10
128.8539819879977
 20
-110.0015696002832
 30
0.0
 11
128.6908398461314
 21
-110.1105776979877
 31
0.0
  0
LINE
  5
1F4
330
1F
100
AcDbEntity
  8
0
 62
   178
100
AcDbLine
 10
129.0299568381383
 20
-109.9147884045344
 30
0.0
 11
128.8539819879977
 21
-110.0015696002832
 31
0.0
  0
LINE
  5
1F5
330
1F
100
AcDbEntity
  8
0
 62
   178
100
AcDbLine
 10
129.21575341808
 20
-109.8517189610608
 30
0.0
 11
129.0299568381383
 21
-109.9147884045344
 31
0.0
  0
LINE
  5
1F6
330
1F
100
AcDbEntity
  8
0
 62
   178
100
AcDbLine
 10
129.4081926968246
 20
-109.8134404055265
 30
0.0
 11
129.21575341808
 21
-109.8517189610608
 31
0.0
  0
LINE
  5
1F7
330
1F
100
AcDbEntity
  8
0
 62
   178
100
AcDbLine
 10
129.6039819849617
 20
-109.8006076946293
 30
0.0
 11
129.4081926968246
 21
-109.8134404055265
 31
0.0
  0
LINE
  5
1F8
330
1F
100
AcDbEntity
  8
0
 62
   178
100
AcDbLine
 10
129.7997712734848
 20
-109.8134403996108
 30
0.0
 11
129.6039819849617
 21
-109.8006076946293
 31
0.0
  0
LINE
  5
1F9
330
1F
100
AcDbEntity
  8
0
 62
   178
100
AcDbLine
 10
129.9922105533876
 20
-109.8517189493305
 30
0.0
 11
129.7997712734848
 21
-109.8134403996108
 31
0.0
  0
LINE
  5
1FA
330
1F
100
AcDbEntity
  8
0
 62
   178
100
AcDbLine
 10
130.1780071352335
 20
-109.9147883871904
 30
0.0
 11
129.9922105533876
 21
-109.8517189493305
 31
0.0
  0
LINE
  5
1FB
330
1F
100
AcDbEntity
  8
0
 62
   178
100
AcDbLine
 10
130.3539819879977
 20
-110.0015695776221
 30
0.0
 11
130.1780071352335
 21
-109.9147883871904
 31
0.0
  0
LINE
  5
1FC
330
1F
100
AcDbEntity
  8
0
 62
   178
100
AcDbLine
 10
130.5171241331576
 20
-110.1105776703972
 30
0.0
 11
130.3539819879977
 21
-110.0015695776221
 31
0.0
  0
LINE
  5
1FD
330
1F
100
AcDbEntity
  8
0
 62
   178
100
AcDbLine
 10
130.6646421633785
 20
-110.2399475068256
 30
0.0
 11
130.5171241331576
 21
-110.1105776703972
 31
0.0
  0
LINE
  5
1FE
330
1F
100
AcDbEntity
  8
0
 62
   178
100
AcDbLine
 10
130.7940120042645
 20
-110.3874655331379
 30
0.0
 11
130.6646421633785
 21
-110.2399475068256
 31
0.0
  0
LINE
  5
1FF
330
1F
100
AcDbEntity
  8
0
 62
   178
100
AcDbLine
 10
130.903020101968
 20
-110.5506076750042
 30
0.0
 11
130.7940120042645
 21
-110.3874655331379
 31
0.0
  0
LINE
  5
200
330
1F
100
AcDbEntity
  8
0
 62
   178
100
AcDbLine
 10
130.9898012977168
 20
-110.7265825251455
 30
0.0
 11
130.903020101968
 21
-110.5506076750042
 31
0.0
  0
LINE
  5
201
330
1F
100
AcDbEntity
  8
0
 62
   178
100
AcDbLine
 10
131.0528707411906
 20
-110.9123791050866
 30
0.0
 11
130.9898012977168
 21
-110.7265825251455
 31
0.0
  0
LINE
  5
202
330
1F
100
AcDbEntity
  8
0
 62
   178
100
AcDbLine
 10
131.0911492967256
 20
-111.104818383832
 30
0.0
 11
131.0528707411906
 21
-110.9123791050866
 31
0.0
  0
LINE
  5
203
330
1F
100
AcDbEntity
  8
0
 62
   178
100
AcDbLine
 10
131.1039820076228
 20
-111.3006076719682
 30
0.0
 11
131.0911492967256
 21
-111.104818383832
 31
0.0
  0
LINE
  5
204
330
1F
100
AcDbEntity
  8
0
 62
   178
100
AcDbLine
 10
131.0911493026414
 20
-111.4963969604921
 30
0.0
 11
131.1039820076228
 21
-111.3006076719682
 31
0.0
  0
LINE
  5
205
330
1F
100
AcDbEntity
  8
0
 62
   178
100
AcDbLine
 10
131.0528707529206
 20
-111.6888362403942
 30
0.0
 11
131.0911493026414
 21
-111.4963969604921
 31
0.0
  0
LINE
  5
206
330
1F
100
AcDbEntity
  8
0
 62
   178
100
AcDbLine
 10
130.9898013150616
 20
-111.8746328222408
 30
0.0
 11
131.0528707529206
 21
-111.6888362403942
 31
0.0
  0
LINE
  5
207
330
1F
100
AcDbEntity
  8
0
 62
   178
100
AcDbLine
 10
130.9030201246292
 20
-112.0506076750042
 30
0.0
 11
130.9898013150616
 21
-111.8746328222408
 31
0.0
  0
LINE
  5
208
330
1F
100
AcDbEntity
  8
0
 62
   178
100
AcDbLine
 10
130.7940120318548
 20
-112.2137498201641
 30
0.0
 11
130.9030201246292
 21
-112.0506076750042
 31
0.0
  0
LINE
  5
209
330
1F
100
AcDbEntity
  8
0
 62
   178
100
AcDbLine
 10
130.6646421954263
 20
-112.3612678503853
 30
0.0
 11
130.7940120318548
 21
-112.2137498201641
 31
0.0
  0
LINE
  5
20A
330
1F
100
AcDbEntity
  8
0
 62
   178
100
AcDbLine
 10
130.5171241691132
 20
-112.4906376912709
 30
0.0
 11
130.6646421954263
 21
-112.3612678503853
 31
0.0
  0
LINE
  5
20B
330
1F
100
AcDbEntity
  8
0
 62
   178
100
AcDbLine
 10
130.3539820272479
 20
-112.5996457889754
 30
0.0
 11
130.5171241691132
 21
-112.4906376912709
 31
0.0
  0
LINE
  5
20C
330
1F
100
AcDbEntity
  8
0
 62
   178
100
AcDbLine
 10
130.1780071771056
 20
-112.6864269847243
 30
0.0
 11
130.3539820272479
 21
-112.5996457889754
 31
0.0
  0
LINE
  5
20D
330
1F
100
AcDbEntity
  8
0
 62
   178
100
AcDbLine
 10
129.9922105971646
 20
-112.7494964281977
 30
0.0
 11
130.1780071771056
 21
-112.6864269847243
 31
0.0
  0
LINE
  5
20E
330
1F
100
AcDbEntity
  8
0
 62
   178
100
AcDbLine
 10
129.79977131842
 20
-112.7877749837321
 30
0.0
 11
129.9922105971646
 21
-112.7494964281977
 31
0.0
  0
LINE
  5
20F
330
1F
100
AcDbEntity
  8
0
 62
   178
100
AcDbLine
 10
129.6039820302838
 20
-112.8006076946293
 30
0.0
 11
129.79977131842
 21
-112.7877749837321
 31
0.0
  0
LINE
  5
210
330
1F
100
AcDbEntity
  8
0
 62
   178
100
AcDbLine
 10
129.4081927417598
 20
-112.7877749896479
 30
0.0
 11
129.6039820302838
 21
-112.8006076946293
 31
0.0
  0
LINE
  5
211
330
1F
100
AcDbEntity
  8
0
 62
   178
100
AcDbLine
 10
42.40398201119758
 20
-112.599645793276
 30
0.0
 11
42.56712415368835
 21
-112.4906376965071
 31
0.0
  0
LINE
  5
212
330
1F
100
AcDbEntity
  8
0
 62
   178
100
AcDbLine
 10
42.22800716055816
 20
-112.6864269880158
 30
0.0
 11
42.40398201119758
 21
-112.599645793276
 31
0.0
  0
LINE
  5
213
330
1F
100
AcDbEntity
  8
0
 62
   178
100
AcDbLine
 10
42.04221058025549
 20
-112.7494964304241
 30
0.0
 11
42.22800716055816
 21
-112.6864269880158
 31
0.0
  0
LINE
  5
214
330
1F
100
AcDbEntity
  8
0
 62
   178
100
AcDbLine
 10
41.84977130129061
 20
-112.7877749848548
 30
0.0
 11
42.04221058025549
 21
-112.7494964304241
 31
0.0
  0
LINE
  5
215
330
1F
100
AcDbEntity
  8
0
 62
   178
100
AcDbLine
 10
41.65398201308131
 20
-112.8006076946293
 30
0.0
 11
41.84977130129061
 21
-112.7877749848548
 31
0.0
  0
LINE
  5
216
330
1F
100
AcDbEntity
  8
0
 62
   178
100
AcDbLine
 10
41.45819272463053
 20
-112.7877749885252
 30
0.0
 11
41.65398201308131
 21
-112.8006076946293
 31
0.0
  0
LINE
  5
217
330
1F
100
AcDbEntity
  8
0
 62
   178
100
AcDbLine
 10
41.26575344494789
 20
-112.7494964377019
 30
0.0
 11
41.45819272463053
 21
-112.7877749885252
 31
0.0
  0
LINE
  5
218
330
1F
100
AcDbEntity
  8
0
 62
   178
100
AcDbLine
 10
41.0799568634629
 20
-112.6864269987767
 30
0.0
 11
41.26575344494789
 21
-112.7494964377019
 31
0.0
  0
LINE
  5
219
330
1F
100
AcDbEntity
  8
0
 62
   178
100
AcDbLine
 10
40.90398201119756
 20
-112.5996458073359
 30
0.0
 11
41.0799568634629
 21
-112.6864269987767
 31
0.0
  0
LINE
  5
21A
330
1F
100
AcDbEntity
  8
0
 62
   178
100
AcDbLine
 10
40.74083986666216
 20
-112.4906377136252
 30
0.0
 11
40.90398201119756
 21
-112.5996458073359
 31
0.0
  0
LINE
  5
21B
330
1F
100
AcDbEntity
  8
0
 62
   178
100
AcDbLine
 10
40.59332183718345
 20
-112.3612678763509
 30
0.0
 11
40.74083986666216
 21
-112.4906377136252
 31
0.0
  0
LINE
  5
21C
330
1F
100
AcDbEntity
  8
0
 62
   178
100
AcDbLine
 10
40.46395199714377
 20
-112.2137498492968
 30
0.0
 11
40.59332183718345
 21
-112.3612678763509
 31
0.0
  0
LINE
  5
21D
330
1F
100
AcDbEntity
  8
0
 62
   178
100
AcDbLine
 10
40.35494390037421
 20
-112.0506077068055
 30
0.0
 11
40.46395199714377
 21
-112.2137498492968
 31
0.0
  0
LINE
  5
21E
330
1F
100
AcDbEntity
  8
0
 62
   178
100
AcDbLine
 10
40.26816270563452
 20
-111.8746328561666
 30
0.0
 11
40.35494390037421
 21
-112.0506077068055
 31
0.0
  0
LINE
  5
21F
330
1F
100
AcDbEntity
  8
0
 62
   178
100
AcDbLine
 10
40.20509326322628
 20
-111.6888362758637
 30
0.0
 11
40.26816270563452
 21
-111.8746328561666
 31
0.0
  0
LINE
  5
220
330
1F
100
AcDbEntity
  8
0
 62
   178
100
AcDbLine
 10
40.16681470879591
 20
-111.4963969968989
 30
0.0
 11
40.20509326322628
 21
-111.6888362758637
 31
0.0
  0
LINE
  5
221
330
1F
100
AcDbEntity
  8
0
 62
   178
100
AcDbLine
 10
40.15398199902143
 20
-111.3006077086891
 30
0.0
 11
40.16681470879591
 21
-111.4963969968989
 31
0.0
  0
LINE
  5
222
330
1F
100
AcDbEntity
  8
0
 62
   178
100
AcDbLine
 10
40.16681470512562
 20
-111.1048184202388
 30
0.0
 11
40.15398199902143
 21
-111.3006077086891
 31
0.0
  0
LINE
  5
223
330
1F
100
AcDbEntity
  8
0
 62
   178
100
AcDbLine
 10
40.20509325594843
 20
-110.9123791405562
 30
0.0
 11
40.16681470512562
 21
-111.1048184202388
 31
0.0
  0
LINE
  5
224
330
1F
100
AcDbEntity
  8
0
 62
   178
100
AcDbLine
 10
40.26816269487353
 20
-110.7265825590713
 30
0.0
 11
40.20509325594843
 21
-110.9123791405562
 31
0.0
  0
LINE
  5
225
330
1F
100
AcDbEntity
  8
0
 62
   178
100
AcDbLine
 10
40.35494388631444
 20
-110.5506077068055
 30
0.0
 11
40.26816269487353
 21
-110.7265825590713
 31
0.0
  0
LINE
  5
226
330
1F
100
AcDbEntity
  8
0
 62
   178
100
AcDbLine
 10
40.46395198002563
 20
-110.3874655622706
 30
0.0
 11
40.35494388631444
 21
-110.5506077068055
 31
0.0
  0
LINE
  5
227
330
1F
100
AcDbEntity
  8
0
 62
   178
100
AcDbLine
 10
40.59332181729985
 20
-110.2399475327913
 30
0.0
 11
40.46395198002563
 21
-110.3874655622706
 31
0.0
  0
LINE
  5
228
330
1F
100
AcDbEntity
  8
0
 62
   178
100
AcDbLine
 10
40.74083984435365
 20
-110.1105776927515
 30
0.0
 11
40.59332181729985
 21
-110.2399475327913
 31
0.0
  0
LINE
  5
229
330
1F
100
AcDbEntity
  8
0
 62
   178
100
AcDbLine
 10
40.90398198684542
 20
-110.0015695959826
 30
0.0
 11
40.74083984435365
 21
-110.1105776927515
 31
0.0
  0
LINE
  5
22A
330
1F
100
AcDbEntity
  8
0
 62
   178
100
AcDbLine
 10
41.07995683748383
 20
-109.9147884012428
 30
0.0
 11
40.90398198684542
 21
-110.0015695959826
 31
0.0
  0
LINE
  5
22B
330
1F
100
AcDbEntity
  8
0
 62
   178
100
AcDbLine
 10
41.26575341778633
 20
-109.8517189588347
 30
0.0
 11
41.07995683748383
 21
-109.9147884012428
 31
0.0
  0
LINE
  5
22C
330
1F
100
AcDbEntity
  8
0
 62
   178
100
AcDbLine
 10
41.4581926967514
 20
-109.8134404044038
 30
0.0
 11
41.26575341778633
 21
-109.8517189588347
 31
0.0
  0
LINE
  5
22D
330
1F
100
AcDbEntity
  8
0
 62
   178
100
AcDbLine
 10
41.65398198496169
 20
-109.8006076946293
 30
0.0
 11
41.4581926967514
 21
-109.8134404044038
 31
0.0
  0
LINE
  5
22E
330
1F
100
AcDbEntity
  8
0
 62
   178
100
AcDbLine
 10
41.84977127341147
 20
-109.8134404007334
 30
0.0
 11
41.65398198496169
 21
-109.8006076946293
 31
0.0
  0
LINE
  5
22F
330
1F
100
AcDbEntity
  8
0
 62
   178
100
AcDbLine
 10
42.04221055309393
 20
-109.8517189515568
 30
0.0
 11
41.84977127341147
 21
-109.8134404007334
 31
0.0
  0
LINE
  5
230
330
1F
100
AcDbEntity
  8
0
 62
   178
100
AcDbLine
 10
42.2280071345791
 20
-109.9147883904819
 30
0.0
 11
42.04221055309393
 21
-109.8517189515568
 31
0.0
  0
LINE
  5
231
330
1F
100
AcDbEntity
  8
0
 62
   178
100
AcDbLine
 10
42.40398198684543
 20
-110.0015695819227
 30
0.0
 11
42.2280071345791
 21
-109.9147883904819
 31
0.0
  0
LINE
  5
232
330
1F
100
AcDbEntity
  8
0
 62
   178
100
AcDbLine
 10
42.56712413137985
 20
-110.1105776756334
 30
0.0
 11
42.40398198684543
 21
-110.0015695819227
 31
0.0
  0
LINE
  5
233
330
1F
100
AcDbEntity
  8
0
 62
   178
100
AcDbLine
 10
42.71464216085954
 20
-110.2399475129078
 30
0.0
 11
42.56712413137985
 21
-110.1105776756334
 31
0.0
  0
LINE
  5
234
330
1F
100
AcDbEntity
  8
0
 62
   178
100
AcDbLine
 10
42.84401200089932
 20
-110.3874655399619
 30
0.0
 11
42.71464216085954
 21
-110.2399475129078
 31
0.0
  0
LINE
  5
235
330
1F
100
AcDbEntity
  8
0
 62
   178
100
AcDbLine
 10
42.95302009766779
 20
-110.5506076824532
 30
0.0
 11
42.84401200089932
 21
-110.3874655399619
 31
0.0
  0
LINE
  5
236
330
1F
100
AcDbEntity
  8
0
 62
   178
100
AcDbLine
 10
43.03980129240748
 20
-110.7265825330922
 30
0.0
 11
42.95302009766779
 21
-110.5506076824532
 31
0.0
  0
LINE
  5
237
330
1F
100
AcDbEntity
  8
0
 62
   178
100
AcDbLine
 10
43.10287073481563
 20
-110.9123791133949
 30
0.0
 11
43.03980129240748
 21
-110.7265825330922
 31
0.0
  0
LINE
  5
238
330
1F
100
AcDbEntity
  8
0
 62
   178
100
AcDbLine
 10
43.14114928924709
 20
-111.1048183923597
 30
0.0
 11
43.10287073481563
 21
-110.9123791133949
 31
0.0
  0
LINE
  5
239
330
1F
100
AcDbEntity
  8
0
 62
   178
100
AcDbLine
 10
43.15398199902148
 20
-111.3006076805696
 30
0.0
 11
43.14114928924709
 21
-111.1048183923597
 31
0.0
  0
LINE
  5
23A
330
1F
100
AcDbEntity
  8
0
 62
   178
100
AcDbLine
 10
43.14114929291738
 20
-111.4963969690199
 30
0.0
 11
43.15398199902148
 21
-111.3006076805696
 31
0.0
  0
LINE
  5
23B
330
1F
100
AcDbEntity
  8
0
 62
   178
100
AcDbLine
 10
43.10287074209349
 20
-111.6888362487024
 30
0.0
 11
43.14114929291738
 21
-111.4963969690199
 31
0.0
  0
LINE
  5
23C
330
1F
100
AcDbEntity
  8
0
 62
   178
100
AcDbLine
 10
43.03980130316847
 20
-111.8746328301874
 30
0.0
 11
43.10287074209349
 21
-111.6888362487024
 31
0.0
  0
LINE
  5
23D
330
1F
100
AcDbEntity
  8
0
 62
   178
100
AcDbLine
 10
42.95302011172755
 20
-112.0506076824532
 30
0.0
 11
43.03980130316847
 21
-111.8746328301874
 31
0.0
  0
LINE
  5
23E
330
1F
100
AcDbEntity
  8
0
 62
   178
100
AcDbLine
 10
42.84401201801746
 20
-112.213749826988
 30
0.0
 11
42.95302011172755
 21
-112.0506076824532
 31
0.0
  0
LINE
  5
23F
330
1F
100
AcDbEntity
  8
0
 62
   178
100
AcDbLine
 10
42.71464218074306
 20
-112.3612678564674
 30
0.0
 11
42.84401201801746
 21
-112.213749826988
 31
0.0
  0
LINE
  5
240
330
1F
100
AcDbEntity
  8
0
 62
   178
100
AcDbLine
 10
42.56712415368835
 20
-112.4906376965071
 30
0.0
 11
42.71464218074306
 21
-112.3612678564674
 31
0.0
  0
LINE
  5
241
330
1F
100
AcDbEntity
  8
0
 62
   178
100
AcDbLine
 10
110.533305347445
 20
-129.9539621982076
 30
0.0
 11
109.7568482105931
 21
-129.8517396888051
 31
0.0
  0
LINE
  5
242
330
1F
100
AcDbEntity
  8
0
 62
   178
100
AcDbLine
 10
109.7568482105931
 20
-129.8517396888051
 30
0.0
 11
109.033305341373
 21
-129.552038432222
 31
0.0
  0
LINE
  5
243
330
1F
100
AcDbEntity
  8
0
 62
   178
100
AcDbLine
 10
109.033305341373
 20
-129.552038432222
 30
0.0
 11
108.4119849906108
 21
-129.0752825738149
 31
0.0
  0
LINE
  5
244
330
1F
100
AcDbEntity
  8
0
 62
   178
100
AcDbLine
 10
108.4119849906108
 20
-129.0752825738149
 30
0.0
 11
107.9352291134306
 21
-128.4539622374577
 31
0.0
  0
LINE
  5
245
330
1F
100
AcDbEntity
  8
0
 62
   178
100
AcDbLine
 10
107.9352291134306
 20
-128.4539622374577
 30
0.0
 11
107.6355278349859
 21
-127.730419377293
 31
0.0
  0
LINE
  5
246
330
1F
100
AcDbEntity
  8
0
 62
   178
100
AcDbLine
 10
107.6355278349859
 20
-127.730419377293
 30
0.0
 11
107.5333053021229
 21
-126.9539622435298
 31
0.0
  0
LINE
  5
247
330
1F
100
AcDbEntity
  8
0
 62
   178
100
AcDbLine
 10
107.5333053021229
 20
-126.9539622435298
 30
0.0
 11
107.6355278115253
 21
-126.1775051066779
 31
0.0
  0
LINE
  5
248
330
1F
100
AcDbEntity
  8
0
 62
   178
100
AcDbLine
 10
107.6355278115253
 20
-126.1775051066779
 30
0.0
 11
107.9352290681085
 21
-125.4539622374578
 31
0.0
  0
LINE
  5
249
330
1F
100
AcDbEntity
  8
0
 62
   178
100
AcDbLine
 10
107.9352290681085
 20
-125.4539622374578
 30
0.0
 11
108.4119849265155
 21
-124.8326418866956
 31
0.0
  0
LINE
  5
24A
330
1F
100
AcDbEntity
  8
0
 62
   178
100
AcDbLine
 10
108.4119849265155
 20
-124.8326418866956
 30
0.0
 11
109.0333052628727
 21
-124.3558860095154
 31
0.0
  0
LINE
  5
24B
330
1F
100
AcDbEntity
  8
0
 62
   178
100
AcDbLine
 10
109.0333052628727
 20
-124.3558860095154
 30
0.0
 11
109.7568481230374
 21
-124.0561847310707
 31
0.0
  0
LINE
  5
24C
330
1F
100
AcDbEntity
  8
0
 62
   178
100
AcDbLine
 10
109.7568481230374
 20
-124.0561847310707
 30
0.0
 11
110.5333052568007
 21
-123.9539621982076
 31
0.0
  0
LINE
  5
24D
330
1F
100
AcDbEntity
  8
0
 62
   178
100
AcDbLine
 10
124.6539820076267
 20
-53.30060769462867
 30
0.0
 11
46.65398200762637
 21
-53.30060769462902
 31
0.0
  0
LINE
  5
24E
330
1F
100
AcDbEntity
  8
0
 62
   178
100
AcDbLine
 10
46.65398200762637
 20
-53.30060769462902
 30
0.0
 11
46.65398200761695
 21
-104.3006076946294
 31
0.0
  0
LINE
  5
24F
330
1F
100
AcDbEntity
  8
0
 62
   178
100
AcDbLine
 10
46.65398200761695
 20
-104.3006076946294
 30
0.0
 11
124.6539820076173
 21
-104.3006076946286
 31
0.0
  0
LINE
  5
250
330
1F
100
AcDbEntity
  8
0
 62
   178
100
AcDbLine
 10
124.6539820076173
 20
-104.3006076946286
 30
0.0
 11
124.6539820076267
 21
-53.30060769462867
 31
0.0
  0
LINE
  5
251
330
1F
100
AcDbEntity
  8
0
 62
   178
100
AcDbLine
 10
51.65398200761472
 20
-60.30060769462927
 30
0.0
 11
51.65398200761747
 21
-97.30060769462929
 31
0.0
  0
LINE
  5
252
330
1F
100
AcDbEntity
  8
0
 62
   178
100
AcDbLine
 10
51.65398200761472
 20
-60.30060769462927
 30
0.0
 11
51.72213035503699
 21
-59.7829696044242
 31
0.0
  0
LINE
  5
253
330
1F
100
AcDbEntity
  8
0
 62
   178
100
AcDbLine
 10
51.72213035503699
 20
-59.7829696044242
 30
0.0
 11
51.92193120004647
 21
-59.30060769462919
 31
0.0
  0
LINE
  5
254
330
1F
100
AcDbEntity
  8
0
 62
   178
100
AcDbLine
 10
51.92193120004647
 20
-59.30060769462919
 30
0.0
 11
52.23976844524242
 21
-58.88639413225609
 31
0.0
  0
LINE
  5
255
330
1F
100
AcDbEntity
  8
0
 62
   178
100
AcDbLine
 10
52.23976844524242
 20
-58.88639413225609
 30
0.0
 11
52.65398200761546
 21
-58.56855688706034
 31
0.0
  0
LINE
  5
256
330
1F
100
AcDbEntity
  8
0
 62
   178
100
AcDbLine
 10
52.65398200761546
 20
-58.56855688706034
 30
0.0
 11
53.13634391741053
 21
-58.3687560420511
 31
0.0
  0
LINE
  5
257
330
1F
100
AcDbEntity
  8
0
 62
   178
100
AcDbLine
 10
53.13634391741053
 20
-58.3687560420511
 30
0.0
 11
53.65398200761523
 21
-58.30060769462924
 31
0.0
  0
LINE
  5
258
330
1F
100
AcDbEntity
  8
0
 62
   178
100
AcDbLine
 10
119.6539820076172
 20
-97.30060769462852
 30
0.0
 11
119.6539820076144
 21
-60.30060769462869
 31
0.0
  0
LINE
  5
259
330
1F
100
AcDbEntity
  8
0
 62
   178
100
AcDbLine
 10
53.65398200761776
 20
-99.30060769462935
 30
0.0
 11
117.6539820076169
 21
-99.30060769462857
 31
0.0
  0
LINE
  5
25A
330
1F
100
AcDbEntity
  8
0
 62
   178
100
AcDbLine
 10
117.6539820076144
 20
-58.30060769462855
 30
0.0
 11
53.65398200761523
 21
-58.30060769462924
 31
0.0
  0
LINE
  5
25B
330
1F
100
AcDbEntity
  8
0
 62
   178
100
AcDbLine
 10
53.65398200761776
 20
-99.30060769462935
 30
0.0
 11
53.13634391741233
 21
-99.23245934720742
 31
0.0
  0
LINE
  5
25C
330
1F
100
AcDbEntity
  8
0
 62
   178
100
AcDbLine
 10
53.13634391741233
 20
-99.23245934720742
 30
0.0
 11
52.65398200761798
 21
-99.03265850219809
 31
0.0
  0
LINE
  5
25D
330
1F
100
AcDbEntity
  8
0
 62
   178
100
AcDbLine
 10
52.65398200761798
 20
-99.03265850219809
 30
0.0
 11
52.2397684452442
 21
-98.71482125700221
 31
0.0
  0
LINE
  5
25E
330
1F
100
AcDbEntity
  8
0
 62
   178
100
AcDbLine
 10
52.2397684452442
 20
-98.71482125700221
 30
0.0
 11
51.92193120004897
 21
-98.30060769462943
 31
0.0
  0
LINE
  5
25F
330
1F
100
AcDbEntity
  8
0
 62
   178
100
AcDbLine
 10
51.92193120004897
 20
-98.30060769462943
 30
0.0
 11
51.72213035503949
 21
-97.81824578483436
 31
0.0
  0
LINE
  5
260
330
1F
100
AcDbEntity
  8
0
 62
   178
100
AcDbLine
 10
51.72213035503949
 20
-97.81824578483436
 30
0.0
 11
51.65398200761747
 21
-97.30060769462929
 31
0.0
  0
LINE
  5
261
330
1F
100
AcDbEntity
  8
0
 62
   178
100
AcDbLine
 10
119.6539820076172
 20
-97.30060769462852
 30
0.0
 11
119.5858336601951
 21
-97.81824578483369
 31
0.0
  0
LINE
  5
262
330
1F
100
AcDbEntity
  8
0
 62
   178
100
AcDbLine
 10
119.5858336601951
 20
-97.81824578483369
 30
0.0
 11
119.3860328151857
 21
-98.30060769462867
 31
0.0
  0
LINE
  5
263
330
1F
100
AcDbEntity
  8
0
 62
   178
100
AcDbLine
 10
119.3860328151857
 20
-98.30060769462867
 30
0.0
 11
119.0681955699905
 21
-98.7148212570018
 31
0.0
  0
LINE
  5
264
330
1F
100
AcDbEntity
  8
0
 62
   178
100
AcDbLine
 10
119.0681955699905
 20
-98.7148212570018
 30
0.0
 11
118.6539820076174
 21
-99.03265850219772
 31
0.0
  0
LINE
  5
265
330
1F
100
AcDbEntity
  8
0
 62
   178
100
AcDbLine
 10
118.6539820076174
 20
-99.03265850219772
 30
0.0
 11
118.1716200978223
 21
-99.23245934720711
 31
0.0
  0
LINE
  5
266
330
1F
100
AcDbEntity
  8
0
 62
   178
100
AcDbLine
 10
118.1716200978223
 20
-99.23245934720711
 30
0.0
 11
117.6539820076169
 21
-99.30060769462857
 31
0.0
  0
LINE
  5
267
330
1F
100
AcDbEntity
  8
0
 62
   178
100
AcDbLine
 10
117.6539820076144
 20
-58.30060769462855
 30
0.0
 11
118.1716200978198
 21
-58.36875604205022
 31
0.0
  0
LINE
  5
268
330
1F
100
AcDbEntity
  8
0
 62
   178
100
AcDbLine
 10
118.1716200978198
 20
-58.36875604205022
 30
0.0
 11
118.6539820076142
 21
-58.56855688705965
 31
0.0
  0
LINE
  5
269
330
1F
100
AcDbEntity
  8
0
 62
   178
100
AcDbLine
 10
118.6539820076142
 20
-58.56855688705965
 30
0.0
 11
119.0681955699879
 21
-58.88639413225545
 31
0.0
  0
LINE
  5
26A
330
1F
100
AcDbEntity
  8
0
 62
   178
100
AcDbLine
 10
119.0681955699879
 20
-58.88639413225545
 30
0.0
 11
119.3860328151832
 21
-59.30060769462855
 31
0.0
  0
LINE
  5
26B
330
1F
100
AcDbEntity
  8
0
 62
   178
100
AcDbLine
 10
119.3860328151832
 20
-59.30060769462855
 30
0.0
 11
119.5858336601927
 21
-59.78296960442357
 31
0.0
  0
LINE
  5
26C
330
1F
100
AcDbEntity
  8
0
 62
   178
100
AcDbLine
 10
119.5858336601927
 20
-59.78296960442357
 30
0.0
 11
119.6539820076144
 21
-60.30060769462869
 31
0.0
  0
LINE
  5
26D
330
1F
100
AcDbEntity
  8
0
 62
   178
100
AcDbLine
 10
110.5333052568007
 20
-123.9539621982076
 30
0.0
 11
111.3230138919007
 21
-124.0561847253106
 31
0.0
  0
LINE
  5
26E
330
1F
100
AcDbEntity
  8
0
 62
   178
100
AcDbLine
 10
111.3230138919009
 20
-129.8517396830451
 30
0.0
 11
110.533305347445
 21
-129.9539621982076
 31
0.0
  0
LINE
  5
26F
330
1F
100
AcDbEntity
  8
0
 62
   178
100
AcDbLine
 10
112.0465567565933
 20
-129.5520384155311
 30
0.0
 11
111.3230138919009
 21
-129.8517396830451
 31
0.0
  0
LINE
  5
270
330
1F
100
AcDbEntity
  8
0
 62
   178
100
AcDbLine
 10
112.6678771001529
 20
-129.0752825477375
 30
0.0
 11
112.0465567565933
 21
-129.5520384155311
 31
0.0
  0
LINE
  5
271
330
1F
100
AcDbEntity
  8
0
 62
   178
100
AcDbLine
 10
113.1446329679466
 20
-128.4539622041778
 30
0.0
 11
112.6678771001529
 21
-129.0752825477375
 31
0.0
  0
LINE
  5
272
330
1F
100
AcDbEntity
  8
0
 62
   178
100
AcDbLine
 10
113.4443342354604
 20
-127.7304193394854
 30
0.0
 11
113.1446329679466
 21
-128.4539622041778
 31
0.0
  0
LINE
  5
273
330
1F
100
AcDbEntity
  8
0
 62
   178
100
AcDbLine
 10
113.5465567565933
 20
-126.9539622041778
 30
0.0
 11
113.4443342354604
 21
-127.7304193394854
 31
0.0
  0
LINE
  5
274
330
1F
100
AcDbEntity
  8
0
 62
   178
100
AcDbLine
 10
113.4443342354604
 20
-126.1775050688702
 30
0.0
 11
113.5465567565933
 21
-126.9539622041778
 31
0.0
  0
LINE
  5
275
330
1F
100
AcDbEntity
  8
0
 62
   178
100
AcDbLine
 10
113.1446329679464
 20
-125.4539622041778
 30
0.0
 11
113.4443342354604
 21
-126.1775050688702
 31
0.0
  0
LINE
  5
276
330
1F
100
AcDbEntity
  8
0
 62
   178
100
AcDbLine
 10
112.6678771001528
 20
-124.8326418606182
 30
0.0
 11
113.1446329679464
 21
-125.4539622041778
 31
0.0
  0
LINE
  5
277
330
1F
100
AcDbEntity
  8
0
 62
   178
100
AcDbLine
 10
112.0465567565931
 20
-124.3558859928245
 30
0.0
 11
112.6678771001528
 21
-124.8326418606182
 31
0.0
  0
LINE
  5
278
330
1F
100
AcDbEntity
  8
0
 62
   178
100
AcDbLine
 10
111.3230138919007
 20
-124.0561847253106
 30
0.0
 11
112.0465567565931
 21
-124.3558859928245
 31
0.0
  0
LINE
  5
279
330
1F
100
AcDbEntity
  8
0
 62
   178
100
AcDbLine
 10
112.3143237095583
 20
-125.1861952512115
 30
0.0
 11
112.7116202660529
 21
-125.7039622041779
 31
0.0
  0
LINE
  5
27A
330
1F
100
AcDbEntity
  8
0
 62
   178
100
AcDbLine
 10
111.7965567565918
 20
-124.7888986947168
 30
0.0
 11
112.3143237095583
 21
-125.1861952512115
 31
0.0
  0
LINE
  5
27B
330
1F
100
AcDbEntity
  8
0
 62
   178
100
AcDbLine
 10
111.1936043693482
 20
-124.5391476384552
 30
0.0
 11
111.7965567565918
 21
-124.7888986947168
 31
0.0
  0
LINE
  5
27C
330
1F
100
AcDbEntity
  8
0
 62
   178
100
AcDbLine
 10
110.5465567565918
 20
-124.4539622041779
 30
0.0
 11
111.1936043693482
 21
-124.5391476384552
 31
0.0
  0
LINE
  5
27D
330
1F
100
AcDbEntity
  8
0
 62
   178
100
AcDbLine
 10
109.8995091438355
 20
-124.5391476384552
 30
0.0
 11
110.5465567565918
 21
-124.4539622041779
 31
0.0
  0
LINE
  5
27E
330
1F
100
AcDbEntity
  8
0
 62
   178
100
AcDbLine
 10
109.2965567565919
 20
-124.7888986947168
 30
0.0
 11
109.8995091438355
 21
-124.5391476384552
 31
0.0
  0
LINE
  5
27F
330
1F
100
AcDbEntity
  8
0
 62
   178
100
AcDbLine
 10
108.7787898036255
 20
-125.1861952512115
 30
0.0
 11
109.2965567565919
 21
-124.7888986947168
 31
0.0
  0
LINE
  5
280
330
1F
100
AcDbEntity
  8
0
 62
   178
100
AcDbLine
 10
108.3814932471308
 20
-125.7039622041779
 30
0.0
 11
108.7787898036255
 21
-125.1861952512115
 31
0.0
  0
LINE
  5
281
330
1F
100
AcDbEntity
  8
0
 62
   178
100
AcDbLine
 10
108.1317421908692
 20
-126.3069145914216
 30
0.0
 11
108.3814932471308
 21
-125.7039622041779
 31
0.0
  0
LINE
  5
282
330
1F
100
AcDbEntity
  8
0
 62
   178
100
AcDbLine
 10
108.0465567565919
 20
-126.9539622041779
 30
0.0
 11
108.1317421908692
 21
-126.3069145914216
 31
0.0
  0
LINE
  5
283
330
1F
100
AcDbEntity
  8
0
 62
   178
100
AcDbLine
 10
108.1317421908692
 20
-127.6010098169342
 30
0.0
 11
108.0465567565919
 21
-126.9539622041779
 31
0.0
  0
LINE
  5
284
330
1F
100
AcDbEntity
  8
0
 62
   178
100
AcDbLine
 10
108.3814932471308
 20
-128.2039622041779
 30
0.0
 11
108.1317421908692
 21
-127.6010098169342
 31
0.0
  0
LINE
  5
285
330
1F
100
AcDbEntity
  8
0
 62
   178
100
AcDbLine
 10
108.7787898036255
 20
-128.7217291571442
 30
0.0
 11
108.3814932471308
 21
-128.2039622041779
 31
0.0
  0
LINE
  5
286
330
1F
100
AcDbEntity
  8
0
 62
   178
100
AcDbLine
 10
109.2965567565919
 20
-129.119025713639
 30
0.0
 11
108.7787898036255
 21
-128.7217291571442
 31
0.0
  0
LINE
  5
287
330
1F
100
AcDbEntity
  8
0
 62
   178
100
AcDbLine
 10
109.8995091438356
 20
-129.3687767699005
 30
0.0
 11
109.2965567565919
 21
-129.119025713639
 31
0.0
  0
LINE
  5
288
330
1F
100
AcDbEntity
  8
0
 62
   178
100
AcDbLine
 10
110.5465567565919
 20
-129.4539622041779
 30
0.0
 11
109.8995091438356
 21
-129.3687767699005
 31
0.0
  0
LINE
  5
289
330
1F
100
AcDbEntity
  8
0
 62
   178
100
AcDbLine
 10
111.1936043693482
 20
-129.3687767699005
 30
0.0
 11
110.5465567565919
 21
-129.4539622041779
 31
0.0
  0
LINE
  5
28A
330
1F
100
AcDbEntity
  8
0
 62
   178
100
AcDbLine
 10
111.7965567565919
 20
-129.119025713639
 30
0.0
 11
111.1936043693482
 21
-129.3687767699005
 31
0.0
  0
LINE
  5
28B
330
1F
100
AcDbEntity
  8
0
 62
   178
100
AcDbLine
 10
112.3143237095583
 20
-128.7217291571442
 30
0.0
 11
111.7965567565919
 21
-129.119025713639
 31
0.0
  0
LINE
  5
28C
330
1F
100
AcDbEntity
  8
0
 62
   178
100
AcDbLine
 10
112.7116202660529
 20
-128.2039622041779
 30
0.0
 11
112.3143237095583
 21
-128.7217291571442
 31
0.0
  0
LINE
  5
28D
330
1F
100
AcDbEntity
  8
0
 62
   178
100
AcDbLine
 10
112.9613713223145
 20
-127.6010098169342
 30
0.0
 11
112.7116202660529
 21
-128.2039622041779
 31
0.0
  0
LINE
  5
28E
330
1F
100
AcDbEntity
  8
0
 62
   178
100
AcDbLine
 10
113.0465567565918
 20
-126.9539622041779
 30
0.0
 11
112.9613713223145
 21
-127.6010098169342
 31
0.0
  0
LINE
  5
28F
330
1F
100
AcDbEntity
  8
0
 62
   178
100
AcDbLine
 10
112.9613713223145
 20
-126.3069145914216
 30
0.0
 11
113.0465567565918
 21
-126.9539622041779
 31
0.0
  0
LINE
  5
290
330
1F
100
AcDbEntity
  8
0
 62
   178
100
AcDbLine
 10
112.7116202660529
 20
-125.7039622041779
 30
0.0
 11
112.9613713223145
 21
-126.3069145914216
 31
0.0
  0
LINE
  5
291
330
1F
100
AcDbEntity
  8
0
 62
   178
100
AcDbLine
 10
113.819949931812
 20
145.0494010097637
 30
0.0
 11
113.7786940745191
 21
145.0493930054602
 31
0.0
  0
LINE
  5
292
330
1F
100
AcDbEntity
  8
0
 62
   178
100
AcDbLine
 10
-309.0110208713693
 20
130.0762944378387
 30
0.0
 11
-309.0110241771702
 21
130.1175456685267
 31
0.0
  0
LINE
  5
293
330
1F
100
AcDbEntity
  8
0
 62
   178
100
AcDbLine
 10
-312.0110209425831
 20
134.022506539193
 30
0.0
 11
-312.0110242538994
 21
133.9812489128999
 31
0.0
  0
LINE
  5
294
330
1F
100
AcDbEntity
  8
0
 62
   178
100
AcDbLine
 10
158.9889795509278
 20
130.0763015081176
 30
0.0
 11
158.988979310356
 21
130.1175527388054
 31
0.0
  0
LINE
  5
295
330
1F
100
AcDbEntity
  8
0
 62
   178
100
AcDbLine
 10
115.9889848532066
 20
-157.9505980307726
 30
0.0
 11
155.9889841436794
 21
-157.9505987937464
 31
0.0
  0
LINE
  5
296
330
1F
100
AcDbEntity
  8
0
 62
   178
100
AcDbLine
 10
-309.0110162278859
 20
-157.9506059665416
 30
0.0
 11
-269.0110151467871
 21
-157.9506038110682
 31
0.0
  0
LINE
  5
297
330
1F
100
AcDbEntity
  8
0
 62
   178
100
AcDbLine
 10
115.9889849284175
 20
-160.9505980307725
 30
0.0
 11
155.9889842188889
 21
-160.9505987937463
 31
0.0
  0
LINE
  5
298
330
1F
100
AcDbEntity
  8
0
 62
   178
100
AcDbLine
 10
-309.0110161526754
 20
-160.9506053705208
 30
0.0
 11
-269.0110150715763
 21
-160.9505974396535
 31
0.0
  0
LINE
  5
299
330
1F
100
AcDbEntity
  8
0
 62
   178
100
AcDbLine
 10
-269.0110150715763
 20
-160.9505974396535
 30
0.0
 11
115.9889849284175
 21
-160.9505980307725
 31
0.0
  0
LINE
  5
29A
330
1F
100
AcDbEntity
  8
0
 62
   178
100
AcDbLine
 10
115.988979649736
 20
145.0494013731791
 30
0.0
 11
155.9889789402089
 21
145.0494006102054
 31
0.0
  0
LINE
  5
29B
330
1F
100
AcDbEntity
  8
0
 62
   178
100
AcDbLine
 10
-309.0110214313567
 20
145.0493940334305
 30
0.0
 11
-269.0110203502583
 21
145.0494019642989
 31
0.0
  0
LINE
  5
29C
330
1F
100
AcDbEntity
  8
0
 62
   178
100
AcDbLine
 10
113.7786940745191
 20
145.0493930054602
 30
0.0
 11
115.988979649736
 21
145.0494013731791
 31
0.0
  0
LINE
  5
29D
330
1F
100
AcDbEntity
  8
0
 62
   178
100
AcDbLine
 10
-269.0110202750473
 20
142.0494019642983
 30
0.0
 11
115.9889797334636
 21
142.0494013731792
 31
0.0
  0
LINE
  5
29E
330
1F
100
AcDbEntity
  8
0
 62
   178
100
AcDbLine
 10
115.9889797334636
 20
142.0494013731792
 30
0.0
 11
155.9889790154183
 21
142.0494006102054
 31
0.0
  0
LINE
  5
29F
330
1F
100
AcDbEntity
  8
0
 62
   178
100
AcDbLine
 10
-309.0110213561466
 20
142.0494005887888
 30
0.0
 11
-269.0110202750473
 21
142.0494019642983
 31
0.0
  0
LINE
  5
2A0
330
1F
100
AcDbEntity
  8
0
 62
   178
100
AcDbLine
 10
113.7786940745191
 20
145.0493930054602
 30
0.0
 11
-269.0110203502583
 21
145.0494019642989
 31
0.0
  0
LINE
  5
2A1
330
1F
100
AcDbEntity
  8
0
 62
   178
100
AcDbLine
 10
-309.0110241771702
 20
130.1175456685267
 30
0.0
 11
-309.0110196707528
 21
102.0494013600041
 31
0.0
  0
LINE
  5
2A2
330
1F
100
AcDbEntity
  8
0
 62
   178
100
AcDbLine
 10
-309.0110157510831
 20
-117.9505986399986
 30
0.0
 11
-309.0110162278859
 21
-157.9506059665416
 31
0.0
  0
LINE
  5
2A3
330
1F
100
AcDbEntity
  8
0
 62
   178
100
AcDbLine
 10
-309.0110213561466
 20
142.0494005887888
 30
0.0
 11
-309.0110241771702
 21
130.1175456685267
 31
0.0
  0
LINE
  5
2A4
330
1F
100
AcDbEntity
  8
0
 62
   178
100
AcDbLine
 10
-312.0110242538994
 20
133.9812489128999
 30
0.0
 11
-312.0110209845755
 21
142.0494005479665
 31
0.0
  0
LINE
  5
2A5
330
1F
100
AcDbEntity
  8
0
 62
   178
100
AcDbLine
 10
-312.0110242538994
 20
133.9812489128999
 30
0.0
 11
-312.0110196707528
 21
102.0494013191817
 31
0.0
  0
LINE
  5
2A6
330
1F
100
AcDbEntity
  8
0
 62
   178
100
AcDbLine
 10
-312.011015751083
 20
-117.950598680821
 30
0.0
 11
-312.0110158563159
 21
-157.9505994520362
 31
0.0
  0
LINE
  5
2A7
330
1F
100
AcDbEntity
  8
0
 62
   178
100
AcDbLine
 10
-312.011015751083
 20
-117.950598680821
 30
0.0
 11
-312.0110196707528
 21
102.0494013191817
 31
0.0
  0
LINE
  5
2A8
330
1F
100
AcDbEntity
  8
0
 62
   178
100
AcDbLine
 10
158.988979310356
 20
130.1175527388054
 30
0.0
 11
158.9889803292414
 21
102.0494084302831
 31
0.0
  0
LINE
  5
2A9
330
1F
100
AcDbEntity
  8
0
 62
   178
100
AcDbLine
 10
158.9889790154202
 20
142.0494076590678
 30
0.0
 11
158.988979310356
 21
130.1175527388054
 31
0.0
  0
LINE
  5
2AA
330
1F
100
AcDbEntity
  8
0
 62
   178
100
AcDbLine
 10
155.9889790154183
 20
142.0494006102054
 30
0.0
 11
155.9889803292415
 21
102.0494083849362
 31
0.0
  0
LINE
  5
2AB
330
1F
100
AcDbEntity
  8
0
 62
   178
100
AcDbLine
 10
158.9889835443794
 20
-157.9505981523759
 30
0.0
 11
158.9889836496107
 21
-117.9505973811615
 31
0.0
  0
LINE
  5
2AC
330
1F
100
AcDbEntity
  8
0
 62
   178
100
AcDbLine
 10
155.9889841436794
 20
-157.9505987937464
 30
0.0
 11
155.9889836496107
 21
-117.9505974265084
 31
0.0
  0
LINE
  5
2AD
330
1F
100
AcDbEntity
  8
0
 62
   178
100
AcDbLine
 10
158.9889836496107
 20
-117.9505973811615
 30
0.0
 11
158.9889803292414
 21
102.0494084302831
 31
0.0
  0
LINE
  5
2AE
330
1F
100
AcDbEntity
  8
0
 62
   178
100
AcDbLine
 10
109.9149926004082
 20
132.5670394076731
 30
0.0
 11
109.8468442608046
 21
132.0494013164385
 31
0.0
  0
LINE
  5
2AF
330
1F
100
AcDbEntity
  8
0
 62
   178
100
AcDbLine
 10
110.1147934381238
 20
133.0494013204881
 30
0.0
 11
109.9149926004082
 21
132.5670394076731
 31
0.0
  0
LINE
  5
2B0
330
1F
100
AcDbEntity
  8
0
 62
   178
100
AcDbLine
 10
110.4326306770623
 20
133.4636148876611
 30
0.0
 11
110.1147934381238
 21
133.0494013204881
 31
0.0
  0
LINE
  5
2B1
330
1F
100
AcDbEntity
  8
0
 62
   178
100
AcDbLine
 10
110.8468442346383
 20
133.7814521391165
 30
0.0
 11
110.4326306770623
 21
133.4636148876611
 31
0.0
  0
LINE
  5
2B2
330
1F
100
AcDbEntity
  8
0
 62
   178
100
AcDbLine
 10
111.3292061414161
 20
133.9812529914111
 30
0.0
 11
110.8468442346383
 21
133.7814521391165
 31
0.0
  0
LINE
  5
2B3
330
1F
100
AcDbEntity
  8
0
 62
   178
100
AcDbLine
 10
111.8468442305916
 20
134.0494013466549
 30
0.0
 11
111.3292061414161
 21
133.9812529914111
 31
0.0
  0
LINE
  5
2B4
330
1F
100
AcDbEntity
  8
0
 62
   178
100
AcDbLine
 10
112.3644823218262
 20
133.9812530070531
 30
0.0
 11
111.8468442305916
 21
134.0494013466549
 31
0.0
  0
LINE
  5
2B5
330
1F
100
AcDbEntity
  8
0
 62
   178
100
AcDbLine
 10
112.8468442346388
 20
133.7814521693296
 30
0.0
 11
112.3644823218262
 21
133.9812530070531
 31
0.0
  0
LINE
  5
2B6
330
1F
100
AcDbEntity
  8
0
 62
   178
100
AcDbLine
 10
113.2610578018088
 20
133.4636149303929
 30
0.0
 11
112.8468442346388
 21
133.7814521693296
 31
0.0
  0
LINE
  5
2B7
330
1F
100
AcDbEntity
  8
0
 62
   178
100
AcDbLine
 10
113.578895053262
 20
133.0494013728198
 30
0.0
 11
113.2610578018088
 21
133.4636149303929
 31
0.0
  0
LINE
  5
2B8
330
1F
100
AcDbEntity
  8
0
 62
   178
100
AcDbLine
 10
113.7786959055649
 20
132.5670394660449
 30
0.0
 11
113.578895053262
 21
133.0494013728198
 31
0.0
  0
LINE
  5
2B9
330
1F
100
AcDbEntity
  8
0
 62
   178
100
AcDbLine
 10
113.8468442608051
 20
132.0494013768671
 30
0.0
 11
113.7786959055649
 21
132.5670394660449
 31
0.0
  0
LINE
  5
2BA
330
1F
100
AcDbEntity
  8
0
 62
   178
100
AcDbLine
 10
113.7786959211987
 20
131.5317632856348
 30
0.0
 11
113.8468442608051
 21
132.0494013768671
 31
0.0
  0
LINE
  5
2BB
330
1F
100
AcDbEntity
  8
0
 62
   178
100
AcDbLine
 10
113.5788950834835
 20
131.0494013728197
 30
0.0
 11
113.7786959211987
 21
131.5317632856348
 31
0.0
  0
LINE
  5
2BC
330
1F
100
AcDbEntity
  8
0
 62
   178
100
AcDbLine
 10
113.2610578445441
 20
130.6351878056467
 30
0.0
 11
113.5788950834835
 21
131.0494013728197
 31
0.0
  0
LINE
  5
2BD
330
1F
100
AcDbEntity
  8
0
 62
   178
100
AcDbLine
 10
112.8468442869677
 20
130.3173505541916
 30
0.0
 11
113.2610578445441
 21
130.6351878056467
 31
0.0
  0
LINE
  5
2BE
330
1F
100
AcDbEntity
  8
0
 62
   178
100
AcDbLine
 10
112.3644823801906
 20
130.1175497018967
 30
0.0
 11
112.8468442869677
 21
130.3173505541916
 31
0.0
  0
LINE
  5
2BF
330
1F
100
AcDbEntity
  8
0
 62
   178
100
AcDbLine
 10
111.8468442910149
 20
130.0494013466547
 30
0.0
 11
112.3644823801906
 21
130.1175497018967
 31
0.0
  0
LINE
  5
2C0
330
1F
100
AcDbEntity
  8
0
 62
   178
100
AcDbLine
 10
111.3292061997804
 20
130.1175496862548
 30
0.0
 11
111.8468442910149
 21
130.0494013466547
 31
0.0
  0
LINE
  5
2C1
330
1F
100
AcDbEntity
  8
0
 62
   178
100
AcDbLine
 10
110.8468442869674
 20
130.3173505239786
 30
0.0
 11
111.3292061997804
 21
130.1175496862548
 31
0.0
  0
LINE
  5
2C2
330
1F
100
AcDbEntity
  8
0
 62
   178
100
AcDbLine
 10
110.4326307197975
 20
130.6351877629149
 30
0.0
 11
110.8468442869674
 21
130.3173505239786
 31
0.0
  0
LINE
  5
2C3
330
1F
100
AcDbEntity
  8
0
 62
   178
100
AcDbLine
 10
110.1147934683452
 20
131.049401320488
 30
0.0
 11
110.4326307197975
 21
130.6351877629149
 31
0.0
  0
LINE
  5
2C4
330
1F
100
AcDbEntity
  8
0
 62
   178
100
AcDbLine
 10
109.914992616042
 20
131.5317632272629
 30
0.0
 11
109.8468442608046
 21
132.0494013164385
 31
0.0
  0
LINE
  5
2C5
330
1F
100
AcDbEntity
  8
0
 62
   178
100
AcDbLine
 10
109.914992616042
 20
131.5317632272629
 30
0.0
 11
110.1147934683452
 21
131.049401320488
 31
0.0
  0
LINE
  5
2C6
330
1F
100
AcDbEntity
  8
0
 62
   178
100
AcDbLine
 10
-266.4952222519024
 20
130.8853400339941
 30
0.0
 11
-266.138526372158
 21
130.5040770813497
 31
0.0
  0
LINE
  5
2C7
330
1F
100
AcDbEntity
  8
0
 62
   178
100
AcDbLine
 10
-266.7410859009417
 20
131.3459314535497
 30
0.0
 11
-266.4952222519024
 21
130.8853400339941
 31
0.0
  0
LINE
  5
2C8
330
1F
100
AcDbEntity
  8
0
 62
   178
100
AcDbLine
 10
-266.8593621179105
 20
131.8544627959336
 30
0.0
 11
-266.7410859009417
 21
131.3459314535497
 31
0.0
  0
LINE
  5
2C9
330
1F
100
AcDbEntity
  8
0
 62
   178
100
AcDbLine
 10
-266.841990574071
 20
132.3762784905552
 30
0.0
 11
-266.8593621179105
 21
131.8544627959336
 31
0.0
  0
LINE
  5
2CA
330
1F
100
AcDbEntity
  8
0
 62
   178
100
AcDbLine
 10
-266.6901551114336
 20
132.8758176601638
 30
0.0
 11
-266.841990574071
 21
132.3762784905552
 31
0.0
  0
LINE
  5
2CB
330
1F
100
AcDbEntity
  8
0
 62
   178
100
AcDbLine
 10
-266.4142030658526
 20
133.3190375358767
 30
0.0
 11
-266.6901551114336
 21
132.8758176601638
 31
0.0
  0
LINE
  5
2CC
330
1F
100
AcDbEntity
  8
0
 62
   178
100
AcDbLine
 10
-266.032940113215
 20
133.6757334156263
 30
0.0
 11
-266.4142030658526
 21
133.3190375358767
 31
0.0
  0
LINE
  5
2CD
330
1F
100
AcDbEntity
  8
0
 62
   178
100
AcDbLine
 10
-265.5723486936545
 20
133.921597064669
 30
0.0
 11
-266.032940113215
 21
133.6757334156263
 31
0.0
  0
LINE
  5
2CE
330
1F
100
AcDbEntity
  8
0
 62
   178
100
AcDbLine
 10
-265.0638173512696
 20
134.0398732816338
 30
0.0
 11
-265.5723486936545
 21
133.921597064669
 31
0.0
  0
LINE
  5
2CF
330
1F
100
AcDbEntity
  8
0
 62
   178
100
AcDbLine
 10
-264.5420016566493
 20
134.0225017377949
 30
0.0
 11
-265.0638173512696
 21
134.0398732816338
 31
0.0
  0
LINE
  5
2D0
330
1F
100
AcDbEntity
  8
0
 62
   178
100
AcDbLine
 10
-264.0424624870441
 20
133.8706662751573
 30
0.0
 11
-264.5420016566493
 21
134.0225017377949
 31
0.0
  0
LINE
  5
2D1
330
1F
100
AcDbEntity
  8
0
 62
   178
100
AcDbLine
 10
-263.599242611332
 20
133.5947142295784
 30
0.0
 11
-264.0424624870441
 21
133.8706662751573
 31
0.0
  0
LINE
  5
2D2
330
1F
100
AcDbEntity
  8
0
 62
   178
100
AcDbLine
 10
-263.2425467315844
 20
133.2134512769338
 30
0.0
 11
-263.599242611332
 21
133.5947142295784
 31
0.0
  0
LINE
  5
2D3
330
1F
100
AcDbEntity
  8
0
 62
   178
100
AcDbLine
 10
-262.9966830825391
 20
132.752859857382
 30
0.0
 11
-263.2425467315844
 21
133.2134512769338
 31
0.0
  0
LINE
  5
2D4
330
1F
100
AcDbEntity
  8
0
 62
   178
100
AcDbLine
 10
-262.8784068655737
 20
132.2443285149957
 30
0.0
 11
-262.9966830825391
 21
132.752859857382
 31
0.0
  0
LINE
  5
2D5
330
1F
100
AcDbEntity
  8
0
 62
   178
100
AcDbLine
 10
-262.8957784094099
 20
131.7225128203766
 30
0.0
 11
-262.8784068655737
 21
132.2443285149957
 31
0.0
  0
LINE
  5
2D6
330
1F
100
AcDbEntity
  8
0
 62
   178
100
AcDbLine
 10
-263.0476138720505
 20
131.2229736507676
 30
0.0
 11
-262.8957784094099
 21
131.7225128203766
 31
0.0
  0
LINE
  5
2D7
330
1F
100
AcDbEntity
  8
0
 62
   178
100
AcDbLine
 10
-263.323565917625
 20
130.7797537750515
 30
0.0
 11
-263.0476138720505
 21
131.2229736507676
 31
0.0
  0
LINE
  5
2D8
330
1F
100
AcDbEntity
  8
0
 62
   178
100
AcDbLine
 10
-263.7048288702751
 20
130.4230578953056
 30
0.0
 11
-263.323565917625
 21
130.7797537750515
 31
0.0
  0
LINE
  5
2D9
330
1F
100
AcDbEntity
  8
0
 62
   178
100
AcDbLine
 10
-264.1654202898263
 20
130.1771942462627
 30
0.0
 11
-263.7048288702751
 21
130.4230578953056
 31
0.0
  0
LINE
  5
2DA
330
1F
100
AcDbEntity
  8
0
 62
   178
100
AcDbLine
 10
-264.6739516322075
 20
130.058918029298
 30
0.0
 11
-264.1654202898263
 21
130.1771942462627
 31
0.0
  0
LINE
  5
2DB
330
1F
100
AcDbEntity
  8
0
 62
   178
100
AcDbLine
 10
-265.1957673268314
 20
130.0762895731369
 30
0.0
 11
-264.6739516322075
 21
130.058918029298
 31
0.0
  0
LINE
  5
2DC
330
1F
100
AcDbEntity
  8
0
 62
   178
100
AcDbLine
 10
-265.6953064964363
 20
130.2281250357744
 30
0.0
 11
-266.138526372158
 21
130.5040770813497
 31
0.0
  0
LINE
  5
2DD
330
1F
100
AcDbEntity
  8
0
 62
   178
100
AcDbLine
 10
-265.6953064964363
 20
130.2281250357744
 30
0.0
 11
-265.1957673268314
 21
130.0762895731369
 31
0.0
  0
LINE
  5
2DE
330
1F
100
AcDbEntity
  8
0
 62
   178
100
AcDbLine
 10
158.9889826829166
 20
-53.89967672918888
 30
0.0
 11
160.9889826664026
 21
-53.8996766989742
 31
0.0
  0
LINE
  5
2DF
330
1F
100
AcDbEntity
  8
0
 62
   178
100
AcDbLine
 10
160.9889826934944
 20
-132.5996758115993
 30
0.0
 11
158.9889836110721
 21
-132.599675841814
 31
0.0
  0
ENDSEC
  0
SECTION
  2
OBJECTS
  0
DICTIONARY
  5
C
330
0
100
AcDbDictionary
  3
ACAD_GROUP
350
D
  3
ACAD_LAYOUT
350
1A
  3
ACAD_MATERIAL
350
43
  3
ACAD_MLEADERSTYLE
350
302
  3
ACAD_MLINESTYLE
350
17
  3
ACAD_PLOTSETTINGS
350
19
  3
ACAD_SCALELIST
350
47
  3
ACAD_VISUALSTYLE
350
2A
  3
ACDBHEADERROUNDTRIPXREC
350
2E0
  3
ACDBVARIABLEDICTIONARY
350
300
  0
DICTIONARY
  5
307
330
8
100
AcDbDictionary
280
     1
  3
ACAD_XREC_ROUNDTRIP
360
308
  0
DICTIONARY
  5
D
102
{ACAD_REACTORS
330
C
102
}
330
C
100
AcDbDictionary
  0
DICTIONARY
  5
1A
102
{ACAD_REACTORS
330
C
102
}
330
C
100
AcDbDictionary
  0
DICTIONARY
  5
43
102
{ACAD_REACTORS
330
C
102
}
330
C
100
AcDbDictionary
  3
BYBLOCK
350
45
  3
BYLAYER
350
44
  3
GLOBAL
350
46
  0
DICTIONARY
  5
302
102
{ACAD_REACTORS
330
C
102
}
330
C
100
AcDbDictionary
  0
DICTIONARY
  5
17
102
{ACAD_REACTORS
330
C
102
}
330
C
100
AcDbDictionary
  3
STANDARD
350
18
  0
DICTIONARY
  5
19
102
{ACAD_REACTORS
330
C
102
}
330
C
100
AcDbDictionary
  0
DICTIONARY
  5
47
102
{ACAD_REACTORS
330
C
102
}
330
C
100
AcDbDictionary
  3
A0
350
48
  3
A1
350
49
  3
A2
350
4A
  3
A3
350
4B
  3
A4
350
4C
  3
A5
350
4D
  3
A6
350
4E
  3
A7
350
4F
  3
A8
350
50
  3
A9
350
51
  3
B0
350
52
  3
B1
350
53
  3
B2
350
54
  3
B3
350
55
  3
B4
350
56
  3
B5
350
57
  3
B6
350
58
  3
B7
350
59
  3
B8
350
5A
  3
B9
350
5B
  3
C0
350
5C
  3
C1
350
5D
  3
C2
350
5E
  3
C3
350
5F
  3
C4
350
60
  3
C5
350
61
  3
C6
350
62
  3
C7
350
63
  3
C8
350
64
  3
C9
350
65
  3
D0
350
66
  3
D1
350
67
  3
D2
350
68
  0
DICTIONARY
  5
2A
102
{ACAD_REACTORS
330
C
102
}
330
C
100
AcDbDictionary
  3
2DWIREFRAME
350
2F
  3
BASIC
350
32
  3
BRIGHTEN
350
36
  3
COLORCHANGE
350
3A
  3
CONCEPTUAL
350
34
  3
DIM
350
35
  3
EDGECOLOROFF
350
3D
  3
FACEPATTERN
350
39
  3
FLAT
350
2B
  3
FLATWITHEDGES
350
2C
  3
GOURAUD
350
2D
  3
GOURAUDWITHEDGES
350
2E
  3
HIDDEN
350
31
  3
JITTEROFF
350
3B
  3
LINEPATTERN
350
38
  3
OVERHANGOFF
350
3C
  3
REALISTIC
350
33
  3
SHADED
350
42
  3
SHADED_WITH_EDGES
350
41
  3
SHADES_OF_GRAY
350
3E
  3
SKETCHY
350
3F
  3
THICKEN
350
37
  3
WIREFRAME
350
30
  3
X-RAY
350
40
  0
DICTIONARY
  5
2E0
102
{ACAD_REACTORS
330
C
102
}
330
C
100
AcDbDictionary
  3
CEPSNTYPE
350
2E9
  3
DIMSTYLEDATA
350
2FF
  3
FINGERPRINTGUID
350
2EA
  3
HYPERLINKBASE
350
2E3
  3
INSUNITS
350
2E8
  3
LAYOUTDICT
350
2E5
  3
LWETCUNION
350
2E7
  3
PLOTSETDICT
350
2E6
  3
PSVPSCALE
350
2EC
  3
PUCSBASE
350
2EF
  3
PUCSORGBACK
350
2F5
  3
PUCSORGBOTTOM
350
2F1
  3
PUCSORGFRONT
350
2F4
  3
PUCSORGLEFT
350
2F2
  3
PUCSORGRIGHT
350
2F3
  3
PUCSORGTOP
350
2F0
  3
PUCSORTHOREF
350
2ED
  3
PUCSORTHOVIEW
350
2EE
  3
STYLESHEET
350
2E4
  3
TSTACKALIGN
350
2E1
  3
TSTACKSIZE
350
2E2
  3
UCSBASE
350
2F8
  3
UCSORGBACK
350
2FE
  3
UCSORGBOTTOM
350
2FA
  3
UCSORGFRONT
350
2FD
  3
UCSORGLEFT
350
2FB
  3
UCSORGRIGHT
350
2FC
  3
UCSORGTOP
350
2F9
  3
UCSORTHOREF
350
2F6
  3
UCSORTHOVIEW
350
2F7
  3
VERSIONGUID
350
2EB
  0
DICTIONARY
  5
300
102
{ACAD_REACTORS
330
C
102
}
330
C
100
AcDbDictionary
  3
CANNOSCALE
350
309
  3
DIMASSOC
350
305
  3
HIDETEXT
350
306
  3
MSLTSCALE
350
30A
  0
XRECORD
  5
308
102
{ACAD_REACTORS
330
307
102
}
330
307
100
AcDbXrecord
102
VTR_0.000_0.000_1.000_1.000_GRIDDISPLAY
 70
     3
102
VTR_0.000_0.000_1.000_1.000_GRIDMAJOR
 70
     5
102
VTR_0.000_0.000_1.000_1.000_DEFAULTLIGHTING
280
     1
102
VTR_0.000_0.000_1.000_1.000_DEFAULTLIGHTINGTYPE
 70
     1
102
VTR_0.000_0.000_1.000_1.000_BRIGHTNESS
141
0.0
102
VTR_0.000_0.000_1.000_1.000_CONTRAST
142
0.0
  0
MATERIAL
  5
45
102
{ACAD_REACTORS
330
43
102
}
102
{ACAD_XDICTIONARY
360
30D
102
}
330
43
100
AcDbMaterial
  1
BYBLOCK
  0
MATERIAL
  5
44
102
{ACAD_REACTORS
330
43
102
}
102
{ACAD_XDICTIONARY
360
30B
102
}
330
43
100
AcDbMaterial
  1
BYLAYER
  0
MATERIAL
  5
46
102
{ACAD_REACTORS
330
43
102
}
102
{ACAD_XDICTIONARY
360
30F
102
}
330
43
100
AcDbMaterial
  1
GLOBAL
  0
MLINESTYLE
  5
18
102
{ACAD_REACTORS
330
17
102
}
330
17
100
AcDbMlineStyle
  2
Standard
 70
     0
  3

 62
   256
 51
90.0
 52
90.0
 71
     2
 49
0.5
 62
   256
  6
BYLAYER
 49
-0.5
 62
   256
  6
BYLAYER
  0
ACAD_PROXY_OBJECT
  5
48
102
{ACAD_REACTORS
330
47
102
}
330
47
100
AcDbProxyObject
 90
      499
 91
      503
 93
       41
310
903313A31580
  0
ACAD_PROXY_OBJECT
  5
49
102
{ACAD_REACTORS
330
47
102
}
330
47
100
AcDbProxyObject
 90
      499
 91
      503
 93
      105
310
903313A324000000000000004000
  0
ACAD_PROXY_OBJECT
  5
4A
102
{ACAD_REACTORS
330
47
102
}
330
47
100
AcDbProxyObject
 90
      499
 91
      503
 93
      105
310
903313A344000000000000104000
  0
ACAD_PROXY_OBJECT
  5
4B
102
{ACAD_REACTORS
330
47
102
}
330
47
100
AcDbProxyObject
 90
      499
 91
      503
 93
      105
310
903313A354000000000000144000
  0
ACAD_PROXY_OBJECT
  5
4C
102
{ACAD_REACTORS
330
47
102
}
330
47
100
AcDbProxyObject
 90
      499
 91
      503
 93
      105
310
903313A384000000000000204000
  0
ACAD_PROXY_OBJECT
  5
4D
102
{ACAD_REACTORS
330
47
102
}
330
47
100
AcDbProxyObject
 90
      499
 91
      503
 93
      113
310
904313A31304000000000000244000
  0
ACAD_PROXY_OBJECT
  5
4E
102
{ACAD_REACTORS
330
47
102
}
330
47
100
AcDbProxyObject
 90
      499
 91
      503
 93
      113
310
904313A31364000000000000304000
  0
ACAD_PROXY_OBJECT
  5
4F
102
{ACAD_REACTORS
330
47
102
}
330
47
100
AcDbProxyObject
 90
      499
 91
      503
 93
      113
310
904313A32304000000000000344000
  0
ACAD_PROXY_OBJECT
  5
50
102
{ACAD_REACTORS
330
47
102
}
330
47
100
AcDbProxyObject
 90
      499
 91
      503
 93
      113
310
904313A333040000000000003E4000
  0
ACAD_PROXY_OBJECT
  5
51
102
{ACAD_REACTORS
330
47
102
}
330
47
100
AcDbProxyObject
 90
      499
 91
      503
 93
      113
310
904313A34304000000000000444000
  0
ACAD_PROXY_OBJECT
  5
52
102
{ACAD_REACTORS
330
47
102
}
330
47
100
AcDbProxyObject
 90
      499
 91
      503
 93
      113
310
904313A35304000000000000494000
  0
ACAD_PROXY_OBJECT
  5
53
102
{ACAD_REACTORS
330
47
102
}
330
47
100
AcDbProxyObject
 90
      499
 91
      503
 93
      121
310
905313A3130304000000000000594000
  0
ACAD_PROXY_OBJECT
  5
54
102
{ACAD_REACTORS
330
47
102
}
330
47
100
AcDbProxyObject
 90
      499
 91
      503
 93
      105
310
903323A310000000000000010100
  0
ACAD_PROXY_OBJECT
  5
55
102
{ACAD_REACTORS
330
47
102
}
330
47
100
AcDbProxyObject
 90
      499
 91
      503
 93
      105
310
903343A310000000000000410100
  0
ACAD_PROXY_OBJECT
  5
56
102
{ACAD_REACTORS
330
47
102
}
330
47
100
AcDbProxyObject
 90
      499
 91
      503
 93
      105
310
903383A310000000000000810100
  0
ACAD_PROXY_OBJECT
  5
57
102
{ACAD_REACTORS
330
47
102
}
330
47
100
AcDbProxyObject
 90
      499
 91
      503
 93
      113
310
90431303A310000000000000910100
  0
ACAD_PROXY_OBJECT
  5
58
102
{ACAD_REACTORS
330
47
102
}
330
47
100
AcDbProxyObject
 90
      499
 91
      503
 93
      121
310
9053130303A310000000000001650100
  0
ACAD_PROXY_OBJECT
  5
59
102
{ACAD_REACTORS
330
47
102
}
330
47
100
AcDbProxyObject
 90
      499
 91
      503
 93
      257
310
90E312F31323822203D2031272D3022000000000000200FC000000000000284000
  0
ACAD_PROXY_OBJECT
  5
5A
102
{ACAD_REACTORS
330
47
102
}
330
47
100
AcDbProxyObject
 90
      499
 91
      503
 93
      249
310
90D312F363422203D2031272D3022000000000000240FC000000000000284000
  0
ACAD_PROXY_OBJECT
  5
5B
102
{ACAD_REACTORS
330
47
102
}
330
47
100
AcDbProxyObject
 90
      499
 91
      503
 93
      249
310
90D312F333222203D2031272D3022000000000000280FC000000000000284000
  0
ACAD_PROXY_OBJECT
  5
5C
102
{ACAD_REACTORS
330
47
102
}
330
47
100
AcDbProxyObject
 90
      499
 91
      503
 93
      249
310
90D312F313622203D2031272D30220000000000002C0FC000000000000284000
  0
ACAD_PROXY_OBJECT
  5
5D
102
{ACAD_REACTORS
330
47
102
}
330
47
100
AcDbProxyObject
 90
      499
 91
      503
 93
      249
310
90D332F333222203D2031272D30220000000000002E0FC000000000000284000
  0
ACAD_PROXY_OBJECT
  5
5E
102
{ACAD_REACTORS
330
47
102
}
330
47
100
AcDbProxyObject
 90
      499
 91
      503
 93
      241
310
90C312F3822203D2031272D3022000000000000300FC000000000000284000
  0
ACAD_PROXY_OBJECT
  5
5F
102
{ACAD_REACTORS
330
47
102
}
330
47
100
AcDbProxyObject
 90
      499
 91
      503
 93
      249
310
90D332F313622203D2031272D3022000000000000320FC000000000000284000
  0
ACAD_PROXY_OBJECT
  5
60
102
{ACAD_REACTORS
330
47
102
}
330
47
100
AcDbProxyObject
 90
      499
 91
      503
 93
      241
310
90C312F3422203D2031272D3022000000000000340FC000000000000284000
  0
ACAD_PROXY_OBJECT
  5
61
102
{ACAD_REACTORS
330
47
102
}
330
47
100
AcDbProxyObject
 90
      499
 91
      503
 93
      241
310
90C332F3822203D2031272D3022000000000000360FC000000000000284000
  0
ACAD_PROXY_OBJECT
  5
62
102
{ACAD_REACTORS
330
47
102
}
330
47
100
AcDbProxyObject
 90
      499
 91
      503
 93
      241
310
90C312F3222203D2031272D3022000000000000380FC000000000000284000
  0
ACAD_PROXY_OBJECT
  5
63
102
{ACAD_REACTORS
330
47
102
}
330
47
100
AcDbProxyObject
 90
      499
 91
      503
 93
      241
310
90C332F3422203D2031272D30220000000000003A0FC000000000000284000
  0
ACAD_PROXY_OBJECT
  5
64
102
{ACAD_REACTORS
330
47
102
}
330
47
100
AcDbProxyObject
 90
      499
 91
      503
 93
      161
310
90A3122203D2031272D30224000000000000284000
  0
ACAD_PROXY_OBJECT
  5
65
102
{ACAD_REACTORS
330
47
102
}
330
47
100
AcDbProxyObject
 90
      499
 91
      503
 93
      257
310
90E312D312F3222203D2031272D30220000000000003E0FC000000000000284000
  0
ACAD_PROXY_OBJECT
  5
66
102
{ACAD_REACTORS
330
47
102
}
330
47
100
AcDbProxyObject
 90
      499
 91
      503
 93
      225
310
90A3322203D2031272D302200000000000002100000000000000284000
  0
ACAD_PROXY_OBJECT
  5
67
102
{ACAD_REACTORS
330
47
102
}
330
47
100
AcDbProxyObject
 90
      499
 91
      503
 93
      225
310
90A3622203D2031272D302200000000000006100000000000000284000
  0
ACAD_PROXY_OBJECT
  5
68
102
{ACAD_REACTORS
330
47
102
}
330
47
100
AcDbProxyObject
 90
      499
 91
      503
 93
      249
310
90D31272D3022203D2031272D30220000000000000A100000000000000284000
  0
ACAD_PROXY_OBJECT
  5
2F
102
{ACAD_REACTORS
330
2A
102
}
330
2A
100
AcDbProxyObject
 90
      499
 91
      501
 93
      436
310
42CC9915DA5C99599C985B595049028333333333333E33F0000000000000F90107901411070040501600405405064090741402480A0340
1001
ACAD
1000
AcDbSavedByObjectVersion
1070
     0
  0
ACAD_PROXY_OBJECT
  5
32
102
{ACAD_REACTORS
330
2A
102
}
330
2A
100
AcDbProxyObject
 90
      499
 91
      501
 93
      388
310
4150985CDA58D07406404333333333333E33F0000000000000F90107A41107004050150841D405064090741402480A0350
1001
ACAD
1000
AcDbSavedByObjectVersion
1070
     0
  0
ACAD_PROXY_OBJECT
  5
36
102
{ACAD_REACTORS
330
2A
102
}
330
2A
100
AcDbProxyObject
 90
      499
 91
      501
 93
      428
310
42109C9A59DA1D195B90C409028333333333333E33F0000000000000F9010790141107004050150841D405064090741402480A029950
1001
ACAD
1000
AcDbSavedByObjectVersion
1070
     0
  0
ACAD_PROXY_OBJECT
  5
3A
102
{ACAD_REACTORS
330
2A
102
}
330
2A
100
AcDbProxyObject
 90
      499
 91
      501
 93
      452
310
42D0DBDB1BDC90DA185B99D95104090240C333333333333E33F0000000000000F90108901411070040501508421405064090741402480A0350
1001
ACAD
1000
AcDbSavedByObjectVersion
1070
     0
  0
ACAD_PROXY_OBJECT
  5
34
102
{ACAD_REACTORS
330
2A
102
}
330
2A
100
AcDbProxyObject
 90
      499
 91
      501
 93
      500
310
4290DBDB98D95C1D1D585B10940D028333333333333E33F0000000000000F90107902409070040501000000000018199010841D405064090740C02480A0340
1001
ACAD
1000
AcDbSavedByObjectVersion
1070
     0
  0
ACAD_PROXY_OBJECT
  5
35
102
{ACAD_REACTORS
330
2A
102
}
330
2A
100
AcDbProxyObject
 90
      499
 91
      501
 93
      412
310
40D11A5B50B409028333333333333E33F0000000000000F9010790141107004050150841D405064090741402480A02677FFFFFD0
1001
ACAD
1000
AcDbSavedByObjectVersion
1070
     0
  0
ACAD_PROXY_OBJECT
  5
3D
102
{ACAD_REACTORS
330
2A
102
}
330
2A
100
AcDbProxyObject
 90
      499
 91
      501
 93
      452
310
43115919D950DBDB1BDC93D999916409028333333333333E33F0000000000000F9010790141107004050150841D405064090741402480A0350
1001
ACAD
1000
AcDbSavedByObjectVersion
1070
     0
  0
ACAD_PROXY_OBJECT
  5
39
102
{ACAD_REACTORS
330
2A
102
}
330
2A
100
AcDbProxyObject
 90
      499
 91
      501
 93
      444
310
42D19858D95C185D1D195C9B90F409028333333333333E33F0000000000000F9010790141107004050150841D405064090741402480A0350
1001
ACAD
1000
AcDbSavedByObjectVersion
1070
     0
  0
ACAD_PROXY_OBJECT
  5
2B
102
{ACAD_REACTORS
330
2A
102
}
330
2A
100
AcDbProxyObject
 90
      499
 91
      501
 93
      380
310
41119B185D240901404333333333333E33F0000000000000F9010740A907004050150841D405064090741402480A1B50
1001
ACAD
1000
AcDbSavedByObjectVersion
1070
     0
  0
ACAD_PROXY_OBJECT
  5
2C
102
{ACAD_REACTORS
330
2A
102
}
330
2A
100
AcDbProxyObject
 90
      499
 91
      501
 93
      468
310
43519B185D15DA5D1A115919D95CD0140901404333333333333E33F0000000000000F90107409019070040501600405405064090741402480A1B50
1001
ACAD
1000
AcDbSavedByObjectVersion
1070
     0
  0
ACAD_PROXY_OBJECT
  5
2D
102
{ACAD_REACTORS
330
2A
102
}
330
2A
100
AcDbProxyObject
 90
      499
 91
      501
 93
      404
310
41D1DBDD5C985D5910240902404333333333333E33F0000000000000F9010740A9070040501641D405064090741402480A1B50
1001
ACAD
1000
AcDbSavedByObjectVersion
1070
     0
  0
ACAD_PROXY_OBJECT
  5
2E
102
{ACAD_REACTORS
330
2A
102
}
330
2A
100
AcDbProxyObject
 90
      499
 91
      501
 93
      492
310
4411DBDD5C985D5915DA5D1A115919D95CD0340902404333333333333E33F0000000000000F90107409019070040501600405405064090741402480A1B50
1001
ACAD
1000
AcDbSavedByObjectVersion
1070
     0
  0
ACAD_PROXY_OBJECT
  5
31
102
{ACAD_REACTORS
330
2A
102
}
330
2A
100
AcDbProxyObject
 90
      499
 91
      501
 93
      476
310
41921A5919195B90640502408333333333333E33F0000000000000F901079024090700405020000000000001110200405405064090740C02480A0340
1001
ACAD
1000
AcDbSavedByObjectVersion
1070
     0
  0
ACAD_PROXY_OBJECT
  5
3B
102
{ACAD_REACTORS
330
2A
102
}
330
2A
100
AcDbProxyObject
 90
      499
 91
      501
 93
      428
310
42529A5D1D195C93D999914409028333333333333E33F0000000000000F9010790141107004050150A41D405064090741402480A0350
1001
ACAD
1000
AcDbSavedByObjectVersion
1070
     0
  0
ACAD_PROXY_OBJECT
  5
38
102
{ACAD_REACTORS
330
2A
102
}
330
2A
100
AcDbProxyObject
 90
      499
 91
      501
 93
      444
310
42D31A5B995C185D1D195C9B90E409028333333333333E33F0000000000000F9010790141107004050750841D405064090741402483A0350
1001
ACAD
1000
AcDbSavedByObjectVersion
1070
     0
  0
ACAD_PROXY_OBJECT
  5
3C
102
{ACAD_REACTORS
330
2A
102
}
330
2A
100
AcDbProxyObject
 90
      499
 91
      501
 93
      444
310
42D3DD995C9A185B99D3D999915409028333333333333E33F0000000000000F9010790141107004050150941D405064090741402480A0350
1001
ACAD
1000
AcDbSavedByObjectVersion
1070
     0
  0
ACAD_PROXY_OBJECT
  5
33
102
{ACAD_REACTORS
330
2A
102
}
330
2A
100
AcDbProxyObject
 90
      499
 91
      501
 93
      428
310
425499585B1A5CDD1A58D08409038333333333333E33F0000000000000F9010740A907004050150800405405064090740C02480A1B40
1001
ACAD
1000
AcDbSavedByObjectVersion
1070
     0
  0
ACAD_PROXY_OBJECT
  5
42
102
{ACAD_REACTORS
330
2A
102
}
330
2A
100
AcDbProxyObject
 90
      499
 91
      501
 93
      420
310
4194DA1859195911B40902404333333333333E33F0000000000000F9010740A41107004050150800405405064090840C02480A0B40
1001
ACAD
1000
AcDbSavedByObjectVersion
1070
     0
  0
ACAD_PROXY_OBJECT
  5
41
102
{ACAD_REACTORS
330
2A
102
}
330
2A
100
AcDbProxyObject
 90
      499
 91
      501
 93
      516
310
4454DA18591959081DDA5D1A08195919D95CD1A40902404333333333333E33F0000000000000F901074090142907004050250800405405064090740C02480A0B40
1001
ACAD
1000
AcDbSavedByObjectVersion
1070
     0
  0
ACAD_PROXY_OBJECT
  5
3E
102
{ACAD_REACTORS
330
2A
102
}
330
2A
100
AcDbProxyObject
 90
      499
 91
      501
 93
      532
310
4394DA1859195CC81BD98811DC985E5174090240C333333333333E33F0000000000000F901079024090741D01000000000000111010841D405064090740C02480A0340
1001
ACAD
1000
AcDbSavedByObjectVersion
1070
     0
  0
ACAD_PROXY_OBJECT
  5
3F
102
{ACAD_REACTORS
330
2A
102
}
330
2A
100
AcDbProxyObject
 90
      499
 91
      501
 93
      476
310
41D4DAD95D18DA1E51840502408333333333333E33F0000000000000F901079024090741D01000000000000111010B41D405064090741802480A0340
1001
ACAD
1000
AcDbSavedByObjectVersion
1070
     0
  0
ACAD_PROXY_OBJECT
  5
37
102
{ACAD_REACTORS
330
2A
102
}
330
2A
100
AcDbProxyObject
 90
      499
 91
      501
 93
      412
310
41D51A1A58DAD95B90D409028333333333333E33F0000000000000F9010790141107004050150C41D405064090741402480A0350
1001
ACAD
1000
AcDbSavedByObjectVersion
1070
     0
  0
ACAD_PROXY_OBJECT
  5
30
102
{ACAD_REACTORS
330
2A
102
}
330
2A
100
AcDbProxyObject
 90
      499
 91
      501
 93
      420
310
4255DA5C99599C985B595059028333333333333E33F0000000000000F90107901411070040501600405405064090740C02480A0340
1001
ACAD
1000
AcDbSavedByObjectVersion
1070
     0
  0
ACAD_PROXY_OBJECT
  5
40
102
{ACAD_REACTORS
330
2A
102
}
330
2A
100
AcDbProxyObject
 90
      499
 91
      501
 93
      404
310
41560B54985E51940902404000000000000E03F0000000000000F9010740501907004050150841D405064090740C02480A1B40
1001
ACAD
1000
AcDbSavedByObjectVersion
1070
     0
  0
XRECORD
  5
2E9
102
{ACAD_REACTORS
330
2E0
102
}
330
2E0
100
AcDbXrecord
 90
        0
  0
XRECORD
  5
2FF
102
{ACAD_REACTORS
330
2E0
102
}
330
2E0
100
AcDbXrecord
1000
DSTYLE
1002
{
1070
   171
 70
     2
1070
   143
 40
25.4
1070
   274
 70
     2
1070
    41
 40
0.18
1070
   141
 40
0.09
1070
   271
 70
     4
1070
    43
 40
0.38
1070
   278
 70
    46
1070
    44
 40
0.18
1070
    42
 40
0.0625
1070
   147
 40
0.09
1070
    77
 70
     0
1070
   272
 70
     4
1070
    73
 70
     1
1070
   172
 70
     0
1070
    74
 70
     1
1070
   283
 70
     1
1070
   340
340
11
1070
   140
 40
0.18
1070
   284
 70
     0
1070
    78
 70
     0
1002
}
  0
XRECORD
  5
2EA
102
{ACAD_REACTORS
330
2E0
102
}
330
2E0
100
AcDbXrecord
  1
{A5EC194B-C272-16F7-37EA-69402B6ACFB6}
  0
XRECORD
  5
2E3
102
{ACAD_REACTORS
330
2E0
102
}
330
2E0
100
AcDbXrecord
  1

  0
XRECORD
  5
2E8
102
{ACAD_REACTORS
330
2E0
102
}
330
2E0
100
AcDbXrecord
 90
        4
  0
XRECORD
  5
2E5
102
{ACAD_REACTORS
330
2E0
102
}
330
2E0
100
AcDbXrecord
340
1A
  0
XRECORD
  5
2E7
102
{ACAD_REACTORS
330
2E0
102
}
330
2E0
100
AcDbXrecord
 90
    10781
  0
XRECORD
  5
2E6
102
{ACAD_REACTORS
330
2E0
102
}
330
2E0
100
AcDbXrecord
340
19
  0
XRECORD
  5
2EC
102
{ACAD_REACTORS
330
2E0
102
}
330
2E0
100
AcDbXrecord
 40
0.0
  0
XRECORD
  5
2EF
102
{ACAD_REACTORS
330
2E0
102
}
330
2E0
100
AcDbXrecord
340
0
  0
XRECORD
  5
2F5
102
{ACAD_REACTORS
330
2E0
102
}
330
2E0
100
AcDbXrecord
 10
0.0
 20
0.0
 30
0.0
  0
XRECORD
  5
2F1
102
{ACAD_REACTORS
330
2E0
102
}
330
2E0
100
AcDbXrecord
 10
0.0
 20
0.0
 30
0.0
  0
XRECORD
  5
2F4
102
{ACAD_REACTORS
330
2E0
102
}
330
2E0
100
AcDbXrecord
 10
0.0
 20
0.0
 30
0.0
  0
XRECORD
  5
2F2
102
{ACAD_REACTORS
330
2E0
102
}
330
2E0
100
AcDbXrecord
 10
0.0
 20
0.0
 30
0.0
  0
XRECORD
  5
2F3
102
{ACAD_REACTORS
330
2E0
102
}
330
2E0
100
AcDbXrecord
 10
0.0
 20
0.0
 30
0.0
  0
XRECORD
  5
2F0
102
{ACAD_REACTORS
330
2E0
102
}
330
2E0
100
AcDbXrecord
 10
0.0
 20
0.0
 30
0.0
  0
XRECORD
  5
2ED
102
{ACAD_REACTORS
330
2E0
102
}
330
2E0
100
AcDbXrecord
340
0
  0
XRECORD
  5
2EE
102
{ACAD_REACTORS
330
2E0
102
}
330
2E0
100
AcDbXrecord
 70
     0
  0
XRECORD
  5
2E4
102
{ACAD_REACTORS
330
2E0
102
}
330
2E0
100
AcDbXrecord
  1

  0
XRECORD
  5
2E1
102
{ACAD_REACTORS
330
2E0
102
}
330
2E0
100
AcDbXrecord
 90
        1
  0
XRECORD
  5
2E2
102
{ACAD_REACTORS
330
2E0
102
}
330
2E0
100
AcDbXrecord
 90
       70
  0
XRECORD
  5
2F8
102
{ACAD_REACTORS
330
2E0
102
}
330
2E0
100
AcDbXrecord
340
0
  0
XRECORD
  5
2FE
102
{ACAD_REACTORS
330
2E0
102
}
330
2E0
100
AcDbXrecord
 10
0.0
 20
0.0
 30
0.0
  0
XRECORD
  5
2FA
102
{ACAD_REACTORS
330
2E0
102
}
330
2E0
100
AcDbXrecord
 10
0.0
 20
0.0
 30
0.0
  0
XRECORD
  5
2FD
102
{ACAD_REACTORS
330
2E0
102
}
330
2E0
100
AcDbXrecord
 10
0.0
 20
0.0
 30
0.0
  0
XRECORD
  5
2FB
102
{ACAD_REACTORS
330
2E0
102
}
330
2E0
100
AcDbXrecord
 10
0.0
 20
0.0
 30
0.0
  0
XRECORD
  5
2FC
102
{ACAD_REACTORS
330
2E0
102
}
330
2E0
100
AcDbXrecord
 10
0.0
 20
0.0
 30
0.0
  0
XRECORD
  5
2F9
102
{ACAD_REACTORS
330
2E0
102
}
330
2E0
100
AcDbXrecord
 10
0.0
 20
0.0
 30
0.0
  0
XRECORD
  5
2F6
102
{ACAD_REACTORS
330
2E0
102
}
330
2E0
100
AcDbXrecord
340
0
  0
XRECORD
  5
2F7
102
{ACAD_REACTORS
330
2E0
102
}
330
2E0
100
AcDbXrecord
 70
     0
  0
XRECORD
  5
2EB
102
{ACAD_REACTORS
330
2E0
102
}
330
2E0
100
AcDbXrecord
  1
{FAEB1C32-E019-11D5-929B-00C0DF256EC4}
  0
DICTIONARYVAR
  5
309
102
{ACAD_REACTORS
330
300
102
}
330
300
100
DictionaryVariables
280
     0
  1
1:1
  0
DICTIONARYVAR
  5
305
102
{ACAD_REACTORS
330
300
102
}
330
300
100
DictionaryVariables
280
     0
  1
2
  0
DICTIONARYVAR
  5
306
102
{ACAD_REACTORS
330
300
102
}
330
300
100
DictionaryVariables
280
     0
  1
1
  0
DICTIONARYVAR
  5
30A
102
{ACAD_REACTORS
330
300
102
}
330
300
100
DictionaryVariables
280
     0
  1
1
  0
DICTIONARY
  5
30D
330
45
100
AcDbDictionary
280
     1
  3
ACAD_XREC_ROUNDTRIP
360
30E
  0
DICTIONARY
  5
30B
330
44
100
AcDbDictionary
280
     1
  3
ACAD_XREC_ROUNDTRIP
360
30C
  0
DICTIONARY
  5
30F
330
46
100
AcDbDictionary
280
     1
  3
ACAD_XREC_ROUNDTRIP
360
310
  0
XRECORD
  5
30E
102
{ACAD_REACTORS
330
30D
102
}
330
30D
100
AcDbXrecord
102
MATERIAL
148
0.0
149
0.0
149
0.0
 93
        0
 94
      127
282
     0
 72
     1
 77
     1
171
     1
175
     1
179
     1
273
     0
  0
XRECORD
  5
30C
102
{ACAD_REACTORS
330
30B
102
}
330
30B
100
AcDbXrecord
102
MATERIAL
148
0.0
149
0.0
149
0.0
 93
        0
 94
      127
282
     0
 72
     1
 77
     1
171
     1
175
     1
179
     1
273
     0
  0
XRECORD
  5
310
102
{ACAD_REACTORS
330
30F
102
}
330
30F
100
AcDbXrecord
102
MATERIAL
148
0.0
149
0.0
149
0.0
 93
        0
 94
      127
282
     0
 72
     1
 77
     1
171
     1
175
     1
179
     1
273
     0
  0
ENDSEC
  0
EOF
