 0
SECTION
 2
ENTITIES
  0
POLYLINE
 8
Layer0
 66
     1
10
0.0
 20
 0.0
 30
0.0
70
    64
71
370
72
   1
  0
VERTEX
  8
Layer0
10
198.05750110385208
20
157.82201726000662
30
203.87499221759933
 70
     192
  0
VERTEX
  8
Layer0
10
198.1256491532198
20
174.6248872466992
30
203.87499166905647
 70
     192
  0
VERTEX
  8
Layer0
10
198.05750079661587
20
175.14252533569532
30
203.87499164961434
 70
     192
  0
VERTEX
  8
Layer0
10
198.12564944209197
20
158.33965535142053
30
203.8749922002165
 70
     192
  0
VERTEX
  8
Layer0
10
198.3254500067853
20
174.14252534044826
30
203.87499168923253
 70
     192
  0
VERTEX
  8
Layer0
10
198.3254502785449
20
158.82201726475958
30
203.87499218607718
 70
     192
  0
VERTEX
  8
Layer0
10
198.6432872593285
20
173.7283117837131
30
203.87499170876814
 70
     192
  0
VERTEX
  8
Layer0
10
198.6432875163933
20
159.23623083277067
30
203.87499217614533
 70
     192
  0
VERTEX
  8
Layer0
10
199.0575008273395
20
173.41047454586467
30
203.8749917263314
 70
     192
  0
VERTEX
  8
Layer0
10
199.05750107312846
20
159.55406808531387
30
203.8749921710975
 70
     192
  0
VERTEX
  8
Layer0
10
199.5398627406786
20
173.21067370941176
30
203.87499174072545
 70
     192
  0
VERTEX
  8
Layer0
10
199.5398629793793
20
159.75386893887932
30
203.8749921712776
 70
     192
  0
VERTEX
  8
Layer0
10
200.0575008320925
20
173.14252537117204
30
203.87499175096968
 70
     192
  0
VERTEX
  8
Layer0
10
200.0575010683755
20
159.8220172954835
30
203.87499217667394
 70
     192
  0
VERTEX
  8
Layer0
10
200.57513892108867
20
173.21067372777577
30
203.87499175636566
 70
     192
  0
VERTEX
  8
Layer0
10
200.57513915978942
20
159.7538689572433
30
203.8749921869179
 70
     192
  0
VERTEX
  8
Layer0
10
201.0575008273395
20
173.4104745813413
30
203.87499175654608
 70
     192
  0
VERTEX
  8
Layer0
10
201.05750107312846
20
159.55406812079042
30
203.87499220131218
 70
     192
  0
VERTEX
  8
Layer0
10
201.47171438407472
20
173.7283118338846
30
203.87499175149838
 70
     192
  0
VERTEX
  8
Layer0
10
201.47171464113947
20
159.23623088294227
30
203.8749922188755
 70
     192
  0
VERTEX
  8
Layer0
10
201.78955162192304
20
174.14252540189557
30
203.87499174156628
 70
     192
  0
VERTEX
  8
Layer0
10
201.78955189368264
20
158.82201732620683
30
203.8749922384109
 70
     192
  0
VERTEX
  8
Layer0
10
201.98935245837603
20
174.6248873152347
30
203.87499172742693
 70
     192
  0
VERTEX
  8
Layer0
10
201.9893527472482
20
158.33965541995613
30
203.87499225858696
 70
     192
  0
VERTEX
  8
Layer0
10
202.05750079661587
20
175.14252540664853
30
203.87499171004407
 70
     192
  0
VERTEX
  8
Layer0
10
202.0575011038521
20
157.82201733096
30
203.87499227802903
 70
     192
  0
VERTEX
  8
Layer0
10
78.50000599999004
20
164.6822690887255
30
203.87499368732384
 70
     192
  0
VERTEX
  8
Layer0
10
78.568151414559
20
330.0224954593094
30
203.874983875263
 70
     192
  0
VERTEX
  8
Layer0
10
78.50000305795534
20
330.54013354830556
30
203.87498386424818
 70
     192
  0
VERTEX
  8
Layer0
10
78.56815433823003
20
165.19990718013943
30
203.8749936783722
 70
     192
  0
VERTEX
  8
Layer0
10
78.76795226812473
20
329.54013355305835
30
203.8749838875809
 70
     192
  0
VERTEX
  8
Layer0
10
78.76795517468287
20
165.68226909347877
30
203.87499367209082
 70
     192
  0
VERTEX
  8
Layer0
10
79.08578952066776
20
329.12591999632326
30
203.8749839003641
 70
     192
  0
VERTEX
  8
Layer0
10
79.08579241253138
20
166.09648266148952
30
203.87499366891154
 70
     192
  0
VERTEX
  8
Layer0
10
79.50000308867911
20
328.80808275847477
30
203.87498391274966
 70
     192
  0
VERTEX
  8
Layer0
10
79.50000596926654
20
166.41431991403275
30
203.87499366904075
 70
     192
  0
VERTEX
  8
Layer0
10
79.98236500201791
20
328.60828192202183
30
203.87498392388983
 70
     192
  0
VERTEX
  8
Layer0
10
79.98236787551747
20
166.6141207675985
30
203.87499367247148
 70
     192
  0
VERTEX
  8
Layer0
10
80.50000309343183
20
328.5401335837819
30
203.87498393302846
 70
     192
  0
VERTEX
  8
Layer0
10
80.50000596451368
20
166.68226912420215
30
203.874993678977
 70
     192
  0
VERTEX
  8
Layer0
10
81.01764118242805
20
328.608281940386
30
203.87498393953024
 70
     192
  0
VERTEX
  8
Layer0
10
81.0176440559276
20
166.6141207859624
30
203.8749936881118
 70
     192
  0
VERTEX
  8
Layer0
10
81.50000308867904
20
328.8080827939514
30
203.8749839429647
 70
     192
  0
VERTEX
  8
Layer0
10
81.50000596926645
20
166.41431994950938
30
203.87499369925564
 70
     192
  0
VERTEX
  8
Layer0
10
81.9142166454142
20
329.1259200464948
30
203.87498394309435
 70
     192
  0
VERTEX
  8
Layer0
10
81.91421953727773
20
166.09648271166108
30
203.87499371164188
 70
     192
  0
VERTEX
  8
Layer0
10
82.23205388326265
20
329.54013361450575
30
203.87498393991456
 70
     192
  0
VERTEX
  8
Layer0
10
82.23205678982077
20
165.6822691549257
30
203.8749937244244
 70
     192
  0
VERTEX
  8
Layer0
10
82.43185471971555
20
330.0224955278448
30
203.87498393363356
 70
     192
  0
VERTEX
  8
Layer0
10
82.43185764338651
20
165.199907248675
30
203.87499373674282
 70
     192
  0
VERTEX
  8
Layer0
10
82.50000305795548
20
330.54013361925877
30
203.87498392467793
 70
     192
  0
VERTEX
  8
Layer0
10
82.50000599999024
20
164.68226915967887
30
203.87499374775356
 70
     192
  0
VERTEX
  8
Layer0
10
78.50000894202628
20
-1.175595287541391
30
203.87499651861012
 70
     192
  0
VERTEX
  8
Layer0
10
78.56815435659404
20
164.16463099972927
30
203.87499369833736
 70
     192
  0
VERTEX
  8
Layer0
10
78.56815728026628
20
-0.6579571961275725
30
203.87499650965992
 70
     192
  0
VERTEX
  8
Layer0
10
78.76795521015946
20
163.6822690934786
30
203.87499371065633
 70
     192
  0
VERTEX
  8
Layer0
10
78.7679581167191
20
-0.17559528278855366
30
203.8749965033783
 70
     192
  0
VERTEX
  8
Layer0
10
79.08579246270283
20
163.26805553674305
30
203.87499372343936
 70
     192
  0
VERTEX
  8
Layer0
10
79.08579535456762
20
0.2386182852223591
30
203.87499650019845
 70
     192
  0
VERTEX
  8
Layer0
10
79.50000603071376
20
162.95021829889484
30
203.87499373582534
 70
     192
  0
VERTEX
  8
Layer0
10
79.50000891130277
20
0.556455537765742
30
203.87499650032834
 70
     192
  0
VERTEX
  8
Layer0
10
79.982367944053
20
162.7504174624419
30
203.87499374696552
 70
     192
  0
VERTEX
  8
Layer0
10
79.98237081755353
20
0.7562563913311358
30
203.87499650375884
 70
     192
  0
VERTEX
  8
Layer0
10
80.50000603546687
20
162.68226912420198
30
203.8749937561041
 70
     192
  0
VERTEX
  8
Layer0
10
80.5000089065498
20
0.8244047479352274
30
203.87499651026457
 70
     192
  0
VERTEX
  8
Layer0
10
81.01764412446313
20
162.75041748080588
30
203.87499376260584
 70
     192
  0
VERTEX
  8
Layer0
10
81.01764699796371
20
0.7562564096953892
30
203.87499651939922
 70
     192
  0
VERTEX
  8
Layer0
10
81.5000060307137
20
162.95021833437147
30
203.87499376604035
 70
     192
  0
VERTEX
  8
Layer0
10
81.50000891130269
20
0.5564555732421838
30
203.87499653054323
 70
     192
  0
VERTEX
  8
Layer0
10
81.9142195874492
20
163.2680555869147
30
203.87499376616967
 70
     192
  0
VERTEX
  8
Layer0
10
81.91422247931364
20
0.23861833539402966
30
203.87499654292822
 70
     192
  0
VERTEX
  8
Layer0
10
82.23205682529738
20
163.68226915492562
30
203.87499376298967
 70
     192
  0
VERTEX
  8
Layer0
10
82.23205973185702
20
-0.17559522134134864
30
203.87499655571196
 70
     192
  0
VERTEX
  8
Layer0
10
82.43185766175056
20
164.16463106826487
30
203.87499375670797
 70
     192
  0
VERTEX
  8
Layer0
10
82.43186058542243
20
-0.6579571275922802
30
203.87499656803055
 70
     192
  0
VERTEX
  8
Layer0
10
82.50000894202627
20
-1.175595216588688
30
203.87499657903987
 70
     192
  0
VERTEX
  8
Layer0
10
70.5000029844809
20
334.68226903013016
30
203.874983663527
 70
     192
  0
VERTEX
  8
Layer0
10
78.76795223264816
20
331.54013355305864
30
203.87498384901593
 70
     192
  0
VERTEX
  8
Layer0
10
110.50000227494904
20
374.682269739662
30
203.87498349660783
 70
     192
  0
VERTEX
  8
Layer0
10
78.56815139619493
20
331.05777163971953
30
203.87498385529707
 70
     192
  0
VERTEX
  8
Layer0
10
70.50000901550071
20
-5.317731053178793
30
203.8749964776077
 70
     192
  0
VERTEX
  8
Layer0
10
79.08578947049631
20
331.95434712106965
30
203.87498384583597
 70
     192
  0
VERTEX
  8
Layer0
10
79.50000302723184
20
332.272184373613
30
203.87498384596583
 70
     192
  0
VERTEX
  8
Layer0
10
79.98236493348239
20
332.4719852271783
30
203.87498384939616
 70
     192
  0
VERTEX
  8
Layer0
10
80.50000302247864
20
332.54013358378205
30
203.8749838559026
 70
     192
  0
VERTEX
  8
Layer0
10
81.01764111389252
20
332.4719852455425
30
203.87498386503654
 70
     192
  0
VERTEX
  8
Layer0
10
81.50000302723176
20
332.27218440908973
30
203.87498387618055
 70
     192
  0
VERTEX
  8
Layer0
10
81.91421659524268
20
331.9543471712411
30
203.87498388856625
 70
     192
  0
VERTEX
  8
Layer0
10
82.23205384778609
20
331.540133614506
30
203.87498390134945
 70
     192
  0
VERTEX
  8
Layer0
10
82.43185470135145
20
331.0577717082549
30
203.8749839136677
 70
     192
  0
VERTEX
  8
Layer0
10
358.50000599999294
20
164.68227457698458
30
203.87499851344964
 70
     192
  0
VERTEX
  8
Layer0
10
358.5681514145609
20
330.02250094756863
30
203.87498870138324
 70
     192
  0
VERTEX
  8
Layer0
10
358.500003057957
20
330.5401390365648
30
203.87498869036858
 70
     192
  0
VERTEX
  8
Layer0
10
358.56815433823294
20
165.1999126683985
30
203.87499850449785
 70
     192
  0
VERTEX
  8
Layer0
10
358.76795226812646
20
329.54013904131756
30
203.87498871370164
 70
     192
  0
VERTEX
  8
Layer0
10
358.76795517468577
20
165.68227458173752
30
203.87499849821626
 70
     192
  0
VERTEX
  8
Layer0
10
359.08578952066966
20
329.1259254845825
30
203.87498872648433
 70
     192
  0
VERTEX
  8
Layer0
10
359.0857924125341
20
166.09648814974838
30
203.87499849503715
 70
     192
  0
VERTEX
  8
Layer0
10
359.50000308868084
20
328.808088246734
30
203.8749887388701
 70
     192
  0
VERTEX
  8
Layer0
10
359.50000596926947
20
166.41432540229178
30
203.87499849516632
 70
     192
  0
VERTEX
  8
Layer0
10
359.9823650020198
20
328.60828741028104
30
203.8749887500102
 70
     192
  0
VERTEX
  8
Layer0
10
359.9823678755203
20
166.61412625585726
30
203.87499849859725
 70
     192
  0
VERTEX
  8
Layer0
10
360.5000030934338
20
328.54013907204114
30
203.8749887591487
 70
     192
  0
VERTEX
  8
Layer0
10
360.5000059645165
20
166.68227461246104
30
203.8749985051029
 70
     192
  0
VERTEX
  8
Layer0
10
361.01764118242994
20
328.6082874286452
30
203.8749887656506
 70
     192
  0
VERTEX
  8
Layer0
10
361.01764405593025
20
166.6141262742213
30
203.87499851423763
 70
     192
  0
VERTEX
  8
Layer0
10
361.5000030886807
20
328.8080882822106
30
203.874988769085
 70
     192
  0
VERTEX
  8
Layer0
10
361.50000596926935
20
166.41432543776844
30
203.8749985253814
 70
     192
  0
VERTEX
  8
Layer0
10
361.91421664541605
20
329.125925534754
30
203.87498876921464
 70
     192
  0
VERTEX
  8
Layer0
10
361.91421953728025
20
166.0964881999199
30
203.8749985377674
 70
     192
  0
VERTEX
  8
Layer0
10
362.23205388326437
20
329.5401391027649
30
203.87498876603516
 70
     192
  0
VERTEX
  8
Layer0
10
362.2320567898237
20
165.68227464318477
30
203.87499855055006
 70
     192
  0
VERTEX
  8
Layer0
10
362.43185471971725
20
330.02250101610406
30
203.8749887597539
 70
     192
  0
VERTEX
  8
Layer0
10
362.4318576433891
20
165.199912736934
30
203.87499856286834
 70
     192
  0
VERTEX
  8
Layer0
10
362.50000305795714
20
330.540139107518
30
203.8749887507983
 70
     192
  0
VERTEX
  8
Layer0
10
362.50000599999294
20
164.6822746479378
30
203.87499857387934
 70
     192
  0
VERTEX
  8
Layer0
10
330.50000972503534
20
-45.317725919685834
30
203.87500177280438
 70
     192
  0
VERTEX
  8
Layer0
10
358.5095313094584
20
-0.9806569696527787
30
203.87500134111656
 70
     192
  0
VERTEX
  8
Layer0
10
358.52690287043663
20
-1.5024726637027916
30
203.87500135143998
 70
     192
  0
VERTEX
  8
Layer0
10
358.678738349482
20
-2.002011828323783
30
203.8750013633651
 70
     192
  0
VERTEX
  8
Layer0
10
358.9546904096173
20
-2.4452316949751944
30
203.87500137607933
 70
     192
  0
VERTEX
  8
Layer0
10
359.09711745658933
20
-2.5784812990149657
30
203.87500138080065
 70
     192
  0
VERTEX
  8
Layer0
10
359.3359533739769
20
-2.8019275621998627
30
203.87500138871576
 70
     192
  0
VERTEX
  8
Layer0
10
359.7965448016067
20
-3.047791196114325
30
203.87500140041487
 70
     192
  0
VERTEX
  8
Layer0
10
360.3050761478766
20
-3.1660673963758943
30
203.87500141038248
 70
     192
  0
VERTEX
  8
Layer0
10
370.50000901550345
20
-5.317725210153557
30
203.87500160588203
 70
     192
  0
VERTEX
  8
Layer0
10
360.8268918419263
20
-3.1486958353975614
30
203.87500141793075
 70
     192
  0
VERTEX
  8
Layer0
10
361.32643100654764
20
-2.996860356352297
30
203.87500142254564
 70
     192
  0
VERTEX
  8
Layer0
10
361.7696508731991
20
-2.7209082962168356
30
203.875001423926
 70
     192
  0
VERTEX
  8
Layer0
10
362.12634674042374
20
-2.3396453318575046
30
203.87500142195913
 70
     192
  0
VERTEX
  8
Layer0
10
362.37221037433807
20
-1.8790539042275796
30
203.87500141679337
 70
     192
  0
VERTEX
  8
Layer0
10
362.49048657459974
20
-1.3705225579578268
30
203.87500140877964
 70
     192
  0
VERTEX
  8
Layer0
10
370.5000029844827
20
334.68227487315534
30
203.8749887917972
 70
     192
  0
VERTEX
  8
Layer0
10
110.50000972503261
20
-45.317730343647
30
203.87499785312383
 70
     192
  0
VERTEX
  8
Layer0
10
112.64214517138063
20
-35.3177303056493
30
203.87499769268328
 70
     192
  0
VERTEX
  8
Layer0
10
112.64213807606261
20
364.6822697776592
30
203.87498372177436
 70
     192
  0
VERTEX
  8
Layer0
10
112.71029352798465
20
-35.835368394645705
30
203.87499770369266
 70
     192
  0
VERTEX
  8
Layer0
10
112.91009438155004
20
-36.31773030089646
30
203.87499771601148
 70
     192
  0
VERTEX
  8
Layer0
10
113.22793163409325
20
-36.73194385763175
30
203.87499772880437
 70
     192
  0
VERTEX
  8
Layer0
10
113.64214520210437
20
-37.04978109547972
30
203.87499774118945
 70
     192
  0
VERTEX
  8
Layer0
10
114.1245071154434
20
-37.249581931932745
30
203.87499775232476
 70
     192
  0
VERTEX
  8
Layer0
10
114.64214520685731
20
-37.31773027017277
30
203.8749977614582
 70
     192
  0
VERTEX
  8
Layer0
10
115.15978329585353
20
-37.24958191356912
30
203.87499776796514
 70
     192
  0
VERTEX
  8
Layer0
10
115.64214520210426
20
-37.049781060003546
30
203.87499777140442
 70
     192
  0
VERTEX
  8
Layer0
10
116.05635875883945
20
-36.73194380746008
30
203.8749977715347
 70
     192
  0
VERTEX
  8
Layer0
10
116.37419599668772
20
-36.317730239448984
30
203.87499776834514
 70
     192
  0
VERTEX
  8
Layer0
10
116.57399683314077
20
-35.835368326109965
30
203.87499776206315
 70
     192
  0
VERTEX
  8
Layer0
10
116.64214517138063
20
-35.31773023469587
30
203.87499775311298
 70
     192
  0
VERTEX
  8
Layer0
10
220.50000958312773
20
-37.31772839243451
30
203.8749993606978
 70
     192
  0
VERTEX
  8
Layer0
10
219.98237149171382
20
-37.24958005419467
30
203.87499935156438
 70
     192
  0
VERTEX
  8
Layer0
10
219.50000957837466
20
-37.049779217741644
30
203.87499934042927
 70
     192
  0
VERTEX
  8
Layer0
10
219.08579601036348
20
-36.73194197989349
30
203.8749993280439
 70
     192
  0
VERTEX
  8
Layer0
10
218.7679587578202
20
-36.31772842315829
30
203.8749993152513
 70
     192
  0
VERTEX
  8
Layer0
10
218.5681579042549
20
-35.83536651690718
30
203.874999302932
 70
     192
  0
VERTEX
  8
Layer0
10
183.12564930683786
20
165.96463294278055
30
203.87499172643746
 70
     192
  0
VERTEX
  8
Layer0
10
183.0575009502341
20
166.4822710317767
30
203.87499170699533
 70
     192
  0
VERTEX
  8
Layer0
10
183.32545016040348
20
165.4822710365298
30
203.8749917466135
 70
     192
  0
VERTEX
  8
Layer0
10
183.64328741294668
20
165.06805747979473
30
203.87499176614895
 70
     192
  0
VERTEX
  8
Layer0
10
184.0575009809576
20
164.7502202419464
30
203.8749917837123
 70
     192
  0
VERTEX
  8
Layer0
10
184.53986289429662
20
164.5504194054934
30
203.87499179810624
 70
     192
  0
VERTEX
  8
Layer0
10
185.05750098571062
20
164.48227106725318
30
203.87499180835076
 70
     192
  0
VERTEX
  8
Layer0
10
185.57513907470673
20
164.55041942385714
30
203.8749918137466
 70
     192
  0
VERTEX
  8
Layer0
10
186.0575009809576
20
164.7502202774228
30
203.87499181392707
 70
     192
  0
VERTEX
  8
Layer0
10
186.4717145376929
20
165.068057529966
30
203.87499180887906
 70
     192
  0
VERTEX
  8
Layer0
10
186.7895517755412
20
165.4822710979768
30
203.87499179894718
 70
     192
  0
VERTEX
  8
Layer0
10
186.98935261199415
20
165.96463301131598
30
203.87499178480806
 70
     192
  0
VERTEX
  8
Layer0
10
187.05750095023407
20
166.4822711027298
30
203.87499176742506
 70
     192
  0
VERTEX
  8
Layer0
10
218.50000954765082
20
-35.31772842791077
30
203.87499929192273
 70
     192
  0
VERTEX
  8
Layer0
10
198.12564946045597
20
157.30437917101048
30
203.8749922370414
 70
     192
  0
VERTEX
  8
Layer0
10
198.32545031402157
20
156.82201726475958
30
203.8749922572175
 70
     192
  0
VERTEX
  8
Layer0
10
198.6432875665647
20
156.4078037080245
30
203.87499227675286
 70
     192
  0
VERTEX
  8
Layer0
10
199.05750113457572
20
156.0899664701761
30
203.87499229431612
 70
     192
  0
VERTEX
  8
Layer0
10
199.53986304791482
20
155.8901656337231
30
203.87499230871023
 70
     192
  0
VERTEX
  8
Layer0
10
200.0575011393287
20
155.8220172954835
30
203.87499231895455
 70
     192
  0
VERTEX
  8
Layer0
10
200.57513922832493
20
155.89016565208706
30
203.8749923243506
 70
     192
  0
VERTEX
  8
Layer0
10
201.05750113457572
20
156.08996650565268
30
203.87499232453106
 70
     192
  0
VERTEX
  8
Layer0
10
201.47171469131092
20
156.40780375819597
30
203.87499231948303
 70
     192
  0
VERTEX
  8
Layer0
10
201.7895519291593
20
156.82201732620683
30
203.87499230955135
 70
     192
  0
VERTEX
  8
Layer0
10
201.98935276561227
20
157.30437923954608
30
203.87499229541203
 70
     192
  0
VERTEX
  8
Layer0
10
218.5000024523328
20
364.6822716553975
30
203.87498532100983
 70
     192
  0
VERTEX
  8
Layer0
10
221.01764767212376
20
-37.2495800358306
30
203.8749993672046
 70
     192
  0
VERTEX
  8
Layer0
10
221.50000957837437
20
-37.04977918226502
30
203.87499937064413
 70
     192
  0
VERTEX
  8
Layer0
10
221.91422313510958
20
-36.73194192972164
30
203.87499937077413
 70
     192
  0
VERTEX
  8
Layer0
10
222.23206037295782
20
-36.317728361710905
30
203.87499936758508
 70
     192
  0
VERTEX
  8
Layer0
10
222.43186120941084
20
-35.83536644837171
30
203.8749993613026
 70
     192
  0
VERTEX
  8
Layer0
10
222.50000954765082
20
-35.3177283569578
30
203.87499935235243
 70
     192
  0
VERTEX
  8
Layer0
10
324.6258231340908
20
-36.317726023883885
30
203.87500151053317
 70
     192
  0
VERTEX
  8
Layer0
10
324.42602228052505
20
-35.835364117632956
30
203.87500149821417
 70
     192
  0
VERTEX
  8
Layer0
10
324.3578739239213
20
-35.31772602863673
30
203.8750014872049
 70
     192
  0
VERTEX
  8
Layer0
10
324.35786682860305
20
364.68227405467206
30
203.87498751629613
 70
     192
  0
VERTEX
  8
Layer0
10
324.943660386634
20
-36.731939580619084
30
203.8750015233261
 70
     192
  0
VERTEX
  8
Layer0
10
325.357873954645
20
-37.04977681846742
30
203.87500153571145
 70
     192
  0
VERTEX
  8
Layer0
10
325.8402358679841
20
-37.249577654920444
30
203.87500154684642
 70
     192
  0
VERTEX
  8
Layer0
10
326.3578739593979
20
-37.31772599316028
30
203.87500155598013
 70
     192
  0
VERTEX
  8
Layer0
10
326.8755120483941
20
-37.24957763655619
30
203.87500156248683
 70
     192
  0
VERTEX
  8
Layer0
10
327.35787395464496
20
-37.0497767829908
30
203.8750015659263
 70
     192
  0
VERTEX
  8
Layer0
10
327.7720875113802
20
-36.73193953044741
30
203.87500156605623
 70
     192
  0
VERTEX
  8
Layer0
10
328.08992474922854
20
-36.31772596243668
30
203.87500156286683
 70
     192
  0
VERTEX
  8
Layer0
10
328.28972558568137
20
-35.83536404909766
30
203.87500155658483
 70
     192
  0
VERTEX
  8
Layer0
10
328.35787392392143
20
-35.31772595768393
30
203.87500154763467
 70
     192
  0
VERTEX
  8
Layer0
10
330.500002274951
20
374.6822741636234
30
203.8749874162844
 70
     192
  0
VERTEX
  8
Layer0
10
358.568151396197
20
331.05777712797874
30
203.87498868141722
 70
     192
  0
VERTEX
  8
Layer0
10
358.76795223265
20
331.54013904131784
30
203.8749886751364
 70
     192
  0
VERTEX
  8
Layer0
10
359.0857894704983
20
331.9543526093289
30
203.87498867195623
 70
     192
  0
VERTEX
  8
Layer0
10
359.5000030272337
20
332.2721898618722
30
203.87498867208578
 70
     192
  0
VERTEX
  8
Layer0
10
359.9823649334843
20
332.4719907154377
30
203.87498867551656
 70
     192
  0
VERTEX
  8
Layer0
10
360.5000030224805
20
332.5401390720413
30
203.87498868202297
 70
     192
  0
VERTEX
  8
Layer0
10
361.0176411138944
20
332.4719907338017
30
203.87498869115691
 70
     192
  0
VERTEX
  8
Layer0
10
361.50000302723356
20
332.2721898973489
30
203.8749887023008
 70
     192
  0
VERTEX
  8
Layer0
10
361.9142165952446
20
331.9543526595004
30
203.8749887146865
 70
     192
  0
VERTEX
  8
Layer0
10
362.2320538477879
20
331.5401391027651
30
203.8749887274701
 70
     192
  0
VERTEX
  8
Layer0
10
362.4318547013533
20
331.0577771965142
30
203.8749887397878
 70
     192
  0
VERTEX
  8
Layer0
10
358.56815435659706
20
164.16463648798836
30
203.87499852446342
 70
     192
  0
VERTEX
  8
Layer0
10
358.62780750972007
20
-0.472125623383026
30
203.87500133309888
 70
     192
  0
VERTEX
  8
Layer0
10
358.7679552101624
20
163.6822745817376
30
203.87499853678204
 70
     192
  0
VERTEX
  8
Layer0
10
358.87367114363445
20
-0.011534195753100817
30
203.8750013279369
 70
     192
  0
VERTEX
  8
Layer0
10
359.0857924627055
20
163.26806102500237
30
203.87499854956542
 70
     192
  0
VERTEX
  8
Layer0
10
359.23036701085914
20
0.3697287686062303
30
203.87500132597063
 70
     192
  0
VERTEX
  8
Layer0
10
359.5000060307168
20
162.95022378715385
30
203.8749985619515
 70
     192
  0
VERTEX
  8
Layer0
10
359.67358687751056
20
0.6456808287416912
30
203.87500132734618
 70
     192
  0
VERTEX
  8
Layer0
10
359.98236794405574
20
162.7504229507011
30
203.8749985730913
 70
     192
  0
VERTEX
  8
Layer0
10
360.1731260421317
20
0.7975163077872267
30
203.87500133196554
 70
     192
  0
VERTEX
  8
Layer0
10
360.5000060354696
20
162.6822746124612
30
203.87499858222978
 70
     192
  0
VERTEX
  8
Layer0
10
360.50000890683646
20
0.8083984366339116
30
203.87500133669405
 70
     192
  0
VERTEX
  8
Layer0
10
361.01764412446573
20
162.75042296906514
30
203.87499858873164
 70
     192
  0
VERTEX
  8
Layer0
10
360.6949417361815
20
0.8148878687652888
30
203.87500133951355
 70
     192
  0
VERTEX
  8
Layer0
10
361.2034730824514
20
0.6966116685038997
30
203.87500134947723
 70
     192
  0
VERTEX
  8
Layer0
10
361.5000060307167
20
162.95022382263053
30
203.87499859216635
 70
     192
  0
VERTEX
  8
Layer0
10
361.6640645100811
20
0.4507480345890769
30
203.87500136117976
 70
     192
  0
VERTEX
  8
Layer0
10
361.9142195874517
20
163.26806107517388
30
203.87499859229519
 70
     192
  0
VERTEX
  8
Layer0
10
362.0453274744407
20
0.09405216736476944
30
203.8750013738126
 70
     192
  0
VERTEX
  8
Layer0
10
362.23205682530016
20
163.68227464318485
30
203.8749985891157
 70
     192
  0
VERTEX
  8
Layer0
10
362.32127953457615
20
-0.3491676992870033
30
203.8750013865271
 70
     192
  0
VERTEX
  8
Layer0
10
362.4318576617532
20
164.16463655652387
30
203.87499858283408
 70
     192
  0
VERTEX
  8
Layer0
10
362.47311501362157
20
-0.8487068639079943
30
203.87500139845207
 70
     192
  0
VERTEX
  8
Layer0
10
218.56815080893676
20
364.1646335664013
30
203.87498533201907
 70
     192
  0
VERTEX
  8
Layer0
10
218.56815788589094
20
-34.80009033649704
30
203.87499928297697
 70
     192
  0
VERTEX
  8
Layer0
10
218.76795166250233
20
363.6822716601507
30
203.87498534433803
 70
     192
  0
VERTEX
  8
Layer0
10
218.7679587223438
20
-34.31772842315821
30
203.8749992766949
 70
     192
  0
VERTEX
  8
Layer0
10
219.0857889150455
20
363.2680581034152
30
203.87498535713075
 70
     192
  0
VERTEX
  8
Layer0
10
219.08579596019203
20
-33.90351485514729
30
203.87499927350532
 70
     192
  0
VERTEX
  8
Layer0
10
219.50000248305645
20
362.9502208655671
30
203.87498536951543
 70
     192
  0
VERTEX
  8
Layer0
10
219.5000095169275
20
-33.58567760260391
30
203.87499927363504
 70
     192
  0
VERTEX
  8
Layer0
10
219.98236439639564
20
362.7504200291139
30
203.87498538065148
 70
     192
  0
VERTEX
  8
Layer0
10
219.98237142317817
20
-33.38587674903834
30
203.87499927707142
 70
     192
  0
VERTEX
  8
Layer0
10
220.50000248780952
20
362.68227169087385
30
203.87498538978508
 70
     192
  0
VERTEX
  8
Layer0
10
220.50000951217424
20
-33.31772839243433
30
203.8749992835817
 70
     192
  0
VERTEX
  8
Layer0
10
221.01764057680577
20
362.75042004747786
30
203.87498539629183
 70
     192
  0
VERTEX
  8
Layer0
10
221.0176476035881
20
-33.38587673067426
30
203.8749992927117
 70
     192
  0
VERTEX
  8
Layer0
10
221.50000248305645
20
362.9502209010437
30
203.8749853997303
 70
     192
  0
VERTEX
  8
Layer0
10
221.50000951692732
20
-33.58567756712729
30
203.87499930385002
 70
     192
  0
VERTEX
  8
Layer0
10
221.9142160397916
20
363.2680581535867
30
203.87498539986106
 70
     192
  0
VERTEX
  8
Layer0
10
221.9142230849381
20
-33.903514804975444
30
203.8749993162355
 70
     192
  0
VERTEX
  8
Layer0
10
222.23205327764015
20
363.6822717215976
30
203.8749853966717
 70
     192
  0
VERTEX
  8
Layer0
10
222.23206033748144
20
-34.317728361711005
30
203.8749993290287
 70
     192
  0
VERTEX
  8
Layer0
10
222.431854114093
20
364.1646336349369
30
203.87498539038972
 70
     192
  0
VERTEX
  8
Layer0
10
222.431861191047
20
-34.80009026796157
30
203.87499934134752
 70
     192
  0
VERTEX
  8
Layer0
10
222.50000245233298
20
364.6822717263508
30
203.8749853814397
 70
     192
  0
VERTEX
  8
Layer0
10
112.71028643266666
20
364.1646316886634
30
203.87498373278356
 70
     192
  0
VERTEX
  8
Layer0
10
112.71029350962058
20
-34.80009221423557
30
203.87499768373758
 70
     192
  0
VERTEX
  8
Layer0
10
112.9100872862321
20
363.6822697824125
30
203.87498374510287
 70
     192
  0
VERTEX
  8
Layer0
10
112.91009434607346
20
-34.317730300896194
30
203.87499767745527
 70
     192
  0
VERTEX
  8
Layer0
10
113.22792453877544
20
363.26805622567724
30
203.87498375789565
 70
     192
  0
VERTEX
  8
Layer0
10
113.22793158392174
20
-33.90351673288555
30
203.87499767426573
 70
     192
  0
VERTEX
  8
Layer0
10
113.64213810678639
20
362.9502189878287
30
203.8749837702804
 70
     192
  0
VERTEX
  8
Layer0
10
113.6421451406571
20
-33.58567948034199
30
203.87499767439542
 70
     192
  0
VERTEX
  8
Layer0
10
114.1245000201256
20
362.750418151376
30
203.87498378141598
 70
     192
  0
VERTEX
  8
Layer0
10
114.12450704690788
20
-33.38587862677641
30
203.8749976778315
 70
     192
  0
VERTEX
  8
Layer0
10
114.6421381115395
20
362.6822698131363
30
203.87498379055
 70
     192
  0
VERTEX
  8
Layer0
10
114.6421451359041
20
-33.317730270172774
30
203.87499768434222
 70
     192
  0
VERTEX
  8
Layer0
10
115.15977620053536
20
362.75041816974
30
203.87498379705644
 70
     192
  0
VERTEX
  8
Layer0
10
115.15978322731802
20
-33.38587860841279
30
203.8749976934718
 70
     192
  0
VERTEX
  8
Layer0
10
115.64213810678628
20
362.95021902330524
30
203.87498380049513
 70
     192
  0
VERTEX
  8
Layer0
10
115.64214514065701
20
-33.58567944486582
30
203.87499770461042
 70
     192
  0
VERTEX
  8
Layer0
10
116.05635166352145
20
363.26805627584866
30
203.87498380062596
 70
     192
  0
VERTEX
  8
Layer0
10
116.05635870866791
20
-33.90351668271388
30
203.87499771699612
 70
     192
  0
VERTEX
  8
Layer0
10
116.37418890136996
20
363.6822698438597
30
203.8749837974362
 70
     192
  0
VERTEX
  8
Layer0
10
116.37419596121119
20
-34.31773023944908
30
203.874997729789
 70
     192
  0
VERTEX
  8
Layer0
10
116.57398973782279
20
364.1646317571989
30
203.87498379115434
 70
     192
  0
VERTEX
  8
Layer0
10
116.57399681477675
20
-34.80009214569965
30
203.8749977421079
 70
     192
  0
VERTEX
  8
Layer0
10
116.64213807606284
20
364.6822698486125
30
203.87498378220408
 70
     192
  0
VERTEX
  8
Layer0
10
324.4260151852068
20
364.16463596567587
30
203.8749875273056
 70
     192
  0
VERTEX
  8
Layer0
10
324.42602226216115
20
-34.80008793722282
30
203.87500147825907
 70
     192
  0
VERTEX
  8
Layer0
10
324.62581603877254
20
363.6822740594249
30
203.87498753962456
 70
     192
  0
VERTEX
  8
Layer0
10
324.6258230986142
20
-34.31772602388398
30
203.87500147197707
 70
     192
  0
VERTEX
  8
Layer0
10
324.94365329131557
20
363.26806050268965
30
203.8749875524172
 70
     192
  0
VERTEX
  8
Layer0
10
324.94366033646253
20
-33.903512455872885
30
203.87500146878753
 70
     192
  0
VERTEX
  8
Layer0
10
325.3578668593265
20
362.9502232648412
30
203.87498756480193
 70
     192
  0
VERTEX
  8
Layer0
10
325.35787389319785
20
-33.585675203329686
30
203.87500146891722
 70
     192
  0
VERTEX
  8
Layer0
10
325.8402287726656
20
362.75042242838873
30
203.87498757593764
 70
     192
  0
VERTEX
  8
Layer0
10
325.84023579944846
20
-33.38587434976411
30
203.87500147235346
 70
     192
  0
VERTEX
  8
Layer0
10
326.35786686407954
20
362.6822740901487
30
203.87498758507158
 70
     192
  0
VERTEX
  8
Layer0
10
326.3578738884446
20
-33.31772599316029
30
203.87500147886388
 70
     192
  0
VERTEX
  8
Layer0
10
326.8755049530759
20
362.75042244675285
30
203.87498759157805
 70
     192
  0
VERTEX
  8
Layer0
10
326.8755119798584
20
-33.385874331399854
30
203.87500148799387
 70
     192
  0
VERTEX
  8
Layer0
10
327.3578668593266
20
362.95022330031776
30
203.87498759501682
 70
     192
  0
VERTEX
  8
Layer0
10
327.3578738931978
20
-33.58567516785306
30
203.8750014991322
 70
     192
  0
VERTEX
  8
Layer0
10
327.77208041606195
20
363.26806055286113
30
203.8749875951476
 70
     192
  0
VERTEX
  8
Layer0
10
327.77208746120874
20
-33.903512405701214
30
203.87500151151767
 70
     192
  0
VERTEX
  8
Layer0
10
328.0899176539101
20
363.68227412087214
30
203.87498759195822
 70
     192
  0
VERTEX
  8
Layer0
10
328.08992471375194
20
-34.3177259624366
30
203.87500152431087
 70
     192
  0
VERTEX
  8
Layer0
10
328.2897184903631
20
364.16463603421136
30
203.87498758567622
 70
     192
  0
VERTEX
  8
Layer0
10
328.28972556731753
20
-34.80008786868753
30
203.87500153662972
 70
     192
  0
VERTEX
  8
Layer0
10
328.3578668286029
20
364.68227412562527
30
203.87498757672589
 70
     192
  0
VERTEX
  8
Layer0
10
78.5681572986303
20
-1.6932333765377088
30
203.87499652962495
 70
     192
  0
VERTEX
  8
Layer0
10
78.7679581521957
20
-2.1755952827884597
30
203.87499654194343
 70
     192
  0
VERTEX
  8
Layer0
10
79.0857954047391
20
-2.589808839523838
30
203.87499655472732
 70
     192
  0
VERTEX
  8
Layer0
10
79.50000897275005
20
-2.907646077371992
30
203.87499656711213
 70
     192
  0
VERTEX
  8
Layer0
10
79.98237088608909
20
-3.1074469138251977
30
203.87499657825703
 70
     192
  0
VERTEX
  8
Layer0
10
80.50000897750296
20
-3.175595252064765
30
203.87499658738628
 70
     192
  0
VERTEX
  8
Layer0
10
81.01764706649922
20
-3.107446895460944
30
203.87499659389735
 70
     192
  0
VERTEX
  8
Layer0
10
81.50000897274995
20
-2.9076460418955503
30
203.87499659732717
 70
     192
  0
VERTEX
  8
Layer0
10
81.91422252948512
20
-2.5898087893521673
30
203.87499659745743
 70
     192
  0
VERTEX
  8
Layer0
10
82.23205976733362
20
-2.1755952213414353
30
203.87499659427732
 70
     192
  0
VERTEX
  8
Layer0
10
82.43186060378646
20
-1.6932333080024164
30
203.87499658799524
 70
     192
  0
VERTEX
  8
Layer0
10
112.71028641430263
20
365.1999078690735
30
203.8749837128281
 70
     192
  0
VERTEX
  8
Layer0
10
112.91008725075548
20
365.68226978241245
30
203.87498370654242
 70
     192
  0
VERTEX
  8
Layer0
10
113.22792448860396
20
366.09648335042334
30
203.87498370335692
 70
     192
  0
VERTEX
  8
Layer0
10
113.6421380453391
20
366.4143206029666
30
203.87498370348672
 70
     192
  0
VERTEX
  8
Layer0
10
114.12449995159007
20
366.61412145653213
30
203.87498370692217
 70
     192
  0
VERTEX
  8
Layer0
10
114.64213804058627
20
366.6822698131361
30
203.8749837134329
 70
     192
  0
VERTEX
  8
Layer0
10
115.15977613199985
20
366.61412147489614
30
203.8749837225626
 70
     192
  0
VERTEX
  8
Layer0
10
115.64213804533907
20
366.4143206384433
30
203.87498373370147
 70
     192
  0
VERTEX
  8
Layer0
10
116.05635161334999
20
366.0964834005947
30
203.87498374608717
 70
     192
  0
VERTEX
  8
Layer0
10
116.37418886589339
20
365.68226984385956
30
203.87498375887586
 70
     192
  0
VERTEX
  8
Layer0
10
116.57398971945874
20
365.199907937609
30
203.87498377119886
 70
     192
  0
VERTEX
  8
Layer0
10
220.5000024168565
20
366.68227169087436
30
203.87498531266806
 70
     192
  0
VERTEX
  8
Layer0
10
219.98236432786027
20
366.6141233342704
30
203.87498530615764
 70
     192
  0
VERTEX
  8
Layer0
10
219.50000242160925
20
366.4143224807046
30
203.8749853027221
 70
     192
  0
VERTEX
  8
Layer0
10
219.08578886487396
20
366.0964852281616
30
203.8749853025923
 70
     192
  0
VERTEX
  8
Layer0
10
218.76795162702572
20
365.6822716601506
30
203.8749853057778
 70
     192
  0
VERTEX
  8
Layer0
10
218.5681507905728
20
365.19990974681144
30
203.87498531206325
 70
     192
  0
VERTEX
  8
Layer0
10
183.12564928847394
20
166.9999091231906
30
203.87499168961236
 70
     192
  0
VERTEX
  8
Layer0
10
183.325450124927
20
167.48227103652988
30
203.87499167547327
 70
     192
  0
VERTEX
  8
Layer0
10
183.64328736277534
20
167.8964846045408
30
203.87499166554102
 70
     192
  0
VERTEX
  8
Layer0
10
184.0575009195105
20
168.214321857084
30
203.87499166049318
 70
     192
  0
VERTEX
  8
Layer0
10
184.53986282576128
20
168.41412271064948
30
203.87499166067363
 70
     192
  0
VERTEX
  8
Layer0
10
185.05750091475753
20
168.48227106725312
30
203.87499166606963
 70
     192
  0
VERTEX
  8
Layer0
10
185.57513900617138
20
168.41412272901334
30
203.874991676314
 70
     192
  0
VERTEX
  8
Layer0
10
186.0575009195105
20
168.2143218925604
30
203.87499169070804
 70
     192
  0
VERTEX
  8
Layer0
10
186.47171448752152
20
167.89648465471197
30
203.87499170827118
 70
     192
  0
VERTEX
  8
Layer0
10
186.78955174006472
20
167.4822710979768
30
203.87499172780687
 70
     192
  0
VERTEX
  8
Layer0
10
186.98935259363017
20
166.99990919172603
30
203.874991747983
 70
     192
  0
VERTEX
  8
Layer0
10
198.1256491348557
20
175.66016342710924
30
203.87499163223154
 70
     192
  0
VERTEX
  8
Layer0
10
198.3254499713087
20
176.14252534044826
30
203.87499161809214
 70
     192
  0
VERTEX
  8
Layer0
10
198.64328720915708
20
176.5567389084593
30
203.87499160816026
 70
     192
  0
VERTEX
  8
Layer0
10
199.05750076589226
20
176.8745761610024
30
203.87499160311225
 70
     192
  0
VERTEX
  8
Layer0
10
199.53986267214307
20
177.074377014568
30
203.8749916032928
 70
     192
  0
VERTEX
  8
Layer0
10
200.0575007611392
20
177.14252537117204
30
203.87499160868893
 70
     192
  0
VERTEX
  8
Layer0
10
200.57513885255315
20
177.07437703293203
30
203.87499161893308
 70
     192
  0
VERTEX
  8
Layer0
10
201.05750076589226
20
176.87457619647904
30
203.87499163332723
 70
     192
  0
VERTEX
  8
Layer0
10
201.47171433390326
20
176.5567389586308
30
203.87499165089037
 70
     192
  0
VERTEX
  8
Layer0
10
201.78955158644644
20
176.14252540189557
30
203.87499167042594
 70
     192
  0
VERTEX
  8
Layer0
10
201.989352440012
20
175.66016349564475
30
203.87499169060203
 70
     192
  0
VERTEX
  8
Layer0
10
221.0176405082704
20
366.6141233526344
30
203.87498532179802
 70
     192
  0
VERTEX
  8
Layer0
10
221.50000242160925
20
366.41432251618124
30
203.87498533293694
 70
     192
  0
VERTEX
  8
Layer0
10
221.91421598962006
20
366.0964852783331
30
203.87498534532267
 70
     192
  0
VERTEX
  8
Layer0
10
222.23205324216354
20
365.68227172159754
30
203.87498535811147
 70
     192
  0
VERTEX
  8
Layer0
10
222.43185409572902
20
365.199909815347
30
203.87498537043388
 70
     192
  0
VERTEX
  8
Layer0
10
324.62581600329594
20
365.6822740594252
30
203.87498750106434
 70
     192
  0
VERTEX
  8
Layer0
10
324.4260151668428
20
365.19991214608604
30
203.87498750734974
 70
     192
  0
VERTEX
  8
Layer0
10
324.9436532411441
20
366.09648762743626
30
203.8749874978788
 70
     192
  0
VERTEX
  8
Layer0
10
325.3578667978793
20
366.41432487997946
30
203.87498749800827
 70
     192
  0
VERTEX
  8
Layer0
10
325.8402287041301
20
366.6141257335445
30
203.8749875014438
 70
     192
  0
VERTEX
  8
Layer0
10
326.35786679312633
20
366.68227409014855
30
203.87498750795467
 70
     192
  0
VERTEX
  8
Layer0
10
326.87550488454025
20
366.6141257519086
30
203.87498751708418
 70
     192
  0
VERTEX
  8
Layer0
10
327.3578667978794
20
366.4143249154562
30
203.87498752822313
 70
     192
  0
VERTEX
  8
Layer0
10
327.7720803658905
20
366.0964876776075
30
203.87498754060883
 70
     192
  0
VERTEX
  8
Layer0
10
328.0899176184335
20
365.6822741208724
30
203.874987553398
 70
     192
  0
VERTEX
  8
Layer0
10
328.2897184719991
20
365.1999122146215
30
203.8749875657204
 70
     192
  0
VERTEX
  8
Layer0
10
0.0
 20
 0.0
 30
0.0
 70
     128
 71
-1
 72
2
 73
-3
  0
VERTEX
  8
Layer0
10
0.0
 20
 0.0
 30
0.0
 70
     128
 71
-2
 72
1
 73
-4
  0
VERTEX
  8
Layer0
10
0.0
 20
 0.0
 30
0.0
 70
     128
 71
-2
 72
-4
 73
5
  0
VERTEX
  8
Layer0
10
0.0
 20
 0.0
 30
0.0
 70
     128
 71
-5
 72
4
 73
-6
  0
VERTEX
  8
Layer0
10
0.0
 20
 0.0
 30
0.0
 70
     128
 71
-5
 72
-6
 73
7
  0
VERTEX
  8
Layer0
10
0.0
 20
 0.0
 30
0.0
 70
     128
 71
-7
 72
6
 73
-8
  0
VERTEX
  8
Layer0
10
0.0
 20
 0.0
 30
0.0
 70
     128
 71
-7
 72
-8
 73
9
  0
VERTEX
  8
Layer0
10
0.0
 20
 0.0
 30
0.0
 70
     128
 71
-9
 72
8
 73
-10
  0
VERTEX
  8
Layer0
10
0.0
 20
 0.0
 30
0.0
 70
     128
 71
-9
 72
-10
 73
11
  0
VERTEX
  8
Layer0
10
0.0
 20
 0.0
 30
0.0
 70
     128
 71
-11
 72
10
 73
-12
  0
VERTEX
  8
Layer0
10
0.0
 20
 0.0
 30
0.0
 70
     128
 71
-11
 72
-12
 73
13
  0
VERTEX
  8
Layer0
10
0.0
 20
 0.0
 30
0.0
 70
     128
 71
-13
 72
12
 73
-14
  0
VERTEX
  8
Layer0
10
0.0
 20
 0.0
 30
0.0
 70
     128
 71
-13
 72
-14
 73
15
  0
VERTEX
  8
Layer0
10
0.0
 20
 0.0
 30
0.0
 70
     128
 71
-15
 72
14
 73
-16
  0
VERTEX
  8
Layer0
10
0.0
 20
 0.0
 30
0.0
 70
     128
 71
-15
 72
-16
 73
17
  0
VERTEX
  8
Layer0
10
0.0
 20
 0.0
 30
0.0
 70
     128
 71
-17
 72
16
 73
-18
  0
VERTEX
  8
Layer0
10
0.0
 20
 0.0
 30
0.0
 70
     128
 71
-17
 72
-18
 73
19
  0
VERTEX
  8
Layer0
10
0.0
 20
 0.0
 30
0.0
 70
     128
 71
-19
 72
18
 73
-20
  0
VERTEX
  8
Layer0
10
0.0
 20
 0.0
 30
0.0
 70
     128
 71
-19
 72
-20
 73
21
  0
VERTEX
  8
Layer0
10
0.0
 20
 0.0
 30
0.0
 70
     128
 71
-21
 72
20
 73
-22
  0
VERTEX
  8
Layer0
10
0.0
 20
 0.0
 30
0.0
 70
     128
 71
-21
 72
-22
 73
23
  0
VERTEX
  8
Layer0
10
0.0
 20
 0.0
 30
0.0
 70
     128
 71
-23
 72
22
 73
-24
  0
VERTEX
  8
Layer0
10
0.0
 20
 0.0
 30
0.0
 70
     128
 71
-23
 72
-24
 73
25
  0
VERTEX
  8
Layer0
10
0.0
 20
 0.0
 30
0.0
 70
     128
 71
-25
 72
24
 73
-26
  0
VERTEX
  8
Layer0
10
0.0
 20
 0.0
 30
0.0
 70
     128
 71
-27
 72
28
 73
-29
  0
VERTEX
  8
Layer0
10
0.0
 20
 0.0
 30
0.0
 70
     128
 71
-28
 72
27
 73
-30
  0
VERTEX
  8
Layer0
10
0.0
 20
 0.0
 30
0.0
 70
     128
 71
-28
 72
-30
 73
31
  0
VERTEX
  8
Layer0
10
0.0
 20
 0.0
 30
0.0
 70
     128
 71
-31
 72
30
 73
-32
  0
VERTEX
  8
Layer0
10
0.0
 20
 0.0
 30
0.0
 70
     128
 71
-31
 72
-32
 73
33
  0
VERTEX
  8
Layer0
10
0.0
 20
 0.0
 30
0.0
 70
     128
 71
-33
 72
32
 73
-34
  0
VERTEX
  8
Layer0
10
0.0
 20
 0.0
 30
0.0
 70
     128
 71
-33
 72
-34
 73
35
  0
VERTEX
  8
Layer0
10
0.0
 20
 0.0
 30
0.0
 70
     128
 71
-35
 72
34
 73
-36
  0
VERTEX
  8
Layer0
10
0.0
 20
 0.0
 30
0.0
 70
     128
 71
-35
 72
-36
 73
37
  0
VERTEX
  8
Layer0
10
0.0
 20
 0.0
 30
0.0
 70
     128
 71
-37
 72
36
 73
-38
  0
VERTEX
  8
Layer0
10
0.0
 20
 0.0
 30
0.0
 70
     128
 71
-37
 72
-38
 73
39
  0
VERTEX
  8
Layer0
10
0.0
 20
 0.0
 30
0.0
 70
     128
 71
-39
 72
38
 73
-40
  0
VERTEX
  8
Layer0
10
0.0
 20
 0.0
 30
0.0
 70
     128
 71
-39
 72
-40
 73
41
  0
VERTEX
  8
Layer0
10
0.0
 20
 0.0
 30
0.0
 70
     128
 71
-41
 72
40
 73
-42
  0
VERTEX
  8
Layer0
10
0.0
 20
 0.0
 30
0.0
 70
     128
 71
-41
 72
-42
 73
43
  0
VERTEX
  8
Layer0
10
0.0
 20
 0.0
 30
0.0
 70
     128
 71
-43
 72
42
 73
-44
  0
VERTEX
  8
Layer0
10
0.0
 20
 0.0
 30
0.0
 70
     128
 71
-43
 72
-44
 73
45
  0
VERTEX
  8
Layer0
10
0.0
 20
 0.0
 30
0.0
 70
     128
 71
-45
 72
44
 73
-46
  0
VERTEX
  8
Layer0
10
0.0
 20
 0.0
 30
0.0
 70
     128
 71
-45
 72
-46
 73
47
  0
VERTEX
  8
Layer0
10
0.0
 20
 0.0
 30
0.0
 70
     128
 71
-47
 72
46
 73
-48
  0
VERTEX
  8
Layer0
10
0.0
 20
 0.0
 30
0.0
 70
     128
 71
-47
 72
-48
 73
49
  0
VERTEX
  8
Layer0
10
0.0
 20
 0.0
 30
0.0
 70
     128
 71
-49
 72
48
 73
-50
  0
VERTEX
  8
Layer0
10
0.0
 20
 0.0
 30
0.0
 70
     128
 71
-49
 72
-50
 73
51
  0
VERTEX
  8
Layer0
10
0.0
 20
 0.0
 30
0.0
 70
     128
 71
-51
 72
50
 73
-52
  0
VERTEX
  8
Layer0
10
0.0
 20
 0.0
 30
0.0
 70
     128
 71
-53
 72
54
 73
-27
  0
VERTEX
  8
Layer0
10
0.0
 20
 0.0
 30
0.0
 70
     128
 71
-54
 72
53
 73
-55
  0
VERTEX
  8
Layer0
10
0.0
 20
 0.0
 30
0.0
 70
     128
 71
-54
 72
-55
 73
56
  0
VERTEX
  8
Layer0
10
0.0
 20
 0.0
 30
0.0
 70
     128
 71
-56
 72
55
 73
-57
  0
VERTEX
  8
Layer0
10
0.0
 20
 0.0
 30
0.0
 70
     128
 71
-56
 72
-57
 73
58
  0
VERTEX
  8
Layer0
10
0.0
 20
 0.0
 30
0.0
 70
     128
 71
-58
 72
57
 73
-59
  0
VERTEX
  8
Layer0
10
0.0
 20
 0.0
 30
0.0
 70
     128
 71
-58
 72
-59
 73
60
  0
VERTEX
  8
Layer0
10
0.0
 20
 0.0
 30
0.0
 70
     128
 71
-60
 72
59
 73
-61
  0
VERTEX
  8
Layer0
10
0.0
 20
 0.0
 30
0.0
 70
     128
 71
-60
 72
-61
 73
62
  0
VERTEX
  8
Layer0
10
0.0
 20
 0.0
 30
0.0
 70
     128
 71
-62
 72
61
 73
-63
  0
VERTEX
  8
Layer0
10
0.0
 20
 0.0
 30
0.0
 70
     128
 71
-62
 72
-63
 73
64
  0
VERTEX
  8
Layer0
10
0.0
 20
 0.0
 30
0.0
 70
     128
 71
-64
 72
63
 73
-65
  0
VERTEX
  8
Layer0
10
0.0
 20
 0.0
 30
0.0
 70
     128
 71
-64
 72
-65
 73
66
  0
VERTEX
  8
Layer0
10
0.0
 20
 0.0
 30
0.0
 70
     128
 71
-66
 72
65
 73
-67
  0
VERTEX
  8
Layer0
10
0.0
 20
 0.0
 30
0.0
 70
     128
 71
-66
 72
-67
 73
68
  0
VERTEX
  8
Layer0
10
0.0
 20
 0.0
 30
0.0
 70
     128
 71
-68
 72
67
 73
-69
  0
VERTEX
  8
Layer0
10
0.0
 20
 0.0
 30
0.0
 70
     128
 71
-68
 72
-69
 73
70
  0
VERTEX
  8
Layer0
10
0.0
 20
 0.0
 30
0.0
 70
     128
 71
-70
 72
69
 73
-71
  0
VERTEX
  8
Layer0
10
0.0
 20
 0.0
 30
0.0
 70
     128
 71
-70
 72
-71
 73
72
  0
VERTEX
  8
Layer0
10
0.0
 20
 0.0
 30
0.0
 70
     128
 71
-72
 72
71
 73
-73
  0
VERTEX
  8
Layer0
10
0.0
 20
 0.0
 30
0.0
 70
     128
 71
-72
 72
-73
 73
74
  0
VERTEX
  8
Layer0
10
0.0
 20
 0.0
 30
0.0
 70
     128
 71
-74
 72
73
 73
-75
  0
VERTEX
  8
Layer0
10
0.0
 20
 0.0
 30
0.0
 70
     128
 71
-74
 72
-75
 73
52
  0
VERTEX
  8
Layer0
10
0.0
 20
 0.0
 30
0.0
 70
     128
 71
-52
 72
75
 73
-76
  0
VERTEX
  8
Layer0
10
0.0
 20
 0.0
 30
0.0
 70
     128
 71
-77
 72
-78
 73
79
  0
VERTEX
  8
Layer0
10
0.0
 20
 0.0
 30
0.0
 70
     128
 71
-78
 72
-77
 73
80
  0
VERTEX
  8
Layer0
10
0.0
 20
 0.0
 30
0.0
 70
     128
 71
-80
 72
-77
 73
29
  0
VERTEX
  8
Layer0
10
0.0
 20
 0.0
 30
0.0
 70
     128
 71
-29
 72
77
 73
-81
  0
VERTEX
  8
Layer0
10
0.0
 20
 0.0
 30
0.0
 70
     128
 71
-79
 72
78
 73
-82
  0
VERTEX
  8
Layer0
10
0.0
 20
 0.0
 30
0.0
 70
     128
 71
-79
 72
82
 73
-83
  0
VERTEX
  8
Layer0
10
0.0
 20
 0.0
 30
0.0
 70
     128
 71
-79
 72
83
 73
-84
  0
VERTEX
  8
Layer0
10
0.0
 20
 0.0
 30
0.0
 70
     128
 71
-79
 72
84
 73
-85
  0
VERTEX
  8
Layer0
10
0.0
 20
 0.0
 30
0.0
 70
     128
 71
-79
 72
85
 73
-86
  0
VERTEX
  8
Layer0
10
0.0
 20
 0.0
 30
0.0
 70
     128
 71
-79
 72
86
 73
-87
  0
VERTEX
  8
Layer0
10
0.0
 20
 0.0
 30
0.0
 70
     128
 71
-79
 72
87
 73
-88
  0
VERTEX
  8
Layer0
10
0.0
 20
 0.0
 30
0.0
 70
     128
 71
-79
 72
88
 73
-89
  0
VERTEX
  8
Layer0
10
0.0
 20
 0.0
 30
0.0
 70
     128
 71
-79
 72
89
 73
-90
  0
VERTEX
  8
Layer0
10
0.0
 20
 0.0
 30
0.0
 70
     128
 71
-79
 72
90
 73
-51
  0
VERTEX
  8
Layer0
10
0.0
 20
 0.0
 30
0.0
 70
     128
 71
-79
 72
-51
 73
-52
  0
VERTEX
  8
Layer0
10
0.0
 20
 0.0
 30
0.0
 70
     128
 71
-79
 72
-52
 73
-76
  0
VERTEX
  8
Layer0
10
0.0
 20
 0.0
 30
0.0
 70
     128
 71
-91
 72
92
 73
-93
  0
VERTEX
  8
Layer0
10
0.0
 20
 0.0
 30
0.0
 70
     128
 71
-92
 72
91
 73
-94
  0
VERTEX
  8
Layer0
10
0.0
 20
 0.0
 30
0.0
 70
     128
 71
-92
 72
-94
 73
95
  0
VERTEX
  8
Layer0
10
0.0
 20
 0.0
 30
0.0
 70
     128
 71
-95
 72
94
 73
-96
  0
VERTEX
  8
Layer0
10
0.0
 20
 0.0
 30
0.0
 70
     128
 71
-95
 72
-96
 73
97
  0
VERTEX
  8
Layer0
10
0.0
 20
 0.0
 30
0.0
 70
     128
 71
-97
 72
96
 73
-98
  0
VERTEX
  8
Layer0
10
0.0
 20
 0.0
 30
0.0
 70
     128
 71
-97
 72
-98
 73
99
  0
VERTEX
  8
Layer0
10
0.0
 20
 0.0
 30
0.0
 70
     128
 71
-99
 72
98
 73
-100
  0
VERTEX
  8
Layer0
10
0.0
 20
 0.0
 30
0.0
 70
     128
 71
-99
 72
-100
 73
101
  0
VERTEX
  8
Layer0
10
0.0
 20
 0.0
 30
0.0
 70
     128
 71
-101
 72
100
 73
-102
  0
VERTEX
  8
Layer0
10
0.0
 20
 0.0
 30
0.0
 70
     128
 71
-101
 72
-102
 73
103
  0
VERTEX
  8
Layer0
10
0.0
 20
 0.0
 30
0.0
 70
     128
 71
-103
 72
102
 73
-104
  0
VERTEX
  8
Layer0
10
0.0
 20
 0.0
 30
0.0
 70
     128
 71
-103
 72
-104
 73
105
  0
VERTEX
  8
Layer0
10
0.0
 20
 0.0
 30
0.0
 70
     128
 71
-105
 72
104
 73
-106
  0
VERTEX
  8
Layer0
10
0.0
 20
 0.0
 30
0.0
 70
     128
 71
-105
 72
-106
 73
107
  0
VERTEX
  8
Layer0
10
0.0
 20
 0.0
 30
0.0
 70
     128
 71
-107
 72
106
 73
-108
  0
VERTEX
  8
Layer0
10
0.0
 20
 0.0
 30
0.0
 70
     128
 71
-107
 72
-108
 73
109
  0
VERTEX
  8
Layer0
10
0.0
 20
 0.0
 30
0.0
 70
     128
 71
-109
 72
108
 73
-110
  0
VERTEX
  8
Layer0
10
0.0
 20
 0.0
 30
0.0
 70
     128
 71
-109
 72
-110
 73
111
  0
VERTEX
  8
Layer0
10
0.0
 20
 0.0
 30
0.0
 70
     128
 71
-111
 72
110
 73
-112
  0
VERTEX
  8
Layer0
10
0.0
 20
 0.0
 30
0.0
 70
     128
 71
-111
 72
-112
 73
113
  0
VERTEX
  8
Layer0
10
0.0
 20
 0.0
 30
0.0
 70
     128
 71
-113
 72
112
 73
-114
  0
VERTEX
  8
Layer0
10
0.0
 20
 0.0
 30
0.0
 70
     128
 71
-113
 72
-114
 73
115
  0
VERTEX
  8
Layer0
10
0.0
 20
 0.0
 30
0.0
 70
     128
 71
-115
 72
114
 73
-116
  0
VERTEX
  8
Layer0
10
0.0
 20
 0.0
 30
0.0
 70
     128
 71
-117
 72
-91
 73
-93
  0
VERTEX
  8
Layer0
10
0.0
 20
 0.0
 30
0.0
 70
     128
 71
-91
 72
-117
 73
-118
  0
VERTEX
  8
Layer0
10
0.0
 20
 0.0
 30
0.0
 70
     128
 71
-118
 72
-117
 73
119
  0
VERTEX
  8
Layer0
10
0.0
 20
 0.0
 30
0.0
 70
     128
 71
-119
 72
-117
 73
120
  0
VERTEX
  8
Layer0
10
0.0
 20
 0.0
 30
0.0
 70
     128
 71
-120
 72
-117
 73
121
  0
VERTEX
  8
Layer0
10
0.0
 20
 0.0
 30
0.0
 70
     128
 71
-121
 72
-117
 73
122
  0
VERTEX
  8
Layer0
10
0.0
 20
 0.0
 30
0.0
 70
     128
 71
-122
 72
-117
 73
123
  0
VERTEX
  8
Layer0
10
0.0
 20
 0.0
 30
0.0
 70
     128
 71
-123
 72
-117
 73
124
  0
VERTEX
  8
Layer0
10
0.0
 20
 0.0
 30
0.0
 70
     128
 71
-124
 72
-117
 73
125
  0
VERTEX
  8
Layer0
10
0.0
 20
 0.0
 30
0.0
 70
     128
 71
-125
 72
117
 73
-126
  0
VERTEX
  8
Layer0
10
0.0
 20
 0.0
 30
0.0
 70
     128
 71
-125
 72
-126
 73
127
  0
VERTEX
  8
Layer0
10
0.0
 20
 0.0
 30
0.0
 70
     128
 71
-127
 72
-126
 73
128
  0
VERTEX
  8
Layer0
10
0.0
 20
 0.0
 30
0.0
 70
     128
 71
-128
 72
-126
 73
129
  0
VERTEX
  8
Layer0
10
0.0
 20
 0.0
 30
0.0
 70
     128
 71
-129
 72
-126
 73
130
  0
VERTEX
  8
Layer0
10
0.0
 20
 0.0
 30
0.0
 70
     128
 71
-130
 72
-126
 73
131
  0
VERTEX
  8
Layer0
10
0.0
 20
 0.0
 30
0.0
 70
     128
 71
-131
 72
-126
 73
132
  0
VERTEX
  8
Layer0
10
0.0
 20
 0.0
 30
0.0
 70
     128
 71
-132
 72
-126
 73
-116
  0
VERTEX
  8
Layer0
10
0.0
 20
 0.0
 30
0.0
 70
     128
 71
-116
 72
126
 73
-133
  0
VERTEX
  8
Layer0
10
0.0
 20
 0.0
 30
0.0
 70
     128
 71
-134
 72
-135
 73
-136
  0
VERTEX
  8
Layer0
10
0.0
 20
 0.0
 30
0.0
 70
     128
 71
-135
 72
-134
 73
137
  0
VERTEX
  8
Layer0
10
0.0
 20
 0.0
 30
0.0
 70
     128
 71
-137
 72
-134
 73
138
  0
VERTEX
  8
Layer0
10
0.0
 20
 0.0
 30
0.0
 70
     128
 71
-138
 72
-134
 73
139
  0
VERTEX
  8
Layer0
10
0.0
 20
 0.0
 30
0.0
 70
     128
 71
-139
 72
-134
 73
140
  0
VERTEX
  8
Layer0
10
0.0
 20
 0.0
 30
0.0
 70
     128
 71
-140
 72
-134
 73
141
  0
VERTEX
  8
Layer0
10
0.0
 20
 0.0
 30
0.0
 70
     128
 71
-141
 72
-134
 73
142
  0
VERTEX
  8
Layer0
10
0.0
 20
 0.0
 30
0.0
 70
     128
 71
-142
 72
134
 73
-117
  0
VERTEX
  8
Layer0
10
0.0
 20
 0.0
 30
0.0
 70
     128
 71
-142
 72
-117
 73
143
  0
VERTEX
  8
Layer0
10
0.0
 20
 0.0
 30
0.0
 70
     128
 71
-143
 72
-117
 73
144
  0
VERTEX
  8
Layer0
10
0.0
 20
 0.0
 30
0.0
 70
     128
 71
-144
 72
-117
 73
145
  0
VERTEX
  8
Layer0
10
0.0
 20
 0.0
 30
0.0
 70
     128
 71
-145
 72
-117
 73
146
  0
VERTEX
  8
Layer0
10
0.0
 20
 0.0
 30
0.0
 70
     128
 71
-146
 72
-117
 73
147
  0
VERTEX
  8
Layer0
10
0.0
 20
 0.0
 30
0.0
 70
     128
 71
-147
 72
-117
 73
148
  0
VERTEX
  8
Layer0
10
0.0
 20
 0.0
 30
0.0
 70
     128
 71
-148
 72
-117
 73
-149
  0
VERTEX
  8
Layer0
10
0.0
 20
 0.0
 30
0.0
 70
     128
 71
-148
 72
149
 73
-150
  0
VERTEX
  8
Layer0
10
0.0
 20
 0.0
 30
0.0
 70
     128
 71
-148
 72
150
 73
-151
  0
VERTEX
  8
Layer0
10
0.0
 20
 0.0
 30
0.0
 70
     128
 71
-148
 72
151
 73
-152
  0
VERTEX
  8
Layer0
10
0.0
 20
 0.0
 30
0.0
 70
     128
 71
-148
 72
152
 73
-153
  0
VERTEX
  8
Layer0
10
0.0
 20
 0.0
 30
0.0
 70
     128
 71
-148
 72
153
 73
-154
  0
VERTEX
  8
Layer0
10
0.0
 20
 0.0
 30
0.0
 70
     128
 71
-148
 72
-154
 73
-155
  0
VERTEX
  8
Layer0
10
0.0
 20
 0.0
 30
0.0
 70
     128
 71
-148
 72
155
 73
-156
  0
VERTEX
  8
Layer0
10
0.0
 20
 0.0
 30
0.0
 70
     128
 71
-155
 72
-154
 73
157
  0
VERTEX
  8
Layer0
10
0.0
 20
 0.0
 30
0.0
 70
     128
 71
-157
 72
-154
 73
158
  0
VERTEX
  8
Layer0
10
0.0
 20
 0.0
 30
0.0
 70
     128
 71
-158
 72
-154
 73
159
  0
VERTEX
  8
Layer0
10
0.0
 20
 0.0
 30
0.0
 70
     128
 71
-159
 72
-154
 73
160
  0
VERTEX
  8
Layer0
10
0.0
 20
 0.0
 30
0.0
 70
     128
 71
-160
 72
-154
 73
161
  0
VERTEX
  8
Layer0
10
0.0
 20
 0.0
 30
0.0
 70
     128
 71
-161
 72
-154
 73
162
  0
VERTEX
  8
Layer0
10
0.0
 20
 0.0
 30
0.0
 70
     128
 71
-162
 72
-154
 73
163
  0
VERTEX
  8
Layer0
10
0.0
 20
 0.0
 30
0.0
 70
     128
 71
-163
 72
-154
 73
164
  0
VERTEX
  8
Layer0
10
0.0
 20
 0.0
 30
0.0
 70
     128
 71
-164
 72
-154
 73
165
  0
VERTEX
  8
Layer0
10
0.0
 20
 0.0
 30
0.0
 70
     128
 71
-165
 72
-154
 73
166
  0
VERTEX
  8
Layer0
10
0.0
 20
 0.0
 30
0.0
 70
     128
 71
-166
 72
-154
 73
167
  0
VERTEX
  8
Layer0
10
0.0
 20
 0.0
 30
0.0
 70
     128
 71
-167
 72
154
 73
-168
  0
VERTEX
  8
Layer0
10
0.0
 20
 0.0
 30
0.0
 70
     128
 71
-167
 72
-168
 73
-1
  0
VERTEX
  8
Layer0
10
0.0
 20
 0.0
 30
0.0
 70
     128
 71
-167
 72
-1
 73
-3
  0
VERTEX
  8
Layer0
10
0.0
 20
 0.0
 30
0.0
 70
     128
 71
-1
 72
-168
 73
169
  0
VERTEX
  8
Layer0
10
0.0
 20
 0.0
 30
0.0
 70
     128
 71
-169
 72
-168
 73
170
  0
VERTEX
  8
Layer0
10
0.0
 20
 0.0
 30
0.0
 70
     128
 71
-170
 72
-168
 73
171
  0
VERTEX
  8
Layer0
10
0.0
 20
 0.0
 30
0.0
 70
     128
 71
-171
 72
-168
 73
172
  0
VERTEX
  8
Layer0
10
0.0
 20
 0.0
 30
0.0
 70
     128
 71
-172
 72
-168
 73
173
  0
VERTEX
  8
Layer0
10
0.0
 20
 0.0
 30
0.0
 70
     128
 71
-173
 72
-168
 73
174
  0
VERTEX
  8
Layer0
10
0.0
 20
 0.0
 30
0.0
 70
     128
 71
-174
 72
-168
 73
175
  0
VERTEX
  8
Layer0
10
0.0
 20
 0.0
 30
0.0
 70
     128
 71
-175
 72
-168
 73
176
  0
VERTEX
  8
Layer0
10
0.0
 20
 0.0
 30
0.0
 70
     128
 71
-176
 72
-168
 73
177
  0
VERTEX
  8
Layer0
10
0.0
 20
 0.0
 30
0.0
 70
     128
 71
-177
 72
-168
 73
178
  0
VERTEX
  8
Layer0
10
0.0
 20
 0.0
 30
0.0
 70
     128
 71
-178
 72
-168
 73
179
  0
VERTEX
  8
Layer0
10
0.0
 20
 0.0
 30
0.0
 70
     128
 71
-179
 72
-168
 73
26
  0
VERTEX
  8
Layer0
10
0.0
 20
 0.0
 30
0.0
 70
     128
 71
-26
 72
-168
 73
-180
  0
VERTEX
  8
Layer0
10
0.0
 20
 0.0
 30
0.0
 70
     128
 71
-149
 72
-117
 73
181
  0
VERTEX
  8
Layer0
10
0.0
 20
 0.0
 30
0.0
 70
     128
 71
-181
 72
-117
 73
182
  0
VERTEX
  8
Layer0
10
0.0
 20
 0.0
 30
0.0
 70
     128
 71
-182
 72
-117
 73
183
  0
VERTEX
  8
Layer0
10
0.0
 20
 0.0
 30
0.0
 70
     128
 71
-183
 72
-117
 73
184
  0
VERTEX
  8
Layer0
10
0.0
 20
 0.0
 30
0.0
 70
     128
 71
-184
 72
-117
 73
185
  0
VERTEX
  8
Layer0
10
0.0
 20
 0.0
 30
0.0
 70
     128
 71
-185
 72
-117
 73
186
  0
VERTEX
  8
Layer0
10
0.0
 20
 0.0
 30
0.0
 70
     128
 71
-186
 72
-117
 73
-187
  0
VERTEX
  8
Layer0
10
0.0
 20
 0.0
 30
0.0
 70
     128
 71
-186
 72
187
 73
-188
  0
VERTEX
  8
Layer0
10
0.0
 20
 0.0
 30
0.0
 70
     128
 71
-186
 72
188
 73
-189
  0
VERTEX
  8
Layer0
10
0.0
 20
 0.0
 30
0.0
 70
     128
 71
-186
 72
-189
 73
-190
  0
VERTEX
  8
Layer0
10
0.0
 20
 0.0
 30
0.0
 70
     128
 71
-187
 72
-117
 73
191
  0
VERTEX
  8
Layer0
10
0.0
 20
 0.0
 30
0.0
 70
     128
 71
-191
 72
-117
 73
192
  0
VERTEX
  8
Layer0
10
0.0
 20
 0.0
 30
0.0
 70
     128
 71
-192
 72
-117
 73
193
  0
VERTEX
  8
Layer0
10
0.0
 20
 0.0
 30
0.0
 70
     128
 71
-193
 72
-117
 73
194
  0
VERTEX
  8
Layer0
10
0.0
 20
 0.0
 30
0.0
 70
     128
 71
-194
 72
-117
 73
195
  0
VERTEX
  8
Layer0
10
0.0
 20
 0.0
 30
0.0
 70
     128
 71
-195
 72
-117
 73
196
  0
VERTEX
  8
Layer0
10
0.0
 20
 0.0
 30
0.0
 70
     128
 71
-196
 72
-117
 73
197
  0
VERTEX
  8
Layer0
10
0.0
 20
 0.0
 30
0.0
 70
     128
 71
-197
 72
-117
 73
198
  0
VERTEX
  8
Layer0
10
0.0
 20
 0.0
 30
0.0
 70
     128
 71
-198
 72
-117
 73
199
  0
VERTEX
  8
Layer0
10
0.0
 20
 0.0
 30
0.0
 70
     128
 71
-199
 72
-117
 73
200
  0
VERTEX
  8
Layer0
10
0.0
 20
 0.0
 30
0.0
 70
     128
 71
-200
 72
-117
 73
-201
  0
VERTEX
  8
Layer0
10
0.0
 20
 0.0
 30
0.0
 70
     128
 71
-201
 72
-117
 73
-93
  0
VERTEX
  8
Layer0
10
0.0
 20
 0.0
 30
0.0
 70
     128
 71
-201
 72
93
 73
-202
  0
VERTEX
  8
Layer0
10
0.0
 20
 0.0
 30
0.0
 70
     128
 71
-201
 72
202
 73
-203
  0
VERTEX
  8
Layer0
10
0.0
 20
 0.0
 30
0.0
 70
     128
 71
-201
 72
203
 73
-204
  0
VERTEX
  8
Layer0
10
0.0
 20
 0.0
 30
0.0
 70
     128
 71
-201
 72
204
 73
-205
  0
VERTEX
  8
Layer0
10
0.0
 20
 0.0
 30
0.0
 70
     128
 71
-201
 72
205
 73
-206
  0
VERTEX
  8
Layer0
10
0.0
 20
 0.0
 30
0.0
 70
     128
 71
-201
 72
-206
 73
133
  0
VERTEX
  8
Layer0
10
0.0
 20
 0.0
 30
0.0
 70
     128
 71
-133
 72
206
 73
-207
  0
VERTEX
  8
Layer0
10
0.0
 20
 0.0
 30
0.0
 70
     128
 71
-133
 72
207
 73
-208
  0
VERTEX
  8
Layer0
10
0.0
 20
 0.0
 30
0.0
 70
     128
 71
-133
 72
208
 73
-209
  0
VERTEX
  8
Layer0
10
0.0
 20
 0.0
 30
0.0
 70
     128
 71
-133
 72
209
 73
-210
  0
VERTEX
  8
Layer0
10
0.0
 20
 0.0
 30
0.0
 70
     128
 71
-133
 72
210
 73
-211
  0
VERTEX
  8
Layer0
10
0.0
 20
 0.0
 30
0.0
 70
     128
 71
-133
 72
211
 73
-212
  0
VERTEX
  8
Layer0
10
0.0
 20
 0.0
 30
0.0
 70
     128
 71
-133
 72
212
 73
-115
  0
VERTEX
  8
Layer0
10
0.0
 20
 0.0
 30
0.0
 70
     128
 71
-133
 72
-115
 73
-116
  0
VERTEX
  8
Layer0
10
0.0
 20
 0.0
 30
0.0
 70
     128
 71
-118
 72
213
 73
-91
  0
VERTEX
  8
Layer0
10
0.0
 20
 0.0
 30
0.0
 70
     128
 71
-213
 72
118
 73
-214
  0
VERTEX
  8
Layer0
10
0.0
 20
 0.0
 30
0.0
 70
     128
 71
-213
 72
-214
 73
215
  0
VERTEX
  8
Layer0
10
0.0
 20
 0.0
 30
0.0
 70
     128
 71
-215
 72
214
 73
-216
  0
VERTEX
  8
Layer0
10
0.0
 20
 0.0
 30
0.0
 70
     128
 71
-215
 72
-216
 73
217
  0
VERTEX
  8
Layer0
10
0.0
 20
 0.0
 30
0.0
 70
     128
 71
-217
 72
216
 73
-218
  0
VERTEX
  8
Layer0
10
0.0
 20
 0.0
 30
0.0
 70
     128
 71
-217
 72
-218
 73
219
  0
VERTEX
  8
Layer0
10
0.0
 20
 0.0
 30
0.0
 70
     128
 71
-219
 72
218
 73
-220
  0
VERTEX
  8
Layer0
10
0.0
 20
 0.0
 30
0.0
 70
     128
 71
-219
 72
-220
 73
221
  0
VERTEX
  8
Layer0
10
0.0
 20
 0.0
 30
0.0
 70
     128
 71
-221
 72
220
 73
-222
  0
VERTEX
  8
Layer0
10
0.0
 20
 0.0
 30
0.0
 70
     128
 71
-221
 72
-222
 73
223
  0
VERTEX
  8
Layer0
10
0.0
 20
 0.0
 30
0.0
 70
     128
 71
-223
 72
222
 73
-224
  0
VERTEX
  8
Layer0
10
0.0
 20
 0.0
 30
0.0
 70
     128
 71
-223
 72
-224
 73
225
  0
VERTEX
  8
Layer0
10
0.0
 20
 0.0
 30
0.0
 70
     128
 71
-225
 72
224
 73
-226
  0
VERTEX
  8
Layer0
10
0.0
 20
 0.0
 30
0.0
 70
     128
 71
-225
 72
226
 73
-227
  0
VERTEX
  8
Layer0
10
0.0
 20
 0.0
 30
0.0
 70
     128
 71
-225
 72
-227
 73
228
  0
VERTEX
  8
Layer0
10
0.0
 20
 0.0
 30
0.0
 70
     128
 71
-228
 72
227
 73
-229
  0
VERTEX
  8
Layer0
10
0.0
 20
 0.0
 30
0.0
 70
     128
 71
-228
 72
-229
 73
230
  0
VERTEX
  8
Layer0
10
0.0
 20
 0.0
 30
0.0
 70
     128
 71
-230
 72
229
 73
-231
  0
VERTEX
  8
Layer0
10
0.0
 20
 0.0
 30
0.0
 70
     128
 71
-230
 72
-231
 73
232
  0
VERTEX
  8
Layer0
10
0.0
 20
 0.0
 30
0.0
 70
     128
 71
-232
 72
231
 73
-233
  0
VERTEX
  8
Layer0
10
0.0
 20
 0.0
 30
0.0
 70
     128
 71
-232
 72
-233
 73
234
  0
VERTEX
  8
Layer0
10
0.0
 20
 0.0
 30
0.0
 70
     128
 71
-234
 72
233
 73
-235
  0
VERTEX
  8
Layer0
10
0.0
 20
 0.0
 30
0.0
 70
     128
 71
-234
 72
-235
 73
116
  0
VERTEX
  8
Layer0
10
0.0
 20
 0.0
 30
0.0
 70
     128
 71
-116
 72
235
 73
-132
  0
VERTEX
  8
Layer0
10
0.0
 20
 0.0
 30
0.0
 70
     128
 71
-168
 72
236
 73
-180
  0
VERTEX
  8
Layer0
10
0.0
 20
 0.0
 30
0.0
 70
     128
 71
-236
 72
168
 73
-237
  0
VERTEX
  8
Layer0
10
0.0
 20
 0.0
 30
0.0
 70
     128
 71
-236
 72
-237
 73
238
  0
VERTEX
  8
Layer0
10
0.0
 20
 0.0
 30
0.0
 70
     128
 71
-238
 72
237
 73
-239
  0
VERTEX
  8
Layer0
10
0.0
 20
 0.0
 30
0.0
 70
     128
 71
-238
 72
-239
 73
240
  0
VERTEX
  8
Layer0
10
0.0
 20
 0.0
 30
0.0
 70
     128
 71
-240
 72
239
 73
-241
  0
VERTEX
  8
Layer0
10
0.0
 20
 0.0
 30
0.0
 70
     128
 71
-240
 72
-241
 73
242
  0
VERTEX
  8
Layer0
10
0.0
 20
 0.0
 30
0.0
 70
     128
 71
-242
 72
241
 73
-243
  0
VERTEX
  8
Layer0
10
0.0
 20
 0.0
 30
0.0
 70
     128
 71
-242
 72
-243
 73
244
  0
VERTEX
  8
Layer0
10
0.0
 20
 0.0
 30
0.0
 70
     128
 71
-244
 72
243
 73
-245
  0
VERTEX
  8
Layer0
10
0.0
 20
 0.0
 30
0.0
 70
     128
 71
-244
 72
-245
 73
246
  0
VERTEX
  8
Layer0
10
0.0
 20
 0.0
 30
0.0
 70
     128
 71
-246
 72
245
 73
-247
  0
VERTEX
  8
Layer0
10
0.0
 20
 0.0
 30
0.0
 70
     128
 71
-246
 72
-247
 73
248
  0
VERTEX
  8
Layer0
10
0.0
 20
 0.0
 30
0.0
 70
     128
 71
-248
 72
247
 73
-249
  0
VERTEX
  8
Layer0
10
0.0
 20
 0.0
 30
0.0
 70
     128
 71
-248
 72
-249
 73
250
  0
VERTEX
  8
Layer0
10
0.0
 20
 0.0
 30
0.0
 70
     128
 71
-250
 72
249
 73
-251
  0
VERTEX
  8
Layer0
10
0.0
 20
 0.0
 30
0.0
 70
     128
 71
-250
 72
-251
 73
252
  0
VERTEX
  8
Layer0
10
0.0
 20
 0.0
 30
0.0
 70
     128
 71
-252
 72
251
 73
-253
  0
VERTEX
  8
Layer0
10
0.0
 20
 0.0
 30
0.0
 70
     128
 71
-252
 72
-253
 73
254
  0
VERTEX
  8
Layer0
10
0.0
 20
 0.0
 30
0.0
 70
     128
 71
-254
 72
253
 73
-255
  0
VERTEX
  8
Layer0
10
0.0
 20
 0.0
 30
0.0
 70
     128
 71
-254
 72
-255
 73
256
  0
VERTEX
  8
Layer0
10
0.0
 20
 0.0
 30
0.0
 70
     128
 71
-256
 72
255
 73
-257
  0
VERTEX
  8
Layer0
10
0.0
 20
 0.0
 30
0.0
 70
     128
 71
-256
 72
-257
 73
258
  0
VERTEX
  8
Layer0
10
0.0
 20
 0.0
 30
0.0
 70
     128
 71
-258
 72
257
 73
-186
  0
VERTEX
  8
Layer0
10
0.0
 20
 0.0
 30
0.0
 70
     128
 71
-135
 72
259
 73
-136
  0
VERTEX
  8
Layer0
10
0.0
 20
 0.0
 30
0.0
 70
     128
 71
-259
 72
135
 73
-260
  0
VERTEX
  8
Layer0
10
0.0
 20
 0.0
 30
0.0
 70
     128
 71
-259
 72
-260
 73
261
  0
VERTEX
  8
Layer0
10
0.0
 20
 0.0
 30
0.0
 70
     128
 71
-261
 72
260
 73
-262
  0
VERTEX
  8
Layer0
10
0.0
 20
 0.0
 30
0.0
 70
     128
 71
-261
 72
-262
 73
263
  0
VERTEX
  8
Layer0
10
0.0
 20
 0.0
 30
0.0
 70
     128
 71
-263
 72
262
 73
-264
  0
VERTEX
  8
Layer0
10
0.0
 20
 0.0
 30
0.0
 70
     128
 71
-263
 72
-264
 73
265
  0
VERTEX
  8
Layer0
10
0.0
 20
 0.0
 30
0.0
 70
     128
 71
-265
 72
264
 73
-266
  0
VERTEX
  8
Layer0
10
0.0
 20
 0.0
 30
0.0
 70
     128
 71
-265
 72
-266
 73
267
  0
VERTEX
  8
Layer0
10
0.0
 20
 0.0
 30
0.0
 70
     128
 71
-267
 72
266
 73
-268
  0
VERTEX
  8
Layer0
10
0.0
 20
 0.0
 30
0.0
 70
     128
 71
-267
 72
-268
 73
269
  0
VERTEX
  8
Layer0
10
0.0
 20
 0.0
 30
0.0
 70
     128
 71
-269
 72
268
 73
-270
  0
VERTEX
  8
Layer0
10
0.0
 20
 0.0
 30
0.0
 70
     128
 71
-269
 72
-270
 73
271
  0
VERTEX
  8
Layer0
10
0.0
 20
 0.0
 30
0.0
 70
     128
 71
-271
 72
270
 73
-272
  0
VERTEX
  8
Layer0
10
0.0
 20
 0.0
 30
0.0
 70
     128
 71
-271
 72
-272
 73
273
  0
VERTEX
  8
Layer0
10
0.0
 20
 0.0
 30
0.0
 70
     128
 71
-273
 72
272
 73
-274
  0
VERTEX
  8
Layer0
10
0.0
 20
 0.0
 30
0.0
 70
     128
 71
-273
 72
-274
 73
275
  0
VERTEX
  8
Layer0
10
0.0
 20
 0.0
 30
0.0
 70
     128
 71
-275
 72
274
 73
-276
  0
VERTEX
  8
Layer0
10
0.0
 20
 0.0
 30
0.0
 70
     128
 71
-275
 72
-276
 73
277
  0
VERTEX
  8
Layer0
10
0.0
 20
 0.0
 30
0.0
 70
     128
 71
-277
 72
276
 73
-278
  0
VERTEX
  8
Layer0
10
0.0
 20
 0.0
 30
0.0
 70
     128
 71
-277
 72
-278
 73
279
  0
VERTEX
  8
Layer0
10
0.0
 20
 0.0
 30
0.0
 70
     128
 71
-279
 72
278
 73
-280
  0
VERTEX
  8
Layer0
10
0.0
 20
 0.0
 30
0.0
 70
     128
 71
-279
 72
-280
 73
281
  0
VERTEX
  8
Layer0
10
0.0
 20
 0.0
 30
0.0
 70
     128
 71
-281
 72
280
 73
-148
  0
VERTEX
  8
Layer0
10
0.0
 20
 0.0
 30
0.0
 70
     128
 71
-189
 72
282
 73
-190
  0
VERTEX
  8
Layer0
10
0.0
 20
 0.0
 30
0.0
 70
     128
 71
-282
 72
189
 73
-283
  0
VERTEX
  8
Layer0
10
0.0
 20
 0.0
 30
0.0
 70
     128
 71
-282
 72
-283
 73
284
  0
VERTEX
  8
Layer0
10
0.0
 20
 0.0
 30
0.0
 70
     128
 71
-284
 72
283
 73
-285
  0
VERTEX
  8
Layer0
10
0.0
 20
 0.0
 30
0.0
 70
     128
 71
-284
 72
-285
 73
286
  0
VERTEX
  8
Layer0
10
0.0
 20
 0.0
 30
0.0
 70
     128
 71
-286
 72
285
 73
-287
  0
VERTEX
  8
Layer0
10
0.0
 20
 0.0
 30
0.0
 70
     128
 71
-286
 72
-287
 73
288
  0
VERTEX
  8
Layer0
10
0.0
 20
 0.0
 30
0.0
 70
     128
 71
-288
 72
287
 73
-289
  0
VERTEX
  8
Layer0
10
0.0
 20
 0.0
 30
0.0
 70
     128
 71
-288
 72
-289
 73
290
  0
VERTEX
  8
Layer0
10
0.0
 20
 0.0
 30
0.0
 70
     128
 71
-290
 72
289
 73
-291
  0
VERTEX
  8
Layer0
10
0.0
 20
 0.0
 30
0.0
 70
     128
 71
-290
 72
-291
 73
292
  0
VERTEX
  8
Layer0
10
0.0
 20
 0.0
 30
0.0
 70
     128
 71
-292
 72
291
 73
-293
  0
VERTEX
  8
Layer0
10
0.0
 20
 0.0
 30
0.0
 70
     128
 71
-292
 72
-293
 73
294
  0
VERTEX
  8
Layer0
10
0.0
 20
 0.0
 30
0.0
 70
     128
 71
-294
 72
293
 73
-295
  0
VERTEX
  8
Layer0
10
0.0
 20
 0.0
 30
0.0
 70
     128
 71
-294
 72
-295
 73
296
  0
VERTEX
  8
Layer0
10
0.0
 20
 0.0
 30
0.0
 70
     128
 71
-296
 72
295
 73
-297
  0
VERTEX
  8
Layer0
10
0.0
 20
 0.0
 30
0.0
 70
     128
 71
-296
 72
-297
 73
298
  0
VERTEX
  8
Layer0
10
0.0
 20
 0.0
 30
0.0
 70
     128
 71
-298
 72
297
 73
-299
  0
VERTEX
  8
Layer0
10
0.0
 20
 0.0
 30
0.0
 70
     128
 71
-298
 72
-299
 73
300
  0
VERTEX
  8
Layer0
10
0.0
 20
 0.0
 30
0.0
 70
     128
 71
-300
 72
299
 73
-301
  0
VERTEX
  8
Layer0
10
0.0
 20
 0.0
 30
0.0
 70
     128
 71
-300
 72
-301
 73
302
  0
VERTEX
  8
Layer0
10
0.0
 20
 0.0
 30
0.0
 70
     128
 71
-302
 72
301
 73
-303
  0
VERTEX
  8
Layer0
10
0.0
 20
 0.0
 30
0.0
 70
     128
 71
-302
 72
-303
 73
304
  0
VERTEX
  8
Layer0
10
0.0
 20
 0.0
 30
0.0
 70
     128
 71
-304
 72
303
 73
-200
  0
VERTEX
  8
Layer0
10
0.0
 20
 0.0
 30
0.0
 70
     128
 71
-81
 72
-27
 73
-29
  0
VERTEX
  8
Layer0
10
0.0
 20
 0.0
 30
0.0
 70
     128
 71
-27
 72
-81
 73
-53
  0
VERTEX
  8
Layer0
10
0.0
 20
 0.0
 30
0.0
 70
     128
 71
-53
 72
-81
 73
305
  0
VERTEX
  8
Layer0
10
0.0
 20
 0.0
 30
0.0
 70
     128
 71
-305
 72
-81
 73
306
  0
VERTEX
  8
Layer0
10
0.0
 20
 0.0
 30
0.0
 70
     128
 71
-306
 72
81
 73
-134
  0
VERTEX
  8
Layer0
10
0.0
 20
 0.0
 30
0.0
 70
     128
 71
-306
 72
-134
 73
307
  0
VERTEX
  8
Layer0
10
0.0
 20
 0.0
 30
0.0
 70
     128
 71
-307
 72
-134
 73
308
  0
VERTEX
  8
Layer0
10
0.0
 20
 0.0
 30
0.0
 70
     128
 71
-308
 72
-134
 73
309
  0
VERTEX
  8
Layer0
10
0.0
 20
 0.0
 30
0.0
 70
     128
 71
-309
 72
-134
 73
310
  0
VERTEX
  8
Layer0
10
0.0
 20
 0.0
 30
0.0
 70
     128
 71
-310
 72
-134
 73
311
  0
VERTEX
  8
Layer0
10
0.0
 20
 0.0
 30
0.0
 70
     128
 71
-311
 72
-134
 73
312
  0
VERTEX
  8
Layer0
10
0.0
 20
 0.0
 30
0.0
 70
     128
 71
-312
 72
-134
 73
313
  0
VERTEX
  8
Layer0
10
0.0
 20
 0.0
 30
0.0
 70
     128
 71
-313
 72
-134
 73
314
  0
VERTEX
  8
Layer0
10
0.0
 20
 0.0
 30
0.0
 70
     128
 71
-314
 72
-134
 73
315
  0
VERTEX
  8
Layer0
10
0.0
 20
 0.0
 30
0.0
 70
     128
 71
-315
 72
-134
 73
76
  0
VERTEX
  8
Layer0
10
0.0
 20
 0.0
 30
0.0
 70
     128
 71
-76
 72
-134
 73
-79
  0
VERTEX
  8
Layer0
10
0.0
 20
 0.0
 30
0.0
 70
     128
 71
-79
 72
-134
 73
-136
  0
VERTEX
  8
Layer0
10
0.0
 20
 0.0
 30
0.0
 70
     128
 71
-79
 72
136
 73
-316
  0
VERTEX
  8
Layer0
10
0.0
 20
 0.0
 30
0.0
 70
     128
 71
-79
 72
316
 73
-317
  0
VERTEX
  8
Layer0
10
0.0
 20
 0.0
 30
0.0
 70
     128
 71
-79
 72
317
 73
-318
  0
VERTEX
  8
Layer0
10
0.0
 20
 0.0
 30
0.0
 70
     128
 71
-79
 72
318
 73
-319
  0
VERTEX
  8
Layer0
10
0.0
 20
 0.0
 30
0.0
 70
     128
 71
-79
 72
319
 73
-320
  0
VERTEX
  8
Layer0
10
0.0
 20
 0.0
 30
0.0
 70
     128
 71
-79
 72
320
 73
-321
  0
VERTEX
  8
Layer0
10
0.0
 20
 0.0
 30
0.0
 70
     128
 71
-79
 72
-321
 73
201
  0
VERTEX
  8
Layer0
10
0.0
 20
 0.0
 30
0.0
 70
     128
 71
-201
 72
321
 73
-322
  0
VERTEX
  8
Layer0
10
0.0
 20
 0.0
 30
0.0
 70
     128
 71
-201
 72
322
 73
-323
  0
VERTEX
  8
Layer0
10
0.0
 20
 0.0
 30
0.0
 70
     128
 71
-201
 72
323
 73
-324
  0
VERTEX
  8
Layer0
10
0.0
 20
 0.0
 30
0.0
 70
     128
 71
-201
 72
324
 73
-325
  0
VERTEX
  8
Layer0
10
0.0
 20
 0.0
 30
0.0
 70
     128
 71
-201
 72
325
 73
-326
  0
VERTEX
  8
Layer0
10
0.0
 20
 0.0
 30
0.0
 70
     128
 71
-201
 72
326
 73
-281
  0
VERTEX
  8
Layer0
10
0.0
 20
 0.0
 30
0.0
 70
     128
 71
-201
 72
-281
 73
-327
  0
VERTEX
  8
Layer0
10
0.0
 20
 0.0
 30
0.0
 70
     128
 71
-327
 72
-281
 73
328
  0
VERTEX
  8
Layer0
10
0.0
 20
 0.0
 30
0.0
 70
     128
 71
-328
 72
-281
 73
329
  0
VERTEX
  8
Layer0
10
0.0
 20
 0.0
 30
0.0
 70
     128
 71
-329
 72
-281
 73
330
  0
VERTEX
  8
Layer0
10
0.0
 20
 0.0
 30
0.0
 70
     128
 71
-330
 72
-281
 73
331
  0
VERTEX
  8
Layer0
10
0.0
 20
 0.0
 30
0.0
 70
     128
 71
-331
 72
-281
 73
332
  0
VERTEX
  8
Layer0
10
0.0
 20
 0.0
 30
0.0
 70
     128
 71
-332
 72
-281
 73
-148
  0
VERTEX
  8
Layer0
10
0.0
 20
 0.0
 30
0.0
 70
     128
 71
-332
 72
-148
 73
-333
  0
VERTEX
  8
Layer0
10
0.0
 20
 0.0
 30
0.0
 70
     128
 71
-333
 72
-148
 73
156
  0
VERTEX
  8
Layer0
10
0.0
 20
 0.0
 30
0.0
 70
     128
 71
-332
 72
333
 73
-334
  0
VERTEX
  8
Layer0
10
0.0
 20
 0.0
 30
0.0
 70
     128
 71
-332
 72
334
 73
-335
  0
VERTEX
  8
Layer0
10
0.0
 20
 0.0
 30
0.0
 70
     128
 71
-332
 72
335
 73
-336
  0
VERTEX
  8
Layer0
10
0.0
 20
 0.0
 30
0.0
 70
     128
 71
-332
 72
336
 73
-337
  0
VERTEX
  8
Layer0
10
0.0
 20
 0.0
 30
0.0
 70
     128
 71
-332
 72
337
 73
-338
  0
VERTEX
  8
Layer0
10
0.0
 20
 0.0
 30
0.0
 70
     128
 71
-332
 72
338
 73
-339
  0
VERTEX
  8
Layer0
10
0.0
 20
 0.0
 30
0.0
 70
     128
 71
-332
 72
339
 73
-340
  0
VERTEX
  8
Layer0
10
0.0
 20
 0.0
 30
0.0
 70
     128
 71
-332
 72
340
 73
-341
  0
VERTEX
  8
Layer0
10
0.0
 20
 0.0
 30
0.0
 70
     128
 71
-332
 72
341
 73
-342
  0
VERTEX
  8
Layer0
10
0.0
 20
 0.0
 30
0.0
 70
     128
 71
-332
 72
342
 73
-343
  0
VERTEX
  8
Layer0
10
0.0
 20
 0.0
 30
0.0
 70
     128
 71
-332
 72
343
 73
-167
  0
VERTEX
  8
Layer0
10
0.0
 20
 0.0
 30
0.0
 70
     128
 71
-332
 72
-167
 73
180
  0
VERTEX
  8
Layer0
10
0.0
 20
 0.0
 30
0.0
 70
     128
 71
-180
 72
-167
 73
-3
  0
VERTEX
  8
Layer0
10
0.0
 20
 0.0
 30
0.0
 70
     128
 71
-180
 72
3
 73
-344
  0
VERTEX
  8
Layer0
10
0.0
 20
 0.0
 30
0.0
 70
     128
 71
-180
 72
344
 73
-345
  0
VERTEX
  8
Layer0
10
0.0
 20
 0.0
 30
0.0
 70
     128
 71
-180
 72
345
 73
-346
  0
VERTEX
  8
Layer0
10
0.0
 20
 0.0
 30
0.0
 70
     128
 71
-180
 72
346
 73
-347
  0
VERTEX
  8
Layer0
10
0.0
 20
 0.0
 30
0.0
 70
     128
 71
-180
 72
347
 73
-348
  0
VERTEX
  8
Layer0
10
0.0
 20
 0.0
 30
0.0
 70
     128
 71
-180
 72
348
 73
-349
  0
VERTEX
  8
Layer0
10
0.0
 20
 0.0
 30
0.0
 70
     128
 71
-180
 72
349
 73
-350
  0
VERTEX
  8
Layer0
10
0.0
 20
 0.0
 30
0.0
 70
     128
 71
-180
 72
350
 73
-351
  0
VERTEX
  8
Layer0
10
0.0
 20
 0.0
 30
0.0
 70
     128
 71
-180
 72
351
 73
-352
  0
VERTEX
  8
Layer0
10
0.0
 20
 0.0
 30
0.0
 70
     128
 71
-180
 72
352
 73
-353
  0
VERTEX
  8
Layer0
10
0.0
 20
 0.0
 30
0.0
 70
     128
 71
-180
 72
353
 73
-354
  0
VERTEX
  8
Layer0
10
0.0
 20
 0.0
 30
0.0
 70
     128
 71
-180
 72
354
 73
-25
  0
VERTEX
  8
Layer0
10
0.0
 20
 0.0
 30
0.0
 70
     128
 71
-180
 72
-25
 73
-26
  0
VERTEX
  8
Layer0
10
0.0
 20
 0.0
 30
0.0
 70
     128
 71
-201
 72
327
 73
-355
  0
VERTEX
  8
Layer0
10
0.0
 20
 0.0
 30
0.0
 70
     128
 71
-201
 72
355
 73
-356
  0
VERTEX
  8
Layer0
10
0.0
 20
 0.0
 30
0.0
 70
     128
 71
-201
 72
356
 73
-357
  0
VERTEX
  8
Layer0
10
0.0
 20
 0.0
 30
0.0
 70
     128
 71
-201
 72
357
 73
-358
  0
VERTEX
  8
Layer0
10
0.0
 20
 0.0
 30
0.0
 70
     128
 71
-201
 72
358
 73
-359
  0
VERTEX
  8
Layer0
10
0.0
 20
 0.0
 30
0.0
 70
     128
 71
-201
 72
359
 73
-258
  0
VERTEX
  8
Layer0
10
0.0
 20
 0.0
 30
0.0
 70
     128
 71
-201
 72
-258
 73
-360
  0
VERTEX
  8
Layer0
10
0.0
 20
 0.0
 30
0.0
 70
     128
 71
-360
 72
-258
 73
361
  0
VERTEX
  8
Layer0
10
0.0
 20
 0.0
 30
0.0
 70
     128
 71
-361
 72
-258
 73
-186
  0
VERTEX
  8
Layer0
10
0.0
 20
 0.0
 30
0.0
 70
     128
 71
-361
 72
-186
 73
190
  0
VERTEX
  8
Layer0
10
0.0
 20
 0.0
 30
0.0
 70
     128
 71
-201
 72
360
 73
-362
  0
VERTEX
  8
Layer0
10
0.0
 20
 0.0
 30
0.0
 70
     128
 71
-201
 72
362
 73
-363
  0
VERTEX
  8
Layer0
10
0.0
 20
 0.0
 30
0.0
 70
     128
 71
-201
 72
363
 73
-364
  0
VERTEX
  8
Layer0
10
0.0
 20
 0.0
 30
0.0
 70
     128
 71
-201
 72
364
 73
-365
  0
VERTEX
  8
Layer0
10
0.0
 20
 0.0
 30
0.0
 70
     128
 71
-201
 72
365
 73
-366
  0
VERTEX
  8
Layer0
10
0.0
 20
 0.0
 30
0.0
 70
     128
 71
-201
 72
366
 73
-367
  0
VERTEX
  8
Layer0
10
0.0
 20
 0.0
 30
0.0
 70
     128
 71
-201
 72
367
 73
-368
  0
VERTEX
  8
Layer0
10
0.0
 20
 0.0
 30
0.0
 70
     128
 71
-201
 72
368
 73
-369
  0
VERTEX
  8
Layer0
10
0.0
 20
 0.0
 30
0.0
 70
     128
 71
-201
 72
369
 73
-370
  0
VERTEX
  8
Layer0
10
0.0
 20
 0.0
 30
0.0
 70
     128
 71
-201
 72
370
 73
-304
  0
VERTEX
  8
Layer0
10
0.0
 20
 0.0
 30
0.0
 70
     128
 71
-201
 72
-304
 73
-200
  0
SEQEND
 0
ENDSEC
 0
EOF
