 0
SECTION
 2
ENTITIES
  0
POLYLINE
 8
Layer0
 66
     1
10
0.0
 20
 0.0
 30
0.0
70
    64
71
433
72
   1
  0
VERTEX
  8
Layer0
10
827.5000058882584
20
164.68228294215098
30
202.87499789457146
 70
     192
  0
VERTEX
  8
Layer0
10
827.5681513028258
20
330.0225093127325
30
202.874997399125
 70
     192
  0
VERTEX
  8
Layer0
10
827.5000029462212
20
330.54014740172875
30
202.87499739857927
 70
     192
  0
VERTEX
  8
Layer0
10
827.5681542264988
20
165.19992103356498
30
202.87499789202107
 70
     192
  0
VERTEX
  8
Layer0
10
827.7679521563912
20
329.5401474064817
30
202.87499739762913
 70
     192
  0
VERTEX
  8
Layer0
10
827.7679550629518
20
165.68228294690377
30
202.87499788763972
 70
     192
  0
VERTEX
  8
Layer0
10
828.0857894089346
20
329.1259338497464
30
202.8749973941932
 70
     192
  0
VERTEX
  8
Layer0
10
828.0857923008
20
166.09649651491492
30
202.87499788172653
 70
     192
  0
VERTEX
  8
Layer0
10
828.500002976945
20
328.8080966118981
30
202.87499738905183
 70
     192
  0
VERTEX
  8
Layer0
10
828.5000058575349
20
166.41433376745812
30
202.8749978746841
 70
     192
  0
VERTEX
  8
Layer0
10
828.9823648902847
20
328.608295775445
30
202.87499738255465
 70
     192
  0
VERTEX
  8
Layer0
10
828.9823677637861
20
166.61413462102402
30
202.8749978669927
 70
     192
  0
VERTEX
  8
Layer0
10
829.5000029816986
20
328.5401474372053
30
202.87499737514554
 70
     192
  0
VERTEX
  8
Layer0
10
829.5000058527824
20
166.6822829776277
30
202.87499785917575
 70
     192
  0
VERTEX
  8
Layer0
10
830.0176410706948
20
328.608295793809
30
202.8749973673286
 70
     192
  0
VERTEX
  8
Layer0
10
830.0176439441963
20
166.61413463938786
30
202.87499785176627
 70
     192
  0
VERTEX
  8
Layer0
10
830.5000029769453
20
328.8080966473745
30
202.8749973596368
 70
     192
  0
VERTEX
  8
Layer0
10
830.5000058575348
20
166.41433380293483
30
202.87499784526983
 70
     192
  0
VERTEX
  8
Layer0
10
830.9142165336809
20
329.1259338999178
30
202.87499735259487
 70
     192
  0
VERTEX
  8
Layer0
10
830.9142194255464
20
166.09649656508654
30
202.87499784012803
 70
     192
  0
VERTEX
  8
Layer0
10
831.2320537715291
20
329.540147467929
30
202.8749973466813
 70
     192
  0
VERTEX
  8
Layer0
10
831.23205667809
20
165.68228300835133
30
202.87499783669216
 70
     192
  0
VERTEX
  8
Layer0
10
831.4318546079824
20
330.0225093812679
30
202.87499734230042
 70
     192
  0
VERTEX
  8
Layer0
10
831.4318575316553
20
165.1999211021006
30
202.8749978351962
 70
     192
  0
VERTEX
  8
Layer0
10
831.5000029462215
20
330.54014747268207
30
202.87499733975037
 70
     192
  0
VERTEX
  8
Layer0
10
831.5000058882587
20
164.68228301310404
30
202.87499783574202
 70
     192
  0
VERTEX
  8
Layer0
10
827.5000088302951
20
-1.1755814341194544
30
202.87499839056312
 70
     192
  0
VERTEX
  8
Layer0
10
827.5681542448621
20
164.16464485315484
30
202.8749978951169
 70
     192
  0
VERTEX
  8
Layer0
10
827.568157168535
20
-0.6579433427054553
30
202.8749983880129
 70
     192
  0
VERTEX
  8
Layer0
10
827.767955098428
20
163.68228294690368
30
202.87499789362087
 70
     192
  0
VERTEX
  8
Layer0
10
827.7679580049879
20
-0.17558142936679744
30
202.87499838363172
 70
     192
  0
VERTEX
  8
Layer0
10
828.085792350971
20
163.26806939016853
30
202.87499789018503
 70
     192
  0
VERTEX
  8
Layer0
10
828.0857952428363
20
0.2386321386444763
30
202.8749983777188
 70
     192
  0
VERTEX
  8
Layer0
10
828.500005918983
20
162.9502321523202
30
202.87499788504348
 70
     192
  0
VERTEX
  8
Layer0
10
828.5000087995716
20
0.5564693911875885
30
202.8749983706763
 70
     192
  0
VERTEX
  8
Layer0
10
828.9823678323212
20
162.75043131586568
30
202.87499787854705
 70
     192
  0
VERTEX
  8
Layer0
10
828.9823707058218
20
0.7562702447529822
30
202.8749983629845
 70
     192
  0
VERTEX
  8
Layer0
10
829.5000059237351
20
162.68228297762573
30
202.87499787113737
 70
     192
  0
VERTEX
  8
Layer0
10
829.500008794818
20
0.8244186013574349
30
202.8749983551677
 70
     192
  0
VERTEX
  8
Layer0
10
830.0176440127312
20
162.75043133422955
30
202.87499786332063
 70
     192
  0
VERTEX
  8
Layer0
10
830.0176468862319
20
0.7562702631172357
30
202.87499834775846
 70
     192
  0
VERTEX
  8
Layer0
10
830.5000059189829
20
162.95023218779693
30
202.8749978556292
 70
     192
  0
VERTEX
  8
Layer0
10
830.5000087995717
20
0.5564694266644814
30
202.87499834126186
 70
     192
  0
VERTEX
  8
Layer0
10
830.9142194757175
20
163.26806944034016
30
202.87499784858653
 70
     192
  0
VERTEX
  8
Layer0
10
830.9142223675825
20
0.23863218881569565
30
202.87499833612011
 70
     192
  0
VERTEX
  8
Layer0
10
831.232056713566
20
163.68228300835125
30
202.87499784267322
 70
     192
  0
VERTEX
  8
Layer0
10
831.2320596201257
20
-0.17558136791950218
30
202.87499833268447
 70
     192
  0
VERTEX
  8
Layer0
10
831.4318575500188
20
164.16464492169047
30
202.8749978382925
 70
     192
  0
VERTEX
  8
Layer0
10
831.4318604736912
20
-0.6579432741700728
30
202.87499833118804
 70
     192
  0
VERTEX
  8
Layer0
10
831.5000088302951
20
-1.1755813631663001
30
202.87499833173422
 70
     192
  0
VERTEX
  8
Layer0
10
579.5000038018572
20
-45.31772846045073
30
202.87500246175833
 70
     192
  0
VERTEX
  8
Layer0
10
581.6421392482054
20
-35.31772842245186
30
202.87500210856635
 70
     192
  0
VERTEX
  8
Layer0
10
581.6421321528865
20
364.6822716608584
30
202.87500091238107
 70
     192
  0
VERTEX
  8
Layer0
10
581.7102876048093
20
-35.83536651144818
30
202.87500210911216
 70
     192
  0
VERTEX
  8
Layer0
10
581.9100884583748
20
-36.317728417699016
30
202.87500210761584
 70
     192
  0
VERTEX
  8
Layer0
10
582.227925710918
20
-36.731941974434214
30
202.87500210418028
 70
     192
  0
VERTEX
  8
Layer0
10
582.6421392789288
20
-37.049779212282374
30
202.87500209903854
 70
     192
  0
VERTEX
  8
Layer0
10
583.1245011922682
20
-37.249580048735936
30
202.87500209254193
 70
     192
  0
VERTEX
  8
Layer0
10
583.6421392836821
20
-37.317728386975595
30
202.87500208513288
 70
     192
  0
VERTEX
  8
Layer0
10
799.5000096133016
20
-45.31771755452391
30
202.87499922559292
 70
     192
  0
VERTEX
  8
Layer0
10
584.1597773726783
20
-37.24958003037195
30
202.87500207731568
 70
     192
  0
VERTEX
  8
Layer0
10
584.6421392789289
20
-37.04977917680575
30
202.8750020696241
 70
     192
  0
VERTEX
  8
Layer0
10
585.0563528356643
20
-36.73194192426273
30
202.87500206258156
 70
     192
  0
VERTEX
  8
Layer0
10
585.3741900735126
20
-36.317728356251095
30
202.87500205666856
 70
     192
  0
VERTEX
  8
Layer0
10
585.5739909099656
20
-35.835366442912616
30
202.8750020522875
 70
     192
  0
VERTEX
  8
Layer0
10
585.6421392482054
20
-35.317728351498616
30
202.87500204973745
 70
     192
  0
VERTEX
  8
Layer0
10
689.5000065656731
20
-37.31771950573589
30
202.87500052825058
 70
     192
  0
VERTEX
  8
Layer0
10
688.9823684742591
20
-37.24957116749596
30
202.87500053566006
 70
     192
  0
VERTEX
  8
Layer0
10
688.5000065609199
20
-37.04977033104248
30
202.8750005421565
 70
     192
  0
VERTEX
  8
Layer0
10
688.085792992909
20
-36.73193309319433
30
202.87500054729833
 70
     192
  0
VERTEX
  8
Layer0
10
687.7679557403654
20
-36.31771953645958
30
202.8750005507339
 70
     192
  0
VERTEX
  8
Layer0
10
687.5681548867998
20
-35.835357630208556
30
202.87500055222995
 70
     192
  0
VERTEX
  8
Layer0
10
687.5000065301962
20
-35.317719541212334
30
202.8750005516845
 70
     192
  0
VERTEX
  8
Layer0
10
687.4999994348768
20
364.6822805420975
30
202.87499935549903
 70
     192
  0
VERTEX
  8
Layer0
10
690.0176446546693
20
-37.249571149131974
30
202.87500052043393
 70
     192
  0
VERTEX
  8
Layer0
10
690.50000656092
20
-37.04977029556622
30
202.87500051274222
 70
     192
  0
VERTEX
  8
Layer0
10
690.9142201176551
20
-36.7319330430232
30
202.87500050569952
 70
     192
  0
VERTEX
  8
Layer0
10
691.2320573555032
20
-36.31771947501193
30
202.87500049978644
 70
     192
  0
VERTEX
  8
Layer0
10
691.4318581919562
20
-35.83535756167299
30
202.87500049540517
 70
     192
  0
VERTEX
  8
Layer0
10
691.5000065301962
20
-35.317719470259085
30
202.87500049285504
 70
     192
  0
VERTEX
  8
Layer0
10
734.6751316814674
20
-10.185966125123485
30
202.87499978271038
 70
     192
  0
VERTEX
  8
Layer0
10
734.2298520958552
20
-9.844291094436489
30
202.8749997882379
 70
     192
  0
VERTEX
  8
Layer0
10
733.8881770493715
20
-9.399011520946155
30
202.8749997919312
 70
     192
  0
VERTEX
  8
Layer0
10
733.6733911317885
20
-8.8804724717266
30
202.87499979353922
 70
     192
  0
VERTEX
  8
Layer0
10
733.6001316484394
20
-8.324011526055727
30
202.87499979295285
 70
     192
  0
VERTEX
  8
Layer0
10
733.0001310142952
20
27.42598846330239
30
202.8749996948681
 70
     192
  0
VERTEX
  8
Layer0
10
735.1936707383069
20
-10.400752024310586
30
202.87499977572642
 70
     192
  0
VERTEX
  8
Layer0
10
735.7501316865768
20
-10.474011487918192
30
202.8749997677616
 70
     192
  0
VERTEX
  8
Layer0
10
736.3065926322477
20
-10.400752004568746
30
202.87499975935864
 70
     192
  0
VERTEX
  8
Layer0
10
736.8251316814673
20
-10.185966086986168
30
202.87499975108977
 70
     192
  0
VERTEX
  8
Layer0
10
737.2704112549575
20
-9.844291040502036
30
202.87499974351945
 70
     192
  0
VERTEX
  8
Layer0
10
737.6120862856445
20
-9.399011454890267
30
202.87499973716263
 70
     192
  0
VERTEX
  8
Layer0
10
737.8268721848314
20
-8.880472398050486
30
202.87499973245318
 70
     192
  0
VERTEX
  8
Layer0
10
737.9001316484394
20
-8.324011449780732
30
202.87499972971136
 70
     192
  0
VERTEX
  8
Layer0
10
744.2765204215132
20
0.20237758764319194
30
202.8749996104341
 70
     192
  0
VERTEX
  8
Layer0
10
738.1581533100564
20
8.175988554796675
30
202.874999676574
 70
     192
  0
VERTEX
  8
Layer0
10
749.4792917682221
20
-3.7898491323428516
30
202.8749995458542
 70
     192
  0
VERTEX
  8
Layer0
10
750.3021316783604
20
-4.421236378988029
30
202.87499953564074
 70
     192
  0
VERTEX
  8
Layer0
10
752.2501316057251
20
-5.915989240936887
30
202.87499951146077
 70
     192
  0
VERTEX
  8
Layer0
10
755.1610954774618
20
-7.121749895693962
30
202.8749994722543
 70
     192
  0
VERTEX
  8
Layer0
10
760.8429018786424
20
-9.475231047763458
30
202.87499939572822
 70
     192
  0
VERTEX
  8
Layer0
10
761.5355984375024
20
-9.762155342657257
30
202.87499938639854
 70
     192
  0
VERTEX
  8
Layer0
10
771.5001316972196
20
-11.074010853773828
30
202.8749992437706
 70
     192
  0
VERTEX
  8
Layer0
10
793.625823022357
20
-36.31771765872114
30
202.874998993852
 70
     192
  0
VERTEX
  8
Layer0
10
781.4646649103966
20
-9.762154989149508
30
202.87499909329625
 70
     192
  0
VERTEX
  8
Layer0
10
793.4260221687914
20
-35.835355752469944
30
202.87499899534777
 70
     192
  0
VERTEX
  8
Layer0
10
793.3578738121876
20
-35.317717663473715
30
202.87499899480196
 70
     192
  0
VERTEX
  8
Layer0
10
790.750131605725
20
-5.915988558012835
30
202.87499894522998
 70
     192
  0
VERTEX
  8
Layer0
10
793.9436602749003
20
-36.731931215456434
30
202.87499899041615
 70
     192
  0
VERTEX
  8
Layer0
10
794.3578738429111
20
-37.04976845330459
30
202.87499898527452
 70
     192
  0
VERTEX
  8
Layer0
10
794.8402357562503
20
-37.249569289757794
30
202.87499897877754
 70
     192
  0
VERTEX
  8
Layer0
10
795.357873847664
20
-37.31771762799745
30
202.87499897136877
 70
     192
  0
VERTEX
  8
Layer0
10
795.8755119366602
20
-37.249569271393355
30
202.87499896355183
 70
     192
  0
VERTEX
  8
Layer0
10
796.3578738429112
20
-37.0497684178276
30
202.8749989558596
 70
     192
  0
VERTEX
  8
Layer0
10
796.7720873996464
20
-36.731931165284855
30
202.8749989488177
 70
     192
  0
VERTEX
  8
Layer0
10
797.0899246374946
20
-36.31771759727367
30
202.87499894290409
 70
     192
  0
VERTEX
  8
Layer0
10
797.2897254739477
20
-35.83535568393483
30
202.87499893852302
 70
     192
  0
VERTEX
  8
Layer0
10
797.3578738121876
20
-35.31771759252092
30
202.87499893597294
 70
     192
  0
VERTEX
  8
Layer0
10
798.7237425728778
20
0.20237855344417283
30
202.87499880966314
 70
     192
  0
VERTEX
  8
Layer0
10
804.8421094014583
20
8.175989737655755
30
202.87499869583377
 70
     192
  0
VERTEX
  8
Layer0
10
805.1001316484394
20
-8.324010257767094
30
202.87499874138192
 70
     192
  0
VERTEX
  8
Layer0
10
805.1733911317887
20
-8.880471203438328
30
202.87499874196854
 70
     192
  0
VERTEX
  8
Layer0
10
805.3881770493715
20
-9.399010252657792
30
202.8749987403599
 70
     192
  0
VERTEX
  8
Layer0
10
805.7298520958556
20
-9.844289826147765
30
202.8749987366664
 70
     192
  0
VERTEX
  8
Layer0
10
806.1751316814672
20
-10.185964856835303
30
202.87499873113944
 70
     192
  0
VERTEX
  8
Layer0
10
806.6936707383068
20
-10.400750756022314
30
202.8749987241555
 70
     192
  0
VERTEX
  8
Layer0
10
807.2501316865768
20
-10.474010219629648
30
202.8749987161906
 70
     192
  0
VERTEX
  8
Layer0
10
807.8065926322475
20
-10.400750736281015
30
202.87499870778726
 70
     192
  0
VERTEX
  8
Layer0
10
839.5000089037688
20
-5.317716844990725
30
202.8749978665811
 70
     192
  0
VERTEX
  8
Layer0
10
808.3251316814673
20
-10.185964818697444
30
202.87499869951867
 70
     192
  0
VERTEX
  8
Layer0
10
808.7704112549577
20
-9.844289772213854
30
202.87499869194818
 70
     192
  0
VERTEX
  8
Layer0
10
809.1120862856445
20
-9.399010186601634
30
202.8749986855916
 70
     192
  0
VERTEX
  8
Layer0
10
809.3268721848316
20
-8.880471129762665
30
202.87499868088187
 70
     192
  0
VERTEX
  8
Layer0
10
809.4001316484392
20
-8.32401018149282
30
202.8749986781405
 70
     192
  0
VERTEX
  8
Layer0
10
828.9823707743573
20
-3.107433060403171
30
202.8749983745385
 70
     192
  0
VERTEX
  8
Layer0
10
828.5000088610187
20
-2.9076322239503263
30
202.87499838103568
 70
     192
  0
VERTEX
  8
Layer0
10
828.0857952930079
20
-2.5897949861015404
30
202.87499838617705
 70
     192
  0
VERTEX
  8
Layer0
10
827.7679580404647
20
-2.1755814293667037
30
202.87499838961253
 70
     192
  0
VERTEX
  8
Layer0
10
810.0001310142952
20
27.425989829151348
30
202.87499856240674
 70
     192
  0
VERTEX
  8
Layer0
10
827.568157186899
20
-1.6932195231155915
30
202.87499839110902
 70
     192
  0
VERTEX
  8
Layer0
10
829.500008865771
20
-3.175581398642738
30
202.87499836712965
 70
     192
  0
VERTEX
  8
Layer0
10
830.0176469547672
20
-3.107433042038917
30
202.87499835931246
 70
     192
  0
VERTEX
  8
Layer0
10
830.5000088610187
20
-2.9076321884734333
30
202.87499835162086
 70
     192
  0
VERTEX
  8
Layer0
10
830.9142224177541
20
-2.589794935930321
30
202.87499834457861
 70
     192
  0
VERTEX
  8
Layer0
10
831.2320596556024
20
-2.1755813679194085
30
202.87499833866516
 70
     192
  0
VERTEX
  8
Layer0
10
831.4318604920554
20
-1.693219454580209
30
202.87499833428427
 70
     192
  0
VERTEX
  8
Layer0
10
839.5000028727476
20
334.6822832383193
30
202.87499757000327
 70
     192
  0
VERTEX
  8
Layer0
10
804.2501298125256
20
95.17598972715575
30
202.87499844436996
 70
     192
  0
VERTEX
  8
Layer0
10
793.3578667168679
20
364.6822824198357
30
202.87499779861685
 70
     192
  0
VERTEX
  8
Layer0
10
738.7501298125244
20
95.1759885652973
30
202.874999407697
 70
     192
  0
VERTEX
  8
Layer0
10
793.426015073472
20
364.16464433083974
30
202.87499779916212
 70
     192
  0
VERTEX
  8
Layer0
10
793.6258159270375
20
363.6822824245888
30
202.87499779766625
 70
     192
  0
VERTEX
  8
Layer0
10
793.9436531795809
20
363.26806886785363
30
202.8749977942305
 70
     192
  0
VERTEX
  8
Layer0
10
794.3578667475914
20
362.9502316300051
30
202.87499778908895
 70
     192
  0
VERTEX
  8
Layer0
10
794.8402286609308
20
362.75043079355214
30
202.87499778259223
 70
     192
  0
VERTEX
  8
Layer0
10
795.3578667523448
20
362.6822824553126
30
202.87499777518283
 70
     192
  0
VERTEX
  8
Layer0
10
795.8755048413407
20
362.75043081191626
30
202.87499776736618
 70
     192
  0
VERTEX
  8
Layer0
10
796.3578667475912
20
362.9502316654816
30
202.8749977596745
 70
     192
  0
VERTEX
  8
Layer0
10
796.7720803043268
20
363.26806891802505
30
202.87499775263197
 70
     192
  0
VERTEX
  8
Layer0
10
797.0899175421753
20
363.68228248603583
30
202.8749977467187
 70
     192
  0
VERTEX
  8
Layer0
10
797.2897183786281
20
364.1646443993751
30
202.87499774233754
 70
     192
  0
VERTEX
  8
Layer0
10
797.3578667168681
20
364.6822824907891
30
202.87499773978757
 70
     192
  0
VERTEX
  8
Layer0
10
799.5000021632161
20
374.68228252878674
30
202.87499738659093
 70
     192
  0
VERTEX
  8
Layer0
10
827.5681512844612
20
331.05778549314266
30
202.8749973960288
 70
     192
  0
VERTEX
  8
Layer0
10
827.7679521209141
20
331.54014740648194
30
202.87499739164798
 70
     192
  0
VERTEX
  8
Layer0
10
828.0857893587627
20
331.9543609744928
30
202.87499738573496
 70
     192
  0
VERTEX
  8
Layer0
10
828.5000029154983
20
332.27219822703626
30
202.87499737869237
 70
     192
  0
VERTEX
  8
Layer0
10
828.9823648217485
20
332.4719990806017
30
202.87499737100066
 70
     192
  0
VERTEX
  8
Layer0
10
807.2501298657404
20
92.17598978037056
30
202.87499840921936
 70
     192
  0
VERTEX
  8
Layer0
10
807.2501300253851
20
83.17598978037061
30
202.8749984361335
 70
     192
  0
VERTEX
  8
Layer0
10
807.2501303420138
20
65.32598978037103
30
202.87499848951344
 70
     192
  0
VERTEX
  8
Layer0
10
807.8065912902837
20
65.25273031676323
30
202.87499848154852
 70
     192
  0
VERTEX
  8
Layer0
10
808.3251303471231
20
65.037944417576
30
202.87499847456445
 70
     192
  0
VERTEX
  8
Layer0
10
808.770409932735
20
64.69626938688928
30
202.87499846903722
 70
     192
  0
VERTEX
  8
Layer0
10
809.112084979219
20
64.25098981339885
30
202.8749984653441
 70
     192
  0
VERTEX
  8
Layer0
10
809.326870896802
20
63.73245076417916
30
202.87499846373584
 70
     192
  0
VERTEX
  8
Layer0
10
809.400130380151
20
63.17598981850838
30
202.87499846432212
 70
     192
  0
VERTEX
  8
Layer0
10
829.5000029107448
20
332.54014743720563
30
202.87499736318367
 70
     192
  0
VERTEX
  8
Layer0
10
830.0176410021587
20
332.4719990989655
30
202.8749973557746
 70
     192
  0
VERTEX
  8
Layer0
10
830.5000029154985
20
332.2721982625126
30
202.87499734927772
 70
     192
  0
VERTEX
  8
Layer0
10
830.914216483509
20
331.9543610246642
30
202.87499734413626
 70
     192
  0
VERTEX
  8
Layer0
10
831.2320537360521
20
331.54014746792905
30
202.87499734070062
 70
     192
  0
VERTEX
  8
Layer0
10
831.4318545896177
20
331.0577855616781
30
202.8749973392041
 70
     192
  0
VERTEX
  8
Layer0
10
735.1936693963428
20
65.25272902873344
30
202.8749995494877
 70
     192
  0
VERTEX
  8
Layer0
10
735.7501300253839
20
83.1759885120823
30
202.8749994877045
 70
     192
  0
VERTEX
  8
Layer0
10
735.7501298657395
20
92.17598851208197
30
202.8749994607903
 70
     192
  0
VERTEX
  8
Layer0
10
735.7501303420139
20
65.32598851208262
30
202.87499954108455
 70
     192
  0
VERTEX
  8
Layer0
10
738.7501300785988
20
80.17598856529747
30
202.87499945255436
 70
     192
  0
VERTEX
  8
Layer0
10
736.3065912902836
20
65.2527290484746
30
202.87499953311945
 70
     192
  0
VERTEX
  8
Layer0
10
736.8251303471234
20
65.03794314928791
30
202.87499952613558
 70
     192
  0
VERTEX
  8
Layer0
10
737.270409932735
20
64.69626811860114
30
202.87499952060855
 70
     192
  0
VERTEX
  8
Layer0
10
737.6120849792189
20
64.2509885451108
30
202.87499951691484
 70
     192
  0
VERTEX
  8
Layer0
10
737.8268708968016
20
63.73244949589112
30
202.87499951530677
 70
     192
  0
VERTEX
  8
Layer0
10
737.900130380151
20
63.17598855022029
30
202.87499951589314
 70
     192
  0
VERTEX
  8
Layer0
10
738.158152627132
20
46.67598855479681
30
202.87499956144126
 70
     192
  0
VERTEX
  8
Layer0
10
744.2765194557127
20
54.649599739008345
30
202.87499944761163
 70
     192
  0
VERTEX
  8
Layer0
10
752.2501304228653
20
60.767966850465484
30
202.87499931204496
 70
     192
  0
VERTEX
  8
Layer0
10
761.5355971181939
20
64.61413328160225
30
202.87499916397897
 70
     192
  0
VERTEX
  8
Layer0
10
804.2501300786
20
80.17598972715605
30
202.87499848922658
 70
     192
  0
VERTEX
  8
Layer0
10
771.5001303313707
20
65.92598914622694
30
202.87499901350463
 70
     192
  0
VERTEX
  8
Layer0
10
781.4646635910879
20
64.61413363510987
30
202.87499887087642
 70
     192
  0
VERTEX
  8
Layer0
10
782.9695542608696
20
63.99078754107119
30
202.87499885060768
 70
     192
  0
VERTEX
  8
Layer0
10
783.5256481008894
20
63.76044594214016
30
202.87499884311768
 70
     192
  0
VERTEX
  8
Layer0
10
789.2519351281056
20
61.38854031242787
30
202.87499876599287
 70
     192
  0
VERTEX
  8
Layer0
10
790.7501304228654
20
60.76796753339008
30
202.8749987458142
 70
     192
  0
VERTEX
  8
Layer0
10
798.7237416070768
20
54.64960070480959
30
202.87499864684105
 70
     192
  0
VERTEX
  8
Layer0
10
804.8421087185338
20
46.67598973765697
30
202.87499858070106
 70
     192
  0
VERTEX
  8
Layer0
10
805.1001303801511
20
63.17598974223352
30
202.8749985275634
 70
     192
  0
VERTEX
  8
Layer0
10
805.1733898437592
20
63.732450690503455
30
202.87499852482213
 70
     192
  0
VERTEX
  8
Layer0
10
805.3881757429459
20
64.25098974734301
30
202.87499852011243
 70
     192
  0
VERTEX
  8
Layer0
10
805.7298507736328
20
64.69626933295483
30
202.87499851375586
 70
     192
  0
VERTEX
  8
Layer0
10
806.1751303471232
20
65.03794437943895
30
202.87499850618525
 70
     192
  0
VERTEX
  8
Layer0
10
806.693669396343
20
65.25273029702198
30
202.8749984979162
 70
     192
  0
VERTEX
  8
Layer0
10
805.1733898635003
20
62.61952879656247
30
202.8749985281504
 70
     192
  0
VERTEX
  8
Layer0
10
808.6882751496705
20
37.39052304232805
30
202.8749985519024
 70
     192
  0
VERTEX
  8
Layer0
10
805.3881757810833
20
62.10098974734296
30
202.8749985265417
 70
     192
  0
VERTEX
  8
Layer0
10
805.7298508275671
20
61.655710173852576
30
202.87499852284864
 70
     192
  0
VERTEX
  8
Layer0
10
806.175130413179
20
61.314035143165945
30
202.8749985173215
 70
     192
  0
VERTEX
  8
Layer0
10
806.6936694700186
20
61.09924924397893
30
202.87499851033738
 70
     192
  0
VERTEX
  8
Layer0
10
807.2501304182886
20
61.02598978037101
30
202.87499850237236
 70
     192
  0
VERTEX
  8
Layer0
10
807.8065913639593
20
61.099249263720274
30
202.87499849396931
 70
     192
  0
VERTEX
  8
Layer0
10
808.325130413179
20
61.314035181302806
30
202.87499848570062
 70
     192
  0
VERTEX
  8
Layer0
10
808.7704099866693
20
61.65571022778712
30
202.87499847812992
 70
     192
  0
VERTEX
  8
Layer0
10
809.1120850173563
20
62.1009898133988
30
202.87499847177338
 70
     192
  0
VERTEX
  8
Layer0
10
809.3268709165432
20
62.619528870238355
30
202.87499846706376
 70
     192
  0
VERTEX
  8
Layer0
10
805.1733911120473
20
-7.7675493094973405
30
202.87499873864044
 70
     192
  0
VERTEX
  8
Layer0
10
808.6882755031784
20
17.461456569433153
30
202.87499861149934
 70
     192
  0
VERTEX
  8
Layer0
10
805.3881770112341
20
-7.24901025265792
30
202.87499873393062
 70
     192
  0
VERTEX
  8
Layer0
10
805.729852041921
20
-6.803730667045789
30
202.87499872757388
 70
     192
  0
VERTEX
  8
Layer0
10
806.1751316154116
20
-6.462055620562108
30
202.87499872000328
 70
     192
  0
VERTEX
  8
Layer0
10
806.6936706646311
20
-6.2472697029793505
30
202.87499871173478
 70
     192
  0
VERTEX
  8
Layer0
10
807.2501316103021
20
-6.174010219629544
30
202.87499870333139
 70
     192
  0
VERTEX
  8
Layer0
10
807.8065925585719
20
-6.247269683238051
30
202.87499869536643
 70
     192
  0
VERTEX
  8
Layer0
10
808.3251316154117
20
-6.46205558242425
30
202.8749986883826
 70
     192
  0
VERTEX
  8
Layer0
10
808.7704112010232
20
-6.8037306131118775
30
202.87499868285528
 70
     192
  0
VERTEX
  8
Layer0
10
809.1120862475072
20
-7.249010186601762
30
202.87499867916185
 70
     192
  0
VERTEX
  8
Layer0
10
809.3268721650902
20
-7.7675492358216776
30
202.8749986775537
 70
     192
  0
VERTEX
  8
Layer0
10
734.3119865254123
20
37.390521723019546
30
202.87499964577572
 70
     192
  0
VERTEX
  8
Layer0
10
733.6001303801511
20
63.17598847394547
30
202.87499957913465
 70
     192
  0
VERTEX
  8
Layer0
10
733.6733898635003
20
62.619527528274645
30
202.87499957972148
 70
     192
  0
VERTEX
  8
Layer0
10
733.8881757810833
20
62.100988479054955
30
202.8749995781131
 70
     192
  0
VERTEX
  8
Layer0
10
734.2298508275671
20
61.65570890556449
30
202.8749995744194
 70
     192
  0
VERTEX
  8
Layer0
10
734.6751304131791
20
61.31403387487781
30
202.87499956889226
 70
     192
  0
VERTEX
  8
Layer0
10
735.1936694700186
20
61.09924797569048
30
202.8749995619086
 70
     192
  0
VERTEX
  8
Layer0
10
735.7501304182881
20
61.02598851208265
30
202.87499955394358
 70
     192
  0
VERTEX
  8
Layer0
10
736.3065913639593
20
61.09924799543164
30
202.87499954554045
 70
     192
  0
VERTEX
  8
Layer0
10
736.8251304131791
20
61.314033913014896
30
202.87499953727178
 70
     192
  0
VERTEX
  8
Layer0
10
737.2704099866695
20
61.65570895949898
30
202.8749995297009
 70
     192
  0
VERTEX
  8
Layer0
10
737.6120850173563
20
62.10098854511075
30
202.87499952334434
 70
     192
  0
VERTEX
  8
Layer0
10
737.8268709165434
20
62.61952760195031
30
202.87499951863478
 70
     192
  0
VERTEX
  8
Layer0
10
734.3119868789199
20
17.461455250124647
30
202.87499970537283
 70
     192
  0
VERTEX
  8
Layer0
10
733.6733911120473
20
-7.767550577785613
30
202.8749997902113
 70
     192
  0
VERTEX
  8
Layer0
10
733.8881770112341
20
-7.249011520946283
30
202.87499978550176
 70
     192
  0
VERTEX
  8
Layer0
10
734.229852041921
20
-6.803731935334513
30
202.874999779145
 70
     192
  0
VERTEX
  8
Layer0
10
734.6751316154114
20
-6.462056888850291
30
202.87499977157424
 70
     192
  0
VERTEX
  8
Layer0
10
735.1936706646312
20
-6.247270971267172
30
202.87499976330562
 70
     192
  0
VERTEX
  8
Layer0
10
735.7501316103017
20
-6.1740114879180865
30
202.87499975490286
 70
     192
  0
VERTEX
  8
Layer0
10
736.3065925585719
20
-6.247270951525782
30
202.87499974693748
 70
     192
  0
VERTEX
  8
Layer0
10
736.8251316154116
20
-6.462056850712973
30
202.87499973995372
 70
     192
  0
VERTEX
  8
Layer0
10
737.2704112010232
20
-6.80373188140006
30
202.87499973442658
 70
     192
  0
VERTEX
  8
Layer0
10
737.6120862475071
20
-7.249011454890395
30
202.87499973073326
 70
     192
  0
VERTEX
  8
Layer0
10
737.8268721650902
20
-7.767550504109499
30
202.8749997291248
 70
     192
  0
VERTEX
  8
Layer0
10
547.5000000768148
20
164.68227097192636
30
202.87500201261193
 70
     192
  0
VERTEX
  8
Layer0
10
547.5681454913824
20
330.02249734250813
30
202.87500151716534
 70
     192
  0
VERTEX
  8
Layer0
10
547.4999971347787
20
330.5401354315042
30
202.8750015166202
 70
     192
  0
VERTEX
  8
Layer0
10
547.5681484150548
20
165.1999090633403
30
202.87500201006176
 70
     192
  0
VERTEX
  8
Layer0
10
547.7679463449479
20
329.54013543625723
30
202.87500151566948
 70
     192
  0
VERTEX
  8
Layer0
10
547.7679492515078
20
165.68227097667952
30
202.8750020056807
 70
     192
  0
VERTEX
  8
Layer0
10
548.0857835974912
20
329.12592187952197
30
202.87500151223392
 70
     192
  0
VERTEX
  8
Layer0
10
548.0857864893561
20
166.0964845446903
30
202.87500199976716
 70
     192
  0
VERTEX
  8
Layer0
10
548.4999971655025
20
328.8080846416738
30
202.87500150709226
 70
     192
  0
VERTEX
  8
Layer0
10
548.500000046091
20
166.41432179723384
30
202.87500199272517
 70
     192
  0
VERTEX
  8
Layer0
10
548.9823590788418
20
328.60828380522076
30
202.87500150059574
 70
     192
  0
VERTEX
  8
Layer0
10
548.9823619523422
20
166.61412265079923
30
202.8750019850333
 70
     192
  0
VERTEX
  8
Layer0
10
549.4999971702557
20
328.5401354669808
30
202.87500149318626
 70
     192
  0
VERTEX
  8
Layer0
10
549.5000000413387
20
166.68227100740302
30
202.8750019772161
 70
     192
  0
VERTEX
  8
Layer0
10
550.017635259252
20
328.60828382358466
30
202.8750014853696
 70
     192
  0
VERTEX
  8
Layer0
10
550.0176381327522
20
166.614122669163
30
202.87500196980707
 70
     192
  0
VERTEX
  8
Layer0
10
550.4999971655026
20
328.80808467715025
30
202.87500147767773
 70
     192
  0
VERTEX
  8
Layer0
10
550.5000000460909
20
166.41432183271044
30
202.87500196331047
 70
     192
  0
VERTEX
  8
Layer0
10
550.9142107222375
20
329.12592192969345
30
202.8750014706351
 70
     192
  0
VERTEX
  8
Layer0
10
550.9142136141023
20
166.09648459486206
30
202.8750019581691
 70
     192
  0
VERTEX
  8
Layer0
10
551.2320479600858
20
329.5401354977045
30
202.87500146472212
 70
     192
  0
VERTEX
  8
Layer0
10
551.2320508666456
20
165.68227103812654
30
202.8750019547328
 70
     192
  0
VERTEX
  8
Layer0
10
551.4318487965388
20
330.02249741104356
30
202.87500146034085
 70
     192
  0
VERTEX
  8
Layer0
10
551.431851720211
20
165.19990913187578
30
202.87500195323702
 70
     192
  0
VERTEX
  8
Layer0
10
551.4999971347789
20
330.5401355024577
30
202.8750014577908
 70
     192
  0
VERTEX
  8
Layer0
10
551.5000000768148
20
164.68227104287956
30
202.8750019537829
 70
     192
  0
VERTEX
  8
Layer0
10
539.4999970613046
20
334.68227091332903
30
202.87500198177824
 70
     192
  0
VERTEX
  8
Layer0
10
547.7679463094715
20
331.5401354362575
30
202.8750015096886
 70
     192
  0
VERTEX
  8
Layer0
10
579.4999963517727
20
374.68227162286064
30
202.8750006227612
 70
     192
  0
VERTEX
  8
Layer0
10
547.568145473019
20
331.05777352291824
30
202.8750015140694
 70
     192
  0
VERTEX
  8
Layer0
10
539.5000030923254
20
-5.317729169981534
30
202.87500227835105
 70
     192
  0
VERTEX
  8
Layer0
10
548.08578354732
20
331.95434900426835
30
202.87500150377568
 70
     192
  0
VERTEX
  8
Layer0
10
548.4999971040552
20
332.27218625681195
30
202.87500149673298
 70
     192
  0
VERTEX
  8
Layer0
10
548.9823590103058
20
332.4719871103773
30
202.8750014890411
 70
     192
  0
VERTEX
  8
Layer0
10
549.499997099302
20
332.54013546698116
30
202.87500148122436
 70
     192
  0
VERTEX
  8
Layer0
10
550.017635190716
20
332.47198712874115
30
202.87500147381496
 70
     192
  0
VERTEX
  8
Layer0
10
550.4999971040553
20
332.2721862922883
30
202.87500146731847
 70
     192
  0
VERTEX
  8
Layer0
10
550.9142106720662
20
331.95434905443983
30
202.8750014621769
 70
     192
  0
VERTEX
  8
Layer0
10
551.2320479246097
20
331.5401354977046
30
202.8750014587413
 70
     192
  0
VERTEX
  8
Layer0
10
551.4318487781752
20
331.05777359145367
30
202.87500145724528
 70
     192
  0
VERTEX
  8
Layer0
10
547.5095253931961
20
-1.3705262336347914
30
202.8750025090467
 70
     192
  0
VERTEX
  8
Layer0
10
547.5681484334189
20
164.16463288293016
30
202.87500201315774
 70
     192
  0
VERTEX
  8
Layer0
10
547.5268969356621
20
-0.8487105389692586
30
202.87500250723076
 70
     192
  0
VERTEX
  8
Layer0
10
547.6787323969853
20
-0.3491713689609135
30
202.8750025035039
 70
     192
  0
VERTEX
  8
Layer0
10
547.7679492869845
20
163.6822709766796
30
202.87500201166122
 70
     192
  0
VERTEX
  8
Layer0
10
547.9546844413967
20
0.09404850748033908
30
202.87500249811993
 70
     192
  0
VERTEX
  8
Layer0
10
548.0857865395277
20
163.26805741994428
30
202.87500200822538
 70
     192
  0
VERTEX
  8
Layer0
10
548.3359473931021
20
0.45074438823092033
30
202.87500249144563
 70
     192
  0
VERTEX
  8
Layer0
10
548.5000001075388
20
162.95022018209593
30
202.875002003084
 70
     192
  0
VERTEX
  8
Layer0
10
548.7965388120089
20
0.6966080384851252
30
202.87500248393644
 70
     192
  0
VERTEX
  8
Layer0
10
548.9823620208779
20
162.7504193456413
30
202.87500199658749
 70
     192
  0
VERTEX
  8
Layer0
10
549.3050701540832
20
0.8148842567876222
30
202.87500247610393
 70
     192
  0
VERTEX
  8
Layer0
10
549.5000001122918
20
162.6822710074014
30
202.87500198917837
 70
     192
  0
VERTEX
  8
Layer0
10
549.5000029836582
20
0.808394831571615
30
202.87500247325622
 70
     192
  0
VERTEX
  8
Layer0
10
550.0176382012878
20
162.75041936400504
30
202.87500198136107
 70
     192
  0
VERTEX
  8
Layer0
10
549.8268858487492
20
0.7975127143218955
30
202.875002468481
 70
     192
  0
VERTEX
  8
Layer0
10
550.3264250187574
20
0.6456772529982927
30
202.87500246158822
 70
     192
  0
VERTEX
  8
Layer0
10
550.5000001075387
20
162.95022021757248
30
202.87500197366964
 70
     192
  0
VERTEX
  8
Layer0
10
550.7696448951983
20
0.3697252085867845
30
202.87500245589476
 70
     192
  0
VERTEX
  8
Layer0
10
550.9142136642739
20
163.26805747011602
30
202.87500196662705
 70
     192
  0
VERTEX
  8
Layer0
10
551.1263407759488
20
-0.011537743118432075
30
202.87500245178907
 70
     192
  0
VERTEX
  8
Layer0
10
551.2320509021222
20
163.68227103812663
30
202.8750019607137
 70
     192
  0
VERTEX
  8
Layer0
10
551.3722044262032
20
-0.4721291620255016
30
202.87500244955032
 70
     192
  0
VERTEX
  8
Layer0
10
551.4318517385752
20
164.16463295146565
30
202.87500195633288
 70
     192
  0
VERTEX
  8
Layer0
10
551.490480644506
20
-0.9806605040995051
30
202.87500244933162
 70
     192
  0
VERTEX
  8
Layer0
10
793.4260221504273
20
-34.80007957205981
30
202.87499899225182
 70
     192
  0
VERTEX
  8
Layer0
10
793.6258229868804
20
-34.31771765872088
30
202.8749989878711
 70
     192
  0
VERTEX
  8
Layer0
10
793.9436602247289
20
-33.90350409071006
30
202.87499898195782
 70
     192
  0
VERTEX
  8
Layer0
10
794.3578737814638
20
-33.585666838167036
30
202.87499897491506
 70
     192
  0
VERTEX
  8
Layer0
10
794.8402356877148
20
-33.38586598460128
30
202.87499896722346
 70
     192
  0
VERTEX
  8
Layer0
10
795.3578737767108
20
-33.31771762799764
30
202.87499895940687
 70
     192
  0
VERTEX
  8
Layer0
10
795.8755118681248
20
-33.38586596623684
30
202.8749989519973
 70
     192
  0
VERTEX
  8
Layer0
10
796.3578737814639
20
-33.58566680269005
30
202.87499894550052
 70
     192
  0
VERTEX
  8
Layer0
10
796.772087349475
20
-33.90350404053847
30
202.8749989403594
 70
     192
  0
VERTEX
  8
Layer0
10
797.0899246020182
20
-34.31771759727376
30
202.87499893692356
 70
     192
  0
VERTEX
  8
Layer0
10
797.2897254555837
20
-34.80007950352469
30
202.87499893542733
 70
     192
  0
VERTEX
  8
Layer0
10
547.6278016114985
20
-1.8790575757091559
30
202.87500250882772
 70
     192
  0
VERTEX
  8
Layer0
10
547.873665261753
20
-2.3396489946162253
30
202.87500250658914
 70
     192
  0
VERTEX
  8
Layer0
10
548.2303611425034
20
-2.7209119463215323
30
202.87500250248345
 70
     192
  0
VERTEX
  8
Layer0
10
548.6735810189448
20
-2.9968639907330403
30
202.87500249678985
 70
     192
  0
VERTEX
  8
Layer0
10
549.1731201889528
20
-3.1486994520563725
30
202.8750024898973
 70
     192
  0
VERTEX
  8
Layer0
10
549.6949358836185
20
-3.1660709945226406
30
202.87500248227462
 70
     192
  0
VERTEX
  8
Layer0
10
550.2034672256929
20
-3.0477947762194217
30
202.87500247444163
 70
     192
  0
VERTEX
  8
Layer0
10
550.6640586445998
20
-2.8019311259652167
30
202.8750024669327
 70
     192
  0
VERTEX
  8
Layer0
10
550.9028945540604
20
-2.5784848543073355
30
202.8750024627517
 70
     192
  0
VERTEX
  8
Layer0
10
551.0453215963054
20
-2.4452352452147257
30
202.87500246025832
 70
     192
  0
VERTEX
  8
Layer0
10
551.321273640717
20
-2.002015368773383
30
202.8750024548746
 70
     192
  0
VERTEX
  8
Layer0
10
551.4731091020401
20
-1.502476198765489
30
202.87500245114757
 70
     192
  0
VERTEX
  8
Layer0
10
581.7102804911259
20
365.19990975227205
30
202.8750009098304
 70
     192
  0
VERTEX
  8
Layer0
10
581.9100813275793
20
365.6822716656109
30
202.87500090544955
 70
     192
  0
VERTEX
  8
Layer0
10
582.2279185654277
20
366.09648523362176
30
202.8750008995363
 70
     192
  0
VERTEX
  8
Layer0
10
582.6421321221627
20
366.4143224861653
30
202.87500089249397
 70
     192
  0
VERTEX
  8
Layer0
10
583.1244940284134
20
366.6141233397306
30
202.8750008848023
 70
     192
  0
VERTEX
  8
Layer0
10
583.6421321174096
20
366.6822716963346
30
202.87500087698555
 70
     192
  0
VERTEX
  8
Layer0
10
584.1597702088235
20
366.6141233580947
30
202.87500086957624
 70
     192
  0
VERTEX
  8
Layer0
10
584.6421321221628
20
366.4143225216418
30
202.87500086307935
 70
     192
  0
VERTEX
  8
Layer0
10
585.0563456901739
20
366.0964852837934
30
202.87500085793786
 70
     192
  0
VERTEX
  8
Layer0
10
585.3741829427171
20
365.6822717270585
30
202.87500085450202
 70
     192
  0
VERTEX
  8
Layer0
10
585.5739837962823
20
365.19990982080765
30
202.87500085300618
 70
     192
  0
VERTEX
  8
Layer0
10
585.6421321528865
20
364.6822717318116
30
202.875000853552
 70
     192
  0
VERTEX
  8
Layer0
10
689.4999993994006
20
366.6822805775743
30
202.8749993201033
 70
     192
  0
VERTEX
  8
Layer0
10
688.9823613104044
20
366.6141322209705
30
202.8749993279198
 70
     192
  0
VERTEX
  8
Layer0
10
688.4999994041534
20
366.41433136740466
30
202.87499933561205
 70
     192
  0
VERTEX
  8
Layer0
10
688.0857858474178
20
366.0964941148617
30
202.87499934265406
 70
     192
  0
VERTEX
  8
Layer0
10
687.7679486095697
20
365.68228054685005
30
202.87499934856726
 70
     192
  0
VERTEX
  8
Layer0
10
687.5681477731168
20
365.1999186335117
30
202.87499935294844
 70
     192
  0
VERTEX
  8
Layer0
10
690.0176374908145
20
366.6141322393345
30
202.87499931269417
 70
     192
  0
VERTEX
  8
Layer0
10
690.4999994041534
20
366.4143314028813
30
202.87499930619703
 70
     192
  0
VERTEX
  8
Layer0
10
690.914212972164
20
366.0964941650332
30
202.87499930105565
 70
     192
  0
VERTEX
  8
Layer0
10
691.2320502247077
20
365.68228060829813
30
202.8749992976197
 70
     192
  0
VERTEX
  8
Layer0
10
691.4318510782732
20
365.19991870204717
30
202.87499929612386
 70
     192
  0
VERTEX
  8
Layer0
10
691.499999434877
20
364.6822806130506
30
202.87499929666947
 70
     192
  0
VERTEX
  8
Layer0
10
793.6258158915608
20
365.68228242458866
30
202.87499779168536
 70
     192
  0
VERTEX
  8
Layer0
10
793.426015055108
20
365.19992051124984
30
202.87499779606637
 70
     192
  0
VERTEX
  8
Layer0
10
733.673389843759
20
63.73244942221545
30
202.874999576393
 70
     192
  0
VERTEX
  8
Layer0
10
733.8881757429459
20
64.25098847905501
30
202.87499957168336
 70
     192
  0
VERTEX
  8
Layer0
10
734.2298507736328
20
64.69626806466678
30
202.8749995653268
 70
     192
  0
VERTEX
  8
Layer0
10
734.6751303471233
20
65.03794311115082
30
202.8749995577562
 70
     192
  0
VERTEX
  8
Layer0
10
793.9436531294093
20
366.0964959925996
30
202.87499778577217
 70
     192
  0
VERTEX
  8
Layer0
10
794.3578666861445
20
366.414333245143
30
202.8749977787294
 70
     192
  0
VERTEX
  8
Layer0
10
794.8402285923954
20
366.6141340987083
30
202.8749977710378
 70
     192
  0
VERTEX
  8
Layer0
10
795.3578666813917
20
366.6822824553124
30
202.87499776322113
 70
     192
  0
VERTEX
  8
Layer0
10
795.8755047728051
20
366.6141341170724
30
202.87499775581162
 70
     192
  0
VERTEX
  8
Layer0
10
796.3578666861443
20
366.41433328061953
30
202.87499774931496
 70
     192
  0
VERTEX
  8
Layer0
10
796.7720802541553
20
366.0964960427711
30
202.87499774417364
 70
     192
  0
VERTEX
  8
Layer0
10
797.0899175066987
20
365.6822824860358
30
202.8749977407378
 70
     192
  0
VERTEX
  8
Layer0
10
797.289718360264
20
365.1999205797852
30
202.87499773924188
 70
     192
  0
VERTEX
  8
Layer0
10
581.7102805094901
20
364.16463357186194
30
202.8750009129266
 70
     192
  0
VERTEX
  8
Layer0
10
581.7102875864451
20
-34.80009033103804
30
202.87500210601613
 70
     192
  0
VERTEX
  8
Layer0
10
581.9100813630558
20
363.682271665611
30
202.87500091143065
 70
     192
  0
VERTEX
  8
Layer0
10
581.910088422898
20
-34.31772841769875
30
202.87500210163495
 70
     192
  0
VERTEX
  8
Layer0
10
582.2279186155992
20
363.2680581088757
30
202.8750009079949
 70
     192
  0
VERTEX
  8
Layer0
10
582.2279256607461
20
-33.90351484968784
30
202.87500209572195
 70
     192
  0
VERTEX
  8
Layer0
10
582.6421321836095
20
362.9502208710274
30
202.87500090285343
 70
     192
  0
VERTEX
  8
Layer0
10
582.6421392174817
20
-33.585677597144816
30
202.87500208867954
 70
     192
  0
VERTEX
  8
Layer0
10
583.1244940969488
20
362.75042003457446
30
202.87500089635628
 70
     192
  0
VERTEX
  8
Layer0
10
583.1245011237327
20
-33.38587674357906
30
202.87500208098777
 70
     192
  0
VERTEX
  8
Layer0
10
583.6421321883627
20
362.6822716963348
30
202.87500088894723
 70
     192
  0
VERTEX
  8
Layer0
10
583.642139212729
20
-33.31772838697533
30
202.87500207317092
 70
     192
  0
VERTEX
  8
Layer0
10
584.1597702773589
20
362.7504200529385
30
202.87500088113057
 70
     192
  0
VERTEX
  8
Layer0
10
584.1597773041428
20
-33.38587672521508
30
202.8750020657617
 70
     192
  0
VERTEX
  8
Layer0
10
584.6421321836095
20
362.9502209065039
30
202.87500087343844
 70
     192
  0
VERTEX
  8
Layer0
10
584.6421392174818
20
-33.58567756166819
30
202.87500205926472
 70
     192
  0
VERTEX
  8
Layer0
10
585.0563457403454
20
363.26805815904737
30
202.87500086639645
 70
     192
  0
VERTEX
  8
Layer0
10
585.0563527854923
20
-33.90351479951635
30
202.8750020541236
 70
     192
  0
VERTEX
  8
Layer0
10
585.3741829781935
20
363.68227172705855
30
202.8750008604832
 70
     192
  0
VERTEX
  8
Layer0
10
585.3741900380356
20
-34.31772835625119
30
202.87500205068767
 70
     192
  0
VERTEX
  8
Layer0
10
585.5739838146465
20
364.1646336403975
30
202.87500085610202
 70
     192
  0
VERTEX
  8
Layer0
10
585.5739908916014
20
-34.80009026250248
30
202.87500204919138
 70
     192
  0
VERTEX
  8
Layer0
10
687.5681477914809
20
364.1646424531015
30
202.8749993560443
 70
     192
  0
VERTEX
  8
Layer0
10
687.5681548684362
20
-34.80008144979842
30
202.87500054913383
 70
     192
  0
VERTEX
  8
Layer0
10
687.7679486450463
20
363.68228054685017
30
202.87499935454844
 70
     192
  0
VERTEX
  8
Layer0
10
687.7679557048892
20
-34.31771953645941
30
202.87500054475274
 70
     192
  0
VERTEX
  8
Layer0
10
688.0857858975894
20
363.2680669901153
30
202.87499935111256
 70
     192
  0
VERTEX
  8
Layer0
10
688.0857929427376
20
-33.90350596844804
30
202.87500053884
 70
     192
  0
VERTEX
  8
Layer0
10
688.4999994656006
20
362.95022975226675
30
202.87499934597113
 70
     192
  0
VERTEX
  8
Layer0
10
688.5000064994728
20
-33.58566871590511
30
202.87500053179716
 70
     192
  0
VERTEX
  8
Layer0
10
688.9823613789397
20
362.750428915814
30
202.87499933947433
 70
     192
  0
VERTEX
  8
Layer0
10
688.9823684057236
20
-33.38586786233962
30
202.87500052410573
 70
     192
  0
VERTEX
  8
Layer0
10
689.4999994703536
20
362.68228057757415
30
202.87499933206493
 70
     192
  0
VERTEX
  8
Layer0
10
689.5000064947194
20
-33.31771950573607
30
202.87500051628896
 70
     192
  0
VERTEX
  8
Layer0
10
690.0176375593499
20
362.75042893417793
30
202.87499932424817
 70
     192
  0
VERTEX
  8
Layer0
10
690.0176445861337
20
-33.385867843975554
30
202.87500050887954
 70
     192
  0
VERTEX
  8
Layer0
10
690.4999994656007
20
362.9502297877434
30
202.87499931655648
 70
     192
  0
VERTEX
  8
Layer0
10
690.5000064994728
20
-33.58566868042875
30
202.87500050238287
 70
     192
  0
VERTEX
  8
Layer0
10
690.9142130223355
20
363.26806704028684
30
202.87499930951415
 70
     192
  0
VERTEX
  8
Layer0
10
690.9142200674838
20
-33.90350591827691
30
202.87500049724102
 70
     192
  0
VERTEX
  8
Layer0
10
691.2320502601841
20
363.68228060829784
30
202.87499930360087
 70
     192
  0
VERTEX
  8
Layer0
10
691.2320573200268
20
-34.31771947501211
30
202.87500049380537
 70
     192
  0
VERTEX
  8
Layer0
10
691.4318510966372
20
364.164642521637
30
202.87499929922006
 70
     192
  0
VERTEX
  8
Layer0
10
691.4318581735924
20
-34.800081381262856
30
202.87500049230934
 70
     192
  0
VERTEX
  8
Layer0
10
0.0
 20
 0.0
 30
0.0
 70
     128
 71
-1
 72
2
 73
-3
  0
VERTEX
  8
Layer0
10
0.0
 20
 0.0
 30
0.0
 70
     128
 71
-2
 72
1
 73
-4
  0
VERTEX
  8
Layer0
10
0.0
 20
 0.0
 30
0.0
 70
     128
 71
-2
 72
-4
 73
5
  0
VERTEX
  8
Layer0
10
0.0
 20
 0.0
 30
0.0
 70
     128
 71
-5
 72
4
 73
-6
  0
VERTEX
  8
Layer0
10
0.0
 20
 0.0
 30
0.0
 70
     128
 71
-5
 72
-6
 73
7
  0
VERTEX
  8
Layer0
10
0.0
 20
 0.0
 30
0.0
 70
     128
 71
-7
 72
6
 73
-8
  0
VERTEX
  8
Layer0
10
0.0
 20
 0.0
 30
0.0
 70
     128
 71
-7
 72
-8
 73
9
  0
VERTEX
  8
Layer0
10
0.0
 20
 0.0
 30
0.0
 70
     128
 71
-9
 72
8
 73
-10
  0
VERTEX
  8
Layer0
10
0.0
 20
 0.0
 30
0.0
 70
     128
 71
-9
 72
-10
 73
11
  0
VERTEX
  8
Layer0
10
0.0
 20
 0.0
 30
0.0
 70
     128
 71
-11
 72
10
 73
-12
  0
VERTEX
  8
Layer0
10
0.0
 20
 0.0
 30
0.0
 70
     128
 71
-11
 72
-12
 73
13
  0
VERTEX
  8
Layer0
10
0.0
 20
 0.0
 30
0.0
 70
     128
 71
-13
 72
12
 73
-14
  0
VERTEX
  8
Layer0
10
0.0
 20
 0.0
 30
0.0
 70
     128
 71
-13
 72
-14
 73
15
  0
VERTEX
  8
Layer0
10
0.0
 20
 0.0
 30
0.0
 70
     128
 71
-15
 72
14
 73
-16
  0
VERTEX
  8
Layer0
10
0.0
 20
 0.0
 30
0.0
 70
     128
 71
-15
 72
-16
 73
17
  0
VERTEX
  8
Layer0
10
0.0
 20
 0.0
 30
0.0
 70
     128
 71
-17
 72
16
 73
-18
  0
VERTEX
  8
Layer0
10
0.0
 20
 0.0
 30
0.0
 70
     128
 71
-17
 72
-18
 73
19
  0
VERTEX
  8
Layer0
10
0.0
 20
 0.0
 30
0.0
 70
     128
 71
-19
 72
18
 73
-20
  0
VERTEX
  8
Layer0
10
0.0
 20
 0.0
 30
0.0
 70
     128
 71
-19
 72
-20
 73
21
  0
VERTEX
  8
Layer0
10
0.0
 20
 0.0
 30
0.0
 70
     128
 71
-21
 72
20
 73
-22
  0
VERTEX
  8
Layer0
10
0.0
 20
 0.0
 30
0.0
 70
     128
 71
-21
 72
-22
 73
23
  0
VERTEX
  8
Layer0
10
0.0
 20
 0.0
 30
0.0
 70
     128
 71
-23
 72
22
 73
-24
  0
VERTEX
  8
Layer0
10
0.0
 20
 0.0
 30
0.0
 70
     128
 71
-23
 72
-24
 73
25
  0
VERTEX
  8
Layer0
10
0.0
 20
 0.0
 30
0.0
 70
     128
 71
-25
 72
24
 73
-26
  0
VERTEX
  8
Layer0
10
0.0
 20
 0.0
 30
0.0
 70
     128
 71
-27
 72
28
 73
-1
  0
VERTEX
  8
Layer0
10
0.0
 20
 0.0
 30
0.0
 70
     128
 71
-28
 72
27
 73
-29
  0
VERTEX
  8
Layer0
10
0.0
 20
 0.0
 30
0.0
 70
     128
 71
-28
 72
-29
 73
30
  0
VERTEX
  8
Layer0
10
0.0
 20
 0.0
 30
0.0
 70
     128
 71
-30
 72
29
 73
-31
  0
VERTEX
  8
Layer0
10
0.0
 20
 0.0
 30
0.0
 70
     128
 71
-30
 72
-31
 73
32
  0
VERTEX
  8
Layer0
10
0.0
 20
 0.0
 30
0.0
 70
     128
 71
-32
 72
31
 73
-33
  0
VERTEX
  8
Layer0
10
0.0
 20
 0.0
 30
0.0
 70
     128
 71
-32
 72
-33
 73
34
  0
VERTEX
  8
Layer0
10
0.0
 20
 0.0
 30
0.0
 70
     128
 71
-34
 72
33
 73
-35
  0
VERTEX
  8
Layer0
10
0.0
 20
 0.0
 30
0.0
 70
     128
 71
-34
 72
-35
 73
36
  0
VERTEX
  8
Layer0
10
0.0
 20
 0.0
 30
0.0
 70
     128
 71
-36
 72
35
 73
-37
  0
VERTEX
  8
Layer0
10
0.0
 20
 0.0
 30
0.0
 70
     128
 71
-36
 72
-37
 73
38
  0
VERTEX
  8
Layer0
10
0.0
 20
 0.0
 30
0.0
 70
     128
 71
-38
 72
37
 73
-39
  0
VERTEX
  8
Layer0
10
0.0
 20
 0.0
 30
0.0
 70
     128
 71
-38
 72
-39
 73
40
  0
VERTEX
  8
Layer0
10
0.0
 20
 0.0
 30
0.0
 70
     128
 71
-40
 72
39
 73
-41
  0
VERTEX
  8
Layer0
10
0.0
 20
 0.0
 30
0.0
 70
     128
 71
-40
 72
-41
 73
42
  0
VERTEX
  8
Layer0
10
0.0
 20
 0.0
 30
0.0
 70
     128
 71
-42
 72
41
 73
-43
  0
VERTEX
  8
Layer0
10
0.0
 20
 0.0
 30
0.0
 70
     128
 71
-42
 72
-43
 73
44
  0
VERTEX
  8
Layer0
10
0.0
 20
 0.0
 30
0.0
 70
     128
 71
-44
 72
43
 73
-45
  0
VERTEX
  8
Layer0
10
0.0
 20
 0.0
 30
0.0
 70
     128
 71
-44
 72
-45
 73
46
  0
VERTEX
  8
Layer0
10
0.0
 20
 0.0
 30
0.0
 70
     128
 71
-46
 72
45
 73
-47
  0
VERTEX
  8
Layer0
10
0.0
 20
 0.0
 30
0.0
 70
     128
 71
-46
 72
-47
 73
48
  0
VERTEX
  8
Layer0
10
0.0
 20
 0.0
 30
0.0
 70
     128
 71
-48
 72
47
 73
-49
  0
VERTEX
  8
Layer0
10
0.0
 20
 0.0
 30
0.0
 70
     128
 71
-48
 72
-49
 73
26
  0
VERTEX
  8
Layer0
10
0.0
 20
 0.0
 30
0.0
 70
     128
 71
-26
 72
49
 73
-50
  0
VERTEX
  8
Layer0
10
0.0
 20
 0.0
 30
0.0
 70
     128
 71
-51
 72
-52
 73
-53
  0
VERTEX
  8
Layer0
10
0.0
 20
 0.0
 30
0.0
 70
     128
 71
-52
 72
-51
 73
54
  0
VERTEX
  8
Layer0
10
0.0
 20
 0.0
 30
0.0
 70
     128
 71
-54
 72
-51
 73
55
  0
VERTEX
  8
Layer0
10
0.0
 20
 0.0
 30
0.0
 70
     128
 71
-55
 72
-51
 73
56
  0
VERTEX
  8
Layer0
10
0.0
 20
 0.0
 30
0.0
 70
     128
 71
-56
 72
-51
 73
57
  0
VERTEX
  8
Layer0
10
0.0
 20
 0.0
 30
0.0
 70
     128
 71
-57
 72
-51
 73
58
  0
VERTEX
  8
Layer0
10
0.0
 20
 0.0
 30
0.0
 70
     128
 71
-58
 72
-51
 73
59
  0
VERTEX
  8
Layer0
10
0.0
 20
 0.0
 30
0.0
 70
     128
 71
-59
 72
51
 73
-60
  0
VERTEX
  8
Layer0
10
0.0
 20
 0.0
 30
0.0
 70
     128
 71
-59
 72
-60
 73
61
  0
VERTEX
  8
Layer0
10
0.0
 20
 0.0
 30
0.0
 70
     128
 71
-61
 72
-60
 73
62
  0
VERTEX
  8
Layer0
10
0.0
 20
 0.0
 30
0.0
 70
     128
 71
-62
 72
-60
 73
63
  0
VERTEX
  8
Layer0
10
0.0
 20
 0.0
 30
0.0
 70
     128
 71
-63
 72
-60
 73
64
  0
VERTEX
  8
Layer0
10
0.0
 20
 0.0
 30
0.0
 70
     128
 71
-64
 72
-60
 73
65
  0
VERTEX
  8
Layer0
10
0.0
 20
 0.0
 30
0.0
 70
     128
 71
-65
 72
-60
 73
66
  0
VERTEX
  8
Layer0
10
0.0
 20
 0.0
 30
0.0
 70
     128
 71
-66
 72
-60
 73
-67
  0
VERTEX
  8
Layer0
10
0.0
 20
 0.0
 30
0.0
 70
     128
 71
-66
 72
67
 73
-68
  0
VERTEX
  8
Layer0
10
0.0
 20
 0.0
 30
0.0
 70
     128
 71
-66
 72
68
 73
-69
  0
VERTEX
  8
Layer0
10
0.0
 20
 0.0
 30
0.0
 70
     128
 71
-66
 72
69
 73
-70
  0
VERTEX
  8
Layer0
10
0.0
 20
 0.0
 30
0.0
 70
     128
 71
-66
 72
70
 73
-71
  0
VERTEX
  8
Layer0
10
0.0
 20
 0.0
 30
0.0
 70
     128
 71
-66
 72
71
 73
-72
  0
VERTEX
  8
Layer0
10
0.0
 20
 0.0
 30
0.0
 70
     128
 71
-66
 72
72
 73
-73
  0
VERTEX
  8
Layer0
10
0.0
 20
 0.0
 30
0.0
 70
     128
 71
-66
 72
-73
 73
-74
  0
VERTEX
  8
Layer0
10
0.0
 20
 0.0
 30
0.0
 70
     128
 71
-67
 72
-60
 73
75
  0
VERTEX
  8
Layer0
10
0.0
 20
 0.0
 30
0.0
 70
     128
 71
-75
 72
-60
 73
76
  0
VERTEX
  8
Layer0
10
0.0
 20
 0.0
 30
0.0
 70
     128
 71
-76
 72
-60
 73
77
  0
VERTEX
  8
Layer0
10
0.0
 20
 0.0
 30
0.0
 70
     128
 71
-77
 72
-60
 73
78
  0
VERTEX
  8
Layer0
10
0.0
 20
 0.0
 30
0.0
 70
     128
 71
-78
 72
-60
 73
79
  0
VERTEX
  8
Layer0
10
0.0
 20
 0.0
 30
0.0
 70
     128
 71
-79
 72
-60
 73
80
  0
VERTEX
  8
Layer0
10
0.0
 20
 0.0
 30
0.0
 70
     128
 71
-80
 72
-60
 73
-81
  0
VERTEX
  8
Layer0
10
0.0
 20
 0.0
 30
0.0
 70
     128
 71
-80
 72
81
 73
-82
  0
VERTEX
  8
Layer0
10
0.0
 20
 0.0
 30
0.0
 70
     128
 71
-80
 72
82
 73
-83
  0
VERTEX
  8
Layer0
10
0.0
 20
 0.0
 30
0.0
 70
     128
 71
-80
 72
83
 73
-84
  0
VERTEX
  8
Layer0
10
0.0
 20
 0.0
 30
0.0
 70
     128
 71
-80
 72
84
 73
-85
  0
VERTEX
  8
Layer0
10
0.0
 20
 0.0
 30
0.0
 70
     128
 71
-80
 72
-85
 73
-86
  0
VERTEX
  8
Layer0
10
0.0
 20
 0.0
 30
0.0
 70
     128
 71
-81
 72
-60
 73
87
  0
VERTEX
  8
Layer0
10
0.0
 20
 0.0
 30
0.0
 70
     128
 71
-87
 72
-60
 73
88
  0
VERTEX
  8
Layer0
10
0.0
 20
 0.0
 30
0.0
 70
     128
 71
-88
 72
-60
 73
89
  0
VERTEX
  8
Layer0
10
0.0
 20
 0.0
 30
0.0
 70
     128
 71
-89
 72
-60
 73
90
  0
VERTEX
  8
Layer0
10
0.0
 20
 0.0
 30
0.0
 70
     128
 71
-90
 72
-60
 73
91
  0
VERTEX
  8
Layer0
10
0.0
 20
 0.0
 30
0.0
 70
     128
 71
-91
 72
-60
 73
92
  0
VERTEX
  8
Layer0
10
0.0
 20
 0.0
 30
0.0
 70
     128
 71
-92
 72
-60
 73
93
  0
VERTEX
  8
Layer0
10
0.0
 20
 0.0
 30
0.0
 70
     128
 71
-93
 72
-60
 73
94
  0
VERTEX
  8
Layer0
10
0.0
 20
 0.0
 30
0.0
 70
     128
 71
-94
 72
-60
 73
-95
  0
VERTEX
  8
Layer0
10
0.0
 20
 0.0
 30
0.0
 70
     128
 71
-94
 72
95
 73
-96
  0
VERTEX
  8
Layer0
10
0.0
 20
 0.0
 30
0.0
 70
     128
 71
-95
 72
-60
 73
97
  0
VERTEX
  8
Layer0
10
0.0
 20
 0.0
 30
0.0
 70
     128
 71
-97
 72
-60
 73
98
  0
VERTEX
  8
Layer0
10
0.0
 20
 0.0
 30
0.0
 70
     128
 71
-98
 72
-60
 73
99
  0
VERTEX
  8
Layer0
10
0.0
 20
 0.0
 30
0.0
 70
     128
 71
-99
 72
-60
 73
100
  0
VERTEX
  8
Layer0
10
0.0
 20
 0.0
 30
0.0
 70
     128
 71
-100
 72
-60
 73
101
  0
VERTEX
  8
Layer0
10
0.0
 20
 0.0
 30
0.0
 70
     128
 71
-101
 72
-60
 73
102
  0
VERTEX
  8
Layer0
10
0.0
 20
 0.0
 30
0.0
 70
     128
 71
-102
 72
-60
 73
103
  0
VERTEX
  8
Layer0
10
0.0
 20
 0.0
 30
0.0
 70
     128
 71
-103
 72
-60
 73
-104
  0
VERTEX
  8
Layer0
10
0.0
 20
 0.0
 30
0.0
 70
     128
 71
-103
 72
-104
 73
105
  0
VERTEX
  8
Layer0
10
0.0
 20
 0.0
 30
0.0
 70
     128
 71
-105
 72
104
 73
-106
  0
VERTEX
  8
Layer0
10
0.0
 20
 0.0
 30
0.0
 70
     128
 71
-105
 72
106
 73
-107
  0
VERTEX
  8
Layer0
10
0.0
 20
 0.0
 30
0.0
 70
     128
 71
-105
 72
-107
 73
108
  0
VERTEX
  8
Layer0
10
0.0
 20
 0.0
 30
0.0
 70
     128
 71
-104
 72
-60
 73
109
  0
VERTEX
  8
Layer0
10
0.0
 20
 0.0
 30
0.0
 70
     128
 71
-109
 72
-60
 73
110
  0
VERTEX
  8
Layer0
10
0.0
 20
 0.0
 30
0.0
 70
     128
 71
-110
 72
-60
 73
111
  0
VERTEX
  8
Layer0
10
0.0
 20
 0.0
 30
0.0
 70
     128
 71
-111
 72
-60
 73
112
  0
VERTEX
  8
Layer0
10
0.0
 20
 0.0
 30
0.0
 70
     128
 71
-112
 72
-60
 73
113
  0
VERTEX
  8
Layer0
10
0.0
 20
 0.0
 30
0.0
 70
     128
 71
-113
 72
-60
 73
114
  0
VERTEX
  8
Layer0
10
0.0
 20
 0.0
 30
0.0
 70
     128
 71
-114
 72
-60
 73
115
  0
VERTEX
  8
Layer0
10
0.0
 20
 0.0
 30
0.0
 70
     128
 71
-115
 72
-60
 73
116
  0
VERTEX
  8
Layer0
10
0.0
 20
 0.0
 30
0.0
 70
     128
 71
-116
 72
-60
 73
117
  0
VERTEX
  8
Layer0
10
0.0
 20
 0.0
 30
0.0
 70
     128
 71
-117
 72
-60
 73
118
  0
VERTEX
  8
Layer0
10
0.0
 20
 0.0
 30
0.0
 70
     128
 71
-118
 72
-60
 73
-119
  0
VERTEX
  8
Layer0
10
0.0
 20
 0.0
 30
0.0
 70
     128
 71
-119
 72
-60
 73
120
  0
VERTEX
  8
Layer0
10
0.0
 20
 0.0
 30
0.0
 70
     128
 71
-120
 72
-60
 73
-121
  0
VERTEX
  8
Layer0
10
0.0
 20
 0.0
 30
0.0
 70
     128
 71
-121
 72
-60
 73
122
  0
VERTEX
  8
Layer0
10
0.0
 20
 0.0
 30
0.0
 70
     128
 71
-122
 72
-60
 73
123
  0
VERTEX
  8
Layer0
10
0.0
 20
 0.0
 30
0.0
 70
     128
 71
-123
 72
-60
 73
124
  0
VERTEX
  8
Layer0
10
0.0
 20
 0.0
 30
0.0
 70
     128
 71
-124
 72
-60
 73
125
  0
VERTEX
  8
Layer0
10
0.0
 20
 0.0
 30
0.0
 70
     128
 71
-125
 72
-60
 73
126
  0
VERTEX
  8
Layer0
10
0.0
 20
 0.0
 30
0.0
 70
     128
 71
-126
 72
-60
 73
127
  0
VERTEX
  8
Layer0
10
0.0
 20
 0.0
 30
0.0
 70
     128
 71
-127
 72
-60
 73
128
  0
VERTEX
  8
Layer0
10
0.0
 20
 0.0
 30
0.0
 70
     128
 71
-128
 72
60
 73
-129
  0
VERTEX
  8
Layer0
10
0.0
 20
 0.0
 30
0.0
 70
     128
 71
-128
 72
-129
 73
130
  0
VERTEX
  8
Layer0
10
0.0
 20
 0.0
 30
0.0
 70
     128
 71
-130
 72
-129
 73
131
  0
VERTEX
  8
Layer0
10
0.0
 20
 0.0
 30
0.0
 70
     128
 71
-131
 72
-129
 73
132
  0
VERTEX
  8
Layer0
10
0.0
 20
 0.0
 30
0.0
 70
     128
 71
-132
 72
-129
 73
133
  0
VERTEX
  8
Layer0
10
0.0
 20
 0.0
 30
0.0
 70
     128
 71
-133
 72
-129
 73
134
  0
VERTEX
  8
Layer0
10
0.0
 20
 0.0
 30
0.0
 70
     128
 71
-134
 72
-129
 73
-135
  0
VERTEX
  8
Layer0
10
0.0
 20
 0.0
 30
0.0
 70
     128
 71
-134
 72
135
 73
-136
  0
VERTEX
  8
Layer0
10
0.0
 20
 0.0
 30
0.0
 70
     128
 71
-134
 72
136
 73
-137
  0
VERTEX
  8
Layer0
10
0.0
 20
 0.0
 30
0.0
 70
     128
 71
-134
 72
137
 73
-138
  0
VERTEX
  8
Layer0
10
0.0
 20
 0.0
 30
0.0
 70
     128
 71
-134
 72
-138
 73
-139
  0
VERTEX
  8
Layer0
10
0.0
 20
 0.0
 30
0.0
 70
     128
 71
-139
 72
138
 73
-140
  0
VERTEX
  8
Layer0
10
0.0
 20
 0.0
 30
0.0
 70
     128
 71
-139
 72
140
 73
-27
  0
VERTEX
  8
Layer0
10
0.0
 20
 0.0
 30
0.0
 70
     128
 71
-139
 72
-27
 73
-3
  0
VERTEX
  8
Layer0
10
0.0
 20
 0.0
 30
0.0
 70
     128
 71
-3
 72
-27
 73
-1
  0
VERTEX
  8
Layer0
10
0.0
 20
 0.0
 30
0.0
 70
     128
 71
-135
 72
-129
 73
141
  0
VERTEX
  8
Layer0
10
0.0
 20
 0.0
 30
0.0
 70
     128
 71
-141
 72
-129
 73
142
  0
VERTEX
  8
Layer0
10
0.0
 20
 0.0
 30
0.0
 70
     128
 71
-142
 72
-129
 73
143
  0
VERTEX
  8
Layer0
10
0.0
 20
 0.0
 30
0.0
 70
     128
 71
-143
 72
-129
 73
144
  0
VERTEX
  8
Layer0
10
0.0
 20
 0.0
 30
0.0
 70
     128
 71
-144
 72
-129
 73
145
  0
VERTEX
  8
Layer0
10
0.0
 20
 0.0
 30
0.0
 70
     128
 71
-145
 72
-129
 73
146
  0
VERTEX
  8
Layer0
10
0.0
 20
 0.0
 30
0.0
 70
     128
 71
-146
 72
-129
 73
50
  0
VERTEX
  8
Layer0
10
0.0
 20
 0.0
 30
0.0
 70
     128
 71
-50
 72
129
 73
-147
  0
VERTEX
  8
Layer0
10
0.0
 20
 0.0
 30
0.0
 70
     128
 71
-148
 72
-149
 73
150
  0
VERTEX
  8
Layer0
10
0.0
 20
 0.0
 30
0.0
 70
     128
 71
-149
 72
-148
 73
151
  0
VERTEX
  8
Layer0
10
0.0
 20
 0.0
 30
0.0
 70
     128
 71
-151
 72
-148
 73
152
  0
VERTEX
  8
Layer0
10
0.0
 20
 0.0
 30
0.0
 70
     128
 71
-152
 72
-148
 73
153
  0
VERTEX
  8
Layer0
10
0.0
 20
 0.0
 30
0.0
 70
     128
 71
-153
 72
-148
 73
154
  0
VERTEX
  8
Layer0
10
0.0
 20
 0.0
 30
0.0
 70
     128
 71
-154
 72
-148
 73
155
  0
VERTEX
  8
Layer0
10
0.0
 20
 0.0
 30
0.0
 70
     128
 71
-155
 72
-148
 73
156
  0
VERTEX
  8
Layer0
10
0.0
 20
 0.0
 30
0.0
 70
     128
 71
-156
 72
-148
 73
157
  0
VERTEX
  8
Layer0
10
0.0
 20
 0.0
 30
0.0
 70
     128
 71
-157
 72
-148
 73
158
  0
VERTEX
  8
Layer0
10
0.0
 20
 0.0
 30
0.0
 70
     128
 71
-158
 72
-148
 73
159
  0
VERTEX
  8
Layer0
10
0.0
 20
 0.0
 30
0.0
 70
     128
 71
-159
 72
-148
 73
160
  0
VERTEX
  8
Layer0
10
0.0
 20
 0.0
 30
0.0
 70
     128
 71
-160
 72
-148
 73
161
  0
VERTEX
  8
Layer0
10
0.0
 20
 0.0
 30
0.0
 70
     128
 71
-161
 72
-148
 73
162
  0
VERTEX
  8
Layer0
10
0.0
 20
 0.0
 30
0.0
 70
     128
 71
-162
 72
-148
 73
-163
  0
VERTEX
  8
Layer0
10
0.0
 20
 0.0
 30
0.0
 70
     128
 71
-163
 72
-148
 73
-3
  0
VERTEX
  8
Layer0
10
0.0
 20
 0.0
 30
0.0
 70
     128
 71
-163
 72
3
 73
-164
  0
VERTEX
  8
Layer0
10
0.0
 20
 0.0
 30
0.0
 70
     128
 71
-163
 72
164
 73
-165
  0
VERTEX
  8
Layer0
10
0.0
 20
 0.0
 30
0.0
 70
     128
 71
-163
 72
165
 73
-166
  0
VERTEX
  8
Layer0
10
0.0
 20
 0.0
 30
0.0
 70
     128
 71
-163
 72
166
 73
-167
  0
VERTEX
  8
Layer0
10
0.0
 20
 0.0
 30
0.0
 70
     128
 71
-163
 72
167
 73
-168
  0
VERTEX
  8
Layer0
10
0.0
 20
 0.0
 30
0.0
 70
     128
 71
-163
 72
-168
 73
147
  0
VERTEX
  8
Layer0
10
0.0
 20
 0.0
 30
0.0
 70
     128
 71
-3
 72
148
 73
-169
  0
VERTEX
  8
Layer0
10
0.0
 20
 0.0
 30
0.0
 70
     128
 71
-3
 72
169
 73
-170
  0
VERTEX
  8
Layer0
10
0.0
 20
 0.0
 30
0.0
 70
     128
 71
-3
 72
-170
 73
-171
  0
VERTEX
  8
Layer0
10
0.0
 20
 0.0
 30
0.0
 70
     128
 71
-3
 72
171
 73
-172
  0
VERTEX
  8
Layer0
10
0.0
 20
 0.0
 30
0.0
 70
     128
 71
-3
 72
172
 73
-173
  0
VERTEX
  8
Layer0
10
0.0
 20
 0.0
 30
0.0
 70
     128
 71
-3
 72
173
 73
-174
  0
VERTEX
  8
Layer0
10
0.0
 20
 0.0
 30
0.0
 70
     128
 71
-3
 72
174
 73
-175
  0
VERTEX
  8
Layer0
10
0.0
 20
 0.0
 30
0.0
 70
     128
 71
-3
 72
175
 73
-176
  0
VERTEX
  8
Layer0
10
0.0
 20
 0.0
 30
0.0
 70
     128
 71
-3
 72
176
 73
-177
  0
VERTEX
  8
Layer0
10
0.0
 20
 0.0
 30
0.0
 70
     128
 71
-3
 72
-177
 73
-139
  0
VERTEX
  8
Layer0
10
0.0
 20
 0.0
 30
0.0
 70
     128
 71
-147
 72
168
 73
-178
  0
VERTEX
  8
Layer0
10
0.0
 20
 0.0
 30
0.0
 70
     128
 71
-147
 72
178
 73
-179
  0
VERTEX
  8
Layer0
10
0.0
 20
 0.0
 30
0.0
 70
     128
 71
-147
 72
179
 73
-180
  0
VERTEX
  8
Layer0
10
0.0
 20
 0.0
 30
0.0
 70
     128
 71
-147
 72
180
 73
-181
  0
VERTEX
  8
Layer0
10
0.0
 20
 0.0
 30
0.0
 70
     128
 71
-147
 72
181
 73
-182
  0
VERTEX
  8
Layer0
10
0.0
 20
 0.0
 30
0.0
 70
     128
 71
-147
 72
182
 73
-183
  0
VERTEX
  8
Layer0
10
0.0
 20
 0.0
 30
0.0
 70
     128
 71
-147
 72
183
 73
-25
  0
VERTEX
  8
Layer0
10
0.0
 20
 0.0
 30
0.0
 70
     128
 71
-147
 72
-25
 73
-26
  0
VERTEX
  8
Layer0
10
0.0
 20
 0.0
 30
0.0
 70
     128
 71
-147
 72
-26
 73
-50
  0
VERTEX
  8
Layer0
10
0.0
 20
 0.0
 30
0.0
 70
     128
 71
-184
 72
185
 73
-186
  0
VERTEX
  8
Layer0
10
0.0
 20
 0.0
 30
0.0
 70
     128
 71
-185
 72
184
 73
-187
  0
VERTEX
  8
Layer0
10
0.0
 20
 0.0
 30
0.0
 70
     128
 71
-185
 72
-187
 73
188
  0
VERTEX
  8
Layer0
10
0.0
 20
 0.0
 30
0.0
 70
     128
 71
-188
 72
187
 73
-189
  0
VERTEX
  8
Layer0
10
0.0
 20
 0.0
 30
0.0
 70
     128
 71
-188
 72
189
 73
-190
  0
VERTEX
  8
Layer0
10
0.0
 20
 0.0
 30
0.0
 70
     128
 71
-188
 72
190
 73
-191
  0
VERTEX
  8
Layer0
10
0.0
 20
 0.0
 30
0.0
 70
     128
 71
-188
 72
191
 73
-192
  0
VERTEX
  8
Layer0
10
0.0
 20
 0.0
 30
0.0
 70
     128
 71
-188
 72
192
 73
-193
  0
VERTEX
  8
Layer0
10
0.0
 20
 0.0
 30
0.0
 70
     128
 71
-188
 72
193
 73
-194
  0
VERTEX
  8
Layer0
10
0.0
 20
 0.0
 30
0.0
 70
     128
 71
-188
 72
-194
 73
-195
  0
VERTEX
  8
Layer0
10
0.0
 20
 0.0
 30
0.0
 70
     128
 71
-188
 72
195
 73
-196
  0
VERTEX
  8
Layer0
10
0.0
 20
 0.0
 30
0.0
 70
     128
 71
-188
 72
196
 73
-197
  0
VERTEX
  8
Layer0
10
0.0
 20
 0.0
 30
0.0
 70
     128
 71
-188
 72
197
 73
-198
  0
VERTEX
  8
Layer0
10
0.0
 20
 0.0
 30
0.0
 70
     128
 71
-188
 72
-198
 73
199
  0
VERTEX
  8
Layer0
10
0.0
 20
 0.0
 30
0.0
 70
     128
 71
-199
 72
198
 73
-200
  0
VERTEX
  8
Layer0
10
0.0
 20
 0.0
 30
0.0
 70
     128
 71
-199
 72
200
 73
-201
  0
VERTEX
  8
Layer0
10
0.0
 20
 0.0
 30
0.0
 70
     128
 71
-199
 72
201
 73
-202
  0
VERTEX
  8
Layer0
10
0.0
 20
 0.0
 30
0.0
 70
     128
 71
-199
 72
202
 73
-203
  0
VERTEX
  8
Layer0
10
0.0
 20
 0.0
 30
0.0
 70
     128
 71
-199
 72
203
 73
-204
  0
VERTEX
  8
Layer0
10
0.0
 20
 0.0
 30
0.0
 70
     128
 71
-199
 72
204
 73
-205
  0
VERTEX
  8
Layer0
10
0.0
 20
 0.0
 30
0.0
 70
     128
 71
-199
 72
205
 73
-206
  0
VERTEX
  8
Layer0
10
0.0
 20
 0.0
 30
0.0
 70
     128
 71
-199
 72
206
 73
-207
  0
VERTEX
  8
Layer0
10
0.0
 20
 0.0
 30
0.0
 70
     128
 71
-199
 72
-207
 73
-208
  0
VERTEX
  8
Layer0
10
0.0
 20
 0.0
 30
0.0
 70
     128
 71
-199
 72
-208
 73
170
  0
VERTEX
  8
Layer0
10
0.0
 20
 0.0
 30
0.0
 70
     128
 71
-170
 72
208
 73
-209
  0
VERTEX
  8
Layer0
10
0.0
 20
 0.0
 30
0.0
 70
     128
 71
-170
 72
209
 73
-210
  0
VERTEX
  8
Layer0
10
0.0
 20
 0.0
 30
0.0
 70
     128
 71
-170
 72
210
 73
-211
  0
VERTEX
  8
Layer0
10
0.0
 20
 0.0
 30
0.0
 70
     128
 71
-170
 72
211
 73
-212
  0
VERTEX
  8
Layer0
10
0.0
 20
 0.0
 30
0.0
 70
     128
 71
-170
 72
212
 73
-213
  0
VERTEX
  8
Layer0
10
0.0
 20
 0.0
 30
0.0
 70
     128
 71
-170
 72
213
 73
-171
  0
VERTEX
  8
Layer0
10
0.0
 20
 0.0
 30
0.0
 70
     128
 71
-207
 72
214
 73
-208
  0
VERTEX
  8
Layer0
10
0.0
 20
 0.0
 30
0.0
 70
     128
 71
-214
 72
207
 73
-215
  0
VERTEX
  8
Layer0
10
0.0
 20
 0.0
 30
0.0
 70
     128
 71
-214
 72
-215
 73
216
  0
VERTEX
  8
Layer0
10
0.0
 20
 0.0
 30
0.0
 70
     128
 71
-216
 72
-215
 73
217
  0
VERTEX
  8
Layer0
10
0.0
 20
 0.0
 30
0.0
 70
     128
 71
-217
 72
-215
 73
218
  0
VERTEX
  8
Layer0
10
0.0
 20
 0.0
 30
0.0
 70
     128
 71
-218
 72
-215
 73
219
  0
VERTEX
  8
Layer0
10
0.0
 20
 0.0
 30
0.0
 70
     128
 71
-219
 72
-215
 73
220
  0
VERTEX
  8
Layer0
10
0.0
 20
 0.0
 30
0.0
 70
     128
 71
-220
 72
-215
 73
221
  0
VERTEX
  8
Layer0
10
0.0
 20
 0.0
 30
0.0
 70
     128
 71
-221
 72
-215
 73
222
  0
VERTEX
  8
Layer0
10
0.0
 20
 0.0
 30
0.0
 70
     128
 71
-222
 72
-215
 73
223
  0
VERTEX
  8
Layer0
10
0.0
 20
 0.0
 30
0.0
 70
     128
 71
-223
 72
215
 73
-139
  0
VERTEX
  8
Layer0
10
0.0
 20
 0.0
 30
0.0
 70
     128
 71
-223
 72
-139
 73
224
  0
VERTEX
  8
Layer0
10
0.0
 20
 0.0
 30
0.0
 70
     128
 71
-224
 72
-139
 73
225
  0
VERTEX
  8
Layer0
10
0.0
 20
 0.0
 30
0.0
 70
     128
 71
-225
 72
-139
 73
177
  0
VERTEX
  8
Layer0
10
0.0
 20
 0.0
 30
0.0
 70
     128
 71
-120
 72
-226
 73
227
  0
VERTEX
  8
Layer0
10
0.0
 20
 0.0
 30
0.0
 70
     128
 71
-226
 72
-120
 73
121
  0
VERTEX
  8
Layer0
10
0.0
 20
 0.0
 30
0.0
 70
     128
 71
-227
 72
226
 73
-228
  0
VERTEX
  8
Layer0
10
0.0
 20
 0.0
 30
0.0
 70
     128
 71
-227
 72
228
 73
-229
  0
VERTEX
  8
Layer0
10
0.0
 20
 0.0
 30
0.0
 70
     128
 71
-227
 72
229
 73
-230
  0
VERTEX
  8
Layer0
10
0.0
 20
 0.0
 30
0.0
 70
     128
 71
-227
 72
230
 73
-231
  0
VERTEX
  8
Layer0
10
0.0
 20
 0.0
 30
0.0
 70
     128
 71
-227
 72
231
 73
-232
  0
VERTEX
  8
Layer0
10
0.0
 20
 0.0
 30
0.0
 70
     128
 71
-227
 72
232
 73
-233
  0
VERTEX
  8
Layer0
10
0.0
 20
 0.0
 30
0.0
 70
     128
 71
-227
 72
233
 73
-234
  0
VERTEX
  8
Layer0
10
0.0
 20
 0.0
 30
0.0
 70
     128
 71
-227
 72
234
 73
-235
  0
VERTEX
  8
Layer0
10
0.0
 20
 0.0
 30
0.0
 70
     128
 71
-227
 72
-235
 73
139
  0
VERTEX
  8
Layer0
10
0.0
 20
 0.0
 30
0.0
 70
     128
 71
-139
 72
235
 73
-236
  0
VERTEX
  8
Layer0
10
0.0
 20
 0.0
 30
0.0
 70
     128
 71
-139
 72
236
 73
-237
  0
VERTEX
  8
Layer0
10
0.0
 20
 0.0
 30
0.0
 70
     128
 71
-139
 72
237
 73
-134
  0
VERTEX
  8
Layer0
10
0.0
 20
 0.0
 30
0.0
 70
     128
 71
-238
 72
-239
 73
86
  0
VERTEX
  8
Layer0
10
0.0
 20
 0.0
 30
0.0
 70
     128
 71
-239
 72
-238
 73
240
  0
VERTEX
  8
Layer0
10
0.0
 20
 0.0
 30
0.0
 70
     128
 71
-240
 72
-238
 73
241
  0
VERTEX
  8
Layer0
10
0.0
 20
 0.0
 30
0.0
 70
     128
 71
-241
 72
-238
 73
242
  0
VERTEX
  8
Layer0
10
0.0
 20
 0.0
 30
0.0
 70
     128
 71
-242
 72
-238
 73
243
  0
VERTEX
  8
Layer0
10
0.0
 20
 0.0
 30
0.0
 70
     128
 71
-243
 72
238
 73
-195
  0
VERTEX
  8
Layer0
10
0.0
 20
 0.0
 30
0.0
 70
     128
 71
-243
 72
-195
 73
244
  0
VERTEX
  8
Layer0
10
0.0
 20
 0.0
 30
0.0
 70
     128
 71
-244
 72
-195
 73
245
  0
VERTEX
  8
Layer0
10
0.0
 20
 0.0
 30
0.0
 70
     128
 71
-245
 72
-195
 73
246
  0
VERTEX
  8
Layer0
10
0.0
 20
 0.0
 30
0.0
 70
     128
 71
-246
 72
-195
 73
247
  0
VERTEX
  8
Layer0
10
0.0
 20
 0.0
 30
0.0
 70
     128
 71
-247
 72
-195
 73
248
  0
VERTEX
  8
Layer0
10
0.0
 20
 0.0
 30
0.0
 70
     128
 71
-248
 72
-195
 73
249
  0
VERTEX
  8
Layer0
10
0.0
 20
 0.0
 30
0.0
 70
     128
 71
-249
 72
-195
 73
250
  0
VERTEX
  8
Layer0
10
0.0
 20
 0.0
 30
0.0
 70
     128
 71
-250
 72
-195
 73
194
  0
VERTEX
  8
Layer0
10
0.0
 20
 0.0
 30
0.0
 70
     128
 71
-85
 72
251
 73
-86
  0
VERTEX
  8
Layer0
10
0.0
 20
 0.0
 30
0.0
 70
     128
 71
-251
 72
85
 73
-252
  0
VERTEX
  8
Layer0
10
0.0
 20
 0.0
 30
0.0
 70
     128
 71
-251
 72
252
 73
-253
  0
VERTEX
  8
Layer0
10
0.0
 20
 0.0
 30
0.0
 70
     128
 71
-251
 72
253
 73
-254
  0
VERTEX
  8
Layer0
10
0.0
 20
 0.0
 30
0.0
 70
     128
 71
-251
 72
254
 73
-255
  0
VERTEX
  8
Layer0
10
0.0
 20
 0.0
 30
0.0
 70
     128
 71
-251
 72
-255
 73
96
  0
VERTEX
  8
Layer0
10
0.0
 20
 0.0
 30
0.0
 70
     128
 71
-96
 72
255
 73
-256
  0
VERTEX
  8
Layer0
10
0.0
 20
 0.0
 30
0.0
 70
     128
 71
-96
 72
256
 73
-257
  0
VERTEX
  8
Layer0
10
0.0
 20
 0.0
 30
0.0
 70
     128
 71
-96
 72
257
 73
-258
  0
VERTEX
  8
Layer0
10
0.0
 20
 0.0
 30
0.0
 70
     128
 71
-96
 72
258
 73
-259
  0
VERTEX
  8
Layer0
10
0.0
 20
 0.0
 30
0.0
 70
     128
 71
-96
 72
259
 73
-260
  0
VERTEX
  8
Layer0
10
0.0
 20
 0.0
 30
0.0
 70
     128
 71
-96
 72
260
 73
-261
  0
VERTEX
  8
Layer0
10
0.0
 20
 0.0
 30
0.0
 70
     128
 71
-96
 72
261
 73
-262
  0
VERTEX
  8
Layer0
10
0.0
 20
 0.0
 30
0.0
 70
     128
 71
-96
 72
262
 73
-94
  0
VERTEX
  8
Layer0
10
0.0
 20
 0.0
 30
0.0
 70
     128
 71
-263
 72
264
 73
-265
  0
VERTEX
  8
Layer0
10
0.0
 20
 0.0
 30
0.0
 70
     128
 71
-264
 72
263
 73
-266
  0
VERTEX
  8
Layer0
10
0.0
 20
 0.0
 30
0.0
 70
     128
 71
-264
 72
-266
 73
267
  0
VERTEX
  8
Layer0
10
0.0
 20
 0.0
 30
0.0
 70
     128
 71
-267
 72
266
 73
-268
  0
VERTEX
  8
Layer0
10
0.0
 20
 0.0
 30
0.0
 70
     128
 71
-267
 72
-268
 73
269
  0
VERTEX
  8
Layer0
10
0.0
 20
 0.0
 30
0.0
 70
     128
 71
-269
 72
268
 73
-270
  0
VERTEX
  8
Layer0
10
0.0
 20
 0.0
 30
0.0
 70
     128
 71
-269
 72
-270
 73
271
  0
VERTEX
  8
Layer0
10
0.0
 20
 0.0
 30
0.0
 70
     128
 71
-271
 72
270
 73
-272
  0
VERTEX
  8
Layer0
10
0.0
 20
 0.0
 30
0.0
 70
     128
 71
-271
 72
-272
 73
273
  0
VERTEX
  8
Layer0
10
0.0
 20
 0.0
 30
0.0
 70
     128
 71
-273
 72
272
 73
-274
  0
VERTEX
  8
Layer0
10
0.0
 20
 0.0
 30
0.0
 70
     128
 71
-273
 72
-274
 73
275
  0
VERTEX
  8
Layer0
10
0.0
 20
 0.0
 30
0.0
 70
     128
 71
-275
 72
274
 73
-276
  0
VERTEX
  8
Layer0
10
0.0
 20
 0.0
 30
0.0
 70
     128
 71
-275
 72
-276
 73
277
  0
VERTEX
  8
Layer0
10
0.0
 20
 0.0
 30
0.0
 70
     128
 71
-277
 72
276
 73
-278
  0
VERTEX
  8
Layer0
10
0.0
 20
 0.0
 30
0.0
 70
     128
 71
-277
 72
-278
 73
279
  0
VERTEX
  8
Layer0
10
0.0
 20
 0.0
 30
0.0
 70
     128
 71
-279
 72
278
 73
-280
  0
VERTEX
  8
Layer0
10
0.0
 20
 0.0
 30
0.0
 70
     128
 71
-279
 72
-280
 73
281
  0
VERTEX
  8
Layer0
10
0.0
 20
 0.0
 30
0.0
 70
     128
 71
-281
 72
280
 73
-282
  0
VERTEX
  8
Layer0
10
0.0
 20
 0.0
 30
0.0
 70
     128
 71
-281
 72
-282
 73
283
  0
VERTEX
  8
Layer0
10
0.0
 20
 0.0
 30
0.0
 70
     128
 71
-283
 72
282
 73
-284
  0
VERTEX
  8
Layer0
10
0.0
 20
 0.0
 30
0.0
 70
     128
 71
-283
 72
-284
 73
285
  0
VERTEX
  8
Layer0
10
0.0
 20
 0.0
 30
0.0
 70
     128
 71
-285
 72
284
 73
-286
  0
VERTEX
  8
Layer0
10
0.0
 20
 0.0
 30
0.0
 70
     128
 71
-285
 72
-286
 73
287
  0
VERTEX
  8
Layer0
10
0.0
 20
 0.0
 30
0.0
 70
     128
 71
-287
 72
286
 73
-288
  0
VERTEX
  8
Layer0
10
0.0
 20
 0.0
 30
0.0
 70
     128
 71
-289
 72
-290
 73
291
  0
VERTEX
  8
Layer0
10
0.0
 20
 0.0
 30
0.0
 70
     128
 71
-290
 72
-289
 73
292
  0
VERTEX
  8
Layer0
10
0.0
 20
 0.0
 30
0.0
 70
     128
 71
-292
 72
-289
 73
265
  0
VERTEX
  8
Layer0
10
0.0
 20
 0.0
 30
0.0
 70
     128
 71
-265
 72
289
 73
-293
  0
VERTEX
  8
Layer0
10
0.0
 20
 0.0
 30
0.0
 70
     128
 71
-291
 72
290
 73
-294
  0
VERTEX
  8
Layer0
10
0.0
 20
 0.0
 30
0.0
 70
     128
 71
-291
 72
294
 73
-295
  0
VERTEX
  8
Layer0
10
0.0
 20
 0.0
 30
0.0
 70
     128
 71
-291
 72
295
 73
-296
  0
VERTEX
  8
Layer0
10
0.0
 20
 0.0
 30
0.0
 70
     128
 71
-291
 72
296
 73
-297
  0
VERTEX
  8
Layer0
10
0.0
 20
 0.0
 30
0.0
 70
     128
 71
-291
 72
297
 73
-298
  0
VERTEX
  8
Layer0
10
0.0
 20
 0.0
 30
0.0
 70
     128
 71
-291
 72
298
 73
-299
  0
VERTEX
  8
Layer0
10
0.0
 20
 0.0
 30
0.0
 70
     128
 71
-291
 72
299
 73
-300
  0
VERTEX
  8
Layer0
10
0.0
 20
 0.0
 30
0.0
 70
     128
 71
-291
 72
300
 73
-301
  0
VERTEX
  8
Layer0
10
0.0
 20
 0.0
 30
0.0
 70
     128
 71
-291
 72
301
 73
-302
  0
VERTEX
  8
Layer0
10
0.0
 20
 0.0
 30
0.0
 70
     128
 71
-291
 72
302
 73
-287
  0
VERTEX
  8
Layer0
10
0.0
 20
 0.0
 30
0.0
 70
     128
 71
-291
 72
-287
 73
-288
  0
VERTEX
  8
Layer0
10
0.0
 20
 0.0
 30
0.0
 70
     128
 71
-303
 72
304
 73
-263
  0
VERTEX
  8
Layer0
10
0.0
 20
 0.0
 30
0.0
 70
     128
 71
-304
 72
303
 73
-305
  0
VERTEX
  8
Layer0
10
0.0
 20
 0.0
 30
0.0
 70
     128
 71
-304
 72
305
 73
-306
  0
VERTEX
  8
Layer0
10
0.0
 20
 0.0
 30
0.0
 70
     128
 71
-304
 72
-306
 73
307
  0
VERTEX
  8
Layer0
10
0.0
 20
 0.0
 30
0.0
 70
     128
 71
-307
 72
306
 73
-308
  0
VERTEX
  8
Layer0
10
0.0
 20
 0.0
 30
0.0
 70
     128
 71
-307
 72
-308
 73
309
  0
VERTEX
  8
Layer0
10
0.0
 20
 0.0
 30
0.0
 70
     128
 71
-309
 72
308
 73
-310
  0
VERTEX
  8
Layer0
10
0.0
 20
 0.0
 30
0.0
 70
     128
 71
-309
 72
-310
 73
311
  0
VERTEX
  8
Layer0
10
0.0
 20
 0.0
 30
0.0
 70
     128
 71
-311
 72
310
 73
-312
  0
VERTEX
  8
Layer0
10
0.0
 20
 0.0
 30
0.0
 70
     128
 71
-311
 72
-312
 73
313
  0
VERTEX
  8
Layer0
10
0.0
 20
 0.0
 30
0.0
 70
     128
 71
-313
 72
312
 73
-314
  0
VERTEX
  8
Layer0
10
0.0
 20
 0.0
 30
0.0
 70
     128
 71
-313
 72
-314
 73
315
  0
VERTEX
  8
Layer0
10
0.0
 20
 0.0
 30
0.0
 70
     128
 71
-315
 72
314
 73
-316
  0
VERTEX
  8
Layer0
10
0.0
 20
 0.0
 30
0.0
 70
     128
 71
-315
 72
-316
 73
317
  0
VERTEX
  8
Layer0
10
0.0
 20
 0.0
 30
0.0
 70
     128
 71
-317
 72
316
 73
-318
  0
VERTEX
  8
Layer0
10
0.0
 20
 0.0
 30
0.0
 70
     128
 71
-317
 72
318
 73
-319
  0
VERTEX
  8
Layer0
10
0.0
 20
 0.0
 30
0.0
 70
     128
 71
-317
 72
-319
 73
320
  0
VERTEX
  8
Layer0
10
0.0
 20
 0.0
 30
0.0
 70
     128
 71
-320
 72
319
 73
-321
  0
VERTEX
  8
Layer0
10
0.0
 20
 0.0
 30
0.0
 70
     128
 71
-320
 72
-321
 73
322
  0
VERTEX
  8
Layer0
10
0.0
 20
 0.0
 30
0.0
 70
     128
 71
-322
 72
321
 73
-323
  0
VERTEX
  8
Layer0
10
0.0
 20
 0.0
 30
0.0
 70
     128
 71
-322
 72
-323
 73
324
  0
VERTEX
  8
Layer0
10
0.0
 20
 0.0
 30
0.0
 70
     128
 71
-324
 72
323
 73
-325
  0
VERTEX
  8
Layer0
10
0.0
 20
 0.0
 30
0.0
 70
     128
 71
-324
 72
-325
 73
326
  0
VERTEX
  8
Layer0
10
0.0
 20
 0.0
 30
0.0
 70
     128
 71
-326
 72
325
 73
-327
  0
VERTEX
  8
Layer0
10
0.0
 20
 0.0
 30
0.0
 70
     128
 71
-326
 72
-327
 73
288
  0
VERTEX
  8
Layer0
10
0.0
 20
 0.0
 30
0.0
 70
     128
 71
-108
 72
-328
 73
119
  0
VERTEX
  8
Layer0
10
0.0
 20
 0.0
 30
0.0
 70
     128
 71
-328
 72
-108
 73
107
  0
VERTEX
  8
Layer0
10
0.0
 20
 0.0
 30
0.0
 70
     128
 71
-119
 72
328
 73
-329
  0
VERTEX
  8
Layer0
10
0.0
 20
 0.0
 30
0.0
 70
     128
 71
-119
 72
329
 73
-330
  0
VERTEX
  8
Layer0
10
0.0
 20
 0.0
 30
0.0
 70
     128
 71
-119
 72
330
 73
-331
  0
VERTEX
  8
Layer0
10
0.0
 20
 0.0
 30
0.0
 70
     128
 71
-119
 72
331
 73
-332
  0
VERTEX
  8
Layer0
10
0.0
 20
 0.0
 30
0.0
 70
     128
 71
-119
 72
332
 73
-333
  0
VERTEX
  8
Layer0
10
0.0
 20
 0.0
 30
0.0
 70
     128
 71
-119
 72
333
 73
-334
  0
VERTEX
  8
Layer0
10
0.0
 20
 0.0
 30
0.0
 70
     128
 71
-119
 72
334
 73
-335
  0
VERTEX
  8
Layer0
10
0.0
 20
 0.0
 30
0.0
 70
     128
 71
-119
 72
335
 73
-336
  0
VERTEX
  8
Layer0
10
0.0
 20
 0.0
 30
0.0
 70
     128
 71
-119
 72
336
 73
-337
  0
VERTEX
  8
Layer0
10
0.0
 20
 0.0
 30
0.0
 70
     128
 71
-119
 72
337
 73
-338
  0
VERTEX
  8
Layer0
10
0.0
 20
 0.0
 30
0.0
 70
     128
 71
-119
 72
338
 73
-118
  0
VERTEX
  8
Layer0
10
0.0
 20
 0.0
 30
0.0
 70
     128
 71
-293
 72
-263
 73
-265
  0
VERTEX
  8
Layer0
10
0.0
 20
 0.0
 30
0.0
 70
     128
 71
-263
 72
-293
 73
-303
  0
VERTEX
  8
Layer0
10
0.0
 20
 0.0
 30
0.0
 70
     128
 71
-303
 72
-293
 73
339
  0
VERTEX
  8
Layer0
10
0.0
 20
 0.0
 30
0.0
 70
     128
 71
-339
 72
-293
 73
340
  0
VERTEX
  8
Layer0
10
0.0
 20
 0.0
 30
0.0
 70
     128
 71
-340
 72
293
 73
-51
  0
VERTEX
  8
Layer0
10
0.0
 20
 0.0
 30
0.0
 70
     128
 71
-340
 72
-51
 73
341
  0
VERTEX
  8
Layer0
10
0.0
 20
 0.0
 30
0.0
 70
     128
 71
-341
 72
-51
 73
342
  0
VERTEX
  8
Layer0
10
0.0
 20
 0.0
 30
0.0
 70
     128
 71
-342
 72
-51
 73
343
  0
VERTEX
  8
Layer0
10
0.0
 20
 0.0
 30
0.0
 70
     128
 71
-343
 72
-51
 73
344
  0
VERTEX
  8
Layer0
10
0.0
 20
 0.0
 30
0.0
 70
     128
 71
-344
 72
-51
 73
345
  0
VERTEX
  8
Layer0
10
0.0
 20
 0.0
 30
0.0
 70
     128
 71
-345
 72
-51
 73
346
  0
VERTEX
  8
Layer0
10
0.0
 20
 0.0
 30
0.0
 70
     128
 71
-346
 72
-51
 73
347
  0
VERTEX
  8
Layer0
10
0.0
 20
 0.0
 30
0.0
 70
     128
 71
-347
 72
-51
 73
348
  0
VERTEX
  8
Layer0
10
0.0
 20
 0.0
 30
0.0
 70
     128
 71
-348
 72
-51
 73
349
  0
VERTEX
  8
Layer0
10
0.0
 20
 0.0
 30
0.0
 70
     128
 71
-349
 72
-51
 73
350
  0
VERTEX
  8
Layer0
10
0.0
 20
 0.0
 30
0.0
 70
     128
 71
-350
 72
-51
 73
327
  0
VERTEX
  8
Layer0
10
0.0
 20
 0.0
 30
0.0
 70
     128
 71
-327
 72
-51
 73
-288
  0
VERTEX
  8
Layer0
10
0.0
 20
 0.0
 30
0.0
 70
     128
 71
-288
 72
-51
 73
-291
  0
VERTEX
  8
Layer0
10
0.0
 20
 0.0
 30
0.0
 70
     128
 71
-291
 72
-51
 73
-53
  0
VERTEX
  8
Layer0
10
0.0
 20
 0.0
 30
0.0
 70
     128
 71
-291
 72
53
 73
-351
  0
VERTEX
  8
Layer0
10
0.0
 20
 0.0
 30
0.0
 70
     128
 71
-291
 72
351
 73
-352
  0
VERTEX
  8
Layer0
10
0.0
 20
 0.0
 30
0.0
 70
     128
 71
-291
 72
352
 73
-353
  0
VERTEX
  8
Layer0
10
0.0
 20
 0.0
 30
0.0
 70
     128
 71
-291
 72
353
 73
-354
  0
VERTEX
  8
Layer0
10
0.0
 20
 0.0
 30
0.0
 70
     128
 71
-291
 72
354
 73
-355
  0
VERTEX
  8
Layer0
10
0.0
 20
 0.0
 30
0.0
 70
     128
 71
-291
 72
355
 73
-356
  0
VERTEX
  8
Layer0
10
0.0
 20
 0.0
 30
0.0
 70
     128
 71
-291
 72
-356
 73
163
  0
VERTEX
  8
Layer0
10
0.0
 20
 0.0
 30
0.0
 70
     128
 71
-163
 72
356
 73
-357
  0
VERTEX
  8
Layer0
10
0.0
 20
 0.0
 30
0.0
 70
     128
 71
-163
 72
357
 73
-358
  0
VERTEX
  8
Layer0
10
0.0
 20
 0.0
 30
0.0
 70
     128
 71
-163
 72
358
 73
-359
  0
VERTEX
  8
Layer0
10
0.0
 20
 0.0
 30
0.0
 70
     128
 71
-163
 72
359
 73
-360
  0
VERTEX
  8
Layer0
10
0.0
 20
 0.0
 30
0.0
 70
     128
 71
-163
 72
360
 73
-361
  0
VERTEX
  8
Layer0
10
0.0
 20
 0.0
 30
0.0
 70
     128
 71
-163
 72
361
 73
-362
  0
VERTEX
  8
Layer0
10
0.0
 20
 0.0
 30
0.0
 70
     128
 71
-163
 72
-362
 73
-363
  0
VERTEX
  8
Layer0
10
0.0
 20
 0.0
 30
0.0
 70
     128
 71
-363
 72
-362
 73
364
  0
VERTEX
  8
Layer0
10
0.0
 20
 0.0
 30
0.0
 70
     128
 71
-364
 72
-362
 73
365
  0
VERTEX
  8
Layer0
10
0.0
 20
 0.0
 30
0.0
 70
     128
 71
-365
 72
-362
 73
366
  0
VERTEX
  8
Layer0
10
0.0
 20
 0.0
 30
0.0
 70
     128
 71
-366
 72
-362
 73
367
  0
VERTEX
  8
Layer0
10
0.0
 20
 0.0
 30
0.0
 70
     128
 71
-367
 72
-362
 73
368
  0
VERTEX
  8
Layer0
10
0.0
 20
 0.0
 30
0.0
 70
     128
 71
-368
 72
-362
 73
-66
  0
VERTEX
  8
Layer0
10
0.0
 20
 0.0
 30
0.0
 70
     128
 71
-368
 72
-66
 73
74
  0
VERTEX
  8
Layer0
10
0.0
 20
 0.0
 30
0.0
 70
     128
 71
-163
 72
363
 73
-369
  0
VERTEX
  8
Layer0
10
0.0
 20
 0.0
 30
0.0
 70
     128
 71
-163
 72
369
 73
-370
  0
VERTEX
  8
Layer0
10
0.0
 20
 0.0
 30
0.0
 70
     128
 71
-163
 72
370
 73
-371
  0
VERTEX
  8
Layer0
10
0.0
 20
 0.0
 30
0.0
 70
     128
 71
-163
 72
371
 73
-372
  0
VERTEX
  8
Layer0
10
0.0
 20
 0.0
 30
0.0
 70
     128
 71
-163
 72
372
 73
-373
  0
VERTEX
  8
Layer0
10
0.0
 20
 0.0
 30
0.0
 70
     128
 71
-163
 72
373
 73
-374
  0
VERTEX
  8
Layer0
10
0.0
 20
 0.0
 30
0.0
 70
     128
 71
-163
 72
-374
 73
-375
  0
VERTEX
  8
Layer0
10
0.0
 20
 0.0
 30
0.0
 70
     128
 71
-375
 72
-374
 73
376
  0
VERTEX
  8
Layer0
10
0.0
 20
 0.0
 30
0.0
 70
     128
 71
-376
 72
-374
 73
-80
  0
VERTEX
  8
Layer0
10
0.0
 20
 0.0
 30
0.0
 70
     128
 71
-376
 72
-80
 73
-186
  0
VERTEX
  8
Layer0
10
0.0
 20
 0.0
 30
0.0
 70
     128
 71
-186
 72
-80
 73
-239
  0
VERTEX
  8
Layer0
10
0.0
 20
 0.0
 30
0.0
 70
     128
 71
-239
 72
-80
 73
-86
  0
VERTEX
  8
Layer0
10
0.0
 20
 0.0
 30
0.0
 70
     128
 71
-186
 72
239
 73
-377
  0
VERTEX
  8
Layer0
10
0.0
 20
 0.0
 30
0.0
 70
     128
 71
-186
 72
377
 73
-378
  0
VERTEX
  8
Layer0
10
0.0
 20
 0.0
 30
0.0
 70
     128
 71
-186
 72
378
 73
-379
  0
VERTEX
  8
Layer0
10
0.0
 20
 0.0
 30
0.0
 70
     128
 71
-186
 72
379
 73
-380
  0
VERTEX
  8
Layer0
10
0.0
 20
 0.0
 30
0.0
 70
     128
 71
-186
 72
380
 73
-184
  0
VERTEX
  8
Layer0
10
0.0
 20
 0.0
 30
0.0
 70
     128
 71
-376
 72
186
 73
-150
  0
VERTEX
  8
Layer0
10
0.0
 20
 0.0
 30
0.0
 70
     128
 71
-376
 72
-150
 73
149
  0
VERTEX
  8
Layer0
10
0.0
 20
 0.0
 30
0.0
 70
     128
 71
-163
 72
375
 73
-381
  0
VERTEX
  8
Layer0
10
0.0
 20
 0.0
 30
0.0
 70
     128
 71
-163
 72
381
 73
-382
  0
VERTEX
  8
Layer0
10
0.0
 20
 0.0
 30
0.0
 70
     128
 71
-163
 72
382
 73
-383
  0
VERTEX
  8
Layer0
10
0.0
 20
 0.0
 30
0.0
 70
     128
 71
-163
 72
383
 73
-384
  0
VERTEX
  8
Layer0
10
0.0
 20
 0.0
 30
0.0
 70
     128
 71
-163
 72
384
 73
-385
  0
VERTEX
  8
Layer0
10
0.0
 20
 0.0
 30
0.0
 70
     128
 71
-163
 72
385
 73
-386
  0
VERTEX
  8
Layer0
10
0.0
 20
 0.0
 30
0.0
 70
     128
 71
-163
 72
386
 73
-387
  0
VERTEX
  8
Layer0
10
0.0
 20
 0.0
 30
0.0
 70
     128
 71
-163
 72
387
 73
-388
  0
VERTEX
  8
Layer0
10
0.0
 20
 0.0
 30
0.0
 70
     128
 71
-163
 72
388
 73
-389
  0
VERTEX
  8
Layer0
10
0.0
 20
 0.0
 30
0.0
 70
     128
 71
-163
 72
389
 73
-162
  0
VERTEX
  8
Layer0
10
0.0
 20
 0.0
 30
0.0
 70
     128
 71
-52
 72
390
 73
-53
  0
VERTEX
  8
Layer0
10
0.0
 20
 0.0
 30
0.0
 70
     128
 71
-390
 72
52
 73
-391
  0
VERTEX
  8
Layer0
10
0.0
 20
 0.0
 30
0.0
 70
     128
 71
-390
 72
-391
 73
392
  0
VERTEX
  8
Layer0
10
0.0
 20
 0.0
 30
0.0
 70
     128
 71
-392
 72
391
 73
-393
  0
VERTEX
  8
Layer0
10
0.0
 20
 0.0
 30
0.0
 70
     128
 71
-392
 72
-393
 73
394
  0
VERTEX
  8
Layer0
10
0.0
 20
 0.0
 30
0.0
 70
     128
 71
-394
 72
393
 73
-395
  0
VERTEX
  8
Layer0
10
0.0
 20
 0.0
 30
0.0
 70
     128
 71
-394
 72
-395
 73
396
  0
VERTEX
  8
Layer0
10
0.0
 20
 0.0
 30
0.0
 70
     128
 71
-396
 72
395
 73
-397
  0
VERTEX
  8
Layer0
10
0.0
 20
 0.0
 30
0.0
 70
     128
 71
-396
 72
-397
 73
398
  0
VERTEX
  8
Layer0
10
0.0
 20
 0.0
 30
0.0
 70
     128
 71
-398
 72
397
 73
-399
  0
VERTEX
  8
Layer0
10
0.0
 20
 0.0
 30
0.0
 70
     128
 71
-398
 72
-399
 73
400
  0
VERTEX
  8
Layer0
10
0.0
 20
 0.0
 30
0.0
 70
     128
 71
-400
 72
399
 73
-401
  0
VERTEX
  8
Layer0
10
0.0
 20
 0.0
 30
0.0
 70
     128
 71
-400
 72
-401
 73
402
  0
VERTEX
  8
Layer0
10
0.0
 20
 0.0
 30
0.0
 70
     128
 71
-402
 72
401
 73
-403
  0
VERTEX
  8
Layer0
10
0.0
 20
 0.0
 30
0.0
 70
     128
 71
-402
 72
-403
 73
404
  0
VERTEX
  8
Layer0
10
0.0
 20
 0.0
 30
0.0
 70
     128
 71
-404
 72
403
 73
-405
  0
VERTEX
  8
Layer0
10
0.0
 20
 0.0
 30
0.0
 70
     128
 71
-404
 72
-405
 73
406
  0
VERTEX
  8
Layer0
10
0.0
 20
 0.0
 30
0.0
 70
     128
 71
-406
 72
405
 73
-407
  0
VERTEX
  8
Layer0
10
0.0
 20
 0.0
 30
0.0
 70
     128
 71
-406
 72
-407
 73
408
  0
VERTEX
  8
Layer0
10
0.0
 20
 0.0
 30
0.0
 70
     128
 71
-408
 72
407
 73
-409
  0
VERTEX
  8
Layer0
10
0.0
 20
 0.0
 30
0.0
 70
     128
 71
-408
 72
-409
 73
410
  0
VERTEX
  8
Layer0
10
0.0
 20
 0.0
 30
0.0
 70
     128
 71
-410
 72
409
 73
-411
  0
VERTEX
  8
Layer0
10
0.0
 20
 0.0
 30
0.0
 70
     128
 71
-410
 72
-411
 73
362
  0
VERTEX
  8
Layer0
10
0.0
 20
 0.0
 30
0.0
 70
     128
 71
-362
 72
411
 73
-66
  0
VERTEX
  8
Layer0
10
0.0
 20
 0.0
 30
0.0
 70
     128
 71
-73
 72
412
 73
-74
  0
VERTEX
  8
Layer0
10
0.0
 20
 0.0
 30
0.0
 70
     128
 71
-412
 72
73
 73
-413
  0
VERTEX
  8
Layer0
10
0.0
 20
 0.0
 30
0.0
 70
     128
 71
-412
 72
-413
 73
414
  0
VERTEX
  8
Layer0
10
0.0
 20
 0.0
 30
0.0
 70
     128
 71
-414
 72
413
 73
-415
  0
VERTEX
  8
Layer0
10
0.0
 20
 0.0
 30
0.0
 70
     128
 71
-414
 72
-415
 73
416
  0
VERTEX
  8
Layer0
10
0.0
 20
 0.0
 30
0.0
 70
     128
 71
-416
 72
415
 73
-417
  0
VERTEX
  8
Layer0
10
0.0
 20
 0.0
 30
0.0
 70
     128
 71
-416
 72
-417
 73
418
  0
VERTEX
  8
Layer0
10
0.0
 20
 0.0
 30
0.0
 70
     128
 71
-418
 72
417
 73
-419
  0
VERTEX
  8
Layer0
10
0.0
 20
 0.0
 30
0.0
 70
     128
 71
-418
 72
-419
 73
420
  0
VERTEX
  8
Layer0
10
0.0
 20
 0.0
 30
0.0
 70
     128
 71
-420
 72
419
 73
-421
  0
VERTEX
  8
Layer0
10
0.0
 20
 0.0
 30
0.0
 70
     128
 71
-420
 72
-421
 73
422
  0
VERTEX
  8
Layer0
10
0.0
 20
 0.0
 30
0.0
 70
     128
 71
-422
 72
421
 73
-423
  0
VERTEX
  8
Layer0
10
0.0
 20
 0.0
 30
0.0
 70
     128
 71
-422
 72
-423
 73
424
  0
VERTEX
  8
Layer0
10
0.0
 20
 0.0
 30
0.0
 70
     128
 71
-424
 72
423
 73
-425
  0
VERTEX
  8
Layer0
10
0.0
 20
 0.0
 30
0.0
 70
     128
 71
-424
 72
-425
 73
426
  0
VERTEX
  8
Layer0
10
0.0
 20
 0.0
 30
0.0
 70
     128
 71
-426
 72
425
 73
-427
  0
VERTEX
  8
Layer0
10
0.0
 20
 0.0
 30
0.0
 70
     128
 71
-426
 72
-427
 73
428
  0
VERTEX
  8
Layer0
10
0.0
 20
 0.0
 30
0.0
 70
     128
 71
-428
 72
427
 73
-429
  0
VERTEX
  8
Layer0
10
0.0
 20
 0.0
 30
0.0
 70
     128
 71
-428
 72
-429
 73
430
  0
VERTEX
  8
Layer0
10
0.0
 20
 0.0
 30
0.0
 70
     128
 71
-430
 72
429
 73
-431
  0
VERTEX
  8
Layer0
10
0.0
 20
 0.0
 30
0.0
 70
     128
 71
-430
 72
-431
 73
432
  0
VERTEX
  8
Layer0
10
0.0
 20
 0.0
 30
0.0
 70
     128
 71
-432
 72
431
 73
-433
  0
VERTEX
  8
Layer0
10
0.0
 20
 0.0
 30
0.0
 70
     128
 71
-432
 72
-433
 73
374
  0
VERTEX
  8
Layer0
10
0.0
 20
 0.0
 30
0.0
 70
     128
 71
-374
 72
433
 73
-80
  0
SEQEND
 0
ENDSEC
 0
EOF
