 0
SECTION
 2
ENTITIES
  0
POLYLINE
 8
Layer0
 66
     1
10
0.0
 20
 0.0
 30
0.0
70
    64
71
306
72
   1
  0
VERTEX
  8
Layer0
10
287.0000027597474
20
315.8645500201249
30
355.374990606634
 70
     192
  0
VERTEX
  8
Layer0
10
452.5681509033415
20
364.16464111746393
30
355.37498526060136
 70
     192
  0
VERTEX
  8
Layer0
10
452.5000025467378
20
364.68227920646007
30
355.37498524187816
 70
     192
  0
VERTEX
  8
Layer0
10
452.7679517569079
20
363.6822792112139
30
355.3749852801031
 70
     192
  0
VERTEX
  8
Layer0
10
453.0857890094502
20
363.26806565447765
30
355.37498529906304
 70
     192
  0
VERTEX
  8
Layer0
10
453.5000025774623
20
362.9502284166295
30
355.3749853161906
 70
     192
  0
VERTEX
  8
Layer0
10
453.9823644908003
20
362.7504275801758
30
355.37498533030697
 70
     192
  0
VERTEX
  8
Layer0
10
621.9822778589821
20
315.8645559621136
30
355.37499566734124
 70
     192
  0
VERTEX
  8
Layer0
10
454.500002582215
20
362.68227924193616
30
355.3749853404556
 70
     192
  0
VERTEX
  8
Layer0
10
455.0176406712104
20
362.75042759853966
30
355.3749853459426
 70
     192
  0
VERTEX
  8
Layer0
10
455.50000257746217
20
362.95022845210553
30
355.3749853463999
 70
     192
  0
VERTEX
  8
Layer0
10
455.9142161341966
20
363.26806570464856
30
355.37498534179844
 70
     192
  0
VERTEX
  8
Layer0
10
456.2320533720458
20
363.68227927265974
30
355.37498533244104
 70
     192
  0
VERTEX
  8
Layer0
10
456.43185420849983
20
364.1646411859991
30
355.3749853189717
 70
     192
  0
VERTEX
  8
Layer0
10
456.5000025467397
20
364.682279277413
30
355.37498530230266
 70
     192
  0
VERTEX
  8
Layer0
10
287.00000808475966
20
15.664550020124747
30
355.3750006439382
 70
     192
  0
VERTEX
  8
Layer0
10
453.9823658581277
20
-33.38586971951162
30
355.37499320844256
 70
     192
  0
VERTEX
  8
Layer0
10
621.9822831839957
20
15.664555962112939
30
355.375005704646
 70
     192
  0
VERTEX
  8
Layer0
10
453.500003951878
20
-33.58567057307701
30
355.37499320798486
 70
     192
  0
VERTEX
  8
Layer0
10
453.0857903951423
20
-33.90350782562076
30
355.37499321258565
 70
     192
  0
VERTEX
  8
Layer0
10
452.7679531572935
20
-34.317721393631125
30
355.3749932219427
 70
     192
  0
VERTEX
  8
Layer0
10
452.568152320841
20
-34.80008330697087
30
355.3749932354175
 70
     192
  0
VERTEX
  8
Layer0
10
452.50000398260056
20
-35.317721398384144
30
355.3749932520819
 70
     192
  0
VERTEX
  8
Layer0
10
454.50000394712407
20
-33.31772136290834
30
355.3749932139321
 70
     192
  0
VERTEX
  8
Layer0
10
455.0176420385378
20
-33.385869701147996
30
355.37499322407757
 70
     192
  0
VERTEX
  8
Layer0
10
455.50000395187794
20
-33.58567053760048
30
355.374993238195
 70
     192
  0
VERTEX
  8
Layer0
10
455.9142175198883
20
-33.903507775449086
30
355.37499325532076
 70
     192
  0
VERTEX
  8
Layer0
10
456.2320547724314
20
-34.31772133218401
30
355.37499327428065
 70
     192
  0
VERTEX
  8
Layer0
10
456.431855625999
20
-34.80008323843485
30
355.37499329378716
 70
     192
  0
VERTEX
  8
Layer0
10
456.50000398260215
20
-35.31772132743171
30
355.37499331250604
 70
     192
  0
VERTEX
  8
Layer0
10
264.14213960633447
20
-35.31772473951328
30
355.37499718209847
 70
     192
  0
VERTEX
  8
Layer0
10
264.2102865270754
20
364.1646377763321
30
355.3749891906163
 70
     192
  0
VERTEX
  8
Layer0
10
264.1421381704717
20
364.6822758653292
30
355.37498917189225
 70
     192
  0
VERTEX
  8
Layer0
10
264.21028794457453
20
-34.8000866481
30
355.374997165435
 70
     192
  0
VERTEX
  8
Layer0
10
264.4100873806411
20
363.68227587008255
30
355.3749892101177
 70
     192
  0
VERTEX
  8
Layer0
10
264.4100887810276
20
-34.31772473476044
30
355.37499715195986
 70
     192
  0
VERTEX
  8
Layer0
10
264.7279246331844
20
363.2680623133474
30
355.374989229078
 70
     192
  0
VERTEX
  8
Layer0
10
264.72792601887596
20
-33.90351116675025
30
355.37499714260315
 70
     192
  0
VERTEX
  8
Layer0
10
265.1421382011952
20
362.9502250754988
30
355.3749892462045
 70
     192
  0
VERTEX
  8
Layer0
10
265.1421395756113
20
-33.58567391420696
30
355.3749971380013
 70
     192
  0
VERTEX
  8
Layer0
10
265.6245001145343
20
362.75042423904455
30
355.3749892603219
 70
     192
  0
VERTEX
  8
Layer0
10
265.624501481862
20
-33.38587306064138
30
355.37499713846006
 70
     192
  0
VERTEX
  8
Layer0
10
266.1421382059484
20
362.68227590080534
30
355.3749892704706
 70
     192
  0
VERTEX
  8
Layer0
10
266.1421395708583
20
-33.31772470403756
30
355.3749971439496
 70
     192
  0
VERTEX
  8
Layer0
10
266.6597762949445
20
362.7504242574093
30
355.3749892759567
 70
     192
  0
VERTEX
  8
Layer0
10
266.6597776622722
20
-33.385873042278035
30
355.37499715409416
 70
     192
  0
VERTEX
  8
Layer0
10
267.0000031145115
20
295.86454966536047
30
355.3749909881186
 70
     192
  0
VERTEX
  8
Layer0
10
267.1421382011955
20
362.9502251109752
30
355.3749892764185
 70
     192
  0
VERTEX
  8
Layer0
10
267.5563517579307
20
363.268062363518
30
355.3749892718127
 70
     192
  0
VERTEX
  8
Layer0
10
267.87418899577915
20
363.6822759315296
30
355.3749892624564
 70
     192
  0
VERTEX
  8
Layer0
10
268.07398983223203
20
364.16463784486814
30
355.3749892489867
 70
     192
  0
VERTEX
  8
Layer0
10
268.1421381704721
20
364.6822759362812
30
355.374989232318
 70
     192
  0
VERTEX
  8
Layer0
10
267.0000077299955
20
35.66454966536034
30
355.37499965815795
 70
     192
  0
VERTEX
  8
Layer0
10
267.1421395756114
20
-33.58567387873115
30
355.3749971682161
 70
     192
  0
VERTEX
  8
Layer0
10
267.55635314362235
20
-33.90351111657885
30
355.37499718533826
 70
     192
  0
VERTEX
  8
Layer0
10
267.8741903961655
20
-34.317724673314046
30
355.3749972042989
 70
     192
  0
VERTEX
  8
Layer0
10
268.0739912497311
20
-34.80008657956399
30
355.37499722380466
 70
     192
  0
VERTEX
  8
Layer0
10
268.1421396063348
20
-35.31772466856103
30
355.3749972425239
 70
     192
  0
VERTEX
  8
Layer0
10
230.00000315236178
20
330.5401396359776
30
355.37498982312417
 70
     192
  0
VERTEX
  8
Layer0
10
230.00000609438476
20
164.68227495728712
30
355.3749954909417
 70
     192
  0
VERTEX
  8
Layer0
10
230.06815150896568
20
330.02250154698214
30
355.37498984185277
 70
     192
  0
VERTEX
  8
Layer0
10
230.00000337698347
20
-1.1755897214054598
30
355.37499549926133
 70
     192
  0
VERTEX
  8
Layer0
10
230.06815443262406
20
165.19991304870143
30
355.37499547428223
 70
     192
  0
VERTEX
  8
Layer0
10
230.26795236253108
20
329.54013964073044
30
355.3749898613584
 70
     192
  0
VERTEX
  8
Layer0
10
230.26795526907748
20
165.68227496203954
30
355.3749954608129
 70
     192
  0
VERTEX
  8
Layer0
10
230.58578961507442
20
329.1259260839962
30
355.37498988031905
 70
     192
  0
VERTEX
  8
Layer0
10
230.58579250692597
20
166.09648853005046
30
355.37499545145624
 70
     192
  0
VERTEX
  8
Layer0
10
231.00000318308534
20
328.8080888461467
30
355.37498989743955
 70
     192
  0
VERTEX
  8
Layer0
10
231.0000060636609
20
166.41432578259395
30
355.3749954468491
 70
     192
  0
VERTEX
  8
Layer0
10
231.48236509642422
20
328.6082880096946
30
355.3749899115527
 70
     192
  0
VERTEX
  8
Layer0
10
231.48236796991165
20
166.6141266361601
30
355.3749954473031
 70
     192
  0
VERTEX
  8
Layer0
10
232.00000318783805
20
328.5401396714547
30
355.37498992170646
 70
     192
  0
VERTEX
  8
Layer0
10
232.00000605890787
20
166.68227499276298
30
355.37499545279803
 70
     192
  0
VERTEX
  8
Layer0
10
232.51764127683435
20
328.60828802805776
30
355.3749899271971
 70
     192
  0
VERTEX
  8
Layer0
10
232.5176441503218
20
166.61412665452332
30
355.37499546294754
 70
     192
  0
VERTEX
  8
Layer0
10
233.00000318308525
20
328.80808888162403
30
355.3749899276552
 70
     192
  0
VERTEX
  8
Layer0
10
233.00000606366112
20
166.41432581807078
30
355.3749954770642
 70
     192
  0
VERTEX
  8
Layer0
10
233.4142167398204
20
329.12592613416746
30
355.37498992304387
 70
     192
  0
VERTEX
  8
Layer0
10
233.4142196316723
20
166.09648858022163
30
355.3749954941818
 70
     192
  0
VERTEX
  8
Layer0
10
233.73205397766895
20
329.54013970217835
30
355.3749899136879
 70
     192
  0
VERTEX
  8
Layer0
10
233.7320568842154
20
165.68227502348725
30
355.37499551314244
 70
     192
  0
VERTEX
  8
Layer0
10
233.93185481412183
20
330.02250161551655
30
355.3749899002219
 70
     192
  0
VERTEX
  8
Layer0
10
233.93185773778058
20
165.19991311723624
30
355.3749955326523
 70
     192
  0
VERTEX
  8
Layer0
10
234.0000031523615
20
330.5401397069313
30
355.3749898835588
 70
     192
  0
VERTEX
  8
Layer0
10
234.00000609438493
20
164.6822750282404
30
355.3749955513763
 70
     192
  0
VERTEX
  8
Layer0
10
222.0000030788876
20
334.6822751178034
30
355.3749895606841
 70
     192
  0
VERTEX
  8
Layer0
10
230.26795232705473
20
331.54013964073033
30
355.37498979299556
 70
     192
  0
VERTEX
  8
Layer0
10
262.0000023693588
20
374.6822758273319
30
355.3749887977138
 70
     192
  0
VERTEX
  8
Layer0
10
230.06815149060265
20
331.0577777273919
30
355.3749898064651
 70
     192
  0
VERTEX
  8
Layer0
10
222.00000345045743
20
-5.317725487040877
30
355.37499551999184
 70
     192
  0
VERTEX
  8
Layer0
10
230.58578956490317
20
331.9543532087422
30
355.3749897836381
 70
     192
  0
VERTEX
  8
Layer0
10
231.00000312163837
20
332.2721904612846
30
355.3749897790305
 70
     192
  0
VERTEX
  8
Layer0
10
231.48236502788896
20
332.47199131485075
30
355.3749897794851
 70
     192
  0
VERTEX
  8
Layer0
10
232.0000031168852
20
332.5401396714549
30
355.37498978498047
 70
     192
  0
VERTEX
  8
Layer0
10
232.51764120829907
20
332.4719913332139
30
355.3749897951296
 70
     192
  0
VERTEX
  8
Layer0
10
233.00000312163826
20
332.272190496762
30
355.37498980924613
 70
     192
  0
VERTEX
  8
Layer0
10
233.41421668964918
20
331.9543532589137
30
355.37498982636356
 70
     192
  0
VERTEX
  8
Layer0
10
233.73205394219266
20
331.54013970217824
30
355.3749898453247
 70
     192
  0
VERTEX
  8
Layer0
10
233.93185479575882
20
331.0577777959263
30
355.3749898648345
 70
     192
  0
VERTEX
  8
Layer0
10
230.06815171522342
20
-0.6579516299909194
30
355.3749954826019
 70
     192
  0
VERTEX
  8
Layer0
10
230.06815445098812
20
164.1646368682913
30
355.37499550966976
 70
     192
  0
VERTEX
  8
Layer0
10
230.26795255167622
20
-0.175589716652442
30
355.3749954691324
 70
     192
  0
VERTEX
  8
Layer0
10
230.26795530455462
20
163.68227496203966
30
355.37499552917615
 70
     192
  0
VERTEX
  8
Layer0
10
230.5857897895249
20
0.23862385135937314
30
355.37499545977585
 70
     192
  0
VERTEX
  8
Layer0
10
230.58579255709708
20
163.26806140530428
30
355.3749955481369
 70
     192
  0
VERTEX
  8
Layer0
10
231.00000334626
20
0.5564611039025305
30
355.3749954551682
 70
     192
  0
VERTEX
  8
Layer0
10
231.00000612510902
20
162.950224167456
30
355.37499556525756
 70
     192
  0
VERTEX
  8
Layer0
10
231.48236525251053
20
0.7562619574679242
30
355.37499545562343
 70
     192
  0
VERTEX
  8
Layer0
10
231.48236803844685
20
162.75042333100376
30
355.3749955793711
 70
     192
  0
VERTEX
  8
Layer0
10
232.00000334150766
20
0.8244103140718806
30
355.37499546111724
 70
     192
  0
VERTEX
  8
Layer0
10
232.00000612986074
20
162.68227499276276
30
355.3749955895241
 70
     192
  0
VERTEX
  8
Layer0
10
232.51764143292067
20
0.7562619758311399
30
355.37499547126765
 70
     192
  0
VERTEX
  8
Layer0
10
232.517644218857
20
162.750423349367
30
355.37499559501566
 70
     192
  0
VERTEX
  8
Layer0
10
233.00000334625992
20
0.5564611393789721
30
355.37499548538403
 70
     192
  0
VERTEX
  8
Layer0
10
233.00000612510885
20
162.95022420293287
30
355.3749955954727
 70
     192
  0
VERTEX
  8
Layer0
10
233.41421691427092
20
0.23862390153063762
30
355.3749955025012
 70
     192
  0
VERTEX
  8
Layer0
10
233.41421968184352
20
163.26806145547545
30
355.3749955908622
 70
     192
  0
VERTEX
  8
Layer0
10
233.73205416681412
20
-0.17558965520456019
30
355.37499552146164
 70
     192
  0
VERTEX
  8
Layer0
10
233.73205691969255
20
163.68227502348716
30
355.37499558150574
 70
     192
  0
VERTEX
  8
Layer0
10
233.93185502037957
20
-0.657951561456349
30
355.37499554097167
 70
     192
  0
VERTEX
  8
Layer0
10
233.93185775614464
20
164.1646369368261
30
355.37499556803994
 70
     192
  0
VERTEX
  8
Layer0
10
234.0000033769833
20
-1.1755896504519447
30
355.37499555969555
 70
     192
  0
VERTEX
  8
Layer0
10
640.8673907332116
20
-35.51265088654188
30
355.3749964726323
 70
     192
  0
VERTEX
  8
Layer0
10
641.9822828292314
20
35.66455631687696
30
355.3750053231612
 70
     192
  0
VERTEX
  8
Layer0
10
640.8738801584273
20
-35.317718056967145
30
355.3749964660673
 70
     192
  0
VERTEX
  8
Layer0
10
640.8847622756768
20
-34.99083519187707
30
355.37499645505727
 70
     192
  0
VERTEX
  8
Layer0
10
641.0365977370006
20
-34.49129602186863
30
355.37499644027605
 70
     192
  0
VERTEX
  8
Layer0
10
641.3125497814129
20
-34.04807614542702
30
355.3749964292966
 70
     192
  0
VERTEX
  8
Layer0
10
641.6938127331172
20
-33.691380264676795
30
355.37499642285866
 70
     192
  0
VERTEX
  8
Layer0
10
642.154404152026
20
-33.44551661442214
30
355.37499642141717
 70
     192
  0
VERTEX
  8
Layer0
10
230.06815173358817
20
-1.6932278104010556
30
355.3749955179896
 70
     192
  0
VERTEX
  8
Layer0
10
230.26795258715265
20
-2.1755897166525284
30
355.3749955374957
 70
     192
  0
VERTEX
  8
Layer0
10
262.000004159986
20
-45.31772477751116
30
355.3749974915525
 70
     192
  0
VERTEX
  8
Layer0
10
230.58578983969622
20
-2.5898032733870044
30
355.3749955564567
 70
     192
  0
VERTEX
  8
Layer0
10
231.00000340770694
20
-2.9076405112347974
30
355.37499557357677
 70
     192
  0
VERTEX
  8
Layer0
10
231.4823653210467
20
-3.107441347688003
30
355.3749955876908
 70
     192
  0
VERTEX
  8
Layer0
10
232.00000341245965
20
-3.1755896859278865
30
355.37499559784374
 70
     192
  0
VERTEX
  8
Layer0
10
232.51764150145678
20
-3.1074413293247876
30
355.37499560333515
 70
     192
  0
VERTEX
  8
Layer0
10
233.00000340770686
20
-2.9076404757585363
30
355.3749956037926
 70
     192
  0
VERTEX
  8
Layer0
10
233.41421696444232
20
-2.58980322321574
30
355.3749955991819
 70
     192
  0
VERTEX
  8
Layer0
10
233.73205420229056
20
-2.1755896552048273
30
355.3749955898252
 70
     192
  0
VERTEX
  8
Layer0
10
233.93185503874435
20
-1.6932277418664852
30
355.3749955763591
 70
     192
  0
VERTEX
  8
Layer0
10
264.21028650871165
20
365.19991395674225
30
355.37498915522883
 70
     192
  0
VERTEX
  8
Layer0
10
264.41008734516464
20
365.6822758700828
30
355.3749891417546
 70
     192
  0
VERTEX
  8
Layer0
10
264.7279245830131
20
366.0964894380938
30
355.3749891323981
 70
     192
  0
VERTEX
  8
Layer0
10
265.1421381397483
20
366.4143266906367
30
355.3749891277959
 70
     192
  0
VERTEX
  8
Layer0
10
265.6245000459993
20
366.6141275442011
30
355.37498912825447
 70
     192
  0
VERTEX
  8
Layer0
10
266.14213813499543
20
366.6822759008055
30
355.3749891337441
 70
     192
  0
VERTEX
  8
Layer0
10
647.000002369352
20
374.6822826565433
30
355.3749882066001
 70
     192
  0
VERTEX
  8
Layer0
10
266.65977622640946
20
366.61412756256647
30
355.37498914388914
 70
     192
  0
VERTEX
  8
Layer0
10
267.1421381397484
20
366.41432672611313
30
355.3749891580099
 70
     192
  0
VERTEX
  8
Layer0
10
267.5563517077594
20
366.0964894882644
30
355.37498917513307
 70
     192
  0
VERTEX
  8
Layer0
10
267.8741889603027
20
365.6822759315299
30
355.374989194093
 70
     192
  0
VERTEX
  8
Layer0
10
268.0739898138682
20
365.1999140252783
30
355.374989213599
 70
     192
  0
VERTEX
  8
Layer0
10
454.5000025112613
20
366.6822792419369
30
355.3749852037292
 70
     192
  0
VERTEX
  8
Layer0
10
453.9823644222659
20
366.6141308853329
30
355.37498519823987
 70
     192
  0
VERTEX
  8
Layer0
10
453.50000251601415
20
366.41433003176746
30
355.374985197782
 70
     192
  0
VERTEX
  8
Layer0
10
453.0857889592789
20
366.09649277922404
30
355.37498520238313
 70
     192
  0
VERTEX
  8
Layer0
10
452.76795172143073
20
365.6822792112136
30
355.37498521174
 70
     192
  0
VERTEX
  8
Layer0
10
452.5681508849783
20
365.1999172978741
30
355.37498522521383
 70
     192
  0
VERTEX
  8
Layer0
10
455.01764060267607
20
366.6141309036967
30
355.37498521387505
 70
     192
  0
VERTEX
  8
Layer0
10
455.50000251601443
20
366.41433006724395
30
355.3749852279913
 70
     192
  0
VERTEX
  8
Layer0
10
455.91421608402527
20
366.09649282939546
30
355.37498524511847
 70
     192
  0
VERTEX
  8
Layer0
10
456.23205333656864
20
365.6822792726602
30
355.3749852640777
 70
     192
  0
VERTEX
  8
Layer0
10
456.4318541901367
20
365.1999173664092
30
355.374985283584
 70
     192
  0
VERTEX
  8
Layer0
10
641.1258160976972
20
365.6822825523464
30
355.37498842548644
 70
     192
  0
VERTEX
  8
Layer0
10
640.9260152612443
20
365.1999206390066
30
355.37498843895975
 70
     192
  0
VERTEX
  8
Layer0
10
640.8578669230043
20
364.68228254759265
30
355.374988455625
 70
     192
  0
VERTEX
  8
Layer0
10
641.4436533355463
20
366.0964961203567
30
355.37498841613035
 70
     192
  0
VERTEX
  8
Layer0
10
641.8578668922808
20
366.41433337290044
30
355.3749884115283
 70
     192
  0
VERTEX
  8
Layer0
10
642.3402287985316
20
366.61413422646547
30
355.3749884119856
 70
     192
  0
VERTEX
  8
Layer0
10
642.8578668875268
20
366.68228258306925
30
355.37498841747635
 70
     192
  0
VERTEX
  8
Layer0
10
643.3755049789416
20
366.61413424482924
30
355.3749884276219
 70
     192
  0
VERTEX
  8
Layer0
10
643.8578668922798
20
366.4143334083769
30
355.3749884417376
 70
     192
  0
VERTEX
  8
Layer0
10
644.2720804602912
20
366.09649617052804
30
355.3749884588647
 70
     192
  0
VERTEX
  8
Layer0
10
644.589917712834
20
365.6822826137927
30
355.37498847782416
 70
     192
  0
VERTEX
  8
Layer0
10
644.7897185663994
20
365.19992070754176
30
355.37498849732617
 70
     192
  0
VERTEX
  8
Layer0
10
644.8578669230034
20
364.6822826185456
30
355.3749885160538
 70
     192
  0
VERTEX
  8
Layer0
10
641.9822782137462
20
295.8645563168774
30
355.37499665312134
 70
     192
  0
VERTEX
  8
Layer0
10
640.9260152796074
20
364.1646444585967
30
355.3749884743473
 70
     192
  0
VERTEX
  8
Layer0
10
641.1258161331737
20
363.6822825523463
30
355.37498849384957
 70
     192
  0
VERTEX
  8
Layer0
10
641.443653385717
20
363.26806899561046
30
355.3749885128102
 70
     192
  0
VERTEX
  8
Layer0
10
641.8578669537279
20
362.9502317577627
30
355.3749885299369
 70
     192
  0
VERTEX
  8
Layer0
10
642.3402288670659
20
362.7504309213091
30
355.3749885440527
 70
     192
  0
VERTEX
  8
Layer0
10
642.6629354940993
20
-33.32724039611983
30
355.3749964250565
 70
     192
  0
VERTEX
  8
Layer0
10
642.8578669584807
20
362.68228258306925
30
355.3749885542032
 70
     192
  0
VERTEX
  8
Layer0
10
643.1847511887662
20
-33.34461193858582
30
355.37499643353414
 70
     192
  0
VERTEX
  8
Layer0
10
643.3755050474759
20
362.7504309396729
30
355.3749885596894
 70
     192
  0
VERTEX
  8
Layer0
10
643.6842903587728
20
-33.496447399909066
30
355.37499644627053
 70
     192
  0
VERTEX
  8
Layer0
10
643.8578669537268
20
362.95023179323914
30
355.3749885601462
 70
     192
  0
VERTEX
  8
Layer0
10
644.1275102352151
20
-33.77239944432057
30
355.37499646239905
 70
     192
  0
VERTEX
  8
Layer0
10
644.2720805104623
20
363.26806904578183
30
355.3749885555444
 70
     192
  0
VERTEX
  8
Layer0
10
644.2607598443076
20
-33.914826486566106
30
355.37499646928046
 70
     192
  0
VERTEX
  8
Layer0
10
644.4842061159652
20
-34.15366239602597
30
355.37499648082064
 70
     192
  0
VERTEX
  8
Layer0
10
644.5899177483104
20
363.68228261379267
30
355.3749885461875
 70
     192
  0
VERTEX
  8
Layer0
10
644.7300697662205
20
-34.61425381493367
30
355.37499650027894
 70
     192
  0
VERTEX
  8
Layer0
10
644.7897185847634
20
364.1646445271318
30
355.37498853271387
 70
     192
  0
VERTEX
  8
Layer0
10
644.8483459845231
20
-35.122785157007044
30
355.3749965194426
 70
     192
  0
VERTEX
  8
Layer0
10
675.0000031523551
20
330.54014752948285
30
355.3749901384524
 70
     192
  0
VERTEX
  8
Layer0
10
675.000006094378
20
164.68228285079144
30
355.374995806268
 70
     192
  0
VERTEX
  8
Layer0
10
675.0681515089587
20
330.0225094404858
30
355.37499015717975
 70
     192
  0
VERTEX
  8
Layer0
10
675.0000033769796
20
-1.175581827900386
30
355.3749958145852
 70
     192
  0
VERTEX
  8
Layer0
10
675.0681544326177
20
165.1999209422057
30
355.3749957896081
 70
     192
  0
VERTEX
  8
Layer0
10
675.2679523625243
20
329.54014753423564
30
355.374990176687
 70
     192
  0
VERTEX
  8
Layer0
10
675.267955269071
20
165.68228285554446
30
355.37499577613966
 70
     192
  0
VERTEX
  8
Layer0
10
675.5857896150675
20
329.1259339775005
30
355.3749901956467
 70
     192
  0
VERTEX
  8
Layer0
10
675.5857925069192
20
166.09649642355535
30
355.3749957667825
 70
     192
  0
VERTEX
  8
Layer0
10
676.0000031830784
20
328.80809673965234
30
355.3749902127648
 70
     192
  0
VERTEX
  8
Layer0
10
676.0000060636545
20
166.41433367609878
30
355.3749957621715
 70
     192
  0
VERTEX
  8
Layer0
10
676.482365096418
20
328.6082959031979
30
355.37499022687985
 70
     192
  0
VERTEX
  8
Layer0
10
676.4823679699068
20
166.6141345296634
30
355.37499576262815
 70
     192
  0
VERTEX
  8
Layer0
10
677.0000031878333
20
328.5401475649594
30
355.3749902370343
 70
     192
  0
VERTEX
  8
Layer0
10
677.0000060589012
20
166.68228288626813
30
355.37499576812456
 70
     192
  0
VERTEX
  8
Layer0
10
677.517641276828
20
328.60829592156296
30
355.3749902425265
 70
     192
  0
VERTEX
  8
Layer0
10
677.517644150317
20
166.6141345480283
30
355.3749957782748
 70
     192
  0
VERTEX
  8
Layer0
10
678.0000031830787
20
328.8080967751286
30
355.3749902429835
 70
     192
  0
VERTEX
  8
Layer0
10
678.0000060636544
20
166.41433371157524
30
355.3749957923903
 70
     192
  0
VERTEX
  8
Layer0
10
678.4142167398138
20
329.12593402767175
30
355.37499023837137
 70
     192
  0
VERTEX
  8
Layer0
10
678.4142196316657
20
166.09649647372663
30
355.3749958095071
 70
     192
  0
VERTEX
  8
Layer0
10
678.7320539776618
20
329.5401475956825
30
355.3749902290154
 70
     192
  0
VERTEX
  8
Layer0
10
678.7320568842085
20
165.68228291699143
30
355.3749958284677
 70
     192
  0
VERTEX
  8
Layer0
10
678.9318548141154
20
330.022509509022
30
355.3749902155511
 70
     192
  0
VERTEX
  8
Layer0
10
678.9318577377742
20
165.1999210107408
30
355.374995847979
 70
     192
  0
VERTEX
  8
Layer0
10
679.0000031523549
20
330.5401476004349
30
355.3749901988868
 70
     192
  0
VERTEX
  8
Layer0
10
679.0000060943778
20
164.68228292174467
30
355.37499586670265
 70
     192
  0
VERTEX
  8
Layer0
10
647.0000041599803
20
-45.31771794830078
30
355.37499690043273
 70
     192
  0
VERTEX
  8
Layer0
10
675.0681517335832
20
-1.6932199168966136
30
355.3749958333122
 70
     192
  0
VERTEX
  8
Layer0
10
675.2679525871482
20
-2.1755818231475903
30
355.3749958528203
 70
     192
  0
VERTEX
  8
Layer0
10
675.5857898396907
20
-2.589795379882788
30
355.3749958717804
 70
     192
  0
VERTEX
  8
Layer0
10
676.0000034077011
20
-2.9076326177309872
30
355.3749958888973
 70
     192
  0
VERTEX
  8
Layer0
10
676.4823653210402
20
-3.1074334541837865
30
355.3749959030136
 70
     192
  0
VERTEX
  8
Layer0
10
687.0000034504532
20
-5.317717238772469
30
355.37499613745894
 70
     192
  0
VERTEX
  8
Layer0
10
677.0000034124553
20
-3.1755817924236247
30
355.3749959131676
 70
     192
  0
VERTEX
  8
Layer0
10
677.5176415014504
20
-3.107433435819759
30
355.37499591866026
 70
     192
  0
VERTEX
  8
Layer0
10
678.0000034077013
20
-2.9076325822542746
30
355.3749959191163
 70
     192
  0
VERTEX
  8
Layer0
10
678.4142169644372
20
-2.5897953297115235
30
355.374995914505
 70
     192
  0
VERTEX
  8
Layer0
10
678.7320542022858
20
-2.175581761700611
30
355.3749959051483
 70
     192
  0
VERTEX
  8
Layer0
10
678.9318550387397
20
-1.6932198483614114
30
355.37499589168374
 70
     192
  0
VERTEX
  8
Layer0
10
679.0000033769794
20
-1.1755817569475027
30
355.37499587501964
 70
     192
  0
VERTEX
  8
Layer0
10
687.0000030788823
20
334.68228336607257
30
355.3749901781556
 70
     192
  0
VERTEX
  8
Layer0
10
264.2102879629385
20
-35.835362828510135
30
355.37499720082155
 70
     192
  0
VERTEX
  8
Layer0
10
264.41008881650384
20
-36.31772473476044
30
355.3749972203236
 70
     192
  0
VERTEX
  8
Layer0
10
264.72792606904716
20
-36.73193829149627
30
355.37499723928335
 70
     192
  0
VERTEX
  8
Layer0
10
265.14213963705816
20
-37.04977552934487
30
355.3749972564095
 70
     192
  0
VERTEX
  8
Layer0
10
265.62450155039727
20
-37.249576365797715
30
355.37499727052733
 70
     192
  0
VERTEX
  8
Layer0
10
266.1421396418111
20
-37.31772470403774
30
355.37499728067644
 70
     192
  0
VERTEX
  8
Layer0
10
266.65977773080743
20
-37.24957634743455
30
355.3749972861616
 70
     192
  0
VERTEX
  8
Layer0
10
267.1421396370584
20
-37.04977549386906
30
355.37499728662425
 70
     192
  0
VERTEX
  8
Layer0
10
267.55635319379354
20
-36.73193824132487
30
355.37499728201857
 70
     192
  0
VERTEX
  8
Layer0
10
267.8741904316419
20
-36.31772467331413
30
355.3749972726624
 70
     192
  0
VERTEX
  8
Layer0
10
268.073991268095
20
-35.835362759974124
30
355.3749972591918
 70
     192
  0
VERTEX
  8
Layer0
10
454.5000040180768
20
-37.31772136290815
30
355.37499335065894
 70
     192
  0
VERTEX
  8
Layer0
10
453.98236592666325
20
-37.24957302466786
30
355.37499334050983
 70
     192
  0
VERTEX
  8
Layer0
10
453.50000401332426
20
-37.04977218821456
30
355.37499332639305
 70
     192
  0
VERTEX
  8
Layer0
10
453.0857904453136
20
-36.73193495036686
30
355.37499330926573
 70
     192
  0
VERTEX
  8
Layer0
10
452.76795319277005
20
-36.31772139363103
30
355.37499329030646
 70
     192
  0
VERTEX
  8
Layer0
10
452.5681523392051
20
-35.83535948738064
30
355.37499327080405
 70
     192
  0
VERTEX
  8
Layer0
10
455.0176421070734
20
-37.249573006304146
30
355.374993356145
 70
     192
  0
VERTEX
  8
Layer0
10
455.50000401332414
20
-37.04977215273803
30
355.37499335660317
 70
     192
  0
VERTEX
  8
Layer0
10
455.91421757006
20
-36.7319349001951
30
355.3749933520014
 70
     192
  0
VERTEX
  8
Layer0
10
456.23205480790796
20
-36.317721332183915
30
355.3749933426442
 70
     192
  0
VERTEX
  8
Layer0
10
456.43185564436305
20
-35.83535941884499
30
355.3749933291743
 70
     192
  0
VERTEX
  8
Layer0
10
641.2315306017678
20
-36.48177364752431
30
355.37499651125506
 70
     192
  0
VERTEX
  8
Layer0
10
640.9856669515148
20
-36.021182228616425
30
355.3749964918001
 70
     192
  0
VERTEX
  8
Layer0
10
641.5882264825193
20
-36.86303659922799
30
355.37499652968097
 70
     192
  0
VERTEX
  8
Layer0
10
642.0314463589608
20
-37.13898864364085
30
355.3749965458092
 70
     192
  0
VERTEX
  8
Layer0
10
642.5309855289687
20
-37.29082410496373
30
355.37499655854543
 70
     192
  0
VERTEX
  8
Layer0
10
643.0528012236355
20
-37.30819564742919
30
355.37499656701806
 70
     192
  0
VERTEX
  8
Layer0
10
643.5613325657075
20
-37.189919429127954
30
355.3749965706621
 70
     192
  0
VERTEX
  8
Layer0
10
644.0219239846167
20
-36.944055778872574
30
355.3749965692164
 70
     192
  0
VERTEX
  8
Layer0
10
644.4031869363212
20
-36.58735989812136
30
355.3749965627792
 70
     192
  0
VERTEX
  8
Layer0
10
644.6791389807335
20
-36.1441400216811
30
355.37499655180346
 70
     192
  0
VERTEX
  8
Layer0
10
644.8309744420563
20
-35.644600851673204
30
355.3749965370173
 70
     192
  0
VERTEX
  8
Layer0
10
675.0681514905966
20
331.05778562089574
30
355.3749901217922
 70
     192
  0
VERTEX
  8
Layer0
10
675.2679523270473
20
331.5401475342357
30
355.3749901083243
 70
     192
  0
VERTEX
  8
Layer0
10
675.5857895648966
20
331.9543611022467
30
355.3749900989664
 70
     192
  0
VERTEX
  8
Layer0
10
676.0000031216315
20
332.2721983547901
30
355.3749900943558
 70
     192
  0
VERTEX
  8
Layer0
10
676.4823650278826
20
332.4719992083543
30
355.3749900948123
 70
     192
  0
VERTEX
  8
Layer0
10
677.0000031168786
20
332.5401475649594
30
355.3749901003083
 70
     192
  0
VERTEX
  8
Layer0
10
677.5176412082927
20
332.4719992267193
30
355.3749901104585
 70
     192
  0
VERTEX
  8
Layer0
10
678.0000031216317
20
332.27219839026634
30
355.3749901245744
 70
     192
  0
VERTEX
  8
Layer0
10
678.414216689643
20
331.95436115241796
30
355.3749901416915
 70
     192
  0
VERTEX
  8
Layer0
10
678.7320539421848
20
331.54014759568264
30
355.3749901606525
 70
     192
  0
VERTEX
  8
Layer0
10
678.9318547957531
20
331.05778568943197
30
355.37499018016365
 70
     192
  0
VERTEX
  8
Layer0
10
675.0681517152188
20
-0.6579437364864773
30
355.3749957979247
 70
     192
  0
VERTEX
  8
Layer0
10
675.0681544509819
20
164.16464476179556
30
355.3749958249951
 70
     192
  0
VERTEX
  8
Layer0
10
675.2679525516729
20
-0.1755818231475036
30
355.37499578445744
 70
     192
  0
VERTEX
  8
Layer0
10
675.2679553045474
20
163.68228285554437
30
355.37499584450336
 70
     192
  0
VERTEX
  8
Layer0
10
675.585789789519
20
0.23863174486340916
30
355.3749957750997
 70
     192
  0
VERTEX
  8
Layer0
10
675.5857925570917
20
163.26806929880917
30
355.3749958634629
 70
     192
  0
VERTEX
  8
Layer0
10
676.0000033462546
20
0.5564689974066116
30
355.3749957704887
 70
     192
  0
VERTEX
  8
Layer0
10
676.0000061251027
20
162.9502320609608
30
355.37499588058
 70
     192
  0
VERTEX
  8
Layer0
10
676.4823652525054
20
0.7562698509721407
30
355.37499577094604
 70
     192
  0
VERTEX
  8
Layer0
10
676.4823680384407
20
162.7504312245069
30
355.37499589469627
 70
     192
  0
VERTEX
  8
Layer0
10
677.0000033415032
20
0.8244182075759617
30
355.3749957764411
 70
     192
  0
VERTEX
  8
Layer0
10
677.0000061298543
20
162.68228288626815
30
355.3749959048503
 70
     192
  0
VERTEX
  8
Layer0
10
677.5176414329155
20
0.7562698693361685
30
355.37499578659225
 70
     192
  0
VERTEX
  8
Layer0
10
677.5176442188507
20
162.75043124287197
30
355.37499591034253
 70
     192
  0
VERTEX
  8
Layer0
10
678.0000033462542
20
0.5564690328830533
30
355.3749958007077
 70
     192
  0
VERTEX
  8
Layer0
10
678.0000061251029
20
162.9502320964375
30
355.3749959107988
 70
     192
  0
VERTEX
  8
Layer0
10
678.4142169142655
20
0.23863179503467363
30
355.3749958178248
 70
     192
  0
VERTEX
  8
Layer0
10
678.4142196818382
20
163.26806934898042
30
355.374995906188
 70
     192
  0
VERTEX
  8
Layer0
10
678.7320541668105
20
-0.1755817617005242
30
355.374995836785
 70
     192
  0
VERTEX
  8
Layer0
10
678.732056919685
20
163.68228291699134
30
355.3749958968309
 70
     192
  0
VERTEX
  8
Layer0
10
678.9318550203753
20
-0.6579436679512752
30
355.3749958562967
 70
     192
  0
VERTEX
  8
Layer0
10
678.9318577561384
20
164.16464483033042
30
355.3749958833665
 70
     192
  0
VERTEX
  8
Layer0
10
0.0
 20
 0.0
 30
0.0
 70
     128
 71
-1
 72
2
 73
-3
  0
VERTEX
  8
Layer0
10
0.0
 20
 0.0
 30
0.0
 70
     128
 71
-2
 72
-1
 73
4
  0
VERTEX
  8
Layer0
10
0.0
 20
 0.0
 30
0.0
 70
     128
 71
-4
 72
-1
 73
5
  0
VERTEX
  8
Layer0
10
0.0
 20
 0.0
 30
0.0
 70
     128
 71
-5
 72
-1
 73
6
  0
VERTEX
  8
Layer0
10
0.0
 20
 0.0
 30
0.0
 70
     128
 71
-6
 72
-1
 73
7
  0
VERTEX
  8
Layer0
10
0.0
 20
 0.0
 30
0.0
 70
     128
 71
-7
 72
1
 73
-8
  0
VERTEX
  8
Layer0
10
0.0
 20
 0.0
 30
0.0
 70
     128
 71
-7
 72
-8
 73
9
  0
VERTEX
  8
Layer0
10
0.0
 20
 0.0
 30
0.0
 70
     128
 71
-9
 72
-8
 73
10
  0
VERTEX
  8
Layer0
10
0.0
 20
 0.0
 30
0.0
 70
     128
 71
-10
 72
-8
 73
11
  0
VERTEX
  8
Layer0
10
0.0
 20
 0.0
 30
0.0
 70
     128
 71
-11
 72
-8
 73
12
  0
VERTEX
  8
Layer0
10
0.0
 20
 0.0
 30
0.0
 70
     128
 71
-12
 72
-8
 73
13
  0
VERTEX
  8
Layer0
10
0.0
 20
 0.0
 30
0.0
 70
     128
 71
-13
 72
-8
 73
14
  0
VERTEX
  8
Layer0
10
0.0
 20
 0.0
 30
0.0
 70
     128
 71
-14
 72
-8
 73
15
  0
VERTEX
  8
Layer0
10
0.0
 20
 0.0
 30
0.0
 70
     128
 71
-16
 72
-17
 73
18
  0
VERTEX
  8
Layer0
10
0.0
 20
 0.0
 30
0.0
 70
     128
 71
-17
 72
-16
 73
19
  0
VERTEX
  8
Layer0
10
0.0
 20
 0.0
 30
0.0
 70
     128
 71
-19
 72
-16
 73
20
  0
VERTEX
  8
Layer0
10
0.0
 20
 0.0
 30
0.0
 70
     128
 71
-20
 72
-16
 73
21
  0
VERTEX
  8
Layer0
10
0.0
 20
 0.0
 30
0.0
 70
     128
 71
-21
 72
-16
 73
22
  0
VERTEX
  8
Layer0
10
0.0
 20
 0.0
 30
0.0
 70
     128
 71
-22
 72
-16
 73
23
  0
VERTEX
  8
Layer0
10
0.0
 20
 0.0
 30
0.0
 70
     128
 71
-18
 72
17
 73
-24
  0
VERTEX
  8
Layer0
10
0.0
 20
 0.0
 30
0.0
 70
     128
 71
-18
 72
24
 73
-25
  0
VERTEX
  8
Layer0
10
0.0
 20
 0.0
 30
0.0
 70
     128
 71
-18
 72
25
 73
-26
  0
VERTEX
  8
Layer0
10
0.0
 20
 0.0
 30
0.0
 70
     128
 71
-18
 72
26
 73
-27
  0
VERTEX
  8
Layer0
10
0.0
 20
 0.0
 30
0.0
 70
     128
 71
-18
 72
27
 73
-28
  0
VERTEX
  8
Layer0
10
0.0
 20
 0.0
 30
0.0
 70
     128
 71
-18
 72
28
 73
-29
  0
VERTEX
  8
Layer0
10
0.0
 20
 0.0
 30
0.0
 70
     128
 71
-18
 72
29
 73
-30
  0
VERTEX
  8
Layer0
10
0.0
 20
 0.0
 30
0.0
 70
     128
 71
-31
 72
32
 73
-33
  0
VERTEX
  8
Layer0
10
0.0
 20
 0.0
 30
0.0
 70
     128
 71
-32
 72
31
 73
-34
  0
VERTEX
  8
Layer0
10
0.0
 20
 0.0
 30
0.0
 70
     128
 71
-32
 72
-34
 73
35
  0
VERTEX
  8
Layer0
10
0.0
 20
 0.0
 30
0.0
 70
     128
 71
-35
 72
34
 73
-36
  0
VERTEX
  8
Layer0
10
0.0
 20
 0.0
 30
0.0
 70
     128
 71
-35
 72
-36
 73
37
  0
VERTEX
  8
Layer0
10
0.0
 20
 0.0
 30
0.0
 70
     128
 71
-37
 72
36
 73
-38
  0
VERTEX
  8
Layer0
10
0.0
 20
 0.0
 30
0.0
 70
     128
 71
-37
 72
-38
 73
39
  0
VERTEX
  8
Layer0
10
0.0
 20
 0.0
 30
0.0
 70
     128
 71
-39
 72
38
 73
-40
  0
VERTEX
  8
Layer0
10
0.0
 20
 0.0
 30
0.0
 70
     128
 71
-39
 72
-40
 73
41
  0
VERTEX
  8
Layer0
10
0.0
 20
 0.0
 30
0.0
 70
     128
 71
-41
 72
40
 73
-42
  0
VERTEX
  8
Layer0
10
0.0
 20
 0.0
 30
0.0
 70
     128
 71
-41
 72
-42
 73
43
  0
VERTEX
  8
Layer0
10
0.0
 20
 0.0
 30
0.0
 70
     128
 71
-43
 72
42
 73
-44
  0
VERTEX
  8
Layer0
10
0.0
 20
 0.0
 30
0.0
 70
     128
 71
-43
 72
-44
 73
45
  0
VERTEX
  8
Layer0
10
0.0
 20
 0.0
 30
0.0
 70
     128
 71
-45
 72
44
 73
-46
  0
VERTEX
  8
Layer0
10
0.0
 20
 0.0
 30
0.0
 70
     128
 71
-45
 72
-46
 73
-47
  0
VERTEX
  8
Layer0
10
0.0
 20
 0.0
 30
0.0
 70
     128
 71
-45
 72
-47
 73
48
  0
VERTEX
  8
Layer0
10
0.0
 20
 0.0
 30
0.0
 70
     128
 71
-48
 72
47
 73
-1
  0
VERTEX
  8
Layer0
10
0.0
 20
 0.0
 30
0.0
 70
     128
 71
-48
 72
-1
 73
49
  0
VERTEX
  8
Layer0
10
0.0
 20
 0.0
 30
0.0
 70
     128
 71
-49
 72
-1
 73
50
  0
VERTEX
  8
Layer0
10
0.0
 20
 0.0
 30
0.0
 70
     128
 71
-50
 72
-1
 73
51
  0
VERTEX
  8
Layer0
10
0.0
 20
 0.0
 30
0.0
 70
     128
 71
-51
 72
-1
 73
52
  0
VERTEX
  8
Layer0
10
0.0
 20
 0.0
 30
0.0
 70
     128
 71
-46
 72
53
 73
-47
  0
VERTEX
  8
Layer0
10
0.0
 20
 0.0
 30
0.0
 70
     128
 71
-53
 72
46
 73
-54
  0
VERTEX
  8
Layer0
10
0.0
 20
 0.0
 30
0.0
 70
     128
 71
-53
 72
-54
 73
16
  0
VERTEX
  8
Layer0
10
0.0
 20
 0.0
 30
0.0
 70
     128
 71
-16
 72
54
 73
-55
  0
VERTEX
  8
Layer0
10
0.0
 20
 0.0
 30
0.0
 70
     128
 71
-16
 72
55
 73
-56
  0
VERTEX
  8
Layer0
10
0.0
 20
 0.0
 30
0.0
 70
     128
 71
-16
 72
56
 73
-57
  0
VERTEX
  8
Layer0
10
0.0
 20
 0.0
 30
0.0
 70
     128
 71
-16
 72
57
 73
-58
  0
VERTEX
  8
Layer0
10
0.0
 20
 0.0
 30
0.0
 70
     128
 71
-59
 72
-60
 73
61
  0
VERTEX
  8
Layer0
10
0.0
 20
 0.0
 30
0.0
 70
     128
 71
-60
 72
-59
 73
-62
  0
VERTEX
  8
Layer0
10
0.0
 20
 0.0
 30
0.0
 70
     128
 71
-61
 72
60
 73
-63
  0
VERTEX
  8
Layer0
10
0.0
 20
 0.0
 30
0.0
 70
     128
 71
-61
 72
-63
 73
64
  0
VERTEX
  8
Layer0
10
0.0
 20
 0.0
 30
0.0
 70
     128
 71
-64
 72
63
 73
-65
  0
VERTEX
  8
Layer0
10
0.0
 20
 0.0
 30
0.0
 70
     128
 71
-64
 72
-65
 73
66
  0
VERTEX
  8
Layer0
10
0.0
 20
 0.0
 30
0.0
 70
     128
 71
-66
 72
65
 73
-67
  0
VERTEX
  8
Layer0
10
0.0
 20
 0.0
 30
0.0
 70
     128
 71
-66
 72
-67
 73
68
  0
VERTEX
  8
Layer0
10
0.0
 20
 0.0
 30
0.0
 70
     128
 71
-68
 72
67
 73
-69
  0
VERTEX
  8
Layer0
10
0.0
 20
 0.0
 30
0.0
 70
     128
 71
-68
 72
-69
 73
70
  0
VERTEX
  8
Layer0
10
0.0
 20
 0.0
 30
0.0
 70
     128
 71
-70
 72
69
 73
-71
  0
VERTEX
  8
Layer0
10
0.0
 20
 0.0
 30
0.0
 70
     128
 71
-70
 72
-71
 73
72
  0
VERTEX
  8
Layer0
10
0.0
 20
 0.0
 30
0.0
 70
     128
 71
-72
 72
71
 73
-73
  0
VERTEX
  8
Layer0
10
0.0
 20
 0.0
 30
0.0
 70
     128
 71
-72
 72
-73
 73
74
  0
VERTEX
  8
Layer0
10
0.0
 20
 0.0
 30
0.0
 70
     128
 71
-74
 72
73
 73
-75
  0
VERTEX
  8
Layer0
10
0.0
 20
 0.0
 30
0.0
 70
     128
 71
-74
 72
-75
 73
76
  0
VERTEX
  8
Layer0
10
0.0
 20
 0.0
 30
0.0
 70
     128
 71
-76
 72
75
 73
-77
  0
VERTEX
  8
Layer0
10
0.0
 20
 0.0
 30
0.0
 70
     128
 71
-76
 72
-77
 73
78
  0
VERTEX
  8
Layer0
10
0.0
 20
 0.0
 30
0.0
 70
     128
 71
-78
 72
77
 73
-79
  0
VERTEX
  8
Layer0
10
0.0
 20
 0.0
 30
0.0
 70
     128
 71
-78
 72
-79
 73
80
  0
VERTEX
  8
Layer0
10
0.0
 20
 0.0
 30
0.0
 70
     128
 71
-80
 72
79
 73
-81
  0
VERTEX
  8
Layer0
10
0.0
 20
 0.0
 30
0.0
 70
     128
 71
-80
 72
-81
 73
82
  0
VERTEX
  8
Layer0
10
0.0
 20
 0.0
 30
0.0
 70
     128
 71
-82
 72
81
 73
-83
  0
VERTEX
  8
Layer0
10
0.0
 20
 0.0
 30
0.0
 70
     128
 71
-82
 72
-83
 73
84
  0
VERTEX
  8
Layer0
10
0.0
 20
 0.0
 30
0.0
 70
     128
 71
-84
 72
83
 73
-85
  0
VERTEX
  8
Layer0
10
0.0
 20
 0.0
 30
0.0
 70
     128
 71
-86
 72
-87
 73
88
  0
VERTEX
  8
Layer0
10
0.0
 20
 0.0
 30
0.0
 70
     128
 71
-87
 72
-86
 73
89
  0
VERTEX
  8
Layer0
10
0.0
 20
 0.0
 30
0.0
 70
     128
 71
-89
 72
-86
 73
59
  0
VERTEX
  8
Layer0
10
0.0
 20
 0.0
 30
0.0
 70
     128
 71
-59
 72
86
 73
-90
  0
VERTEX
  8
Layer0
10
0.0
 20
 0.0
 30
0.0
 70
     128
 71
-88
 72
87
 73
-91
  0
VERTEX
  8
Layer0
10
0.0
 20
 0.0
 30
0.0
 70
     128
 71
-88
 72
91
 73
-92
  0
VERTEX
  8
Layer0
10
0.0
 20
 0.0
 30
0.0
 70
     128
 71
-88
 72
92
 73
-93
  0
VERTEX
  8
Layer0
10
0.0
 20
 0.0
 30
0.0
 70
     128
 71
-88
 72
93
 73
-94
  0
VERTEX
  8
Layer0
10
0.0
 20
 0.0
 30
0.0
 70
     128
 71
-88
 72
94
 73
-95
  0
VERTEX
  8
Layer0
10
0.0
 20
 0.0
 30
0.0
 70
     128
 71
-88
 72
95
 73
-96
  0
VERTEX
  8
Layer0
10
0.0
 20
 0.0
 30
0.0
 70
     128
 71
-88
 72
96
 73
-97
  0
VERTEX
  8
Layer0
10
0.0
 20
 0.0
 30
0.0
 70
     128
 71
-88
 72
97
 73
-98
  0
VERTEX
  8
Layer0
10
0.0
 20
 0.0
 30
0.0
 70
     128
 71
-88
 72
98
 73
-99
  0
VERTEX
  8
Layer0
10
0.0
 20
 0.0
 30
0.0
 70
     128
 71
-88
 72
99
 73
-84
  0
VERTEX
  8
Layer0
10
0.0
 20
 0.0
 30
0.0
 70
     128
 71
-88
 72
-84
 73
-85
  0
VERTEX
  8
Layer0
10
0.0
 20
 0.0
 30
0.0
 70
     128
 71
-100
 72
-60
 73
62
  0
VERTEX
  8
Layer0
10
0.0
 20
 0.0
 30
0.0
 70
     128
 71
-60
 72
-100
 73
101
  0
VERTEX
  8
Layer0
10
0.0
 20
 0.0
 30
0.0
 70
     128
 71
-101
 72
100
 73
-102
  0
VERTEX
  8
Layer0
10
0.0
 20
 0.0
 30
0.0
 70
     128
 71
-101
 72
-102
 73
103
  0
VERTEX
  8
Layer0
10
0.0
 20
 0.0
 30
0.0
 70
     128
 71
-103
 72
102
 73
-104
  0
VERTEX
  8
Layer0
10
0.0
 20
 0.0
 30
0.0
 70
     128
 71
-103
 72
-104
 73
105
  0
VERTEX
  8
Layer0
10
0.0
 20
 0.0
 30
0.0
 70
     128
 71
-105
 72
104
 73
-106
  0
VERTEX
  8
Layer0
10
0.0
 20
 0.0
 30
0.0
 70
     128
 71
-105
 72
-106
 73
107
  0
VERTEX
  8
Layer0
10
0.0
 20
 0.0
 30
0.0
 70
     128
 71
-107
 72
106
 73
-108
  0
VERTEX
  8
Layer0
10
0.0
 20
 0.0
 30
0.0
 70
     128
 71
-107
 72
-108
 73
109
  0
VERTEX
  8
Layer0
10
0.0
 20
 0.0
 30
0.0
 70
     128
 71
-109
 72
108
 73
-110
  0
VERTEX
  8
Layer0
10
0.0
 20
 0.0
 30
0.0
 70
     128
 71
-109
 72
-110
 73
111
  0
VERTEX
  8
Layer0
10
0.0
 20
 0.0
 30
0.0
 70
     128
 71
-111
 72
110
 73
-112
  0
VERTEX
  8
Layer0
10
0.0
 20
 0.0
 30
0.0
 70
     128
 71
-111
 72
-112
 73
113
  0
VERTEX
  8
Layer0
10
0.0
 20
 0.0
 30
0.0
 70
     128
 71
-113
 72
112
 73
-114
  0
VERTEX
  8
Layer0
10
0.0
 20
 0.0
 30
0.0
 70
     128
 71
-113
 72
-114
 73
115
  0
VERTEX
  8
Layer0
10
0.0
 20
 0.0
 30
0.0
 70
     128
 71
-115
 72
114
 73
-116
  0
VERTEX
  8
Layer0
10
0.0
 20
 0.0
 30
0.0
 70
     128
 71
-115
 72
-116
 73
117
  0
VERTEX
  8
Layer0
10
0.0
 20
 0.0
 30
0.0
 70
     128
 71
-117
 72
116
 73
-118
  0
VERTEX
  8
Layer0
10
0.0
 20
 0.0
 30
0.0
 70
     128
 71
-117
 72
-118
 73
119
  0
VERTEX
  8
Layer0
10
0.0
 20
 0.0
 30
0.0
 70
     128
 71
-119
 72
118
 73
-120
  0
VERTEX
  8
Layer0
10
0.0
 20
 0.0
 30
0.0
 70
     128
 71
-119
 72
-120
 73
121
  0
VERTEX
  8
Layer0
10
0.0
 20
 0.0
 30
0.0
 70
     128
 71
-121
 72
120
 73
-122
  0
VERTEX
  8
Layer0
10
0.0
 20
 0.0
 30
0.0
 70
     128
 71
-121
 72
-122
 73
85
  0
VERTEX
  8
Layer0
10
0.0
 20
 0.0
 30
0.0
 70
     128
 71
-123
 72
124
 73
-18
  0
VERTEX
  8
Layer0
10
0.0
 20
 0.0
 30
0.0
 70
     128
 71
-124
 72
123
 73
-125
  0
VERTEX
  8
Layer0
10
0.0
 20
 0.0
 30
0.0
 70
     128
 71
-124
 72
125
 73
-126
  0
VERTEX
  8
Layer0
10
0.0
 20
 0.0
 30
0.0
 70
     128
 71
-124
 72
126
 73
-127
  0
VERTEX
  8
Layer0
10
0.0
 20
 0.0
 30
0.0
 70
     128
 71
-124
 72
127
 73
-128
  0
VERTEX
  8
Layer0
10
0.0
 20
 0.0
 30
0.0
 70
     128
 71
-124
 72
128
 73
-129
  0
VERTEX
  8
Layer0
10
0.0
 20
 0.0
 30
0.0
 70
     128
 71
-124
 72
129
 73
-130
  0
VERTEX
  8
Layer0
10
0.0
 20
 0.0
 30
0.0
 70
     128
 71
-90
 72
-62
 73
-59
  0
VERTEX
  8
Layer0
10
0.0
 20
 0.0
 30
0.0
 70
     128
 71
-62
 72
-90
 73
131
  0
VERTEX
  8
Layer0
10
0.0
 20
 0.0
 30
0.0
 70
     128
 71
-131
 72
-90
 73
132
  0
VERTEX
  8
Layer0
10
0.0
 20
 0.0
 30
0.0
 70
     128
 71
-132
 72
90
 73
-133
  0
VERTEX
  8
Layer0
10
0.0
 20
 0.0
 30
0.0
 70
     128
 71
-132
 72
-133
 73
134
  0
VERTEX
  8
Layer0
10
0.0
 20
 0.0
 30
0.0
 70
     128
 71
-134
 72
-133
 73
135
  0
VERTEX
  8
Layer0
10
0.0
 20
 0.0
 30
0.0
 70
     128
 71
-135
 72
-133
 73
136
  0
VERTEX
  8
Layer0
10
0.0
 20
 0.0
 30
0.0
 70
     128
 71
-136
 72
-133
 73
137
  0
VERTEX
  8
Layer0
10
0.0
 20
 0.0
 30
0.0
 70
     128
 71
-137
 72
-133
 73
138
  0
VERTEX
  8
Layer0
10
0.0
 20
 0.0
 30
0.0
 70
     128
 71
-138
 72
-133
 73
139
  0
VERTEX
  8
Layer0
10
0.0
 20
 0.0
 30
0.0
 70
     128
 71
-139
 72
-133
 73
140
  0
VERTEX
  8
Layer0
10
0.0
 20
 0.0
 30
0.0
 70
     128
 71
-140
 72
-133
 73
141
  0
VERTEX
  8
Layer0
10
0.0
 20
 0.0
 30
0.0
 70
     128
 71
-141
 72
-133
 73
142
  0
VERTEX
  8
Layer0
10
0.0
 20
 0.0
 30
0.0
 70
     128
 71
-142
 72
-133
 73
122
  0
VERTEX
  8
Layer0
10
0.0
 20
 0.0
 30
0.0
 70
     128
 71
-122
 72
-133
 73
-85
  0
VERTEX
  8
Layer0
10
0.0
 20
 0.0
 30
0.0
 70
     128
 71
-85
 72
-133
 73
-88
  0
VERTEX
  8
Layer0
10
0.0
 20
 0.0
 30
0.0
 70
     128
 71
-88
 72
-133
 73
-33
  0
VERTEX
  8
Layer0
10
0.0
 20
 0.0
 30
0.0
 70
     128
 71
-88
 72
33
 73
-143
  0
VERTEX
  8
Layer0
10
0.0
 20
 0.0
 30
0.0
 70
     128
 71
-88
 72
143
 73
-144
  0
VERTEX
  8
Layer0
10
0.0
 20
 0.0
 30
0.0
 70
     128
 71
-88
 72
144
 73
-145
  0
VERTEX
  8
Layer0
10
0.0
 20
 0.0
 30
0.0
 70
     128
 71
-88
 72
145
 73
-146
  0
VERTEX
  8
Layer0
10
0.0
 20
 0.0
 30
0.0
 70
     128
 71
-88
 72
146
 73
-147
  0
VERTEX
  8
Layer0
10
0.0
 20
 0.0
 30
0.0
 70
     128
 71
-88
 72
147
 73
-148
  0
VERTEX
  8
Layer0
10
0.0
 20
 0.0
 30
0.0
 70
     128
 71
-88
 72
-148
 73
149
  0
VERTEX
  8
Layer0
10
0.0
 20
 0.0
 30
0.0
 70
     128
 71
-149
 72
148
 73
-150
  0
VERTEX
  8
Layer0
10
0.0
 20
 0.0
 30
0.0
 70
     128
 71
-149
 72
150
 73
-151
  0
VERTEX
  8
Layer0
10
0.0
 20
 0.0
 30
0.0
 70
     128
 71
-149
 72
151
 73
-152
  0
VERTEX
  8
Layer0
10
0.0
 20
 0.0
 30
0.0
 70
     128
 71
-149
 72
152
 73
-153
  0
VERTEX
  8
Layer0
10
0.0
 20
 0.0
 30
0.0
 70
     128
 71
-149
 72
153
 73
-154
  0
VERTEX
  8
Layer0
10
0.0
 20
 0.0
 30
0.0
 70
     128
 71
-149
 72
154
 73
-52
  0
VERTEX
  8
Layer0
10
0.0
 20
 0.0
 30
0.0
 70
     128
 71
-149
 72
-52
 73
-155
  0
VERTEX
  8
Layer0
10
0.0
 20
 0.0
 30
0.0
 70
     128
 71
-155
 72
-52
 73
156
  0
VERTEX
  8
Layer0
10
0.0
 20
 0.0
 30
0.0
 70
     128
 71
-156
 72
-52
 73
-1
  0
VERTEX
  8
Layer0
10
0.0
 20
 0.0
 30
0.0
 70
     128
 71
-156
 72
-1
 73
157
  0
VERTEX
  8
Layer0
10
0.0
 20
 0.0
 30
0.0
 70
     128
 71
-157
 72
-1
 73
158
  0
VERTEX
  8
Layer0
10
0.0
 20
 0.0
 30
0.0
 70
     128
 71
-158
 72
-1
 73
159
  0
VERTEX
  8
Layer0
10
0.0
 20
 0.0
 30
0.0
 70
     128
 71
-159
 72
-1
 73
160
  0
VERTEX
  8
Layer0
10
0.0
 20
 0.0
 30
0.0
 70
     128
 71
-160
 72
-1
 73
3
  0
VERTEX
  8
Layer0
10
0.0
 20
 0.0
 30
0.0
 70
     128
 71
-149
 72
155
 73
-161
  0
VERTEX
  8
Layer0
10
0.0
 20
 0.0
 30
0.0
 70
     128
 71
-149
 72
161
 73
-162
  0
VERTEX
  8
Layer0
10
0.0
 20
 0.0
 30
0.0
 70
     128
 71
-149
 72
162
 73
-163
  0
VERTEX
  8
Layer0
10
0.0
 20
 0.0
 30
0.0
 70
     128
 71
-149
 72
163
 73
-164
  0
VERTEX
  8
Layer0
10
0.0
 20
 0.0
 30
0.0
 70
     128
 71
-149
 72
164
 73
-165
  0
VERTEX
  8
Layer0
10
0.0
 20
 0.0
 30
0.0
 70
     128
 71
-149
 72
165
 73
-15
  0
VERTEX
  8
Layer0
10
0.0
 20
 0.0
 30
0.0
 70
     128
 71
-149
 72
-15
 73
-166
  0
VERTEX
  8
Layer0
10
0.0
 20
 0.0
 30
0.0
 70
     128
 71
-166
 72
-15
 73
167
  0
VERTEX
  8
Layer0
10
0.0
 20
 0.0
 30
0.0
 70
     128
 71
-167
 72
-15
 73
-8
  0
VERTEX
  8
Layer0
10
0.0
 20
 0.0
 30
0.0
 70
     128
 71
-167
 72
-8
 73
168
  0
VERTEX
  8
Layer0
10
0.0
 20
 0.0
 30
0.0
 70
     128
 71
-149
 72
166
 73
-169
  0
VERTEX
  8
Layer0
10
0.0
 20
 0.0
 30
0.0
 70
     128
 71
-149
 72
169
 73
-170
  0
VERTEX
  8
Layer0
10
0.0
 20
 0.0
 30
0.0
 70
     128
 71
-149
 72
170
 73
-171
  0
VERTEX
  8
Layer0
10
0.0
 20
 0.0
 30
0.0
 70
     128
 71
-149
 72
171
 73
-172
  0
VERTEX
  8
Layer0
10
0.0
 20
 0.0
 30
0.0
 70
     128
 71
-149
 72
172
 73
-173
  0
VERTEX
  8
Layer0
10
0.0
 20
 0.0
 30
0.0
 70
     128
 71
-149
 72
173
 73
-174
  0
VERTEX
  8
Layer0
10
0.0
 20
 0.0
 30
0.0
 70
     128
 71
-149
 72
174
 73
-175
  0
VERTEX
  8
Layer0
10
0.0
 20
 0.0
 30
0.0
 70
     128
 71
-149
 72
175
 73
-176
  0
VERTEX
  8
Layer0
10
0.0
 20
 0.0
 30
0.0
 70
     128
 71
-149
 72
176
 73
-177
  0
VERTEX
  8
Layer0
10
0.0
 20
 0.0
 30
0.0
 70
     128
 71
-149
 72
177
 73
-178
  0
VERTEX
  8
Layer0
10
0.0
 20
 0.0
 30
0.0
 70
     128
 71
-179
 72
-168
 73
8
  0
VERTEX
  8
Layer0
10
0.0
 20
 0.0
 30
0.0
 70
     128
 71
-168
 72
-179
 73
180
  0
VERTEX
  8
Layer0
10
0.0
 20
 0.0
 30
0.0
 70
     128
 71
-180
 72
-179
 73
181
  0
VERTEX
  8
Layer0
10
0.0
 20
 0.0
 30
0.0
 70
     128
 71
-181
 72
-179
 73
182
  0
VERTEX
  8
Layer0
10
0.0
 20
 0.0
 30
0.0
 70
     128
 71
-182
 72
-179
 73
183
  0
VERTEX
  8
Layer0
10
0.0
 20
 0.0
 30
0.0
 70
     128
 71
-183
 72
-179
 73
184
  0
VERTEX
  8
Layer0
10
0.0
 20
 0.0
 30
0.0
 70
     128
 71
-184
 72
179
 73
-124
  0
VERTEX
  8
Layer0
10
0.0
 20
 0.0
 30
0.0
 70
     128
 71
-184
 72
-124
 73
-130
  0
VERTEX
  8
Layer0
10
0.0
 20
 0.0
 30
0.0
 70
     128
 71
-184
 72
130
 73
-185
  0
VERTEX
  8
Layer0
10
0.0
 20
 0.0
 30
0.0
 70
     128
 71
-184
 72
-185
 73
186
  0
VERTEX
  8
Layer0
10
0.0
 20
 0.0
 30
0.0
 70
     128
 71
-186
 72
185
 73
-187
  0
VERTEX
  8
Layer0
10
0.0
 20
 0.0
 30
0.0
 70
     128
 71
-186
 72
-187
 73
188
  0
VERTEX
  8
Layer0
10
0.0
 20
 0.0
 30
0.0
 70
     128
 71
-188
 72
187
 73
-189
  0
VERTEX
  8
Layer0
10
0.0
 20
 0.0
 30
0.0
 70
     128
 71
-188
 72
-189
 73
190
  0
VERTEX
  8
Layer0
10
0.0
 20
 0.0
 30
0.0
 70
     128
 71
-190
 72
189
 73
-191
  0
VERTEX
  8
Layer0
10
0.0
 20
 0.0
 30
0.0
 70
     128
 71
-190
 72
-191
 73
192
  0
VERTEX
  8
Layer0
10
0.0
 20
 0.0
 30
0.0
 70
     128
 71
-192
 72
191
 73
-193
  0
VERTEX
  8
Layer0
10
0.0
 20
 0.0
 30
0.0
 70
     128
 71
-192
 72
193
 73
-194
  0
VERTEX
  8
Layer0
10
0.0
 20
 0.0
 30
0.0
 70
     128
 71
-192
 72
-194
 73
195
  0
VERTEX
  8
Layer0
10
0.0
 20
 0.0
 30
0.0
 70
     128
 71
-195
 72
194
 73
-196
  0
VERTEX
  8
Layer0
10
0.0
 20
 0.0
 30
0.0
 70
     128
 71
-195
 72
-196
 73
197
  0
VERTEX
  8
Layer0
10
0.0
 20
 0.0
 30
0.0
 70
     128
 71
-197
 72
196
 73
-198
  0
VERTEX
  8
Layer0
10
0.0
 20
 0.0
 30
0.0
 70
     128
 71
-197
 72
-198
 73
178
  0
VERTEX
  8
Layer0
10
0.0
 20
 0.0
 30
0.0
 70
     128
 71
-199
 72
-200
 73
201
  0
VERTEX
  8
Layer0
10
0.0
 20
 0.0
 30
0.0
 70
     128
 71
-200
 72
-199
 73
-202
  0
VERTEX
  8
Layer0
10
0.0
 20
 0.0
 30
0.0
 70
     128
 71
-201
 72
200
 73
-203
  0
VERTEX
  8
Layer0
10
0.0
 20
 0.0
 30
0.0
 70
     128
 71
-201
 72
-203
 73
204
  0
VERTEX
  8
Layer0
10
0.0
 20
 0.0
 30
0.0
 70
     128
 71
-204
 72
203
 73
-205
  0
VERTEX
  8
Layer0
10
0.0
 20
 0.0
 30
0.0
 70
     128
 71
-204
 72
-205
 73
206
  0
VERTEX
  8
Layer0
10
0.0
 20
 0.0
 30
0.0
 70
     128
 71
-206
 72
205
 73
-207
  0
VERTEX
  8
Layer0
10
0.0
 20
 0.0
 30
0.0
 70
     128
 71
-206
 72
-207
 73
208
  0
VERTEX
  8
Layer0
10
0.0
 20
 0.0
 30
0.0
 70
     128
 71
-208
 72
207
 73
-209
  0
VERTEX
  8
Layer0
10
0.0
 20
 0.0
 30
0.0
 70
     128
 71
-208
 72
-209
 73
210
  0
VERTEX
  8
Layer0
10
0.0
 20
 0.0
 30
0.0
 70
     128
 71
-210
 72
209
 73
-211
  0
VERTEX
  8
Layer0
10
0.0
 20
 0.0
 30
0.0
 70
     128
 71
-210
 72
-211
 73
212
  0
VERTEX
  8
Layer0
10
0.0
 20
 0.0
 30
0.0
 70
     128
 71
-212
 72
211
 73
-213
  0
VERTEX
  8
Layer0
10
0.0
 20
 0.0
 30
0.0
 70
     128
 71
-212
 72
-213
 73
214
  0
VERTEX
  8
Layer0
10
0.0
 20
 0.0
 30
0.0
 70
     128
 71
-214
 72
213
 73
-215
  0
VERTEX
  8
Layer0
10
0.0
 20
 0.0
 30
0.0
 70
     128
 71
-214
 72
-215
 73
216
  0
VERTEX
  8
Layer0
10
0.0
 20
 0.0
 30
0.0
 70
     128
 71
-216
 72
215
 73
-217
  0
VERTEX
  8
Layer0
10
0.0
 20
 0.0
 30
0.0
 70
     128
 71
-216
 72
-217
 73
218
  0
VERTEX
  8
Layer0
10
0.0
 20
 0.0
 30
0.0
 70
     128
 71
-218
 72
217
 73
-219
  0
VERTEX
  8
Layer0
10
0.0
 20
 0.0
 30
0.0
 70
     128
 71
-218
 72
-219
 73
220
  0
VERTEX
  8
Layer0
10
0.0
 20
 0.0
 30
0.0
 70
     128
 71
-220
 72
219
 73
-221
  0
VERTEX
  8
Layer0
10
0.0
 20
 0.0
 30
0.0
 70
     128
 71
-220
 72
-221
 73
222
  0
VERTEX
  8
Layer0
10
0.0
 20
 0.0
 30
0.0
 70
     128
 71
-222
 72
221
 73
-223
  0
VERTEX
  8
Layer0
10
0.0
 20
 0.0
 30
0.0
 70
     128
 71
-222
 72
-223
 73
224
  0
VERTEX
  8
Layer0
10
0.0
 20
 0.0
 30
0.0
 70
     128
 71
-224
 72
223
 73
-225
  0
VERTEX
  8
Layer0
10
0.0
 20
 0.0
 30
0.0
 70
     128
 71
-226
 72
-202
 73
-199
  0
VERTEX
  8
Layer0
10
0.0
 20
 0.0
 30
0.0
 70
     128
 71
-202
 72
-226
 73
227
  0
VERTEX
  8
Layer0
10
0.0
 20
 0.0
 30
0.0
 70
     128
 71
-227
 72
-226
 73
228
  0
VERTEX
  8
Layer0
10
0.0
 20
 0.0
 30
0.0
 70
     128
 71
-228
 72
-226
 73
229
  0
VERTEX
  8
Layer0
10
0.0
 20
 0.0
 30
0.0
 70
     128
 71
-229
 72
-226
 73
230
  0
VERTEX
  8
Layer0
10
0.0
 20
 0.0
 30
0.0
 70
     128
 71
-230
 72
-226
 73
231
  0
VERTEX
  8
Layer0
10
0.0
 20
 0.0
 30
0.0
 70
     128
 71
-231
 72
226
 73
-232
  0
VERTEX
  8
Layer0
10
0.0
 20
 0.0
 30
0.0
 70
     128
 71
-231
 72
-232
 73
233
  0
VERTEX
  8
Layer0
10
0.0
 20
 0.0
 30
0.0
 70
     128
 71
-233
 72
-232
 73
234
  0
VERTEX
  8
Layer0
10
0.0
 20
 0.0
 30
0.0
 70
     128
 71
-234
 72
-232
 73
235
  0
VERTEX
  8
Layer0
10
0.0
 20
 0.0
 30
0.0
 70
     128
 71
-235
 72
-232
 73
236
  0
VERTEX
  8
Layer0
10
0.0
 20
 0.0
 30
0.0
 70
     128
 71
-236
 72
-232
 73
237
  0
VERTEX
  8
Layer0
10
0.0
 20
 0.0
 30
0.0
 70
     128
 71
-237
 72
-232
 73
238
  0
VERTEX
  8
Layer0
10
0.0
 20
 0.0
 30
0.0
 70
     128
 71
-238
 72
-232
 73
239
  0
VERTEX
  8
Layer0
10
0.0
 20
 0.0
 30
0.0
 70
     128
 71
-239
 72
-232
 73
-225
  0
VERTEX
  8
Layer0
10
0.0
 20
 0.0
 30
0.0
 70
     128
 71
-225
 72
232
 73
-240
  0
VERTEX
  8
Layer0
10
0.0
 20
 0.0
 30
0.0
 70
     128
 71
-133
 72
-31
 73
-33
  0
VERTEX
  8
Layer0
10
0.0
 20
 0.0
 30
0.0
 70
     128
 71
-31
 72
-133
 73
241
  0
VERTEX
  8
Layer0
10
0.0
 20
 0.0
 30
0.0
 70
     128
 71
-241
 72
-133
 73
242
  0
VERTEX
  8
Layer0
10
0.0
 20
 0.0
 30
0.0
 70
     128
 71
-242
 72
-133
 73
243
  0
VERTEX
  8
Layer0
10
0.0
 20
 0.0
 30
0.0
 70
     128
 71
-243
 72
-133
 73
244
  0
VERTEX
  8
Layer0
10
0.0
 20
 0.0
 30
0.0
 70
     128
 71
-244
 72
-133
 73
245
  0
VERTEX
  8
Layer0
10
0.0
 20
 0.0
 30
0.0
 70
     128
 71
-245
 72
-133
 73
246
  0
VERTEX
  8
Layer0
10
0.0
 20
 0.0
 30
0.0
 70
     128
 71
-246
 72
133
 73
-226
  0
VERTEX
  8
Layer0
10
0.0
 20
 0.0
 30
0.0
 70
     128
 71
-246
 72
-226
 73
247
  0
VERTEX
  8
Layer0
10
0.0
 20
 0.0
 30
0.0
 70
     128
 71
-247
 72
-226
 73
248
  0
VERTEX
  8
Layer0
10
0.0
 20
 0.0
 30
0.0
 70
     128
 71
-248
 72
-226
 73
249
  0
VERTEX
  8
Layer0
10
0.0
 20
 0.0
 30
0.0
 70
     128
 71
-249
 72
-226
 73
250
  0
VERTEX
  8
Layer0
10
0.0
 20
 0.0
 30
0.0
 70
     128
 71
-250
 72
-226
 73
251
  0
VERTEX
  8
Layer0
10
0.0
 20
 0.0
 30
0.0
 70
     128
 71
-251
 72
-226
 73
58
  0
VERTEX
  8
Layer0
10
0.0
 20
 0.0
 30
0.0
 70
     128
 71
-58
 72
-226
 73
-252
  0
VERTEX
  8
Layer0
10
0.0
 20
 0.0
 30
0.0
 70
     128
 71
-58
 72
252
 73
-253
  0
VERTEX
  8
Layer0
10
0.0
 20
 0.0
 30
0.0
 70
     128
 71
-58
 72
-253
 73
-16
  0
VERTEX
  8
Layer0
10
0.0
 20
 0.0
 30
0.0
 70
     128
 71
-16
 72
253
 73
-254
  0
VERTEX
  8
Layer0
10
0.0
 20
 0.0
 30
0.0
 70
     128
 71
-16
 72
254
 73
-255
  0
VERTEX
  8
Layer0
10
0.0
 20
 0.0
 30
0.0
 70
     128
 71
-16
 72
255
 73
-256
  0
VERTEX
  8
Layer0
10
0.0
 20
 0.0
 30
0.0
 70
     128
 71
-16
 72
256
 73
-257
  0
VERTEX
  8
Layer0
10
0.0
 20
 0.0
 30
0.0
 70
     128
 71
-16
 72
257
 73
-23
  0
VERTEX
  8
Layer0
10
0.0
 20
 0.0
 30
0.0
 70
     128
 71
-252
 72
-226
 73
258
  0
VERTEX
  8
Layer0
10
0.0
 20
 0.0
 30
0.0
 70
     128
 71
-258
 72
-226
 73
259
  0
VERTEX
  8
Layer0
10
0.0
 20
 0.0
 30
0.0
 70
     128
 71
-259
 72
-226
 73
260
  0
VERTEX
  8
Layer0
10
0.0
 20
 0.0
 30
0.0
 70
     128
 71
-260
 72
-226
 73
261
  0
VERTEX
  8
Layer0
10
0.0
 20
 0.0
 30
0.0
 70
     128
 71
-261
 72
-226
 73
262
  0
VERTEX
  8
Layer0
10
0.0
 20
 0.0
 30
0.0
 70
     128
 71
-262
 72
-226
 73
30
  0
VERTEX
  8
Layer0
10
0.0
 20
 0.0
 30
0.0
 70
     128
 71
-30
 72
-226
 73
-263
  0
VERTEX
  8
Layer0
10
0.0
 20
 0.0
 30
0.0
 70
     128
 71
-30
 72
263
 73
-264
  0
VERTEX
  8
Layer0
10
0.0
 20
 0.0
 30
0.0
 70
     128
 71
-30
 72
-264
 73
-18
  0
VERTEX
  8
Layer0
10
0.0
 20
 0.0
 30
0.0
 70
     128
 71
-18
 72
264
 73
-123
  0
VERTEX
  8
Layer0
10
0.0
 20
 0.0
 30
0.0
 70
     128
 71
-263
 72
-226
 73
265
  0
VERTEX
  8
Layer0
10
0.0
 20
 0.0
 30
0.0
 70
     128
 71
-265
 72
-226
 73
266
  0
VERTEX
  8
Layer0
10
0.0
 20
 0.0
 30
0.0
 70
     128
 71
-266
 72
-226
 73
267
  0
VERTEX
  8
Layer0
10
0.0
 20
 0.0
 30
0.0
 70
     128
 71
-267
 72
-226
 73
268
  0
VERTEX
  8
Layer0
10
0.0
 20
 0.0
 30
0.0
 70
     128
 71
-268
 72
-226
 73
269
  0
VERTEX
  8
Layer0
10
0.0
 20
 0.0
 30
0.0
 70
     128
 71
-269
 72
-226
 73
270
  0
VERTEX
  8
Layer0
10
0.0
 20
 0.0
 30
0.0
 70
     128
 71
-270
 72
-226
 73
271
  0
VERTEX
  8
Layer0
10
0.0
 20
 0.0
 30
0.0
 70
     128
 71
-271
 72
-226
 73
272
  0
VERTEX
  8
Layer0
10
0.0
 20
 0.0
 30
0.0
 70
     128
 71
-272
 72
-226
 73
273
  0
VERTEX
  8
Layer0
10
0.0
 20
 0.0
 30
0.0
 70
     128
 71
-273
 72
-226
 73
198
  0
VERTEX
  8
Layer0
10
0.0
 20
 0.0
 30
0.0
 70
     128
 71
-198
 72
-226
 73
-178
  0
VERTEX
  8
Layer0
10
0.0
 20
 0.0
 30
0.0
 70
     128
 71
-178
 72
-226
 73
-149
  0
VERTEX
  8
Layer0
10
0.0
 20
 0.0
 30
0.0
 70
     128
 71
-149
 72
-226
 73
-199
  0
VERTEX
  8
Layer0
10
0.0
 20
 0.0
 30
0.0
 70
     128
 71
-149
 72
199
 73
-274
  0
VERTEX
  8
Layer0
10
0.0
 20
 0.0
 30
0.0
 70
     128
 71
-149
 72
274
 73
-275
  0
VERTEX
  8
Layer0
10
0.0
 20
 0.0
 30
0.0
 70
     128
 71
-149
 72
275
 73
-276
  0
VERTEX
  8
Layer0
10
0.0
 20
 0.0
 30
0.0
 70
     128
 71
-149
 72
276
 73
-277
  0
VERTEX
  8
Layer0
10
0.0
 20
 0.0
 30
0.0
 70
     128
 71
-149
 72
277
 73
-278
  0
VERTEX
  8
Layer0
10
0.0
 20
 0.0
 30
0.0
 70
     128
 71
-149
 72
-278
 73
240
  0
VERTEX
  8
Layer0
10
0.0
 20
 0.0
 30
0.0
 70
     128
 71
-240
 72
278
 73
-279
  0
VERTEX
  8
Layer0
10
0.0
 20
 0.0
 30
0.0
 70
     128
 71
-240
 72
279
 73
-280
  0
VERTEX
  8
Layer0
10
0.0
 20
 0.0
 30
0.0
 70
     128
 71
-240
 72
280
 73
-281
  0
VERTEX
  8
Layer0
10
0.0
 20
 0.0
 30
0.0
 70
     128
 71
-240
 72
281
 73
-282
  0
VERTEX
  8
Layer0
10
0.0
 20
 0.0
 30
0.0
 70
     128
 71
-240
 72
282
 73
-283
  0
VERTEX
  8
Layer0
10
0.0
 20
 0.0
 30
0.0
 70
     128
 71
-240
 72
283
 73
-284
  0
VERTEX
  8
Layer0
10
0.0
 20
 0.0
 30
0.0
 70
     128
 71
-240
 72
284
 73
-224
  0
VERTEX
  8
Layer0
10
0.0
 20
 0.0
 30
0.0
 70
     128
 71
-240
 72
-224
 73
-225
  0
VERTEX
  8
Layer0
10
0.0
 20
 0.0
 30
0.0
 70
     128
 71
-285
 72
-200
 73
202
  0
VERTEX
  8
Layer0
10
0.0
 20
 0.0
 30
0.0
 70
     128
 71
-200
 72
-285
 73
286
  0
VERTEX
  8
Layer0
10
0.0
 20
 0.0
 30
0.0
 70
     128
 71
-286
 72
285
 73
-287
  0
VERTEX
  8
Layer0
10
0.0
 20
 0.0
 30
0.0
 70
     128
 71
-286
 72
-287
 73
288
  0
VERTEX
  8
Layer0
10
0.0
 20
 0.0
 30
0.0
 70
     128
 71
-288
 72
287
 73
-289
  0
VERTEX
  8
Layer0
10
0.0
 20
 0.0
 30
0.0
 70
     128
 71
-288
 72
-289
 73
290
  0
VERTEX
  8
Layer0
10
0.0
 20
 0.0
 30
0.0
 70
     128
 71
-290
 72
289
 73
-291
  0
VERTEX
  8
Layer0
10
0.0
 20
 0.0
 30
0.0
 70
     128
 71
-290
 72
-291
 73
292
  0
VERTEX
  8
Layer0
10
0.0
 20
 0.0
 30
0.0
 70
     128
 71
-292
 72
291
 73
-293
  0
VERTEX
  8
Layer0
10
0.0
 20
 0.0
 30
0.0
 70
     128
 71
-292
 72
-293
 73
294
  0
VERTEX
  8
Layer0
10
0.0
 20
 0.0
 30
0.0
 70
     128
 71
-294
 72
293
 73
-295
  0
VERTEX
  8
Layer0
10
0.0
 20
 0.0
 30
0.0
 70
     128
 71
-294
 72
-295
 73
296
  0
VERTEX
  8
Layer0
10
0.0
 20
 0.0
 30
0.0
 70
     128
 71
-296
 72
295
 73
-297
  0
VERTEX
  8
Layer0
10
0.0
 20
 0.0
 30
0.0
 70
     128
 71
-296
 72
-297
 73
298
  0
VERTEX
  8
Layer0
10
0.0
 20
 0.0
 30
0.0
 70
     128
 71
-298
 72
297
 73
-299
  0
VERTEX
  8
Layer0
10
0.0
 20
 0.0
 30
0.0
 70
     128
 71
-298
 72
-299
 73
300
  0
VERTEX
  8
Layer0
10
0.0
 20
 0.0
 30
0.0
 70
     128
 71
-300
 72
299
 73
-301
  0
VERTEX
  8
Layer0
10
0.0
 20
 0.0
 30
0.0
 70
     128
 71
-300
 72
-301
 73
302
  0
VERTEX
  8
Layer0
10
0.0
 20
 0.0
 30
0.0
 70
     128
 71
-302
 72
301
 73
-303
  0
VERTEX
  8
Layer0
10
0.0
 20
 0.0
 30
0.0
 70
     128
 71
-302
 72
-303
 73
304
  0
VERTEX
  8
Layer0
10
0.0
 20
 0.0
 30
0.0
 70
     128
 71
-304
 72
303
 73
-305
  0
VERTEX
  8
Layer0
10
0.0
 20
 0.0
 30
0.0
 70
     128
 71
-304
 72
-305
 73
306
  0
VERTEX
  8
Layer0
10
0.0
 20
 0.0
 30
0.0
 70
     128
 71
-306
 72
305
 73
-239
  0
VERTEX
  8
Layer0
10
0.0
 20
 0.0
 30
0.0
 70
     128
 71
-306
 72
-239
 73
225
  0
SEQEND
 0
ENDSEC
 0
EOF
