 0
SECTION
 2
ENTITIES
  0
POLYLINE
 8
Layer0
 66
     1
10
0.0
 20
 0.0
 30
0.0
70
    64
71
300
72
   1
  0
VERTEX
  8
Layer0
10
452.5000053262929
20
236.18226943961838
30
203.87498268457065
 70
     192
  0
VERTEX
  8
Layer0
10
452.56815367073614
20
515.6646377569034
30
203.8749890931995
 70
     192
  0
VERTEX
  8
Layer0
10
452.5000053233145
20
516.1822758471085
30
203.8749890918656
 70
     192
  0
VERTEX
  8
Layer0
10
452.56815367371513
20
236.6999075298238
30
203.8749826859036
 70
     192
  0
VERTEX
  8
Layer0
10
452.7679545157456
20
515.1822758471087
30
203.87498909711525
 70
     192
  0
VERTEX
  8
Layer0
10
452.7679545187246
20
237.18226943961815
30
203.87498268981867
 70
     192
  0
VERTEX
  8
Layer0
10
453.0857917609414
20
514.7680622847354
30
203.8749891033465
 70
     192
  0
VERTEX
  8
Layer0
10
453.0857917639207
20
237.5964830019919
30
203.8749826960495
 70
     192
  0
VERTEX
  8
Layer0
10
453.5000053233141
20
514.4502250395398
30
203.87498911147406
 70
     192
  0
VERTEX
  8
Layer0
10
453.5000053262936
20
237.91432024718713
30
203.87498270417677
 70
     192
  0
VERTEX
  8
Layer0
10
453.9823672331093
20
514.2504241945303
30
203.8749891209296
 70
     192
  0
VERTEX
  8
Layer0
10
453.9823672360883
20
238.1141210921968
30
203.874982713632
 70
     192
  0
VERTEX
  8
Layer0
10
454.50000532331387
20
514.1822758471086
30
203.87498913108013
 70
     192
  0
VERTEX
  8
Layer0
10
454.5000053262934
20
238.1822694396188
30
203.8749827237834
 70
     192
  0
VERTEX
  8
Layer0
10
455.01764341351947
20
514.2504241945303
30
203.87498914122568
 70
     192
  0
VERTEX
  8
Layer0
10
455.01764341649846
20
238.114121092197
30
203.8749827339282
 70
     192
  0
VERTEX
  8
Layer0
10
455.500005323314
20
514.4502250395398
30
203.87498915068304
 70
     192
  0
VERTEX
  8
Layer0
10
455.5000053262935
20
237.91432024718713
30
203.87498274338577
 70
     192
  0
VERTEX
  8
Layer0
10
455.9142188856878
20
514.7680622847354
30
203.87498915880929
 70
     192
  0
VERTEX
  8
Layer0
10
455.9142188886667
20
237.5964830019919
30
203.87498275151196
 70
     192
  0
VERTEX
  8
Layer0
10
456.2320561308835
20
515.1822758471087
30
203.87498916504032
 70
     192
  0
VERTEX
  8
Layer0
10
456.2320561338625
20
237.18226943961815
30
203.87498275774382
 70
     192
  0
VERTEX
  8
Layer0
10
456.43185697589445
20
515.6646377569034
30
203.87498916895774
 70
     192
  0
VERTEX
  8
Layer0
10
456.43185697887304
20
236.6999075298238
30
203.8749827616618
 70
     192
  0
VERTEX
  8
Layer0
10
456.5000053233165
20
516.1822758471085
30
203.8749891702888
 70
     192
  0
VERTEX
  8
Layer0
10
456.5000053262945
20
236.18226943961838
30
203.87498276299343
 70
     192
  0
VERTEX
  8
Layer0
10
264.14214095002774
20
236.18226943962085
30
203.87498576702458
 70
     192
  0
VERTEX
  8
Layer0
10
264.2102892944702
20
515.6646377569051
30
203.87499217565423
 70
     192
  0
VERTEX
  8
Layer0
10
264.14214094704823
20
516.1822758471102
30
203.8749921743169
 70
     192
  0
VERTEX
  8
Layer0
10
264.21028929744983
20
236.69990752982645
30
203.8749857683608
 70
     192
  0
VERTEX
  8
Layer0
10
264.41009013947934
20
515.18227584711
30
203.87499217956707
 70
     192
  0
VERTEX
  8
Layer0
10
264.4100901424589
20
237.1822694396208
30
203.87498577227305
 70
     192
  0
VERTEX
  8
Layer0
10
264.7279273846753
20
514.768062284737
30
203.87499218580052
 70
     192
  0
VERTEX
  8
Layer0
10
264.7279273876549
20
237.5964830019944
30
203.87498577850604
 70
     192
  0
VERTEX
  8
Layer0
10
265.1421409470483
20
514.450225039541
30
203.87499219392654
 70
     192
  0
VERTEX
  8
Layer0
10
265.14214095002785
20
237.91432024719018
30
203.87498578663178
 70
     192
  0
VERTEX
  8
Layer0
10
265.6245028568434
20
514.2504241945319
30
203.8749922033842
 70
     192
  0
VERTEX
  8
Layer0
10
265.624502859823
20
238.11412109219893
30
203.87498579609007
 70
     192
  0
VERTEX
  8
Layer0
10
266.14214094704846
20
514.1822758471098
30
203.87499221353292
 70
     192
  0
VERTEX
  8
Layer0
10
266.14214095002797
20
238.18226943962077
30
203.8749858062379
 70
     192
  0
VERTEX
  8
Layer0
10
266.65977903725354
20
514.2504241945319
30
203.8749922236749
 70
     192
  0
VERTEX
  8
Layer0
10
266.65977904023316
20
238.11412109219893
30
203.8749858163808
 70
     192
  0
VERTEX
  8
Layer0
10
267.1421409470486
20
514.450225039541
30
203.87499223314035
 70
     192
  0
VERTEX
  8
Layer0
10
267.14214095002797
20
237.91432024718964
30
203.8749858258456
 70
     192
  0
VERTEX
  8
Layer0
10
267.5563545094217
20
514.7680622847369
30
203.8749922412625
 70
     192
  0
VERTEX
  8
Layer0
10
267.55635451240124
20
237.59648300199385
30
203.87498583396837
 70
     192
  0
VERTEX
  8
Layer0
10
267.87419175461736
20
515.18227584711
30
203.874992247493
 70
     192
  0
VERTEX
  8
Layer0
10
267.87419175759715
20
237.18226943962134
30
203.8749858401994
 70
     192
  0
VERTEX
  8
Layer0
10
268.07399259962676
20
515.664637756905
30
203.87499225140996
 70
     192
  0
VERTEX
  8
Layer0
10
268.0739926026063
20
236.6999075298259
30
203.87498584411645
 70
     192
  0
VERTEX
  8
Layer0
10
268.1421409470486
20
516.1822758471101
30
203.8749922527416
 70
     192
  0
VERTEX
  8
Layer0
10
268.1421409500282
20
236.1822694396214
30
203.8749858454489
 70
     192
  0
VERTEX
  8
Layer0
10
222.000005326297
20
266.18226943962134
30
203.87498494072
 70
     192
  0
VERTEX
  8
Layer0
10
230.00000532629699
20
270.3244050633518
30
203.87498509756796
 70
     192
  0
VERTEX
  8
Layer0
10
230.00000532331725
20
376.15706010717497
30
203.87499150496564
 70
     192
  0
VERTEX
  8
Layer0
10
230.06815367371897
20
269.8067669731467
30
203.87498509891176
 70
     192
  0
VERTEX
  8
Layer0
10
230.26795451872812
20
269.3244050633518
30
203.87498510282714
 70
     192
  0
VERTEX
  8
Layer0
10
262.00000532629696
20
226.18226943962077
30
203.87498572502977
 70
     192
  0
VERTEX
  8
Layer0
10
230.58579176392402
20
268.9101915009787
30
203.87498510906255
 70
     192
  0
VERTEX
  8
Layer0
10
231.00000532629718
20
268.592354255783
30
203.87498511718013
 70
     192
  0
VERTEX
  8
Layer0
10
231.48236723609185
20
268.3925534107737
30
203.8749851266371
 70
     192
  0
VERTEX
  8
Layer0
10
232.0000053262969
20
268.32440506335183
30
203.87498513679
 70
     192
  0
VERTEX
  8
Layer0
10
232.5176434165021
20
268.3925534107737
30
203.87498514693746
 70
     192
  0
VERTEX
  8
Layer0
10
233.0000053262972
20
268.59235425578345
30
203.87498515639749
 70
     192
  0
VERTEX
  8
Layer0
10
233.41421888867023
20
268.9101915009787
30
203.87498516451527
 70
     192
  0
VERTEX
  8
Layer0
10
233.73205613386617
20
269.3244050633518
30
203.87498517074633
 70
     192
  0
VERTEX
  8
Layer0
10
233.9318569788753
20
269.8067669731467
30
203.87498517466477
 70
     192
  0
VERTEX
  8
Layer0
10
234.00000532629696
20
270.3244050633518
30
203.87498517600383
 70
     192
  0
VERTEX
  8
Layer0
10
262.00000532331757
20
526.1822758471101
30
203.87499213231058
 70
     192
  0
VERTEX
  8
Layer0
10
264.21028929447016
20
516.6999139373152
30
203.87499217565355
 70
     192
  0
VERTEX
  8
Layer0
10
264.4100901394793
20
517.1822758471103
30
203.87499217956588
 70
     192
  0
VERTEX
  8
Layer0
10
264.72792738467524
20
517.5964894094833
30
203.87499218579876
 70
     192
  0
VERTEX
  8
Layer0
10
265.1421409470483
20
517.9143266546789
30
203.87499219392447
 70
     192
  0
VERTEX
  8
Layer0
10
265.6245028568434
20
518.1141274996884
30
203.8749922033816
 70
     192
  0
VERTEX
  8
Layer0
10
266.1421409470485
20
518.1822758471101
30
203.87499221353062
 70
     192
  0
VERTEX
  8
Layer0
10
647.0000053233114
20
526.1822758471085
30
203.87499327359686
 70
     192
  0
VERTEX
  8
Layer0
10
266.6597790372535
20
518.1141274996884
30
203.87499222367262
 70
     192
  0
VERTEX
  8
Layer0
10
267.14214094704846
20
517.9143266546789
30
203.8749922331384
 70
     192
  0
VERTEX
  8
Layer0
10
267.5563545094216
20
517.5964894094832
30
203.8749922412599
 70
     192
  0
VERTEX
  8
Layer0
10
267.8741917546174
20
517.1822758471102
30
203.87499224749183
 70
     192
  0
VERTEX
  8
Layer0
10
268.07399259962665
20
516.6999139373152
30
203.8749922514093
 70
     192
  0
VERTEX
  8
Layer0
10
454.5000053233144
20
518.1822758471088
30
203.87498913107768
 70
     192
  0
VERTEX
  8
Layer0
10
453.9823672331093
20
518.1141274996868
30
203.87498912092727
 70
     192
  0
VERTEX
  8
Layer0
10
453.5000053233137
20
517.9143266546777
30
203.87498911147208
 70
     192
  0
VERTEX
  8
Layer0
10
453.0857917609412
20
517.5964894094817
30
203.8749891033449
 70
     192
  0
VERTEX
  8
Layer0
10
452.7679545157456
20
517.1822758471086
30
203.8749890971151
 70
     192
  0
VERTEX
  8
Layer0
10
452.56815367073614
20
516.6999139373136
30
203.87498909319987
 70
     192
  0
VERTEX
  8
Layer0
10
455.01764341351947
20
518.1141274996868
30
203.87498914122344
 70
     192
  0
VERTEX
  8
Layer0
10
455.500005323314
20
517.9143266546777
30
203.87498915068096
 70
     192
  0
VERTEX
  8
Layer0
10
455.9142188856876
20
517.5964894094817
30
203.87498915880735
 70
     192
  0
VERTEX
  8
Layer0
10
456.2320561308835
20
517.1822758471086
30
203.87498916503924
 70
     192
  0
VERTEX
  8
Layer0
10
456.43185697589445
20
516.6999139373136
30
203.87498916895714
 70
     192
  0
VERTEX
  8
Layer0
10
641.1258188920117
20
517.1822758471086
30
203.8749931584237
 70
     192
  0
VERTEX
  8
Layer0
10
640.9260180470015
20
516.6999139373135
30
203.8749931545085
 70
     192
  0
VERTEX
  8
Layer0
10
640.8578696995805
20
516.1822758471084
30
203.8749931531754
 70
     192
  0
VERTEX
  8
Layer0
10
641.4436561372077
20
517.5964894094816
30
203.8749931646547
 70
     192
  0
VERTEX
  8
Layer0
10
641.8578696995796
20
517.9143266546774
30
203.87499317278161
 70
     192
  0
VERTEX
  8
Layer0
10
642.3402316093755
20
518.1141274996867
30
203.87499318223573
 70
     192
  0
VERTEX
  8
Layer0
10
642.8578696995794
20
518.1822758471085
30
203.8749931923886
 70
     192
  0
VERTEX
  8
Layer0
10
643.3755077897855
20
518.1141274996867
30
203.87499320253272
 70
     192
  0
VERTEX
  8
Layer0
10
643.8578696995792
20
517.9143266546774
30
203.87499321198885
 70
     192
  0
VERTEX
  8
Layer0
10
644.2720832619533
20
517.5964894094816
30
203.87499322011618
 70
     192
  0
VERTEX
  8
Layer0
10
644.5899205071493
20
517.1822758471086
30
203.87499322634727
 70
     192
  0
VERTEX
  8
Layer0
10
644.7897213521574
20
516.6999139373135
30
203.87499323026222
 70
     192
  0
VERTEX
  8
Layer0
10
644.8578696995804
20
516.1822758471084
30
203.8749932316015
 70
     192
  0
VERTEX
  8
Layer0
10
640.867392073447
20
235.9873366101582
30
203.87498674606357
 70
     192
  0
VERTEX
  8
Layer0
10
640.9260180470015
20
515.6646377569035
30
203.87499315450918
 70
     192
  0
VERTEX
  8
Layer0
10
640.8738815021209
20
236.1822694396185
30
203.87498674619016
 70
     192
  0
VERTEX
  8
Layer0
10
640.8847636251691
20
236.5091523045162
30
203.87498674640148
 70
     192
  0
VERTEX
  8
Layer0
10
641.0365990953534
20
237.00869147183082
30
203.87498674937876
 70
     192
  0
VERTEX
  8
Layer0
10
641.1258188920117
20
515.1822758471085
30
203.87499315842393
 70
     192
  0
VERTEX
  8
Layer0
10
641.3125511476269
20
237.4519113433765
30
203.87498675479182
 70
     192
  0
VERTEX
  8
Layer0
10
641.4436561372066
20
514.7680622847354
30
203.87499316465733
 70
     192
  0
VERTEX
  8
Layer0
10
641.6938141056594
20
237.80860721736406
30
203.87498676226159
 70
     192
  0
VERTEX
  8
Layer0
10
641.8578696995808
20
514.4502250395395
30
203.87499317278355
 70
     192
  0
VERTEX
  8
Layer0
10
642.154405528928
20
238.0544708594491
30
203.87498677129676
 70
     192
  0
VERTEX
  8
Layer0
10
642.3402316093755
20
514.2504241945303
30
203.87499318223897
 70
     192
  0
VERTEX
  8
Layer0
10
642.6629368730997
20
238.1727470687307
30
203.87498678126573
 70
     192
  0
VERTEX
  8
Layer0
10
642.8578696995805
20
514.1822758471085
30
203.87499319239026
 70
     192
  0
VERTEX
  8
Layer0
10
643.1847525674578
20
238.15537551700908
30
203.87498679149746
 70
     192
  0
VERTEX
  8
Layer0
10
643.3755077897855
20
514.2504241945303
30
203.87499320253596
 70
     192
  0
VERTEX
  8
Layer0
10
643.6842917347722
20
238.0035400468249
30
203.87498680129147
 70
     192
  0
VERTEX
  8
Layer0
10
643.8578696995803
20
514.4502250395396
30
203.87499321199087
 70
     192
  0
VERTEX
  8
Layer0
10
644.1275116063184
20
237.7275879945514
30
203.8749868099821
 70
     192
  0
VERTEX
  8
Layer0
10
644.2720832619523
20
514.7680622847354
30
203.87499322011874
 70
     192
  0
VERTEX
  8
Layer0
10
644.2607612128832
20
237.58516094994243
30
203.87498681259686
 70
     192
  0
VERTEX
  8
Layer0
10
644.4842074803057
20
237.34632503651838
30
203.87498681697707
 70
     192
  0
VERTEX
  8
Layer0
10
644.5899205071493
20
515.1822758471085
30
203.87499322634736
 70
     192
  0
VERTEX
  8
Layer0
10
644.7300711223904
20
236.88573361325052
30
203.87498682180075
 70
     192
  0
VERTEX
  8
Layer0
10
644.7897213521574
20
515.6646377569035
30
203.87499323026282
 70
     192
  0
VERTEX
  8
Layer0
10
644.8483473316726
20
236.37720226907808
30
203.87498682411206
 70
     192
  0
VERTEX
  8
Layer0
10
675.0000053262897
20
270.3244050633494
30
203.87498741528105
 70
     192
  0
VERTEX
  8
Layer0
10
675.0681536707317
20
375.6646345531582
30
203.87499382401896
 70
     192
  0
VERTEX
  8
Layer0
10
675.0000053233111
20
376.18227264336326
30
203.8749938226809
 70
     192
  0
VERTEX
  8
Layer0
10
675.0681536737125
20
270.84204315355447
30
203.8749874166182
 70
     192
  0
VERTEX
  8
Layer0
10
675.2679545157423
20
375.18227264336304
30
203.87499382794059
 70
     192
  0
VERTEX
  8
Layer0
10
675.2679545187219
20
271.32440506334933
30
203.87498742053972
 70
     192
  0
VERTEX
  8
Layer0
10
675.5857917609379
20
374.76805908098993
30
203.8749938341702
 70
     192
  0
VERTEX
  8
Layer0
10
675.5857917639175
20
271.73861862572244
30
203.87498742676883
 70
     192
  0
VERTEX
  8
Layer0
10
676.0000053233109
20
374.45022183579397
30
203.8749938422893
 70
     192
  0
VERTEX
  8
Layer0
10
676.0000053262905
20
272.05645587091817
30
203.87498743488752
 70
     192
  0
VERTEX
  8
Layer0
10
676.4823672331061
20
374.25042099078485
30
203.87499385174493
 70
     192
  0
VERTEX
  8
Layer0
10
676.4823672360845
20
272.25625671592803
30
203.87498744434293
 70
     192
  0
VERTEX
  8
Layer0
10
677.000005323311
20
374.18227264336304
30
203.87499386189972
 70
     192
  0
VERTEX
  8
Layer0
10
677.0000053262906
20
272.32440506334933
30
203.8749874544976
 70
     192
  0
VERTEX
  8
Layer0
10
677.5176434135161
20
374.25042099078485
30
203.87499387205204
 70
     192
  0
VERTEX
  8
Layer0
10
677.5176434164947
20
272.25625671592746
30
203.87498746465005
 70
     192
  0
VERTEX
  8
Layer0
10
678.0000053233113
20
374.4502218357942
30
203.87499388150684
 70
     192
  0
VERTEX
  8
Layer0
10
678.0000053262904
20
272.05645587091817
30
203.87498747410504
 70
     192
  0
VERTEX
  8
Layer0
10
678.4142188856842
20
374.76805908099
30
203.87499388962314
 70
     192
  0
VERTEX
  8
Layer0
10
678.4142188886639
20
271.7386186257231
30
203.87498748222183
 70
     192
  0
VERTEX
  8
Layer0
10
678.7320561308799
20
375.1822726433629
30
203.87499389585514
 70
     192
  0
VERTEX
  8
Layer0
10
678.7320561338595
20
271.32440506334956
30
203.87498748845317
 70
     192
  0
VERTEX
  8
Layer0
10
678.9318569758882
20
375.664634553158
30
203.8749938997793
 70
     192
  0
VERTEX
  8
Layer0
10
678.931856978869
20
270.8420431535552
30
203.87498749237804
 70
     192
  0
VERTEX
  8
Layer0
10
679.000005323311
20
376.1822726433628
30
203.87499390111284
 70
     192
  0
VERTEX
  8
Layer0
10
679.0000053262895
20
270.32440506334956
30
203.87498749371315
 70
     192
  0
VERTEX
  8
Layer0
10
679.0000053233111
20
482.0401402233772
30
203.87499390105015
 70
     192
  0
VERTEX
  8
Layer0
10
647.0000053262906
20
226.1822694396179
30
203.87498686630968
 70
     192
  0
VERTEX
  8
Layer0
10
675.0681536737125
20
269.80676697314436
30
203.87498741661878
 70
     192
  0
VERTEX
  8
Layer0
10
675.2679545187219
20
269.3244050633493
30
203.87498742054075
 70
     192
  0
VERTEX
  8
Layer0
10
675.5857917639175
20
268.9101915009762
30
203.87498742677045
 70
     192
  0
VERTEX
  8
Layer0
10
676.0000053262905
20
268.59235425578044
30
203.8749874348896
 70
     192
  0
VERTEX
  8
Layer0
10
676.4823672360845
20
268.39255341077114
30
203.87498744434524
 70
     192
  0
VERTEX
  8
Layer0
10
687.0000053262917
20
266.18226943961844
30
203.8749876505669
 70
     192
  0
VERTEX
  8
Layer0
10
677.0000053262906
20
268.32440506334933
30
203.87498745449997
 70
     192
  0
VERTEX
  8
Layer0
10
677.5176434164947
20
268.39255341077114
30
203.87498746465235
 70
     192
  0
VERTEX
  8
Layer0
10
678.0000053262908
20
268.59235425578044
30
203.87498747410703
 70
     192
  0
VERTEX
  8
Layer0
10
678.4142188886639
20
268.91019150097674
30
203.87498748222345
 70
     192
  0
VERTEX
  8
Layer0
10
678.7320561338595
20
269.32440506334945
30
203.87498748845533
 70
     192
  0
VERTEX
  8
Layer0
10
678.931856978869
20
269.8067669731449
30
203.8749874923796
 70
     192
  0
VERTEX
  8
Layer0
10
687.0000053233123
20
486.1822758471083
30
203.8749940579001
 70
     192
  0
VERTEX
  8
Layer0
10
264.2102892974497
20
235.6646313494163
30
203.87498576836137
 70
     192
  0
VERTEX
  8
Layer0
10
264.41009014245884
20
235.1822694396207
30
203.87498577227433
 70
     192
  0
VERTEX
  8
Layer0
10
264.7279273876548
20
234.7680558772482
30
203.8749857785066
 70
     192
  0
VERTEX
  8
Layer0
10
265.1421409500279
20
234.45021863205224
30
203.87498578663372
 70
     192
  0
VERTEX
  8
Layer0
10
265.62450285982294
20
234.25041778704258
30
203.87498579609135
 70
     192
  0
VERTEX
  8
Layer0
10
266.142140950028
20
234.18226943962057
30
203.87498580624114
 70
     192
  0
VERTEX
  8
Layer0
10
266.65977904023305
20
234.25041778704258
30
203.874985816382
 70
     192
  0
VERTEX
  8
Layer0
10
267.1421409500282
20
234.4502186320517
30
203.8749858258476
 70
     192
  0
VERTEX
  8
Layer0
10
267.5563545124012
20
234.76805587724766
30
203.874985833969
 70
     192
  0
VERTEX
  8
Layer0
10
267.8741917575969
20
235.18226943962125
30
203.87498584020062
 70
     192
  0
VERTEX
  8
Layer0
10
268.0739926026063
20
235.66463134941577
30
203.8749858441171
 70
     192
  0
VERTEX
  8
Layer0
10
454.5000053262934
20
234.18226943961884
30
203.87498272378474
 70
     192
  0
VERTEX
  8
Layer0
10
453.9823672360877
20
234.25041778704065
30
203.87498271363526
 70
     192
  0
VERTEX
  8
Layer0
10
453.5000053262936
20
234.4502186320494
30
203.87498270417885
 70
     192
  0
VERTEX
  8
Layer0
10
453.08579176392
20
234.76805587724573
30
203.87498269605126
 70
     192
  0
VERTEX
  8
Layer0
10
452.7679545187246
20
235.18226943961824
30
203.8749826898199
 70
     192
  0
VERTEX
  8
Layer0
10
452.56815367371547
20
235.66463134941384
30
203.87498268590426
 70
     192
  0
VERTEX
  8
Layer0
10
455.0176434164979
20
234.25041778704065
30
203.87498273393143
 70
     192
  0
VERTEX
  8
Layer0
10
455.5000053262935
20
234.4502186320494
30
203.87498274338768
 70
     192
  0
VERTEX
  8
Layer0
10
455.914218888666
20
234.76805587724573
30
203.87498275151395
 70
     192
  0
VERTEX
  8
Layer0
10
456.2320561338625
20
235.18226943961824
30
203.87498275774504
 70
     192
  0
VERTEX
  8
Layer0
10
456.43185697887344
20
235.66463134941384
30
203.87498276166244
 70
     192
  0
VERTEX
  8
Layer0
10
641.2315319248136
20
235.0182138427179
30
203.87498675319915
 70
     192
  0
VERTEX
  8
Layer0
10
640.9856682827292
20
235.47880526598578
30
203.87498674838068
 70
     192
  0
VERTEX
  8
Layer0
10
641.5882277988013
20
234.63695088468486
30
203.874986760199
 70
     192
  0
VERTEX
  8
Layer0
10
642.0314476703475
20
234.36099883241155
30
203.87498676888848
 70
     192
  0
VERTEX
  8
Layer0
10
642.5309868376621
20
234.20916336222723
30
203.8749867786829
 70
     192
  0
VERTEX
  8
Layer0
10
643.0528025320189
20
234.1917918105056
30
203.8749867889108
 70
     192
  0
VERTEX
  8
Layer0
10
643.561333876192
20
234.31006801978717
30
203.87498679888347
 70
     192
  0
VERTEX
  8
Layer0
10
644.0219252994602
20
234.55593166187222
30
203.8749868079164
 70
     192
  0
VERTEX
  8
Layer0
10
644.4031882574924
20
234.91262753585977
30
203.87498681538696
 70
     192
  0
VERTEX
  8
Layer0
10
644.6791403097659
20
235.35584740740546
30
203.874986820802
 70
     192
  0
VERTEX
  8
Layer0
10
644.8309757799502
20
235.8553865747201
30
203.87498682377466
 70
     192
  0
VERTEX
  8
Layer0
10
675.0000053233114
20
482.04014022337736
30
203.87499382261907
 70
     192
  0
VERTEX
  8
Layer0
10
675.068153670733
20
482.55777831358245
30
203.87499382395663
 70
     192
  0
VERTEX
  8
Layer0
10
675.2679545157414
20
483.04014022337736
30
203.87499382787774
 70
     192
  0
VERTEX
  8
Layer0
10
675.585791760938
20
483.4543537857504
30
203.87499383410685
 70
     192
  0
VERTEX
  8
Layer0
10
676.0000053233111
20
483.77219103094615
30
203.87499384222556
 70
     192
  0
VERTEX
  8
Layer0
10
676.4823672331062
20
483.97199187595544
30
203.874993851681
 70
     192
  0
VERTEX
  8
Layer0
10
677.0000053233113
20
484.0401402233773
30
203.87499386183563
 70
     192
  0
VERTEX
  8
Layer0
10
677.5176434135163
20
483.97199187595544
30
203.87499387198807
 70
     192
  0
VERTEX
  8
Layer0
10
678.000005323311
20
483.77219103094615
30
203.87499388144312
 70
     192
  0
VERTEX
  8
Layer0
10
678.4142188856845
20
483.4543537857504
30
203.87499388955985
 70
     192
  0
VERTEX
  8
Layer0
10
678.732056130879
20
483.04014022337736
30
203.87499389579258
 70
     192
  0
VERTEX
  8
Layer0
10
678.9318569758896
20
482.5577783135823
30
203.87499389971708
 70
     192
  0
VERTEX
  8
Layer0
10
675.0681536707317
20
376.69991073356834
30
203.8749938240184
 70
     192
  0
VERTEX
  8
Layer0
10
675.068153670733
20
481.5225021331725
30
203.87499382395717
 70
     192
  0
VERTEX
  8
Layer0
10
675.2679545157423
20
377.1822726433631
30
203.87499382793942
 70
     192
  0
VERTEX
  8
Layer0
10
675.2679545157425
20
481.04014022337736
30
203.87499382787877
 70
     192
  0
VERTEX
  8
Layer0
10
675.5857917609368
20
377.59648620573614
30
203.87499383416866
 70
     192
  0
VERTEX
  8
Layer0
10
675.585791760938
20
480.62592666100437
30
203.87499383410847
 70
     192
  0
VERTEX
  8
Layer0
10
676.0000053233109
20
377.91432345093165
30
203.87499384228735
 70
     192
  0
VERTEX
  8
Layer0
10
676.0000053233111
20
480.3080894158084
30
203.87499384222764
 70
     192
  0
VERTEX
  8
Layer0
10
676.4823672331061
20
378.1141242959412
30
203.8749938517427
 70
     192
  0
VERTEX
  8
Layer0
10
676.4823672331062
20
480.10828857079923
30
203.87499385168326
 70
     192
  0
VERTEX
  8
Layer0
10
677.000005323311
20
378.18227264336304
30
203.87499386189745
 70
     192
  0
VERTEX
  8
Layer0
10
677.0000053233113
20
480.04014022337736
30
203.874993861838
 70
     192
  0
VERTEX
  8
Layer0
10
677.5176434135161
20
378.1141242959412
30
203.8749938720498
 70
     192
  0
VERTEX
  8
Layer0
10
677.5176434135163
20
480.10828857079923
30
203.8749938719903
 70
     192
  0
VERTEX
  8
Layer0
10
678.0000053233108
20
377.9143234509319
30
203.8749938815048
 70
     192
  0
VERTEX
  8
Layer0
10
678.0000053233114
20
480.3080894158085
30
203.8749938814451
 70
     192
  0
VERTEX
  8
Layer0
10
678.4142188856832
20
377.5964862057361
30
203.87499388962152
 70
     192
  0
VERTEX
  8
Layer0
10
678.4142188856845
20
480.6259266610042
30
203.87499388956147
 70
     192
  0
VERTEX
  8
Layer0
10
678.7320561308799
20
377.18227264336304
30
203.874993895854
 70
     192
  0
VERTEX
  8
Layer0
10
678.73205613088
20
481.04014022337725
30
203.87499389579372
 70
     192
  0
VERTEX
  8
Layer0
10
678.9318569758893
20
376.6999107335682
30
203.87499389977776
 70
     192
  0
VERTEX
  8
Layer0
10
678.9318569758896
20
481.52250213317234
30
203.87499389971762
 70
     192
  0
VERTEX
  8
Layer0
10
230.00332461667713
20
376.1822726433654
30
203.8749915050333
 70
     192
  0
VERTEX
  8
Layer0
10
230.00000532331745
20
482.0401402233796
30
203.87499150490166
 70
     192
  0
VERTEX
  8
Layer0
10
230.06815367073946
20
481.5225021331745
30
203.8749915062458
 70
     192
  0
VERTEX
  8
Layer0
10
230.06815367073895
20
376.67469819738
30
203.8749915063088
 70
     192
  0
VERTEX
  8
Layer0
10
230.26795451574836
20
377.1570601071749
30
203.8749915102246
 70
     192
  0
VERTEX
  8
Layer0
10
230.26795451574858
20
481.0401402233794
30
203.87499151016118
 70
     192
  0
VERTEX
  8
Layer0
10
230.58579176094398
20
377.57127366954796
30
203.8749915164576
 70
     192
  0
VERTEX
  8
Layer0
10
230.58579176094452
20
480.62592666100636
30
203.87499151639565
 70
     192
  0
VERTEX
  8
Layer0
10
231.00000532331703
20
377.889110914744
30
203.87499152457573
 70
     192
  0
VERTEX
  8
Layer0
10
231.00000532331757
20
480.3080894158105
30
203.87499152451383
 70
     192
  0
VERTEX
  8
Layer0
10
231.48236723311214
20
378.0889117597533
30
203.8749915340325
 70
     192
  0
VERTEX
  8
Layer0
10
231.48236723311229
20
480.1082885708013
30
203.87499153397187
 70
     192
  0
VERTEX
  8
Layer0
10
232.00000532331717
20
378.15706010717514
30
203.8749915441854
 70
     192
  0
VERTEX
  8
Layer0
10
232.00000532331734
20
480.04014022337935
30
203.8749915441241
 70
     192
  0
VERTEX
  8
Layer0
10
232.51764341352228
20
378.0889117597533
30
203.87499155433287
 70
     192
  0
VERTEX
  8
Layer0
10
232.51764341352242
20
480.1082885708014
30
203.87499155427219
 70
     192
  0
VERTEX
  8
Layer0
10
233.00000532331734
20
377.889110914744
30
203.87499156379315
 70
     192
  0
VERTEX
  8
Layer0
10
233.00000532331748
20
480.3080894158104
30
203.87499156373116
 70
     192
  0
VERTEX
  8
Layer0
10
233.41421888569042
20
377.57127366954825
30
203.8749915719102
 70
     192
  0
VERTEX
  8
Layer0
10
233.4142188856906
20
480.6259266610065
30
203.87499157184794
 70
     192
  0
VERTEX
  8
Layer0
10
233.73205613088632
20
377.1570601071752
30
203.87499157814312
 70
     192
  0
VERTEX
  8
Layer0
10
233.73205613088655
20
481.0401402233795
30
203.87499157808037
 70
     192
  0
VERTEX
  8
Layer0
10
233.93185697589547
20
376.6746981973803
30
203.87499158206168
 70
     192
  0
VERTEX
  8
Layer0
10
233.9318569758956
20
481.5225021331745
30
203.8749915819985
 70
     192
  0
VERTEX
  8
Layer0
10
233.9966860299574
20
376.1822726433654
30
203.87499158333603
 70
     192
  0
VERTEX
  8
Layer0
10
234.00000532331725
20
482.04014022337964
30
203.87499158333787
 70
     192
  0
VERTEX
  8
Layer0
10
234.00000532331748
20
376.1570601071752
30
203.8749915834017
 70
     192
  0
VERTEX
  8
Layer0
10
230.06815367073895
20
375.6394220169699
30
203.87499150630944
 70
     192
  0
VERTEX
  8
Layer0
10
230.06815367371897
20
270.8420431535568
30
203.8749850989111
 70
     192
  0
VERTEX
  8
Layer0
10
230.26795451574844
20
375.1570601071748
30
203.8749915102247
 70
     192
  0
VERTEX
  8
Layer0
10
230.26795451872812
20
271.3244050633519
30
203.874985102826
 70
     192
  0
VERTEX
  8
Layer0
10
230.58579176094403
20
374.74284654480175
30
203.8749915164593
 70
     192
  0
VERTEX
  8
Layer0
10
230.58579176392408
20
271.73861862572494
30
203.87498510905993
 70
     192
  0
VERTEX
  8
Layer0
10
231.0000053233174
20
374.4250092996061
30
203.8749915245776
 70
     192
  0
VERTEX
  8
Layer0
10
231.00000532629718
20
272.05645587092073
30
203.874985117178
 70
     192
  0
VERTEX
  8
Layer0
10
231.48236723311214
20
374.22520845459667
30
203.8749915340347
 70
     192
  0
VERTEX
  8
Layer0
10
231.48236723609196
20
272.25625671593
30
203.87498512663487
 70
     192
  0
VERTEX
  8
Layer0
10
232.00000532331717
20
374.1570601071747
30
203.87499154418768
 70
     192
  0
VERTEX
  8
Layer0
10
232.00000532629704
20
272.32440506335183
30
203.8749851367877
 70
     192
  0
VERTEX
  8
Layer0
10
232.51764341352228
20
374.22520845459667
30
203.87499155433503
 70
     192
  0
VERTEX
  8
Layer0
10
232.5176434165021
20
272.25625671593
30
203.8749851469351
 70
     192
  0
VERTEX
  8
Layer0
10
233.00000532331734
20
374.4250092996061
30
203.87499156379505
 70
     192
  0
VERTEX
  8
Layer0
10
233.0000053262972
20
272.05645587092124
30
203.87498515639544
 70
     192
  0
VERTEX
  8
Layer0
10
233.41421888569042
20
374.74284654480203
30
203.8749915719118
 70
     192
  0
VERTEX
  8
Layer0
10
233.41421888867023
20
271.73861862572494
30
203.87498516451257
 70
     192
  0
VERTEX
  8
Layer0
10
233.73205613088635
20
375.1570601071751
30
203.87499157814435
 70
     192
  0
VERTEX
  8
Layer0
10
233.73205613386617
20
271.3244050633519
30
203.8749851707451
 70
     192
  0
VERTEX
  8
Layer0
10
233.93185697589547
20
375.6394220169702
30
203.87499158206234
 70
     192
  0
VERTEX
  8
Layer0
10
233.9318569788753
20
270.8420431535568
30
203.87498517466412
 70
     192
  0
VERTEX
  8
Layer0
10
222.0000053233175
20
486.18227584711
30
203.87499134804884
 70
     192
  0
VERTEX
  8
Layer0
10
230.26795451574858
20
483.04014022337935
30
203.87499151016002
 70
     192
  0
VERTEX
  8
Layer0
10
230.06815367073946
20
482.55777831358427
30
203.87499150624524
 70
     192
  0
VERTEX
  8
Layer0
10
230.58579176094452
20
483.4543537857524
30
203.87499151639358
 70
     192
  0
VERTEX
  8
Layer0
10
231.00000532331757
20
483.7721910309483
30
203.87499152451176
 70
     192
  0
VERTEX
  8
Layer0
10
231.48236723311229
20
483.9719918759574
30
203.8749915339686
 70
     192
  0
VERTEX
  8
Layer0
10
232.0000053233174
20
484.04014022337947
30
203.8749915441228
 70
     192
  0
VERTEX
  8
Layer0
10
232.51764341352242
20
483.9719918759574
30
203.87499155426886
 70
     192
  0
VERTEX
  8
Layer0
10
233.00000532331754
20
483.7721910309483
30
203.87499156372922
 70
     192
  0
VERTEX
  8
Layer0
10
233.41421888569053
20
483.4543537857524
30
203.8749915718463
 70
     192
  0
VERTEX
  8
Layer0
10
233.7320561308865
20
483.04014022337935
30
203.87499157807915
 70
     192
  0
VERTEX
  8
Layer0
10
233.9318569758956
20
482.55777831358427
30
203.87499158199782
 70
     192
  0
VERTEX
  8
Layer0
10
0.0
 20
 0.0
 30
0.0
 70
     128
 71
-1
 72
2
 73
-3
  0
VERTEX
  8
Layer0
10
0.0
 20
 0.0
 30
0.0
 70
     128
 71
-2
 72
1
 73
-4
  0
VERTEX
  8
Layer0
10
0.0
 20
 0.0
 30
0.0
 70
     128
 71
-2
 72
-4
 73
5
  0
VERTEX
  8
Layer0
10
0.0
 20
 0.0
 30
0.0
 70
     128
 71
-5
 72
4
 73
-6
  0
VERTEX
  8
Layer0
10
0.0
 20
 0.0
 30
0.0
 70
     128
 71
-5
 72
-6
 73
7
  0
VERTEX
  8
Layer0
10
0.0
 20
 0.0
 30
0.0
 70
     128
 71
-7
 72
6
 73
-8
  0
VERTEX
  8
Layer0
10
0.0
 20
 0.0
 30
0.0
 70
     128
 71
-7
 72
-8
 73
9
  0
VERTEX
  8
Layer0
10
0.0
 20
 0.0
 30
0.0
 70
     128
 71
-9
 72
8
 73
-10
  0
VERTEX
  8
Layer0
10
0.0
 20
 0.0
 30
0.0
 70
     128
 71
-9
 72
-10
 73
11
  0
VERTEX
  8
Layer0
10
0.0
 20
 0.0
 30
0.0
 70
     128
 71
-11
 72
10
 73
-12
  0
VERTEX
  8
Layer0
10
0.0
 20
 0.0
 30
0.0
 70
     128
 71
-11
 72
-12
 73
13
  0
VERTEX
  8
Layer0
10
0.0
 20
 0.0
 30
0.0
 70
     128
 71
-13
 72
12
 73
-14
  0
VERTEX
  8
Layer0
10
0.0
 20
 0.0
 30
0.0
 70
     128
 71
-13
 72
-14
 73
15
  0
VERTEX
  8
Layer0
10
0.0
 20
 0.0
 30
0.0
 70
     128
 71
-15
 72
14
 73
-16
  0
VERTEX
  8
Layer0
10
0.0
 20
 0.0
 30
0.0
 70
     128
 71
-15
 72
-16
 73
17
  0
VERTEX
  8
Layer0
10
0.0
 20
 0.0
 30
0.0
 70
     128
 71
-17
 72
16
 73
-18
  0
VERTEX
  8
Layer0
10
0.0
 20
 0.0
 30
0.0
 70
     128
 71
-17
 72
-18
 73
19
  0
VERTEX
  8
Layer0
10
0.0
 20
 0.0
 30
0.0
 70
     128
 71
-19
 72
18
 73
-20
  0
VERTEX
  8
Layer0
10
0.0
 20
 0.0
 30
0.0
 70
     128
 71
-19
 72
-20
 73
21
  0
VERTEX
  8
Layer0
10
0.0
 20
 0.0
 30
0.0
 70
     128
 71
-21
 72
20
 73
-22
  0
VERTEX
  8
Layer0
10
0.0
 20
 0.0
 30
0.0
 70
     128
 71
-21
 72
-22
 73
23
  0
VERTEX
  8
Layer0
10
0.0
 20
 0.0
 30
0.0
 70
     128
 71
-23
 72
22
 73
-24
  0
VERTEX
  8
Layer0
10
0.0
 20
 0.0
 30
0.0
 70
     128
 71
-23
 72
-24
 73
25
  0
VERTEX
  8
Layer0
10
0.0
 20
 0.0
 30
0.0
 70
     128
 71
-25
 72
24
 73
-26
  0
VERTEX
  8
Layer0
10
0.0
 20
 0.0
 30
0.0
 70
     128
 71
-27
 72
28
 73
-29
  0
VERTEX
  8
Layer0
10
0.0
 20
 0.0
 30
0.0
 70
     128
 71
-28
 72
27
 73
-30
  0
VERTEX
  8
Layer0
10
0.0
 20
 0.0
 30
0.0
 70
     128
 71
-28
 72
-30
 73
31
  0
VERTEX
  8
Layer0
10
0.0
 20
 0.0
 30
0.0
 70
     128
 71
-31
 72
30
 73
-32
  0
VERTEX
  8
Layer0
10
0.0
 20
 0.0
 30
0.0
 70
     128
 71
-31
 72
-32
 73
33
  0
VERTEX
  8
Layer0
10
0.0
 20
 0.0
 30
0.0
 70
     128
 71
-33
 72
32
 73
-34
  0
VERTEX
  8
Layer0
10
0.0
 20
 0.0
 30
0.0
 70
     128
 71
-33
 72
-34
 73
35
  0
VERTEX
  8
Layer0
10
0.0
 20
 0.0
 30
0.0
 70
     128
 71
-35
 72
34
 73
-36
  0
VERTEX
  8
Layer0
10
0.0
 20
 0.0
 30
0.0
 70
     128
 71
-35
 72
-36
 73
37
  0
VERTEX
  8
Layer0
10
0.0
 20
 0.0
 30
0.0
 70
     128
 71
-37
 72
36
 73
-38
  0
VERTEX
  8
Layer0
10
0.0
 20
 0.0
 30
0.0
 70
     128
 71
-37
 72
-38
 73
39
  0
VERTEX
  8
Layer0
10
0.0
 20
 0.0
 30
0.0
 70
     128
 71
-39
 72
38
 73
-40
  0
VERTEX
  8
Layer0
10
0.0
 20
 0.0
 30
0.0
 70
     128
 71
-39
 72
-40
 73
41
  0
VERTEX
  8
Layer0
10
0.0
 20
 0.0
 30
0.0
 70
     128
 71
-41
 72
40
 73
-42
  0
VERTEX
  8
Layer0
10
0.0
 20
 0.0
 30
0.0
 70
     128
 71
-41
 72
-42
 73
43
  0
VERTEX
  8
Layer0
10
0.0
 20
 0.0
 30
0.0
 70
     128
 71
-43
 72
42
 73
-44
  0
VERTEX
  8
Layer0
10
0.0
 20
 0.0
 30
0.0
 70
     128
 71
-43
 72
-44
 73
45
  0
VERTEX
  8
Layer0
10
0.0
 20
 0.0
 30
0.0
 70
     128
 71
-45
 72
44
 73
-46
  0
VERTEX
  8
Layer0
10
0.0
 20
 0.0
 30
0.0
 70
     128
 71
-45
 72
-46
 73
47
  0
VERTEX
  8
Layer0
10
0.0
 20
 0.0
 30
0.0
 70
     128
 71
-47
 72
46
 73
-48
  0
VERTEX
  8
Layer0
10
0.0
 20
 0.0
 30
0.0
 70
     128
 71
-47
 72
-48
 73
49
  0
VERTEX
  8
Layer0
10
0.0
 20
 0.0
 30
0.0
 70
     128
 71
-49
 72
48
 73
-50
  0
VERTEX
  8
Layer0
10
0.0
 20
 0.0
 30
0.0
 70
     128
 71
-49
 72
-50
 73
51
  0
VERTEX
  8
Layer0
10
0.0
 20
 0.0
 30
0.0
 70
     128
 71
-51
 72
50
 73
-52
  0
VERTEX
  8
Layer0
10
0.0
 20
 0.0
 30
0.0
 70
     128
 71
-53
 72
-54
 73
-55
  0
VERTEX
  8
Layer0
10
0.0
 20
 0.0
 30
0.0
 70
     128
 71
-54
 72
-53
 73
56
  0
VERTEX
  8
Layer0
10
0.0
 20
 0.0
 30
0.0
 70
     128
 71
-56
 72
-53
 73
57
  0
VERTEX
  8
Layer0
10
0.0
 20
 0.0
 30
0.0
 70
     128
 71
-57
 72
53
 73
-58
  0
VERTEX
  8
Layer0
10
0.0
 20
 0.0
 30
0.0
 70
     128
 71
-57
 72
-58
 73
59
  0
VERTEX
  8
Layer0
10
0.0
 20
 0.0
 30
0.0
 70
     128
 71
-59
 72
-58
 73
60
  0
VERTEX
  8
Layer0
10
0.0
 20
 0.0
 30
0.0
 70
     128
 71
-60
 72
-58
 73
61
  0
VERTEX
  8
Layer0
10
0.0
 20
 0.0
 30
0.0
 70
     128
 71
-61
 72
-58
 73
62
  0
VERTEX
  8
Layer0
10
0.0
 20
 0.0
 30
0.0
 70
     128
 71
-62
 72
-58
 73
63
  0
VERTEX
  8
Layer0
10
0.0
 20
 0.0
 30
0.0
 70
     128
 71
-63
 72
-58
 73
64
  0
VERTEX
  8
Layer0
10
0.0
 20
 0.0
 30
0.0
 70
     128
 71
-64
 72
-58
 73
65
  0
VERTEX
  8
Layer0
10
0.0
 20
 0.0
 30
0.0
 70
     128
 71
-65
 72
-58
 73
66
  0
VERTEX
  8
Layer0
10
0.0
 20
 0.0
 30
0.0
 70
     128
 71
-66
 72
-58
 73
67
  0
VERTEX
  8
Layer0
10
0.0
 20
 0.0
 30
0.0
 70
     128
 71
-67
 72
-58
 73
68
  0
VERTEX
  8
Layer0
10
0.0
 20
 0.0
 30
0.0
 70
     128
 71
-68
 72
-58
 73
-69
  0
VERTEX
  8
Layer0
10
0.0
 20
 0.0
 30
0.0
 70
     128
 71
-69
 72
-58
 73
-29
  0
VERTEX
  8
Layer0
10
0.0
 20
 0.0
 30
0.0
 70
     128
 71
-69
 72
29
 73
-70
  0
VERTEX
  8
Layer0
10
0.0
 20
 0.0
 30
0.0
 70
     128
 71
-69
 72
70
 73
-71
  0
VERTEX
  8
Layer0
10
0.0
 20
 0.0
 30
0.0
 70
     128
 71
-69
 72
71
 73
-72
  0
VERTEX
  8
Layer0
10
0.0
 20
 0.0
 30
0.0
 70
     128
 71
-69
 72
72
 73
-73
  0
VERTEX
  8
Layer0
10
0.0
 20
 0.0
 30
0.0
 70
     128
 71
-69
 72
73
 73
-74
  0
VERTEX
  8
Layer0
10
0.0
 20
 0.0
 30
0.0
 70
     128
 71
-69
 72
74
 73
-75
  0
VERTEX
  8
Layer0
10
0.0
 20
 0.0
 30
0.0
 70
     128
 71
-69
 72
-75
 73
76
  0
VERTEX
  8
Layer0
10
0.0
 20
 0.0
 30
0.0
 70
     128
 71
-76
 72
75
 73
-77
  0
VERTEX
  8
Layer0
10
0.0
 20
 0.0
 30
0.0
 70
     128
 71
-76
 72
77
 73
-78
  0
VERTEX
  8
Layer0
10
0.0
 20
 0.0
 30
0.0
 70
     128
 71
-76
 72
78
 73
-79
  0
VERTEX
  8
Layer0
10
0.0
 20
 0.0
 30
0.0
 70
     128
 71
-76
 72
79
 73
-80
  0
VERTEX
  8
Layer0
10
0.0
 20
 0.0
 30
0.0
 70
     128
 71
-76
 72
80
 73
-81
  0
VERTEX
  8
Layer0
10
0.0
 20
 0.0
 30
0.0
 70
     128
 71
-76
 72
81
 73
-51
  0
VERTEX
  8
Layer0
10
0.0
 20
 0.0
 30
0.0
 70
     128
 71
-76
 72
-51
 73
-82
  0
VERTEX
  8
Layer0
10
0.0
 20
 0.0
 30
0.0
 70
     128
 71
-82
 72
-51
 73
83
  0
VERTEX
  8
Layer0
10
0.0
 20
 0.0
 30
0.0
 70
     128
 71
-83
 72
-51
 73
84
  0
VERTEX
  8
Layer0
10
0.0
 20
 0.0
 30
0.0
 70
     128
 71
-84
 72
-51
 73
85
  0
VERTEX
  8
Layer0
10
0.0
 20
 0.0
 30
0.0
 70
     128
 71
-85
 72
-51
 73
86
  0
VERTEX
  8
Layer0
10
0.0
 20
 0.0
 30
0.0
 70
     128
 71
-86
 72
-51
 73
-52
  0
VERTEX
  8
Layer0
10
0.0
 20
 0.0
 30
0.0
 70
     128
 71
-86
 72
-52
 73
87
  0
VERTEX
  8
Layer0
10
0.0
 20
 0.0
 30
0.0
 70
     128
 71
-87
 72
-52
 73
3
  0
VERTEX
  8
Layer0
10
0.0
 20
 0.0
 30
0.0
 70
     128
 71
-76
 72
82
 73
-88
  0
VERTEX
  8
Layer0
10
0.0
 20
 0.0
 30
0.0
 70
     128
 71
-76
 72
88
 73
-89
  0
VERTEX
  8
Layer0
10
0.0
 20
 0.0
 30
0.0
 70
     128
 71
-76
 72
89
 73
-90
  0
VERTEX
  8
Layer0
10
0.0
 20
 0.0
 30
0.0
 70
     128
 71
-76
 72
90
 73
-91
  0
VERTEX
  8
Layer0
10
0.0
 20
 0.0
 30
0.0
 70
     128
 71
-76
 72
91
 73
-92
  0
VERTEX
  8
Layer0
10
0.0
 20
 0.0
 30
0.0
 70
     128
 71
-76
 72
92
 73
-25
  0
VERTEX
  8
Layer0
10
0.0
 20
 0.0
 30
0.0
 70
     128
 71
-76
 72
-25
 73
-26
  0
VERTEX
  8
Layer0
10
0.0
 20
 0.0
 30
0.0
 70
     128
 71
-76
 72
-26
 73
-93
  0
VERTEX
  8
Layer0
10
0.0
 20
 0.0
 30
0.0
 70
     128
 71
-93
 72
-26
 73
94
  0
VERTEX
  8
Layer0
10
0.0
 20
 0.0
 30
0.0
 70
     128
 71
-94
 72
-26
 73
95
  0
VERTEX
  8
Layer0
10
0.0
 20
 0.0
 30
0.0
 70
     128
 71
-76
 72
93
 73
-96
  0
VERTEX
  8
Layer0
10
0.0
 20
 0.0
 30
0.0
 70
     128
 71
-76
 72
96
 73
-97
  0
VERTEX
  8
Layer0
10
0.0
 20
 0.0
 30
0.0
 70
     128
 71
-76
 72
97
 73
-98
  0
VERTEX
  8
Layer0
10
0.0
 20
 0.0
 30
0.0
 70
     128
 71
-76
 72
98
 73
-99
  0
VERTEX
  8
Layer0
10
0.0
 20
 0.0
 30
0.0
 70
     128
 71
-76
 72
99
 73
-100
  0
VERTEX
  8
Layer0
10
0.0
 20
 0.0
 30
0.0
 70
     128
 71
-76
 72
100
 73
-101
  0
VERTEX
  8
Layer0
10
0.0
 20
 0.0
 30
0.0
 70
     128
 71
-76
 72
101
 73
-102
  0
VERTEX
  8
Layer0
10
0.0
 20
 0.0
 30
0.0
 70
     128
 71
-76
 72
102
 73
-103
  0
VERTEX
  8
Layer0
10
0.0
 20
 0.0
 30
0.0
 70
     128
 71
-76
 72
103
 73
-104
  0
VERTEX
  8
Layer0
10
0.0
 20
 0.0
 30
0.0
 70
     128
 71
-76
 72
104
 73
-105
  0
VERTEX
  8
Layer0
10
0.0
 20
 0.0
 30
0.0
 70
     128
 71
-106
 72
107
 73
-95
  0
VERTEX
  8
Layer0
10
0.0
 20
 0.0
 30
0.0
 70
     128
 71
-107
 72
106
 73
-108
  0
VERTEX
  8
Layer0
10
0.0
 20
 0.0
 30
0.0
 70
     128
 71
-107
 72
108
 73
-109
  0
VERTEX
  8
Layer0
10
0.0
 20
 0.0
 30
0.0
 70
     128
 71
-107
 72
109
 73
-110
  0
VERTEX
  8
Layer0
10
0.0
 20
 0.0
 30
0.0
 70
     128
 71
-107
 72
-110
 73
111
  0
VERTEX
  8
Layer0
10
0.0
 20
 0.0
 30
0.0
 70
     128
 71
-111
 72
110
 73
-112
  0
VERTEX
  8
Layer0
10
0.0
 20
 0.0
 30
0.0
 70
     128
 71
-111
 72
-112
 73
113
  0
VERTEX
  8
Layer0
10
0.0
 20
 0.0
 30
0.0
 70
     128
 71
-113
 72
112
 73
-114
  0
VERTEX
  8
Layer0
10
0.0
 20
 0.0
 30
0.0
 70
     128
 71
-113
 72
-114
 73
115
  0
VERTEX
  8
Layer0
10
0.0
 20
 0.0
 30
0.0
 70
     128
 71
-115
 72
114
 73
-116
  0
VERTEX
  8
Layer0
10
0.0
 20
 0.0
 30
0.0
 70
     128
 71
-115
 72
-116
 73
117
  0
VERTEX
  8
Layer0
10
0.0
 20
 0.0
 30
0.0
 70
     128
 71
-117
 72
116
 73
-118
  0
VERTEX
  8
Layer0
10
0.0
 20
 0.0
 30
0.0
 70
     128
 71
-117
 72
-118
 73
119
  0
VERTEX
  8
Layer0
10
0.0
 20
 0.0
 30
0.0
 70
     128
 71
-119
 72
118
 73
-120
  0
VERTEX
  8
Layer0
10
0.0
 20
 0.0
 30
0.0
 70
     128
 71
-119
 72
-120
 73
121
  0
VERTEX
  8
Layer0
10
0.0
 20
 0.0
 30
0.0
 70
     128
 71
-121
 72
120
 73
-122
  0
VERTEX
  8
Layer0
10
0.0
 20
 0.0
 30
0.0
 70
     128
 71
-121
 72
-122
 73
123
  0
VERTEX
  8
Layer0
10
0.0
 20
 0.0
 30
0.0
 70
     128
 71
-123
 72
122
 73
-124
  0
VERTEX
  8
Layer0
10
0.0
 20
 0.0
 30
0.0
 70
     128
 71
-123
 72
-124
 73
125
  0
VERTEX
  8
Layer0
10
0.0
 20
 0.0
 30
0.0
 70
     128
 71
-125
 72
124
 73
-126
  0
VERTEX
  8
Layer0
10
0.0
 20
 0.0
 30
0.0
 70
     128
 71
-125
 72
126
 73
-127
  0
VERTEX
  8
Layer0
10
0.0
 20
 0.0
 30
0.0
 70
     128
 71
-125
 72
-127
 73
128
  0
VERTEX
  8
Layer0
10
0.0
 20
 0.0
 30
0.0
 70
     128
 71
-128
 72
127
 73
-129
  0
VERTEX
  8
Layer0
10
0.0
 20
 0.0
 30
0.0
 70
     128
 71
-128
 72
-129
 73
130
  0
VERTEX
  8
Layer0
10
0.0
 20
 0.0
 30
0.0
 70
     128
 71
-130
 72
129
 73
-131
  0
VERTEX
  8
Layer0
10
0.0
 20
 0.0
 30
0.0
 70
     128
 71
-130
 72
-131
 73
105
  0
VERTEX
  8
Layer0
10
0.0
 20
 0.0
 30
0.0
 70
     128
 71
-132
 72
133
 73
-134
  0
VERTEX
  8
Layer0
10
0.0
 20
 0.0
 30
0.0
 70
     128
 71
-133
 72
132
 73
-135
  0
VERTEX
  8
Layer0
10
0.0
 20
 0.0
 30
0.0
 70
     128
 71
-133
 72
-135
 73
136
  0
VERTEX
  8
Layer0
10
0.0
 20
 0.0
 30
0.0
 70
     128
 71
-136
 72
135
 73
-137
  0
VERTEX
  8
Layer0
10
0.0
 20
 0.0
 30
0.0
 70
     128
 71
-136
 72
-137
 73
138
  0
VERTEX
  8
Layer0
10
0.0
 20
 0.0
 30
0.0
 70
     128
 71
-138
 72
137
 73
-139
  0
VERTEX
  8
Layer0
10
0.0
 20
 0.0
 30
0.0
 70
     128
 71
-138
 72
-139
 73
140
  0
VERTEX
  8
Layer0
10
0.0
 20
 0.0
 30
0.0
 70
     128
 71
-140
 72
139
 73
-141
  0
VERTEX
  8
Layer0
10
0.0
 20
 0.0
 30
0.0
 70
     128
 71
-140
 72
-141
 73
142
  0
VERTEX
  8
Layer0
10
0.0
 20
 0.0
 30
0.0
 70
     128
 71
-142
 72
141
 73
-143
  0
VERTEX
  8
Layer0
10
0.0
 20
 0.0
 30
0.0
 70
     128
 71
-142
 72
-143
 73
144
  0
VERTEX
  8
Layer0
10
0.0
 20
 0.0
 30
0.0
 70
     128
 71
-144
 72
143
 73
-145
  0
VERTEX
  8
Layer0
10
0.0
 20
 0.0
 30
0.0
 70
     128
 71
-144
 72
-145
 73
146
  0
VERTEX
  8
Layer0
10
0.0
 20
 0.0
 30
0.0
 70
     128
 71
-146
 72
145
 73
-147
  0
VERTEX
  8
Layer0
10
0.0
 20
 0.0
 30
0.0
 70
     128
 71
-146
 72
-147
 73
148
  0
VERTEX
  8
Layer0
10
0.0
 20
 0.0
 30
0.0
 70
     128
 71
-148
 72
147
 73
-149
  0
VERTEX
  8
Layer0
10
0.0
 20
 0.0
 30
0.0
 70
     128
 71
-148
 72
-149
 73
150
  0
VERTEX
  8
Layer0
10
0.0
 20
 0.0
 30
0.0
 70
     128
 71
-150
 72
149
 73
-151
  0
VERTEX
  8
Layer0
10
0.0
 20
 0.0
 30
0.0
 70
     128
 71
-150
 72
-151
 73
152
  0
VERTEX
  8
Layer0
10
0.0
 20
 0.0
 30
0.0
 70
     128
 71
-152
 72
151
 73
-153
  0
VERTEX
  8
Layer0
10
0.0
 20
 0.0
 30
0.0
 70
     128
 71
-152
 72
-153
 73
154
  0
VERTEX
  8
Layer0
10
0.0
 20
 0.0
 30
0.0
 70
     128
 71
-154
 72
153
 73
-155
  0
VERTEX
  8
Layer0
10
0.0
 20
 0.0
 30
0.0
 70
     128
 71
-154
 72
-155
 73
156
  0
VERTEX
  8
Layer0
10
0.0
 20
 0.0
 30
0.0
 70
     128
 71
-156
 72
155
 73
-157
  0
VERTEX
  8
Layer0
10
0.0
 20
 0.0
 30
0.0
 70
     128
 71
-156
 72
-157
 73
-158
  0
VERTEX
  8
Layer0
10
0.0
 20
 0.0
 30
0.0
 70
     128
 71
-159
 72
-132
 73
-134
  0
VERTEX
  8
Layer0
10
0.0
 20
 0.0
 30
0.0
 70
     128
 71
-132
 72
-159
 73
160
  0
VERTEX
  8
Layer0
10
0.0
 20
 0.0
 30
0.0
 70
     128
 71
-160
 72
-159
 73
161
  0
VERTEX
  8
Layer0
10
0.0
 20
 0.0
 30
0.0
 70
     128
 71
-161
 72
-159
 73
162
  0
VERTEX
  8
Layer0
10
0.0
 20
 0.0
 30
0.0
 70
     128
 71
-162
 72
-159
 73
163
  0
VERTEX
  8
Layer0
10
0.0
 20
 0.0
 30
0.0
 70
     128
 71
-163
 72
-159
 73
164
  0
VERTEX
  8
Layer0
10
0.0
 20
 0.0
 30
0.0
 70
     128
 71
-164
 72
159
 73
-165
  0
VERTEX
  8
Layer0
10
0.0
 20
 0.0
 30
0.0
 70
     128
 71
-164
 72
-165
 73
166
  0
VERTEX
  8
Layer0
10
0.0
 20
 0.0
 30
0.0
 70
     128
 71
-166
 72
-165
 73
167
  0
VERTEX
  8
Layer0
10
0.0
 20
 0.0
 30
0.0
 70
     128
 71
-167
 72
-165
 73
168
  0
VERTEX
  8
Layer0
10
0.0
 20
 0.0
 30
0.0
 70
     128
 71
-168
 72
-165
 73
169
  0
VERTEX
  8
Layer0
10
0.0
 20
 0.0
 30
0.0
 70
     128
 71
-169
 72
-165
 73
170
  0
VERTEX
  8
Layer0
10
0.0
 20
 0.0
 30
0.0
 70
     128
 71
-170
 72
-165
 73
171
  0
VERTEX
  8
Layer0
10
0.0
 20
 0.0
 30
0.0
 70
     128
 71
-171
 72
-165
 73
157
  0
VERTEX
  8
Layer0
10
0.0
 20
 0.0
 30
0.0
 70
     128
 71
-157
 72
165
 73
-172
  0
VERTEX
  8
Layer0
10
0.0
 20
 0.0
 30
0.0
 70
     128
 71
-58
 72
-27
 73
-29
  0
VERTEX
  8
Layer0
10
0.0
 20
 0.0
 30
0.0
 70
     128
 71
-27
 72
-58
 73
173
  0
VERTEX
  8
Layer0
10
0.0
 20
 0.0
 30
0.0
 70
     128
 71
-173
 72
-58
 73
174
  0
VERTEX
  8
Layer0
10
0.0
 20
 0.0
 30
0.0
 70
     128
 71
-174
 72
-58
 73
175
  0
VERTEX
  8
Layer0
10
0.0
 20
 0.0
 30
0.0
 70
     128
 71
-175
 72
-58
 73
176
  0
VERTEX
  8
Layer0
10
0.0
 20
 0.0
 30
0.0
 70
     128
 71
-176
 72
-58
 73
177
  0
VERTEX
  8
Layer0
10
0.0
 20
 0.0
 30
0.0
 70
     128
 71
-177
 72
-58
 73
178
  0
VERTEX
  8
Layer0
10
0.0
 20
 0.0
 30
0.0
 70
     128
 71
-178
 72
58
 73
-159
  0
VERTEX
  8
Layer0
10
0.0
 20
 0.0
 30
0.0
 70
     128
 71
-178
 72
-159
 73
179
  0
VERTEX
  8
Layer0
10
0.0
 20
 0.0
 30
0.0
 70
     128
 71
-179
 72
-159
 73
180
  0
VERTEX
  8
Layer0
10
0.0
 20
 0.0
 30
0.0
 70
     128
 71
-180
 72
-159
 73
181
  0
VERTEX
  8
Layer0
10
0.0
 20
 0.0
 30
0.0
 70
     128
 71
-181
 72
-159
 73
182
  0
VERTEX
  8
Layer0
10
0.0
 20
 0.0
 30
0.0
 70
     128
 71
-182
 72
-159
 73
183
  0
VERTEX
  8
Layer0
10
0.0
 20
 0.0
 30
0.0
 70
     128
 71
-183
 72
-159
 73
52
  0
VERTEX
  8
Layer0
10
0.0
 20
 0.0
 30
0.0
 70
     128
 71
-52
 72
-159
 73
-184
  0
VERTEX
  8
Layer0
10
0.0
 20
 0.0
 30
0.0
 70
     128
 71
-52
 72
184
 73
-185
  0
VERTEX
  8
Layer0
10
0.0
 20
 0.0
 30
0.0
 70
     128
 71
-52
 72
185
 73
-186
  0
VERTEX
  8
Layer0
10
0.0
 20
 0.0
 30
0.0
 70
     128
 71
-52
 72
186
 73
-187
  0
VERTEX
  8
Layer0
10
0.0
 20
 0.0
 30
0.0
 70
     128
 71
-52
 72
187
 73
-188
  0
VERTEX
  8
Layer0
10
0.0
 20
 0.0
 30
0.0
 70
     128
 71
-52
 72
188
 73
-189
  0
VERTEX
  8
Layer0
10
0.0
 20
 0.0
 30
0.0
 70
     128
 71
-52
 72
189
 73
-1
  0
VERTEX
  8
Layer0
10
0.0
 20
 0.0
 30
0.0
 70
     128
 71
-52
 72
-1
 73
-3
  0
VERTEX
  8
Layer0
10
0.0
 20
 0.0
 30
0.0
 70
     128
 71
-184
 72
-159
 73
190
  0
VERTEX
  8
Layer0
10
0.0
 20
 0.0
 30
0.0
 70
     128
 71
-190
 72
-159
 73
191
  0
VERTEX
  8
Layer0
10
0.0
 20
 0.0
 30
0.0
 70
     128
 71
-191
 72
-159
 73
192
  0
VERTEX
  8
Layer0
10
0.0
 20
 0.0
 30
0.0
 70
     128
 71
-192
 72
-159
 73
193
  0
VERTEX
  8
Layer0
10
0.0
 20
 0.0
 30
0.0
 70
     128
 71
-193
 72
-159
 73
194
  0
VERTEX
  8
Layer0
10
0.0
 20
 0.0
 30
0.0
 70
     128
 71
-194
 72
-159
 73
26
  0
VERTEX
  8
Layer0
10
0.0
 20
 0.0
 30
0.0
 70
     128
 71
-26
 72
-159
 73
-195
  0
VERTEX
  8
Layer0
10
0.0
 20
 0.0
 30
0.0
 70
     128
 71
-26
 72
195
 73
-196
  0
VERTEX
  8
Layer0
10
0.0
 20
 0.0
 30
0.0
 70
     128
 71
-26
 72
196
 73
-106
  0
VERTEX
  8
Layer0
10
0.0
 20
 0.0
 30
0.0
 70
     128
 71
-26
 72
-106
 73
-95
  0
VERTEX
  8
Layer0
10
0.0
 20
 0.0
 30
0.0
 70
     128
 71
-195
 72
-159
 73
197
  0
VERTEX
  8
Layer0
10
0.0
 20
 0.0
 30
0.0
 70
     128
 71
-197
 72
-159
 73
198
  0
VERTEX
  8
Layer0
10
0.0
 20
 0.0
 30
0.0
 70
     128
 71
-198
 72
-159
 73
199
  0
VERTEX
  8
Layer0
10
0.0
 20
 0.0
 30
0.0
 70
     128
 71
-199
 72
-159
 73
200
  0
VERTEX
  8
Layer0
10
0.0
 20
 0.0
 30
0.0
 70
     128
 71
-200
 72
-159
 73
201
  0
VERTEX
  8
Layer0
10
0.0
 20
 0.0
 30
0.0
 70
     128
 71
-201
 72
-159
 73
202
  0
VERTEX
  8
Layer0
10
0.0
 20
 0.0
 30
0.0
 70
     128
 71
-202
 72
-159
 73
203
  0
VERTEX
  8
Layer0
10
0.0
 20
 0.0
 30
0.0
 70
     128
 71
-203
 72
-159
 73
204
  0
VERTEX
  8
Layer0
10
0.0
 20
 0.0
 30
0.0
 70
     128
 71
-204
 72
-159
 73
205
  0
VERTEX
  8
Layer0
10
0.0
 20
 0.0
 30
0.0
 70
     128
 71
-205
 72
-159
 73
131
  0
VERTEX
  8
Layer0
10
0.0
 20
 0.0
 30
0.0
 70
     128
 71
-131
 72
-159
 73
-105
  0
VERTEX
  8
Layer0
10
0.0
 20
 0.0
 30
0.0
 70
     128
 71
-105
 72
-159
 73
-76
  0
VERTEX
  8
Layer0
10
0.0
 20
 0.0
 30
0.0
 70
     128
 71
-76
 72
-159
 73
-206
  0
VERTEX
  8
Layer0
10
0.0
 20
 0.0
 30
0.0
 70
     128
 71
-76
 72
206
 73
-207
  0
VERTEX
  8
Layer0
10
0.0
 20
 0.0
 30
0.0
 70
     128
 71
-76
 72
207
 73
-208
  0
VERTEX
  8
Layer0
10
0.0
 20
 0.0
 30
0.0
 70
     128
 71
-76
 72
208
 73
-209
  0
VERTEX
  8
Layer0
10
0.0
 20
 0.0
 30
0.0
 70
     128
 71
-76
 72
209
 73
-210
  0
VERTEX
  8
Layer0
10
0.0
 20
 0.0
 30
0.0
 70
     128
 71
-76
 72
210
 73
-211
  0
VERTEX
  8
Layer0
10
0.0
 20
 0.0
 30
0.0
 70
     128
 71
-76
 72
-211
 73
172
  0
VERTEX
  8
Layer0
10
0.0
 20
 0.0
 30
0.0
 70
     128
 71
-206
 72
-159
 73
-134
  0
VERTEX
  8
Layer0
10
0.0
 20
 0.0
 30
0.0
 70
     128
 71
-172
 72
211
 73
-212
  0
VERTEX
  8
Layer0
10
0.0
 20
 0.0
 30
0.0
 70
     128
 71
-172
 72
212
 73
-213
  0
VERTEX
  8
Layer0
10
0.0
 20
 0.0
 30
0.0
 70
     128
 71
-172
 72
213
 73
-214
  0
VERTEX
  8
Layer0
10
0.0
 20
 0.0
 30
0.0
 70
     128
 71
-172
 72
214
 73
-215
  0
VERTEX
  8
Layer0
10
0.0
 20
 0.0
 30
0.0
 70
     128
 71
-172
 72
215
 73
-216
  0
VERTEX
  8
Layer0
10
0.0
 20
 0.0
 30
0.0
 70
     128
 71
-172
 72
216
 73
-217
  0
VERTEX
  8
Layer0
10
0.0
 20
 0.0
 30
0.0
 70
     128
 71
-172
 72
217
 73
-158
  0
VERTEX
  8
Layer0
10
0.0
 20
 0.0
 30
0.0
 70
     128
 71
-172
 72
-158
 73
-157
  0
VERTEX
  8
Layer0
10
0.0
 20
 0.0
 30
0.0
 70
     128
 71
-218
 72
-206
 73
134
  0
VERTEX
  8
Layer0
10
0.0
 20
 0.0
 30
0.0
 70
     128
 71
-206
 72
-218
 73
219
  0
VERTEX
  8
Layer0
10
0.0
 20
 0.0
 30
0.0
 70
     128
 71
-219
 72
218
 73
-220
  0
VERTEX
  8
Layer0
10
0.0
 20
 0.0
 30
0.0
 70
     128
 71
-219
 72
-220
 73
221
  0
VERTEX
  8
Layer0
10
0.0
 20
 0.0
 30
0.0
 70
     128
 71
-221
 72
220
 73
-222
  0
VERTEX
  8
Layer0
10
0.0
 20
 0.0
 30
0.0
 70
     128
 71
-221
 72
-222
 73
223
  0
VERTEX
  8
Layer0
10
0.0
 20
 0.0
 30
0.0
 70
     128
 71
-223
 72
222
 73
-224
  0
VERTEX
  8
Layer0
10
0.0
 20
 0.0
 30
0.0
 70
     128
 71
-223
 72
-224
 73
225
  0
VERTEX
  8
Layer0
10
0.0
 20
 0.0
 30
0.0
 70
     128
 71
-225
 72
224
 73
-226
  0
VERTEX
  8
Layer0
10
0.0
 20
 0.0
 30
0.0
 70
     128
 71
-225
 72
-226
 73
227
  0
VERTEX
  8
Layer0
10
0.0
 20
 0.0
 30
0.0
 70
     128
 71
-227
 72
226
 73
-228
  0
VERTEX
  8
Layer0
10
0.0
 20
 0.0
 30
0.0
 70
     128
 71
-227
 72
-228
 73
229
  0
VERTEX
  8
Layer0
10
0.0
 20
 0.0
 30
0.0
 70
     128
 71
-229
 72
228
 73
-230
  0
VERTEX
  8
Layer0
10
0.0
 20
 0.0
 30
0.0
 70
     128
 71
-229
 72
-230
 73
231
  0
VERTEX
  8
Layer0
10
0.0
 20
 0.0
 30
0.0
 70
     128
 71
-231
 72
230
 73
-232
  0
VERTEX
  8
Layer0
10
0.0
 20
 0.0
 30
0.0
 70
     128
 71
-231
 72
-232
 73
233
  0
VERTEX
  8
Layer0
10
0.0
 20
 0.0
 30
0.0
 70
     128
 71
-233
 72
232
 73
-234
  0
VERTEX
  8
Layer0
10
0.0
 20
 0.0
 30
0.0
 70
     128
 71
-233
 72
-234
 73
235
  0
VERTEX
  8
Layer0
10
0.0
 20
 0.0
 30
0.0
 70
     128
 71
-235
 72
234
 73
-236
  0
VERTEX
  8
Layer0
10
0.0
 20
 0.0
 30
0.0
 70
     128
 71
-235
 72
-236
 73
237
  0
VERTEX
  8
Layer0
10
0.0
 20
 0.0
 30
0.0
 70
     128
 71
-237
 72
236
 73
-238
  0
VERTEX
  8
Layer0
10
0.0
 20
 0.0
 30
0.0
 70
     128
 71
-237
 72
-238
 73
239
  0
VERTEX
  8
Layer0
10
0.0
 20
 0.0
 30
0.0
 70
     128
 71
-239
 72
238
 73
-156
  0
VERTEX
  8
Layer0
10
0.0
 20
 0.0
 30
0.0
 70
     128
 71
-239
 72
-156
 73
158
  0
VERTEX
  8
Layer0
10
0.0
 20
 0.0
 30
0.0
 70
     128
 71
-240
 72
-241
 73
55
  0
VERTEX
  8
Layer0
10
0.0
 20
 0.0
 30
0.0
 70
     128
 71
-241
 72
-240
 73
242
  0
VERTEX
  8
Layer0
10
0.0
 20
 0.0
 30
0.0
 70
     128
 71
-242
 72
240
 73
-243
  0
VERTEX
  8
Layer0
10
0.0
 20
 0.0
 30
0.0
 70
     128
 71
-242
 72
243
 73
-244
  0
VERTEX
  8
Layer0
10
0.0
 20
 0.0
 30
0.0
 70
     128
 71
-242
 72
-244
 73
245
  0
VERTEX
  8
Layer0
10
0.0
 20
 0.0
 30
0.0
 70
     128
 71
-245
 72
244
 73
-246
  0
VERTEX
  8
Layer0
10
0.0
 20
 0.0
 30
0.0
 70
     128
 71
-245
 72
-246
 73
247
  0
VERTEX
  8
Layer0
10
0.0
 20
 0.0
 30
0.0
 70
     128
 71
-247
 72
246
 73
-248
  0
VERTEX
  8
Layer0
10
0.0
 20
 0.0
 30
0.0
 70
     128
 71
-247
 72
-248
 73
249
  0
VERTEX
  8
Layer0
10
0.0
 20
 0.0
 30
0.0
 70
     128
 71
-249
 72
248
 73
-250
  0
VERTEX
  8
Layer0
10
0.0
 20
 0.0
 30
0.0
 70
     128
 71
-249
 72
-250
 73
251
  0
VERTEX
  8
Layer0
10
0.0
 20
 0.0
 30
0.0
 70
     128
 71
-251
 72
250
 73
-252
  0
VERTEX
  8
Layer0
10
0.0
 20
 0.0
 30
0.0
 70
     128
 71
-251
 72
-252
 73
253
  0
VERTEX
  8
Layer0
10
0.0
 20
 0.0
 30
0.0
 70
     128
 71
-253
 72
252
 73
-254
  0
VERTEX
  8
Layer0
10
0.0
 20
 0.0
 30
0.0
 70
     128
 71
-253
 72
-254
 73
255
  0
VERTEX
  8
Layer0
10
0.0
 20
 0.0
 30
0.0
 70
     128
 71
-255
 72
254
 73
-256
  0
VERTEX
  8
Layer0
10
0.0
 20
 0.0
 30
0.0
 70
     128
 71
-255
 72
-256
 73
257
  0
VERTEX
  8
Layer0
10
0.0
 20
 0.0
 30
0.0
 70
     128
 71
-257
 72
256
 73
-258
  0
VERTEX
  8
Layer0
10
0.0
 20
 0.0
 30
0.0
 70
     128
 71
-257
 72
-258
 73
259
  0
VERTEX
  8
Layer0
10
0.0
 20
 0.0
 30
0.0
 70
     128
 71
-259
 72
258
 73
-260
  0
VERTEX
  8
Layer0
10
0.0
 20
 0.0
 30
0.0
 70
     128
 71
-259
 72
-260
 73
261
  0
VERTEX
  8
Layer0
10
0.0
 20
 0.0
 30
0.0
 70
     128
 71
-261
 72
260
 73
-262
  0
VERTEX
  8
Layer0
10
0.0
 20
 0.0
 30
0.0
 70
     128
 71
-261
 72
-262
 73
263
  0
VERTEX
  8
Layer0
10
0.0
 20
 0.0
 30
0.0
 70
     128
 71
-263
 72
262
 73
-264
  0
VERTEX
  8
Layer0
10
0.0
 20
 0.0
 30
0.0
 70
     128
 71
-263
 72
-264
 73
265
  0
VERTEX
  8
Layer0
10
0.0
 20
 0.0
 30
0.0
 70
     128
 71
-265
 72
264
 73
-266
  0
VERTEX
  8
Layer0
10
0.0
 20
 0.0
 30
0.0
 70
     128
 71
-54
 72
267
 73
-55
  0
VERTEX
  8
Layer0
10
0.0
 20
 0.0
 30
0.0
 70
     128
 71
-267
 72
54
 73
-268
  0
VERTEX
  8
Layer0
10
0.0
 20
 0.0
 30
0.0
 70
     128
 71
-267
 72
-268
 73
269
  0
VERTEX
  8
Layer0
10
0.0
 20
 0.0
 30
0.0
 70
     128
 71
-269
 72
268
 73
-270
  0
VERTEX
  8
Layer0
10
0.0
 20
 0.0
 30
0.0
 70
     128
 71
-269
 72
-270
 73
271
  0
VERTEX
  8
Layer0
10
0.0
 20
 0.0
 30
0.0
 70
     128
 71
-271
 72
270
 73
-272
  0
VERTEX
  8
Layer0
10
0.0
 20
 0.0
 30
0.0
 70
     128
 71
-271
 72
-272
 73
273
  0
VERTEX
  8
Layer0
10
0.0
 20
 0.0
 30
0.0
 70
     128
 71
-273
 72
272
 73
-274
  0
VERTEX
  8
Layer0
10
0.0
 20
 0.0
 30
0.0
 70
     128
 71
-273
 72
-274
 73
275
  0
VERTEX
  8
Layer0
10
0.0
 20
 0.0
 30
0.0
 70
     128
 71
-275
 72
274
 73
-276
  0
VERTEX
  8
Layer0
10
0.0
 20
 0.0
 30
0.0
 70
     128
 71
-275
 72
-276
 73
277
  0
VERTEX
  8
Layer0
10
0.0
 20
 0.0
 30
0.0
 70
     128
 71
-277
 72
276
 73
-278
  0
VERTEX
  8
Layer0
10
0.0
 20
 0.0
 30
0.0
 70
     128
 71
-277
 72
-278
 73
279
  0
VERTEX
  8
Layer0
10
0.0
 20
 0.0
 30
0.0
 70
     128
 71
-279
 72
278
 73
-280
  0
VERTEX
  8
Layer0
10
0.0
 20
 0.0
 30
0.0
 70
     128
 71
-279
 72
-280
 73
281
  0
VERTEX
  8
Layer0
10
0.0
 20
 0.0
 30
0.0
 70
     128
 71
-281
 72
280
 73
-282
  0
VERTEX
  8
Layer0
10
0.0
 20
 0.0
 30
0.0
 70
     128
 71
-281
 72
-282
 73
283
  0
VERTEX
  8
Layer0
10
0.0
 20
 0.0
 30
0.0
 70
     128
 71
-283
 72
282
 73
-284
  0
VERTEX
  8
Layer0
10
0.0
 20
 0.0
 30
0.0
 70
     128
 71
-283
 72
-284
 73
285
  0
VERTEX
  8
Layer0
10
0.0
 20
 0.0
 30
0.0
 70
     128
 71
-285
 72
284
 73
-286
  0
VERTEX
  8
Layer0
10
0.0
 20
 0.0
 30
0.0
 70
     128
 71
-285
 72
-286
 73
287
  0
VERTEX
  8
Layer0
10
0.0
 20
 0.0
 30
0.0
 70
     128
 71
-287
 72
286
 73
-288
  0
VERTEX
  8
Layer0
10
0.0
 20
 0.0
 30
0.0
 70
     128
 71
-287
 72
-288
 73
266
  0
VERTEX
  8
Layer0
10
0.0
 20
 0.0
 30
0.0
 70
     128
 71
-266
 72
288
 73
-68
  0
VERTEX
  8
Layer0
10
0.0
 20
 0.0
 30
0.0
 70
     128
 71
-289
 72
-290
 73
69
  0
VERTEX
  8
Layer0
10
0.0
 20
 0.0
 30
0.0
 70
     128
 71
-290
 72
-289
 73
291
  0
VERTEX
  8
Layer0
10
0.0
 20
 0.0
 30
0.0
 70
     128
 71
-291
 72
-289
 73
241
  0
VERTEX
  8
Layer0
10
0.0
 20
 0.0
 30
0.0
 70
     128
 71
-241
 72
289
 73
-53
  0
VERTEX
  8
Layer0
10
0.0
 20
 0.0
 30
0.0
 70
     128
 71
-241
 72
-53
 73
-55
  0
VERTEX
  8
Layer0
10
0.0
 20
 0.0
 30
0.0
 70
     128
 71
-69
 72
290
 73
-292
  0
VERTEX
  8
Layer0
10
0.0
 20
 0.0
 30
0.0
 70
     128
 71
-69
 72
292
 73
-293
  0
VERTEX
  8
Layer0
10
0.0
 20
 0.0
 30
0.0
 70
     128
 71
-69
 72
293
 73
-294
  0
VERTEX
  8
Layer0
10
0.0
 20
 0.0
 30
0.0
 70
     128
 71
-69
 72
294
 73
-295
  0
VERTEX
  8
Layer0
10
0.0
 20
 0.0
 30
0.0
 70
     128
 71
-69
 72
295
 73
-296
  0
VERTEX
  8
Layer0
10
0.0
 20
 0.0
 30
0.0
 70
     128
 71
-69
 72
296
 73
-297
  0
VERTEX
  8
Layer0
10
0.0
 20
 0.0
 30
0.0
 70
     128
 71
-69
 72
297
 73
-298
  0
VERTEX
  8
Layer0
10
0.0
 20
 0.0
 30
0.0
 70
     128
 71
-69
 72
298
 73
-299
  0
VERTEX
  8
Layer0
10
0.0
 20
 0.0
 30
0.0
 70
     128
 71
-69
 72
299
 73
-300
  0
VERTEX
  8
Layer0
10
0.0
 20
 0.0
 30
0.0
 70
     128
 71
-69
 72
300
 73
-265
  0
VERTEX
  8
Layer0
10
0.0
 20
 0.0
 30
0.0
 70
     128
 71
-69
 72
-265
 73
-266
  0
VERTEX
  8
Layer0
10
0.0
 20
 0.0
 30
0.0
 70
     128
 71
-69
 72
-266
 73
-68
  0
SEQEND
 0
ENDSEC
 0
EOF
