 0
SECTION
 2
ENTITIES
  0
POLYLINE
 8
Layer0
 66
     1
10
0.0
 20
 0.0
 30
0.0
70
    64
71
298
72
   1
  0
VERTEX
  8
Layer0
10
675.0000056384233
20
164.68227705419403
30
52.37499037465893
 70
     192
  0
VERTEX
  8
Layer0
10
675.0681510530052
20
330.0225036438881
30
52.37498472262419
 70
     192
  0
VERTEX
  8
Layer0
10
675.0000026964018
20
330.5401417328837
30
52.3749847039004
 70
     192
  0
VERTEX
  8
Layer0
10
675.0681539766639
20
165.19991514560687
30
52.37499035799569
 70
     192
  0
VERTEX
  8
Layer0
10
675.2679519065707
20
329.54014173763716
30
52.37498474213489
 70
     192
  0
VERTEX
  8
Layer0
10
675.2679548131171
20
165.6822770589466
30
52.37499034452965
 70
     192
  0
VERTEX
  8
Layer0
10
675.5857891591139
20
329.12592818090303
30
52.37498476109616
 70
     192
  0
VERTEX
  8
Layer0
10
675.585792050965
20
166.09649062695698
30
52.37499033517395
 70
     192
  0
VERTEX
  8
Layer0
10
676.0000027271249
20
328.80809094305323
30
52.374984778212415
 70
     192
  0
VERTEX
  8
Layer0
10
676.0000056077006
20
166.41432787950066
30
52.374990330562376
 70
     192
  0
VERTEX
  8
Layer0
10
676.4823646404642
20
328.6082901066005
30
52.374984792329336
 70
     192
  0
VERTEX
  8
Layer0
10
676.4823675139514
20
166.6141287330657
30
52.37499033102006
 70
     192
  0
VERTEX
  8
Layer0
10
677.0000027318778
20
328.54014176836137
30
52.37498480247927
 70
     192
  0
VERTEX
  8
Layer0
10
677.0000056029477
20
166.68227708966947
30
52.37499033651062
 70
     192
  0
VERTEX
  8
Layer0
10
677.5176408208744
20
328.60829012496447
30
52.374984807974144
 70
     192
  0
VERTEX
  8
Layer0
10
677.5176436943616
20
166.61412875143
30
52.374990346664525
 70
     192
  0
VERTEX
  8
Layer0
10
678.0000027271248
20
328.80809097852966
30
52.374984808427875
 70
     192
  0
VERTEX
  8
Layer0
10
678.0000056077006
20
166.41432791497658
30
52.37499036077782
 70
     192
  0
VERTEX
  8
Layer0
10
678.4142162838599
20
329.12592823107406
30
52.37498480382061
 70
     192
  0
VERTEX
  8
Layer0
10
678.4142191757113
20
166.09649067712823
30
52.37499037789879
 70
     192
  0
VERTEX
  8
Layer0
10
678.7320535217086
20
329.5401417990841
30
52.374984794464005
 70
     192
  0
VERTEX
  8
Layer0
10
678.7320564282546
20
165.68227712039302
30
52.37499039685915
 70
     192
  0
VERTEX
  8
Layer0
10
678.9318543581613
20
330.02250371242303
30
52.374984780994
 70
     192
  0
VERTEX
  8
Layer0
10
678.9318572818204
20
165.19991521414295
30
52.37499041636551
 70
     192
  0
VERTEX
  8
Layer0
10
679.0000026964016
20
330.5401418038369
30
52.37498476433491
 70
     192
  0
VERTEX
  8
Layer0
10
679.0000056384239
20
164.68227712514584
30
52.37499043509346
 70
     192
  0
VERTEX
  8
Layer0
10
675.0000142398712
20
-1.1755876244976042
30
52.37500170492137
 70
     192
  0
VERTEX
  8
Layer0
10
675.0681539950281
20
164.16463896519673
30
52.37499039338309
 70
     192
  0
VERTEX
  8
Layer0
10
675.0681625781117
20
-0.6579495330847784
30
52.37500168825777
 70
     192
  0
VERTEX
  8
Layer0
10
675.2679548485927
20
163.68227705894668
30
52.37499041289287
 70
     192
  0
VERTEX
  8
Layer0
10
675.2679634145638
20
-0.17558761974440598
30
52.37500167479227
 70
     192
  0
VERTEX
  8
Layer0
10
675.585792101136
20
163.26806350221077
30
52.37499043185361
 70
     192
  0
VERTEX
  8
Layer0
10
675.5858006524123
20
0.23862594826650677
30
52.375001665436585
 70
     192
  0
VERTEX
  8
Layer0
10
676.0000056691467
20
162.95022626436275
30
52.374990448971126
 70
     192
  0
VERTEX
  8
Layer0
10
676.0000142091478
20
0.5564632008093934
30
52.37500166082519
 70
     192
  0
VERTEX
  8
Layer0
10
676.4823675824866
20
162.75042542790936
30
52.37499046308715
 70
     192
  0
VERTEX
  8
Layer0
10
676.4823761153987
20
0.7562640543741554
30
52.37500166128268
 70
     192
  0
VERTEX
  8
Layer0
10
677.0000056738996
20
162.6822770896693
30
52.374990473237624
 70
     192
  0
VERTEX
  8
Layer0
10
677.000014204394
20
0.8244124109787435
30
52.375001666773436
 70
     192
  0
VERTEX
  8
Layer0
10
677.5176437628968
20
162.75042544627348
30
52.374990478731604
 70
     192
  0
VERTEX
  8
Layer0
10
677.5176522958087
20
0.7562640727382284
30
52.375001676927155
 70
     192
  0
VERTEX
  8
Layer0
10
678.0000056691466
20
162.95022629983865
30
52.37499047918659
 70
     192
  0
VERTEX
  8
Layer0
10
678.0000142091482
20
0.556463236285835
30
52.37500169104064
 70
     192
  0
VERTEX
  8
Layer0
10
678.4142192258824
20
163.26806355238205
30
52.37499047457845
 70
     192
  0
VERTEX
  8
Layer0
10
678.4142277771587
20
0.23862599843777124
30
52.37500170816141
 70
     192
  0
VERTEX
  8
Layer0
10
678.7320564637303
20
163.68227712039294
30
52.374990465222375
 70
     192
  0
VERTEX
  8
Layer0
10
678.7320650297022
20
-0.17558755829850944
30
52.37500172712141
 70
     192
  0
VERTEX
  8
Layer0
10
678.9318573001846
20
164.16463903373273
30
52.37499045175291
 70
     192
  0
VERTEX
  8
Layer0
10
678.9318658832675
20
-0.6579494645484935
30
52.3750017466276
 70
     192
  0
VERTEX
  8
Layer0
10
679.000014239871
20
-1.1755875535456233
30
52.375001765355904
 70
     192
  0
VERTEX
  8
Layer0
10
647.0000150228741
20
-45.31772374489836
30
52.37500279076521
 70
     192
  0
VERTEX
  8
Layer0
10
675.0681625964743
20
-1.6932257134949147
30
52.37500172364519
 70
     192
  0
VERTEX
  8
Layer0
10
675.2679634500404
20
-2.175587619744673
30
52.3750017431555
 70
     192
  0
VERTEX
  8
Layer0
10
675.5858007025838
20
-2.5898011764798707
30
52.375001762116426
 70
     192
  0
VERTEX
  8
Layer0
10
676.0000142705948
20
-2.9076384143279346
30
52.37500177923375
 70
     192
  0
VERTEX
  8
Layer0
10
676.4823761839327
20
-3.1074392507821327
30
52.375001793349966
 70
     192
  0
VERTEX
  8
Layer0
10
687.000014313346
20
-5.317723035369733
30
52.37500202779518
 70
     192
  0
VERTEX
  8
Layer0
10
677.0000142753478
20
-3.175587589020843
30
52.3750018034999
 70
     192
  0
VERTEX
  8
Layer0
10
677.517652364343
20
-3.1074392324176987
30
52.37500180899441
 70
     192
  0
VERTEX
  8
Layer0
10
678.000014270595
20
-2.907638378851493
30
52.37500180944922
 70
     192
  0
VERTEX
  8
Layer0
10
678.4142278273301
20
-2.5898011263086516
30
52.375001804840906
 70
     192
  0
VERTEX
  8
Layer0
10
678.7320650651787
20
-2.1755875582984157
30
52.375001795484636
 70
     192
  0
VERTEX
  8
Layer0
10
678.9318659016301
20
-1.6932256449586296
30
52.37500178201499
 70
     192
  0
VERTEX
  8
Layer0
10
687.0000026229279
20
334.68227756947454
30
52.37498474360442
 70
     192
  0
VERTEX
  8
Layer0
10
262.00001502288023
20
-45.3177305741137
30
52.375003381891794
 70
     192
  0
VERTEX
  8
Layer0
10
264.15167283665755
20
-35.122797706487844
30
52.37500306592328
 70
     192
  0
VERTEX
  8
Layer0
10
264.14213771451904
20
364.6822700687275
30
52.37498373735219
 70
     192
  0
VERTEX
  8
Layer0
10
264.16904439763687
20
-35.6446134005357
30
52.3750030840215
 70
     192
  0
VERTEX
  8
Layer0
10
264.32087987668274
20
-36.144152565157135
30
52.375003103385666
 70
     192
  0
VERTEX
  8
Layer0
10
264.5968319368174
20
-36.58737243180864
30
52.375003122710325
 70
     192
  0
VERTEX
  8
Layer0
10
264.97809490117766
20
-36.94406829903439
30
52.375003140657434
 70
     192
  0
VERTEX
  8
Layer0
10
265.43868632880844
20
-37.18993193294885
30
52.375003156020284
 70
     192
  0
VERTEX
  8
Layer0
10
265.9472176750767
20
-37.30820813320979
30
52.37500316774954
 70
     192
  0
VERTEX
  8
Layer0
10
266.4690333691277
20
-37.290836572231456
30
52.375003175034294
 70
     192
  0
VERTEX
  8
Layer0
10
266.9685725337486
20
-37.139001093186195
30
52.375003177391605
 70
     192
  0
VERTEX
  8
Layer0
10
267.4117924004007
20
-36.86304903305055
30
52.37500317465446
 70
     192
  0
VERTEX
  8
Layer0
10
267.7684882676257
20
-36.48178606869104
30
52.375003167015706
 70
     192
  0
VERTEX
  8
Layer0
10
268.0143519015389
20
-36.021194641061925
30
52.37500315498303
 70
     192
  0
VERTEX
  8
Layer0
10
268.1326281018009
20
-35.512663294791544
30
52.375003139386386
 70
     192
  0
VERTEX
  8
Layer0
10
454.5000148809695
20
-37.3177271595069
30
52.37500638475603
 70
     192
  0
VERTEX
  8
Layer0
10
453.98237678955525
20
-37.24957882126625
30
52.37500637461081
 70
     192
  0
VERTEX
  8
Layer0
10
453.5000148762162
20
-37.04977798481368
30
52.37500636049426
 70
     192
  0
VERTEX
  8
Layer0
10
453.0858013082052
20
-36.73194074696561
30
52.37500634336716
 70
     192
  0
VERTEX
  8
Layer0
10
452.7679640556618
20
-36.317727190230414
30
52.375006324407536
 70
     192
  0
VERTEX
  8
Layer0
10
268.14213771451847
20
364.6822701396816
30
52.374983797780885
 70
     192
  0
VERTEX
  8
Layer0
10
452.5681632020965
20
-35.83536528397858
30
52.3750063049017
 70
     192
  0
VERTEX
  8
Layer0
10
452.50001484549307
20
-35.31772719498335
30
52.375006286182426
 70
     192
  0
VERTEX
  8
Layer0
10
452.50000209078195
20
364.6822734098604
30
52.37498695109171
 70
     192
  0
VERTEX
  8
Layer0
10
455.01765296996535
20
-37.24957880290308
30
52.375006390246064
 70
     192
  0
VERTEX
  8
Layer0
10
455.5000148762161
20
-37.049777949336246
30
52.37500639070391
 70
     192
  0
VERTEX
  8
Layer0
10
455.91422843295123
20
-36.731940696794304
30
52.37500638610265
 70
     192
  0
VERTEX
  8
Layer0
10
456.2320656707997
20
-36.31772712878204
30
52.37500637674531
 70
     192
  0
VERTEX
  8
Layer0
10
456.43186650725266
20
-35.83536521544419
30
52.375006363271716
 70
     192
  0
VERTEX
  8
Layer0
10
456.50001484549284
20
-35.31772712402947
30
52.37500634660647
 70
     192
  0
VERTEX
  8
Layer0
10
641.1258284319301
20
-36.31772384909532
30
52.37500239438526
 70
     192
  0
VERTEX
  8
Layer0
10
640.9260275783648
20
-35.83536194284493
30
52.37500237488033
 70
     192
  0
VERTEX
  8
Layer0
10
640.8578792217606
20
-35.317723853848705
30
52.3750023561605
 70
     192
  0
VERTEX
  8
Layer0
10
640.8578664670497
20
364.68227675099433
30
52.3749830210752
 70
     192
  0
VERTEX
  8
Layer0
10
641.4436656844732
20
-36.731937405830884
30
52.375002413345975
 70
     192
  0
VERTEX
  8
Layer0
10
641.8578792524844
20
-37.0497746436794
30
52.37500243047271
 70
     192
  0
VERTEX
  8
Layer0
10
642.3402411658235
20
-37.24957548013351
30
52.375002444590166
 70
     192
  0
VERTEX
  8
Layer0
10
642.8578792572374
20
-37.31772381837217
30
52.375002454734464
 70
     192
  0
VERTEX
  8
Layer0
10
643.3755173462337
20
-37.24957546176907
30
52.3750024602245
 70
     192
  0
VERTEX
  8
Layer0
10
643.8578792524846
20
-37.049774608203045
30
52.37500246068344
 70
     192
  0
VERTEX
  8
Layer0
10
644.2720928092195
20
-36.73193735565994
30
52.37500245608108
 70
     192
  0
VERTEX
  8
Layer0
10
644.5899300470684
20
-36.31772378764884
30
52.37500244672411
 70
     192
  0
VERTEX
  8
Layer0
10
644.7897308835214
20
-35.83536187430973
30
52.37500243325015
 70
     192
  0
VERTEX
  8
Layer0
10
644.8578792217611
20
-35.317723782895825
30
52.37500241658581
 70
     192
  0
VERTEX
  8
Layer0
10
647.0000019133986
20
374.68227685994594
30
52.37498277204638
 70
     192
  0
VERTEX
  8
Layer0
10
675.0681510346402
20
331.0577798242979
30
52.37498468723679
 70
     192
  0
VERTEX
  8
Layer0
10
675.2679518710943
20
331.54014173763704
30
52.3749846737713
 70
     192
  0
VERTEX
  8
Layer0
10
675.5857891089427
20
331.9543553056491
30
52.374984664415955
 70
     192
  0
VERTEX
  8
Layer0
10
676.0000026656779
20
332.27219255819114
30
52.37498465980454
 70
     192
  0
VERTEX
  8
Layer0
10
676.482364571929
20
332.4719934117567
30
52.37498466026169
 70
     192
  0
VERTEX
  8
Layer0
10
677.0000026609249
20
332.54014176836154
30
52.374984665752784
 70
     192
  0
VERTEX
  8
Layer0
10
677.5176407523392
20
332.47199343012056
30
52.374984675906525
 70
     192
  0
VERTEX
  8
Layer0
10
678.0000026656778
20
332.2721925936677
30
52.374984690019645
 70
     192
  0
VERTEX
  8
Layer0
10
678.4142162336886
20
331.9543553558202
30
52.37498470714043
 70
     192
  0
VERTEX
  8
Layer0
10
678.7320534862322
20
331.5401417990841
30
52.374984726100415
 70
     192
  0
VERTEX
  8
Layer0
10
678.9318543397972
20
331.0577798928328
30
52.37498474560661
 70
     192
  0
VERTEX
  8
Layer0
10
640.9260148236538
20
364.164638661999
30
52.3749830397943
 70
     192
  0
VERTEX
  8
Layer0
10
640.9260275600005
20
-34.8000857624348
30
52.37500233949237
 70
     192
  0
VERTEX
  8
Layer0
10
641.125815677219
20
363.6822767557472
30
52.37498305929977
 70
     192
  0
VERTEX
  8
Layer0
10
641.1258283964538
20
-34.317723849095415
30
52.3750023260224
 70
     192
  0
VERTEX
  8
Layer0
10
641.4436529297623
20
363.268063199012
30
52.374983078260314
 70
     192
  0
VERTEX
  8
Layer0
10
641.4436656343024
20
-33.90351028108451
30
52.37500231666591
 70
     192
  0
VERTEX
  8
Layer0
10
641.8578664977732
20
362.9502259611634
30
52.3749830953865
 70
     192
  0
VERTEX
  8
Layer0
10
641.8578791910371
20
-33.585673028541486
30
52.37500231206375
 70
     192
  0
VERTEX
  8
Layer0
10
642.3402284111127
20
362.7504251247113
30
52.37498310950449
 70
     192
  0
VERTEX
  8
Layer0
10
642.3402410972885
20
-33.38587217497717
30
52.37500231252273
 70
     192
  0
VERTEX
  8
Layer0
10
642.8578665025262
20
362.68227678647054
30
52.37498311964898
 70
     192
  0
VERTEX
  8
Layer0
10
642.8578791862845
20
-33.317723818371995
30
52.37500231800836
 70
     192
  0
VERTEX
  8
Layer0
10
643.3755045915228
20
362.7504251430746
30
52.374983125138804
 70
     192
  0
VERTEX
  8
Layer0
10
643.3755172776987
20
-33.38587215661256
30
52.375002328157066
 70
     192
  0
VERTEX
  8
Layer0
10
643.8578664977734
20
362.95022599664094
30
52.37498312559723
 70
     192
  0
VERTEX
  8
Layer0
10
643.8578791910375
20
-33.58567299306513
30
52.37500234227451
 70
     192
  0
VERTEX
  8
Layer0
10
644.2720800545086
20
363.268063249183
30
52.37498312099543
 70
     192
  0
VERTEX
  8
Layer0
10
644.2720927590487
20
-33.903510230913554
30
52.37500235940107
 70
     192
  0
VERTEX
  8
Layer0
10
644.5899172923572
20
363.68227681719526
30
52.374983111638635
 70
     192
  0
VERTEX
  8
Layer0
10
644.5899300115921
20
-34.31772378764894
30
52.375002378361245
 70
     192
  0
VERTEX
  8
Layer0
10
644.7897181288103
20
364.1646387305334
30
52.37498309816414
 70
     192
  0
VERTEX
  8
Layer0
10
644.7897308651573
20
-34.8000856938996
30
52.375002397862204
 70
     192
  0
VERTEX
  8
Layer0
10
644.8578664670498
20
364.6822768219481
30
52.37498308150051
 70
     192
  0
VERTEX
  8
Layer0
10
222.00001431335156
20
-5.317731283642653
30
52.375001410337184
 70
     192
  0
VERTEX
  8
Layer0
10
230.00000563843116
20
164.68226916068414
30
52.37499005934893
 70
     192
  0
VERTEX
  8
Layer0
10
230.00000269640867
20
330.5401338393759
30
52.37498438858604
 70
     192
  0
VERTEX
  8
Layer0
10
230.00001423987567
20
-1.1755955180067388
30
52.37500138960706
 70
     192
  0
VERTEX
  8
Layer0
10
230.06816259647886
20
-1.693233607002109
30
52.3750014083303
 70
     192
  0
VERTEX
  8
Layer0
10
230.26796345004536
20
-2.1755955132540783
30
52.37500142784191
 70
     192
  0
VERTEX
  8
Layer0
10
230.58580070258927
20
-2.5898090699883736
30
52.37500144680205
 70
     192
  0
VERTEX
  8
Layer0
10
231.00001427060073
20
-2.907646307837295
30
52.375001463919254
 70
     192
  0
VERTEX
  8
Layer0
10
231.4823761839401
20
-3.107447144289553
30
52.3750014780347
 70
     192
  0
VERTEX
  8
Layer0
10
232.00001427535275
20
-3.175595482529301
30
52.37500148818573
 70
     192
  0
VERTEX
  8
Layer0
10
232.51765236435023
20
-3.1074471259263823
30
52.37500149368094
 70
     192
  0
VERTEX
  8
Layer0
10
233.00001427060099
20
-2.9076462723599508
30
52.375001494138125
 70
     192
  0
VERTEX
  8
Layer0
10
233.41422782733565
20
-2.589809019817109
30
52.375001489526746
 70
     192
  0
VERTEX
  8
Layer0
10
233.73206506518363
20
-2.1755954518062417
30
52.37500148016972
 70
     192
  0
VERTEX
  8
Layer0
10
233.93186590163467
20
-1.6932335384678092
30
52.37500146670194
 70
     192
  0
VERTEX
  8
Layer0
10
234.0000142398755
20
-1.1755954470529981
30
52.37500145004135
 70
     192
  0
VERTEX
  8
Layer0
10
262.0000019134051
20
374.6822700307299
30
52.3749833631686
 70
     192
  0
VERTEX
  8
Layer0
10
264.21028605275905
20
365.19990816014274
30
52.37498372069215
 70
     192
  0
VERTEX
  8
Layer0
10
264.41008688921266
20
365.68227007348037
30
52.37498370721821
 70
     192
  0
VERTEX
  8
Layer0
10
264.72792412706013
20
366.09648364149234
30
52.374983697861026
 70
     192
  0
VERTEX
  8
Layer0
10
265.142137683796
20
366.4143208940347
30
52.374983693259765
 70
     192
  0
VERTEX
  8
Layer0
10
265.62449959004573
20
366.6141217476012
30
52.37498369371639
 70
     192
  0
VERTEX
  8
Layer0
10
266.142137679043
20
366.6822701042051
30
52.374983699202595
 70
     192
  0
VERTEX
  8
Layer0
10
266.65977577045584
20
366.61412176596417
30
52.37498370935272
 70
     192
  0
VERTEX
  8
Layer0
10
267.1421376837954
20
366.4143209295122
30
52.37498372346941
 70
     192
  0
VERTEX
  8
Layer0
10
267.55635125180595
20
366.0964836916636
30
52.37498374059527
 70
     192
  0
VERTEX
  8
Layer0
10
267.8741885043495
20
365.68227013492833
30
52.37498375955632
 70
     192
  0
VERTEX
  8
Layer0
10
268.0739893579146
20
365.19990822867663
30
52.374983779058745
 70
     192
  0
VERTEX
  8
Layer0
10
454.5000020553055
20
366.682273445338
30
52.37498691293852
 70
     192
  0
VERTEX
  8
Layer0
10
453.9823639663082
20
366.6141250887343
30
52.37498690745121
 70
     192
  0
VERTEX
  8
Layer0
10
453.50000206005836
20
366.41432423516875
30
52.37498690699441
 70
     192
  0
VERTEX
  8
Layer0
10
453.08578850332304
20
366.0964869826254
30
52.37498691159531
 70
     192
  0
VERTEX
  8
Layer0
10
452.7679512654747
20
365.6822734146144
30
52.37498692095304
 70
     192
  0
VERTEX
  8
Layer0
10
452.5681504290207
20
365.19991150127544
30
52.374986934423006
 70
     192
  0
VERTEX
  8
Layer0
10
455.01764014671835
20
366.6141251070971
30
52.37498692308682
 70
     192
  0
VERTEX
  8
Layer0
10
455.5000020600584
20
366.4143242706453
30
52.37498693720407
 70
     192
  0
VERTEX
  8
Layer0
10
455.9142156280694
20
366.09648703279646
30
52.37498695433083
 70
     192
  0
VERTEX
  8
Layer0
10
456.2320528806126
20
365.68227347606165
30
52.37498697329116
 70
     192
  0
VERTEX
  8
Layer0
10
456.4318537341772
20
365.1999115698095
30
52.37498699279304
 70
     192
  0
VERTEX
  8
Layer0
10
456.5000020907821
20
364.6822734808144
30
52.37498701151575
 70
     192
  0
VERTEX
  8
Layer0
10
641.1258156417425
20
365.68227675574707
30
52.374982990936545
 70
     192
  0
VERTEX
  8
Layer0
10
640.9260148052897
20
365.1999148424091
30
52.37498300440705
 70
     192
  0
VERTEX
  8
Layer0
10
641.443652879591
20
366.09649032375836
30
52.374982981579535
 70
     192
  0
VERTEX
  8
Layer0
10
641.8578664363263
20
366.41432757630133
30
52.37498297697791
 70
     192
  0
VERTEX
  8
Layer0
10
642.3402283425772
20
366.6141284298678
30
52.37498297743634
 70
     192
  0
VERTEX
  8
Layer0
10
642.8578664315737
20
366.6822767864707
30
52.37498298292237
 70
     192
  0
VERTEX
  8
Layer0
10
643.3755045229874
20
366.6141284482311
30
52.374982993070674
 70
     192
  0
VERTEX
  8
Layer0
10
643.8578664363265
20
366.41432761177884
30
52.37498300718864
 70
     192
  0
VERTEX
  8
Layer0
10
644.2720800043375
20
366.0964903739296
30
52.37498302431468
 70
     192
  0
VERTEX
  8
Layer0
10
644.5899172568808
20
365.68227681719515
30
52.37498304327541
 70
     192
  0
VERTEX
  8
Layer0
10
644.7897181104462
20
365.19991491094356
30
52.37498306277689
 70
     192
  0
VERTEX
  8
Layer0
10
452.5681504473855
20
364.1646353208653
30
52.37498696981026
 70
     192
  0
VERTEX
  8
Layer0
10
452.5681631837326
20
-34.80008910356881
30
52.375006269513754
 70
     192
  0
VERTEX
  8
Layer0
10
452.7679513009501
20
363.6822734146146
30
52.37498698931627
 70
     192
  0
VERTEX
  8
Layer0
10
452.7679640201853
20
-34.31772719023051
30
52.37500625604467
 70
     192
  0
VERTEX
  8
Layer0
10
453.08578855349435
20
363.268059857879
30
52.374987008276086
 70
     192
  0
VERTEX
  8
Layer0
10
453.08580125803445
20
-33.903513622219414
30
52.37500624668748
 70
     192
  0
VERTEX
  8
Layer0
10
453.5000021215043
20
362.95022262003084
30
52.37498702540264
 70
     192
  0
VERTEX
  8
Layer0
10
453.50001481476954
20
-33.585676369675944
30
52.37500624208531
 70
     192
  0
VERTEX
  8
Layer0
10
453.98236403484447
20
362.75042178357774
30
52.374987039519375
 70
     192
  0
VERTEX
  8
Layer0
10
453.9823767210204
20
-33.385875516110005
30
52.37500624254338
 70
     192
  0
VERTEX
  8
Layer0
10
454.5000021262573
20
362.68227344533784
30
52.37498704966513
 70
     192
  0
VERTEX
  8
Layer0
10
454.5000148100164
20
-33.317727159506816
30
52.37500624802994
 70
     192
  0
VERTEX
  8
Layer0
10
455.01764021525463
20
362.75042180194055
30
52.37498705515495
 70
     192
  0
VERTEX
  8
Layer0
10
455.0176529014305
20
-33.38587549774693
30
52.375006258178615
 70
     192
  0
VERTEX
  8
Layer0
10
455.5000021215044
20
362.9502226555074
30
52.37498705561266
 70
     192
  0
VERTEX
  8
Layer0
10
455.50001481476943
20
-33.58567633419869
30
52.375006272294996
 70
     192
  0
VERTEX
  8
Layer0
10
455.91421567824074
20
363.2680599080502
30
52.37498705101158
 70
     192
  0
VERTEX
  8
Layer0
10
455.91422838278044
20
-33.90351357204774
30
52.37500628942263
 70
     192
  0
VERTEX
  8
Layer0
10
456.232052916088
20
363.6822734760617
30
52.37498704165441
 70
     192
  0
VERTEX
  8
Layer0
10
456.2320656353232
20
-34.31772712878213
30
52.375006308382446
 70
     192
  0
VERTEX
  8
Layer0
10
456.431853752542
20
364.16463538939934
30
52.37498702818027
 70
     192
  0
VERTEX
  8
Layer0
10
456.4318664888888
20
-34.80008903503423
30
52.37500632788377
 70
     192
  0
VERTEX
  8
Layer0
10
230.06815105301266
20
330.0224957503808
30
52.374984407309285
 70
     192
  0
VERTEX
  8
Layer0
10
230.06815397667162
20
165.1999072520991
30
52.37499004268477
 70
     192
  0
VERTEX
  8
Layer0
10
230.2679519065788
20
329.5401338441291
30
52.374984426820916
 70
     192
  0
VERTEX
  8
Layer0
10
230.26795481312448
20
165.6822691654371
30
52.37499002922038
 70
     192
  0
VERTEX
  8
Layer0
10
230.58578915912108
20
329.1259202873938
30
52.374984445781784
 70
     192
  0
VERTEX
  8
Layer0
10
230.58579205097243
20
166.09648273344928
30
52.37499001986393
 70
     192
  0
VERTEX
  8
Layer0
10
231.00000272713237
20
328.8080830495454
30
52.37498446289826
 70
     192
  0
VERTEX
  8
Layer0
10
231.00000560770764
20
166.41431998599148
30
52.37499001525254
 70
     192
  0
VERTEX
  8
Layer0
10
231.4823646404704
20
328.6082822130932
30
52.37498447701442
 70
     192
  0
VERTEX
  8
Layer0
10
231.48236751395712
20
166.61412083955773
30
52.37499001570916
 70
     192
  0
VERTEX
  8
Layer0
10
232.0000027318832
20
328.5401338748524
30
52.3749844871651
 70
     192
  0
VERTEX
  8
Layer0
10
232.0000056029556
20
166.68226919616183
30
52.37499002120044
 70
     192
  0
VERTEX
  8
Layer0
10
232.51764082088053
20
328.60828223145637
30
52.374984492660694
 70
     192
  0
VERTEX
  8
Layer0
10
232.51764369436725
20
166.61412085792074
30
52.374990031355416
 70
     192
  0
VERTEX
  8
Layer0
10
233.00000272713262
20
328.8080830850228
30
52.37498449311713
 70
     192
  0
VERTEX
  8
Layer0
10
233.0000056077079
20
166.4143200214689
30
52.374990045471044
 70
     192
  0
VERTEX
  8
Layer0
10
233.41421628386746
20
329.1259203375652
30
52.37498448850646
 70
     192
  0
VERTEX
  8
Layer0
10
233.4142191757188
20
166.09648278362053
30
52.3749900625886
 70
     192
  0
VERTEX
  8
Layer0
10
233.73205352171632
20
329.54013390557697
30
52.37498447914912
 70
     192
  0
VERTEX
  8
Layer0
10
233.732056428262
20
165.68226922688515
30
52.374990081548205
 70
     192
  0
VERTEX
  8
Layer0
10
233.93185435816918
20
330.0224958189149
30
52.374984465680576
 70
     192
  0
VERTEX
  8
Layer0
10
233.93185728182814
20
165.1999073206335
30
52.37499010105637
 70
     192
  0
VERTEX
  8
Layer0
10
234.00000269640847
20
330.5401339103298
30
52.37498444902038
 70
     192
  0
VERTEX
  8
Layer0
10
234.00000563843096
20
164.6822692316381
30
52.37499011978323
 70
     192
  0
VERTEX
  8
Layer0
10
230.0681539950357
20
164.16463107168917
30
52.37499007807218
 70
     192
  0
VERTEX
  8
Layer0
10
230.06816257811604
20
-0.6579574265921533
30
52.37500137294288
 70
     192
  0
VERTEX
  8
Layer0
10
230.2679548486009
20
163.6822691654372
30
52.374990097583606
 70
     192
  0
VERTEX
  8
Layer0
10
230.26796341456782
20
-0.17559551325417216
30
52.37500135947868
 70
     192
  0
VERTEX
  8
Layer0
10
230.5857921011441
20
163.2680556087029
30
52.37499011654357
 70
     192
  0
VERTEX
  8
Layer0
10
230.58580065241833
20
0.23861805475782347
30
52.37500135012223
 70
     192
  0
VERTEX
  8
Layer0
10
231.00000566915358
20
162.95021837085358
30
52.374990133661306
 70
     192
  0
VERTEX
  8
Layer0
10
231.00001420915316
20
0.5564553073003943
30
52.37500134551066
 70
     192
  0
VERTEX
  8
Layer0
10
231.48236758249422
20
162.75041753440158
30
52.37499014777621
 70
     192
  0
VERTEX
  8
Layer0
10
231.48237611540472
20
0.756256160866555
30
52.37500134596746
 70
     192
  0
VERTEX
  8
Layer0
10
232.00000567390785
20
162.68226919616166
30
52.374990157927435
 70
     192
  0
VERTEX
  8
Layer0
10
232.00001420439878
20
0.8244045174704663
30
52.37500135145927
 70
     192
  0
VERTEX
  8
Layer0
10
232.51764376290436
20
162.7504175527646
30
52.37499016342249
 70
     192
  0
VERTEX
  8
Layer0
10
232.51765229581486
20
0.756256179229545
30
52.37500136161371
 70
     192
  0
VERTEX
  8
Layer0
10
233.00000566915384
20
162.9502184063312
30
52.374990163879836
 70
     192
  0
VERTEX
  8
Layer0
10
233.00001420915342
20
0.5564553427775578
30
52.37500137572952
 70
     192
  0
VERTEX
  8
Layer0
10
233.4142192258905
20
163.26805565887418
30
52.374990159268265
 70
     192
  0
VERTEX
  8
Layer0
10
233.41422777716468
20
0.23861810492908794
30
52.37500139284689
 70
     192
  0
VERTEX
  8
Layer0
10
233.73205646373845
20
163.68226922688518
30
52.374990149911426
 70
     192
  0
VERTEX
  8
Layer0
10
233.7320650297061
20
-0.17559545180633548
30
52.375001411806494
 70
     192
  0
VERTEX
  8
Layer0
10
233.9318573001922
20
164.16463114022338
30
52.37499013644381
 70
     192
  0
VERTEX
  8
Layer0
10
233.93186588327185
20
-0.6579573580576731
30
52.375001431314494
 70
     192
  0
VERTEX
  8
Layer0
10
222.00000262293426
20
334.6822693212013
30
52.37498412614245
 70
     192
  0
VERTEX
  8
Layer0
10
230.26795187110207
20
331.54013384412895
30
52.374984358457304
 70
     192
  0
VERTEX
  8
Layer0
10
230.06815103464652
20
331.0577719307909
30
52.3749843719219
 70
     192
  0
VERTEX
  8
Layer0
10
230.58578910894906
20
331.95434741213995
30
52.3749843491016
 70
     192
  0
VERTEX
  8
Layer0
10
231.0000026656846
20
332.27218466468304
30
52.37498434449003
 70
     192
  0
VERTEX
  8
Layer0
10
231.48236457193573
20
332.4719855182495
30
52.37498434494683
 70
     192
  0
VERTEX
  8
Layer0
10
232.0000026609325
20
332.5401338748524
30
52.37498435043864
 70
     192
  0
VERTEX
  8
Layer0
10
232.51764075234587
20
332.4719855366124
30
52.374984360593054
 70
     192
  0
VERTEX
  8
Layer0
10
233.0000026656849
20
332.27218470016055
30
52.37498437470891
 70
     192
  0
VERTEX
  8
Layer0
10
233.41421623369544
20
331.95434746231143
30
52.37498439182624
 70
     192
  0
VERTEX
  8
Layer0
10
233.73205348623964
20
331.5401339055769
30
52.37498441078553
 70
     192
  0
VERTEX
  8
Layer0
10
233.93185433980304
20
331.057771999325
30
52.37498443029314
 70
     192
  0
VERTEX
  8
Layer0
10
264.210286071123
20
364.16463197973263
30
52.3749837560794
 70
     192
  0
VERTEX
  8
Layer0
10
264.26994903692
20
-34.61426636021647
30
52.37500305032227
 70
     192
  0
VERTEX
  8
Layer0
10
264.4100869246887
20
363.6822700734805
30
52.37498377558145
 70
     192
  0
VERTEX
  8
Layer0
10
264.51581267083475
20
-34.15367493258736
30
52.37500303829306
 70
     192
  0
VERTEX
  8
Layer0
10
264.72792417723167
20
363.2680565167463
30
52.37498379454179
 70
     192
  0
VERTEX
  8
Layer0
10
264.73925893401935
20
-33.9148390151991
30
52.37500303350585
 70
     192
  0
VERTEX
  8
Layer0
10
265.1421377452422
20
362.9502192788968
30
52.37498381166835
 70
     192
  0
VERTEX
  8
Layer0
10
264.87250853805995
20
-33.77241196822884
30
52.37500303065051
 70
     192
  0
VERTEX
  8
Layer0
10
265.31572840471165
20
-33.49645990809311
30
52.37500302791355
 70
     192
  0
VERTEX
  8
Layer0
10
265.624499658582
20
362.75041844244504
30
52.37498382578418
 70
     192
  0
VERTEX
  8
Layer0
10
265.81526756933226
20
-33.34462442904703
30
52.37500303027083
 70
     192
  0
VERTEX
  8
Layer0
10
266.14213774999484
20
362.6822701042053
30
52.374983835929235
 70
     192
  0
VERTEX
  8
Layer0
10
266.337083263383
20
-33.3272528680696
30
52.37500303756011
 70
     192
  0
VERTEX
  8
Layer0
10
266.6597758389921
20
362.750418460808
30
52.374983841420836
 70
     192
  0
VERTEX
  8
Layer0
10
266.8456146096524
20
-33.445529068329456
30
52.37500304928516
 70
     192
  0
VERTEX
  8
Layer0
10
267.142137745242
20
362.95021931437446
30
52.374983841878
 70
     192
  0
VERTEX
  8
Layer0
10
267.30620603728306
20
-33.691392702245
30
52.37500306465166
 70
     192
  0
VERTEX
  8
Layer0
10
267.5563513019772
20
363.2680565669176
30
52.37498383727566
 70
     192
  0
VERTEX
  8
Layer0
10
267.68746900164194
20
-34.04808856946913
30
52.37500308259913
 70
     192
  0
VERTEX
  8
Layer0
10
267.8741885398255
20
363.6822701349284
30
52.374983827919586
 70
     192
  0
VERTEX
  8
Layer0
10
267.96342106177775
20
-34.49130843612135
30
52.375003101919276
 70
     192
  0
VERTEX
  8
Layer0
10
268.0739893762797
20
364.16463204826647
30
52.374983814445976
 70
     192
  0
VERTEX
  8
Layer0
10
268.11525654082334
20
-34.99084760074261
30
52.37500312128817
 70
     192
  0
VERTEX
  8
Layer0
10
268.12613866967007
20
-35.31773046544638
30
52.375003132624684
 70
     192
  0
VERTEX
  8
Layer0
10
0.0
 20
 0.0
 30
0.0
 70
     128
 71
-1
 72
2
 73
-3
  0
VERTEX
  8
Layer0
10
0.0
 20
 0.0
 30
0.0
 70
     128
 71
-2
 72
1
 73
-4
  0
VERTEX
  8
Layer0
10
0.0
 20
 0.0
 30
0.0
 70
     128
 71
-2
 72
-4
 73
5
  0
VERTEX
  8
Layer0
10
0.0
 20
 0.0
 30
0.0
 70
     128
 71
-5
 72
4
 73
-6
  0
VERTEX
  8
Layer0
10
0.0
 20
 0.0
 30
0.0
 70
     128
 71
-5
 72
-6
 73
7
  0
VERTEX
  8
Layer0
10
0.0
 20
 0.0
 30
0.0
 70
     128
 71
-7
 72
6
 73
-8
  0
VERTEX
  8
Layer0
10
0.0
 20
 0.0
 30
0.0
 70
     128
 71
-7
 72
-8
 73
9
  0
VERTEX
  8
Layer0
10
0.0
 20
 0.0
 30
0.0
 70
     128
 71
-9
 72
8
 73
-10
  0
VERTEX
  8
Layer0
10
0.0
 20
 0.0
 30
0.0
 70
     128
 71
-9
 72
-10
 73
11
  0
VERTEX
  8
Layer0
10
0.0
 20
 0.0
 30
0.0
 70
     128
 71
-11
 72
10
 73
-12
  0
VERTEX
  8
Layer0
10
0.0
 20
 0.0
 30
0.0
 70
     128
 71
-11
 72
-12
 73
13
  0
VERTEX
  8
Layer0
10
0.0
 20
 0.0
 30
0.0
 70
     128
 71
-13
 72
12
 73
-14
  0
VERTEX
  8
Layer0
10
0.0
 20
 0.0
 30
0.0
 70
     128
 71
-13
 72
-14
 73
15
  0
VERTEX
  8
Layer0
10
0.0
 20
 0.0
 30
0.0
 70
     128
 71
-15
 72
14
 73
-16
  0
VERTEX
  8
Layer0
10
0.0
 20
 0.0
 30
0.0
 70
     128
 71
-15
 72
-16
 73
17
  0
VERTEX
  8
Layer0
10
0.0
 20
 0.0
 30
0.0
 70
     128
 71
-17
 72
16
 73
-18
  0
VERTEX
  8
Layer0
10
0.0
 20
 0.0
 30
0.0
 70
     128
 71
-17
 72
-18
 73
19
  0
VERTEX
  8
Layer0
10
0.0
 20
 0.0
 30
0.0
 70
     128
 71
-19
 72
18
 73
-20
  0
VERTEX
  8
Layer0
10
0.0
 20
 0.0
 30
0.0
 70
     128
 71
-19
 72
-20
 73
21
  0
VERTEX
  8
Layer0
10
0.0
 20
 0.0
 30
0.0
 70
     128
 71
-21
 72
20
 73
-22
  0
VERTEX
  8
Layer0
10
0.0
 20
 0.0
 30
0.0
 70
     128
 71
-21
 72
-22
 73
23
  0
VERTEX
  8
Layer0
10
0.0
 20
 0.0
 30
0.0
 70
     128
 71
-23
 72
22
 73
-24
  0
VERTEX
  8
Layer0
10
0.0
 20
 0.0
 30
0.0
 70
     128
 71
-23
 72
-24
 73
25
  0
VERTEX
  8
Layer0
10
0.0
 20
 0.0
 30
0.0
 70
     128
 71
-25
 72
24
 73
-26
  0
VERTEX
  8
Layer0
10
0.0
 20
 0.0
 30
0.0
 70
     128
 71
-27
 72
28
 73
-1
  0
VERTEX
  8
Layer0
10
0.0
 20
 0.0
 30
0.0
 70
     128
 71
-28
 72
27
 73
-29
  0
VERTEX
  8
Layer0
10
0.0
 20
 0.0
 30
0.0
 70
     128
 71
-28
 72
-29
 73
30
  0
VERTEX
  8
Layer0
10
0.0
 20
 0.0
 30
0.0
 70
     128
 71
-30
 72
29
 73
-31
  0
VERTEX
  8
Layer0
10
0.0
 20
 0.0
 30
0.0
 70
     128
 71
-30
 72
-31
 73
32
  0
VERTEX
  8
Layer0
10
0.0
 20
 0.0
 30
0.0
 70
     128
 71
-32
 72
31
 73
-33
  0
VERTEX
  8
Layer0
10
0.0
 20
 0.0
 30
0.0
 70
     128
 71
-32
 72
-33
 73
34
  0
VERTEX
  8
Layer0
10
0.0
 20
 0.0
 30
0.0
 70
     128
 71
-34
 72
33
 73
-35
  0
VERTEX
  8
Layer0
10
0.0
 20
 0.0
 30
0.0
 70
     128
 71
-34
 72
-35
 73
36
  0
VERTEX
  8
Layer0
10
0.0
 20
 0.0
 30
0.0
 70
     128
 71
-36
 72
35
 73
-37
  0
VERTEX
  8
Layer0
10
0.0
 20
 0.0
 30
0.0
 70
     128
 71
-36
 72
-37
 73
38
  0
VERTEX
  8
Layer0
10
0.0
 20
 0.0
 30
0.0
 70
     128
 71
-38
 72
37
 73
-39
  0
VERTEX
  8
Layer0
10
0.0
 20
 0.0
 30
0.0
 70
     128
 71
-38
 72
-39
 73
40
  0
VERTEX
  8
Layer0
10
0.0
 20
 0.0
 30
0.0
 70
     128
 71
-40
 72
39
 73
-41
  0
VERTEX
  8
Layer0
10
0.0
 20
 0.0
 30
0.0
 70
     128
 71
-40
 72
-41
 73
42
  0
VERTEX
  8
Layer0
10
0.0
 20
 0.0
 30
0.0
 70
     128
 71
-42
 72
41
 73
-43
  0
VERTEX
  8
Layer0
10
0.0
 20
 0.0
 30
0.0
 70
     128
 71
-42
 72
-43
 73
44
  0
VERTEX
  8
Layer0
10
0.0
 20
 0.0
 30
0.0
 70
     128
 71
-44
 72
43
 73
-45
  0
VERTEX
  8
Layer0
10
0.0
 20
 0.0
 30
0.0
 70
     128
 71
-44
 72
-45
 73
46
  0
VERTEX
  8
Layer0
10
0.0
 20
 0.0
 30
0.0
 70
     128
 71
-46
 72
45
 73
-47
  0
VERTEX
  8
Layer0
10
0.0
 20
 0.0
 30
0.0
 70
     128
 71
-46
 72
-47
 73
48
  0
VERTEX
  8
Layer0
10
0.0
 20
 0.0
 30
0.0
 70
     128
 71
-48
 72
47
 73
-49
  0
VERTEX
  8
Layer0
10
0.0
 20
 0.0
 30
0.0
 70
     128
 71
-48
 72
-49
 73
26
  0
VERTEX
  8
Layer0
10
0.0
 20
 0.0
 30
0.0
 70
     128
 71
-26
 72
49
 73
-50
  0
VERTEX
  8
Layer0
10
0.0
 20
 0.0
 30
0.0
 70
     128
 71
-51
 72
-1
 73
-3
  0
VERTEX
  8
Layer0
10
0.0
 20
 0.0
 30
0.0
 70
     128
 71
-1
 72
-51
 73
-27
  0
VERTEX
  8
Layer0
10
0.0
 20
 0.0
 30
0.0
 70
     128
 71
-27
 72
-51
 73
52
  0
VERTEX
  8
Layer0
10
0.0
 20
 0.0
 30
0.0
 70
     128
 71
-52
 72
-51
 73
53
  0
VERTEX
  8
Layer0
10
0.0
 20
 0.0
 30
0.0
 70
     128
 71
-53
 72
-51
 73
54
  0
VERTEX
  8
Layer0
10
0.0
 20
 0.0
 30
0.0
 70
     128
 71
-54
 72
-51
 73
55
  0
VERTEX
  8
Layer0
10
0.0
 20
 0.0
 30
0.0
 70
     128
 71
-55
 72
-51
 73
56
  0
VERTEX
  8
Layer0
10
0.0
 20
 0.0
 30
0.0
 70
     128
 71
-56
 72
51
 73
-57
  0
VERTEX
  8
Layer0
10
0.0
 20
 0.0
 30
0.0
 70
     128
 71
-56
 72
-57
 73
58
  0
VERTEX
  8
Layer0
10
0.0
 20
 0.0
 30
0.0
 70
     128
 71
-58
 72
-57
 73
59
  0
VERTEX
  8
Layer0
10
0.0
 20
 0.0
 30
0.0
 70
     128
 71
-59
 72
-57
 73
60
  0
VERTEX
  8
Layer0
10
0.0
 20
 0.0
 30
0.0
 70
     128
 71
-60
 72
-57
 73
61
  0
VERTEX
  8
Layer0
10
0.0
 20
 0.0
 30
0.0
 70
     128
 71
-61
 72
-57
 73
62
  0
VERTEX
  8
Layer0
10
0.0
 20
 0.0
 30
0.0
 70
     128
 71
-62
 72
-57
 73
63
  0
VERTEX
  8
Layer0
10
0.0
 20
 0.0
 30
0.0
 70
     128
 71
-63
 72
-57
 73
50
  0
VERTEX
  8
Layer0
10
0.0
 20
 0.0
 30
0.0
 70
     128
 71
-50
 72
57
 73
-64
  0
VERTEX
  8
Layer0
10
0.0
 20
 0.0
 30
0.0
 70
     128
 71
-65
 72
-66
 73
-67
  0
VERTEX
  8
Layer0
10
0.0
 20
 0.0
 30
0.0
 70
     128
 71
-66
 72
-65
 73
68
  0
VERTEX
  8
Layer0
10
0.0
 20
 0.0
 30
0.0
 70
     128
 71
-68
 72
-65
 73
69
  0
VERTEX
  8
Layer0
10
0.0
 20
 0.0
 30
0.0
 70
     128
 71
-69
 72
-65
 73
70
  0
VERTEX
  8
Layer0
10
0.0
 20
 0.0
 30
0.0
 70
     128
 71
-70
 72
-65
 73
71
  0
VERTEX
  8
Layer0
10
0.0
 20
 0.0
 30
0.0
 70
     128
 71
-71
 72
-65
 73
72
  0
VERTEX
  8
Layer0
10
0.0
 20
 0.0
 30
0.0
 70
     128
 71
-72
 72
-65
 73
73
  0
VERTEX
  8
Layer0
10
0.0
 20
 0.0
 30
0.0
 70
     128
 71
-73
 72
65
 73
-51
  0
VERTEX
  8
Layer0
10
0.0
 20
 0.0
 30
0.0
 70
     128
 71
-73
 72
-51
 73
74
  0
VERTEX
  8
Layer0
10
0.0
 20
 0.0
 30
0.0
 70
     128
 71
-74
 72
-51
 73
75
  0
VERTEX
  8
Layer0
10
0.0
 20
 0.0
 30
0.0
 70
     128
 71
-75
 72
-51
 73
76
  0
VERTEX
  8
Layer0
10
0.0
 20
 0.0
 30
0.0
 70
     128
 71
-76
 72
-51
 73
77
  0
VERTEX
  8
Layer0
10
0.0
 20
 0.0
 30
0.0
 70
     128
 71
-77
 72
-51
 73
78
  0
VERTEX
  8
Layer0
10
0.0
 20
 0.0
 30
0.0
 70
     128
 71
-78
 72
-51
 73
79
  0
VERTEX
  8
Layer0
10
0.0
 20
 0.0
 30
0.0
 70
     128
 71
-79
 72
-51
 73
-80
  0
VERTEX
  8
Layer0
10
0.0
 20
 0.0
 30
0.0
 70
     128
 71
-79
 72
80
 73
-81
  0
VERTEX
  8
Layer0
10
0.0
 20
 0.0
 30
0.0
 70
     128
 71
-79
 72
81
 73
-82
  0
VERTEX
  8
Layer0
10
0.0
 20
 0.0
 30
0.0
 70
     128
 71
-79
 72
82
 73
-83
  0
VERTEX
  8
Layer0
10
0.0
 20
 0.0
 30
0.0
 70
     128
 71
-79
 72
83
 73
-84
  0
VERTEX
  8
Layer0
10
0.0
 20
 0.0
 30
0.0
 70
     128
 71
-79
 72
-84
 73
-85
  0
VERTEX
  8
Layer0
10
0.0
 20
 0.0
 30
0.0
 70
     128
 71
-85
 72
84
 73
-86
  0
VERTEX
  8
Layer0
10
0.0
 20
 0.0
 30
0.0
 70
     128
 71
-85
 72
86
 73
-87
  0
VERTEX
  8
Layer0
10
0.0
 20
 0.0
 30
0.0
 70
     128
 71
-85
 72
-87
 73
-88
  0
VERTEX
  8
Layer0
10
0.0
 20
 0.0
 30
0.0
 70
     128
 71
-80
 72
-51
 73
89
  0
VERTEX
  8
Layer0
10
0.0
 20
 0.0
 30
0.0
 70
     128
 71
-89
 72
-51
 73
90
  0
VERTEX
  8
Layer0
10
0.0
 20
 0.0
 30
0.0
 70
     128
 71
-90
 72
-51
 73
91
  0
VERTEX
  8
Layer0
10
0.0
 20
 0.0
 30
0.0
 70
     128
 71
-91
 72
-51
 73
92
  0
VERTEX
  8
Layer0
10
0.0
 20
 0.0
 30
0.0
 70
     128
 71
-92
 72
-51
 73
93
  0
VERTEX
  8
Layer0
10
0.0
 20
 0.0
 30
0.0
 70
     128
 71
-93
 72
-51
 73
94
  0
VERTEX
  8
Layer0
10
0.0
 20
 0.0
 30
0.0
 70
     128
 71
-94
 72
-51
 73
-95
  0
VERTEX
  8
Layer0
10
0.0
 20
 0.0
 30
0.0
 70
     128
 71
-94
 72
95
 73
-96
  0
VERTEX
  8
Layer0
10
0.0
 20
 0.0
 30
0.0
 70
     128
 71
-94
 72
96
 73
-97
  0
VERTEX
  8
Layer0
10
0.0
 20
 0.0
 30
0.0
 70
     128
 71
-94
 72
-97
 73
-98
  0
VERTEX
  8
Layer0
10
0.0
 20
 0.0
 30
0.0
 70
     128
 71
-95
 72
-51
 73
99
  0
VERTEX
  8
Layer0
10
0.0
 20
 0.0
 30
0.0
 70
     128
 71
-99
 72
-51
 73
100
  0
VERTEX
  8
Layer0
10
0.0
 20
 0.0
 30
0.0
 70
     128
 71
-100
 72
-51
 73
101
  0
VERTEX
  8
Layer0
10
0.0
 20
 0.0
 30
0.0
 70
     128
 71
-101
 72
-51
 73
102
  0
VERTEX
  8
Layer0
10
0.0
 20
 0.0
 30
0.0
 70
     128
 71
-102
 72
-51
 73
103
  0
VERTEX
  8
Layer0
10
0.0
 20
 0.0
 30
0.0
 70
     128
 71
-103
 72
-51
 73
104
  0
VERTEX
  8
Layer0
10
0.0
 20
 0.0
 30
0.0
 70
     128
 71
-104
 72
-51
 73
105
  0
VERTEX
  8
Layer0
10
0.0
 20
 0.0
 30
0.0
 70
     128
 71
-105
 72
-51
 73
106
  0
VERTEX
  8
Layer0
10
0.0
 20
 0.0
 30
0.0
 70
     128
 71
-106
 72
-51
 73
107
  0
VERTEX
  8
Layer0
10
0.0
 20
 0.0
 30
0.0
 70
     128
 71
-107
 72
-51
 73
108
  0
VERTEX
  8
Layer0
10
0.0
 20
 0.0
 30
0.0
 70
     128
 71
-108
 72
-51
 73
-109
  0
VERTEX
  8
Layer0
10
0.0
 20
 0.0
 30
0.0
 70
     128
 71
-109
 72
-51
 73
-3
  0
VERTEX
  8
Layer0
10
0.0
 20
 0.0
 30
0.0
 70
     128
 71
-109
 72
3
 73
-110
  0
VERTEX
  8
Layer0
10
0.0
 20
 0.0
 30
0.0
 70
     128
 71
-109
 72
110
 73
-111
  0
VERTEX
  8
Layer0
10
0.0
 20
 0.0
 30
0.0
 70
     128
 71
-109
 72
111
 73
-112
  0
VERTEX
  8
Layer0
10
0.0
 20
 0.0
 30
0.0
 70
     128
 71
-109
 72
112
 73
-113
  0
VERTEX
  8
Layer0
10
0.0
 20
 0.0
 30
0.0
 70
     128
 71
-109
 72
113
 73
-114
  0
VERTEX
  8
Layer0
10
0.0
 20
 0.0
 30
0.0
 70
     128
 71
-109
 72
-114
 73
64
  0
VERTEX
  8
Layer0
10
0.0
 20
 0.0
 30
0.0
 70
     128
 71
-64
 72
114
 73
-115
  0
VERTEX
  8
Layer0
10
0.0
 20
 0.0
 30
0.0
 70
     128
 71
-64
 72
115
 73
-116
  0
VERTEX
  8
Layer0
10
0.0
 20
 0.0
 30
0.0
 70
     128
 71
-64
 72
116
 73
-117
  0
VERTEX
  8
Layer0
10
0.0
 20
 0.0
 30
0.0
 70
     128
 71
-64
 72
117
 73
-118
  0
VERTEX
  8
Layer0
10
0.0
 20
 0.0
 30
0.0
 70
     128
 71
-64
 72
118
 73
-119
  0
VERTEX
  8
Layer0
10
0.0
 20
 0.0
 30
0.0
 70
     128
 71
-64
 72
119
 73
-120
  0
VERTEX
  8
Layer0
10
0.0
 20
 0.0
 30
0.0
 70
     128
 71
-64
 72
120
 73
-25
  0
VERTEX
  8
Layer0
10
0.0
 20
 0.0
 30
0.0
 70
     128
 71
-64
 72
-25
 73
-26
  0
VERTEX
  8
Layer0
10
0.0
 20
 0.0
 30
0.0
 70
     128
 71
-64
 72
-26
 73
-50
  0
VERTEX
  8
Layer0
10
0.0
 20
 0.0
 30
0.0
 70
     128
 71
-97
 72
121
 73
-98
  0
VERTEX
  8
Layer0
10
0.0
 20
 0.0
 30
0.0
 70
     128
 71
-121
 72
97
 73
-122
  0
VERTEX
  8
Layer0
10
0.0
 20
 0.0
 30
0.0
 70
     128
 71
-121
 72
-122
 73
123
  0
VERTEX
  8
Layer0
10
0.0
 20
 0.0
 30
0.0
 70
     128
 71
-123
 72
122
 73
-124
  0
VERTEX
  8
Layer0
10
0.0
 20
 0.0
 30
0.0
 70
     128
 71
-123
 72
-124
 73
125
  0
VERTEX
  8
Layer0
10
0.0
 20
 0.0
 30
0.0
 70
     128
 71
-125
 72
124
 73
-126
  0
VERTEX
  8
Layer0
10
0.0
 20
 0.0
 30
0.0
 70
     128
 71
-125
 72
-126
 73
127
  0
VERTEX
  8
Layer0
10
0.0
 20
 0.0
 30
0.0
 70
     128
 71
-127
 72
126
 73
-128
  0
VERTEX
  8
Layer0
10
0.0
 20
 0.0
 30
0.0
 70
     128
 71
-127
 72
-128
 73
129
  0
VERTEX
  8
Layer0
10
0.0
 20
 0.0
 30
0.0
 70
     128
 71
-129
 72
128
 73
-130
  0
VERTEX
  8
Layer0
10
0.0
 20
 0.0
 30
0.0
 70
     128
 71
-129
 72
-130
 73
131
  0
VERTEX
  8
Layer0
10
0.0
 20
 0.0
 30
0.0
 70
     128
 71
-131
 72
130
 73
-132
  0
VERTEX
  8
Layer0
10
0.0
 20
 0.0
 30
0.0
 70
     128
 71
-131
 72
-132
 73
133
  0
VERTEX
  8
Layer0
10
0.0
 20
 0.0
 30
0.0
 70
     128
 71
-133
 72
132
 73
-134
  0
VERTEX
  8
Layer0
10
0.0
 20
 0.0
 30
0.0
 70
     128
 71
-133
 72
-134
 73
135
  0
VERTEX
  8
Layer0
10
0.0
 20
 0.0
 30
0.0
 70
     128
 71
-135
 72
134
 73
-136
  0
VERTEX
  8
Layer0
10
0.0
 20
 0.0
 30
0.0
 70
     128
 71
-135
 72
-136
 73
137
  0
VERTEX
  8
Layer0
10
0.0
 20
 0.0
 30
0.0
 70
     128
 71
-137
 72
136
 73
-138
  0
VERTEX
  8
Layer0
10
0.0
 20
 0.0
 30
0.0
 70
     128
 71
-137
 72
-138
 73
139
  0
VERTEX
  8
Layer0
10
0.0
 20
 0.0
 30
0.0
 70
     128
 71
-139
 72
138
 73
-140
  0
VERTEX
  8
Layer0
10
0.0
 20
 0.0
 30
0.0
 70
     128
 71
-139
 72
-140
 73
141
  0
VERTEX
  8
Layer0
10
0.0
 20
 0.0
 30
0.0
 70
     128
 71
-141
 72
140
 73
-142
  0
VERTEX
  8
Layer0
10
0.0
 20
 0.0
 30
0.0
 70
     128
 71
-141
 72
-142
 73
143
  0
VERTEX
  8
Layer0
10
0.0
 20
 0.0
 30
0.0
 70
     128
 71
-143
 72
142
 73
-108
  0
VERTEX
  8
Layer0
10
0.0
 20
 0.0
 30
0.0
 70
     128
 71
-144
 72
-145
 73
-146
  0
VERTEX
  8
Layer0
10
0.0
 20
 0.0
 30
0.0
 70
     128
 71
-145
 72
-144
 73
-147
  0
VERTEX
  8
Layer0
10
0.0
 20
 0.0
 30
0.0
 70
     128
 71
-147
 72
-144
 73
148
  0
VERTEX
  8
Layer0
10
0.0
 20
 0.0
 30
0.0
 70
     128
 71
-148
 72
-144
 73
149
  0
VERTEX
  8
Layer0
10
0.0
 20
 0.0
 30
0.0
 70
     128
 71
-149
 72
144
 73
-65
  0
VERTEX
  8
Layer0
10
0.0
 20
 0.0
 30
0.0
 70
     128
 71
-149
 72
-65
 73
150
  0
VERTEX
  8
Layer0
10
0.0
 20
 0.0
 30
0.0
 70
     128
 71
-150
 72
-65
 73
151
  0
VERTEX
  8
Layer0
10
0.0
 20
 0.0
 30
0.0
 70
     128
 71
-151
 72
-65
 73
152
  0
VERTEX
  8
Layer0
10
0.0
 20
 0.0
 30
0.0
 70
     128
 71
-152
 72
-65
 73
153
  0
VERTEX
  8
Layer0
10
0.0
 20
 0.0
 30
0.0
 70
     128
 71
-153
 72
-65
 73
154
  0
VERTEX
  8
Layer0
10
0.0
 20
 0.0
 30
0.0
 70
     128
 71
-154
 72
-65
 73
155
  0
VERTEX
  8
Layer0
10
0.0
 20
 0.0
 30
0.0
 70
     128
 71
-155
 72
-65
 73
156
  0
VERTEX
  8
Layer0
10
0.0
 20
 0.0
 30
0.0
 70
     128
 71
-156
 72
-65
 73
157
  0
VERTEX
  8
Layer0
10
0.0
 20
 0.0
 30
0.0
 70
     128
 71
-157
 72
-65
 73
158
  0
VERTEX
  8
Layer0
10
0.0
 20
 0.0
 30
0.0
 70
     128
 71
-158
 72
-65
 73
159
  0
VERTEX
  8
Layer0
10
0.0
 20
 0.0
 30
0.0
 70
     128
 71
-159
 72
-65
 73
-160
  0
VERTEX
  8
Layer0
10
0.0
 20
 0.0
 30
0.0
 70
     128
 71
-160
 72
-65
 73
-67
  0
VERTEX
  8
Layer0
10
0.0
 20
 0.0
 30
0.0
 70
     128
 71
-160
 72
67
 73
-161
  0
VERTEX
  8
Layer0
10
0.0
 20
 0.0
 30
0.0
 70
     128
 71
-160
 72
161
 73
-162
  0
VERTEX
  8
Layer0
10
0.0
 20
 0.0
 30
0.0
 70
     128
 71
-160
 72
162
 73
-163
  0
VERTEX
  8
Layer0
10
0.0
 20
 0.0
 30
0.0
 70
     128
 71
-160
 72
163
 73
-164
  0
VERTEX
  8
Layer0
10
0.0
 20
 0.0
 30
0.0
 70
     128
 71
-160
 72
164
 73
-165
  0
VERTEX
  8
Layer0
10
0.0
 20
 0.0
 30
0.0
 70
     128
 71
-160
 72
165
 73
-166
  0
VERTEX
  8
Layer0
10
0.0
 20
 0.0
 30
0.0
 70
     128
 71
-160
 72
-166
 73
109
  0
VERTEX
  8
Layer0
10
0.0
 20
 0.0
 30
0.0
 70
     128
 71
-109
 72
166
 73
-167
  0
VERTEX
  8
Layer0
10
0.0
 20
 0.0
 30
0.0
 70
     128
 71
-109
 72
167
 73
-168
  0
VERTEX
  8
Layer0
10
0.0
 20
 0.0
 30
0.0
 70
     128
 71
-109
 72
168
 73
-169
  0
VERTEX
  8
Layer0
10
0.0
 20
 0.0
 30
0.0
 70
     128
 71
-109
 72
169
 73
-170
  0
VERTEX
  8
Layer0
10
0.0
 20
 0.0
 30
0.0
 70
     128
 71
-109
 72
170
 73
-171
  0
VERTEX
  8
Layer0
10
0.0
 20
 0.0
 30
0.0
 70
     128
 71
-109
 72
171
 73
-85
  0
VERTEX
  8
Layer0
10
0.0
 20
 0.0
 30
0.0
 70
     128
 71
-109
 72
-85
 73
-172
  0
VERTEX
  8
Layer0
10
0.0
 20
 0.0
 30
0.0
 70
     128
 71
-172
 72
-85
 73
173
  0
VERTEX
  8
Layer0
10
0.0
 20
 0.0
 30
0.0
 70
     128
 71
-173
 72
-85
 73
174
  0
VERTEX
  8
Layer0
10
0.0
 20
 0.0
 30
0.0
 70
     128
 71
-174
 72
-85
 73
175
  0
VERTEX
  8
Layer0
10
0.0
 20
 0.0
 30
0.0
 70
     128
 71
-175
 72
-85
 73
176
  0
VERTEX
  8
Layer0
10
0.0
 20
 0.0
 30
0.0
 70
     128
 71
-176
 72
-85
 73
177
  0
VERTEX
  8
Layer0
10
0.0
 20
 0.0
 30
0.0
 70
     128
 71
-177
 72
-85
 73
88
  0
VERTEX
  8
Layer0
10
0.0
 20
 0.0
 30
0.0
 70
     128
 71
-109
 72
172
 73
-178
  0
VERTEX
  8
Layer0
10
0.0
 20
 0.0
 30
0.0
 70
     128
 71
-109
 72
178
 73
-179
  0
VERTEX
  8
Layer0
10
0.0
 20
 0.0
 30
0.0
 70
     128
 71
-109
 72
179
 73
-180
  0
VERTEX
  8
Layer0
10
0.0
 20
 0.0
 30
0.0
 70
     128
 71
-109
 72
180
 73
-181
  0
VERTEX
  8
Layer0
10
0.0
 20
 0.0
 30
0.0
 70
     128
 71
-109
 72
181
 73
-182
  0
VERTEX
  8
Layer0
10
0.0
 20
 0.0
 30
0.0
 70
     128
 71
-109
 72
182
 73
-183
  0
VERTEX
  8
Layer0
10
0.0
 20
 0.0
 30
0.0
 70
     128
 71
-109
 72
-183
 73
-184
  0
VERTEX
  8
Layer0
10
0.0
 20
 0.0
 30
0.0
 70
     128
 71
-184
 72
-183
 73
-94
  0
VERTEX
  8
Layer0
10
0.0
 20
 0.0
 30
0.0
 70
     128
 71
-184
 72
-94
 73
185
  0
VERTEX
  8
Layer0
10
0.0
 20
 0.0
 30
0.0
 70
     128
 71
-185
 72
-94
 73
98
  0
VERTEX
  8
Layer0
10
0.0
 20
 0.0
 30
0.0
 70
     128
 71
-109
 72
184
 73
-186
  0
VERTEX
  8
Layer0
10
0.0
 20
 0.0
 30
0.0
 70
     128
 71
-109
 72
186
 73
-187
  0
VERTEX
  8
Layer0
10
0.0
 20
 0.0
 30
0.0
 70
     128
 71
-109
 72
187
 73
-188
  0
VERTEX
  8
Layer0
10
0.0
 20
 0.0
 30
0.0
 70
     128
 71
-109
 72
188
 73
-189
  0
VERTEX
  8
Layer0
10
0.0
 20
 0.0
 30
0.0
 70
     128
 71
-109
 72
189
 73
-190
  0
VERTEX
  8
Layer0
10
0.0
 20
 0.0
 30
0.0
 70
     128
 71
-109
 72
190
 73
-191
  0
VERTEX
  8
Layer0
10
0.0
 20
 0.0
 30
0.0
 70
     128
 71
-109
 72
191
 73
-192
  0
VERTEX
  8
Layer0
10
0.0
 20
 0.0
 30
0.0
 70
     128
 71
-109
 72
192
 73
-193
  0
VERTEX
  8
Layer0
10
0.0
 20
 0.0
 30
0.0
 70
     128
 71
-109
 72
193
 73
-194
  0
VERTEX
  8
Layer0
10
0.0
 20
 0.0
 30
0.0
 70
     128
 71
-109
 72
194
 73
-143
  0
VERTEX
  8
Layer0
10
0.0
 20
 0.0
 30
0.0
 70
     128
 71
-109
 72
-143
 73
-108
  0
VERTEX
  8
Layer0
10
0.0
 20
 0.0
 30
0.0
 70
     128
 71
-87
 72
195
 73
-88
  0
VERTEX
  8
Layer0
10
0.0
 20
 0.0
 30
0.0
 70
     128
 71
-195
 72
87
 73
-196
  0
VERTEX
  8
Layer0
10
0.0
 20
 0.0
 30
0.0
 70
     128
 71
-195
 72
-196
 73
197
  0
VERTEX
  8
Layer0
10
0.0
 20
 0.0
 30
0.0
 70
     128
 71
-197
 72
196
 73
-198
  0
VERTEX
  8
Layer0
10
0.0
 20
 0.0
 30
0.0
 70
     128
 71
-197
 72
-198
 73
199
  0
VERTEX
  8
Layer0
10
0.0
 20
 0.0
 30
0.0
 70
     128
 71
-199
 72
198
 73
-200
  0
VERTEX
  8
Layer0
10
0.0
 20
 0.0
 30
0.0
 70
     128
 71
-199
 72
-200
 73
201
  0
VERTEX
  8
Layer0
10
0.0
 20
 0.0
 30
0.0
 70
     128
 71
-201
 72
200
 73
-202
  0
VERTEX
  8
Layer0
10
0.0
 20
 0.0
 30
0.0
 70
     128
 71
-201
 72
-202
 73
203
  0
VERTEX
  8
Layer0
10
0.0
 20
 0.0
 30
0.0
 70
     128
 71
-203
 72
202
 73
-204
  0
VERTEX
  8
Layer0
10
0.0
 20
 0.0
 30
0.0
 70
     128
 71
-203
 72
-204
 73
205
  0
VERTEX
  8
Layer0
10
0.0
 20
 0.0
 30
0.0
 70
     128
 71
-205
 72
204
 73
-206
  0
VERTEX
  8
Layer0
10
0.0
 20
 0.0
 30
0.0
 70
     128
 71
-205
 72
-206
 73
207
  0
VERTEX
  8
Layer0
10
0.0
 20
 0.0
 30
0.0
 70
     128
 71
-207
 72
206
 73
-208
  0
VERTEX
  8
Layer0
10
0.0
 20
 0.0
 30
0.0
 70
     128
 71
-207
 72
-208
 73
209
  0
VERTEX
  8
Layer0
10
0.0
 20
 0.0
 30
0.0
 70
     128
 71
-209
 72
208
 73
-210
  0
VERTEX
  8
Layer0
10
0.0
 20
 0.0
 30
0.0
 70
     128
 71
-209
 72
-210
 73
211
  0
VERTEX
  8
Layer0
10
0.0
 20
 0.0
 30
0.0
 70
     128
 71
-211
 72
210
 73
-212
  0
VERTEX
  8
Layer0
10
0.0
 20
 0.0
 30
0.0
 70
     128
 71
-211
 72
-212
 73
213
  0
VERTEX
  8
Layer0
10
0.0
 20
 0.0
 30
0.0
 70
     128
 71
-213
 72
212
 73
-214
  0
VERTEX
  8
Layer0
10
0.0
 20
 0.0
 30
0.0
 70
     128
 71
-213
 72
-214
 73
215
  0
VERTEX
  8
Layer0
10
0.0
 20
 0.0
 30
0.0
 70
     128
 71
-215
 72
214
 73
-216
  0
VERTEX
  8
Layer0
10
0.0
 20
 0.0
 30
0.0
 70
     128
 71
-215
 72
-216
 73
183
  0
VERTEX
  8
Layer0
10
0.0
 20
 0.0
 30
0.0
 70
     128
 71
-183
 72
216
 73
-94
  0
VERTEX
  8
Layer0
10
0.0
 20
 0.0
 30
0.0
 70
     128
 71
-145
 72
217
 73
-146
  0
VERTEX
  8
Layer0
10
0.0
 20
 0.0
 30
0.0
 70
     128
 71
-217
 72
145
 73
-218
  0
VERTEX
  8
Layer0
10
0.0
 20
 0.0
 30
0.0
 70
     128
 71
-217
 72
-218
 73
219
  0
VERTEX
  8
Layer0
10
0.0
 20
 0.0
 30
0.0
 70
     128
 71
-219
 72
218
 73
-220
  0
VERTEX
  8
Layer0
10
0.0
 20
 0.0
 30
0.0
 70
     128
 71
-219
 72
-220
 73
221
  0
VERTEX
  8
Layer0
10
0.0
 20
 0.0
 30
0.0
 70
     128
 71
-221
 72
220
 73
-222
  0
VERTEX
  8
Layer0
10
0.0
 20
 0.0
 30
0.0
 70
     128
 71
-221
 72
-222
 73
223
  0
VERTEX
  8
Layer0
10
0.0
 20
 0.0
 30
0.0
 70
     128
 71
-223
 72
222
 73
-224
  0
VERTEX
  8
Layer0
10
0.0
 20
 0.0
 30
0.0
 70
     128
 71
-223
 72
-224
 73
225
  0
VERTEX
  8
Layer0
10
0.0
 20
 0.0
 30
0.0
 70
     128
 71
-225
 72
224
 73
-226
  0
VERTEX
  8
Layer0
10
0.0
 20
 0.0
 30
0.0
 70
     128
 71
-225
 72
-226
 73
227
  0
VERTEX
  8
Layer0
10
0.0
 20
 0.0
 30
0.0
 70
     128
 71
-227
 72
226
 73
-228
  0
VERTEX
  8
Layer0
10
0.0
 20
 0.0
 30
0.0
 70
     128
 71
-227
 72
-228
 73
229
  0
VERTEX
  8
Layer0
10
0.0
 20
 0.0
 30
0.0
 70
     128
 71
-229
 72
228
 73
-230
  0
VERTEX
  8
Layer0
10
0.0
 20
 0.0
 30
0.0
 70
     128
 71
-229
 72
-230
 73
231
  0
VERTEX
  8
Layer0
10
0.0
 20
 0.0
 30
0.0
 70
     128
 71
-231
 72
230
 73
-232
  0
VERTEX
  8
Layer0
10
0.0
 20
 0.0
 30
0.0
 70
     128
 71
-231
 72
-232
 73
233
  0
VERTEX
  8
Layer0
10
0.0
 20
 0.0
 30
0.0
 70
     128
 71
-233
 72
232
 73
-234
  0
VERTEX
  8
Layer0
10
0.0
 20
 0.0
 30
0.0
 70
     128
 71
-233
 72
-234
 73
235
  0
VERTEX
  8
Layer0
10
0.0
 20
 0.0
 30
0.0
 70
     128
 71
-235
 72
234
 73
-236
  0
VERTEX
  8
Layer0
10
0.0
 20
 0.0
 30
0.0
 70
     128
 71
-235
 72
-236
 73
237
  0
VERTEX
  8
Layer0
10
0.0
 20
 0.0
 30
0.0
 70
     128
 71
-237
 72
236
 73
-238
  0
VERTEX
  8
Layer0
10
0.0
 20
 0.0
 30
0.0
 70
     128
 71
-237
 72
-238
 73
239
  0
VERTEX
  8
Layer0
10
0.0
 20
 0.0
 30
0.0
 70
     128
 71
-239
 72
238
 73
-240
  0
VERTEX
  8
Layer0
10
0.0
 20
 0.0
 30
0.0
 70
     128
 71
-147
 72
241
 73
-145
  0
VERTEX
  8
Layer0
10
0.0
 20
 0.0
 30
0.0
 70
     128
 71
-241
 72
147
 73
-242
  0
VERTEX
  8
Layer0
10
0.0
 20
 0.0
 30
0.0
 70
     128
 71
-241
 72
-242
 73
243
  0
VERTEX
  8
Layer0
10
0.0
 20
 0.0
 30
0.0
 70
     128
 71
-243
 72
242
 73
-244
  0
VERTEX
  8
Layer0
10
0.0
 20
 0.0
 30
0.0
 70
     128
 71
-243
 72
-244
 73
245
  0
VERTEX
  8
Layer0
10
0.0
 20
 0.0
 30
0.0
 70
     128
 71
-245
 72
244
 73
-246
  0
VERTEX
  8
Layer0
10
0.0
 20
 0.0
 30
0.0
 70
     128
 71
-245
 72
-246
 73
247
  0
VERTEX
  8
Layer0
10
0.0
 20
 0.0
 30
0.0
 70
     128
 71
-247
 72
246
 73
-248
  0
VERTEX
  8
Layer0
10
0.0
 20
 0.0
 30
0.0
 70
     128
 71
-247
 72
-248
 73
249
  0
VERTEX
  8
Layer0
10
0.0
 20
 0.0
 30
0.0
 70
     128
 71
-249
 72
248
 73
-250
  0
VERTEX
  8
Layer0
10
0.0
 20
 0.0
 30
0.0
 70
     128
 71
-249
 72
-250
 73
251
  0
VERTEX
  8
Layer0
10
0.0
 20
 0.0
 30
0.0
 70
     128
 71
-251
 72
250
 73
-252
  0
VERTEX
  8
Layer0
10
0.0
 20
 0.0
 30
0.0
 70
     128
 71
-251
 72
-252
 73
253
  0
VERTEX
  8
Layer0
10
0.0
 20
 0.0
 30
0.0
 70
     128
 71
-253
 72
252
 73
-254
  0
VERTEX
  8
Layer0
10
0.0
 20
 0.0
 30
0.0
 70
     128
 71
-253
 72
-254
 73
255
  0
VERTEX
  8
Layer0
10
0.0
 20
 0.0
 30
0.0
 70
     128
 71
-255
 72
254
 73
-256
  0
VERTEX
  8
Layer0
10
0.0
 20
 0.0
 30
0.0
 70
     128
 71
-255
 72
-256
 73
257
  0
VERTEX
  8
Layer0
10
0.0
 20
 0.0
 30
0.0
 70
     128
 71
-257
 72
256
 73
-258
  0
VERTEX
  8
Layer0
10
0.0
 20
 0.0
 30
0.0
 70
     128
 71
-257
 72
-258
 73
259
  0
VERTEX
  8
Layer0
10
0.0
 20
 0.0
 30
0.0
 70
     128
 71
-259
 72
258
 73
-260
  0
VERTEX
  8
Layer0
10
0.0
 20
 0.0
 30
0.0
 70
     128
 71
-259
 72
-260
 73
261
  0
VERTEX
  8
Layer0
10
0.0
 20
 0.0
 30
0.0
 70
     128
 71
-261
 72
260
 73
-262
  0
VERTEX
  8
Layer0
10
0.0
 20
 0.0
 30
0.0
 70
     128
 71
-261
 72
-262
 73
240
  0
VERTEX
  8
Layer0
10
0.0
 20
 0.0
 30
0.0
 70
     128
 71
-240
 72
262
 73
-159
  0
VERTEX
  8
Layer0
10
0.0
 20
 0.0
 30
0.0
 70
     128
 71
-263
 72
-264
 73
160
  0
VERTEX
  8
Layer0
10
0.0
 20
 0.0
 30
0.0
 70
     128
 71
-264
 72
-263
 73
265
  0
VERTEX
  8
Layer0
10
0.0
 20
 0.0
 30
0.0
 70
     128
 71
-265
 72
-263
 73
146
  0
VERTEX
  8
Layer0
10
0.0
 20
 0.0
 30
0.0
 70
     128
 71
-146
 72
263
 73
-144
  0
VERTEX
  8
Layer0
10
0.0
 20
 0.0
 30
0.0
 70
     128
 71
-160
 72
264
 73
-266
  0
VERTEX
  8
Layer0
10
0.0
 20
 0.0
 30
0.0
 70
     128
 71
-160
 72
266
 73
-267
  0
VERTEX
  8
Layer0
10
0.0
 20
 0.0
 30
0.0
 70
     128
 71
-160
 72
267
 73
-268
  0
VERTEX
  8
Layer0
10
0.0
 20
 0.0
 30
0.0
 70
     128
 71
-160
 72
268
 73
-269
  0
VERTEX
  8
Layer0
10
0.0
 20
 0.0
 30
0.0
 70
     128
 71
-160
 72
269
 73
-270
  0
VERTEX
  8
Layer0
10
0.0
 20
 0.0
 30
0.0
 70
     128
 71
-160
 72
270
 73
-271
  0
VERTEX
  8
Layer0
10
0.0
 20
 0.0
 30
0.0
 70
     128
 71
-160
 72
271
 73
-272
  0
VERTEX
  8
Layer0
10
0.0
 20
 0.0
 30
0.0
 70
     128
 71
-160
 72
272
 73
-273
  0
VERTEX
  8
Layer0
10
0.0
 20
 0.0
 30
0.0
 70
     128
 71
-160
 72
273
 73
-274
  0
VERTEX
  8
Layer0
10
0.0
 20
 0.0
 30
0.0
 70
     128
 71
-160
 72
274
 73
-239
  0
VERTEX
  8
Layer0
10
0.0
 20
 0.0
 30
0.0
 70
     128
 71
-160
 72
-239
 73
-240
  0
VERTEX
  8
Layer0
10
0.0
 20
 0.0
 30
0.0
 70
     128
 71
-160
 72
-240
 73
-159
  0
VERTEX
  8
Layer0
10
0.0
 20
 0.0
 30
0.0
 70
     128
 71
-66
 72
275
 73
-67
  0
VERTEX
  8
Layer0
10
0.0
 20
 0.0
 30
0.0
 70
     128
 71
-275
 72
66
 73
-276
  0
VERTEX
  8
Layer0
10
0.0
 20
 0.0
 30
0.0
 70
     128
 71
-275
 72
-276
 73
277
  0
VERTEX
  8
Layer0
10
0.0
 20
 0.0
 30
0.0
 70
     128
 71
-277
 72
276
 73
-278
  0
VERTEX
  8
Layer0
10
0.0
 20
 0.0
 30
0.0
 70
     128
 71
-277
 72
-278
 73
279
  0
VERTEX
  8
Layer0
10
0.0
 20
 0.0
 30
0.0
 70
     128
 71
-279
 72
278
 73
-280
  0
VERTEX
  8
Layer0
10
0.0
 20
 0.0
 30
0.0
 70
     128
 71
-279
 72
-280
 73
281
  0
VERTEX
  8
Layer0
10
0.0
 20
 0.0
 30
0.0
 70
     128
 71
-281
 72
280
 73
-282
  0
VERTEX
  8
Layer0
10
0.0
 20
 0.0
 30
0.0
 70
     128
 71
-281
 72
282
 73
-283
  0
VERTEX
  8
Layer0
10
0.0
 20
 0.0
 30
0.0
 70
     128
 71
-281
 72
-283
 73
284
  0
VERTEX
  8
Layer0
10
0.0
 20
 0.0
 30
0.0
 70
     128
 71
-284
 72
283
 73
-285
  0
VERTEX
  8
Layer0
10
0.0
 20
 0.0
 30
0.0
 70
     128
 71
-284
 72
-285
 73
286
  0
VERTEX
  8
Layer0
10
0.0
 20
 0.0
 30
0.0
 70
     128
 71
-286
 72
285
 73
-287
  0
VERTEX
  8
Layer0
10
0.0
 20
 0.0
 30
0.0
 70
     128
 71
-286
 72
-287
 73
288
  0
VERTEX
  8
Layer0
10
0.0
 20
 0.0
 30
0.0
 70
     128
 71
-288
 72
287
 73
-289
  0
VERTEX
  8
Layer0
10
0.0
 20
 0.0
 30
0.0
 70
     128
 71
-288
 72
-289
 73
290
  0
VERTEX
  8
Layer0
10
0.0
 20
 0.0
 30
0.0
 70
     128
 71
-290
 72
289
 73
-291
  0
VERTEX
  8
Layer0
10
0.0
 20
 0.0
 30
0.0
 70
     128
 71
-290
 72
-291
 73
292
  0
VERTEX
  8
Layer0
10
0.0
 20
 0.0
 30
0.0
 70
     128
 71
-292
 72
291
 73
-293
  0
VERTEX
  8
Layer0
10
0.0
 20
 0.0
 30
0.0
 70
     128
 71
-292
 72
-293
 73
294
  0
VERTEX
  8
Layer0
10
0.0
 20
 0.0
 30
0.0
 70
     128
 71
-294
 72
293
 73
-295
  0
VERTEX
  8
Layer0
10
0.0
 20
 0.0
 30
0.0
 70
     128
 71
-294
 72
-295
 73
296
  0
VERTEX
  8
Layer0
10
0.0
 20
 0.0
 30
0.0
 70
     128
 71
-296
 72
295
 73
-297
  0
VERTEX
  8
Layer0
10
0.0
 20
 0.0
 30
0.0
 70
     128
 71
-296
 72
-297
 73
85
  0
VERTEX
  8
Layer0
10
0.0
 20
 0.0
 30
0.0
 70
     128
 71
-85
 72
297
 73
-298
  0
VERTEX
  8
Layer0
10
0.0
 20
 0.0
 30
0.0
 70
     128
 71
-85
 72
298
 73
-79
  0
SEQEND
 0
ENDSEC
 0
EOF
