 0
SECTION
 2
ENTITIES
  0
POLYLINE
 8
Layer0
 66
     1
10
0.0
 20
 0.0
 30
0.0
70
    64
71
600
72
   1
  0
VERTEX
  8
Layer0
10
286.82363576967816
20
-481.2364930409437
30
203.8749898207377
 70
     192
  0
VERTEX
  8
Layer0
10
289.0339197139287
20
-471.75413112487763
30
203.87498995390064
 70
     192
  0
VERTEX
  8
Layer0
10
288.965771365035
20
-471.23649303486604
30
203.8749899583196
 70
     192
  0
VERTEX
  8
Layer0
10
289.2337205603115
20
-472.23649303410593
30
203.87498995184535
 70
     192
  0
VERTEX
  8
Layer0
10
289.5515578066729
20
-472.65070659557665
30
203.874989952288
 70
     192
  0
VERTEX
  8
Layer0
10
289.9657713699519
20
-472.9685438395978
30
203.87498995520062
 70
     192
  0
VERTEX
  8
Layer0
10
290.4481332803138
20
-473.16834468323816
30
203.87498996038545
 70
     192
  0
VERTEX
  8
Layer0
10
290.9657713707126
20
-473.2364930291917
30
203.87498996749048
 70
     192
  0
VERTEX
  8
Layer0
10
671.8236357696795
20
-481.2364919486403
30
203.87499563707402
 70
     192
  0
VERTEX
  8
Layer0
10
291.483409460724
20
-473.1683446803009
30
203.87498997602742
 70
     192
  0
VERTEX
  8
Layer0
10
291.96577136995177
20
-472.9685438339235
30
203.87498998541736
 70
     192
  0
VERTEX
  8
Layer0
10
292.3799849314189
20
-472.65070658755246
30
203.87498999501716
 70
     192
  0
VERTEX
  8
Layer0
10
292.69782217544946
20
-472.23649302427725
30
203.87499000417637
 70
     192
  0
VERTEX
  8
Layer0
10
292.89762301908485
20
-471.7541311139155
30
203.87499001227218
 70
     192
  0
VERTEX
  8
Layer0
10
292.96577136503515
20
-471.2364930235174
30
203.8749900187484
 70
     192
  0
VERTEX
  8
Layer0
10
479.3236357469855
20
-473.236492494792
30
203.8749928130815
 70
     192
  0
VERTEX
  8
Layer0
10
478.8059976565874
20
-473.1683441488386
30
203.8749928059774
 70
     192
  0
VERTEX
  8
Layer0
10
316.823635627824
20
-431.23649295582925
30
203.87499080005736
 70
     192
  0
VERTEX
  8
Layer0
10
296.8236355710762
20
-411.2364930125712
30
203.87499070834977
 70
     192
  0
VERTEX
  8
Layer0
10
296.82363452108353
20
-251.2364936086157
30
203.8749924663777
 70
     192
  0
VERTEX
  8
Layer0
10
478.3236357462261
20
-472.968543305198
30
203.87499280079243
 70
     192
  0
VERTEX
  8
Layer0
10
477.909422182951
20
-472.65070606117723
30
203.87499279788065
 70
     192
  0
VERTEX
  8
Layer0
10
477.59158493657435
20
-472.23649249970555
30
203.8749927974363
 70
     192
  0
VERTEX
  8
Layer0
10
477.3917840901956
20
-471.7541305904775
30
203.8749927994934
 70
     192
  0
VERTEX
  8
Layer0
10
477.32363574131057
20
-471.23649250046617
30
203.8749928039087
 70
     192
  0
VERTEX
  8
Layer0
10
479.8412738369975
20
-473.1683441459011
30
203.8749928216195
 70
     192
  0
VERTEX
  8
Layer0
10
480.32363574622616
20
-472.9685432995235
30
203.87499283100902
 70
     192
  0
VERTEX
  8
Layer0
10
480.7378493076974
20
-472.6507060531523
30
203.87499284060846
 70
     192
  0
VERTEX
  8
Layer0
10
481.0556865517123
20
-472.23649248987766
30
203.8749928497692
 70
     192
  0
VERTEX
  8
Layer0
10
481.25548739535304
20
-471.75413057951596
30
203.8749928578649
 70
     192
  0
VERTEX
  8
Layer0
10
481.32363574131165
20
-471.23649248911744
30
203.87499286434053
 70
     192
  0
VERTEX
  8
Layer0
10
575.8236344506371
20
-431.23649316068537
30
203.87499488846805
 70
     192
  0
VERTEX
  8
Layer0
10
596.7386334756272
20
-435.8855388399401
30
203.87499472475207
 70
     192
  0
VERTEX
  8
Layer0
10
596.5754913324297
20
-435.77653074422767
30
203.8749947234649
 70
     192
  0
VERTEX
  8
Layer0
10
596.4279733045381
20
-435.64716090514327
30
203.87499472263374
 70
     192
  0
VERTEX
  8
Layer0
10
596.2986034663085
20
-435.4996428765018
30
203.8749947222728
 70
     192
  0
VERTEX
  8
Layer0
10
596.189595371541
20
-435.3365007326729
30
203.8749947223882
 70
     192
  0
VERTEX
  8
Layer0
10
596.1028141789606
20
-435.1605258809691
30
203.87499472297802
 70
     192
  0
VERTEX
  8
Layer0
10
596.039744738832
20
-434.97472929989254
30
203.87499472403218
 70
     192
  0
VERTEX
  8
Layer0
10
596.0014661867627
20
-434.782290020458
30
203.87499472553264
 70
     192
  0
VERTEX
  8
Layer0
10
595.9886334793906
20
-434.58650073209066
30
203.8749947274537
 70
     192
  0
VERTEX
  8
Layer0
10
596.914608326828
20
-435.97232003354026
30
203.8749947264732
 70
     192
  0
VERTEX
  8
Layer0
10
597.1004049075391
20
-436.03538947474516
30
203.87499472859878
 70
     192
  0
VERTEX
  8
Layer0
10
597.2928441867521
20
-436.0736680279298
30
203.87499473109253
 70
     192
  0
VERTEX
  8
Layer0
10
597.4886334750452
20
-436.0865007364362
30
203.87499473391182
 70
     192
  0
VERTEX
  8
Layer0
10
597.6844227634122
20
-436.07366802906415
30
203.8749947370083
 70
     192
  0
VERTEX
  8
Layer0
10
597.8768620428467
20
-436.0353894769946
30
203.87499474032902
 70
     192
  0
VERTEX
  8
Layer0
10
598.0626586239232
20
-435.97232003686617
30
203.8749947438172
 70
     192
  0
VERTEX
  8
Layer0
10
598.2386334756272
20
-435.88553884428563
30
203.87499474741313
 70
     192
  0
VERTEX
  8
Layer0
10
598.4017756194559
20
-435.7765307495185
30
203.87499475105525
 70
     192
  0
VERTEX
  8
Layer0
10
598.5492936480977
20
-435.6471609112889
30
203.87499475468132
 70
     192
  0
VERTEX
  8
Layer0
10
598.6786634871821
20
-435.499642883397
30
203.87499475822926
 70
     192
  0
VERTEX
  8
Layer0
10
598.7876715828943
20
-435.33650074019965
30
203.87499476163836
 70
     192
  0
VERTEX
  8
Layer0
10
598.8744527764945
20
-435.1605258889987
30
203.87499476485021
 70
     192
  0
VERTEX
  8
Layer0
10
598.9375222176993
20
-434.9747293082876
30
203.87499476781002
 70
     192
  0
VERTEX
  8
Layer0
10
598.9758007708842
20
-434.7822900290747
30
203.87499477046703
 70
     192
  0
VERTEX
  8
Layer0
10
598.9886334793906
20
-434.58650074078196
30
203.87499477277578
 70
     192
  0
VERTEX
  8
Layer0
10
601.4386341620071
20
-428.6365019843431
30
203.8749953673599
 70
     192
  0
VERTEX
  8
Layer0
10
598.988634285557
20
-369.5865007321804
30
203.87499574135396
 70
     192
  0
VERTEX
  8
Layer0
10
600.2393193580938
20
-348.2364924560252
30
203.8749961306506
 70
     192
  0
VERTEX
  8
Layer0
10
601.4386340116389
20
-375.6364908359603
30
203.87499594010754
 70
     192
  0
VERTEX
  8
Layer0
10
643.3839547965016
20
-447.1762917046454
30
203.87499557618986
 70
     192
  0
VERTEX
  8
Layer0
10
643.2390089119231
20
-446.95936485984186
30
203.87499557634328
 70
     192
  0
VERTEX
  8
Layer0
10
643.1236176945227
20
-446.7253746198754
30
203.87499557712763
 70
     192
  0
VERTEX
  8
Layer0
10
643.0397555200227
20
-446.4783246226261
30
203.87499557852928
 70
     192
  0
VERTEX
  8
Layer0
10
642.9888572934786
20
-446.22244196204196
30
203.8749955805244
 70
     192
  0
VERTEX
  8
Layer0
10
642.971793897662
20
-445.9621048613897
30
203.87499558307886
 70
     192
  0
VERTEX
  8
Layer0
10
643.5559752839877
20
-447.37244347582777
30
203.87499557666982
 70
     192
  0
VERTEX
  8
Layer0
10
643.752127056147
20
-447.5444639622004
30
203.874995577775
 70
     192
  0
VERTEX
  8
Layer0
10
643.9690539017718
20
-447.68940984554854
30
203.87499557948644
 70
     192
  0
VERTEX
  8
Layer0
10
644.2030441423938
20
-447.8048010616217
30
203.87499558177504
 70
     192
  0
VERTEX
  8
Layer0
10
644.4500941401183
20
-447.88866323472007
30
203.8749955846014
 70
     192
  0
VERTEX
  8
Layer0
10
644.7059768009912
20
-447.93956145981093
30
203.87499558791737
 70
     192
  0
VERTEX
  8
Layer0
10
644.9663139017406
20
-447.9566248541515
30
203.87499559222437
 70
     192
  0
VERTEX
  8
Layer0
10
645.2266510023923
20
-447.9395614583336
30
203.8749955957834
 70
     192
  0
VERTEX
  8
Layer0
10
645.4825336629765
20
-447.8886632317909
30
203.87499560019887
 70
     192
  0
VERTEX
  8
Layer0
10
645.7295836602264
20
-447.80480105729066
30
203.87499560483707
 70
     192
  0
VERTEX
  8
Layer0
10
645.9635739001923
20
-447.68940983989
30
203.87499560961848
 70
     192
  0
VERTEX
  8
Layer0
10
646.1805007449967
20
-447.54446395531073
30
203.8749956144613
 70
     192
  0
VERTEX
  8
Layer0
10
646.3766525161784
20
-447.3724434678249
30
203.87499561928283
 70
     192
  0
VERTEX
  8
Layer0
10
646.5486730025508
20
-447.17629169566646
30
203.87499562400043
 70
     192
  0
VERTEX
  8
Layer0
10
646.6936188858998
20
-446.95936485004074
30
203.87499562853344
 70
     192
  0
VERTEX
  8
Layer0
10
646.8090101019731
20
-446.7253746094194
30
203.87499563280423
 70
     192
  0
VERTEX
  8
Layer0
10
646.8928722750715
20
-446.47832461169406
30
203.87499563673973
 70
     192
  0
VERTEX
  8
Layer0
10
646.9437705001613
20
-446.22244195082135
30
203.87499564027277
 70
     192
  0
VERTEX
  8
Layer0
10
646.960833894503
20
-445.96210485007225
30
203.87499564334271
 70
     192
  0
VERTEX
  8
Layer0
10
665.9494493128482
20
-472.23649196530596
30
203.87499564302917
 70
     192
  0
VERTEX
  8
Layer0
10
665.7496484664707
20
-471.7541300560776
30
203.87499564508644
 70
     192
  0
VERTEX
  8
Layer0
10
665.6815001175739
20
-471.2364919660662
30
203.87499564950147
 70
     192
  0
VERTEX
  8
Layer0
10
666.267286559218
20
-472.6507055267776
30
203.87499564347223
 70
     192
  0
VERTEX
  8
Layer0
10
666.6815001224882
20
-472.968542770798
30
203.87499564638605
 70
     192
  0
VERTEX
  8
Layer0
10
667.1638620328528
20
-473.1683436144389
30
203.87499565156853
 70
     192
  0
VERTEX
  8
Layer0
10
667.6815001232484
20
-473.2364919603917
30
203.874995658674
 70
     192
  0
VERTEX
  8
Layer0
10
668.1991382132629
20
-473.16834361150137
30
203.87499566721107
 70
     192
  0
VERTEX
  8
Layer0
10
668.6815001224884
20
-472.96854276512335
30
203.87499567659967
 70
     192
  0
VERTEX
  8
Layer0
10
669.0957136839645
20
-472.6507055187528
30
203.8749956862011
 70
     192
  0
VERTEX
  8
Layer0
10
669.4135509279864
20
-472.23649195547813
30
203.8749956953612
 70
     192
  0
VERTEX
  8
Layer0
10
669.6133517716274
20
-471.7541300451161
30
203.87499570345668
 70
     192
  0
VERTEX
  8
Layer0
10
669.6815001175745
20
-471.23649195471717
30
203.87499570993248
 70
     192
  0
VERTEX
  8
Layer0
10
644.2030441319374
20
-444.1194086541713
30
203.87499562158433
 70
     192
  0
VERTEX
  8
Layer0
10
681.8886335540005
20
-428.6365017560939
30
203.87499659468537
 70
     192
  0
VERTEX
  8
Layer0
10
643.9690538919705
20
-444.234799871572
30
203.87499561680298
 70
     192
  0
VERTEX
  8
Layer0
10
643.7521270471681
20
-444.3797457561513
30
203.8749956119601
 70
     192
  0
VERTEX
  8
Layer0
10
643.5559752759854
20
-444.5517662436371
30
203.87499560713852
 70
     192
  0
VERTEX
  8
Layer0
10
643.383954789612
20
-444.7479180157955
30
203.87499560242105
 70
     192
  0
VERTEX
  8
Layer0
10
643.2390089062642
20
-444.96484486142134
30
203.87499559788805
 70
     192
  0
VERTEX
  8
Layer0
10
643.1236176901917
20
-445.1988351020426
30
203.87499559361723
 70
     192
  0
VERTEX
  8
Layer0
10
643.0397555170935
20
-445.44588509976796
30
203.87499558968167
 70
     192
  0
VERTEX
  8
Layer0
10
642.9888572920015
20
-445.7017677606408
30
203.87499558614869
 70
     192
  0
VERTEX
  8
Layer0
10
644.4500941291864
20
-444.03554647967127
30
203.87499562622259
 70
     192
  0
VERTEX
  8
Layer0
10
644.705976789771
20
-443.9846482531283
30
203.8749956306381
 70
     192
  0
VERTEX
  8
Layer0
10
644.9663138904234
20
-443.9675848573106
30
203.87499563419703
 70
     192
  0
VERTEX
  8
Layer0
10
645.226650991172
20
-443.98464825165104
30
203.87499563850417
 70
     192
  0
VERTEX
  8
Layer0
10
645.4825336520446
20
-444.03554647674207
30
203.87499564182005
 70
     192
  0
VERTEX
  8
Layer0
10
645.7295836497701
20
-444.1194086498404
30
203.87499564464642
 70
     192
  0
VERTEX
  8
Layer0
10
645.9635738903911
20
-444.23479986591343
30
203.87499564693502
 70
     192
  0
VERTEX
  8
Layer0
10
646.180500736018
20
-444.37974574926164
30
203.87499564864646
 70
     192
  0
VERTEX
  8
Layer0
10
646.3766525081761
20
-444.5517662356343
30
203.87499564975164
 70
     192
  0
VERTEX
  8
Layer0
10
646.5486729956611
20
-444.74791800681663
30
203.8749956502316
 70
     192
  0
VERTEX
  8
Layer0
10
646.6936188802406
20
-444.9648448516202
30
203.87499565007818
 70
     192
  0
VERTEX
  8
Layer0
10
646.809010097642
20
-445.19883509158666
30
203.87499564929382
 70
     192
  0
VERTEX
  8
Layer0
10
646.8928722721422
20
-445.44588508883595
30
203.8749956478921
 70
     192
  0
VERTEX
  8
Layer0
10
646.9437704986842
20
-445.7017677494202
30
203.87499564589706
 70
     192
  0
VERTEX
  8
Layer0
10
673.1763416759485
20
-443.30972671384603
30
203.8749961858872
 70
     192
  0
VERTEX
  8
Layer0
10
672.8725634940012
20
-443.9257279339433
30
203.87499617464672
 70
     192
  0
VERTEX
  8
Layer0
10
672.6517884701725
20
-444.5761101875786
30
203.87499616428892
 70
     192
  0
VERTEX
  8
Layer0
10
665.749648463533
20
-470.71885387566743
30
203.8749956559795
 70
     192
  0
VERTEX
  8
Layer0
10
665.9494493071708
20
-470.23649196530585
30
203.87499566407305
 70
     192
  0
VERTEX
  8
Layer0
10
666.2672865511885
20
-469.82227840203103
30
203.87499567323312
 70
     192
  0
VERTEX
  8
Layer0
10
666.6815001126646
20
-469.50444115565966
30
203.87499568283522
 70
     192
  0
VERTEX
  8
Layer0
10
667.1638620218943
20
-469.30464030928243
30
203.8749956922225
 70
     192
  0
VERTEX
  8
Layer0
10
667.6815001119056
20
-469.2364919603915
30
203.8749957007622
 70
     192
  0
VERTEX
  8
Layer0
10
672.5177941263345
20
-445.2497452540711
30
203.87499615499107
 70
     192
  0
VERTEX
  8
Layer0
10
668.1991382023044
20
-469.3046403063449
30
203.87499570786503
 70
     192
  0
VERTEX
  8
Layer0
10
668.681500112665
20
-469.50444114998544
30
203.87499571304903
 70
     192
  0
VERTEX
  8
Layer0
10
669.095713675935
20
-469.8222783940062
30
203.8749957159619
 70
     192
  0
VERTEX
  8
Layer0
10
669.4135509223094
20
-470.236491955478
30
203.8749957164051
 70
     192
  0
VERTEX
  8
Layer0
10
669.6133517686898
20
-470.718853864706
30
203.87499571434986
 70
     192
  0
VERTEX
  8
Layer0
10
672.4728731428573
20
-445.93510705066626
30
203.87499614691222
 70
     192
  0
VERTEX
  8
Layer0
10
673.5579252871014
20
-442.73864647894965
30
203.87499619781804
 70
     192
  0
VERTEX
  8
Layer0
10
674.0107853260753
20
-442.2222585704071
30
203.87499621023514
 70
     192
  0
VERTEX
  8
Layer0
10
674.5271732320484
20
-441.7693985285028
30
203.87499622292603
 70
     192
  0
VERTEX
  8
Layer0
10
675.0982534647787
20
-441.38781491411004
30
203.8749962356735
 70
     192
  0
VERTEX
  8
Layer0
10
675.7142546831539
20
-441.08403672866643
30
203.87499624825958
 70
     192
  0
VERTEX
  8
Layer0
10
676.3646369355355
20
-440.8632617011486
30
203.87499626046878
 70
     192
  0
VERTEX
  8
Layer0
10
677.0382720012672
20
-440.7292673534868
30
203.8749962720922
 70
     192
  0
VERTEX
  8
Layer0
10
677.7236337976072
20
-440.68434636612056
30
203.87499628160137
 70
     192
  0
VERTEX
  8
Layer0
10
678.4089955942035
20
-440.7292673495979
30
203.87499629294015
 70
     192
  0
VERTEX
  8
Layer0
10
679.0826306606959
20
-440.86326169343704
30
203.87499630152973
 70
     192
  0
VERTEX
  8
Layer0
10
679.7330129143312
20
-441.08403671726467
30
203.87499630897128
 70
     192
  0
VERTEX
  8
Layer0
10
680.3490141344273
20
-441.38781489921286
30
203.87499631499722
 70
     192
  0
VERTEX
  8
Layer0
10
680.9200943693245
20
-441.76939851036474
30
203.87499631950442
 70
     192
  0
VERTEX
  8
Layer0
10
681.4364822778664
20
-442.222258549339
30
203.8749963224158
 70
     192
  0
VERTEX
  8
Layer0
10
681.8893423197718
20
-442.7386464553123
30
203.8749963236815
 70
     192
  0
VERTEX
  8
Layer0
10
683.9514661953756
20
-434.39071253149234
30
203.87499630798425
 70
     192
  0
VERTEX
  8
Layer0
10
683.9386342855571
20
-369.5865018198588
30
203.87499727425367
 70
     192
  0
VERTEX
  8
Layer0
10
683.938633487992
20
-434.5865018198588
30
203.8749963056755
 70
     192
  0
VERTEX
  8
Layer0
10
683.9514669940514
20
-369.7822911081525
30
203.87499727233262
 70
     192
  0
VERTEX
  8
Layer0
10
683.9897447474565
20
-434.1982732520601
30
203.87499631064125
 70
     192
  0
VERTEX
  8
Layer0
10
683.9897455472246
20
-369.9747303873676
30
203.87499727083215
 70
     192
  0
VERTEX
  8
Layer0
10
684.0528141875958
20
-434.01247667098727
30
203.87499631360103
 70
     192
  0
VERTEX
  8
Layer0
10
684.0528149884184
20
-370.1605269680829
30
203.87499726977805
 70
     192
  0
VERTEX
  8
Layer0
10
684.1395953801868
20
-433.8365018192887
30
203.87499631681297
 70
     192
  0
VERTEX
  8
Layer0
10
684.1395961820077
20
-370.3365018192891
30
203.87499726918819
 70
     192
  0
VERTEX
  8
Layer0
10
684.2486034749644
20
-433.67335967546626
30
203.874996320222
 70
     192
  0
VERTEX
  8
Layer0
10
684.248604277711
20
-370.4996439624925
30
203.8749972690728
 70
     192
  0
VERTEX
  8
Layer0
10
684.3779733132026
20
-433.5258416468325
30
203.87499632376992
 70
     192
  0
VERTEX
  8
Layer0
10
684.3779741167862
20
-370.64716199039214
30
203.87499726943375
 70
     192
  0
VERTEX
  8
Layer0
10
684.5254913411025
20
-433.396471807757
30
203.874996327396
 70
     192
  0
VERTEX
  8
Layer0
10
684.52549214542
20
-370.77653182863065
30
203.8749972702649
 70
     192
  0
VERTEX
  8
Layer0
10
684.6886334843064
20
-433.2874637120543
30
203.87499633103815
 70
     192
  0
VERTEX
  8
Layer0
10
684.6886342892427
20
-370.8855399234076
30
203.87499727155205
 70
     192
  0
VERTEX
  8
Layer0
10
684.8646083355121
20
-433.2006825184648
30
203.87499633463406
 70
     192
  0
VERTEX
  8
Layer0
10
684.864609140941
20
-370.97232111599857
30
203.87499727327318
 70
     192
  0
VERTEX
  8
Layer0
10
685.0504049162273
20
-433.13761307727094
30
203.87499633812226
 70
     192
  0
VERTEX
  8
Layer0
10
685.0504057220137
20
-371.03539055613834
30
203.8749972753988
 70
     192
  0
VERTEX
  8
Layer0
10
685.242844195442
20
-433.09933452409797
30
203.874996341443
 70
     192
  0
VERTEX
  8
Layer0
10
685.2428450014459
20
-371.07366910821924
30
203.87499727789256
 70
     192
  0
VERTEX
  8
Layer0
10
685.4386334837362
20
-433.0865018156031
30
203.8749963445395
 70
     192
  0
VERTEX
  8
Layer0
10
685.438634289813
20
-371.086501815603
30
203.87499728071185
 70
     192
  0
VERTEX
  8
Layer0
10
685.6344227721022
20
-433.0993345229869
30
203.87499634735875
 70
     192
  0
VERTEX
  8
Layer0
10
685.6344235781061
20
-371.0736691071082
30
203.8749972838083
 70
     192
  0
VERTEX
  8
Layer0
10
685.8268620515349
20
-433.13761307506803
30
203.8749963498525
 70
     192
  0
VERTEX
  8
Layer0
10
685.8268628573213
20
-371.03539055393514
30
203.87499728712905
 70
     192
  0
VERTEX
  8
Layer0
10
686.0126586326073
20
-433.20068251520763
30
203.87499635197813
 70
     192
  0
VERTEX
  8
Layer0
10
686.0126594380363
20
-370.9723211127413
30
203.8749972906172
 70
     192
  0
VERTEX
  8
Layer0
10
686.1886334843064
20
-433.28746370779857
30
203.8749963536992
 70
     192
  0
VERTEX
  8
Layer0
10
686.1886342892427
20
-370.8855399191519
30
203.87499729421313
 70
     192
  0
VERTEX
  8
Layer0
10
686.3517756281286
20
-433.39647180257555
30
203.87499635498637
 70
     192
  0
VERTEX
  8
Layer0
10
686.3517764324462
20
-370.77653182344926
30
203.8749972978553
 70
     192
  0
VERTEX
  8
Layer0
10
686.4992936567622
20
-433.525841640814
30
203.87499635581753
 70
     192
  0
VERTEX
  8
Layer0
10
686.4992944603458
20
-370.64716198437384
30
203.87499730148133
 70
     192
  0
VERTEX
  8
Layer0
10
686.628663495838
20
-433.6733596687137
30
203.87499635617849
 70
     192
  0
VERTEX
  8
Layer0
10
686.6286642985848
20
-370.49964395574005
30
203.87499730502924
 70
     192
  0
VERTEX
  8
Layer0
10
686.7376715915401
20
-433.8365018119175
30
203.87499635606306
 70
     192
  0
VERTEX
  8
Layer0
10
686.7376723933611
20
-370.33650181191734
30
203.87499730843834
 70
     192
  0
VERTEX
  8
Layer0
10
686.8244527851297
20
-434.01247666312366
30
203.87499635547326
 70
     192
  0
VERTEX
  8
Layer0
10
686.8244535859521
20
-370.16052696021876
30
203.87499731165025
 70
     192
  0
VERTEX
  8
Layer0
10
686.8875222263238
20
-434.1982732438386
30
203.8749963544191
 70
     192
  0
VERTEX
  8
Layer0
10
686.8875230260919
20
-369.974730379146
30
203.87499731461
 70
     192
  0
VERTEX
  8
Layer0
10
686.9258007794971
20
-434.39071252305376
30
203.87499635291863
 70
     192
  0
VERTEX
  8
Layer0
10
686.9258015781729
20
-369.7822910997137
30
203.874997317267
 70
     192
  0
VERTEX
  8
Layer0
10
686.938633487992
20
-434.5865018113473
30
203.87499635099763
 70
     192
  0
VERTEX
  8
Layer0
10
686.9386342855571
20
-369.5865018113476
30
203.8749973195758
 70
     192
  0
VERTEX
  8
Layer0
10
246.82363565618806
20
-441.23649315442896
30
203.8749896373202
 70
     192
  0
VERTEX
  8
Layer0
10
254.8236347480615
20
-331.23649342975347
30
203.87499099010788
 70
     192
  0
VERTEX
  8
Layer0
10
254.8236344477207
20
-225.37862935150676
30
203.87499210394316
 70
     192
  0
VERTEX
  8
Layer0
10
254.82363564443995
20
-437.0943575080007
30
203.87498980176454
 70
     192
  0
VERTEX
  8
Layer0
10
254.8917839933333
20
-437.6119955980121
30
203.87498979734784
 70
     192
  0
VERTEX
  8
Layer0
10
255.09158483970404
20
-438.0943575072405
30
203.87498979528934
 70
     192
  0
VERTEX
  8
Layer0
10
255.40942208607623
20
-438.508571068712
30
203.87498979573135
 70
     192
  0
VERTEX
  8
Layer0
10
255.82363564935412
20
-438.8264083127327
30
203.87498979864645
 70
     192
  0
VERTEX
  8
Layer0
10
256.3059975597157
20
-439.0262091563734
30
203.87498980383253
 70
     192
  0
VERTEX
  8
Layer0
10
256.8236356501145
20
-439.0943575023266
30
203.8749898109353
 70
     192
  0
VERTEX
  8
Layer0
10
257.34127374012587
20
-439.02620915343596
30
203.8749898194701
 70
     192
  0
VERTEX
  8
Layer0
10
257.82363564935406
20
-438.8264083070587
30
203.8749898288602
 70
     192
  0
VERTEX
  8
Layer0
10
258.2378492108226
20
-438.50857106068696
30
203.87498983846413
 70
     192
  0
VERTEX
  8
Layer0
10
258.5556864548416
20
-438.0943574974125
30
203.87498984762436
 70
     192
  0
VERTEX
  8
Layer0
10
258.7554872984898
20
-437.61199558705056
30
203.87498985571727
 70
     192
  0
VERTEX
  8
Layer0
10
258.8236356444398
20
-437.09435749665244
30
203.87498986219177
 70
     192
  0
VERTEX
  8
Layer0
10
286.8236343224857
20
-181.23649363698672
30
203.87499305184247
 70
     192
  0
VERTEX
  8
Layer0
10
288.97529234602825
20
-191.43142646034357
30
203.87499297707552
 70
     192
  0
VERTEX
  8
Layer0
10
288.9926638962705
20
-190.90961076593507
30
203.87499298282896
 70
     192
  0
VERTEX
  8
Layer0
10
289.1444993650371
20
-190.41007159818952
30
203.8749929903804
 70
     192
  0
VERTEX
  8
Layer0
10
289.42045141605655
20
-189.96685172586245
30
203.87499299921043
 70
     192
  0
VERTEX
  8
Layer0
10
289.80171437307126
20
-189.6101558507912
30
203.87499300872503
 70
     192
  0
VERTEX
  8
Layer0
10
290.2623057956482
20
-189.36429220739996
30
203.87499301827128
 70
     192
  0
VERTEX
  8
Layer0
10
290.77083713948434
20
-189.24601599667506
30
203.87499302719664
 70
     192
  0
VERTEX
  8
Layer0
10
671.8236343224956
20
-181.23649254468322
30
203.87499886818418
 70
     192
  0
VERTEX
  8
Layer0
10
291.29265283389145
20
-189.26338754691676
30
203.87499303489784
 70
     192
  0
VERTEX
  8
Layer0
10
291.7921920016336
20
-189.41522301568378
30
203.87499304084793
 70
     192
  0
VERTEX
  8
Layer0
10
292.23541187396006
20
-189.69117506670113
30
203.8749930446404
 70
     192
  0
VERTEX
  8
Layer0
10
292.5921077490295
20
-190.07243802372233
30
203.87499304601545
 70
     192
  0
VERTEX
  8
Layer0
10
292.8379713924229
20
-190.533029446291
30
203.87499304488446
 70
     192
  0
VERTEX
  8
Layer0
10
292.95624760314854
20
-191.04156079012864
30
203.8749930413203
 70
     192
  0
VERTEX
  8
Layer0
10
479.3236343451889
20
-189.23649309083657
30
203.87499587583733
 70
     192
  0
VERTEX
  8
Layer0
10
478.80599625517715
20
-189.3046414397269
30
203.87499586729902
 70
     192
  0
VERTEX
  8
Layer0
10
316.8236344643492
20
-231.23649355187374
30
203.87499297896528
 70
     192
  0
VERTEX
  8
Layer0
10
478.32363434594635
20
-189.50444228610306
30
203.87499585790948
 70
     192
  0
VERTEX
  8
Layer0
10
477.9094207844797
20
-189.82227953247553
30
203.8749958483089
 70
     192
  0
VERTEX
  8
Layer0
10
477.59158354045877
20
-190.23649309574938
30
203.874995839148
 70
     192
  0
VERTEX
  8
Layer0
10
477.3917826968156
20
-190.71885500611182
30
203.87499583105475
 70
     192
  0
VERTEX
  8
Layer0
10
477.32363435086415
20
-191.23649309650966
30
203.8749958245769
 70
     192
  0
VERTEX
  8
Layer0
10
479.84127243558726
20
-189.30464143678873
30
203.8749958829409
 70
     192
  0
VERTEX
  8
Layer0
10
480.32363434594623
20
-189.50444228042966
30
203.87499588812602
 70
     192
  0
VERTEX
  8
Layer0
10
480.73784790922576
20
-189.82227952444998
30
203.87499589103663
 70
     192
  0
VERTEX
  8
Layer0
10
481.0556851555967
20
-190.23649308592218
30
203.87499589148084
 70
     192
  0
VERTEX
  8
Layer0
10
481.25548600197266
20
-190.71885499514903
30
203.8749958894257
 70
     192
  0
VERTEX
  8
Layer0
10
481.32363435086484
20
-191.2364930851608
30
203.8749958850088
 70
     192
  0
VERTEX
  8
Layer0
10
665.949447916724
20
-190.2364925613491
30
203.8749986847437
 70
     192
  0
VERTEX
  8
Layer0
10
641.8236344643462
20
-231.2364926297994
30
203.87499788886265
 70
     192
  0
VERTEX
  8
Layer0
10
665.7496470730896
20
-190.71885447171252
30
203.87499867664962
 70
     192
  0
VERTEX
  8
Layer0
10
665.6814987271343
20
-191.2364925621109
30
203.87499867017172
 70
     192
  0
VERTEX
  8
Layer0
10
661.8236345210938
20
-251.23649257305553
30
203.87499798057007
 70
     192
  0
VERTEX
  8
Layer0
10
661.8236353923373
20
-348.2364913416216
30
203.8749968845574
 70
     192
  0
VERTEX
  8
Layer0
10
666.2672851607451
20
-189.82227899807611
30
203.87499869390376
 70
     192
  0
VERTEX
  8
Layer0
10
666.6814987222207
20
-189.50444175170318
30
203.8749987035055
 70
     192
  0
VERTEX
  8
Layer0
10
667.1638606314501
20
-189.30464090532726
30
203.8749987128925
 70
     192
  0
VERTEX
  8
Layer0
10
667.6814987214618
20
-189.23649255643497
30
203.87499872143232
 70
     192
  0
VERTEX
  8
Layer0
10
668.1991368118602
20
-189.3046409023884
30
203.8749987285354
 70
     192
  0
VERTEX
  8
Layer0
10
668.6814987222211
20
-189.5044417460305
30
203.87499873371917
 70
     192
  0
VERTEX
  8
Layer0
10
669.0957122854917
20
-189.8222789900497
30
203.87499873663197
 70
     192
  0
VERTEX
  8
Layer0
10
669.4135495318624
20
-190.23649255152273
30
203.87499873707532
 70
     192
  0
VERTEX
  8
Layer0
10
669.6133503782462
20
-190.71885446074924
30
203.87499873502034
 70
     192
  0
VERTEX
  8
Layer0
10
669.6814987271349
20
-191.2364925507631
30
203.87499873060298
 70
     192
  0
VERTEX
  8
Layer0
10
254.89178279661127
20
-225.89626744151772
30
203.87499209952625
 70
     192
  0
VERTEX
  8
Layer0
10
254.89178309400853
20
-330.7188553393556
30
203.8749909965843
 70
     192
  0
VERTEX
  8
Layer0
10
255.09158364299526
20
-226.37862935074787
30
203.87499209746744
 70
     192
  0
VERTEX
  8
Layer0
10
255.09158393764983
20
-330.23649342899307
30
203.87499100467636
 70
     192
  0
VERTEX
  8
Layer0
10
255.4094208893628
20
-226.79284291221768
30
203.87499209791042
 70
     192
  0
VERTEX
  8
Layer0
10
255.40942118167618
20
-329.82227986571974
30
203.87499101383563
 70
     192
  0
VERTEX
  8
Layer0
10
255.82363445263525
20
-227.1106801562384
30
203.87499210082504
 70
     192
  0
VERTEX
  8
Layer0
10
255.82363474314747
20
-329.5044426193474
30
203.8749910234393
 70
     192
  0
VERTEX
  8
Layer0
10
256.3059963629965
20
-227.31048099987885
30
203.87499210601095
 70
     192
  0
VERTEX
  8
Layer0
10
256.3059966523697
20
-329.30464177297097
30
203.8749910328296
 70
     192
  0
VERTEX
  8
Layer0
10
256.8236344533952
20
-227.37862934583367
30
203.8749921131138
 70
     192
  0
VERTEX
  8
Layer0
10
256.823634742384
20
-329.2364934240791
30
203.8749910413668
 70
     192
  0
VERTEX
  8
Layer0
10
257.3412725434066
20
-227.31048099694317
30
203.87499212164872
 70
     192
  0
VERTEX
  8
Layer0
10
257.34127283277985
20
-329.3046417700323
30
203.87499104846748
 70
     192
  0
VERTEX
  8
Layer0
10
257.82363445263513
20
-227.11068015056395
30
203.87499213103894
 70
     192
  0
VERTEX
  8
Layer0
10
257.82363474314775
20
-329.5044426136744
30
203.87499105365293
 70
     192
  0
VERTEX
  8
Layer0
10
258.23784801410915
20
-226.79284290419452
30
203.8749921406429
 70
     192
  0
VERTEX
  8
Layer0
10
258.23784830642256
20
-329.8222798576936
30
203.87499105656832
 70
     192
  0
VERTEX
  8
Layer0
10
258.5556852581328
20
-226.37862934091817
30
203.87499214980312
 70
     192
  0
VERTEX
  8
Layer0
10
258.5556855527874
20
-330.23649341916627
30
203.8749910570117
 70
     192
  0
VERTEX
  8
Layer0
10
258.75548610176776
20
-225.89626743055646
30
203.87499215789575
 70
     192
  0
VERTEX
  8
Layer0
10
258.7554863991651
20
-330.7188553283937
30
203.8749910549541
 70
     192
  0
VERTEX
  8
Layer0
10
258.8236344477205
20
-225.37862934015808
30
203.8749921643702
 70
     192
  0
VERTEX
  8
Layer0
10
258.8236347480613
20
-331.236493418405
30
203.87499105053482
 70
     192
  0
VERTEX
  8
Layer0
10
254.89178309694617
20
-331.75413151976574
30
203.87499098569114
 70
     192
  0
VERTEX
  8
Layer0
10
254.8917839903888
20
-436.5767194176021
30
203.87498980824094
 70
     192
  0
VERTEX
  8
Layer0
10
255.09158394332414
20
-332.2364934289935
30
203.87499098363247
 70
     192
  0
VERTEX
  8
Layer0
10
255.09158483403422
20
-436.0943575072403
30
203.87498981633325
 70
     192
  0
VERTEX
  8
Layer0
10
255.40942118970085
20
-332.6507069904651
30
203.87499098407505
 70
     192
  0
VERTEX
  8
Layer0
10
255.40942207805463
20
-435.68014394396596
30
203.87498982549226
 70
     192
  0
VERTEX
  8
Layer0
10
255.82363475297603
20
-332.9685442344857
30
203.87499098698987
 70
     192
  0
VERTEX
  8
Layer0
10
255.82363563952288
20
-435.3623066975951
30
203.8749898350959
 70
     192
  0
VERTEX
  8
Layer0
10
256.3059966633313
20
-333.16834507812644
30
203.87499099217567
 70
     192
  0
VERTEX
  8
Layer0
10
256.30599754875004
20
-435.16250585121713
30
203.87498984448635
 70
     192
  0
VERTEX
  8
Layer0
10
256.8236347537301
20
-333.2364934240794
30
203.8749909992786
 70
     192
  0
VERTEX
  8
Layer0
10
256.8236356387614
20
-435.0943575023269
30
203.87498985302355
 70
     192
  0
VERTEX
  8
Layer0
10
257.3412728437414
20
-333.16834507518894
30
203.87499100781352
 70
     192
  0
VERTEX
  8
Layer0
10
257.3412737291602
20
-435.1625058482796
30
203.87498986012395
 70
     192
  0
VERTEX
  8
Layer0
10
257.8236347529759
20
-332.96854422881137
30
203.87499101720357
 70
     192
  0
VERTEX
  8
Layer0
10
257.82363563952316
20
-435.3623066919209
30
203.8749898653098
 70
     192
  0
VERTEX
  8
Layer0
10
258.2378483144472
20
-332.6507069824404
30
203.8749910268077
 70
     192
  0
VERTEX
  8
Layer0
10
258.237849202801
20
-435.68014393594075
30
203.87498986822501
 70
     192
  0
VERTEX
  8
Layer0
10
258.5556855584617
20
-332.2364934191656
30
203.87499103596775
 70
     192
  0
VERTEX
  8
Layer0
10
258.5556864491718
20
-436.0943574974126
30
203.874989868668
 70
     192
  0
VERTEX
  8
Layer0
10
258.7554864021027
20
-331.7541315088038
30
203.87499104406083
 70
     192
  0
VERTEX
  8
Layer0
10
258.7554872955453
20
-436.57671940664056
30
203.87498986661055
 70
     192
  0
VERTEX
  8
Layer0
10
289.03391971099376
20
-470.7188549444677
30
203.87498996479388
 70
     192
  0
VERTEX
  8
Layer0
10
289.093568556757
20
-191.93995780417868
30
203.87499297351357
 70
     192
  0
VERTEX
  8
Layer0
10
289.2337205546316
20
-470.23649303410537
30
203.87498997288944
 70
     192
  0
VERTEX
  8
Layer0
10
289.33943220014504
20
-192.40054922675102
30
203.87499297238176
 70
     192
  0
VERTEX
  8
Layer0
10
289.55155779865237
20
-469.8222794708304
30
203.8749899820487
 70
     192
  0
VERTEX
  8
Layer0
10
289.56287846824716
20
-192.6393851395412
30
203.87499297324337
 70
     192
  0
VERTEX
  8
Layer0
10
289.9657713601195
20
-469.50444222446015
30
203.87498999164976
 70
     192
  0
VERTEX
  8
Layer0
10
289.69612807521116
20
-192.78181218377205
30
203.8749929737576
 70
     192
  0
VERTEX
  8
Layer0
10
290.13934794754664
20
-193.05776423478588
30
203.8749929775506
 70
     192
  0
VERTEX
  8
Layer0
10
290.44813326934815
20
-469.3046413780817
30
203.87499000103944
 70
     192
  0
VERTEX
  8
Layer0
10
290.63888711528847
20
-193.20959970355293
30
203.87499298350022
 70
     192
  0
VERTEX
  8
Layer0
10
290.9657713593595
20
-469.23649302919176
30
203.87499000957857
 70
     192
  0
VERTEX
  8
Layer0
10
291.16070280969916
20
-193.22697125379457
30
203.87499299119946
 70
     192
  0
VERTEX
  8
Layer0
10
291.4834094497583
20
-469.3046413751444
30
203.87499001668152
 70
     192
  0
VERTEX
  8
Layer0
10
291.66923415353176
20
-193.10869504306967
30
203.8749930001275
 70
     192
  0
VERTEX
  8
Layer0
10
291.96577136011945
20
-469.50444221878575
30
203.87499002186627
 70
     192
  0
VERTEX
  8
Layer0
10
292.1298255761
20
-192.86283139967827
30
203.8749930096712
 70
     192
  0
VERTEX
  8
Layer0
10
292.3799849233984
20
-469.8222794628061
30
203.87499002477782
 70
     192
  0
VERTEX
  8
Layer0
10
292.5110885331265
20
-192.50613552461067
30
203.87499301918598
 70
     192
  0
VERTEX
  8
Layer0
10
292.69782216976955
20
-470.2364930242772
30
203.8749900252207
 70
     192
  0
VERTEX
  8
Layer0
10
292.7870405841398
20
-192.06291565228048
30
203.87499302801777
 70
     192
  0
VERTEX
  8
Layer0
10
292.8976230161528
20
-470.71885493350555
30
203.87499002316528
 70
     192
  0
VERTEX
  8
Layer0
10
292.9388760529092
20
-191.56337648453461
30
203.87499303556774
 70
     192
  0
VERTEX
  8
Layer0
10
292.94975817502444
20
-191.23649361960764
30
203.8749930391713
 70
     192
  0
VERTEX
  8
Layer0
10
246.82363443596918
20
-221.23649375047188
30
203.8749920266659
 70
     192
  0
VERTEX
  8
Layer0
10
255.09158363731498
20
-224.37862935074776
30
203.87499211851147
 70
     192
  0
VERTEX
  8
Layer0
10
254.89178279367968
20
-224.86099126110759
30
203.87499211041924
 70
     192
  0
VERTEX
  8
Layer0
10
255.4094208813354
20
-223.96441578747084
30
203.87499212767074
 70
     192
  0
VERTEX
  8
Layer0
10
255.8236344428094
20
-223.64657854110067
30
203.87499213727432
 70
     192
  0
VERTEX
  8
Layer0
10
256.30599635204084
20
-223.44677769472253
30
203.8749921466648
 70
     192
  0
VERTEX
  8
Layer0
10
256.82363444205225
20
-223.3786293458336
30
203.874992155202
 70
     192
  0
VERTEX
  8
Layer0
10
257.341272532451
20
-223.44677769178682
30
203.87499216230253
 70
     192
  0
VERTEX
  8
Layer0
10
257.8236344428097
20
-223.64657853542576
30
203.8749921674881
 70
     192
  0
VERTEX
  8
Layer0
10
258.2378480060818
20
-223.96441577944833
30
203.87499217040337
 70
     192
  0
VERTEX
  8
Layer0
10
258.5556852524525
20
-224.37862934091808
30
203.8749921708469
 70
     192
  0
VERTEX
  8
Layer0
10
258.7554860988362
20
-224.86099125014633
30
203.8749921687889
 70
     192
  0
VERTEX
  8
Layer0
10
477.3917826997527
20
-191.75413118652176
30
203.87499582016133
 70
     192
  0
VERTEX
  8
Layer0
10
477.59158354613146
20
-192.23649309574927
30
203.87499581810405
 70
     192
  0
VERTEX
  8
Layer0
10
477.9094207925
20
-192.65070665722175
30
203.87499581854797
 70
     192
  0
VERTEX
  8
Layer0
10
478.32363435577946
20
-192.9685439012408
30
203.87499582146032
 70
     192
  0
VERTEX
  8
Layer0
10
478.80599626614105
20
-193.16834474488334
30
203.87499582664518
 70
     192
  0
VERTEX
  8
Layer0
10
479.3236343565395
20
-193.23649309083657
30
203.87499583374932
 70
     192
  0
VERTEX
  8
Layer0
10
479.8412724465512
20
-193.16834474194488
30
203.87499584228726
 70
     192
  0
VERTEX
  8
Layer0
10
480.3236343557794
20
-192.96854389556802
30
203.87499585167683
 70
     192
  0
VERTEX
  8
Layer0
10
480.737847917246
20
-192.65070664919617
30
203.87499586127606
 70
     192
  0
VERTEX
  8
Layer0
10
481.05568516126937
20
-192.23649308592206
30
203.87499587043666
 70
     192
  0
VERTEX
  8
Layer0
10
481.25548600490976
20
-191.754131175559
30
203.8749958785326
 70
     192
  0
VERTEX
  8
Layer0
10
575.8236342718988
20
-368.2364925252967
30
203.87499555135355
 70
     192
  0
VERTEX
  8
Layer0
10
596.0397455450217
20
-369.1982721728931
30
203.8749957009976
 70
     192
  0
VERTEX
  8
Layer0
10
596.0014669929408
20
-369.3907114523254
30
203.87499569834063
 70
     192
  0
VERTEX
  8
Layer0
10
595.988634285557
20
-369.58650074069203
30
203.87499569603185
 70
     192
  0
VERTEX
  8
Layer0
10
596.1028149851616
20
-369.01247559182025
30
203.87499570395735
 70
     192
  0
VERTEX
  8
Layer0
10
596.1895961777523
20
-368.83650074012166
30
203.8749957071693
 70
     192
  0
VERTEX
  8
Layer0
10
596.2986042725295
20
-368.6733585962996
30
203.87499571057842
 70
     192
  0
VERTEX
  8
Layer0
10
596.4279741107677
20
-368.52584056766574
30
203.87499571412633
 70
     192
  0
VERTEX
  8
Layer0
10
596.5754921386675
20
-368.39647072859003
30
203.87499571775237
 70
     192
  0
VERTEX
  8
Layer0
10
596.7386342818716
20
-368.28746263288735
30
203.8749957213945
 70
     192
  0
VERTEX
  8
Layer0
10
596.9146091330773
20
-368.2006814392979
30
203.87499572499044
 70
     192
  0
VERTEX
  8
Layer0
10
597.1004057137924
20
-368.137611998104
30
203.87499572847858
 70
     192
  0
VERTEX
  8
Layer0
10
597.2928449930077
20
-368.09933344493106
30
203.87499573179932
 70
     192
  0
VERTEX
  8
Layer0
10
597.4886342813013
20
-368.08650073643616
30
203.87499573489586
 70
     192
  0
VERTEX
  8
Layer0
10
597.684423569668
20
-368.09933344382006
30
203.87499573771507
 70
     192
  0
VERTEX
  8
Layer0
10
597.8768628491
20
-368.1376119959013
30
203.87499574020882
 70
     192
  0
VERTEX
  8
Layer0
10
598.0626594301726
20
-368.2006814360408
30
203.87499574233448
 70
     192
  0
VERTEX
  8
Layer0
10
598.2386342818716
20
-368.28746262863166
30
203.87499574405558
 70
     192
  0
VERTEX
  8
Layer0
10
598.4017764256938
20
-368.3964707234085
30
203.87499574534274
 70
     192
  0
VERTEX
  8
Layer0
10
598.5492944543273
20
-368.52584056164704
30
203.87499574617394
 70
     192
  0
VERTEX
  8
Layer0
10
598.6786642934032
20
-368.6733585895468
30
203.8749957465349
 70
     192
  0
VERTEX
  8
Layer0
10
598.7876723891055
20
-368.83650073275084
30
203.87499574641942
 70
     192
  0
VERTEX
  8
Layer0
10
598.8744535826955
20
-369.0124755839569
30
203.87499574582958
 70
     192
  0
VERTEX
  8
Layer0
10
598.937523023889
20
-369.19827216467166
30
203.87499574477545
 70
     192
  0
VERTEX
  8
Layer0
10
598.9758015770623
20
-369.39071144388697
30
203.87499574327504
 70
     192
  0
VERTEX
  8
Layer0
10
596.0014661878971
20
-434.3907114437978
30
203.8749947297624
 70
     192
  0
VERTEX
  8
Layer0
10
596.0014669940515
20
-369.7822900289855
30
203.8749956941108
 70
     192
  0
VERTEX
  8
Layer0
10
596.0397447410816
20
-434.1982721645849
30
203.8749947324194
 70
     192
  0
VERTEX
  8
Layer0
10
596.039745547225
20
-369.97472930820066
30
203.87499569261036
 70
     192
  0
VERTEX
  8
Layer0
10
596.1028141822864
20
-434.0124755838738
30
203.87499473537918
 70
     192
  0
VERTEX
  8
Layer0
10
596.1028149884183
20
-370.1605258889155
30
203.8749956915562
 70
     192
  0
VERTEX
  8
Layer0
10
596.1895953758865
20
-433.83650073267285
30
203.8749947385911
 70
     192
  0
VERTEX
  8
Layer0
10
596.1895961820079
20
-370.33650074012166
30
203.87499569096633
 70
     192
  0
VERTEX
  8
Layer0
10
596.2986034715992
20
-433.67335858947564
30
203.8749947420002
 70
     192
  0
VERTEX
  8
Layer0
10
596.2986042777109
20
-370.49964288332575
30
203.87499569085097
 70
     192
  0
VERTEX
  8
Layer0
10
596.4279733106836
20
-433.52584056158366
30
203.87499474554812
 70
     192
  0
VERTEX
  8
Layer0
10
596.4279741167865
20
-370.64716091122546
30
203.87499569121192
 70
     192
  0
VERTEX
  8
Layer0
10
596.5754913393251
20
-433.396470723354
30
203.8749947491742
 70
     192
  0
VERTEX
  8
Layer0
10
596.5754921454203
20
-370.7765307494637
30
203.87499569204306
 70
     192
  0
VERTEX
  8
Layer0
10
596.738633483154
20
-433.28746262858687
30
203.8749947528163
 70
     192
  0
VERTEX
  8
Layer0
10
596.7386342892426
20
-370.88553884424067
30
203.8749956933302
 70
     192
  0
VERTEX
  8
Layer0
10
596.9146083348576
20
-433.2006814360064
30
203.87499475641226
 70
     192
  0
VERTEX
  8
Layer0
10
596.9146091409413
20
-370.9723200368318
30
203.87499569505133
 70
     192
  0
VERTEX
  8
Layer0
10
597.100404915934
20
-433.13761199587793
30
203.87499475990043
 70
     192
  0
VERTEX
  8
Layer0
10
597.1004057220138
20
-371.03538947697115
30
203.87499569717696
 70
     192
  0
VERTEX
  8
Layer0
10
597.2928441953687
20
-433.09933344380835
30
203.87499476322114
 70
     192
  0
VERTEX
  8
Layer0
10
597.2928450014459
20
-371.0736680290525
30
203.87499569967073
 70
     192
  0
VERTEX
  8
Layer0
10
597.4886334837362
20
-433.0865007364363
30
203.87499476631766
 70
     192
  0
VERTEX
  8
Layer0
10
597.4886342898129
20
-371.0865007364361
30
203.87499570249
 70
     192
  0
VERTEX
  8
Layer0
10
597.6844227720288
20
-433.0993334449427
30
203.8749947691369
 70
     192
  0
VERTEX
  8
Layer0
10
597.6844235781061
20
-371.07366802794155
30
203.87499570558649
 70
     192
  0
VERTEX
  8
Layer0
10
597.8768620512416
20
-433.13761199812745
30
203.8749947716307
 70
     192
  0
VERTEX
  8
Layer0
10
597.8768628573213
20
-371.0353894747685
30
203.8749957089072
 70
     192
  0
VERTEX
  8
Layer0
10
598.0626586319529
20
-433.20068143933236
30
203.87499477375627
 70
     192
  0
VERTEX
  8
Layer0
10
598.0626594380366
20
-370.97232003357465
30
203.8749957123954
 70
     192
  0
VERTEX
  8
Layer0
10
598.238633483154
20
-433.2874626329324
30
203.8749947754774
 70
     192
  0
VERTEX
  8
Layer0
10
598.2386342892426
20
-370.8855388399849
30
203.8749957159913
 70
     192
  0
VERTEX
  8
Layer0
10
598.4017756263513
20
-433.39647072864483
30
203.87499477676457
 70
     192
  0
VERTEX
  8
Layer0
10
598.4017764324465
20
-370.77653074428224
30
203.87499571963343
 70
     192
  0
VERTEX
  8
Layer0
10
598.5492936542432
20
-433.52584056772923
30
203.8749947775957
 70
     192
  0
VERTEX
  8
Layer0
10
598.549294460346
20
-370.6471609052067
30
203.8749957232595
 70
     192
  0
VERTEX
  8
Layer0
10
598.6786634924729
20
-433.67335859637075
30
203.87499477795666
 70
     192
  0
VERTEX
  8
Layer0
10
598.6786642985845
20
-370.4996428765729
30
203.87499572680744
 70
     192
  0
VERTEX
  8
Layer0
10
598.7876715872399
20
-433.8365007401997
30
203.87499477784124
 70
     192
  0
VERTEX
  8
Layer0
10
598.7876723933612
20
-370.3365007327508
30
203.87499573021654
 70
     192
  0
VERTEX
  8
Layer0
10
598.8744527798203
20
-434.0124755919034
30
203.8749947772514
 70
     192
  0
VERTEX
  8
Layer0
10
598.8744535859523
20
-370.1605258810522
30
203.8749957334284
 70
     192
  0
VERTEX
  8
Layer0
10
598.9375222199487
20
-434.19827217298007
30
203.87499477619727
 70
     192
  0
VERTEX
  8
Layer0
10
598.9375230260922
20
-369.9747292999792
30
203.8749957363882
 70
     192
  0
VERTEX
  8
Layer0
10
598.9758007720186
20
-434.3907114524145
30
203.87499477469683
 70
     192
  0
VERTEX
  8
Layer0
10
598.9758015781729
20
-369.7822900205471
30
203.87499573904518
 70
     192
  0
VERTEX
  8
Layer0
10
478.8059976456202
20
-469.304640843682
30
203.87499284663093
 70
     192
  0
VERTEX
  8
Layer0
10
478.32363573639765
20
-469.50444169006
30
203.87499283724165
 70
     192
  0
VERTEX
  8
Layer0
10
477.9094221749264
20
-469.822278936431
30
203.87499282764168
 70
     192
  0
VERTEX
  8
Layer0
10
477.5915849309059
20
-470.2364924997055
30
203.87499281848045
 70
     192
  0
VERTEX
  8
Layer0
10
477.39178408725815
20
-470.71885441006737
30
203.87499281038683
 70
     192
  0
VERTEX
  8
Layer0
10
479.3236357356316
20
-469.2364924947918
30
203.87499285516938
 70
     192
  0
VERTEX
  8
Layer0
10
479.8412738260304
20
-469.3046408407444
30
203.8749928622733
 70
     192
  0
VERTEX
  8
Layer0
10
480.3236357363977
20
-469.5044416843856
30
203.87499286745822
 70
     192
  0
VERTEX
  8
Layer0
10
480.7378492996728
20
-469.8222789284059
30
203.87499287036917
 70
     192
  0
VERTEX
  8
Layer0
10
481.05568654604383
20
-470.23649248987755
30
203.87499287081297
 70
     192
  0
VERTEX
  8
Layer0
10
481.25548739241555
20
-470.71885439910585
30
203.87499286875806
 70
     192
  0
VERTEX
  8
Layer0
10
699.8236347480672
20
-331.2364924652448
30
203.8749977128909
 70
     192
  0
VERTEX
  8
Layer0
10
699.891782796618
20
-225.89626617898472
30
203.87499882231103
 70
     192
  0
VERTEX
  8
Layer0
10
699.8236344477338
20
-225.37862808897327
30
203.87499882672788
 70
     192
  0
VERTEX
  8
Layer0
10
699.8917830940173
20
-330.71885437484667
30
203.87499771936697
 70
     192
  0
VERTEX
  8
Layer0
10
700.0915836429991
20
-226.37862808821382
30
203.87499882025224
 70
     192
  0
VERTEX
  8
Layer0
10
700.0915839376615
20
-330.2364924644841
30
203.8749977274594
 70
     192
  0
VERTEX
  8
Layer0
10
700.4094208893733
20
-226.79284164968627
30
203.87499882069585
 70
     192
  0
VERTEX
  8
Layer0
10
700.4094211816823
20
-329.8222789012106
30
203.87499773661938
 70
     192
  0
VERTEX
  8
Layer0
10
700.823634452647
20
-227.11067889370568
30
203.87499882360984
 70
     192
  0
VERTEX
  8
Layer0
10
700.8236347431506
20
-329.5044416548409
30
203.8749977462218
 70
     192
  0
VERTEX
  8
Layer0
10
701.3059963630036
20
-227.31047973734763
30
203.8749988287956
 70
     192
  0
VERTEX
  8
Layer0
10
701.3059966523755
20
-329.30464080846184
30
203.87499775561238
 70
     192
  0
VERTEX
  8
Layer0
10
701.8236344534047
20
-227.378628083301
30
203.8749988358986
 70
     192
  0
VERTEX
  8
Layer0
10
701.8236347423872
20
-329.2364924595698
30
203.8749977641493
 70
     192
  0
VERTEX
  8
Layer0
10
702.3412725434138
20
-227.31047973440914
30
203.87499884443466
 70
     192
  0
VERTEX
  8
Layer0
10
702.3412728327855
20
-329.3046408055233
30
203.8749977712512
 70
     192
  0
VERTEX
  8
Layer0
10
702.8236344526468
20
-227.11067888803123
30
203.87499885382465
 70
     192
  0
VERTEX
  8
Layer0
10
702.8236347431508
20
-329.5044416491653
30
203.8749977764367
 70
     192
  0
VERTEX
  8
Layer0
10
703.2378480141193
20
-226.79284164166043
30
203.8749988634275
 70
     192
  0
VERTEX
  8
Layer0
10
703.2378483064288
20
-329.8222788931847
30
203.87499777935105
 70
     192
  0
VERTEX
  8
Layer0
10
703.555685258137
20
-226.37862807838684
30
203.87499887258755
 70
     192
  0
VERTEX
  8
Layer0
10
703.5556855527996
20
-330.2364924546573
30
203.87499777979434
 70
     192
  0
VERTEX
  8
Layer0
10
703.7554861017742
20
-225.89626616802363
30
203.87499888068152
 70
     192
  0
VERTEX
  8
Layer0
10
703.7554863991738
20
-330.7188543638843
30
203.87499777773735
 70
     192
  0
VERTEX
  8
Layer0
10
703.8236344477335
20
-225.37862807762522
30
203.87499888715624
 70
     192
  0
VERTEX
  8
Layer0
10
703.8236347480674
20
-331.2364924538962
30
203.8749977733186
 70
     192
  0
VERTEX
  8
Layer0
10
699.8236356444388
20
-437.0943562454684
30
203.87499652454537
 70
     192
  0
VERTEX
  8
Layer0
10
699.8917830969567
20
-331.7541305552568
30
203.8749977084738
 70
     192
  0
VERTEX
  8
Layer0
10
699.8917839903978
20
-436.5767181550702
30
203.87499653102128
 70
     192
  0
VERTEX
  8
Layer0
10
700.0915839433295
20
-332.23649246448485
30
203.87499770641537
 70
     192
  0
VERTEX
  8
Layer0
10
700.0915848340386
20
-436.0943562447085
30
203.87499653911345
 70
     192
  0
VERTEX
  8
Layer0
10
700.4094211897038
20
-332.6507060259557
30
203.87499770685872
 70
     192
  0
VERTEX
  8
Layer0
10
700.4094220780561
20
-435.68014268143304
30
203.87499654827366
 70
     192
  0
VERTEX
  8
Layer0
10
700.8236347529814
20
-332.9685432699768
30
203.8749977097725
 70
     192
  0
VERTEX
  8
Layer0
10
700.8236356395247
20
-435.3623054350622
30
203.8749965578764
 70
     192
  0
VERTEX
  8
Layer0
10
701.3059966633433
20
-333.16834411361725
30
203.87499771495834
 70
     192
  0
VERTEX
  8
Layer0
10
701.3059975487575
20
-435.162504588685
30
203.87499656726663
 70
     192
  0
VERTEX
  8
Layer0
10
701.8236347537418
20
-333.2364924595704
30
203.87499772206147
 70
     192
  0
VERTEX
  8
Layer0
10
701.8236356387692
20
-435.094356239794
30
203.87499657580437
 70
     192
  0
VERTEX
  8
Layer0
10
702.3412728437535
20
-333.16834411068027
30
203.87499773059724
 70
     192
  0
VERTEX
  8
Layer0
10
702.3412737291677
20
-435.1625045857477
30
203.87499658290562
 70
     192
  0
VERTEX
  8
Layer0
10
702.8236347529817
20
-332.9685432643024
30
203.87499773998732
 70
     192
  0
VERTEX
  8
Layer0
10
702.8236356395246
20
-435.3623054293883
30
203.87499658809134
 70
     192
  0
VERTEX
  8
Layer0
10
703.2378483144502
20
-332.6507060179315
30
203.87499774959036
 70
     192
  0
VERTEX
  8
Layer0
10
703.2378492028021
20
-435.6801426734088
30
203.8749965910056
 70
     192
  0
VERTEX
  8
Layer0
10
703.5556855584674
20
-332.2364924546564
30
203.87499775875054
 70
     192
  0
VERTEX
  8
Layer0
10
703.5556864491765
20
-436.09435623488037
30
203.87499659144882
 70
     192
  0
VERTEX
  8
Layer0
10
703.7554864021132
20
-331.75413054429447
30
203.87499776684405
 70
     192
  0
VERTEX
  8
Layer0
10
703.7554872955541
20
-436.57671814410776
30
203.87499658939214
 70
     192
  0
VERTEX
  8
Layer0
10
703.8236356444386
20
-437.09435623411997
30
203.87499658497333
 70
     192
  0
VERTEX
  8
Layer0
10
672.5177941302235
20
-446.62046884700663
30
203.8749961401907
 70
     192
  0
VERTEX
  8
Layer0
10
672.6517884778848
20
-447.29410391273797
30
203.87499613494137
 70
     192
  0
VERTEX
  8
Layer0
10
672.8725635054022
20
-447.94448616512096
30
203.8749961312541
 70
     192
  0
VERTEX
  8
Layer0
10
673.176341690847
20
-448.5604873834952
30
203.8749961291921
 70
     192
  0
VERTEX
  8
Layer0
10
673.5579253052387
20
-449.13156761622525
30
203.87499612879046
 70
     192
  0
VERTEX
  8
Layer0
10
674.0107853471424
20
-449.64795552219874
30
203.8749961300561
 70
     192
  0
VERTEX
  8
Layer0
10
674.5271732556863
20
-450.1008155611729
30
203.87499613296748
 70
     192
  0
VERTEX
  8
Layer0
10
675.0982534905818
20
-450.4823991723253
30
203.87499613747468
 70
     192
  0
VERTEX
  8
Layer0
10
675.7142547106803
20
-450.78617735427315
30
203.87499614350065
 70
     192
  0
VERTEX
  8
Layer0
10
676.3646369643146
20
-451.0069523781007
30
203.87499615094214
 70
     192
  0
VERTEX
  8
Layer0
10
677.0382720308063
20
-451.1409467219399
30
203.87499615953178
 70
     192
  0
VERTEX
  8
Layer0
10
677.723633827402
20
-451.1858677054169
30
203.87499617087045
 70
     192
  0
VERTEX
  8
Layer0
10
678.4089956237422
20
-451.1409467180507
30
203.8749961803797
 70
     192
  0
VERTEX
  8
Layer0
10
679.082630689475
20
-451.00695237038934
30
203.87499619200315
 70
     192
  0
VERTEX
  8
Layer0
10
711.8236356561908
20
-441.236491835154
30
203.8749966622502
 70
     192
  0
VERTEX
  8
Layer0
10
679.7330129418576
20
-450.7861773428712
30
203.8749962042124
 70
     192
  0
VERTEX
  8
Layer0
10
680.3490141602299
20
-450.4823991574277
30
203.87499621679837
 70
     192
  0
VERTEX
  8
Layer0
10
680.920094392962
20
-450.10081554303537
30
203.87499622954596
 70
     192
  0
VERTEX
  8
Layer0
10
681.4364822989344
20
-449.64795550113075
30
203.87499624223676
 70
     192
  0
VERTEX
  8
Layer0
10
681.8893423379092
20
-449.1315675925884
30
203.87499625465387
 70
     192
  0
VERTEX
  8
Layer0
10
682.2709259490618
20
-448.56048735769133
30
203.87499626658476
 70
     192
  0
VERTEX
  8
Layer0
10
682.5747041310087
20
-447.9444861375939
30
203.87499627782523
 70
     192
  0
VERTEX
  8
Layer0
10
682.7954791548369
20
-447.2941038839604
30
203.87499628818296
 70
     192
  0
VERTEX
  8
Layer0
10
682.9294734986763
20
-446.62046881746744
30
203.87499629748086
 70
     192
  0
VERTEX
  8
Layer0
10
682.9743944821536
20
-445.9351070208715
30
203.87499630555968
 70
     192
  0
VERTEX
  8
Layer0
10
685.2428442038811
20
-436.07366910821935
30
203.87499630931438
 70
     192
  0
VERTEX
  8
Layer0
10
685.0504049244482
20
-436.03539055613817
30
203.87499630682063
 70
     192
  0
VERTEX
  8
Layer0
10
684.8646083433755
20
-435.9723211159987
30
203.874996304695
 70
     192
  0
VERTEX
  8
Layer0
10
684.6886334916775
20
-435.8855399234077
30
203.87499630297387
 70
     192
  0
VERTEX
  8
Layer0
10
684.5254913478545
20
-435.7765318286307
30
203.87499630168676
 70
     192
  0
VERTEX
  8
Layer0
10
684.3779733192213
20
-435.6471619903922
30
203.87499630085557
 70
     192
  0
VERTEX
  8
Layer0
10
684.2486034801458
20
-435.4996439624925
30
203.87499630049462
 70
     192
  0
VERTEX
  8
Layer0
10
684.1395953844427
20
-435.3365018192886
30
203.87499630061
 70
     192
  0
VERTEX
  8
Layer0
10
684.0528141908534
20
-435.16052696808254
30
203.87499630119987
 70
     192
  0
VERTEX
  8
Layer0
10
683.9897447496592
20
-434.97473038736763
30
203.874996302254
 70
     192
  0
VERTEX
  8
Layer0
10
683.9514661964868
20
-434.7822911081525
30
203.87499630375444
 70
     192
  0
VERTEX
  8
Layer0
10
685.4386334922476
20
-436.0865018156031
30
203.87499631213367
 70
     192
  0
VERTEX
  8
Layer0
10
685.6344227805412
20
-436.0736691071083
30
203.87499631523008
 70
     192
  0
VERTEX
  8
Layer0
10
685.8268620597559
20
-436.03539055393526
30
203.8749963185508
 70
     192
  0
VERTEX
  8
Layer0
10
686.0126586404707
20
-435.9723211127415
30
203.874996322039
 70
     192
  0
VERTEX
  8
Layer0
10
686.1886334916775
20
-435.88553991915194
30
203.87499632563495
 70
     192
  0
VERTEX
  8
Layer0
10
701.3059975597205
20
-439.0262078938414
30
203.87499652661296
 70
     192
  0
VERTEX
  8
Layer0
10
686.3517756348807
20
-435.77653182344926
30
203.8749963292771
 70
     192
  0
VERTEX
  8
Layer0
10
686.4992936627808
20
-435.64716198437367
30
203.87499633290315
 70
     192
  0
VERTEX
  8
Layer0
10
686.6286635010194
20
-435.4996439557399
30
203.87499633645106
 70
     192
  0
VERTEX
  8
Layer0
10
686.737671595796
20
-435.33650181191757
30
203.87499633986013
 70
     192
  0
VERTEX
  8
Layer0
10
686.8244527883872
20
-435.16052696021893
30
203.87499634307207
 70
     192
  0
VERTEX
  8
Layer0
10
686.8875222285263
20
-434.97473037914625
30
203.87499634603188
 70
     192
  0
VERTEX
  8
Layer0
10
686.9258007806081
20
-434.7822910997138
30
203.87499634868888
 70
     192
  0
VERTEX
  8
Layer0
10
700.8236356493555
20
-438.8264070501999
30
203.8749965214271
 70
     192
  0
VERTEX
  8
Layer0
10
700.4094220860778
20
-438.50856980618005
30
203.87499651851297
 70
     192
  0
VERTEX
  8
Layer0
10
700.0915848397126
20
-438.0943562447083
30
203.87499651806976
 70
     192
  0
VERTEX
  8
Layer0
10
699.891783993335
20
-437.6119943354801
30
203.87499652012818
 70
     192
  0
VERTEX
  8
Layer0
10
701.823635650119
20
-439.094356239794
30
203.8749965337163
 70
     192
  0
VERTEX
  8
Layer0
10
702.3412737401306
20
-439.02620789090383
30
203.87499654225195
 70
     192
  0
VERTEX
  8
Layer0
10
702.8236356493554
20
-438.826407044526
30
203.8749965516419
 70
     192
  0
VERTEX
  8
Layer0
10
703.2378492108238
20
-438.508569798155
30
203.87499656124436
 70
     192
  0
VERTEX
  8
Layer0
10
703.5556864548505
20
-438.09435623488054
30
203.87499657040473
 70
     192
  0
VERTEX
  8
Layer0
10
703.7554872984912
20
-437.6119943245177
30
203.87499657849898
 70
     192
  0
VERTEX
  8
Layer0
10
711.8236344359811
20
-221.23649243119726
30
203.8749990516002
 70
     192
  0
VERTEX
  8
Layer0
10
681.8886334036318
20
-375.6364906077114
30
203.8749971552334
 70
     192
  0
VERTEX
  8
Layer0
10
665.7496470760206
20
-191.75413065212274
30
203.87499866575652
 70
     192
  0
VERTEX
  8
Layer0
10
665.9494479224048
20
-192.2364925613492
30
203.87499866369953
 70
     192
  0
VERTEX
  8
Layer0
10
666.2672851687746
20
-192.6507061228223
30
203.874998664143
 70
     192
  0
VERTEX
  8
Layer0
10
666.6814987320448
20
-192.9685433668411
30
203.87499866705633
 70
     192
  0
VERTEX
  8
Layer0
10
667.1638606424062
20
-193.16834421048358
30
203.87499867223875
 70
     192
  0
VERTEX
  8
Layer0
10
667.6814987328045
20
-193.23649255643514
30
203.87499867934434
 70
     192
  0
VERTEX
  8
Layer0
10
668.1991368228164
20
-193.16834420754472
30
203.8749986878817
 70
     192
  0
VERTEX
  8
Layer0
10
668.6814987320452
20
-192.96854336116857
30
203.87499869727012
 70
     192
  0
VERTEX
  8
Layer0
10
669.0957122935212
20
-192.65070611479592
30
203.8749987068713
 70
     192
  0
VERTEX
  8
Layer0
10
669.4135495375431
20
-192.23649255152282
30
203.87499871603137
 70
     192
  0
VERTEX
  8
Layer0
10
669.6133503811772
20
-191.75413064115938
30
203.8749987241269
 70
     192
  0
VERTEX
  8
Layer0
10
699.8917827936809
20
-224.86098999857458
30
203.8749988332041
 70
     192
  0
VERTEX
  8
Layer0
10
700.091583637322
20
-224.37862808821373
30
203.8749988412962
 70
     192
  0
VERTEX
  8
Layer0
10
700.4094208813474
20
-223.96441452494008
30
203.87499885045665
 70
     192
  0
VERTEX
  8
Layer0
10
700.8236344428199
20
-223.64657727856795
30
203.8749988600593
 70
     192
  0
VERTEX
  8
Layer0
10
701.3059963520476
20
-223.44677643219123
30
203.87499886944966
 70
     192
  0
VERTEX
  8
Layer0
10
683.9514669929404
20
-369.39071253149234
30
203.87499727656242
 70
     192
  0
VERTEX
  8
Layer0
10
682.2709259341639
20
-443.30972668804384
30
203.87499632327985
 70
     192
  0
VERTEX
  8
Layer0
10
682.5747041196067
20
-443.9257279064167
30
203.8749963212178
 70
     192
  0
VERTEX
  8
Layer0
10
682.795479147125
20
-444.5761101587984
30
203.87499631753053
 70
     192
  0
VERTEX
  8
Layer0
10
682.9294734947873
20
-445.24974522453044
30
203.8749963122812
 70
     192
  0
VERTEX
  8
Layer0
10
683.9897455450215
20
-369.19827325206
30
203.87499727921946
 70
     192
  0
VERTEX
  8
Layer0
10
684.0528149851611
20
-369.0124766709876
30
203.8749972821792
 70
     192
  0
VERTEX
  8
Layer0
10
684.1395961777517
20
-368.836501819289
30
203.87499728539115
 70
     192
  0
VERTEX
  8
Layer0
10
684.2486042725294
20
-368.6733596754663
30
203.87499728880022
 70
     192
  0
VERTEX
  8
Layer0
10
684.3779741107676
20
-368.52584164683253
30
203.87499729234816
 70
     192
  0
VERTEX
  8
Layer0
10
684.5254921386671
20
-368.39647180775694
30
203.87499729597417
 70
     192
  0
VERTEX
  8
Layer0
10
684.6886342818715
20
-368.2874637120542
30
203.87499729961635
 70
     192
  0
VERTEX
  8
Layer0
10
684.8646091330771
20
-368.2006825184647
30
203.8749973032123
 70
     192
  0
VERTEX
  8
Layer0
10
685.050405713792
20
-368.13761307727117
30
203.87499730670044
 70
     192
  0
VERTEX
  8
Layer0
10
685.2428449930072
20
-368.0993345240978
30
203.87499731002112
 70
     192
  0
VERTEX
  8
Layer0
10
685.4386342813012
20
-368.086501815603
30
203.8749973131177
 70
     192
  0
VERTEX
  8
Layer0
10
685.6344235696674
20
-368.09933452298685
30
203.87499731593687
 70
     192
  0
VERTEX
  8
Layer0
10
685.8268628490996
20
-368.1376130750679
30
203.87499731843067
 70
     192
  0
VERTEX
  8
Layer0
10
686.0126594301723
20
-368.20068251520746
30
203.8749973205563
 70
     192
  0
VERTEX
  8
Layer0
10
686.1886342818715
20
-368.2874637077986
30
203.87499732227744
 70
     192
  0
VERTEX
  8
Layer0
10
686.3517764256933
20
-368.39647180257555
30
203.87499732356454
 70
     192
  0
VERTEX
  8
Layer0
10
686.4992944543272
20
-368.52584164081424
30
203.8749973243957
 70
     192
  0
VERTEX
  8
Layer0
10
686.6286642934031
20
-368.67335966871394
30
203.8749973247567
 70
     192
  0
VERTEX
  8
Layer0
10
686.7376723891053
20
-368.83650181191734
30
203.87499732464124
 70
     192
  0
VERTEX
  8
Layer0
10
686.824453582695
20
-369.0124766631235
30
203.87499732405144
 70
     192
  0
VERTEX
  8
Layer0
10
686.8875230238887
20
-369.19827324383846
30
203.87499732299727
 70
     192
  0
VERTEX
  8
Layer0
10
686.9258015770623
20
-369.39071252305354
30
203.87499732149686
 70
     192
  0
VERTEX
  8
Layer0
10
701.8236344420594
20
-223.378628083301
30
203.87499887798674
 70
     192
  0
VERTEX
  8
Layer0
10
702.3412725324578
20
-223.44677642925282
30
203.87499888508856
 70
     192
  0
VERTEX
  8
Layer0
10
702.8236344428199
20
-223.6465772728935
30
203.874998890274
 70
     192
  0
VERTEX
  8
Layer0
10
703.2378480060935
20
-223.96441451691422
30
203.87499889318812
 70
     192
  0
VERTEX
  8
Layer0
10
703.5556852524599
20
-224.37862807838675
30
203.87499889363147
 70
     192
  0
VERTEX
  8
Layer0
10
703.755486098838
20
-224.8609899876135
30
203.87499889157473
 70
     192
  0
VERTEX
  8
Layer0
10
0.0
 20
 0.0
 30
0.0
 70
     128
 71
-1
 72
2
 73
-3
  0
VERTEX
  8
Layer0
10
0.0
 20
 0.0
 30
0.0
 70
     128
 71
-2
 72
-1
 73
4
  0
VERTEX
  8
Layer0
10
0.0
 20
 0.0
 30
0.0
 70
     128
 71
-4
 72
-1
 73
5
  0
VERTEX
  8
Layer0
10
0.0
 20
 0.0
 30
0.0
 70
     128
 71
-5
 72
-1
 73
6
  0
VERTEX
  8
Layer0
10
0.0
 20
 0.0
 30
0.0
 70
     128
 71
-6
 72
-1
 73
7
  0
VERTEX
  8
Layer0
10
0.0
 20
 0.0
 30
0.0
 70
     128
 71
-7
 72
-1
 73
8
  0
VERTEX
  8
Layer0
10
0.0
 20
 0.0
 30
0.0
 70
     128
 71
-8
 72
1
 73
-9
  0
VERTEX
  8
Layer0
10
0.0
 20
 0.0
 30
0.0
 70
     128
 71
-8
 72
-9
 73
10
  0
VERTEX
  8
Layer0
10
0.0
 20
 0.0
 30
0.0
 70
     128
 71
-10
 72
-9
 73
11
  0
VERTEX
  8
Layer0
10
0.0
 20
 0.0
 30
0.0
 70
     128
 71
-11
 72
-9
 73
12
  0
VERTEX
  8
Layer0
10
0.0
 20
 0.0
 30
0.0
 70
     128
 71
-12
 72
-9
 73
13
  0
VERTEX
  8
Layer0
10
0.0
 20
 0.0
 30
0.0
 70
     128
 71
-13
 72
-9
 73
14
  0
VERTEX
  8
Layer0
10
0.0
 20
 0.0
 30
0.0
 70
     128
 71
-14
 72
-9
 73
15
  0
VERTEX
  8
Layer0
10
0.0
 20
 0.0
 30
0.0
 70
     128
 71
-15
 72
-9
 73
-16
  0
VERTEX
  8
Layer0
10
0.0
 20
 0.0
 30
0.0
 70
     128
 71
-15
 72
16
 73
-17
  0
VERTEX
  8
Layer0
10
0.0
 20
 0.0
 30
0.0
 70
     128
 71
-15
 72
-17
 73
-18
  0
VERTEX
  8
Layer0
10
0.0
 20
 0.0
 30
0.0
 70
     128
 71
-15
 72
18
 73
-19
  0
VERTEX
  8
Layer0
10
0.0
 20
 0.0
 30
0.0
 70
     128
 71
-15
 72
19
 73
-20
  0
VERTEX
  8
Layer0
10
0.0
 20
 0.0
 30
0.0
 70
     128
 71
-18
 72
17
 73
-21
  0
VERTEX
  8
Layer0
10
0.0
 20
 0.0
 30
0.0
 70
     128
 71
-18
 72
21
 73
-22
  0
VERTEX
  8
Layer0
10
0.0
 20
 0.0
 30
0.0
 70
     128
 71
-18
 72
22
 73
-23
  0
VERTEX
  8
Layer0
10
0.0
 20
 0.0
 30
0.0
 70
     128
 71
-18
 72
23
 73
-24
  0
VERTEX
  8
Layer0
10
0.0
 20
 0.0
 30
0.0
 70
     128
 71
-18
 72
24
 73
-25
  0
VERTEX
  8
Layer0
10
0.0
 20
 0.0
 30
0.0
 70
     128
 71
-16
 72
-9
 73
26
  0
VERTEX
  8
Layer0
10
0.0
 20
 0.0
 30
0.0
 70
     128
 71
-26
 72
-9
 73
27
  0
VERTEX
  8
Layer0
10
0.0
 20
 0.0
 30
0.0
 70
     128
 71
-27
 72
-9
 73
28
  0
VERTEX
  8
Layer0
10
0.0
 20
 0.0
 30
0.0
 70
     128
 71
-28
 72
-9
 73
29
  0
VERTEX
  8
Layer0
10
0.0
 20
 0.0
 30
0.0
 70
     128
 71
-29
 72
-9
 73
30
  0
VERTEX
  8
Layer0
10
0.0
 20
 0.0
 30
0.0
 70
     128
 71
-30
 72
-9
 73
31
  0
VERTEX
  8
Layer0
10
0.0
 20
 0.0
 30
0.0
 70
     128
 71
-31
 72
-9
 73
-32
  0
VERTEX
  8
Layer0
10
0.0
 20
 0.0
 30
0.0
 70
     128
 71
-32
 72
-9
 73
-33
  0
VERTEX
  8
Layer0
10
0.0
 20
 0.0
 30
0.0
 70
     128
 71
-32
 72
33
 73
-34
  0
VERTEX
  8
Layer0
10
0.0
 20
 0.0
 30
0.0
 70
     128
 71
-32
 72
34
 73
-35
  0
VERTEX
  8
Layer0
10
0.0
 20
 0.0
 30
0.0
 70
     128
 71
-32
 72
35
 73
-36
  0
VERTEX
  8
Layer0
10
0.0
 20
 0.0
 30
0.0
 70
     128
 71
-32
 72
36
 73
-37
  0
VERTEX
  8
Layer0
10
0.0
 20
 0.0
 30
0.0
 70
     128
 71
-32
 72
37
 73
-38
  0
VERTEX
  8
Layer0
10
0.0
 20
 0.0
 30
0.0
 70
     128
 71
-32
 72
38
 73
-39
  0
VERTEX
  8
Layer0
10
0.0
 20
 0.0
 30
0.0
 70
     128
 71
-32
 72
39
 73
-40
  0
VERTEX
  8
Layer0
10
0.0
 20
 0.0
 30
0.0
 70
     128
 71
-32
 72
40
 73
-41
  0
VERTEX
  8
Layer0
10
0.0
 20
 0.0
 30
0.0
 70
     128
 71
-33
 72
-9
 73
42
  0
VERTEX
  8
Layer0
10
0.0
 20
 0.0
 30
0.0
 70
     128
 71
-42
 72
-9
 73
43
  0
VERTEX
  8
Layer0
10
0.0
 20
 0.0
 30
0.0
 70
     128
 71
-43
 72
-9
 73
44
  0
VERTEX
  8
Layer0
10
0.0
 20
 0.0
 30
0.0
 70
     128
 71
-44
 72
-9
 73
45
  0
VERTEX
  8
Layer0
10
0.0
 20
 0.0
 30
0.0
 70
     128
 71
-45
 72
-9
 73
46
  0
VERTEX
  8
Layer0
10
0.0
 20
 0.0
 30
0.0
 70
     128
 71
-46
 72
-9
 73
47
  0
VERTEX
  8
Layer0
10
0.0
 20
 0.0
 30
0.0
 70
     128
 71
-47
 72
-9
 73
48
  0
VERTEX
  8
Layer0
10
0.0
 20
 0.0
 30
0.0
 70
     128
 71
-48
 72
-9
 73
49
  0
VERTEX
  8
Layer0
10
0.0
 20
 0.0
 30
0.0
 70
     128
 71
-49
 72
-9
 73
50
  0
VERTEX
  8
Layer0
10
0.0
 20
 0.0
 30
0.0
 70
     128
 71
-50
 72
-9
 73
51
  0
VERTEX
  8
Layer0
10
0.0
 20
 0.0
 30
0.0
 70
     128
 71
-51
 72
-9
 73
52
  0
VERTEX
  8
Layer0
10
0.0
 20
 0.0
 30
0.0
 70
     128
 71
-52
 72
-9
 73
53
  0
VERTEX
  8
Layer0
10
0.0
 20
 0.0
 30
0.0
 70
     128
 71
-53
 72
-9
 73
54
  0
VERTEX
  8
Layer0
10
0.0
 20
 0.0
 30
0.0
 70
     128
 71
-54
 72
-9
 73
55
  0
VERTEX
  8
Layer0
10
0.0
 20
 0.0
 30
0.0
 70
     128
 71
-55
 72
-9
 73
56
  0
VERTEX
  8
Layer0
10
0.0
 20
 0.0
 30
0.0
 70
     128
 71
-56
 72
-9
 73
57
  0
VERTEX
  8
Layer0
10
0.0
 20
 0.0
 30
0.0
 70
     128
 71
-57
 72
-9
 73
-58
  0
VERTEX
  8
Layer0
10
0.0
 20
 0.0
 30
0.0
 70
     128
 71
-57
 72
-58
 73
-59
  0
VERTEX
  8
Layer0
10
0.0
 20
 0.0
 30
0.0
 70
     128
 71
-59
 72
-58
 73
-60
  0
VERTEX
  8
Layer0
10
0.0
 20
 0.0
 30
0.0
 70
     128
 71
-60
 72
58
 73
-61
  0
VERTEX
  8
Layer0
10
0.0
 20
 0.0
 30
0.0
 70
     128
 71
-58
 72
-9
 73
-62
  0
VERTEX
  8
Layer0
10
0.0
 20
 0.0
 30
0.0
 70
     128
 71
-58
 72
62
 73
-63
  0
VERTEX
  8
Layer0
10
0.0
 20
 0.0
 30
0.0
 70
     128
 71
-58
 72
63
 73
-64
  0
VERTEX
  8
Layer0
10
0.0
 20
 0.0
 30
0.0
 70
     128
 71
-58
 72
64
 73
-65
  0
VERTEX
  8
Layer0
10
0.0
 20
 0.0
 30
0.0
 70
     128
 71
-58
 72
65
 73
-66
  0
VERTEX
  8
Layer0
10
0.0
 20
 0.0
 30
0.0
 70
     128
 71
-58
 72
66
 73
-67
  0
VERTEX
  8
Layer0
10
0.0
 20
 0.0
 30
0.0
 70
     128
 71
-62
 72
-9
 73
68
  0
VERTEX
  8
Layer0
10
0.0
 20
 0.0
 30
0.0
 70
     128
 71
-68
 72
-9
 73
69
  0
VERTEX
  8
Layer0
10
0.0
 20
 0.0
 30
0.0
 70
     128
 71
-69
 72
-9
 73
70
  0
VERTEX
  8
Layer0
10
0.0
 20
 0.0
 30
0.0
 70
     128
 71
-70
 72
-9
 73
71
  0
VERTEX
  8
Layer0
10
0.0
 20
 0.0
 30
0.0
 70
     128
 71
-71
 72
-9
 73
72
  0
VERTEX
  8
Layer0
10
0.0
 20
 0.0
 30
0.0
 70
     128
 71
-72
 72
-9
 73
73
  0
VERTEX
  8
Layer0
10
0.0
 20
 0.0
 30
0.0
 70
     128
 71
-73
 72
-9
 73
74
  0
VERTEX
  8
Layer0
10
0.0
 20
 0.0
 30
0.0
 70
     128
 71
-74
 72
-9
 73
75
  0
VERTEX
  8
Layer0
10
0.0
 20
 0.0
 30
0.0
 70
     128
 71
-75
 72
-9
 73
76
  0
VERTEX
  8
Layer0
10
0.0
 20
 0.0
 30
0.0
 70
     128
 71
-76
 72
-9
 73
77
  0
VERTEX
  8
Layer0
10
0.0
 20
 0.0
 30
0.0
 70
     128
 71
-77
 72
-9
 73
78
  0
VERTEX
  8
Layer0
10
0.0
 20
 0.0
 30
0.0
 70
     128
 71
-78
 72
-9
 73
79
  0
VERTEX
  8
Layer0
10
0.0
 20
 0.0
 30
0.0
 70
     128
 71
-79
 72
-9
 73
80
  0
VERTEX
  8
Layer0
10
0.0
 20
 0.0
 30
0.0
 70
     128
 71
-80
 72
-9
 73
81
  0
VERTEX
  8
Layer0
10
0.0
 20
 0.0
 30
0.0
 70
     128
 71
-81
 72
-9
 73
82
  0
VERTEX
  8
Layer0
10
0.0
 20
 0.0
 30
0.0
 70
     128
 71
-82
 72
-9
 73
83
  0
VERTEX
  8
Layer0
10
0.0
 20
 0.0
 30
0.0
 70
     128
 71
-83
 72
-9
 73
84
  0
VERTEX
  8
Layer0
10
0.0
 20
 0.0
 30
0.0
 70
     128
 71
-84
 72
-9
 73
85
  0
VERTEX
  8
Layer0
10
0.0
 20
 0.0
 30
0.0
 70
     128
 71
-85
 72
-9
 73
86
  0
VERTEX
  8
Layer0
10
0.0
 20
 0.0
 30
0.0
 70
     128
 71
-86
 72
-9
 73
-87
  0
VERTEX
  8
Layer0
10
0.0
 20
 0.0
 30
0.0
 70
     128
 71
-86
 72
87
 73
-88
  0
VERTEX
  8
Layer0
10
0.0
 20
 0.0
 30
0.0
 70
     128
 71
-86
 72
88
 73
-89
  0
VERTEX
  8
Layer0
10
0.0
 20
 0.0
 30
0.0
 70
     128
 71
-87
 72
-9
 73
90
  0
VERTEX
  8
Layer0
10
0.0
 20
 0.0
 30
0.0
 70
     128
 71
-90
 72
-9
 73
91
  0
VERTEX
  8
Layer0
10
0.0
 20
 0.0
 30
0.0
 70
     128
 71
-91
 72
-9
 73
92
  0
VERTEX
  8
Layer0
10
0.0
 20
 0.0
 30
0.0
 70
     128
 71
-92
 72
-9
 73
93
  0
VERTEX
  8
Layer0
10
0.0
 20
 0.0
 30
0.0
 70
     128
 71
-93
 72
-9
 73
94
  0
VERTEX
  8
Layer0
10
0.0
 20
 0.0
 30
0.0
 70
     128
 71
-94
 72
-9
 73
95
  0
VERTEX
  8
Layer0
10
0.0
 20
 0.0
 30
0.0
 70
     128
 71
-95
 72
-9
 73
96
  0
VERTEX
  8
Layer0
10
0.0
 20
 0.0
 30
0.0
 70
     128
 71
-96
 72
-9
 73
97
  0
VERTEX
  8
Layer0
10
0.0
 20
 0.0
 30
0.0
 70
     128
 71
-97
 72
-9
 73
98
  0
VERTEX
  8
Layer0
10
0.0
 20
 0.0
 30
0.0
 70
     128
 71
-98
 72
-9
 73
99
  0
VERTEX
  8
Layer0
10
0.0
 20
 0.0
 30
0.0
 70
     128
 71
-58
 72
-100
 73
101
  0
VERTEX
  8
Layer0
10
0.0
 20
 0.0
 30
0.0
 70
     128
 71
-100
 72
-58
 73
102
  0
VERTEX
  8
Layer0
10
0.0
 20
 0.0
 30
0.0
 70
     128
 71
-102
 72
-58
 73
103
  0
VERTEX
  8
Layer0
10
0.0
 20
 0.0
 30
0.0
 70
     128
 71
-103
 72
-58
 73
104
  0
VERTEX
  8
Layer0
10
0.0
 20
 0.0
 30
0.0
 70
     128
 71
-104
 72
-58
 73
105
  0
VERTEX
  8
Layer0
10
0.0
 20
 0.0
 30
0.0
 70
     128
 71
-105
 72
-58
 73
106
  0
VERTEX
  8
Layer0
10
0.0
 20
 0.0
 30
0.0
 70
     128
 71
-106
 72
-58
 73
107
  0
VERTEX
  8
Layer0
10
0.0
 20
 0.0
 30
0.0
 70
     128
 71
-107
 72
-58
 73
108
  0
VERTEX
  8
Layer0
10
0.0
 20
 0.0
 30
0.0
 70
     128
 71
-108
 72
-58
 73
109
  0
VERTEX
  8
Layer0
10
0.0
 20
 0.0
 30
0.0
 70
     128
 71
-109
 72
-58
 73
67
  0
VERTEX
  8
Layer0
10
0.0
 20
 0.0
 30
0.0
 70
     128
 71
-101
 72
100
 73
-110
  0
VERTEX
  8
Layer0
10
0.0
 20
 0.0
 30
0.0
 70
     128
 71
-101
 72
110
 73
-111
  0
VERTEX
  8
Layer0
10
0.0
 20
 0.0
 30
0.0
 70
     128
 71
-101
 72
111
 73
-112
  0
VERTEX
  8
Layer0
10
0.0
 20
 0.0
 30
0.0
 70
     128
 71
-101
 72
112
 73
-113
  0
VERTEX
  8
Layer0
10
0.0
 20
 0.0
 30
0.0
 70
     128
 71
-101
 72
113
 73
-114
  0
VERTEX
  8
Layer0
10
0.0
 20
 0.0
 30
0.0
 70
     128
 71
-101
 72
114
 73
-115
  0
VERTEX
  8
Layer0
10
0.0
 20
 0.0
 30
0.0
 70
     128
 71
-101
 72
115
 73
-116
  0
VERTEX
  8
Layer0
10
0.0
 20
 0.0
 30
0.0
 70
     128
 71
-101
 72
116
 73
-117
  0
VERTEX
  8
Layer0
10
0.0
 20
 0.0
 30
0.0
 70
     128
 71
-101
 72
117
 73
-118
  0
VERTEX
  8
Layer0
10
0.0
 20
 0.0
 30
0.0
 70
     128
 71
-101
 72
118
 73
-119
  0
VERTEX
  8
Layer0
10
0.0
 20
 0.0
 30
0.0
 70
     128
 71
-101
 72
119
 73
-120
  0
VERTEX
  8
Layer0
10
0.0
 20
 0.0
 30
0.0
 70
     128
 71
-101
 72
120
 73
-121
  0
VERTEX
  8
Layer0
10
0.0
 20
 0.0
 30
0.0
 70
     128
 71
-101
 72
121
 73
-122
  0
VERTEX
  8
Layer0
10
0.0
 20
 0.0
 30
0.0
 70
     128
 71
-101
 72
122
 73
-123
  0
VERTEX
  8
Layer0
10
0.0
 20
 0.0
 30
0.0
 70
     128
 71
-101
 72
123
 73
-86
  0
VERTEX
  8
Layer0
10
0.0
 20
 0.0
 30
0.0
 70
     128
 71
-101
 72
-86
 73
-124
  0
VERTEX
  8
Layer0
10
0.0
 20
 0.0
 30
0.0
 70
     128
 71
-124
 72
-86
 73
125
  0
VERTEX
  8
Layer0
10
0.0
 20
 0.0
 30
0.0
 70
     128
 71
-125
 72
-86
 73
126
  0
VERTEX
  8
Layer0
10
0.0
 20
 0.0
 30
0.0
 70
     128
 71
-126
 72
-86
 73
-127
  0
VERTEX
  8
Layer0
10
0.0
 20
 0.0
 30
0.0
 70
     128
 71
-127
 72
-86
 73
89
  0
VERTEX
  8
Layer0
10
0.0
 20
 0.0
 30
0.0
 70
     128
 71
-126
 72
127
 73
-128
  0
VERTEX
  8
Layer0
10
0.0
 20
 0.0
 30
0.0
 70
     128
 71
-126
 72
128
 73
-129
  0
VERTEX
  8
Layer0
10
0.0
 20
 0.0
 30
0.0
 70
     128
 71
-126
 72
129
 73
-130
  0
VERTEX
  8
Layer0
10
0.0
 20
 0.0
 30
0.0
 70
     128
 71
-126
 72
130
 73
-131
  0
VERTEX
  8
Layer0
10
0.0
 20
 0.0
 30
0.0
 70
     128
 71
-126
 72
131
 73
-132
  0
VERTEX
  8
Layer0
10
0.0
 20
 0.0
 30
0.0
 70
     128
 71
-126
 72
-132
 73
133
  0
VERTEX
  8
Layer0
10
0.0
 20
 0.0
 30
0.0
 70
     128
 71
-133
 72
132
 73
-134
  0
VERTEX
  8
Layer0
10
0.0
 20
 0.0
 30
0.0
 70
     128
 71
-133
 72
134
 73
-135
  0
VERTEX
  8
Layer0
10
0.0
 20
 0.0
 30
0.0
 70
     128
 71
-133
 72
135
 73
-136
  0
VERTEX
  8
Layer0
10
0.0
 20
 0.0
 30
0.0
 70
     128
 71
-133
 72
136
 73
-137
  0
VERTEX
  8
Layer0
10
0.0
 20
 0.0
 30
0.0
 70
     128
 71
-133
 72
137
 73
-138
  0
VERTEX
  8
Layer0
10
0.0
 20
 0.0
 30
0.0
 70
     128
 71
-133
 72
138
 73
-99
  0
VERTEX
  8
Layer0
10
0.0
 20
 0.0
 30
0.0
 70
     128
 71
-133
 72
-99
 73
139
  0
VERTEX
  8
Layer0
10
0.0
 20
 0.0
 30
0.0
 70
     128
 71
-139
 72
-99
 73
-9
  0
VERTEX
  8
Layer0
10
0.0
 20
 0.0
 30
0.0
 70
     128
 71
-101
 72
124
 73
-140
  0
VERTEX
  8
Layer0
10
0.0
 20
 0.0
 30
0.0
 70
     128
 71
-101
 72
140
 73
-141
  0
VERTEX
  8
Layer0
10
0.0
 20
 0.0
 30
0.0
 70
     128
 71
-101
 72
141
 73
-142
  0
VERTEX
  8
Layer0
10
0.0
 20
 0.0
 30
0.0
 70
     128
 71
-101
 72
142
 73
-143
  0
VERTEX
  8
Layer0
10
0.0
 20
 0.0
 30
0.0
 70
     128
 71
-101
 72
143
 73
-144
  0
VERTEX
  8
Layer0
10
0.0
 20
 0.0
 30
0.0
 70
     128
 71
-101
 72
144
 73
-145
  0
VERTEX
  8
Layer0
10
0.0
 20
 0.0
 30
0.0
 70
     128
 71
-101
 72
145
 73
-146
  0
VERTEX
  8
Layer0
10
0.0
 20
 0.0
 30
0.0
 70
     128
 71
-101
 72
146
 73
-147
  0
VERTEX
  8
Layer0
10
0.0
 20
 0.0
 30
0.0
 70
     128
 71
-101
 72
147
 73
-148
  0
VERTEX
  8
Layer0
10
0.0
 20
 0.0
 30
0.0
 70
     128
 71
-101
 72
148
 73
-149
  0
VERTEX
  8
Layer0
10
0.0
 20
 0.0
 30
0.0
 70
     128
 71
-101
 72
149
 73
-150
  0
VERTEX
  8
Layer0
10
0.0
 20
 0.0
 30
0.0
 70
     128
 71
-101
 72
150
 73
-151
  0
VERTEX
  8
Layer0
10
0.0
 20
 0.0
 30
0.0
 70
     128
 71
-101
 72
151
 73
-152
  0
VERTEX
  8
Layer0
10
0.0
 20
 0.0
 30
0.0
 70
     128
 71
-101
 72
152
 73
-153
  0
VERTEX
  8
Layer0
10
0.0
 20
 0.0
 30
0.0
 70
     128
 71
-101
 72
153
 73
-154
  0
VERTEX
  8
Layer0
10
0.0
 20
 0.0
 30
0.0
 70
     128
 71
-155
 72
-156
 73
157
  0
VERTEX
  8
Layer0
10
0.0
 20
 0.0
 30
0.0
 70
     128
 71
-156
 72
-155
 73
158
  0
VERTEX
  8
Layer0
10
0.0
 20
 0.0
 30
0.0
 70
     128
 71
-158
 72
155
 73
-159
  0
VERTEX
  8
Layer0
10
0.0
 20
 0.0
 30
0.0
 70
     128
 71
-158
 72
-159
 73
160
  0
VERTEX
  8
Layer0
10
0.0
 20
 0.0
 30
0.0
 70
     128
 71
-160
 72
159
 73
-161
  0
VERTEX
  8
Layer0
10
0.0
 20
 0.0
 30
0.0
 70
     128
 71
-160
 72
-161
 73
162
  0
VERTEX
  8
Layer0
10
0.0
 20
 0.0
 30
0.0
 70
     128
 71
-162
 72
161
 73
-163
  0
VERTEX
  8
Layer0
10
0.0
 20
 0.0
 30
0.0
 70
     128
 71
-162
 72
-163
 73
164
  0
VERTEX
  8
Layer0
10
0.0
 20
 0.0
 30
0.0
 70
     128
 71
-164
 72
163
 73
-165
  0
VERTEX
  8
Layer0
10
0.0
 20
 0.0
 30
0.0
 70
     128
 71
-164
 72
-165
 73
166
  0
VERTEX
  8
Layer0
10
0.0
 20
 0.0
 30
0.0
 70
     128
 71
-166
 72
165
 73
-167
  0
VERTEX
  8
Layer0
10
0.0
 20
 0.0
 30
0.0
 70
     128
 71
-166
 72
-167
 73
168
  0
VERTEX
  8
Layer0
10
0.0
 20
 0.0
 30
0.0
 70
     128
 71
-168
 72
167
 73
-169
  0
VERTEX
  8
Layer0
10
0.0
 20
 0.0
 30
0.0
 70
     128
 71
-168
 72
-169
 73
170
  0
VERTEX
  8
Layer0
10
0.0
 20
 0.0
 30
0.0
 70
     128
 71
-170
 72
169
 73
-171
  0
VERTEX
  8
Layer0
10
0.0
 20
 0.0
 30
0.0
 70
     128
 71
-170
 72
-171
 73
172
  0
VERTEX
  8
Layer0
10
0.0
 20
 0.0
 30
0.0
 70
     128
 71
-172
 72
171
 73
-173
  0
VERTEX
  8
Layer0
10
0.0
 20
 0.0
 30
0.0
 70
     128
 71
-172
 72
-173
 73
174
  0
VERTEX
  8
Layer0
10
0.0
 20
 0.0
 30
0.0
 70
     128
 71
-174
 72
173
 73
-175
  0
VERTEX
  8
Layer0
10
0.0
 20
 0.0
 30
0.0
 70
     128
 71
-174
 72
-175
 73
176
  0
VERTEX
  8
Layer0
10
0.0
 20
 0.0
 30
0.0
 70
     128
 71
-176
 72
175
 73
-177
  0
VERTEX
  8
Layer0
10
0.0
 20
 0.0
 30
0.0
 70
     128
 71
-176
 72
-177
 73
178
  0
VERTEX
  8
Layer0
10
0.0
 20
 0.0
 30
0.0
 70
     128
 71
-178
 72
177
 73
-179
  0
VERTEX
  8
Layer0
10
0.0
 20
 0.0
 30
0.0
 70
     128
 71
-178
 72
-179
 73
180
  0
VERTEX
  8
Layer0
10
0.0
 20
 0.0
 30
0.0
 70
     128
 71
-180
 72
179
 73
-181
  0
VERTEX
  8
Layer0
10
0.0
 20
 0.0
 30
0.0
 70
     128
 71
-180
 72
-181
 73
182
  0
VERTEX
  8
Layer0
10
0.0
 20
 0.0
 30
0.0
 70
     128
 71
-182
 72
181
 73
-183
  0
VERTEX
  8
Layer0
10
0.0
 20
 0.0
 30
0.0
 70
     128
 71
-182
 72
-183
 73
184
  0
VERTEX
  8
Layer0
10
0.0
 20
 0.0
 30
0.0
 70
     128
 71
-184
 72
183
 73
-185
  0
VERTEX
  8
Layer0
10
0.0
 20
 0.0
 30
0.0
 70
     128
 71
-184
 72
-185
 73
186
  0
VERTEX
  8
Layer0
10
0.0
 20
 0.0
 30
0.0
 70
     128
 71
-186
 72
185
 73
-187
  0
VERTEX
  8
Layer0
10
0.0
 20
 0.0
 30
0.0
 70
     128
 71
-186
 72
-187
 73
188
  0
VERTEX
  8
Layer0
10
0.0
 20
 0.0
 30
0.0
 70
     128
 71
-188
 72
187
 73
-189
  0
VERTEX
  8
Layer0
10
0.0
 20
 0.0
 30
0.0
 70
     128
 71
-188
 72
-189
 73
190
  0
VERTEX
  8
Layer0
10
0.0
 20
 0.0
 30
0.0
 70
     128
 71
-190
 72
189
 73
-191
  0
VERTEX
  8
Layer0
10
0.0
 20
 0.0
 30
0.0
 70
     128
 71
-190
 72
-191
 73
192
  0
VERTEX
  8
Layer0
10
0.0
 20
 0.0
 30
0.0
 70
     128
 71
-192
 72
191
 73
-193
  0
VERTEX
  8
Layer0
10
0.0
 20
 0.0
 30
0.0
 70
     128
 71
-192
 72
-193
 73
194
  0
VERTEX
  8
Layer0
10
0.0
 20
 0.0
 30
0.0
 70
     128
 71
-194
 72
193
 73
-195
  0
VERTEX
  8
Layer0
10
0.0
 20
 0.0
 30
0.0
 70
     128
 71
-194
 72
-195
 73
196
  0
VERTEX
  8
Layer0
10
0.0
 20
 0.0
 30
0.0
 70
     128
 71
-196
 72
195
 73
-197
  0
VERTEX
  8
Layer0
10
0.0
 20
 0.0
 30
0.0
 70
     128
 71
-196
 72
-197
 73
198
  0
VERTEX
  8
Layer0
10
0.0
 20
 0.0
 30
0.0
 70
     128
 71
-198
 72
197
 73
-199
  0
VERTEX
  8
Layer0
10
0.0
 20
 0.0
 30
0.0
 70
     128
 71
-198
 72
-199
 73
200
  0
VERTEX
  8
Layer0
10
0.0
 20
 0.0
 30
0.0
 70
     128
 71
-200
 72
199
 73
-201
  0
VERTEX
  8
Layer0
10
0.0
 20
 0.0
 30
0.0
 70
     128
 71
-200
 72
-201
 73
202
  0
VERTEX
  8
Layer0
10
0.0
 20
 0.0
 30
0.0
 70
     128
 71
-202
 72
201
 73
-203
  0
VERTEX
  8
Layer0
10
0.0
 20
 0.0
 30
0.0
 70
     128
 71
-202
 72
-203
 73
204
  0
VERTEX
  8
Layer0
10
0.0
 20
 0.0
 30
0.0
 70
     128
 71
-205
 72
-206
 73
-207
  0
VERTEX
  8
Layer0
10
0.0
 20
 0.0
 30
0.0
 70
     128
 71
-206
 72
-205
 73
-208
  0
VERTEX
  8
Layer0
10
0.0
 20
 0.0
 30
0.0
 70
     128
 71
-208
 72
-205
 73
209
  0
VERTEX
  8
Layer0
10
0.0
 20
 0.0
 30
0.0
 70
     128
 71
-209
 72
-205
 73
210
  0
VERTEX
  8
Layer0
10
0.0
 20
 0.0
 30
0.0
 70
     128
 71
-210
 72
205
 73
-1
  0
VERTEX
  8
Layer0
10
0.0
 20
 0.0
 30
0.0
 70
     128
 71
-210
 72
-1
 73
211
  0
VERTEX
  8
Layer0
10
0.0
 20
 0.0
 30
0.0
 70
     128
 71
-211
 72
-1
 73
212
  0
VERTEX
  8
Layer0
10
0.0
 20
 0.0
 30
0.0
 70
     128
 71
-212
 72
-1
 73
213
  0
VERTEX
  8
Layer0
10
0.0
 20
 0.0
 30
0.0
 70
     128
 71
-213
 72
-1
 73
214
  0
VERTEX
  8
Layer0
10
0.0
 20
 0.0
 30
0.0
 70
     128
 71
-214
 72
-1
 73
215
  0
VERTEX
  8
Layer0
10
0.0
 20
 0.0
 30
0.0
 70
     128
 71
-215
 72
-1
 73
216
  0
VERTEX
  8
Layer0
10
0.0
 20
 0.0
 30
0.0
 70
     128
 71
-216
 72
-1
 73
217
  0
VERTEX
  8
Layer0
10
0.0
 20
 0.0
 30
0.0
 70
     128
 71
-217
 72
-1
 73
218
  0
VERTEX
  8
Layer0
10
0.0
 20
 0.0
 30
0.0
 70
     128
 71
-218
 72
-1
 73
219
  0
VERTEX
  8
Layer0
10
0.0
 20
 0.0
 30
0.0
 70
     128
 71
-219
 72
-1
 73
220
  0
VERTEX
  8
Layer0
10
0.0
 20
 0.0
 30
0.0
 70
     128
 71
-220
 72
-1
 73
-221
  0
VERTEX
  8
Layer0
10
0.0
 20
 0.0
 30
0.0
 70
     128
 71
-221
 72
-1
 73
-222
  0
VERTEX
  8
Layer0
10
0.0
 20
 0.0
 30
0.0
 70
     128
 71
-221
 72
222
 73
-223
  0
VERTEX
  8
Layer0
10
0.0
 20
 0.0
 30
0.0
 70
     128
 71
-221
 72
223
 73
-224
  0
VERTEX
  8
Layer0
10
0.0
 20
 0.0
 30
0.0
 70
     128
 71
-221
 72
224
 73
-225
  0
VERTEX
  8
Layer0
10
0.0
 20
 0.0
 30
0.0
 70
     128
 71
-221
 72
225
 73
-226
  0
VERTEX
  8
Layer0
10
0.0
 20
 0.0
 30
0.0
 70
     128
 71
-221
 72
226
 73
-227
  0
VERTEX
  8
Layer0
10
0.0
 20
 0.0
 30
0.0
 70
     128
 71
-221
 72
227
 73
-228
  0
VERTEX
  8
Layer0
10
0.0
 20
 0.0
 30
0.0
 70
     128
 71
-221
 72
-228
 73
229
  0
VERTEX
  8
Layer0
10
0.0
 20
 0.0
 30
0.0
 70
     128
 71
-222
 72
-1
 73
-3
  0
VERTEX
  8
Layer0
10
0.0
 20
 0.0
 30
0.0
 70
     128
 71
-229
 72
228
 73
-230
  0
VERTEX
  8
Layer0
10
0.0
 20
 0.0
 30
0.0
 70
     128
 71
-229
 72
230
 73
-231
  0
VERTEX
  8
Layer0
10
0.0
 20
 0.0
 30
0.0
 70
     128
 71
-229
 72
231
 73
-232
  0
VERTEX
  8
Layer0
10
0.0
 20
 0.0
 30
0.0
 70
     128
 71
-229
 72
232
 73
-233
  0
VERTEX
  8
Layer0
10
0.0
 20
 0.0
 30
0.0
 70
     128
 71
-229
 72
233
 73
-234
  0
VERTEX
  8
Layer0
10
0.0
 20
 0.0
 30
0.0
 70
     128
 71
-229
 72
234
 73
-235
  0
VERTEX
  8
Layer0
10
0.0
 20
 0.0
 30
0.0
 70
     128
 71
-229
 72
-235
 73
-236
  0
VERTEX
  8
Layer0
10
0.0
 20
 0.0
 30
0.0
 70
     128
 71
-236
 72
-235
 73
237
  0
VERTEX
  8
Layer0
10
0.0
 20
 0.0
 30
0.0
 70
     128
 71
-237
 72
-235
 73
-238
  0
VERTEX
  8
Layer0
10
0.0
 20
 0.0
 30
0.0
 70
     128
 71
-238
 72
-235
 73
20
  0
VERTEX
  8
Layer0
10
0.0
 20
 0.0
 30
0.0
 70
     128
 71
-20
 72
-235
 73
-15
  0
VERTEX
  8
Layer0
10
0.0
 20
 0.0
 30
0.0
 70
     128
 71
-237
 72
-238
 73
239
  0
VERTEX
  8
Layer0
10
0.0
 20
 0.0
 30
0.0
 70
     128
 71
-239
 72
-238
 73
240
  0
VERTEX
  8
Layer0
10
0.0
 20
 0.0
 30
0.0
 70
     128
 71
-240
 72
-238
 73
241
  0
VERTEX
  8
Layer0
10
0.0
 20
 0.0
 30
0.0
 70
     128
 71
-241
 72
-238
 73
242
  0
VERTEX
  8
Layer0
10
0.0
 20
 0.0
 30
0.0
 70
     128
 71
-242
 72
-238
 73
243
  0
VERTEX
  8
Layer0
10
0.0
 20
 0.0
 30
0.0
 70
     128
 71
-229
 72
236
 73
-244
  0
VERTEX
  8
Layer0
10
0.0
 20
 0.0
 30
0.0
 70
     128
 71
-229
 72
244
 73
-245
  0
VERTEX
  8
Layer0
10
0.0
 20
 0.0
 30
0.0
 70
     128
 71
-229
 72
245
 73
-246
  0
VERTEX
  8
Layer0
10
0.0
 20
 0.0
 30
0.0
 70
     128
 71
-229
 72
246
 73
-247
  0
VERTEX
  8
Layer0
10
0.0
 20
 0.0
 30
0.0
 70
     128
 71
-229
 72
247
 73
-248
  0
VERTEX
  8
Layer0
10
0.0
 20
 0.0
 30
0.0
 70
     128
 71
-229
 72
248
 73
-249
  0
VERTEX
  8
Layer0
10
0.0
 20
 0.0
 30
0.0
 70
     128
 71
-229
 72
-249
 73
-250
  0
VERTEX
  8
Layer0
10
0.0
 20
 0.0
 30
0.0
 70
     128
 71
-250
 72
-249
 73
-251
  0
VERTEX
  8
Layer0
10
0.0
 20
 0.0
 30
0.0
 70
     128
 71
-250
 72
-251
 73
252
  0
VERTEX
  8
Layer0
10
0.0
 20
 0.0
 30
0.0
 70
     128
 71
-252
 72
-251
 73
253
  0
VERTEX
  8
Layer0
10
0.0
 20
 0.0
 30
0.0
 70
     128
 71
-253
 72
251
 73
-254
  0
VERTEX
  8
Layer0
10
0.0
 20
 0.0
 30
0.0
 70
     128
 71
-253
 72
254
 73
-255
  0
VERTEX
  8
Layer0
10
0.0
 20
 0.0
 30
0.0
 70
     128
 71
-229
 72
250
 73
-256
  0
VERTEX
  8
Layer0
10
0.0
 20
 0.0
 30
0.0
 70
     128
 71
-229
 72
256
 73
-257
  0
VERTEX
  8
Layer0
10
0.0
 20
 0.0
 30
0.0
 70
     128
 71
-229
 72
257
 73
-258
  0
VERTEX
  8
Layer0
10
0.0
 20
 0.0
 30
0.0
 70
     128
 71
-229
 72
258
 73
-259
  0
VERTEX
  8
Layer0
10
0.0
 20
 0.0
 30
0.0
 70
     128
 71
-229
 72
259
 73
-260
  0
VERTEX
  8
Layer0
10
0.0
 20
 0.0
 30
0.0
 70
     128
 71
-229
 72
260
 73
-261
  0
VERTEX
  8
Layer0
10
0.0
 20
 0.0
 30
0.0
 70
     128
 71
-229
 72
261
 73
-262
  0
VERTEX
  8
Layer0
10
0.0
 20
 0.0
 30
0.0
 70
     128
 71
-229
 72
262
 73
-263
  0
VERTEX
  8
Layer0
10
0.0
 20
 0.0
 30
0.0
 70
     128
 71
-229
 72
263
 73
-264
  0
VERTEX
  8
Layer0
10
0.0
 20
 0.0
 30
0.0
 70
     128
 71
-229
 72
264
 73
-265
  0
VERTEX
  8
Layer0
10
0.0
 20
 0.0
 30
0.0
 70
     128
 71
-206
 72
266
 73
-207
  0
VERTEX
  8
Layer0
10
0.0
 20
 0.0
 30
0.0
 70
     128
 71
-266
 72
206
 73
-267
  0
VERTEX
  8
Layer0
10
0.0
 20
 0.0
 30
0.0
 70
     128
 71
-266
 72
-267
 73
268
  0
VERTEX
  8
Layer0
10
0.0
 20
 0.0
 30
0.0
 70
     128
 71
-268
 72
267
 73
-269
  0
VERTEX
  8
Layer0
10
0.0
 20
 0.0
 30
0.0
 70
     128
 71
-268
 72
-269
 73
270
  0
VERTEX
  8
Layer0
10
0.0
 20
 0.0
 30
0.0
 70
     128
 71
-270
 72
269
 73
-271
  0
VERTEX
  8
Layer0
10
0.0
 20
 0.0
 30
0.0
 70
     128
 71
-270
 72
-271
 73
272
  0
VERTEX
  8
Layer0
10
0.0
 20
 0.0
 30
0.0
 70
     128
 71
-272
 72
271
 73
-273
  0
VERTEX
  8
Layer0
10
0.0
 20
 0.0
 30
0.0
 70
     128
 71
-272
 72
-273
 73
274
  0
VERTEX
  8
Layer0
10
0.0
 20
 0.0
 30
0.0
 70
     128
 71
-274
 72
273
 73
-275
  0
VERTEX
  8
Layer0
10
0.0
 20
 0.0
 30
0.0
 70
     128
 71
-274
 72
-275
 73
276
  0
VERTEX
  8
Layer0
10
0.0
 20
 0.0
 30
0.0
 70
     128
 71
-276
 72
275
 73
-277
  0
VERTEX
  8
Layer0
10
0.0
 20
 0.0
 30
0.0
 70
     128
 71
-276
 72
-277
 73
278
  0
VERTEX
  8
Layer0
10
0.0
 20
 0.0
 30
0.0
 70
     128
 71
-278
 72
277
 73
-279
  0
VERTEX
  8
Layer0
10
0.0
 20
 0.0
 30
0.0
 70
     128
 71
-278
 72
-279
 73
280
  0
VERTEX
  8
Layer0
10
0.0
 20
 0.0
 30
0.0
 70
     128
 71
-280
 72
279
 73
-281
  0
VERTEX
  8
Layer0
10
0.0
 20
 0.0
 30
0.0
 70
     128
 71
-280
 72
-281
 73
282
  0
VERTEX
  8
Layer0
10
0.0
 20
 0.0
 30
0.0
 70
     128
 71
-282
 72
281
 73
-283
  0
VERTEX
  8
Layer0
10
0.0
 20
 0.0
 30
0.0
 70
     128
 71
-282
 72
-283
 73
284
  0
VERTEX
  8
Layer0
10
0.0
 20
 0.0
 30
0.0
 70
     128
 71
-284
 72
283
 73
-285
  0
VERTEX
  8
Layer0
10
0.0
 20
 0.0
 30
0.0
 70
     128
 71
-284
 72
-285
 73
286
  0
VERTEX
  8
Layer0
10
0.0
 20
 0.0
 30
0.0
 70
     128
 71
-286
 72
285
 73
-287
  0
VERTEX
  8
Layer0
10
0.0
 20
 0.0
 30
0.0
 70
     128
 71
-286
 72
-287
 73
288
  0
VERTEX
  8
Layer0
10
0.0
 20
 0.0
 30
0.0
 70
     128
 71
-288
 72
287
 73
-289
  0
VERTEX
  8
Layer0
10
0.0
 20
 0.0
 30
0.0
 70
     128
 71
-208
 72
290
 73
-206
  0
VERTEX
  8
Layer0
10
0.0
 20
 0.0
 30
0.0
 70
     128
 71
-290
 72
208
 73
-291
  0
VERTEX
  8
Layer0
10
0.0
 20
 0.0
 30
0.0
 70
     128
 71
-290
 72
-291
 73
292
  0
VERTEX
  8
Layer0
10
0.0
 20
 0.0
 30
0.0
 70
     128
 71
-292
 72
291
 73
-293
  0
VERTEX
  8
Layer0
10
0.0
 20
 0.0
 30
0.0
 70
     128
 71
-292
 72
-293
 73
294
  0
VERTEX
  8
Layer0
10
0.0
 20
 0.0
 30
0.0
 70
     128
 71
-294
 72
293
 73
-295
  0
VERTEX
  8
Layer0
10
0.0
 20
 0.0
 30
0.0
 70
     128
 71
-294
 72
-295
 73
296
  0
VERTEX
  8
Layer0
10
0.0
 20
 0.0
 30
0.0
 70
     128
 71
-296
 72
295
 73
-297
  0
VERTEX
  8
Layer0
10
0.0
 20
 0.0
 30
0.0
 70
     128
 71
-296
 72
-297
 73
298
  0
VERTEX
  8
Layer0
10
0.0
 20
 0.0
 30
0.0
 70
     128
 71
-298
 72
297
 73
-299
  0
VERTEX
  8
Layer0
10
0.0
 20
 0.0
 30
0.0
 70
     128
 71
-298
 72
-299
 73
300
  0
VERTEX
  8
Layer0
10
0.0
 20
 0.0
 30
0.0
 70
     128
 71
-300
 72
299
 73
-301
  0
VERTEX
  8
Layer0
10
0.0
 20
 0.0
 30
0.0
 70
     128
 71
-300
 72
-301
 73
302
  0
VERTEX
  8
Layer0
10
0.0
 20
 0.0
 30
0.0
 70
     128
 71
-302
 72
301
 73
-303
  0
VERTEX
  8
Layer0
10
0.0
 20
 0.0
 30
0.0
 70
     128
 71
-302
 72
-303
 73
304
  0
VERTEX
  8
Layer0
10
0.0
 20
 0.0
 30
0.0
 70
     128
 71
-304
 72
303
 73
-305
  0
VERTEX
  8
Layer0
10
0.0
 20
 0.0
 30
0.0
 70
     128
 71
-304
 72
-305
 73
306
  0
VERTEX
  8
Layer0
10
0.0
 20
 0.0
 30
0.0
 70
     128
 71
-306
 72
305
 73
-307
  0
VERTEX
  8
Layer0
10
0.0
 20
 0.0
 30
0.0
 70
     128
 71
-306
 72
-307
 73
308
  0
VERTEX
  8
Layer0
10
0.0
 20
 0.0
 30
0.0
 70
     128
 71
-308
 72
307
 73
-309
  0
VERTEX
  8
Layer0
10
0.0
 20
 0.0
 30
0.0
 70
     128
 71
-308
 72
-309
 73
310
  0
VERTEX
  8
Layer0
10
0.0
 20
 0.0
 30
0.0
 70
     128
 71
-310
 72
309
 73
-311
  0
VERTEX
  8
Layer0
10
0.0
 20
 0.0
 30
0.0
 70
     128
 71
-310
 72
-311
 73
289
  0
VERTEX
  8
Layer0
10
0.0
 20
 0.0
 30
0.0
 70
     128
 71
-289
 72
311
 73
-220
  0
VERTEX
  8
Layer0
10
0.0
 20
 0.0
 30
0.0
 70
     128
 71
-312
 72
-222
 73
3
  0
VERTEX
  8
Layer0
10
0.0
 20
 0.0
 30
0.0
 70
     128
 71
-222
 72
-312
 73
313
  0
VERTEX
  8
Layer0
10
0.0
 20
 0.0
 30
0.0
 70
     128
 71
-313
 72
312
 73
-314
  0
VERTEX
  8
Layer0
10
0.0
 20
 0.0
 30
0.0
 70
     128
 71
-313
 72
-314
 73
315
  0
VERTEX
  8
Layer0
10
0.0
 20
 0.0
 30
0.0
 70
     128
 71
-315
 72
314
 73
-316
  0
VERTEX
  8
Layer0
10
0.0
 20
 0.0
 30
0.0
 70
     128
 71
-315
 72
-316
 73
317
  0
VERTEX
  8
Layer0
10
0.0
 20
 0.0
 30
0.0
 70
     128
 71
-317
 72
316
 73
-318
  0
VERTEX
  8
Layer0
10
0.0
 20
 0.0
 30
0.0
 70
     128
 71
-317
 72
-318
 73
319
  0
VERTEX
  8
Layer0
10
0.0
 20
 0.0
 30
0.0
 70
     128
 71
-319
 72
-318
 73
320
  0
VERTEX
  8
Layer0
10
0.0
 20
 0.0
 30
0.0
 70
     128
 71
-320
 72
318
 73
-321
  0
VERTEX
  8
Layer0
10
0.0
 20
 0.0
 30
0.0
 70
     128
 71
-320
 72
-321
 73
322
  0
VERTEX
  8
Layer0
10
0.0
 20
 0.0
 30
0.0
 70
     128
 71
-322
 72
321
 73
-323
  0
VERTEX
  8
Layer0
10
0.0
 20
 0.0
 30
0.0
 70
     128
 71
-322
 72
-323
 73
324
  0
VERTEX
  8
Layer0
10
0.0
 20
 0.0
 30
0.0
 70
     128
 71
-324
 72
323
 73
-325
  0
VERTEX
  8
Layer0
10
0.0
 20
 0.0
 30
0.0
 70
     128
 71
-324
 72
-325
 73
326
  0
VERTEX
  8
Layer0
10
0.0
 20
 0.0
 30
0.0
 70
     128
 71
-326
 72
325
 73
-327
  0
VERTEX
  8
Layer0
10
0.0
 20
 0.0
 30
0.0
 70
     128
 71
-326
 72
-327
 73
328
  0
VERTEX
  8
Layer0
10
0.0
 20
 0.0
 30
0.0
 70
     128
 71
-328
 72
327
 73
-329
  0
VERTEX
  8
Layer0
10
0.0
 20
 0.0
 30
0.0
 70
     128
 71
-328
 72
-329
 73
330
  0
VERTEX
  8
Layer0
10
0.0
 20
 0.0
 30
0.0
 70
     128
 71
-330
 72
329
 73
-331
  0
VERTEX
  8
Layer0
10
0.0
 20
 0.0
 30
0.0
 70
     128
 71
-330
 72
-331
 73
332
  0
VERTEX
  8
Layer0
10
0.0
 20
 0.0
 30
0.0
 70
     128
 71
-332
 72
331
 73
-333
  0
VERTEX
  8
Layer0
10
0.0
 20
 0.0
 30
0.0
 70
     128
 71
-332
 72
-333
 73
334
  0
VERTEX
  8
Layer0
10
0.0
 20
 0.0
 30
0.0
 70
     128
 71
-334
 72
333
 73
-15
  0
VERTEX
  8
Layer0
10
0.0
 20
 0.0
 30
0.0
 70
     128
 71
-334
 72
-15
 73
335
  0
VERTEX
  8
Layer0
10
0.0
 20
 0.0
 30
0.0
 70
     128
 71
-335
 72
-15
 73
235
  0
VERTEX
  8
Layer0
10
0.0
 20
 0.0
 30
0.0
 70
     128
 71
-336
 72
-337
 73
221
  0
VERTEX
  8
Layer0
10
0.0
 20
 0.0
 30
0.0
 70
     128
 71
-337
 72
-336
 73
338
  0
VERTEX
  8
Layer0
10
0.0
 20
 0.0
 30
0.0
 70
     128
 71
-338
 72
-336
 73
207
  0
VERTEX
  8
Layer0
10
0.0
 20
 0.0
 30
0.0
 70
     128
 71
-207
 72
336
 73
-205
  0
VERTEX
  8
Layer0
10
0.0
 20
 0.0
 30
0.0
 70
     128
 71
-221
 72
337
 73
-339
  0
VERTEX
  8
Layer0
10
0.0
 20
 0.0
 30
0.0
 70
     128
 71
-221
 72
339
 73
-340
  0
VERTEX
  8
Layer0
10
0.0
 20
 0.0
 30
0.0
 70
     128
 71
-221
 72
340
 73
-341
  0
VERTEX
  8
Layer0
10
0.0
 20
 0.0
 30
0.0
 70
     128
 71
-221
 72
341
 73
-342
  0
VERTEX
  8
Layer0
10
0.0
 20
 0.0
 30
0.0
 70
     128
 71
-221
 72
342
 73
-343
  0
VERTEX
  8
Layer0
10
0.0
 20
 0.0
 30
0.0
 70
     128
 71
-221
 72
343
 73
-344
  0
VERTEX
  8
Layer0
10
0.0
 20
 0.0
 30
0.0
 70
     128
 71
-221
 72
344
 73
-345
  0
VERTEX
  8
Layer0
10
0.0
 20
 0.0
 30
0.0
 70
     128
 71
-221
 72
345
 73
-346
  0
VERTEX
  8
Layer0
10
0.0
 20
 0.0
 30
0.0
 70
     128
 71
-221
 72
346
 73
-347
  0
VERTEX
  8
Layer0
10
0.0
 20
 0.0
 30
0.0
 70
     128
 71
-221
 72
347
 73
-288
  0
VERTEX
  8
Layer0
10
0.0
 20
 0.0
 30
0.0
 70
     128
 71
-221
 72
-288
 73
-289
  0
VERTEX
  8
Layer0
10
0.0
 20
 0.0
 30
0.0
 70
     128
 71
-221
 72
-289
 73
-220
  0
VERTEX
  8
Layer0
10
0.0
 20
 0.0
 30
0.0
 70
     128
 71
-238
 72
348
 73
-243
  0
VERTEX
  8
Layer0
10
0.0
 20
 0.0
 30
0.0
 70
     128
 71
-348
 72
-238
 73
349
  0
VERTEX
  8
Layer0
10
0.0
 20
 0.0
 30
0.0
 70
     128
 71
-349
 72
-238
 73
350
  0
VERTEX
  8
Layer0
10
0.0
 20
 0.0
 30
0.0
 70
     128
 71
-350
 72
-238
 73
351
  0
VERTEX
  8
Layer0
10
0.0
 20
 0.0
 30
0.0
 70
     128
 71
-351
 72
-238
 73
352
  0
VERTEX
  8
Layer0
10
0.0
 20
 0.0
 30
0.0
 70
     128
 71
-352
 72
238
 73
-251
  0
VERTEX
  8
Layer0
10
0.0
 20
 0.0
 30
0.0
 70
     128
 71
-352
 72
-251
 73
353
  0
VERTEX
  8
Layer0
10
0.0
 20
 0.0
 30
0.0
 70
     128
 71
-353
 72
-251
 73
354
  0
VERTEX
  8
Layer0
10
0.0
 20
 0.0
 30
0.0
 70
     128
 71
-354
 72
-251
 73
355
  0
VERTEX
  8
Layer0
10
0.0
 20
 0.0
 30
0.0
 70
     128
 71
-355
 72
-251
 73
356
  0
VERTEX
  8
Layer0
10
0.0
 20
 0.0
 30
0.0
 70
     128
 71
-356
 72
-251
 73
357
  0
VERTEX
  8
Layer0
10
0.0
 20
 0.0
 30
0.0
 70
     128
 71
-357
 72
-251
 73
358
  0
VERTEX
  8
Layer0
10
0.0
 20
 0.0
 30
0.0
 70
     128
 71
-358
 72
-251
 73
249
  0
VERTEX
  8
Layer0
10
0.0
 20
 0.0
 30
0.0
 70
     128
 71
-32
 72
60
 73
359
  0
VERTEX
  8
Layer0
10
0.0
 20
 0.0
 30
0.0
 70
     128
 71
-60
 72
-32
 73
-360
  0
VERTEX
  8
Layer0
10
0.0
 20
 0.0
 30
0.0
 70
     128
 71
-360
 72
-32
 73
361
  0
VERTEX
  8
Layer0
10
0.0
 20
 0.0
 30
0.0
 70
     128
 71
-361
 72
-32
 73
362
  0
VERTEX
  8
Layer0
10
0.0
 20
 0.0
 30
0.0
 70
     128
 71
-362
 72
-32
 73
-41
  0
VERTEX
  8
Layer0
10
0.0
 20
 0.0
 30
0.0
 70
     128
 71
-60
 72
360
 73
-363
  0
VERTEX
  8
Layer0
10
0.0
 20
 0.0
 30
0.0
 70
     128
 71
-60
 72
363
 73
-364
  0
VERTEX
  8
Layer0
10
0.0
 20
 0.0
 30
0.0
 70
     128
 71
-60
 72
364
 73
-365
  0
VERTEX
  8
Layer0
10
0.0
 20
 0.0
 30
0.0
 70
     128
 71
-60
 72
365
 73
-366
  0
VERTEX
  8
Layer0
10
0.0
 20
 0.0
 30
0.0
 70
     128
 71
-60
 72
366
 73
-367
  0
VERTEX
  8
Layer0
10
0.0
 20
 0.0
 30
0.0
 70
     128
 71
-60
 72
367
 73
-368
  0
VERTEX
  8
Layer0
10
0.0
 20
 0.0
 30
0.0
 70
     128
 71
-60
 72
368
 73
-369
  0
VERTEX
  8
Layer0
10
0.0
 20
 0.0
 30
0.0
 70
     128
 71
-60
 72
369
 73
-370
  0
VERTEX
  8
Layer0
10
0.0
 20
 0.0
 30
0.0
 70
     128
 71
-60
 72
370
 73
-371
  0
VERTEX
  8
Layer0
10
0.0
 20
 0.0
 30
0.0
 70
     128
 71
-60
 72
371
 73
-372
  0
VERTEX
  8
Layer0
10
0.0
 20
 0.0
 30
0.0
 70
     128
 71
-60
 72
372
 73
-373
  0
VERTEX
  8
Layer0
10
0.0
 20
 0.0
 30
0.0
 70
     128
 71
-60
 72
373
 73
-374
  0
VERTEX
  8
Layer0
10
0.0
 20
 0.0
 30
0.0
 70
     128
 71
-60
 72
374
 73
-375
  0
VERTEX
  8
Layer0
10
0.0
 20
 0.0
 30
0.0
 70
     128
 71
-60
 72
375
 73
-376
  0
VERTEX
  8
Layer0
10
0.0
 20
 0.0
 30
0.0
 70
     128
 71
-60
 72
376
 73
-377
  0
VERTEX
  8
Layer0
10
0.0
 20
 0.0
 30
0.0
 70
     128
 71
-60
 72
377
 73
-378
  0
VERTEX
  8
Layer0
10
0.0
 20
 0.0
 30
0.0
 70
     128
 71
-60
 72
378
 73
-379
  0
VERTEX
  8
Layer0
10
0.0
 20
 0.0
 30
0.0
 70
     128
 71
-60
 72
379
 73
-380
  0
VERTEX
  8
Layer0
10
0.0
 20
 0.0
 30
0.0
 70
     128
 71
-60
 72
380
 73
-381
  0
VERTEX
  8
Layer0
10
0.0
 20
 0.0
 30
0.0
 70
     128
 71
-60
 72
381
 73
-382
  0
VERTEX
  8
Layer0
10
0.0
 20
 0.0
 30
0.0
 70
     128
 71
-60
 72
382
 73
-383
  0
VERTEX
  8
Layer0
10
0.0
 20
 0.0
 30
0.0
 70
     128
 71
-60
 72
383
 73
-59
  0
VERTEX
  8
Layer0
10
0.0
 20
 0.0
 30
0.0
 70
     128
 71
-384
 72
-362
 73
41
  0
VERTEX
  8
Layer0
10
0.0
 20
 0.0
 30
0.0
 70
     128
 71
-362
 72
-384
 73
385
  0
VERTEX
  8
Layer0
10
0.0
 20
 0.0
 30
0.0
 70
     128
 71
-385
 72
384
 73
-386
  0
VERTEX
  8
Layer0
10
0.0
 20
 0.0
 30
0.0
 70
     128
 71
-385
 72
-386
 73
387
  0
VERTEX
  8
Layer0
10
0.0
 20
 0.0
 30
0.0
 70
     128
 71
-387
 72
386
 73
-388
  0
VERTEX
  8
Layer0
10
0.0
 20
 0.0
 30
0.0
 70
     128
 71
-387
 72
-388
 73
389
  0
VERTEX
  8
Layer0
10
0.0
 20
 0.0
 30
0.0
 70
     128
 71
-389
 72
388
 73
-390
  0
VERTEX
  8
Layer0
10
0.0
 20
 0.0
 30
0.0
 70
     128
 71
-389
 72
-390
 73
391
  0
VERTEX
  8
Layer0
10
0.0
 20
 0.0
 30
0.0
 70
     128
 71
-391
 72
390
 73
-392
  0
VERTEX
  8
Layer0
10
0.0
 20
 0.0
 30
0.0
 70
     128
 71
-391
 72
-392
 73
393
  0
VERTEX
  8
Layer0
10
0.0
 20
 0.0
 30
0.0
 70
     128
 71
-393
 72
392
 73
-394
  0
VERTEX
  8
Layer0
10
0.0
 20
 0.0
 30
0.0
 70
     128
 71
-393
 72
-394
 73
395
  0
VERTEX
  8
Layer0
10
0.0
 20
 0.0
 30
0.0
 70
     128
 71
-395
 72
394
 73
-396
  0
VERTEX
  8
Layer0
10
0.0
 20
 0.0
 30
0.0
 70
     128
 71
-395
 72
-396
 73
397
  0
VERTEX
  8
Layer0
10
0.0
 20
 0.0
 30
0.0
 70
     128
 71
-397
 72
396
 73
-398
  0
VERTEX
  8
Layer0
10
0.0
 20
 0.0
 30
0.0
 70
     128
 71
-397
 72
-398
 73
399
  0
VERTEX
  8
Layer0
10
0.0
 20
 0.0
 30
0.0
 70
     128
 71
-399
 72
398
 73
-400
  0
VERTEX
  8
Layer0
10
0.0
 20
 0.0
 30
0.0
 70
     128
 71
-399
 72
-400
 73
401
  0
VERTEX
  8
Layer0
10
0.0
 20
 0.0
 30
0.0
 70
     128
 71
-401
 72
400
 73
-402
  0
VERTEX
  8
Layer0
10
0.0
 20
 0.0
 30
0.0
 70
     128
 71
-401
 72
-402
 73
403
  0
VERTEX
  8
Layer0
10
0.0
 20
 0.0
 30
0.0
 70
     128
 71
-403
 72
402
 73
-404
  0
VERTEX
  8
Layer0
10
0.0
 20
 0.0
 30
0.0
 70
     128
 71
-403
 72
-404
 73
405
  0
VERTEX
  8
Layer0
10
0.0
 20
 0.0
 30
0.0
 70
     128
 71
-405
 72
404
 73
-406
  0
VERTEX
  8
Layer0
10
0.0
 20
 0.0
 30
0.0
 70
     128
 71
-405
 72
-406
 73
407
  0
VERTEX
  8
Layer0
10
0.0
 20
 0.0
 30
0.0
 70
     128
 71
-407
 72
406
 73
-408
  0
VERTEX
  8
Layer0
10
0.0
 20
 0.0
 30
0.0
 70
     128
 71
-407
 72
-408
 73
409
  0
VERTEX
  8
Layer0
10
0.0
 20
 0.0
 30
0.0
 70
     128
 71
-409
 72
408
 73
-410
  0
VERTEX
  8
Layer0
10
0.0
 20
 0.0
 30
0.0
 70
     128
 71
-409
 72
-410
 73
411
  0
VERTEX
  8
Layer0
10
0.0
 20
 0.0
 30
0.0
 70
     128
 71
-411
 72
410
 73
-412
  0
VERTEX
  8
Layer0
10
0.0
 20
 0.0
 30
0.0
 70
     128
 71
-411
 72
-412
 73
413
  0
VERTEX
  8
Layer0
10
0.0
 20
 0.0
 30
0.0
 70
     128
 71
-413
 72
412
 73
-414
  0
VERTEX
  8
Layer0
10
0.0
 20
 0.0
 30
0.0
 70
     128
 71
-413
 72
-414
 73
415
  0
VERTEX
  8
Layer0
10
0.0
 20
 0.0
 30
0.0
 70
     128
 71
-415
 72
414
 73
-416
  0
VERTEX
  8
Layer0
10
0.0
 20
 0.0
 30
0.0
 70
     128
 71
-415
 72
-416
 73
417
  0
VERTEX
  8
Layer0
10
0.0
 20
 0.0
 30
0.0
 70
     128
 71
-417
 72
416
 73
-418
  0
VERTEX
  8
Layer0
10
0.0
 20
 0.0
 30
0.0
 70
     128
 71
-417
 72
-418
 73
419
  0
VERTEX
  8
Layer0
10
0.0
 20
 0.0
 30
0.0
 70
     128
 71
-419
 72
418
 73
-420
  0
VERTEX
  8
Layer0
10
0.0
 20
 0.0
 30
0.0
 70
     128
 71
-419
 72
-420
 73
421
  0
VERTEX
  8
Layer0
10
0.0
 20
 0.0
 30
0.0
 70
     128
 71
-421
 72
420
 73
-422
  0
VERTEX
  8
Layer0
10
0.0
 20
 0.0
 30
0.0
 70
     128
 71
-421
 72
-422
 73
423
  0
VERTEX
  8
Layer0
10
0.0
 20
 0.0
 30
0.0
 70
     128
 71
-423
 72
422
 73
-424
  0
VERTEX
  8
Layer0
10
0.0
 20
 0.0
 30
0.0
 70
     128
 71
-423
 72
-424
 73
425
  0
VERTEX
  8
Layer0
10
0.0
 20
 0.0
 30
0.0
 70
     128
 71
-425
 72
424
 73
-426
  0
VERTEX
  8
Layer0
10
0.0
 20
 0.0
 30
0.0
 70
     128
 71
-425
 72
-426
 73
427
  0
VERTEX
  8
Layer0
10
0.0
 20
 0.0
 30
0.0
 70
     128
 71
-427
 72
426
 73
-428
  0
VERTEX
  8
Layer0
10
0.0
 20
 0.0
 30
0.0
 70
     128
 71
-427
 72
-428
 73
429
  0
VERTEX
  8
Layer0
10
0.0
 20
 0.0
 30
0.0
 70
     128
 71
-429
 72
428
 73
-57
  0
VERTEX
  8
Layer0
10
0.0
 20
 0.0
 30
0.0
 70
     128
 71
-429
 72
-57
 73
59
  0
VERTEX
  8
Layer0
10
0.0
 20
 0.0
 30
0.0
 70
     128
 71
-18
 72
-430
 73
32
  0
VERTEX
  8
Layer0
10
0.0
 20
 0.0
 30
0.0
 70
     128
 71
-430
 72
-18
 73
431
  0
VERTEX
  8
Layer0
10
0.0
 20
 0.0
 30
0.0
 70
     128
 71
-431
 72
-18
 73
432
  0
VERTEX
  8
Layer0
10
0.0
 20
 0.0
 30
0.0
 70
     128
 71
-432
 72
-18
 73
433
  0
VERTEX
  8
Layer0
10
0.0
 20
 0.0
 30
0.0
 70
     128
 71
-433
 72
-18
 73
434
  0
VERTEX
  8
Layer0
10
0.0
 20
 0.0
 30
0.0
 70
     128
 71
-434
 72
-18
 73
25
  0
VERTEX
  8
Layer0
10
0.0
 20
 0.0
 30
0.0
 70
     128
 71
-32
 72
430
 73
-435
  0
VERTEX
  8
Layer0
10
0.0
 20
 0.0
 30
0.0
 70
     128
 71
-32
 72
435
 73
-436
  0
VERTEX
  8
Layer0
10
0.0
 20
 0.0
 30
0.0
 70
     128
 71
-32
 72
436
 73
-437
  0
VERTEX
  8
Layer0
10
0.0
 20
 0.0
 30
0.0
 70
     128
 71
-32
 72
437
 73
-438
  0
VERTEX
  8
Layer0
10
0.0
 20
 0.0
 30
0.0
 70
     128
 71
-32
 72
438
 73
-439
  0
VERTEX
  8
Layer0
10
0.0
 20
 0.0
 30
0.0
 70
     128
 71
-32
 72
439
 73
-440
  0
VERTEX
  8
Layer0
10
0.0
 20
 0.0
 30
0.0
 70
     128
 71
-32
 72
440
 73
-31
  0
VERTEX
  8
Layer0
10
0.0
 20
 0.0
 30
0.0
 70
     128
 71
-441
 72
442
 73
-443
  0
VERTEX
  8
Layer0
10
0.0
 20
 0.0
 30
0.0
 70
     128
 71
-442
 72
441
 73
-444
  0
VERTEX
  8
Layer0
10
0.0
 20
 0.0
 30
0.0
 70
     128
 71
-442
 72
-444
 73
445
  0
VERTEX
  8
Layer0
10
0.0
 20
 0.0
 30
0.0
 70
     128
 71
-445
 72
444
 73
-446
  0
VERTEX
  8
Layer0
10
0.0
 20
 0.0
 30
0.0
 70
     128
 71
-445
 72
-446
 73
447
  0
VERTEX
  8
Layer0
10
0.0
 20
 0.0
 30
0.0
 70
     128
 71
-447
 72
446
 73
-448
  0
VERTEX
  8
Layer0
10
0.0
 20
 0.0
 30
0.0
 70
     128
 71
-447
 72
-448
 73
449
  0
VERTEX
  8
Layer0
10
0.0
 20
 0.0
 30
0.0
 70
     128
 71
-449
 72
448
 73
-450
  0
VERTEX
  8
Layer0
10
0.0
 20
 0.0
 30
0.0
 70
     128
 71
-449
 72
-450
 73
451
  0
VERTEX
  8
Layer0
10
0.0
 20
 0.0
 30
0.0
 70
     128
 71
-451
 72
450
 73
-452
  0
VERTEX
  8
Layer0
10
0.0
 20
 0.0
 30
0.0
 70
     128
 71
-451
 72
-452
 73
453
  0
VERTEX
  8
Layer0
10
0.0
 20
 0.0
 30
0.0
 70
     128
 71
-453
 72
452
 73
-454
  0
VERTEX
  8
Layer0
10
0.0
 20
 0.0
 30
0.0
 70
     128
 71
-453
 72
-454
 73
455
  0
VERTEX
  8
Layer0
10
0.0
 20
 0.0
 30
0.0
 70
     128
 71
-455
 72
454
 73
-456
  0
VERTEX
  8
Layer0
10
0.0
 20
 0.0
 30
0.0
 70
     128
 71
-455
 72
-456
 73
457
  0
VERTEX
  8
Layer0
10
0.0
 20
 0.0
 30
0.0
 70
     128
 71
-457
 72
456
 73
-458
  0
VERTEX
  8
Layer0
10
0.0
 20
 0.0
 30
0.0
 70
     128
 71
-457
 72
-458
 73
459
  0
VERTEX
  8
Layer0
10
0.0
 20
 0.0
 30
0.0
 70
     128
 71
-459
 72
458
 73
-460
  0
VERTEX
  8
Layer0
10
0.0
 20
 0.0
 30
0.0
 70
     128
 71
-459
 72
-460
 73
461
  0
VERTEX
  8
Layer0
10
0.0
 20
 0.0
 30
0.0
 70
     128
 71
-461
 72
460
 73
-462
  0
VERTEX
  8
Layer0
10
0.0
 20
 0.0
 30
0.0
 70
     128
 71
-461
 72
-462
 73
463
  0
VERTEX
  8
Layer0
10
0.0
 20
 0.0
 30
0.0
 70
     128
 71
-463
 72
462
 73
-464
  0
VERTEX
  8
Layer0
10
0.0
 20
 0.0
 30
0.0
 70
     128
 71
-463
 72
-464
 73
465
  0
VERTEX
  8
Layer0
10
0.0
 20
 0.0
 30
0.0
 70
     128
 71
-465
 72
464
 73
-466
  0
VERTEX
  8
Layer0
10
0.0
 20
 0.0
 30
0.0
 70
     128
 71
-467
 72
468
 73
-441
  0
VERTEX
  8
Layer0
10
0.0
 20
 0.0
 30
0.0
 70
     128
 71
-468
 72
467
 73
-469
  0
VERTEX
  8
Layer0
10
0.0
 20
 0.0
 30
0.0
 70
     128
 71
-468
 72
-469
 73
470
  0
VERTEX
  8
Layer0
10
0.0
 20
 0.0
 30
0.0
 70
     128
 71
-470
 72
469
 73
-471
  0
VERTEX
  8
Layer0
10
0.0
 20
 0.0
 30
0.0
 70
     128
 71
-470
 72
-471
 73
472
  0
VERTEX
  8
Layer0
10
0.0
 20
 0.0
 30
0.0
 70
     128
 71
-472
 72
471
 73
-473
  0
VERTEX
  8
Layer0
10
0.0
 20
 0.0
 30
0.0
 70
     128
 71
-472
 72
-473
 73
474
  0
VERTEX
  8
Layer0
10
0.0
 20
 0.0
 30
0.0
 70
     128
 71
-474
 72
473
 73
-475
  0
VERTEX
  8
Layer0
10
0.0
 20
 0.0
 30
0.0
 70
     128
 71
-474
 72
-475
 73
476
  0
VERTEX
  8
Layer0
10
0.0
 20
 0.0
 30
0.0
 70
     128
 71
-476
 72
475
 73
-477
  0
VERTEX
  8
Layer0
10
0.0
 20
 0.0
 30
0.0
 70
     128
 71
-476
 72
-477
 73
478
  0
VERTEX
  8
Layer0
10
0.0
 20
 0.0
 30
0.0
 70
     128
 71
-478
 72
477
 73
-479
  0
VERTEX
  8
Layer0
10
0.0
 20
 0.0
 30
0.0
 70
     128
 71
-478
 72
-479
 73
480
  0
VERTEX
  8
Layer0
10
0.0
 20
 0.0
 30
0.0
 70
     128
 71
-480
 72
479
 73
-481
  0
VERTEX
  8
Layer0
10
0.0
 20
 0.0
 30
0.0
 70
     128
 71
-480
 72
-481
 73
482
  0
VERTEX
  8
Layer0
10
0.0
 20
 0.0
 30
0.0
 70
     128
 71
-482
 72
481
 73
-483
  0
VERTEX
  8
Layer0
10
0.0
 20
 0.0
 30
0.0
 70
     128
 71
-482
 72
-483
 73
484
  0
VERTEX
  8
Layer0
10
0.0
 20
 0.0
 30
0.0
 70
     128
 71
-484
 72
483
 73
-485
  0
VERTEX
  8
Layer0
10
0.0
 20
 0.0
 30
0.0
 70
     128
 71
-484
 72
-485
 73
486
  0
VERTEX
  8
Layer0
10
0.0
 20
 0.0
 30
0.0
 70
     128
 71
-486
 72
485
 73
-487
  0
VERTEX
  8
Layer0
10
0.0
 20
 0.0
 30
0.0
 70
     128
 71
-486
 72
-487
 73
488
  0
VERTEX
  8
Layer0
10
0.0
 20
 0.0
 30
0.0
 70
     128
 71
-488
 72
487
 73
-489
  0
VERTEX
  8
Layer0
10
0.0
 20
 0.0
 30
0.0
 70
     128
 71
-488
 72
-489
 73
466
  0
VERTEX
  8
Layer0
10
0.0
 20
 0.0
 30
0.0
 70
     128
 71
-466
 72
489
 73
-490
  0
VERTEX
  8
Layer0
10
0.0
 20
 0.0
 30
0.0
 70
     128
 71
-9
 72
491
 73
-139
  0
VERTEX
  8
Layer0
10
0.0
 20
 0.0
 30
0.0
 70
     128
 71
-491
 72
-9
 73
492
  0
VERTEX
  8
Layer0
10
0.0
 20
 0.0
 30
0.0
 70
     128
 71
-492
 72
-9
 73
493
  0
VERTEX
  8
Layer0
10
0.0
 20
 0.0
 30
0.0
 70
     128
 71
-493
 72
-9
 73
494
  0
VERTEX
  8
Layer0
10
0.0
 20
 0.0
 30
0.0
 70
     128
 71
-494
 72
-9
 73
495
  0
VERTEX
  8
Layer0
10
0.0
 20
 0.0
 30
0.0
 70
     128
 71
-495
 72
-9
 73
496
  0
VERTEX
  8
Layer0
10
0.0
 20
 0.0
 30
0.0
 70
     128
 71
-496
 72
-9
 73
497
  0
VERTEX
  8
Layer0
10
0.0
 20
 0.0
 30
0.0
 70
     128
 71
-497
 72
-9
 73
498
  0
VERTEX
  8
Layer0
10
0.0
 20
 0.0
 30
0.0
 70
     128
 71
-498
 72
-9
 73
499
  0
VERTEX
  8
Layer0
10
0.0
 20
 0.0
 30
0.0
 70
     128
 71
-499
 72
-9
 73
500
  0
VERTEX
  8
Layer0
10
0.0
 20
 0.0
 30
0.0
 70
     128
 71
-500
 72
-9
 73
501
  0
VERTEX
  8
Layer0
10
0.0
 20
 0.0
 30
0.0
 70
     128
 71
-501
 72
-9
 73
502
  0
VERTEX
  8
Layer0
10
0.0
 20
 0.0
 30
0.0
 70
     128
 71
-502
 72
-9
 73
503
  0
VERTEX
  8
Layer0
10
0.0
 20
 0.0
 30
0.0
 70
     128
 71
-503
 72
-9
 73
504
  0
VERTEX
  8
Layer0
10
0.0
 20
 0.0
 30
0.0
 70
     128
 71
-504
 72
9
 73
-505
  0
VERTEX
  8
Layer0
10
0.0
 20
 0.0
 30
0.0
 70
     128
 71
-504
 72
-505
 73
506
  0
VERTEX
  8
Layer0
10
0.0
 20
 0.0
 30
0.0
 70
     128
 71
-506
 72
-505
 73
507
  0
VERTEX
  8
Layer0
10
0.0
 20
 0.0
 30
0.0
 70
     128
 71
-507
 72
-505
 73
508
  0
VERTEX
  8
Layer0
10
0.0
 20
 0.0
 30
0.0
 70
     128
 71
-508
 72
-505
 73
509
  0
VERTEX
  8
Layer0
10
0.0
 20
 0.0
 30
0.0
 70
     128
 71
-509
 72
-505
 73
510
  0
VERTEX
  8
Layer0
10
0.0
 20
 0.0
 30
0.0
 70
     128
 71
-510
 72
-505
 73
511
  0
VERTEX
  8
Layer0
10
0.0
 20
 0.0
 30
0.0
 70
     128
 71
-511
 72
-505
 73
512
  0
VERTEX
  8
Layer0
10
0.0
 20
 0.0
 30
0.0
 70
     128
 71
-512
 72
-505
 73
513
  0
VERTEX
  8
Layer0
10
0.0
 20
 0.0
 30
0.0
 70
     128
 71
-513
 72
-505
 73
514
  0
VERTEX
  8
Layer0
10
0.0
 20
 0.0
 30
0.0
 70
     128
 71
-514
 72
-505
 73
515
  0
VERTEX
  8
Layer0
10
0.0
 20
 0.0
 30
0.0
 70
     128
 71
-515
 72
-505
 73
-516
  0
VERTEX
  8
Layer0
10
0.0
 20
 0.0
 30
0.0
 70
     128
 71
-515
 72
516
 73
-517
  0
VERTEX
  8
Layer0
10
0.0
 20
 0.0
 30
0.0
 70
     128
 71
-515
 72
517
 73
-518
  0
VERTEX
  8
Layer0
10
0.0
 20
 0.0
 30
0.0
 70
     128
 71
-515
 72
518
 73
-519
  0
VERTEX
  8
Layer0
10
0.0
 20
 0.0
 30
0.0
 70
     128
 71
-515
 72
519
 73
-520
  0
VERTEX
  8
Layer0
10
0.0
 20
 0.0
 30
0.0
 70
     128
 71
-515
 72
520
 73
-521
  0
VERTEX
  8
Layer0
10
0.0
 20
 0.0
 30
0.0
 70
     128
 71
-515
 72
521
 73
-522
  0
VERTEX
  8
Layer0
10
0.0
 20
 0.0
 30
0.0
 70
     128
 71
-515
 72
522
 73
-523
  0
VERTEX
  8
Layer0
10
0.0
 20
 0.0
 30
0.0
 70
     128
 71
-515
 72
523
 73
-524
  0
VERTEX
  8
Layer0
10
0.0
 20
 0.0
 30
0.0
 70
     128
 71
-515
 72
524
 73
-525
  0
VERTEX
  8
Layer0
10
0.0
 20
 0.0
 30
0.0
 70
     128
 71
-515
 72
525
 73
-526
  0
VERTEX
  8
Layer0
10
0.0
 20
 0.0
 30
0.0
 70
     128
 71
-515
 72
526
 73
-157
  0
VERTEX
  8
Layer0
10
0.0
 20
 0.0
 30
0.0
 70
     128
 71
-516
 72
-505
 73
527
  0
VERTEX
  8
Layer0
10
0.0
 20
 0.0
 30
0.0
 70
     128
 71
-527
 72
-505
 73
528
  0
VERTEX
  8
Layer0
10
0.0
 20
 0.0
 30
0.0
 70
     128
 71
-528
 72
-505
 73
529
  0
VERTEX
  8
Layer0
10
0.0
 20
 0.0
 30
0.0
 70
     128
 71
-529
 72
-505
 73
530
  0
VERTEX
  8
Layer0
10
0.0
 20
 0.0
 30
0.0
 70
     128
 71
-530
 72
-505
 73
531
  0
VERTEX
  8
Layer0
10
0.0
 20
 0.0
 30
0.0
 70
     128
 71
-531
 72
-505
 73
-532
  0
VERTEX
  8
Layer0
10
0.0
 20
 0.0
 30
0.0
 70
     128
 71
-531
 72
-532
 73
533
  0
VERTEX
  8
Layer0
10
0.0
 20
 0.0
 30
0.0
 70
     128
 71
-533
 72
-532
 73
534
  0
VERTEX
  8
Layer0
10
0.0
 20
 0.0
 30
0.0
 70
     128
 71
-534
 72
-532
 73
535
  0
VERTEX
  8
Layer0
10
0.0
 20
 0.0
 30
0.0
 70
     128
 71
-535
 72
-532
 73
536
  0
VERTEX
  8
Layer0
10
0.0
 20
 0.0
 30
0.0
 70
     128
 71
-536
 72
-532
 73
537
  0
VERTEX
  8
Layer0
10
0.0
 20
 0.0
 30
0.0
 70
     128
 71
-537
 72
-532
 73
538
  0
VERTEX
  8
Layer0
10
0.0
 20
 0.0
 30
0.0
 70
     128
 71
-538
 72
-532
 73
539
  0
VERTEX
  8
Layer0
10
0.0
 20
 0.0
 30
0.0
 70
     128
 71
-539
 72
-532
 73
203
  0
VERTEX
  8
Layer0
10
0.0
 20
 0.0
 30
0.0
 70
     128
 71
-203
 72
532
 73
-540
  0
VERTEX
  8
Layer0
10
0.0
 20
 0.0
 30
0.0
 70
     128
 71
-203
 72
540
 73
-541
  0
VERTEX
  8
Layer0
10
0.0
 20
 0.0
 30
0.0
 70
     128
 71
-203
 72
541
 73
-542
  0
VERTEX
  8
Layer0
10
0.0
 20
 0.0
 30
0.0
 70
     128
 71
-203
 72
542
 73
-543
  0
VERTEX
  8
Layer0
10
0.0
 20
 0.0
 30
0.0
 70
     128
 71
-203
 72
-543
 73
-204
  0
VERTEX
  8
Layer0
10
0.0
 20
 0.0
 30
0.0
 70
     128
 71
-204
 72
543
 73
-467
  0
VERTEX
  8
Layer0
10
0.0
 20
 0.0
 30
0.0
 70
     128
 71
-204
 72
-467
 73
-441
  0
VERTEX
  8
Layer0
10
0.0
 20
 0.0
 30
0.0
 70
     128
 71
-204
 72
-441
 73
-443
  0
VERTEX
  8
Layer0
10
0.0
 20
 0.0
 30
0.0
 70
     128
 71
-532
 72
-505
 73
544
  0
VERTEX
  8
Layer0
10
0.0
 20
 0.0
 30
0.0
 70
     128
 71
-544
 72
-505
 73
545
  0
VERTEX
  8
Layer0
10
0.0
 20
 0.0
 30
0.0
 70
     128
 71
-545
 72
-505
 73
546
  0
VERTEX
  8
Layer0
10
0.0
 20
 0.0
 30
0.0
 70
     128
 71
-546
 72
-505
 73
547
  0
VERTEX
  8
Layer0
10
0.0
 20
 0.0
 30
0.0
 70
     128
 71
-547
 72
-505
 73
548
  0
VERTEX
  8
Layer0
10
0.0
 20
 0.0
 30
0.0
 70
     128
 71
-548
 72
-505
 73
549
  0
VERTEX
  8
Layer0
10
0.0
 20
 0.0
 30
0.0
 70
     128
 71
-549
 72
-505
 73
490
  0
VERTEX
  8
Layer0
10
0.0
 20
 0.0
 30
0.0
 70
     128
 71
-490
 72
505
 73
-550
  0
VERTEX
  8
Layer0
10
0.0
 20
 0.0
 30
0.0
 70
     128
 71
-61
 72
255
 73
-60
  0
VERTEX
  8
Layer0
10
0.0
 20
 0.0
 30
0.0
 70
     128
 71
-255
 72
61
 73
-551
  0
VERTEX
  8
Layer0
10
0.0
 20
 0.0
 30
0.0
 70
     128
 71
-255
 72
-551
 73
-253
  0
VERTEX
  8
Layer0
10
0.0
 20
 0.0
 30
0.0
 70
     128
 71
-253
 72
-551
 73
552
  0
VERTEX
  8
Layer0
10
0.0
 20
 0.0
 30
0.0
 70
     128
 71
-552
 72
-551
 73
553
  0
VERTEX
  8
Layer0
10
0.0
 20
 0.0
 30
0.0
 70
     128
 71
-553
 72
-551
 73
554
  0
VERTEX
  8
Layer0
10
0.0
 20
 0.0
 30
0.0
 70
     128
 71
-554
 72
-551
 73
555
  0
VERTEX
  8
Layer0
10
0.0
 20
 0.0
 30
0.0
 70
     128
 71
-555
 72
-551
 73
556
  0
VERTEX
  8
Layer0
10
0.0
 20
 0.0
 30
0.0
 70
     128
 71
-556
 72
-551
 73
557
  0
VERTEX
  8
Layer0
10
0.0
 20
 0.0
 30
0.0
 70
     128
 71
-557
 72
-551
 73
558
  0
VERTEX
  8
Layer0
10
0.0
 20
 0.0
 30
0.0
 70
     128
 71
-558
 72
-551
 73
559
  0
VERTEX
  8
Layer0
10
0.0
 20
 0.0
 30
0.0
 70
     128
 71
-559
 72
-551
 73
560
  0
VERTEX
  8
Layer0
10
0.0
 20
 0.0
 30
0.0
 70
     128
 71
-560
 72
-551
 73
561
  0
VERTEX
  8
Layer0
10
0.0
 20
 0.0
 30
0.0
 70
     128
 71
-561
 72
-551
 73
562
  0
VERTEX
  8
Layer0
10
0.0
 20
 0.0
 30
0.0
 70
     128
 71
-562
 72
-551
 73
265
  0
VERTEX
  8
Layer0
10
0.0
 20
 0.0
 30
0.0
 70
     128
 71
-265
 72
-551
 73
-229
  0
VERTEX
  8
Layer0
10
0.0
 20
 0.0
 30
0.0
 70
     128
 71
-229
 72
-551
 73
-443
  0
VERTEX
  8
Layer0
10
0.0
 20
 0.0
 30
0.0
 70
     128
 71
-229
 72
443
 73
-563
  0
VERTEX
  8
Layer0
10
0.0
 20
 0.0
 30
0.0
 70
     128
 71
-229
 72
563
 73
-564
  0
VERTEX
  8
Layer0
10
0.0
 20
 0.0
 30
0.0
 70
     128
 71
-229
 72
564
 73
-565
  0
VERTEX
  8
Layer0
10
0.0
 20
 0.0
 30
0.0
 70
     128
 71
-229
 72
565
 73
-566
  0
VERTEX
  8
Layer0
10
0.0
 20
 0.0
 30
0.0
 70
     128
 71
-229
 72
566
 73
-567
  0
VERTEX
  8
Layer0
10
0.0
 20
 0.0
 30
0.0
 70
     128
 71
-229
 72
-567
 73
550
  0
VERTEX
  8
Layer0
10
0.0
 20
 0.0
 30
0.0
 70
     128
 71
-443
 72
-551
 73
-568
  0
VERTEX
  8
Layer0
10
0.0
 20
 0.0
 30
0.0
 70
     128
 71
-568
 72
-551
 73
156
  0
VERTEX
  8
Layer0
10
0.0
 20
 0.0
 30
0.0
 70
     128
 71
-156
 72
551
 73
-101
  0
VERTEX
  8
Layer0
10
0.0
 20
 0.0
 30
0.0
 70
     128
 71
-156
 72
-101
 73
-154
  0
VERTEX
  8
Layer0
10
0.0
 20
 0.0
 30
0.0
 70
     128
 71
-156
 72
154
 73
-569
  0
VERTEX
  8
Layer0
10
0.0
 20
 0.0
 30
0.0
 70
     128
 71
-156
 72
569
 73
-570
  0
VERTEX
  8
Layer0
10
0.0
 20
 0.0
 30
0.0
 70
     128
 71
-156
 72
570
 73
-571
  0
VERTEX
  8
Layer0
10
0.0
 20
 0.0
 30
0.0
 70
     128
 71
-156
 72
571
 73
-572
  0
VERTEX
  8
Layer0
10
0.0
 20
 0.0
 30
0.0
 70
     128
 71
-156
 72
572
 73
-515
  0
VERTEX
  8
Layer0
10
0.0
 20
 0.0
 30
0.0
 70
     128
 71
-156
 72
-515
 73
-157
  0
VERTEX
  8
Layer0
10
0.0
 20
 0.0
 30
0.0
 70
     128
 71
-443
 72
568
 73
-573
  0
VERTEX
  8
Layer0
10
0.0
 20
 0.0
 30
0.0
 70
     128
 71
-443
 72
573
 73
-574
  0
VERTEX
  8
Layer0
10
0.0
 20
 0.0
 30
0.0
 70
     128
 71
-443
 72
574
 73
-575
  0
VERTEX
  8
Layer0
10
0.0
 20
 0.0
 30
0.0
 70
     128
 71
-443
 72
575
 73
-576
  0
VERTEX
  8
Layer0
10
0.0
 20
 0.0
 30
0.0
 70
     128
 71
-443
 72
576
 73
-577
  0
VERTEX
  8
Layer0
10
0.0
 20
 0.0
 30
0.0
 70
     128
 71
-443
 72
577
 73
-578
  0
VERTEX
  8
Layer0
10
0.0
 20
 0.0
 30
0.0
 70
     128
 71
-443
 72
578
 73
-579
  0
VERTEX
  8
Layer0
10
0.0
 20
 0.0
 30
0.0
 70
     128
 71
-443
 72
579
 73
-580
  0
VERTEX
  8
Layer0
10
0.0
 20
 0.0
 30
0.0
 70
     128
 71
-443
 72
580
 73
-581
  0
VERTEX
  8
Layer0
10
0.0
 20
 0.0
 30
0.0
 70
     128
 71
-443
 72
581
 73
-582
  0
VERTEX
  8
Layer0
10
0.0
 20
 0.0
 30
0.0
 70
     128
 71
-443
 72
582
 73
-583
  0
VERTEX
  8
Layer0
10
0.0
 20
 0.0
 30
0.0
 70
     128
 71
-443
 72
583
 73
-584
  0
VERTEX
  8
Layer0
10
0.0
 20
 0.0
 30
0.0
 70
     128
 71
-443
 72
584
 73
-585
  0
VERTEX
  8
Layer0
10
0.0
 20
 0.0
 30
0.0
 70
     128
 71
-443
 72
585
 73
-586
  0
VERTEX
  8
Layer0
10
0.0
 20
 0.0
 30
0.0
 70
     128
 71
-443
 72
586
 73
-587
  0
VERTEX
  8
Layer0
10
0.0
 20
 0.0
 30
0.0
 70
     128
 71
-443
 72
587
 73
-588
  0
VERTEX
  8
Layer0
10
0.0
 20
 0.0
 30
0.0
 70
     128
 71
-443
 72
588
 73
-589
  0
VERTEX
  8
Layer0
10
0.0
 20
 0.0
 30
0.0
 70
     128
 71
-443
 72
589
 73
-590
  0
VERTEX
  8
Layer0
10
0.0
 20
 0.0
 30
0.0
 70
     128
 71
-443
 72
590
 73
-591
  0
VERTEX
  8
Layer0
10
0.0
 20
 0.0
 30
0.0
 70
     128
 71
-443
 72
591
 73
-592
  0
VERTEX
  8
Layer0
10
0.0
 20
 0.0
 30
0.0
 70
     128
 71
-443
 72
592
 73
-593
  0
VERTEX
  8
Layer0
10
0.0
 20
 0.0
 30
0.0
 70
     128
 71
-443
 72
593
 73
-594
  0
VERTEX
  8
Layer0
10
0.0
 20
 0.0
 30
0.0
 70
     128
 71
-443
 72
594
 73
-204
  0
VERTEX
  8
Layer0
10
0.0
 20
 0.0
 30
0.0
 70
     128
 71
-550
 72
567
 73
-595
  0
VERTEX
  8
Layer0
10
0.0
 20
 0.0
 30
0.0
 70
     128
 71
-550
 72
595
 73
-596
  0
VERTEX
  8
Layer0
10
0.0
 20
 0.0
 30
0.0
 70
     128
 71
-550
 72
596
 73
-597
  0
VERTEX
  8
Layer0
10
0.0
 20
 0.0
 30
0.0
 70
     128
 71
-550
 72
597
 73
-598
  0
VERTEX
  8
Layer0
10
0.0
 20
 0.0
 30
0.0
 70
     128
 71
-550
 72
598
 73
-599
  0
VERTEX
  8
Layer0
10
0.0
 20
 0.0
 30
0.0
 70
     128
 71
-550
 72
599
 73
-600
  0
VERTEX
  8
Layer0
10
0.0
 20
 0.0
 30
0.0
 70
     128
 71
-550
 72
600
 73
-465
  0
VERTEX
  8
Layer0
10
0.0
 20
 0.0
 30
0.0
 70
     128
 71
-550
 72
-465
 73
-466
  0
VERTEX
  8
Layer0
10
0.0
 20
 0.0
 30
0.0
 70
     128
 71
-550
 72
-466
 73
-490
  0
SEQEND
 0
ENDSEC
 0
EOF
