 0
SECTION
 2
ENTITIES
  0
POLYLINE
 8
Layer0
 66
     1
10
0.0
 20
 0.0
 30
0.0
70
    64
71
942
72
   1
  0
VERTEX
  8
Layer0
10
452.0000033208081
20
336.19467720860627
30
136.9874984154966
 70
     192
  0
VERTEX
  8
Layer0
10
452.00000332080765
20
349.8645501896838
30
136.9874984154966
 70
     192
  0
VERTEX
  8
Layer0
10
450.9644694148752
20
335.40008409561693
30
136.9874984154966
 70
     192
  0
VERTEX
  8
Layer0
10
452.0213911673731
20
349.5382347091335
30
136.9874984154966
 70
     192
  0
VERTEX
  8
Layer0
10
453.2059080952955
20
336.6941793211292
30
136.9874984154966
 70
     192
  0
VERTEX
  8
Layer0
10
452.0851887550851
20
349.21750257692713
30
136.9874984154966
 70
     192
  0
VERTEX
  8
Layer0
10
452.1903044895296
20
348.9078416087704
30
136.9874984154966
 70
     192
  0
VERTEX
  8
Layer0
10
452.3349398113475
20
348.61455018968303
30
136.9874984154966
 70
     192
  0
VERTEX
  8
Layer0
10
452.5166199700798
20
348.34264661716094
30
136.9874984154966
 70
     192
  0
VERTEX
  8
Layer0
10
452.7322363678416
20
348.0967832367162
30
136.9874984154966
 70
     192
  0
VERTEX
  8
Layer0
10
452.9780997482863
20
347.8811668389543
30
136.9874984154966
 70
     192
  0
VERTEX
  8
Layer0
10
453.2500033208089
20
347.6994866802212
30
136.9874984154966
 70
     192
  0
VERTEX
  8
Layer0
10
454.5000033208078
20
336.86455018968365
30
136.9874984154966
 70
     192
  0
VERTEX
  8
Layer0
10
453.54329473989577
20
347.5548513584039
30
136.9874984154966
 70
     192
  0
VERTEX
  8
Layer0
10
453.85295570805255
20
347.4497356239593
30
136.9874984154966
 70
     192
  0
VERTEX
  8
Layer0
10
454.17368784025894
20
347.3859380362476
30
136.9874984154966
 70
     192
  0
VERTEX
  8
Layer0
10
454.5000033208092
20
347.3645501896819
30
136.9874984154966
 70
     192
  0
VERTEX
  8
Layer0
10
455.7940985463207
20
336.69417932112907
30
136.9874984154966
 70
     192
  0
VERTEX
  8
Layer0
10
454.8263188013596
20
347.38593803624724
30
136.9874984154966
 70
     192
  0
VERTEX
  8
Layer0
10
455.147050933566
20
347.4497356239592
30
136.9874984154966
 70
     192
  0
VERTEX
  8
Layer0
10
455.45671190172254
20
347.55485135840365
30
136.9874984154966
 70
     192
  0
VERTEX
  8
Layer0
10
455.7500033208107
20
347.6994866802208
30
136.9874984154966
 70
     192
  0
VERTEX
  8
Layer0
10
456.0219068933321
20
347.88116683895396
30
136.9874984154966
 70
     192
  0
VERTEX
  8
Layer0
10
457.0000033208083
20
336.19467720860587
30
136.9874984154966
 70
     192
  0
VERTEX
  8
Layer0
10
456.26777027377676
20
348.0967832367158
30
136.9874984154966
 70
     192
  0
VERTEX
  8
Layer0
10
456.4833866715386
20
348.3426466171605
30
136.9874984154966
 70
     192
  0
VERTEX
  8
Layer0
10
456.6650668302725
20
348.6145501896824
30
136.9874984154966
 70
     192
  0
VERTEX
  8
Layer0
10
456.80970215208913
20
348.90784160877
30
136.9874984154966
 70
     192
  0
VERTEX
  8
Layer0
10
456.9148178865338
20
349.2175025769266
30
136.9874984154966
 70
     192
  0
VERTEX
  8
Layer0
10
456.97861547424566
20
349.53823470913295
30
136.9874984154966
 70
     192
  0
VERTEX
  8
Layer0
10
457.00000332081106
20
349.8645501896836
30
136.9874984154966
 70
     192
  0
VERTEX
  8
Layer0
10
458.0355372267408
20
335.4000840956162
30
136.9874984154966
 70
     192
  0
VERTEX
  8
Layer0
10
445.50000352569447
20
291.3922750992476
30
136.9874984154966
 70
     192
  0
VERTEX
  8
Layer0
10
449.6703741893622
20
330.5704549641715
30
136.9874984154966
 70
     192
  0
VERTEX
  8
Layer0
10
449.50000332080737
20
331.86455018968434
30
136.9874984154966
 70
     192
  0
VERTEX
  8
Layer0
10
452.02139116737084
20
313.53823470913375
30
136.9874984154966
 70
     192
  0
VERTEX
  8
Layer0
10
452.0851887550826
20
313.2175025769276
30
136.9874984154966
 70
     192
  0
VERTEX
  8
Layer0
10
452.19030448952753
20
312.90784160877104
30
136.9874984154966
 70
     192
  0
VERTEX
  8
Layer0
10
452.334939811344
20
312.61455018968377
30
136.9874984154966
 70
     192
  0
VERTEX
  8
Layer0
10
463.50000352569435
20
291.3922750992455
30
136.9874984154966
 70
     192
  0
VERTEX
  8
Layer0
10
450.16987630188527
20
329.3645501896843
30
136.9874984154966
 70
     192
  0
VERTEX
  8
Layer0
10
450.96446941487636
20
328.32901628375146
30
136.9874984154966
 70
     192
  0
VERTEX
  8
Layer0
10
452.0000033208053
20
313.8645501896838
30
136.9874984154966
 70
     192
  0
VERTEX
  8
Layer0
10
452.51661997007704
20
312.3426466171619
30
136.9874984154966
 70
     192
  0
VERTEX
  8
Layer0
10
452.73223636783933
20
312.09678323671744
30
136.9874984154966
 70
     192
  0
VERTEX
  8
Layer0
10
452.97809974828334
20
311.8811668389556
30
136.9874984154966
 70
     192
  0
VERTEX
  8
Layer0
10
453.25000332080515
20
311.69948668022255
30
136.9874984154966
 70
     192
  0
VERTEX
  8
Layer0
10
453.54329473989236
20
311.5548513584055
30
136.9874984154966
 70
     192
  0
VERTEX
  8
Layer0
10
453.8529557080488
20
311.44973562396086
30
136.9874984154966
 70
     192
  0
VERTEX
  8
Layer0
10
454.1736878402555
20
311.38593803624906
30
136.9874984154966
 70
     192
  0
VERTEX
  8
Layer0
10
454.5000033208058
20
311.3645501896836
30
136.9874984154966
 70
     192
  0
VERTEX
  8
Layer0
10
454.8263188013558
20
311.38593803624894
30
136.9874984154966
 70
     192
  0
VERTEX
  8
Layer0
10
455.14705093356145
20
311.4497356239608
30
136.9874984154966
 70
     192
  0
VERTEX
  8
Layer0
10
455.4567119017179
20
311.5548513584052
30
136.9874984154966
 70
     192
  0
VERTEX
  8
Layer0
10
455.7500033208051
20
311.6994866802223
30
136.9874984154966
 70
     192
  0
VERTEX
  8
Layer0
10
456.0219068933269
20
311.8811668389554
30
136.9874984154966
 70
     192
  0
VERTEX
  8
Layer0
10
456.267770273772
20
312.09678323671693
30
136.9874984154966
 70
     192
  0
VERTEX
  8
Layer0
10
456.4833866715332
20
312.3426466171616
30
136.9874984154966
 70
     192
  0
VERTEX
  8
Layer0
10
456.66506683026626
20
312.6145501896833
30
136.9874984154966
 70
     192
  0
VERTEX
  8
Layer0
10
456.8097021520838
20
312.90784160877064
30
136.9874984154966
 70
     192
  0
VERTEX
  8
Layer0
10
456.9148178865278
20
313.217502576927
30
136.9874984154966
 70
     192
  0
VERTEX
  8
Layer0
10
456.97861547423975
20
313.5382347091332
30
136.9874984154966
 70
     192
  0
VERTEX
  8
Layer0
10
457.00000332080526
20
313.8645501896833
30
136.9874984154966
 70
     192
  0
VERTEX
  8
Layer0
10
457.0000033208091
20
327.53442317076144
30
136.9874984154966
 70
     192
  0
VERTEX
  8
Layer0
10
458.03553722674195
20
328.3290162837506
30
136.9874984154966
 70
     192
  0
VERTEX
  8
Layer0
10
458.8301303397297
20
329.36455018968326
30
136.9874984154966
 70
     192
  0
VERTEX
  8
Layer0
10
459.32963245225295
20
330.5704549641708
30
136.9874984154966
 70
     192
  0
VERTEX
  8
Layer0
10
459.5000033208074
20
331.86455018968337
30
136.9874984154966
 70
     192
  0
VERTEX
  8
Layer0
10
459.500003525683
20
178.05252913709046
30
136.9874984154966
 70
     192
  0
VERTEX
  8
Layer0
10
457.5000034744683
20
263.7353438718555
30
136.9874984154966
 70
     192
  0
VERTEX
  8
Layer0
10
457.0881939767081
20
179.05153336213695
30
136.9874984154966
 70
     192
  0
VERTEX
  8
Layer0
10
457.5681518218917
20
263.2177057816505
30
136.9874984154966
 70
     192
  0
VERTEX
  8
Layer0
10
457.76795266690226
20
262.7353438718565
30
136.9874984154966
 70
     192
  0
VERTEX
  8
Layer0
10
458.0857899120967
20
262.3211303094824
30
136.9874984154966
 70
     192
  0
VERTEX
  8
Layer0
10
458.50000347447065
20
262.00329306428654
30
136.9874984154966
 70
     192
  0
VERTEX
  8
Layer0
10
458.9823653842638
20
261.80349221927827
30
136.9874984154966
 70
     192
  0
VERTEX
  8
Layer0
10
459.5000034744683
20
261.73534387185526
30
136.9874984154966
 70
     192
  0
VERTEX
  8
Layer0
10
460.01764156467397
20
261.8034922192772
30
136.9874984154966
 70
     192
  0
VERTEX
  8
Layer0
10
461.57107133754914
20
176.46334291111134
30
136.9874984154966
 70
     192
  0
VERTEX
  8
Layer0
10
460.50000347447053
20
262.0032930642863
30
136.9874984154966
 70
     192
  0
VERTEX
  8
Layer0
10
460.9142170368427
20
262.32113030948204
30
136.9874984154966
 70
     192
  0
VERTEX
  8
Layer0
10
461.23205428204017
20
262.73534387185515
30
136.9874984154966
 70
     192
  0
VERTEX
  8
Layer0
10
461.43185512704787
20
263.2177057816498
30
136.9874984154966
 70
     192
  0
VERTEX
  8
Layer0
10
461.5000034744685
20
263.7353438718553
30
136.9874984154966
 70
     192
  0
VERTEX
  8
Layer0
10
348.50000352566906
20
59.392275099258605
30
136.9874984154966
 70
     192
  0
VERTEX
  8
Layer0
10
348.551114786237
20
64.50404653160476
30
136.9874984154966
 70
     192
  0
VERTEX
  8
Layer0
10
348.5000035256701
20
64.89227509925858
30
136.9874984154966
 70
     192
  0
VERTEX
  8
Layer0
10
348.7009654199942
20
64.14227509925846
30
136.9874984154966
 70
     192
  0
VERTEX
  8
Layer0
10
348.9393433538905
20
63.83161492747867
30
136.9874984154966
 70
     192
  0
VERTEX
  8
Layer0
10
349.2500035256701
20
63.59323699358177
30
136.9874984154966
 70
     192
  0
VERTEX
  8
Layer0
10
349.6117749580164
20
63.44338635982475
30
136.9874984154966
 70
     192
  0
VERTEX
  8
Layer0
10
350.0000035256702
20
63.392275099258335
30
136.9874984154966
 70
     192
  0
VERTEX
  8
Layer0
10
560.5000035256693
20
59.39227509923476
30
136.9874984154966
 70
     192
  0
VERTEX
  8
Layer0
10
350.3882320933239
20
63.443386359824665
30
136.9874984154966
 70
     192
  0
VERTEX
  8
Layer0
10
350.7500035256701
20
63.593236993582245
30
136.9874984154966
 70
     192
  0
VERTEX
  8
Layer0
10
351.0606636974501
20
63.83161492747867
30
136.9874984154966
 70
     192
  0
VERTEX
  8
Layer0
10
351.29904163134745
20
64.14227509925816
30
136.9874984154966
 70
     192
  0
VERTEX
  8
Layer0
10
351.4488922651043
20
64.5040465316044
30
136.9874984154966
 70
     192
  0
VERTEX
  8
Layer0
10
351.5000035256713
20
64.89227509925816
30
136.9874984154966
 70
     192
  0
VERTEX
  8
Layer0
10
447.4289357138168
20
162.32120728738192
30
136.9874984154966
 70
     192
  0
VERTEX
  8
Layer0
10
351.5000035256942
20
273.8922750992582
30
136.9874984154966
 70
     192
  0
VERTEX
  8
Layer0
10
445.8397494878378
20
164.39227509924757
30
136.9874984154966
 70
     192
  0
VERTEX
  8
Layer0
10
371.30680818022176
20
334.8078666544995
30
136.9874984154965
 70
     192
  0
VERTEX
  8
Layer0
10
371.2185109632887
20
335.067981867751
30
136.9874984154965
 70
     192
  0
VERTEX
  8
Layer0
10
371.1649209896106
20
335.33739685880425
30
136.9874984154965
 70
     192
  0
VERTEX
  8
Layer0
10
371.14695519849556
20
335.61150186246635
30
136.9874984154965
 70
     192
  0
VERTEX
  8
Layer0
10
371.4283018505482
20
334.56150186246623
30
136.9874984154965
 70
     192
  0
VERTEX
  8
Layer0
10
371.580913183884
20
334.3331028615479
30
136.9874984154965
 70
     192
  0
VERTEX
  8
Layer0
10
371.76203095800383
20
334.1265776219745
30
136.9874984154965
 70
     192
  0
VERTEX
  8
Layer0
10
371.96855619757713
20
333.9454598478547
30
136.9874984154965
 70
     192
  0
VERTEX
  8
Layer0
10
372.1969551984955
20
333.7928485145189
30
136.9874984154965
 70
     192
  0
VERTEX
  8
Layer0
10
372.4433199905288
20
333.6713548441924
30
136.9874984154965
 70
     192
  0
VERTEX
  8
Layer0
10
372.70343520378015
20
333.5830576272591
30
136.9874984154965
 70
     192
  0
VERTEX
  8
Layer0
10
372.97285019483337
20
333.52946765358115
30
136.9874984154965
 70
     192
  0
VERTEX
  8
Layer0
10
373.24695519849547
20
333.5115018624661
30
136.9874984154965
 70
     192
  0
VERTEX
  8
Layer0
10
373.52106020215757
20
333.52946765358104
30
136.9874984154965
 70
     192
  0
VERTEX
  8
Layer0
10
373.7904751932108
20
333.5830576272589
30
136.9874984154965
 70
     192
  0
VERTEX
  8
Layer0
10
374.05059040646216
20
333.67135484419225
30
136.9874984154965
 70
     192
  0
VERTEX
  8
Layer0
10
374.2969551984955
20
333.79284851451865
30
136.9874984154965
 70
     192
  0
VERTEX
  8
Layer0
10
374.5253541994138
20
333.9454598478543
30
136.9874984154965
 70
     192
  0
VERTEX
  8
Layer0
10
374.7318794389874
20
334.1265776219741
30
136.9874984154965
 70
     192
  0
VERTEX
  8
Layer0
10
374.83969619297426
20
334.2495190674251
30
136.9874984154965
 70
     192
  0
VERTEX
  8
Layer0
10
374.91299721310713
20
334.33310286154756
30
136.9874984154965
 70
     192
  0
VERTEX
  8
Layer0
10
375.06560854644295
20
334.56150186246595
30
136.9874984154965
 70
     192
  0
VERTEX
  8
Layer0
10
375.18710221676923
20
334.80786665449915
30
136.9874984154965
 70
     192
  0
VERTEX
  8
Layer0
10
444.84074526279176
20
166.80408464822258
30
136.9874984154966
 70
     192
  0
VERTEX
  8
Layer0
10
375.2753994337029
20
335.0679818677506
30
136.9874984154965
 70
     192
  0
VERTEX
  8
Layer0
10
375.3289894073807
20
335.33739685880374
30
136.9874984154965
 70
     192
  0
VERTEX
  8
Layer0
10
375.3469551984956
20
335.61150186246584
30
136.9874984154965
 70
     192
  0
VERTEX
  8
Layer0
10
377.70444856796814
20
344.31163591905545
30
136.9874984154966
 70
     192
  0
VERTEX
  8
Layer0
10
375.34695519849816
20
356.1175985168756
30
136.9874984154965
 70
     192
  0
VERTEX
  8
Layer0
10
377.50000352570163
20
345.8645501896707
30
136.9874984154966
 70
     192
  0
VERTEX
  8
Layer0
10
378.303851102995
20
342.86455018967064
30
136.9874984154966
 70
     192
  0
VERTEX
  8
Layer0
10
379.25736283858186
20
341.6219095025518
30
136.9874984154966
 70
     192
  0
VERTEX
  8
Layer0
10
380.5000035257022
20
340.6683977669638
30
136.9874984154966
 70
     192
  0
VERTEX
  8
Layer0
10
381.9470892550858
20
340.0689952319357
30
136.9874984154966
 70
     192
  0
VERTEX
  8
Layer0
10
383.50000352570214
20
339.86455018966984
30
136.9874984154966
 70
     192
  0
VERTEX
  8
Layer0
10
385.0529177963162
20
340.06899523193533
30
136.9874984154966
 70
     192
  0
VERTEX
  8
Layer0
10
386.5000035257023
20
340.6683977669629
30
136.9874984154966
 70
     192
  0
VERTEX
  8
Layer0
10
387.74264421282066
20
341.62190950254995
30
136.9874984154966
 70
     192
  0
VERTEX
  8
Layer0
10
388.69615594840843
20
342.8645501896694
30
136.9874984154966
 70
     192
  0
VERTEX
  8
Layer0
10
391.72460761769855
20
335.0679818677486
30
136.9874984154965
 70
     192
  0
VERTEX
  8
Layer0
10
389.29555848343693
20
344.31163591905397
30
136.9874984154966
 70
     192
  0
VERTEX
  8
Layer0
10
389.5000035257018
20
345.86455018966916
30
136.9874984154966
 70
     192
  0
VERTEX
  8
Layer0
10
391.6710176440204
20
335.3373968588019
30
136.9874984154965
 70
     192
  0
VERTEX
  8
Layer0
10
391.6530518529054
20
335.611501862464
30
136.9874984154965
 70
     192
  0
VERTEX
  8
Layer0
10
391.81290483463164
20
334.8078666544973
30
136.9874984154965
 70
     192
  0
VERTEX
  8
Layer0
10
391.9343985049581
20
334.56150186246396
30
136.9874984154965
 70
     192
  0
VERTEX
  8
Layer0
10
392.08700983829385
20
334.3331028615456
30
136.9874984154965
 70
     192
  0
VERTEX
  8
Layer0
10
392.16031085842684
20
334.24951906742325
30
136.9874984154965
 70
     192
  0
VERTEX
  8
Layer0
10
392.2681276124137
20
334.1265776219721
30
136.9874984154965
 70
     192
  0
VERTEX
  8
Layer0
10
392.47465285198695
20
333.9454598478523
30
136.9874984154965
 70
     192
  0
VERTEX
  8
Layer0
10
392.70305185290533
20
333.79284851451655
30
136.9874984154965
 70
     192
  0
VERTEX
  8
Layer0
10
392.9494166449386
20
333.6713548441902
30
136.9874984154965
 70
     192
  0
VERTEX
  8
Layer0
10
393.20953185819
20
333.5830576272567
30
136.9874984154965
 70
     192
  0
VERTEX
  8
Layer0
10
393.47894684924324
20
333.52946765357876
30
136.9874984154965
 70
     192
  0
VERTEX
  8
Layer0
10
393.75305185290534
20
333.51150186246383
30
136.9874984154965
 70
     192
  0
VERTEX
  8
Layer0
10
394.02715685656744
20
333.52946765357865
30
136.9874984154965
 70
     192
  0
VERTEX
  8
Layer0
10
394.29657184762056
20
333.58305762725666
30
136.9874984154965
 70
     192
  0
VERTEX
  8
Layer0
10
394.55668706087204
20
333.67135484419003
30
136.9874984154965
 70
     192
  0
VERTEX
  8
Layer0
10
394.80305185290536
20
333.7928485145163
30
136.9874984154965
 70
     192
  0
VERTEX
  8
Layer0
10
395.03145085382357
20
333.9454598478519
30
136.9874984154965
 70
     192
  0
VERTEX
  8
Layer0
10
395.23797609339715
20
334.1265776219719
30
136.9874984154965
 70
     192
  0
VERTEX
  8
Layer0
10
395.41909386751706
20
334.3331028615452
30
136.9874984154965
 70
     192
  0
VERTEX
  8
Layer0
10
395.57170520085276
20
334.56150186246356
30
136.9874984154965
 70
     192
  0
VERTEX
  8
Layer0
10
395.69319887117905
20
334.8078666544968
30
136.9874984154965
 70
     192
  0
VERTEX
  8
Layer0
10
395.78149608811265
20
335.06798186774824
30
136.9874984154965
 70
     192
  0
VERTEX
  8
Layer0
10
395.83508606179043
20
335.33739685880136
30
136.9874984154965
 70
     192
  0
VERTEX
  8
Layer0
10
395.8530518529055
20
335.6115018624635
30
136.9874984154965
 70
     192
  0
VERTEX
  8
Layer0
10
395.8530518529079
20
356.1175985168734
30
136.9874984154965
 70
     192
  0
VERTEX
  8
Layer0
10
444.5000035256809
20
169.39227509924766
30
136.9874984154966
 70
     192
  0
VERTEX
  8
Layer0
10
440.500003622562
20
326.7395498022531
30
136.9874984154966
 70
     192
  0
VERTEX
  8
Layer0
10
440.5511148831263
20
326.35132123459937
30
136.9874984154966
 70
     192
  0
VERTEX
  8
Layer0
10
440.7009655168854
20
325.9895498022531
30
136.9874984154966
 70
     192
  0
VERTEX
  8
Layer0
10
440.9393434507801
20
325.6788896304731
30
136.9874984154966
 70
     192
  0
VERTEX
  8
Layer0
10
441.2500036225597
20
325.4405116965765
30
136.9874984154966
 70
     192
  0
VERTEX
  8
Layer0
10
441.61177505490616
20
325.2906610628194
30
136.9874984154966
 70
     192
  0
VERTEX
  8
Layer0
10
442.0000036225599
20
325.23954980225267
30
136.9874984154966
 70
     192
  0
VERTEX
  8
Layer0
10
442.3882321902138
20
325.2906610628192
30
136.9874984154966
 70
     192
  0
VERTEX
  8
Layer0
10
442.75000362255975
20
325.440511696576
30
136.9874984154966
 70
     192
  0
VERTEX
  8
Layer0
10
443.06066379433986
20
325.67888963047307
30
136.9874984154966
 70
     192
  0
VERTEX
  8
Layer0
10
443.29904172823893
20
325.9895498022529
30
136.9874984154966
 70
     192
  0
VERTEX
  8
Layer0
10
443.4488923619935
20
326.351321234599
30
136.9874984154966
 70
     192
  0
VERTEX
  8
Layer0
10
443.5000036225621
20
326.7395498022527
30
136.9874984154966
 70
     192
  0
VERTEX
  8
Layer0
10
443.5000037305927
20
336.989550189679
30
136.98749841549662
 70
     192
  0
VERTEX
  8
Layer0
10
449.5000035256821
20
160.73202106140278
30
136.9874984154966
 70
     192
  0
VERTEX
  8
Layer0
10
451.91181307465473
20
159.73301683635617
30
136.9874984154966
 70
     192
  0
VERTEX
  8
Layer0
10
454.50000352568094
20
159.39227509924646
30
136.9874984154966
 70
     192
  0
VERTEX
  8
Layer0
10
457.08819397670504
20
159.73301683635552
30
136.9874984154966
 70
     192
  0
VERTEX
  8
Layer0
10
459.5000035256822
20
160.73202106140155
30
136.9874984154966
 70
     192
  0
VERTEX
  8
Layer0
10
461.571071337548
20
162.32120728738028
30
136.9874984154966
 70
     192
  0
VERTEX
  8
Layer0
10
463.16025756352667
20
164.39227509924555
30
136.9874984154966
 70
     192
  0
VERTEX
  8
Layer0
10
464.15926178857325
20
166.80408464822023
30
136.9874984154966
 70
     192
  0
VERTEX
  8
Layer0
10
464.50000352568105
20
169.39227509924552
30
136.9874984154966
 70
     192
  0
VERTEX
  8
Layer0
10
557.7009654199933
20
64.14227509923519
30
136.9874984154966
 70
     192
  0
VERTEX
  8
Layer0
10
464.5000035256926
20
271.3922750992456
30
136.9874984154966
 70
     192
  0
VERTEX
  8
Layer0
10
464.50000352569305
20
272.3922750992455
30
136.9874984154966
 70
     192
  0
VERTEX
  8
Layer0
10
557.5511147862362
20
64.50404653158148
30
136.9874984154966
 70
     192
  0
VERTEX
  8
Layer0
10
464.5000035256946
20
290.3922750992454
30
136.9874984154966
 70
     192
  0
VERTEX
  8
Layer0
10
465.5511148831264
20
326.351321234598
30
136.98749841549656
 70
     192
  0
VERTEX
  8
Layer0
10
465.50000362256213
20
326.7395498022518
30
136.98749841549656
 70
     192
  0
VERTEX
  8
Layer0
10
465.7009655168857
20
325.9895498022517
30
136.98749841549656
 70
     192
  0
VERTEX
  8
Layer0
10
465.93934345078037
20
325.67888963047204
30
136.98749841549656
 70
     192
  0
VERTEX
  8
Layer0
10
466.2500036225598
20
325.44051169657473
30
136.98749841549656
 70
     192
  0
VERTEX
  8
Layer0
10
466.6117750549063
20
325.290661062818
30
136.98749841549656
 70
     192
  0
VERTEX
  8
Layer0
10
467.00000362256014
20
325.2395498022515
30
136.98749841549656
 70
     192
  0
VERTEX
  8
Layer0
10
467.3882321902139
20
325.290661062818
30
136.98749841549656
 70
     192
  0
VERTEX
  8
Layer0
10
467.7500036225598
20
325.4405116965749
30
136.98749841549656
 70
     192
  0
VERTEX
  8
Layer0
10
468.06066379434
20
325.67888963047164
30
136.98749841549656
 70
     192
  0
VERTEX
  8
Layer0
10
468.299041728239
20
325.98954980225136
30
136.98749841549656
 70
     192
  0
VERTEX
  8
Layer0
10
468.4488923619936
20
326.3513212345978
30
136.98749841549656
 70
     192
  0
VERTEX
  8
Layer0
10
468.5000036225622
20
326.7395498022515
30
136.98749841549656
 70
     192
  0
VERTEX
  8
Layer0
10
468.50000373059277
20
336.9895501896766
30
136.9874984154966
 70
     192
  0
VERTEX
  8
Layer0
10
513.1649209896101
20
335.33739685878805
30
136.98749841549696
 70
     192
  0
VERTEX
  8
Layer0
10
513.1469551984952
20
335.6115018624501
30
136.98749841549696
 70
     192
  0
VERTEX
  8
Layer0
10
513.2185109632879
20
335.0679818677347
30
136.98749841549696
 70
     192
  0
VERTEX
  8
Layer0
10
513.3068081802214
20
334.8078666544834
30
136.98749841549696
 70
     192
  0
VERTEX
  8
Layer0
10
513.4283018505477
20
334.56150186245
30
136.98749841549696
 70
     192
  0
VERTEX
  8
Layer0
10
513.5809131838835
20
334.33310286153176
30
136.98749841549696
 70
     192
  0
VERTEX
  8
Layer0
10
513.7620309580033
20
334.12657762195823
30
136.98749841549696
 70
     192
  0
VERTEX
  8
Layer0
10
513.9685561975766
20
333.94545984783844
30
136.98749841549696
 70
     192
  0
VERTEX
  8
Layer0
10
514.1969551984948
20
333.79284851450257
30
136.98749841549696
 70
     192
  0
VERTEX
  8
Layer0
10
514.4433199905283
20
333.6713548441763
30
136.98749841549696
 70
     192
  0
VERTEX
  8
Layer0
10
514.7034352037796
20
333.5830576272428
30
136.98749841549696
 70
     192
  0
VERTEX
  8
Layer0
10
514.9728501948329
20
333.5294676535649
30
136.98749841549696
 70
     192
  0
VERTEX
  8
Layer0
10
515.2469551984949
20
333.5115018624499
30
136.98749841549696
 70
     192
  0
VERTEX
  8
Layer0
10
515.5210602021571
20
333.5294676535647
30
136.98749841549696
 70
     192
  0
VERTEX
  8
Layer0
10
515.7904751932101
20
333.5830576272427
30
136.98749841549696
 70
     192
  0
VERTEX
  8
Layer0
10
516.0505904064617
20
333.6713548441761
30
136.98749841549696
 70
     192
  0
VERTEX
  8
Layer0
10
516.2969551984949
20
333.79284851450245
30
136.98749841549696
 70
     192
  0
VERTEX
  8
Layer0
10
516.5253541994133
20
333.9454598478381
30
136.98749841549696
 70
     192
  0
VERTEX
  8
Layer0
10
516.7318794389867
20
334.126577621958
30
136.98749841549696
 70
     192
  0
VERTEX
  8
Layer0
10
516.8396961929737
20
334.249519067409
30
136.98749841549696
 70
     192
  0
VERTEX
  8
Layer0
10
516.8897472785424
20
334.30659139224423
30
136.98749841549696
 70
     192
  0
VERTEX
  8
Layer0
10
516.9129972131067
20
334.33310286153136
30
136.98749841549696
 70
     192
  0
VERTEX
  8
Layer0
10
517.0656085464424
20
334.56150186244963
30
136.98749841549696
 70
     192
  0
VERTEX
  8
Layer0
10
517.187102216769
20
334.8078666544829
30
136.98749841549696
 70
     192
  0
VERTEX
  8
Layer0
10
517.220527263669
20
334.8684631025242
30
136.98749841549696
 70
     192
  0
VERTEX
  8
Layer0
10
517.2753994337021
20
335.0679818677344
30
136.98749841549696
 70
     192
  0
VERTEX
  8
Layer0
10
517.3289894073802
20
335.33739685878743
30
136.98749841549696
 70
     192
  0
VERTEX
  8
Layer0
10
517.3469551984954
20
335.61150186244964
30
136.98749841549696
 70
     192
  0
VERTEX
  8
Layer0
10
517.3469551984973
20
356.1175985168595
30
136.98749841549696
 70
     192
  0
VERTEX
  8
Layer0
10
519.5964389873111
20
344.79313722489513
30
136.9874984154966
 70
     192
  0
VERTEX
  8
Layer0
10
519.5202959904562
20
346.35759967289994
30
136.9874984154966
 70
     192
  0
VERTEX
  8
Layer0
10
519.5323388933972
20
346.1101616918156
30
136.9874984154966
 70
     192
  0
VERTEX
  8
Layer0
10
519.5702693577258
20
345.33082820707256
30
136.9874984154966
 70
     192
  0
VERTEX
  8
Layer0
10
519.6721132002723
20
344.55724742119713
30
136.9874984154966
 70
     192
  0
VERTEX
  8
Layer0
10
519.9104575637037
20
343.8142862075614
30
136.9874984154966
 70
     192
  0
VERTEX
  8
Layer0
10
520.0749001513547
20
343.3016897998453
30
136.9874984154966
 70
     192
  0
VERTEX
  8
Layer0
10
520.2090486017805
20
343.09342367383215
30
136.9874984154966
 70
     192
  0
VERTEX
  8
Layer0
10
520.631564089834
20
342.4374663101954
30
136.9874984154966
 70
     192
  0
VERTEX
  8
Layer0
10
520.9230731449533
20
341.98489707503387
30
136.9874984154966
 70
     192
  0
VERTEX
  8
Layer0
10
557.5000035256697
20
64.89227509923528
30
136.9874984154966
 70
     192
  0
VERTEX
  8
Layer0
10
521.106553837637
20
341.81844761901897
30
136.9874984154966
 70
     192
  0
VERTEX
  8
Layer0
10
521.6844467180382
20
341.2941965156977
30
136.98749841549662
 70
     192
  0
VERTEX
  8
Layer0
10
522.0831563802649
20
340.93249629855325
30
136.9874984154966
 70
     192
  0
VERTEX
  8
Layer0
10
522.3034654092199
20
340.81920676789053
30
136.98749841549662
 70
     192
  0
VERTEX
  8
Layer0
10
522.997353237182
20
340.46238877120965
30
136.9874984154966
 70
     192
  0
VERTEX
  8
Layer0
10
523.4760921019308
20
340.2162068441472
30
136.9874984154966
 70
     192
  0
VERTEX
  8
Layer0
10
523.7182157709057
20
340.16379773313434
30
136.9874984154966
 70
     192
  0
VERTEX
  8
Layer0
10
524.4808112376651
20
339.99872939989547
30
136.9874984154966
 70
     192
  0
VERTEX
  8
Layer0
10
525.0069540424556
20
339.8848426544085
30
136.9874984154966
 70
     192
  0
VERTEX
  8
Layer0
10
525.254392023543
20
339.89688555734904
30
136.9874984154966
 70
     192
  0
VERTEX
  8
Layer0
10
526.033725508277
20
339.934816021677
30
136.9874984154966
 70
     192
  0
VERTEX
  8
Layer0
10
526.5714164904603
20
339.9609856512628
30
136.9874984154966
 70
     192
  0
VERTEX
  8
Layer0
10
526.8073062941593
20
340.03665986422396
30
136.9874984154966
 70
     192
  0
VERTEX
  8
Layer0
10
527.5502675077935
20
340.27500422765536
30
136.9874984154966
 70
     192
  0
VERTEX
  8
Layer0
10
528.0628639155127
20
340.4394468153072
30
136.9874984154966
 70
     192
  0
VERTEX
  8
Layer0
10
528.2711300415273
20
340.57359526573424
30
136.9874984154966
 70
     192
  0
VERTEX
  8
Layer0
10
528.9270874051531
20
340.99611075378067
30
136.9874984154966
 70
     192
  0
VERTEX
  8
Layer0
10
529.3796566403241
20
341.28761980890573
30
136.9874984154966
 70
     192
  0
VERTEX
  8
Layer0
10
529.5461060963421
20
341.47110050159364
30
136.9874984154966
 70
     192
  0
VERTEX
  8
Layer0
10
530.0703571996561
20
342.04899338198754
30
136.9874984154966
 70
     192
  0
VERTEX
  8
Layer0
10
530.4320574168022
20
342.4477030442173
30
136.9874984154966
 70
     192
  0
VERTEX
  8
Layer0
10
530.5453469474637
20
342.6680120731698
30
136.9874984154966
 70
     192
  0
VERTEX
  8
Layer0
10
530.9021649441482
20
343.3618999011395
30
136.98749841549656
 70
     192
  0
VERTEX
  8
Layer0
10
531.1483468712082
20
343.8406387658834
30
136.9874984154966
 70
     192
  0
VERTEX
  8
Layer0
10
531.2007559822213
20
344.0827624348571
30
136.98749841549656
 70
     192
  0
VERTEX
  8
Layer0
10
531.3658243154583
20
344.8453579016048
30
136.9874984154966
 70
     192
  0
VERTEX
  8
Layer0
10
531.4797110609491
20
345.3715007064083
30
136.9874984154966
 70
     192
  0
VERTEX
  8
Layer0
10
533.6710176440199
20
335.33739685878567
30
136.98749841549696
 70
     192
  0
VERTEX
  8
Layer0
10
533.6530518529052
20
335.6115018624477
30
136.98749841549696
 70
     192
  0
VERTEX
  8
Layer0
10
533.7246076176978
20
335.0679818677325
30
136.98749841549696
 70
     192
  0
VERTEX
  8
Layer0
10
533.7794797877339
20
334.86846310252196
30
136.98749841549696
 70
     192
  0
VERTEX
  8
Layer0
10
533.8129048346312
20
334.80786665448113
30
136.98749841549696
 70
     192
  0
VERTEX
  8
Layer0
10
533.9343985049575
20
334.56150186244764
30
136.98749841549696
 70
     192
  0
VERTEX
  8
Layer0
10
534.0870098382933
20
334.3331028615294
30
136.98749841549696
 70
     192
  0
VERTEX
  8
Layer0
10
534.1102597728552
20
334.3065913922447
30
136.98749841549696
 70
     192
  0
VERTEX
  8
Layer0
10
534.1603108584263
20
334.24951906740705
30
136.98749841549696
 70
     192
  0
VERTEX
  8
Layer0
10
534.268127612413
20
334.1265776219559
30
136.98749841549696
 70
     192
  0
VERTEX
  8
Layer0
10
534.4746528519865
20
333.94545984783605
30
136.98749841549696
 70
     192
  0
VERTEX
  8
Layer0
10
534.7030518529048
20
333.7928485145004
30
136.98749841549696
 70
     192
  0
VERTEX
  8
Layer0
10
534.9494166449381
20
333.67135484417383
30
136.98749841549696
 70
     192
  0
VERTEX
  8
Layer0
10
535.2095318581895
20
333.5830576272406
30
136.98749841549696
 70
     192
  0
VERTEX
  8
Layer0
10
535.4789468492427
20
333.5294676535626
30
136.98749841549696
 70
     192
  0
VERTEX
  8
Layer0
10
535.7530518529047
20
333.5115018624475
30
136.98749841549696
 70
     192
  0
VERTEX
  8
Layer0
10
536.0271568565668
20
333.5294676535625
30
136.98749841549696
 70
     192
  0
VERTEX
  8
Layer0
10
536.2965718476199
20
333.5830576272405
30
136.98749841549696
 70
     192
  0
VERTEX
  8
Layer0
10
536.5566870608715
20
333.6713548441736
30
136.98749841549696
 70
     192
  0
VERTEX
  8
Layer0
10
536.8030518529047
20
333.7928485145001
30
136.98749841549696
 70
     192
  0
VERTEX
  8
Layer0
10
537.0314508538232
20
333.9454598478359
30
136.98749841549696
 70
     192
  0
VERTEX
  8
Layer0
10
537.2379760933965
20
334.1265776219557
30
136.98749841549696
 70
     192
  0
VERTEX
  8
Layer0
10
537.4190938675165
20
334.3331028615291
30
136.98749841549696
 70
     192
  0
VERTEX
  8
Layer0
10
537.5717052008523
20
334.56150186244724
30
136.98749841549696
 70
     192
  0
VERTEX
  8
Layer0
10
537.6931988711788
20
334.8078666544806
30
136.98749841549696
 70
     192
  0
VERTEX
  8
Layer0
10
537.7814960881119
20
335.06798186773204
30
136.98749841549696
 70
     192
  0
VERTEX
  8
Layer0
10
537.83508606179
20
335.33739685878527
30
136.98749841549696
 70
     192
  0
VERTEX
  8
Layer0
10
537.8530518529052
20
335.61150186244737
30
136.98749841549696
 70
     192
  0
VERTEX
  8
Layer0
10
537.8530518529074
20
356.11759851685724
30
136.98749841549696
 70
     192
  0
VERTEX
  8
Layer0
10
557.9393433538901
20
63.831614927455384
30
136.9874984154966
 70
     192
  0
VERTEX
  8
Layer0
10
558.2500035256697
20
63.59323699355849
30
136.9874984154966
 70
     192
  0
VERTEX
  8
Layer0
10
558.611774958016
20
63.443386359801515
30
136.9874984154966
 70
     192
  0
VERTEX
  8
Layer0
10
559.0000035256697
20
63.39227509923537
30
136.9874984154966
 70
     192
  0
VERTEX
  8
Layer0
10
559.3882320933236
20
63.44338635980138
30
136.9874984154966
 70
     192
  0
VERTEX
  8
Layer0
10
559.7500035256697
20
63.59323699355831
30
136.9874984154966
 70
     192
  0
VERTEX
  8
Layer0
10
560.0606636974496
20
63.83161492745507
30
136.9874984154966
 70
     192
  0
VERTEX
  8
Layer0
10
560.2990416313465
20
64.14227509923492
30
136.9874984154966
 70
     192
  0
VERTEX
  8
Layer0
10
560.4488922651034
20
64.50404653158107
30
136.9874984154966
 70
     192
  0
VERTEX
  8
Layer0
10
560.5000035256697
20
64.89227509923491
30
136.9874984154966
 70
     192
  0
VERTEX
  8
Layer0
10
561.5352797060807
20
59.52857179407857
30
136.9874984154966
 70
     192
  0
VERTEX
  8
Layer0
10
560.5000035256933
20
273.89227509923495
30
136.9874984154966
 70
     192
  0
VERTEX
  8
Layer0
10
560.5000035257021
20
360.8645501896572
30
136.9874984154966
 70
     192
  0
VERTEX
  8
Layer0
10
561.5352797061136
20
360.72825349481326
30
136.9874984154966
 70
     192
  0
VERTEX
  8
Layer0
10
562.5000035256693
20
59.92817348409679
30
136.9874984154966
 70
     192
  0
VERTEX
  8
Layer0
10
562.5000035257023
20
360.3286518047947
30
136.9874984154966
 70
     192
  0
VERTEX
  8
Layer0
10
563.3284306504155
20
60.56384797448823
30
136.9874984154966
 70
     192
  0
VERTEX
  8
Layer0
10
563.3284306504482
20
359.69297731440315
30
136.9874984154966
 70
     192
  0
VERTEX
  8
Layer0
10
563.9641051408071
20
61.3922750992346
30
136.9874984154966
 70
     192
  0
VERTEX
  8
Layer0
10
563.9641051408399
20
358.8645501896568
30
136.9874984154966
 70
     192
  0
VERTEX
  8
Layer0
10
564.3637068308258
20
62.356998918824466
30
136.9874984154966
 70
     192
  0
VERTEX
  8
Layer0
10
564.3637068308582
20
357.89982637006676
30
136.9874984154966
 70
     192
  0
VERTEX
  8
Layer0
10
564.5000035256697
20
63.39227509923431
30
136.9874984154966
 70
     192
  0
VERTEX
  8
Layer0
10
564.5000035257017
20
356.8645501896568
30
136.9874984154966
 70
     192
  0
VERTEX
  8
Layer0
10
344.6363002205131
20
62.356998918848944
30
136.9874984154966
 70
     192
  0
VERTEX
  8
Layer0
10
344.50000352570225
20
356.864550189682
30
136.9874984154966
 70
     192
  0
VERTEX
  8
Layer0
10
344.50000352566946
20
63.39227509925903
30
136.9874984154966
 70
     192
  0
VERTEX
  8
Layer0
10
344.63630022054593
20
357.899826370092
30
136.9874984154966
 70
     192
  0
VERTEX
  8
Layer0
10
345.0359019105316
20
61.392275099258995
30
136.9874984154966
 70
     192
  0
VERTEX
  8
Layer0
10
345.03590191056475
20
358.864550189682
30
136.9874984154966
 70
     192
  0
VERTEX
  8
Layer0
10
345.6715764009231
20
60.56384797451271
30
136.9874984154966
 70
     192
  0
VERTEX
  8
Layer0
10
345.6715764009563
20
359.692977314428
30
136.9874984154966
 70
     192
  0
VERTEX
  8
Layer0
10
346.5000035256692
20
59.92817348412127
30
136.9874984154966
 70
     192
  0
VERTEX
  8
Layer0
10
346.50000352570254
20
360.32865180481946
30
136.9874984154966
 70
     192
  0
VERTEX
  8
Layer0
10
347.464727345259
20
59.52857179410243
30
136.9874984154966
 70
     192
  0
VERTEX
  8
Layer0
10
347.4647273452926
20
360.72825349483793
30
136.9874984154966
 70
     192
  0
VERTEX
  8
Layer0
10
348.5000035257027
20
360.8645501896815
30
136.9874984154966
 70
     192
  0
VERTEX
  8
Layer0
10
348.50000352569424
20
273.8922750992587
30
136.9874984154966
 70
     192
  0
VERTEX
  8
Layer0
10
348.55111478626077
20
274.2805036669124
30
136.9874984154966
 70
     192
  0
VERTEX
  8
Layer0
10
371.21851096329084
20
356.6611185115914
30
136.9874984154965
 70
     192
  0
VERTEX
  8
Layer0
10
371.3068081802245
20
356.92123372484286
30
136.9874984154965
 70
     192
  0
VERTEX
  8
Layer0
10
371.4283018505508
20
357.1675985168761
30
136.9874984154965
 70
     192
  0
VERTEX
  8
Layer0
10
371.5809131838865
20
357.39599751779434
30
136.9874984154965
 70
     192
  0
VERTEX
  8
Layer0
10
371.76203095800645
20
357.60252275736786
30
136.9874984154965
 70
     192
  0
VERTEX
  8
Layer0
10
371.96855619757986
20
357.78364053148766
30
136.9874984154965
 70
     192
  0
VERTEX
  8
Layer0
10
372.1969551984981
20
357.9362518648233
30
136.9874984154965
 70
     192
  0
VERTEX
  8
Layer0
10
372.4433199905315
20
358.0577455351497
30
136.9874984154965
 70
     192
  0
VERTEX
  8
Layer0
10
372.70343520378293
20
358.1460427520831
30
136.9874984154965
 70
     192
  0
VERTEX
  8
Layer0
10
372.9728501948361
20
358.199632725761
30
136.9874984154965
 70
     192
  0
VERTEX
  8
Layer0
10
373.24695519849814
20
358.2175985168759
30
136.9874984154965
 70
     192
  0
VERTEX
  8
Layer0
10
348.70096542001676
20
274.64227509925837
30
136.9874984154966
 70
     192
  0
VERTEX
  8
Layer0
10
348.9393433539137
20
274.9529352710385
30
136.9874984154966
 70
     192
  0
VERTEX
  8
Layer0
10
349.2500035256938
20
275.191313204935
30
136.9874984154966
 70
     192
  0
VERTEX
  8
Layer0
10
349.61177495803975
20
275.34116383869167
30
136.9874984154966
 70
     192
  0
VERTEX
  8
Layer0
10
350.00000352569344
20
275.39227509925814
30
136.9874984154966
 70
     192
  0
VERTEX
  8
Layer0
10
350.38823209334737
20
275.34116383869184
30
136.9874984154966
 70
     192
  0
VERTEX
  8
Layer0
10
350.75000352569384
20
275.191313204935
30
136.9874984154966
 70
     192
  0
VERTEX
  8
Layer0
10
351.06066369747333
20
274.952935271038
30
136.9874984154966
 70
     192
  0
VERTEX
  8
Layer0
10
351.2990416313713
20
274.642275099258
30
136.9874984154966
 70
     192
  0
VERTEX
  8
Layer0
10
351.4488922651276
20
274.28050366691195
30
136.9874984154966
 70
     192
  0
VERTEX
  8
Layer0
10
371.16492098961294
20
356.3917035205383
30
136.9874984154965
 70
     192
  0
VERTEX
  8
Layer0
10
371.1469551984981
20
356.11759851687617
30
136.9874984154965
 70
     192
  0
VERTEX
  8
Layer0
10
373.52106020216024
20
358.199632725761
30
136.9874984154965
 70
     192
  0
VERTEX
  8
Layer0
10
373.79047519321347
20
358.1460427520829
30
136.9874984154965
 70
     192
  0
VERTEX
  8
Layer0
10
374.05059040646495
20
358.05774553514954
30
136.9874984154965
 70
     192
  0
VERTEX
  8
Layer0
10
374.2969551984981
20
357.9362518648232
30
136.9874984154965
 70
     192
  0
VERTEX
  8
Layer0
10
393.75305185290796
20
358.21759851687364
30
136.9874984154965
 70
     192
  0
VERTEX
  8
Layer0
10
374.5253541994165
20
357.7836405314873
30
136.9874984154965
 70
     192
  0
VERTEX
  8
Layer0
10
374.73187943899
20
357.6025227573675
30
136.9874984154965
 70
     192
  0
VERTEX
  8
Layer0
10
374.83969619297665
20
357.47958131191643
30
136.9874984154965
 70
     192
  0
VERTEX
  8
Layer0
10
374.9129972131097
20
357.395997517794
30
136.9874984154965
 70
     192
  0
VERTEX
  8
Layer0
10
375.0656085464454
20
357.1675985168758
30
136.9874984154965
 70
     192
  0
VERTEX
  8
Layer0
10
393.47894684924586
20
358.1996327257586
30
136.9874984154965
 70
     192
  0
VERTEX
  8
Layer0
10
375.18710221677196
20
356.9212337248423
30
136.9874984154965
 70
     192
  0
VERTEX
  8
Layer0
10
375.27539943370505
20
356.66111851159104
30
136.9874984154965
 70
     192
  0
VERTEX
  8
Layer0
10
375.328989407383
20
356.3917035205377
30
136.9874984154965
 70
     192
  0
VERTEX
  8
Layer0
10
393.20953185819275
20
358.14604275208075
30
136.9874984154965
 70
     192
  0
VERTEX
  8
Layer0
10
392.9494166449414
20
358.0577455351475
30
136.9874984154965
 70
     192
  0
VERTEX
  8
Layer0
10
392.70305185290795
20
357.93625186482103
30
136.9874984154965
 70
     192
  0
VERTEX
  8
Layer0
10
380.5000035257025
20
351.060702612377
30
136.9874984154966
 70
     192
  0
VERTEX
  8
Layer0
10
379.2573628385827
20
350.1071908767909
30
136.9874984154966
 70
     192
  0
VERTEX
  8
Layer0
10
378.30385110299653
20
348.8645501896708
30
136.9874984154966
 70
     192
  0
VERTEX
  8
Layer0
10
377.7044485679677
20
347.4174644602853
30
136.9874984154966
 70
     192
  0
VERTEX
  8
Layer0
10
381.94708925508803
20
351.6601051474056
30
136.9874984154966
 70
     192
  0
VERTEX
  8
Layer0
10
383.50000352570237
20
351.86455018967087
30
136.9874984154966
 70
     192
  0
VERTEX
  8
Layer0
10
392.47465285198973
20
357.78364053148533
30
136.9874984154965
 70
     192
  0
VERTEX
  8
Layer0
10
385.05291779631847
20
351.6601051474036
30
136.9874984154966
 70
     192
  0
VERTEX
  8
Layer0
10
392.2681276124163
20
357.60252275736553
30
136.9874984154965
 70
     192
  0
VERTEX
  8
Layer0
10
386.50000352570254
20
351.06070261237653
30
136.9874984154966
 70
     192
  0
VERTEX
  8
Layer0
10
392.1603108584293
20
357.4795813119146
30
136.9874984154965
 70
     192
  0
VERTEX
  8
Layer0
10
392.11025977281565
20
357.4225089870282
30
136.9874984154965
 70
     192
  0
VERTEX
  8
Layer0
10
392.0870098382963
20
357.3959975177922
30
136.9874984154965
 70
     192
  0
VERTEX
  8
Layer0
10
391.93439850496054
20
357.1675985168738
30
136.9874984154965
 70
     192
  0
VERTEX
  8
Layer0
10
387.74264421282146
20
350.1071908767898
30
136.9874984154966
 70
     192
  0
VERTEX
  8
Layer0
10
391.7794797877346
20
356.8606372767909
30
136.9874984154965
 70
     192
  0
VERTEX
  8
Layer0
10
388.69615594840997
20
348.86455018966944
30
136.9874984154966
 70
     192
  0
VERTEX
  8
Layer0
10
391.7246076177007
20
356.66111851158905
30
136.9874984154965
 70
     192
  0
VERTEX
  8
Layer0
10
389.2955584834365
20
347.41746446028424
30
136.9874984154966
 70
     192
  0
VERTEX
  8
Layer0
10
391.67101764402287
20
356.3917035205359
30
136.9874984154965
 70
     192
  0
VERTEX
  8
Layer0
10
391.6530518529079
20
356.11759851687384
30
136.9874984154965
 70
     192
  0
VERTEX
  8
Layer0
10
391.81290483463425
20
356.9212337248405
30
136.9874984154965
 70
     192
  0
VERTEX
  8
Layer0
10
394.02715685657006
20
358.19963272575865
30
136.9874984154965
 70
     192
  0
VERTEX
  8
Layer0
10
394.2965718476234
20
358.1460427520805
30
136.9874984154965
 70
     192
  0
VERTEX
  8
Layer0
10
394.55668706087476
20
358.05774553514726
30
136.9874984154965
 70
     192
  0
VERTEX
  8
Layer0
10
394.8030518529079
20
357.9362518648208
30
136.9874984154965
 70
     192
  0
VERTEX
  8
Layer0
10
395.0314508538264
20
357.783640531485
30
136.9874984154965
 70
     192
  0
VERTEX
  8
Layer0
10
395.23797609339977
20
357.6025227573652
30
136.9874984154965
 70
     192
  0
VERTEX
  8
Layer0
10
395.41909386751945
20
357.3959975177918
30
136.9874984154965
 70
     192
  0
VERTEX
  8
Layer0
10
395.57170520085526
20
357.1675985168734
30
136.9874984154965
 70
     192
  0
VERTEX
  8
Layer0
10
395.6931988711817
20
356.92123372484014
30
136.9874984154965
 70
     192
  0
VERTEX
  8
Layer0
10
395.7814960881149
20
356.6611185115887
30
136.9874984154965
 70
     192
  0
VERTEX
  8
Layer0
10
395.8350860617929
20
356.3917035205355
30
136.9874984154965
 70
     192
  0
VERTEX
  8
Layer0
10
515.2469551984976
20
358.21759851685965
30
136.98749841549696
 70
     192
  0
VERTEX
  8
Layer0
10
514.9728501948356
20
358.1996327257447
30
136.98749841549696
 70
     192
  0
VERTEX
  8
Layer0
10
454.1736878402595
20
352.34316234312
30
136.9874984154966
 70
     192
  0
VERTEX
  8
Layer0
10
453.85295570805295
20
352.27936475540787
30
136.9874984154966
 70
     192
  0
VERTEX
  8
Layer0
10
453.54329473989634
20
352.17424902096354
30
136.9874984154966
 70
     192
  0
VERTEX
  8
Layer0
10
453.2500033208089
20
352.02961369914624
30
136.9874984154966
 70
     192
  0
VERTEX
  8
Layer0
10
452.9780997482875
20
351.8479335404131
30
136.9874984154966
 70
     192
  0
VERTEX
  8
Layer0
10
452.73223636784195
20
351.63231714265135
30
136.9874984154966
 70
     192
  0
VERTEX
  8
Layer0
10
452.5166199700801
20
351.38645376220654
30
136.9874984154966
 70
     192
  0
VERTEX
  8
Layer0
10
440.93934355881504
20
338.05021036145894
30
136.98749841549662
 70
     192
  0
VERTEX
  8
Layer0
10
440.700965624916
20
337.7395501896793
30
136.98749841549662
 70
     192
  0
VERTEX
  8
Layer0
10
440.55111499115924
20
337.3777787573331
30
136.98749841549662
 70
     192
  0
VERTEX
  8
Layer0
10
440.50000373059265
20
336.9895501896794
30
136.98749841549662
 70
     192
  0
VERTEX
  8
Layer0
10
441.2500037305928
20
338.288588295356
30
136.98749841549662
 70
     192
  0
VERTEX
  8
Layer0
10
441.6117751629388
20
338.43843892911286
30
136.98749841549662
 70
     192
  0
VERTEX
  8
Layer0
10
442.00000373059265
20
338.48955018967894
30
136.98749841549662
 70
     192
  0
VERTEX
  8
Layer0
10
442.3882322982464
20
338.43843892911264
30
136.98749841549662
 70
     192
  0
VERTEX
  8
Layer0
10
442.7500037305929
20
338.28858829535557
30
136.98749841549662
 70
     192
  0
VERTEX
  8
Layer0
10
443.06066390237464
20
338.0502103614589
30
136.98749841549662
 70
     192
  0
VERTEX
  8
Layer0
10
443.29904183626934
20
337.73955018967916
30
136.98749841549662
 70
     192
  0
VERTEX
  8
Layer0
10
452.33493981134706
20
351.1145501896846
30
136.9874984154966
 70
     192
  0
VERTEX
  8
Layer0
10
443.44889247002646
20
337.37777875733286
30
136.98749841549662
 70
     192
  0
VERTEX
  8
Layer0
10
452.19030448952975
20
350.8212587705972
30
136.9874984154966
 70
     192
  0
VERTEX
  8
Layer0
10
452.08518875508526
20
350.51159780244063
30
136.9874984154966
 70
     192
  0
VERTEX
  8
Layer0
10
452.0213911673738
20
350.1908656702342
30
136.9874984154966
 70
     192
  0
VERTEX
  8
Layer0
10
449.67037418936445
20
333.1586454151967
30
136.9874984154966
 70
     192
  0
VERTEX
  8
Layer0
10
444.50000352569435
20
291.39227509924774
30
136.9874984154966
 70
     192
  0
VERTEX
  8
Layer0
10
444.50000352569265
20
271.3922750992478
30
136.9874984154966
 70
     192
  0
VERTEX
  8
Layer0
10
444.5000035256933
20
272.39227509924774
30
136.9874984154966
 70
     192
  0
VERTEX
  8
Layer0
10
450.1698763018856
20
334.3645501896843
30
136.9874984154966
 70
     192
  0
VERTEX
  8
Layer0
10
454.5000033208097
20
352.36455018968525
30
136.9874984154966
 70
     192
  0
VERTEX
  8
Layer0
10
454.8263188013602
20
352.3431623431198
30
136.9874984154966
 70
     192
  0
VERTEX
  8
Layer0
10
455.1470509335665
20
352.2793647554078
30
136.9874984154966
 70
     192
  0
VERTEX
  8
Layer0
10
455.4567119017231
20
352.1742490209632
30
136.9874984154966
 70
     192
  0
VERTEX
  8
Layer0
10
455.75000332081055
20
352.029613699146
30
136.9874984154966
 70
     192
  0
VERTEX
  8
Layer0
10
456.02190689333327
20
351.84793354041284
30
136.9874984154966
 70
     192
  0
VERTEX
  8
Layer0
10
456.2677702737771
20
351.6323171426509
30
136.9874984154966
 70
     192
  0
VERTEX
  8
Layer0
10
456.483386671539
20
351.38645376220626
30
136.9874984154966
 70
     192
  0
VERTEX
  8
Layer0
10
456.66506683027205
20
351.1145501896841
30
136.9874984154966
 70
     192
  0
VERTEX
  8
Layer0
10
456.8097021520893
20
350.82125877059667
30
136.9874984154966
 70
     192
  0
VERTEX
  8
Layer0
10
456.9148178865338
20
350.51159780244006
30
136.9874984154966
 70
     192
  0
VERTEX
  8
Layer0
10
456.97861547424634
20
350.1908656702336
30
136.9874984154966
 70
     192
  0
VERTEX
  8
Layer0
10
514.7034352037824
20
358.1460427520669
30
136.98749841549696
 70
     192
  0
VERTEX
  8
Layer0
10
514.443319990531
20
358.05774553513356
30
136.98749841549696
 70
     192
  0
VERTEX
  8
Layer0
10
466.6117751629389
20
338.4384389291105
30
136.9874984154966
 70
     192
  0
VERTEX
  8
Layer0
10
466.25000373059294
20
338.2885882953534
30
136.9874984154966
 70
     192
  0
VERTEX
  8
Layer0
10
458.83013033972986
20
334.36455018968337
30
136.9874984154966
 70
     192
  0
VERTEX
  8
Layer0
10
459.32963245225517
20
333.1586454151959
30
136.9874984154966
 70
     192
  0
VERTEX
  8
Layer0
10
465.9393435588149
20
338.0502103614568
30
136.9874984154966
 70
     192
  0
VERTEX
  8
Layer0
10
465.7009656249161
20
337.73955018967695
30
136.9874984154966
 70
     192
  0
VERTEX
  8
Layer0
10
465.55111499115935
20
337.3777787573308
30
136.9874984154966
 70
     192
  0
VERTEX
  8
Layer0
10
465.50000373059277
20
336.989550189677
30
136.9874984154966
 70
     192
  0
VERTEX
  8
Layer0
10
464.5000035256943
20
291.3922750992455
30
136.9874984154966
 70
     192
  0
VERTEX
  8
Layer0
10
467.00000373059277
20
338.48955018967683
30
136.9874984154966
 70
     192
  0
VERTEX
  8
Layer0
10
467.38823229824646
20
338.4384389291105
30
136.9874984154966
 70
     192
  0
VERTEX
  8
Layer0
10
467.75000373059294
20
338.2885882953534
30
136.9874984154966
 70
     192
  0
VERTEX
  8
Layer0
10
468.06066390237476
20
338.0502103614565
30
136.9874984154966
 70
     192
  0
VERTEX
  8
Layer0
10
468.29904183626945
20
337.73955018967655
30
136.9874984154966
 70
     192
  0
VERTEX
  8
Layer0
10
468.4488924700266
20
337.37777875733053
30
136.9874984154966
 70
     192
  0
VERTEX
  8
Layer0
10
514.1969551984976
20
357.936251864807
30
136.98749841549696
 70
     192
  0
VERTEX
  8
Layer0
10
513.9685561975791
20
357.7836405314714
30
136.98749841549696
 70
     192
  0
VERTEX
  8
Layer0
10
513.7620309580057
20
357.60252275735166
30
136.98749841549696
 70
     192
  0
VERTEX
  8
Layer0
10
513.5809131838861
20
357.3959975177783
30
136.98749841549696
 70
     192
  0
VERTEX
  8
Layer0
10
513.4283018505503
20
357.1675985168598
30
136.98749841549696
 70
     192
  0
VERTEX
  8
Layer0
10
513.3068081802238
20
356.92123372482655
30
136.98749841549696
 70
     192
  0
VERTEX
  8
Layer0
10
513.2185109632907
20
356.6611185115751
30
136.98749841549696
 70
     192
  0
VERTEX
  8
Layer0
10
513.1649209896125
20
356.391703520522
30
136.98749841549696
 70
     192
  0
VERTEX
  8
Layer0
10
513.1469551984974
20
356.1175985168599
30
136.98749841549696
 70
     192
  0
VERTEX
  8
Layer0
10
515.5210602021597
20
358.1996327257446
30
136.98749841549696
 70
     192
  0
VERTEX
  8
Layer0
10
515.7904751932131
20
358.14604275206665
30
136.98749841549696
 70
     192
  0
VERTEX
  8
Layer0
10
516.0505904064644
20
358.0577455351334
30
136.98749841549696
 70
     192
  0
VERTEX
  8
Layer0
10
516.2969551984976
20
357.9362518648069
30
136.98749841549696
 70
     192
  0
VERTEX
  8
Layer0
10
516.5253541994158
20
357.7836405314711
30
136.98749841549696
 70
     192
  0
VERTEX
  8
Layer0
10
516.7318794389893
20
357.6025227573513
30
136.98749841549696
 70
     192
  0
VERTEX
  8
Layer0
10
516.8396961929764
20
357.47958131190035
30
136.98749841549696
 70
     192
  0
VERTEX
  8
Layer0
10
516.8897472786311
20
357.4225089869668
30
136.98749841549696
 70
     192
  0
VERTEX
  8
Layer0
10
516.9129972131093
20
357.3959975177779
30
136.98749841549696
 70
     192
  0
VERTEX
  8
Layer0
10
517.0656085464449
20
357.16759851685947
30
136.98749841549696
 70
     192
  0
VERTEX
  8
Layer0
10
517.1871022167713
20
356.92123372482627
30
136.98749841549696
 70
     192
  0
VERTEX
  8
Layer0
10
517.2205272636702
20
356.86063727678646
30
136.98749841549696
 70
     192
  0
VERTEX
  8
Layer0
10
517.2753994337048
20
356.6611185115748
30
136.98749841549696
 70
     192
  0
VERTEX
  8
Layer0
10
517.3289894073824
20
356.39170352052145
30
136.98749841549696
 70
     192
  0
VERTEX
  8
Layer0
10
535.4789468492453
20
358.19963272574245
30
136.98749841549696
 70
     192
  0
VERTEX
  8
Layer0
10
535.2095318581922
20
358.1460427520645
30
136.98749841549696
 70
     192
  0
VERTEX
  8
Layer0
10
534.9494166449407
20
358.0577455351312
30
136.98749841549696
 70
     192
  0
VERTEX
  8
Layer0
10
534.7030518529075
20
357.93625186480494
30
136.98749841549696
 70
     192
  0
VERTEX
  8
Layer0
10
522.9371431358932
20
351.28965356400164
30
136.9874984154966
 70
     192
  0
VERTEX
  8
Layer0
10
522.7288770098785
20
351.1555051135746
30
136.9874984154966
 70
     192
  0
VERTEX
  8
Layer0
10
521.6203504110815
20
350.44148057040206
30
136.9874984154966
 70
     192
  0
VERTEX
  8
Layer0
10
520.9296498517438
20
349.6801069973165
30
136.9874984154966
 70
     192
  0
VERTEX
  8
Layer0
10
520.5679496346008
20
349.2813973350916
30
136.9874984154966
 70
     192
  0
VERTEX
  8
Layer0
10
520.0978421072618
20
348.36720047818346
30
136.9874984154966
 70
     192
  0
VERTEX
  8
Layer0
10
519.8516601801941
20
347.8884616134244
30
136.9874984154966
 70
     192
  0
VERTEX
  8
Layer0
10
519.6341827359433
20
346.8837424776919
30
136.9874984154966
 70
     192
  0
VERTEX
  8
Layer0
10
519.7992510691807
20
347.64633794444507
30
136.9874984154966
 70
     192
  0
VERTEX
  8
Layer0
10
520.4546601039364
20
349.0610883061332
30
136.9874984154966
 70
     192
  0
VERTEX
  8
Layer0
10
521.4539009550699
20
350.2579998777217
30
136.9874984154966
 70
     192
  0
VERTEX
  8
Layer0
10
522.0729196462407
20
350.73298962551985
30
136.9874984154966
 70
     192
  0
VERTEX
  8
Layer0
10
523.4497395436084
20
351.4540961516524
30
136.9874984154966
 70
     192
  0
VERTEX
  8
Layer0
10
524.1927007572468
20
351.6924405150848
30
136.9874984154966
 70
     192
  0
VERTEX
  8
Layer0
10
524.4285905609448
20
351.7681147280458
30
136.9874984154966
 70
     192
  0
VERTEX
  8
Layer0
10
524.9662815431266
20
351.79428435763145
30
136.9874984154966
 70
     192
  0
VERTEX
  8
Layer0
10
534.474652851989
20
357.783640531469
30
136.98749841549696
 70
     192
  0
VERTEX
  8
Layer0
10
525.7456150278588
20
351.83221482195944
30
136.9874984154966
 70
     192
  0
VERTEX
  8
Layer0
10
525.9930530089496
20
351.8442577249002
30
136.9874984154966
 70
     192
  0
VERTEX
  8
Layer0
10
526.5191958137505
20
351.73037097941034
30
136.9874984154966
 70
     192
  0
VERTEX
  8
Layer0
10
527.2817912804949
20
351.56530264617373
30
136.98749841549662
 70
     192
  0
VERTEX
  8
Layer0
10
534.2681276124156
20
357.6025227573493
30
136.98749841549696
 70
     192
  0
VERTEX
  8
Layer0
10
527.5239149494715
20
351.5128935351601
30
136.9874984154966
 70
     192
  0
VERTEX
  8
Layer0
10
528.0026538142188
20
351.2667116080988
30
136.98749841549662
 70
     192
  0
VERTEX
  8
Layer0
10
534.0870098382958
20
357.3959975177759
30
136.98749841549696
 70
     192
  0
VERTEX
  8
Layer0
10
528.6965416421865
20
350.9098936114154
30
136.9874984154966
 70
     192
  0
VERTEX
  8
Layer0
10
528.9168506711384
20
350.7966040807546
30
136.9874984154966
 70
     192
  0
VERTEX
  8
Layer0
10
529.3155603333616
20
350.4349038636138
30
136.9874984154966
 70
     192
  0
VERTEX
  8
Layer0
10
533.93439850496
20
357.16759851685754
30
136.98749841549696
 70
     192
  0
VERTEX
  8
Layer0
10
529.8934532137647
20
349.91065276029127
30
136.9874984154966
 70
     192
  0
VERTEX
  8
Layer0
10
530.0769339064497
20
349.7442033042754
30
136.9874984154966
 70
     192
  0
VERTEX
  8
Layer0
10
533.7794797877339
20
356.86063727677487
30
136.98749841549696
 70
     192
  0
VERTEX
  8
Layer0
10
530.368442961572
20
349.29163406910936
30
136.9874984154966
 70
     192
  0
VERTEX
  8
Layer0
10
530.7909584496223
20
348.6356767054781
30
136.9874984154966
 70
     192
  0
VERTEX
  8
Layer0
10
530.925106900049
20
348.4274105794637
30
136.9874984154966
 70
     192
  0
VERTEX
  8
Layer0
10
531.089549487704
20
347.91481417173594
30
136.9874984154966
 70
     192
  0
VERTEX
  8
Layer0
10
533.7246076177005
20
356.66111851157297
30
136.98749841549696
 70
     192
  0
VERTEX
  8
Layer0
10
531.3278938511298
20
347.1718529581211
30
136.9874984154966
 70
     192
  0
VERTEX
  8
Layer0
10
531.4035680640945
20
346.9359631544128
30
136.9874984154966
 70
     192
  0
VERTEX
  8
Layer0
10
531.4297376936813
20
346.3982721722035
30
136.9874984154966
 70
     192
  0
VERTEX
  8
Layer0
10
531.4676681580077
20
345.618938687507
30
136.9874984154966
 70
     192
  0
VERTEX
  8
Layer0
10
533.6710176440222
20
356.3917035205197
30
136.98749841549696
 70
     192
  0
VERTEX
  8
Layer0
10
533.6530518529072
20
356.11759851685764
30
136.98749841549696
 70
     192
  0
VERTEX
  8
Layer0
10
533.7962202779466
20
356.89098620189503
30
136.98749841549656
 70
     192
  0
VERTEX
  8
Layer0
10
533.8129048346337
20
356.9212337248243
30
136.98749841549696
 70
     192
  0
VERTEX
  8
Layer0
10
534.1102597728154
20
357.42250898701195
30
136.98749841549696
 70
     192
  0
VERTEX
  8
Layer0
10
534.160310858429
20
357.4795813118983
30
136.98749841549696
 70
     192
  0
VERTEX
  8
Layer0
10
535.7530518529076
20
358.21759851685744
30
136.98749841549696
 70
     192
  0
VERTEX
  8
Layer0
10
536.0271568565695
20
358.1996327257424
30
136.98749841549696
 70
     192
  0
VERTEX
  8
Layer0
10
536.2965718476229
20
358.1460427520644
30
136.98749841549696
 70
     192
  0
VERTEX
  8
Layer0
10
536.5566870608741
20
358.057745535131
30
136.98749841549696
 70
     192
  0
VERTEX
  8
Layer0
10
536.8030518529074
20
357.9362518648045
30
136.98749841549696
 70
     192
  0
VERTEX
  8
Layer0
10
537.0314508538257
20
357.7836405314688
30
136.98749841549696
 70
     192
  0
VERTEX
  8
Layer0
10
537.2379760933991
20
357.60252275734894
30
136.98749841549696
 70
     192
  0
VERTEX
  8
Layer0
10
537.419093867519
20
357.3959975177755
30
136.98749841549696
 70
     192
  0
VERTEX
  8
Layer0
10
537.5717052008548
20
357.1675985168571
30
136.98749841549696
 70
     192
  0
VERTEX
  8
Layer0
10
537.6931988711812
20
356.9212337248239
30
136.98749841549696
 70
     192
  0
VERTEX
  8
Layer0
10
537.7814960881145
20
356.66111851157257
30
136.98749841549696
 70
     192
  0
VERTEX
  8
Layer0
10
537.8350860617923
20
356.39170352051934
30
136.98749841549696
 70
     192
  0
VERTEX
  8
Layer0
10
557.5000035256932
20
273.89227509923546
30
136.9874984154966
 70
     192
  0
VERTEX
  8
Layer0
10
557.5511147862597
20
274.280503666889
30
136.9874984154966
 70
     192
  0
VERTEX
  8
Layer0
10
557.7009654200166
20
274.64227509923506
30
136.9874984154966
 70
     192
  0
VERTEX
  8
Layer0
10
557.9393433539157
20
274.9529352710153
30
136.9874984154966
 70
     192
  0
VERTEX
  8
Layer0
10
558.2500035256934
20
275.19131320491203
30
136.9874984154966
 70
     192
  0
VERTEX
  8
Layer0
10
558.6117749580402
20
275.34116383866854
30
136.9874984154966
 70
     192
  0
VERTEX
  8
Layer0
10
559.0000035256937
20
275.39227509923506
30
136.9874984154966
 70
     192
  0
VERTEX
  8
Layer0
10
559.3882320933478
20
275.3411638386684
30
136.9874984154966
 70
     192
  0
VERTEX
  8
Layer0
10
559.7500035256934
20
275.1913132049117
30
136.9874984154966
 70
     192
  0
VERTEX
  8
Layer0
10
560.0606636974754
20
274.95293527101467
30
136.9874984154966
 70
     192
  0
VERTEX
  8
Layer0
10
560.2990416313698
20
274.6422750992351
30
136.9874984154966
 70
     192
  0
VERTEX
  8
Layer0
10
560.448892265127
20
274.28050366688876
30
136.9874984154966
 70
     192
  0
VERTEX
  8
Layer0
10
557.5511147862362
20
65.28050366688903
30
136.9874984154966
 70
     192
  0
VERTEX
  8
Layer0
10
557.5511147862595
20
273.50404653158137
30
136.9874984154966
 70
     192
  0
VERTEX
  8
Layer0
10
557.7009654199937
20
65.64227509923522
30
136.9874984154966
 70
     192
  0
VERTEX
  8
Layer0
10
557.7009654200166
20
273.14227509923506
30
136.9874984154966
 70
     192
  0
VERTEX
  8
Layer0
10
557.9393433538924
20
65.95293527101504
30
136.9874984154966
 70
     192
  0
VERTEX
  8
Layer0
10
557.9393433539133
20
272.8316149274556
30
136.9874984154966
 70
     192
  0
VERTEX
  8
Layer0
10
558.2500035256701
20
66.19131320491184
30
136.9874984154966
 70
     192
  0
VERTEX
  8
Layer0
10
558.250003525693
20
272.59323699355866
30
136.9874984154966
 70
     192
  0
VERTEX
  8
Layer0
10
558.6117749580169
20
66.34116383866876
30
136.9874984154966
 70
     192
  0
VERTEX
  8
Layer0
10
558.6117749580393
20
272.4433863598013
30
136.9874984154966
 70
     192
  0
VERTEX
  8
Layer0
10
559.0000035256706
20
66.3922750992354
30
136.9874984154966
 70
     192
  0
VERTEX
  8
Layer0
10
559.000003525693
20
272.392275099235
30
136.9874984154966
 70
     192
  0
VERTEX
  8
Layer0
10
559.3882320933245
20
66.34116383866863
30
136.9874984154966
 70
     192
  0
VERTEX
  8
Layer0
10
559.3882320933469
20
272.4433863598012
30
136.9874984154966
 70
     192
  0
VERTEX
  8
Layer0
10
559.7500035256701
20
66.19131320491165
30
136.9874984154966
 70
     192
  0
VERTEX
  8
Layer0
10
559.750003525693
20
272.5932369935584
30
136.9874984154966
 70
     192
  0
VERTEX
  8
Layer0
10
560.0606636974521
20
65.95293527101477
30
136.9874984154966
 70
     192
  0
VERTEX
  8
Layer0
10
560.0606636974729
20
272.83161492745506
30
136.9874984154966
 70
     192
  0
VERTEX
  8
Layer0
10
560.2990416313471
20
65.64227509923495
30
136.9874984154966
 70
     192
  0
VERTEX
  8
Layer0
10
560.2990416313698
20
273.1422750992351
30
136.9874984154966
 70
     192
  0
VERTEX
  8
Layer0
10
560.4488922651034
20
65.28050366688868
30
136.9874984154966
 70
     192
  0
VERTEX
  8
Layer0
10
560.4488922651267
20
273.50404653158114
30
136.9874984154966
 70
     192
  0
VERTEX
  8
Layer0
10
533.67101764402
20
335.8856068661098
30
136.98749841549696
 70
     192
  0
VERTEX
  8
Layer0
10
533.6710176440225
20
355.84349351319554
30
136.98749841549696
 70
     192
  0
VERTEX
  8
Layer0
10
533.7246076176981
20
336.15502185716304
30
136.98749841549696
 70
     192
  0
VERTEX
  8
Layer0
10
533.7246076177003
20
355.5740785221424
30
136.98749841549696
 70
     192
  0
VERTEX
  8
Layer0
10
533.8129048346316
20
336.4151370704145
30
136.98749841549696
 70
     192
  0
VERTEX
  8
Layer0
10
533.8129048346335
20
355.313963308891
30
136.98749841549696
 70
     192
  0
VERTEX
  8
Layer0
10
533.9343985049578
20
336.6615018624477
30
136.98749841549696
 70
     192
  0
VERTEX
  8
Layer0
10
533.9343985049601
20
355.06759851685763
30
136.98749841549696
 70
     192
  0
VERTEX
  8
Layer0
10
534.0870098382934
20
336.8899008633661
30
136.98749841549696
 70
     192
  0
VERTEX
  8
Layer0
10
534.0870098382956
20
354.83919951593924
30
136.98749841549696
 70
     192
  0
VERTEX
  8
Layer0
10
534.2681276124133
20
337.0964261029395
30
136.98749841549696
 70
     192
  0
VERTEX
  8
Layer0
10
534.2681276124154
20
354.63267427636583
30
136.98749841549696
 70
     192
  0
VERTEX
  8
Layer0
10
534.4746528519871
20
337.27754387705926
30
136.98749841549696
 70
     192
  0
VERTEX
  8
Layer0
10
534.4746528519887
20
354.4515565022459
30
136.98749841549696
 70
     192
  0
VERTEX
  8
Layer0
10
534.7030518529051
20
337.43015521039507
30
136.98749841549696
 70
     192
  0
VERTEX
  8
Layer0
10
534.7030518529073
20
354.2989451689102
30
136.98749841549696
 70
     192
  0
VERTEX
  8
Layer0
10
534.9494166449385
20
337.55164888072136
30
136.98749841549696
 70
     192
  0
VERTEX
  8
Layer0
10
534.9494166449405
20
354.17745149858376
30
136.98749841549696
 70
     192
  0
VERTEX
  8
Layer0
10
535.20953185819
20
337.6399460976547
30
136.98749841549696
 70
     192
  0
VERTEX
  8
Layer0
10
535.2095318581918
20
354.0891542816504
30
136.98749841549696
 70
     192
  0
VERTEX
  8
Layer0
10
535.4789468492431
20
337.6935360713327
30
136.98749841549696
 70
     192
  0
VERTEX
  8
Layer0
10
535.4789468492451
20
354.0355643079725
30
136.98749841549696
 70
     192
  0
VERTEX
  8
Layer0
10
535.7530518529052
20
337.7115018624475
30
136.98749841549696
 70
     192
  0
VERTEX
  8
Layer0
10
535.7530518529071
20
354.01759851685733
30
136.98749841549696
 70
     192
  0
VERTEX
  8
Layer0
10
536.0271568565672
20
337.6935360713326
30
136.98749841549696
 70
     192
  0
VERTEX
  8
Layer0
10
536.0271568565693
20
354.0355643079723
30
136.98749841549696
 70
     192
  0
VERTEX
  8
Layer0
10
536.2965718476206
20
337.6399460976546
30
136.98749841549696
 70
     192
  0
VERTEX
  8
Layer0
10
536.2965718476224
20
354.0891542816503
30
136.98749841549696
 70
     192
  0
VERTEX
  8
Layer0
10
536.4960906128342
20
337.58507392761993
30
136.98749841549696
 70
     192
  0
VERTEX
  8
Layer0
10
536.3961780972087
20
354.11654825162344
30
136.9874984154966
 70
     192
  0
VERTEX
  8
Layer0
10
536.4960906128326
20
354.14402645167945
30
136.98749841549696
 70
     192
  0
VERTEX
  8
Layer0
10
536.5566870608739
20
354.1774514985836
30
136.98749841549696
 70
     192
  0
VERTEX
  8
Layer0
10
536.5566870608718
20
337.5516488807212
30
136.98749841549696
 70
     192
  0
VERTEX
  8
Layer0
10
536.8030518529052
20
337.4301552103948
30
136.98749841549696
 70
     192
  0
VERTEX
  8
Layer0
10
536.8030518529073
20
354.29894516890994
30
136.98749841549696
 70
     192
  0
VERTEX
  8
Layer0
10
537.0314508538238
20
337.2775438770591
30
136.98749841549696
 70
     192
  0
VERTEX
  8
Layer0
10
537.0314508538254
20
354.45155650224564
30
136.98749841549696
 70
     192
  0
VERTEX
  8
Layer0
10
537.0579623230244
20
337.25429394257065
30
136.98749841549696
 70
     192
  0
VERTEX
  8
Layer0
10
537.0579623230618
20
354.47480643676545
30
136.98749841549696
 70
     192
  0
VERTEX
  8
Layer0
10
537.115034647946
20
337.20424285692604
30
136.98749841549696
 70
     192
  0
VERTEX
  8
Layer0
10
537.1150346479478
20
354.5248575223787
30
136.98749841549696
 70
     192
  0
VERTEX
  8
Layer0
10
537.237976093397
20
337.0964261029391
30
136.98749841549696
 70
     192
  0
VERTEX
  8
Layer0
10
537.2379760933987
20
354.6326742763655
30
136.98749841549696
 70
     192
  0
VERTEX
  8
Layer0
10
537.4190938675166
20
336.88990086336577
30
136.98749841549696
 70
     192
  0
VERTEX
  8
Layer0
10
537.4190938675188
20
354.8391995159389
30
136.98749841549696
 70
     192
  0
VERTEX
  8
Layer0
10
537.5717052008524
20
336.6615018624472
30
136.98749841549696
 70
     192
  0
VERTEX
  8
Layer0
10
537.5717052008548
20
355.06759851685706
30
136.98749841549696
 70
     192
  0
VERTEX
  8
Layer0
10
537.6931988711791
20
336.41513707041406
30
136.98749841549696
 70
     192
  0
VERTEX
  8
Layer0
10
537.6931988711809
20
355.3139633088905
30
136.98749841549696
 70
     192
  0
VERTEX
  8
Layer0
10
537.7814960881121
20
336.1550218571627
30
136.98749841549696
 70
     192
  0
VERTEX
  8
Layer0
10
537.7814960881143
20
355.5740785221419
30
136.98749841549696
 70
     192
  0
VERTEX
  8
Layer0
10
537.83508606179
20
335.88560686610947
30
136.98749841549696
 70
     192
  0
VERTEX
  8
Layer0
10
537.8350860617926
20
355.84349351319514
30
136.98749841549696
 70
     192
  0
VERTEX
  8
Layer0
10
513.1649209896102
20
335.8856068661122
30
136.98749841549696
 70
     192
  0
VERTEX
  8
Layer0
10
513.1649209896127
20
355.8434935131978
30
136.98749841549696
 70
     192
  0
VERTEX
  8
Layer0
10
513.2185109632883
20
336.15502185716537
30
136.98749841549696
 70
     192
  0
VERTEX
  8
Layer0
10
513.2185109632904
20
355.57407852214453
30
136.98749841549696
 70
     192
  0
VERTEX
  8
Layer0
10
513.3068081802218
20
336.4151370704168
30
136.98749841549696
 70
     192
  0
VERTEX
  8
Layer0
10
513.3068081802236
20
355.31396330889316
30
136.98749841549696
 70
     192
  0
VERTEX
  8
Layer0
10
513.4283018505478
20
336.66150186245
30
136.98749841549696
 70
     192
  0
VERTEX
  8
Layer0
10
513.4283018505502
20
355.06759851685985
30
136.98749841549696
 70
     192
  0
VERTEX
  8
Layer0
10
513.5809131838836
20
336.88990086336844
30
136.98749841549696
 70
     192
  0
VERTEX
  8
Layer0
10
513.5809131838856
20
354.83919951594163
30
136.98749841549696
 70
     192
  0
VERTEX
  8
Layer0
10
513.7620309580036
20
337.0964261029417
30
136.98749841549696
 70
     192
  0
VERTEX
  8
Layer0
10
513.7620309580055
20
354.632674276368
30
136.98749841549696
 70
     192
  0
VERTEX
  8
Layer0
10
513.8849724034548
20
337.2042428569286
30
136.98749841549696
 70
     192
  0
VERTEX
  8
Layer0
10
513.8849724034566
20
354.52485752238124
30
136.98749841549696
 70
     192
  0
VERTEX
  8
Layer0
10
513.9420447283794
20
337.2542939425758
30
136.98749841549696
 70
     192
  0
VERTEX
  8
Layer0
10
513.9420447283055
20
354.47480643680046
30
136.98749841549696
 70
     192
  0
VERTEX
  8
Layer0
10
513.9685561975789
20
354.45155650224825
30
136.98749841549696
 70
     192
  0
VERTEX
  8
Layer0
10
513.9685561975772
20
337.27754387706165
30
136.98749841549696
 70
     192
  0
VERTEX
  8
Layer0
10
514.1969551984954
20
337.4301552103973
30
136.98749841549696
 70
     192
  0
VERTEX
  8
Layer0
10
514.1969551984974
20
354.29894516891244
30
136.98749841549696
 70
     192
  0
VERTEX
  8
Layer0
10
514.4433199905287
20
337.55164888072375
30
136.98749841549696
 70
     192
  0
VERTEX
  8
Layer0
10
514.4433199905307
20
354.1774514985861
30
136.98749841549696
 70
     192
  0
VERTEX
  8
Layer0
10
514.5039164385715
20
337.5850739276232
30
136.98749841549696
 70
     192
  0
VERTEX
  8
Layer0
10
514.5039164385714
20
354.1440264516879
30
136.98749841549696
 70
     192
  0
VERTEX
  8
Layer0
10
514.703435203782
20
354.0891542816526
30
136.98749841549696
 70
     192
  0
VERTEX
  8
Layer0
10
514.7034352037801
20
337.6399460976569
30
136.98749841549696
 70
     192
  0
VERTEX
  8
Layer0
10
514.9728501948333
20
337.6935360713349
30
136.98749841549696
 70
     192
  0
VERTEX
  8
Layer0
10
514.9728501948351
20
354.03556430797465
30
136.98749841549696
 70
     192
  0
VERTEX
  8
Layer0
10
515.2469551984954
20
337.71150186244995
30
136.98749841549696
 70
     192
  0
VERTEX
  8
Layer0
10
515.2469551984972
20
354.0175985168597
30
136.98749841549696
 70
     192
  0
VERTEX
  8
Layer0
10
515.5210602021575
20
337.6935360713348
30
136.98749841549696
 70
     192
  0
VERTEX
  8
Layer0
10
515.5210602021593
20
354.03556430797454
30
136.98749841549696
 70
     192
  0
VERTEX
  8
Layer0
10
515.7904751932106
20
337.63994609765683
30
136.98749841549696
 70
     192
  0
VERTEX
  8
Layer0
10
515.7904751932126
20
354.08915428165255
30
136.98749841549696
 70
     192
  0
VERTEX
  8
Layer0
10
516.0505904064621
20
337.5516488807236
30
136.98749841549696
 70
     192
  0
VERTEX
  8
Layer0
10
516.050590406464
20
354.1774514985859
30
136.98749841549696
 70
     192
  0
VERTEX
  8
Layer0
10
516.2969551984952
20
337.43015521039706
30
136.98749841549696
 70
     192
  0
VERTEX
  8
Layer0
10
516.2969551984974
20
354.2989451689122
30
136.98749841549696
 70
     192
  0
VERTEX
  8
Layer0
10
516.5253541994139
20
337.2775438770613
30
136.98749841549696
 70
     192
  0
VERTEX
  8
Layer0
10
516.5253541994156
20
354.451556502248
30
136.98749841549696
 70
     192
  0
VERTEX
  8
Layer0
10
516.731879438987
20
337.09642610294145
30
136.98749841549696
 70
     192
  0
VERTEX
  8
Layer0
10
516.731879438989
20
354.6326742763679
30
136.98749841549696
 70
     192
  0
VERTEX
  8
Layer0
10
516.9129972131068
20
336.889900863368
30
136.98749841549696
 70
     192
  0
VERTEX
  8
Layer0
10
516.9129972131088
20
354.83919951594123
30
136.98749841549696
 70
     192
  0
VERTEX
  8
Layer0
10
517.0656085464426
20
336.6615018624497
30
136.98749841549696
 70
     192
  0
VERTEX
  8
Layer0
10
517.065608546445
20
355.06759851685945
30
136.98749841549696
 70
     192
  0
VERTEX
  8
Layer0
10
517.1871022167693
20
336.4151370704163
30
136.98749841549696
 70
     192
  0
VERTEX
  8
Layer0
10
517.1871022167711
20
355.3139633088927
30
136.98749841549696
 70
     192
  0
VERTEX
  8
Layer0
10
517.2753994337023
20
336.15502185716497
30
136.98749841549696
 70
     192
  0
VERTEX
  8
Layer0
10
517.2753994337045
20
355.57407852214413
30
136.98749841549696
 70
     192
  0
VERTEX
  8
Layer0
10
517.3289894073803
20
335.88560686611163
30
136.98749841549696
 70
     192
  0
VERTEX
  8
Layer0
10
517.3289894073828
20
355.84349351319725
30
136.98749841549696
 70
     192
  0
VERTEX
  8
Layer0
10
465.5511148831263
20
327.12777836990557
30
136.98749841549656
 70
     192
  0
VERTEX
  8
Layer0
10
465.55111499115924
20
336.60132162202325
30
136.9874984154966
 70
     192
  0
VERTEX
  8
Layer0
10
465.70096551688556
20
327.4895498022517
30
136.98749841549656
 70
     192
  0
VERTEX
  8
Layer0
10
465.7009656249161
20
336.23955018967695
30
136.9874984154966
 70
     192
  0
VERTEX
  8
Layer0
10
465.9393434507805
20
327.80020997403165
30
136.98749841549656
 70
     192
  0
VERTEX
  8
Layer0
10
465.9393435588127
20
335.9288900178972
30
136.9874984154966
 70
     192
  0
VERTEX
  8
Layer0
10
466.2500036225604
20
328.03858790792805
30
136.98749841549656
 70
     192
  0
VERTEX
  8
Layer0
10
466.2500037305948
20
335.69051208399986
30
136.9874984154966
 70
     192
  0
VERTEX
  8
Layer0
10
466.61177505490656
20
328.1884385416853
30
136.98749841549656
 70
     192
  0
VERTEX
  8
Layer0
10
466.6117751629409
20
335.54066145024325
30
136.9874984154966
 70
     192
  0
VERTEX
  8
Layer0
10
467.00000362256225
20
328.2395498022515
30
136.98749841549656
 70
     192
  0
VERTEX
  8
Layer0
10
467.00000373059277
20
335.4895501896768
30
136.9874984154966
 70
     192
  0
VERTEX
  8
Layer0
10
467.3882321902141
20
328.18843854168523
30
136.98749841549656
 70
     192
  0
VERTEX
  8
Layer0
10
467.38823229824845
20
335.54066145024314
30
136.9874984154966
 70
     192
  0
VERTEX
  8
Layer0
10
467.7500036225604
20
328.0385879079282
30
136.98749841549656
 70
     192
  0
VERTEX
  8
Layer0
10
467.75000373059487
20
335.69051208400003
30
136.9874984154966
 70
     192
  0
VERTEX
  8
Layer0
10
468.06066379434026
20
327.8002099740313
30
136.98749841549656
 70
     192
  0
VERTEX
  8
Layer0
10
468.0606639023725
20
335.9288900178968
30
136.9874984154966
 70
     192
  0
VERTEX
  8
Layer0
10
468.29904172823893
20
327.4895498022514
30
136.98749841549656
 70
     192
  0
VERTEX
  8
Layer0
10
468.2990418362696
20
336.23955018967655
30
136.9874984154966
 70
     192
  0
VERTEX
  8
Layer0
10
468.44889236199367
20
327.12777836990534
30
136.98749841549656
 70
     192
  0
VERTEX
  8
Layer0
10
468.44889247002646
20
336.6013216220229
30
136.9874984154966
 70
     192
  0
VERTEX
  8
Layer0
10
444.84074526279284
20
171.98046555027298
30
136.9874984154966
 70
     192
  0
VERTEX
  8
Layer0
10
445.50000352569276
20
271.3922750992477
30
136.9874984154966
 70
     192
  0
VERTEX
  8
Layer0
10
445.8397494878394
20
174.39227509924763
30
136.9874984154966
 70
     192
  0
VERTEX
  8
Layer0
10
447.50000347446843
20
263.73534387185657
30
136.9874984154966
 70
     192
  0
VERTEX
  8
Layer0
10
447.5681518218917
20
264.2529819620616
30
136.9874984154966
 70
     192
  0
VERTEX
  8
Layer0
10
447.7679526669011
20
264.73534387185657
30
136.9874984154966
 70
     192
  0
VERTEX
  8
Layer0
10
448.0857899120985
20
265.1495574342299
30
136.9874984154966
 70
     192
  0
VERTEX
  8
Layer0
10
448.50000347446877
20
265.46739467942564
30
136.9874984154966
 70
     192
  0
VERTEX
  8
Layer0
10
448.98236538426454
20
265.66719552443465
30
136.9874984154966
 70
     192
  0
VERTEX
  8
Layer0
10
463.5000035256925
20
271.3922750992456
30
136.9874984154966
 70
     192
  0
VERTEX
  8
Layer0
10
447.428935713818
20
176.46334291111296
30
136.9874984154966
 70
     192
  0
VERTEX
  8
Layer0
10
449.50000347446854
20
265.7353438718565
30
136.9874984154966
 70
     192
  0
VERTEX
  8
Layer0
10
450.0176415646747
20
265.6671955244344
30
136.9874984154966
 70
     192
  0
VERTEX
  8
Layer0
10
450.50000347446866
20
265.46739467942507
30
136.9874984154966
 70
     192
  0
VERTEX
  8
Layer0
10
450.9142170368445
20
265.14955743422905
30
136.9874984154966
 70
     192
  0
VERTEX
  8
Layer0
10
451.23205428203903
20
264.7353438718563
30
136.9874984154966
 70
     192
  0
VERTEX
  8
Layer0
10
451.43185512704787
20
264.25298196206126
30
136.9874984154966
 70
     192
  0
VERTEX
  8
Layer0
10
451.50000347446826
20
263.7353438718562
30
136.9874984154966
 70
     192
  0
VERTEX
  8
Layer0
10
458.0857899120984
20
265.1495574342285
30
136.9874984154966
 70
     192
  0
VERTEX
  8
Layer0
10
457.7679526669012
20
264.7353438718565
30
136.9874984154966
 70
     192
  0
VERTEX
  8
Layer0
10
457.5681518218916
20
264.2529819620606
30
136.9874984154966
 70
     192
  0
VERTEX
  8
Layer0
10
451.9118130746578
20
179.05153336213766
30
136.9874984154966
 70
     192
  0
VERTEX
  8
Layer0
10
454.5000035256843
20
179.39227509924663
30
136.9874984154966
 70
     192
  0
VERTEX
  8
Layer0
10
458.5000034744688
20
265.4673946794243
30
136.9874984154966
 70
     192
  0
VERTEX
  8
Layer0
10
458.9823653842646
20
265.6671955244344
30
136.9874984154966
 70
     192
  0
VERTEX
  8
Layer0
10
459.5000034744686
20
265.7353438718552
30
136.9874984154966
 70
     192
  0
VERTEX
  8
Layer0
10
460.01764156467476
20
265.6671955244334
30
136.9874984154966
 70
     192
  0
VERTEX
  8
Layer0
10
460.5000034744687
20
265.46739467942405
30
136.9874984154966
 70
     192
  0
VERTEX
  8
Layer0
10
460.91421703684443
20
265.14955743422826
30
136.9874984154966
 70
     192
  0
VERTEX
  8
Layer0
10
461.2320542820391
20
264.73534387185504
30
136.9874984154966
 70
     192
  0
VERTEX
  8
Layer0
10
461.43185512704775
20
264.25298196205995
30
136.9874984154966
 70
     192
  0
VERTEX
  8
Layer0
10
463.16025756352826
20
174.39227509924555
30
136.9874984154966
 70
     192
  0
VERTEX
  8
Layer0
10
464.1592617885743
20
171.98046555027068
30
136.9874984154966
 70
     192
  0
VERTEX
  8
Layer0
10
452.0000033208092
20
327.53442317076184
30
136.9874984154966
 70
     192
  0
VERTEX
  8
Layer0
10
452.0213911673707
20
314.19086567023396
30
136.9874984154966
 70
     192
  0
VERTEX
  8
Layer0
10
453.20590809529426
20
327.03492105823847
30
136.9874984154966
 70
     192
  0
VERTEX
  8
Layer0
10
452.0851887550832
20
314.5115978024402
30
136.9874984154966
 70
     192
  0
VERTEX
  8
Layer0
10
452.19030448952725
20
314.8212587705965
30
136.9874984154966
 70
     192
  0
VERTEX
  8
Layer0
10
452.33493981134444
20
315.11455018968377
30
136.9874984154966
 70
     192
  0
VERTEX
  8
Layer0
10
452.51661997007795
20
315.38645376220535
30
136.9874984154966
 70
     192
  0
VERTEX
  8
Layer0
10
452.7322363678391
20
315.63231714265015
30
136.9874984154966
 70
     192
  0
VERTEX
  8
Layer0
10
452.9780997482838
20
315.84793354041176
30
136.9874984154966
 70
     192
  0
VERTEX
  8
Layer0
10
453.2500033208056
20
316.02961369914465
30
136.9874984154966
 70
     192
  0
VERTEX
  8
Layer0
10
454.5000033208071
20
326.86455018968365
30
136.9874984154966
 70
     192
  0
VERTEX
  8
Layer0
10
453.5432947398934
20
316.1742490209619
30
136.9874984154966
 70
     192
  0
VERTEX
  8
Layer0
10
453.8529557080493
20
316.27936475540633
30
136.9874984154966
 70
     192
  0
VERTEX
  8
Layer0
10
454.1736878402555
20
316.3431623431181
30
136.9874984154966
 70
     192
  0
VERTEX
  8
Layer0
10
454.50000332080555
20
316.36455018968354
30
136.9874984154966
 70
     192
  0
VERTEX
  8
Layer0
10
454.8263188013558
20
316.3431623431181
30
136.9874984154966
 70
     192
  0
VERTEX
  8
Layer0
10
455.7940985463196
20
327.0349210582384
30
136.9874984154966
 70
     192
  0
VERTEX
  8
Layer0
10
455.14705093356184
20
316.27936475540616
30
136.9874984154966
 70
     192
  0
VERTEX
  8
Layer0
10
455.45671190171885
20
316.17424902096167
30
136.9874984154966
 70
     192
  0
VERTEX
  8
Layer0
10
455.75000332080555
20
316.0296136991444
30
136.9874984154966
 70
     192
  0
VERTEX
  8
Layer0
10
456.0219068933272
20
315.8479335404114
30
136.9874984154966
 70
     192
  0
VERTEX
  8
Layer0
10
456.2677702737719
20
315.6323171426497
30
136.9874984154966
 70
     192
  0
VERTEX
  8
Layer0
10
456.4833866715341
20
315.386453762205
30
136.9874984154966
 70
     192
  0
VERTEX
  8
Layer0
10
456.66506683026654
20
315.11455018968326
30
136.9874984154966
 70
     192
  0
VERTEX
  8
Layer0
10
456.80970215208373
20
314.82125877059605
30
136.9874984154966
 70
     192
  0
VERTEX
  8
Layer0
10
456.9148178865285
20
314.5115978024396
30
136.9874984154966
 70
     192
  0
VERTEX
  8
Layer0
10
456.97861547423986
20
314.1908656702334
30
136.9874984154966
 70
     192
  0
VERTEX
  8
Layer0
10
444.5000035256946
20
290.3922750992477
30
136.9874984154966
 70
     192
  0
VERTEX
  8
Layer0
10
449.5000035256829
20
178.05252913709168
30
136.9874984154966
 70
     192
  0
VERTEX
  8
Layer0
10
447.5681518218916
20
263.2177057816515
30
136.9874984154966
 70
     192
  0
VERTEX
  8
Layer0
10
447.7679526669024
20
262.73534387185657
30
136.9874984154966
 70
     192
  0
VERTEX
  8
Layer0
10
448.08578991209663
20
262.3211303094838
30
136.9874984154966
 70
     192
  0
VERTEX
  8
Layer0
10
448.5000034744706
20
262.0032930642879
30
136.9874984154966
 70
     192
  0
VERTEX
  8
Layer0
10
448.9823653842639
20
261.8034922192784
30
136.9874984154966
 70
     192
  0
VERTEX
  8
Layer0
10
449.50000347446826
20
261.7353438718565
30
136.9874984154966
 70
     192
  0
VERTEX
  8
Layer0
10
450.0176415646741
20
261.8034922192781
30
136.9874984154966
 70
     192
  0
VERTEX
  8
Layer0
10
450.5000034744705
20
262.0032930642872
30
136.9874984154966
 70
     192
  0
VERTEX
  8
Layer0
10
450.9142170368426
20
262.32113030948295
30
136.9874984154966
 70
     192
  0
VERTEX
  8
Layer0
10
451.2320542820403
20
262.7353438718563
30
136.9874984154966
 70
     192
  0
VERTEX
  8
Layer0
10
451.43185512704775
20
263.2177057816511
30
136.9874984154966
 70
     192
  0
VERTEX
  8
Layer0
10
440.5511148831262
20
327.12777836990693
30
136.9874984154966
 70
     192
  0
VERTEX
  8
Layer0
10
440.5511149911592
20
336.6013216220256
30
136.98749841549662
 70
     192
  0
VERTEX
  8
Layer0
10
440.7009655168855
20
327.4895498022532
30
136.9874984154966
 70
     192
  0
VERTEX
  8
Layer0
10
440.700965624916
20
336.2395501896794
30
136.98749841549662
 70
     192
  0
VERTEX
  8
Layer0
10
440.93934345078037
20
327.8002099740329
30
136.9874984154966
 70
     192
  0
VERTEX
  8
Layer0
10
440.93934355881277
20
335.92889001789933
30
136.98749841549662
 70
     192
  0
VERTEX
  8
Layer0
10
441.2500036225603
20
328.0385879079298
30
136.9874984154966
 70
     192
  0
VERTEX
  8
Layer0
10
441.25000373059476
20
335.6905120840027
30
136.98749841549662
 70
     192
  0
VERTEX
  8
Layer0
10
441.61177505490645
20
328.18843854168676
30
136.9874984154966
 70
     192
  0
VERTEX
  8
Layer0
10
441.6117751629408
20
335.5406614502458
30
136.98749841549662
 70
     192
  0
VERTEX
  8
Layer0
10
442.00000362256236
20
328.2395498022527
30
136.9874984154966
 70
     192
  0
VERTEX
  8
Layer0
10
442.0000037305925
20
335.4895501896791
30
136.98749841549662
 70
     192
  0
VERTEX
  8
Layer0
10
442.38823219021424
20
328.1884385416864
30
136.9874984154966
 70
     192
  0
VERTEX
  8
Layer0
10
442.3882322982484
20
335.54066145024547
30
136.98749841549662
 70
     192
  0
VERTEX
  8
Layer0
10
442.75000362256037
20
328.0385879079293
30
136.9874984154966
 70
     192
  0
VERTEX
  8
Layer0
10
442.75000373059476
20
335.6905120840022
30
136.98749841549662
 70
     192
  0
VERTEX
  8
Layer0
10
443.06066379434014
20
327.8002099740328
30
136.9874984154966
 70
     192
  0
VERTEX
  8
Layer0
10
443.06066390237237
20
335.9288900178993
30
136.98749841549662
 70
     192
  0
VERTEX
  8
Layer0
10
443.2990417282388
20
327.48954980225295
30
136.9874984154966
 70
     192
  0
VERTEX
  8
Layer0
10
443.29904183626934
20
336.23955018967916
30
136.98749841549662
 70
     192
  0
VERTEX
  8
Layer0
10
443.4488923619936
20
327.12777836990665
30
136.9874984154966
 70
     192
  0
VERTEX
  8
Layer0
10
443.4488924700262
20
336.60132162202524
30
136.98749841549662
 70
     192
  0
VERTEX
  8
Layer0
10
391.6710176440207
20
335.8856068661261
30
136.9874984154965
 70
     192
  0
VERTEX
  8
Layer0
10
391.67101764402264
20
355.84349351321174
30
136.9874984154965
 70
     192
  0
VERTEX
  8
Layer0
10
391.7246076176985
20
336.15502185717924
30
136.9874984154965
 70
     192
  0
VERTEX
  8
Layer0
10
391.72460761770066
20
355.5740785221586
30
136.9874984154965
 70
     192
  0
VERTEX
  8
Layer0
10
391.8129048346318
20
336.41513707043066
30
136.9874984154965
 70
     192
  0
VERTEX
  8
Layer0
10
391.8129048346341
20
355.3139633089071
30
136.9874984154965
 70
     192
  0
VERTEX
  8
Layer0
10
391.9343985049584
20
336.6615018624639
30
136.9874984154965
 70
     192
  0
VERTEX
  8
Layer0
10
391.93439850496037
20
355.0675985168737
30
136.9874984154965
 70
     192
  0
VERTEX
  8
Layer0
10
392.087009838294
20
336.8899008633823
30
136.9874984154965
 70
     192
  0
VERTEX
  8
Layer0
10
392.08700983829607
20
354.8391995159555
30
136.9874984154965
 70
     192
  0
VERTEX
  8
Layer0
10
392.268127612414
20
337.0964261029557
30
136.9874984154965
 70
     192
  0
VERTEX
  8
Layer0
10
392.268127612416
20
354.6326742763821
30
136.9874984154965
 70
     192
  0
VERTEX
  8
Layer0
10
392.47465285198734
20
337.2775438770755
30
136.9874984154965
 70
     192
  0
VERTEX
  8
Layer0
10
392.47465285198945
20
354.4515565022621
30
136.9874984154965
 70
     192
  0
VERTEX
  8
Layer0
10
392.70305185290584
20
337.4301552104112
30
136.9874984154965
 70
     192
  0
VERTEX
  8
Layer0
10
392.70305185290755
20
354.29894516892637
30
136.9874984154965
 70
     192
  0
VERTEX
  8
Layer0
10
392.94941664493905
20
337.5516488807377
30
136.9874984154965
 70
     192
  0
VERTEX
  8
Layer0
10
392.9494166449408
20
354.17745149859996
30
136.9874984154965
 70
     192
  0
VERTEX
  8
Layer0
10
393.20953185819036
20
337.639946097671
30
136.9874984154965
 70
     192
  0
VERTEX
  8
Layer0
10
393.20953185819235
20
354.0891542816667
30
136.9874984154965
 70
     192
  0
VERTEX
  8
Layer0
10
393.4789468492435
20
337.69353607134883
30
136.9874984154965
 70
     192
  0
VERTEX
  8
Layer0
10
393.4789468492455
20
354.0355643079886
30
136.9874984154965
 70
     192
  0
VERTEX
  8
Layer0
10
393.7530518529057
20
337.7115018624639
30
136.9874984154965
 70
     192
  0
VERTEX
  8
Layer0
10
393.7530518529076
20
354.0175985168736
30
136.9874984154965
 70
     192
  0
VERTEX
  8
Layer0
10
394.02715685656773
20
337.69353607134866
30
136.9874984154965
 70
     192
  0
VERTEX
  8
Layer0
10
394.0271568565697
20
354.03556430798864
30
136.9874984154965
 70
     192
  0
VERTEX
  8
Layer0
10
394.29657184762095
20
337.63994609767076
30
136.9874984154965
 70
     192
  0
VERTEX
  8
Layer0
10
394.29657184762294
20
354.0891542816665
30
136.9874984154965
 70
     192
  0
VERTEX
  8
Layer0
10
394.5566870608724
20
337.5516488807375
30
136.9874984154965
 70
     192
  0
VERTEX
  8
Layer0
10
394.49609061283303
20
354.1440264516958
30
136.9874984154965
 70
     192
  0
VERTEX
  8
Layer0
10
394.5566870608743
20
354.1774514985998
30
136.9874984154965
 70
     192
  0
VERTEX
  8
Layer0
10
394.8030518529058
20
337.430155210411
30
136.9874984154965
 70
     192
  0
VERTEX
  8
Layer0
10
394.80305185290763
20
354.29894516892614
30
136.9874984154965
 70
     192
  0
VERTEX
  8
Layer0
10
395.031450853824
20
337.2775438770751
30
136.9874984154965
 70
     192
  0
VERTEX
  8
Layer0
10
395.03145085382613
20
354.4515565022618
30
136.9874984154965
 70
     192
  0
VERTEX
  8
Layer0
10
395.11503464794635
20
337.2042428569422
30
136.9874984154965
 70
     192
  0
VERTEX
  8
Layer0
10
395.0579623230625
20
354.47480643678153
30
136.9874984154965
 70
     192
  0
VERTEX
  8
Layer0
10
395.11503464794856
20
354.5248575223948
30
136.9874984154965
 70
     192
  0
VERTEX
  8
Layer0
10
395.2379760933975
20
337.09642610295543
30
136.9874984154965
 70
     192
  0
VERTEX
  8
Layer0
10
395.2379760933994
20
354.63267427638175
30
136.9874984154965
 70
     192
  0
VERTEX
  8
Layer0
10
395.41909386751723
20
336.8899008633819
30
136.9874984154965
 70
     192
  0
VERTEX
  8
Layer0
10
395.4190938675193
20
354.8391995159551
30
136.9874984154965
 70
     192
  0
VERTEX
  8
Layer0
10
395.5717052008531
20
336.6615018624636
30
136.9874984154965
 70
     192
  0
VERTEX
  8
Layer0
10
395.57170520085504
20
355.0675985168733
30
136.9874984154965
 70
     192
  0
VERTEX
  8
Layer0
10
395.6931988711792
20
336.4151370704303
30
136.9874984154965
 70
     192
  0
VERTEX
  8
Layer0
10
395.69319887118155
20
355.31396330890675
30
136.9874984154965
 70
     192
  0
VERTEX
  8
Layer0
10
395.78149608811265
20
336.1550218571789
30
136.9874984154965
 70
     192
  0
VERTEX
  8
Layer0
10
395.7814960881148
20
355.57407852215806
30
136.9874984154965
 70
     192
  0
VERTEX
  8
Layer0
10
395.8350860617907
20
335.8856068661255
30
136.9874984154965
 70
     192
  0
VERTEX
  8
Layer0
10
395.8350860617927
20
355.84349351321134
30
136.9874984154965
 70
     192
  0
VERTEX
  8
Layer0
10
371.1649209896109
20
335.88560686612846
30
136.9874984154965
 70
     192
  0
VERTEX
  8
Layer0
10
371.16492098961277
20
355.84349351321407
30
136.9874984154965
 70
     192
  0
VERTEX
  8
Layer0
10
371.2185109632887
20
336.1550218571816
30
136.9874984154965
 70
     192
  0
VERTEX
  8
Layer0
10
371.21851096329084
20
355.57407852216073
30
136.9874984154965
 70
     192
  0
VERTEX
  8
Layer0
10
371.30680818022194
20
336.41513707043305
30
136.9874984154965
 70
     192
  0
VERTEX
  8
Layer0
10
371.3068081802243
20
355.3139633089095
30
136.9874984154965
 70
     192
  0
VERTEX
  8
Layer0
10
371.42830185054856
20
336.6615018624663
30
136.9874984154965
 70
     192
  0
VERTEX
  8
Layer0
10
371.42830185055055
20
355.06759851687605
30
136.9874984154965
 70
     192
  0
VERTEX
  8
Layer0
10
371.5809131838842
20
336.8899008633846
30
136.9874984154965
 70
     192
  0
VERTEX
  8
Layer0
10
371.5809131838863
20
354.83919951595766
30
136.9874984154965
 70
     192
  0
VERTEX
  8
Layer0
10
371.7620309580041
20
337.09642610295805
30
136.9874984154965
 70
     192
  0
VERTEX
  8
Layer0
10
371.7620309580061
20
354.6326742763844
30
136.9874984154965
 70
     192
  0
VERTEX
  8
Layer0
10
371.8849724034551
20
337.2042428569448
30
136.9874984154965
 70
     192
  0
VERTEX
  8
Layer0
10
371.88497240345714
20
354.52485752239755
30
136.9874984154965
 70
     192
  0
VERTEX
  8
Layer0
10
371.9685561975776
20
337.2775438770779
30
136.9874984154965
 70
     192
  0
VERTEX
  8
Layer0
10
371.9685561975796
20
354.45155650226445
30
136.9874984154965
 70
     192
  0
VERTEX
  8
Layer0
10
372.19695519849597
20
337.4301552104135
30
136.9874984154965
 70
     192
  0
VERTEX
  8
Layer0
10
372.1969551984978
20
354.29894516892864
30
136.9874984154965
 70
     192
  0
VERTEX
  8
Layer0
10
372.44331999052923
20
337.55164888073995
30
136.9874984154965
 70
     192
  0
VERTEX
  8
Layer0
10
372.44331999053094
20
354.17745149860224
30
136.9874984154965
 70
     192
  0
VERTEX
  8
Layer0
10
372.7034352037805
20
337.63994609767326
30
136.9874984154965
 70
     192
  0
VERTEX
  8
Layer0
10
372.7034352037825
20
354.089154281669
30
136.9874984154965
 70
     192
  0
VERTEX
  8
Layer0
10
372.9728501948337
20
337.6935360713512
30
136.9874984154965
 70
     192
  0
VERTEX
  8
Layer0
10
372.9728501948357
20
354.03556430799097
30
136.9874984154965
 70
     192
  0
VERTEX
  8
Layer0
10
373.2469551984959
20
337.7115018624661
30
136.9874984154965
 70
     192
  0
VERTEX
  8
Layer0
10
373.2469551984978
20
354.01759851687586
30
136.9874984154965
 70
     192
  0
VERTEX
  8
Layer0
10
373.5210602021579
20
337.6935360713511
30
136.9874984154965
 70
     192
  0
VERTEX
  8
Layer0
10
373.5210602021599
20
354.0355643079909
30
136.9874984154965
 70
     192
  0
VERTEX
  8
Layer0
10
373.7904751932111
20
337.63994609767315
30
136.9874984154965
 70
     192
  0
VERTEX
  8
Layer0
10
373.7904751932131
20
354.08915428166887
30
136.9874984154965
 70
     192
  0
VERTEX
  8
Layer0
10
374.0505904064626
20
337.5516488807397
30
136.9874984154965
 70
     192
  0
VERTEX
  8
Layer0
10
374.0505904064644
20
354.17745149860207
30
136.9874984154965
 70
     192
  0
VERTEX
  8
Layer0
10
374.29695519849605
20
337.4301552104134
30
136.9874984154965
 70
     192
  0
VERTEX
  8
Layer0
10
374.29695519849787
20
354.2989451689285
30
136.9874984154965
 70
     192
  0
VERTEX
  8
Layer0
10
374.52535419941427
20
337.2775438770775
30
136.9874984154965
 70
     192
  0
VERTEX
  8
Layer0
10
374.52535419941626
20
354.4515565022641
30
136.9874984154965
 70
     192
  0
VERTEX
  8
Layer0
10
374.7318794389876
20
337.09642610295754
30
136.9874984154965
 70
     192
  0
VERTEX
  8
Layer0
10
374.7318794389896
20
354.6326742763841
30
136.9874984154965
 70
     192
  0
VERTEX
  8
Layer0
10
374.9129972131074
20
336.8899008633842
30
136.9874984154965
 70
     192
  0
VERTEX
  8
Layer0
10
374.9129972131095
20
354.8391995159573
30
136.9874984154965
 70
     192
  0
VERTEX
  8
Layer0
10
375.06560854644323
20
336.6615018624659
30
136.9874984154965
 70
     192
  0
VERTEX
  8
Layer0
10
375.0656085464452
20
355.0675985168757
30
136.9874984154965
 70
     192
  0
VERTEX
  8
Layer0
10
375.1871022167694
20
336.41513707043254
30
136.9874984154965
 70
     192
  0
VERTEX
  8
Layer0
10
375.1871022167718
20
355.3139633089089
30
136.9874984154965
 70
     192
  0
VERTEX
  8
Layer0
10
375.2753994337028
20
336.1550218571812
30
136.9874984154965
 70
     192
  0
VERTEX
  8
Layer0
10
375.27539943370493
20
355.5740785221604
30
136.9874984154965
 70
     192
  0
VERTEX
  8
Layer0
10
375.32898940738096
20
335.88560686612794
30
136.9874984154965
 70
     192
  0
VERTEX
  8
Layer0
10
375.32898940738283
20
355.8434935132135
30
136.9874984154965
 70
     192
  0
VERTEX
  8
Layer0
10
348.55111478623667
20
65.28050366691231
30
136.9874984154966
 70
     192
  0
VERTEX
  8
Layer0
10
348.55111478626065
20
273.50404653160484
30
136.9874984154966
 70
     192
  0
VERTEX
  8
Layer0
10
348.7009654199934
20
65.64227509925848
30
136.9874984154966
 70
     192
  0
VERTEX
  8
Layer0
10
348.7009654200178
20
273.14227509925837
30
136.9874984154966
 70
     192
  0
VERTEX
  8
Layer0
10
348.9393433538905
20
65.95293527103831
30
136.9874984154966
 70
     192
  0
VERTEX
  8
Layer0
10
348.93934335391356
20
272.83161492747877
30
136.9874984154966
 70
     192
  0
VERTEX
  8
Layer0
10
349.2500035256712
20
66.19131320493511
30
136.9874984154966
 70
     192
  0
VERTEX
  8
Layer0
10
349.25000352569333
20
272.59323699358157
30
136.9874984154966
 70
     192
  0
VERTEX
  8
Layer0
10
349.61177495801644
20
66.341163838692
30
136.9874984154966
 70
     192
  0
VERTEX
  8
Layer0
10
349.6117749580394
20
272.4433863598245
30
136.9874984154966
 70
     192
  0
VERTEX
  8
Layer0
10
350.00000352567037
20
66.39227509925837
30
136.9874984154966
 70
     192
  0
VERTEX
  8
Layer0
10
350.00000352569344
20
272.3922750992581
30
136.9874984154966
 70
     192
  0
VERTEX
  8
Layer0
10
350.38823209332406
20
66.34116383869191
30
136.9874984154966
 70
     192
  0
VERTEX
  8
Layer0
10
350.38823209334697
20
272.4433863598247
30
136.9874984154966
 70
     192
  0
VERTEX
  8
Layer0
10
350.7500035256713
20
66.1913132049356
30
136.9874984154966
 70
     192
  0
VERTEX
  8
Layer0
10
350.7500035256934
20
272.5932369935816
30
136.9874984154966
 70
     192
  0
VERTEX
  8
Layer0
10
351.0606636974498
20
65.95293527103836
30
136.9874984154966
 70
     192
  0
VERTEX
  8
Layer0
10
351.0606636974735
20
272.83161492747837
30
136.9874984154966
 70
     192
  0
VERTEX
  8
Layer0
10
351.29904163134677
20
65.64227509925819
30
136.9874984154966
 70
     192
  0
VERTEX
  8
Layer0
10
351.2990416313711
20
273.1422750992579
30
136.9874984154966
 70
     192
  0
VERTEX
  8
Layer0
10
351.44889226510503
20
65.280503666912
30
136.9874984154966
 70
     192
  0
VERTEX
  8
Layer0
10
351.44889226512777
20
273.50404653160433
30
136.9874984154966
 70
     192
  0
VERTEX
  8
Layer0
10
0.0
 20
 0.0
 30
0.0
 70
     128
 71
-1
 72
-2
 73
3
  0
VERTEX
  8
Layer0
10
0.0
 20
 0.0
 30
0.0
 70
     128
 71
-2
 72
-1
 73
4
  0
VERTEX
  8
Layer0
10
0.0
 20
 0.0
 30
0.0
 70
     128
 71
-4
 72
1
 73
-5
  0
VERTEX
  8
Layer0
10
0.0
 20
 0.0
 30
0.0
 70
     128
 71
-4
 72
-5
 73
6
  0
VERTEX
  8
Layer0
10
0.0
 20
 0.0
 30
0.0
 70
     128
 71
-6
 72
-5
 73
7
  0
VERTEX
  8
Layer0
10
0.0
 20
 0.0
 30
0.0
 70
     128
 71
-7
 72
-5
 73
8
  0
VERTEX
  8
Layer0
10
0.0
 20
 0.0
 30
0.0
 70
     128
 71
-8
 72
-5
 73
9
  0
VERTEX
  8
Layer0
10
0.0
 20
 0.0
 30
0.0
 70
     128
 71
-9
 72
-5
 73
10
  0
VERTEX
  8
Layer0
10
0.0
 20
 0.0
 30
0.0
 70
     128
 71
-10
 72
-5
 73
11
  0
VERTEX
  8
Layer0
10
0.0
 20
 0.0
 30
0.0
 70
     128
 71
-11
 72
-5
 73
12
  0
VERTEX
  8
Layer0
10
0.0
 20
 0.0
 30
0.0
 70
     128
 71
-12
 72
5
 73
-13
  0
VERTEX
  8
Layer0
10
0.0
 20
 0.0
 30
0.0
 70
     128
 71
-12
 72
-13
 73
14
  0
VERTEX
  8
Layer0
10
0.0
 20
 0.0
 30
0.0
 70
     128
 71
-14
 72
-13
 73
15
  0
VERTEX
  8
Layer0
10
0.0
 20
 0.0
 30
0.0
 70
     128
 71
-15
 72
-13
 73
16
  0
VERTEX
  8
Layer0
10
0.0
 20
 0.0
 30
0.0
 70
     128
 71
-16
 72
-13
 73
17
  0
VERTEX
  8
Layer0
10
0.0
 20
 0.0
 30
0.0
 70
     128
 71
-17
 72
13
 73
-18
  0
VERTEX
  8
Layer0
10
0.0
 20
 0.0
 30
0.0
 70
     128
 71
-17
 72
-18
 73
19
  0
VERTEX
  8
Layer0
10
0.0
 20
 0.0
 30
0.0
 70
     128
 71
-19
 72
-18
 73
20
  0
VERTEX
  8
Layer0
10
0.0
 20
 0.0
 30
0.0
 70
     128
 71
-20
 72
-18
 73
21
  0
VERTEX
  8
Layer0
10
0.0
 20
 0.0
 30
0.0
 70
     128
 71
-21
 72
-18
 73
22
  0
VERTEX
  8
Layer0
10
0.0
 20
 0.0
 30
0.0
 70
     128
 71
-22
 72
-18
 73
23
  0
VERTEX
  8
Layer0
10
0.0
 20
 0.0
 30
0.0
 70
     128
 71
-23
 72
18
 73
-24
  0
VERTEX
  8
Layer0
10
0.0
 20
 0.0
 30
0.0
 70
     128
 71
-23
 72
-24
 73
25
  0
VERTEX
  8
Layer0
10
0.0
 20
 0.0
 30
0.0
 70
     128
 71
-25
 72
-24
 73
26
  0
VERTEX
  8
Layer0
10
0.0
 20
 0.0
 30
0.0
 70
     128
 71
-26
 72
-24
 73
27
  0
VERTEX
  8
Layer0
10
0.0
 20
 0.0
 30
0.0
 70
     128
 71
-27
 72
-24
 73
28
  0
VERTEX
  8
Layer0
10
0.0
 20
 0.0
 30
0.0
 70
     128
 71
-28
 72
-24
 73
29
  0
VERTEX
  8
Layer0
10
0.0
 20
 0.0
 30
0.0
 70
     128
 71
-29
 72
-24
 73
30
  0
VERTEX
  8
Layer0
10
0.0
 20
 0.0
 30
0.0
 70
     128
 71
-30
 72
-24
 73
31
  0
VERTEX
  8
Layer0
10
0.0
 20
 0.0
 30
0.0
 70
     128
 71
-31
 72
24
 73
-32
  0
VERTEX
  8
Layer0
10
0.0
 20
 0.0
 30
0.0
 70
     128
 71
-33
 72
34
 73
-35
  0
VERTEX
  8
Layer0
10
0.0
 20
 0.0
 30
0.0
 70
     128
 71
-34
 72
-33
 73
-36
  0
VERTEX
  8
Layer0
10
0.0
 20
 0.0
 30
0.0
 70
     128
 71
-36
 72
-33
 73
37
  0
VERTEX
  8
Layer0
10
0.0
 20
 0.0
 30
0.0
 70
     128
 71
-37
 72
-33
 73
38
  0
VERTEX
  8
Layer0
10
0.0
 20
 0.0
 30
0.0
 70
     128
 71
-38
 72
-33
 73
39
  0
VERTEX
  8
Layer0
10
0.0
 20
 0.0
 30
0.0
 70
     128
 71
-39
 72
33
 73
-40
  0
VERTEX
  8
Layer0
10
0.0
 20
 0.0
 30
0.0
 70
     128
 71
-34
 72
-36
 73
41
  0
VERTEX
  8
Layer0
10
0.0
 20
 0.0
 30
0.0
 70
     128
 71
-41
 72
-36
 73
42
  0
VERTEX
  8
Layer0
10
0.0
 20
 0.0
 30
0.0
 70
     128
 71
-42
 72
36
 73
-43
  0
VERTEX
  8
Layer0
10
0.0
 20
 0.0
 30
0.0
 70
     128
 71
-39
 72
-40
 73
44
  0
VERTEX
  8
Layer0
10
0.0
 20
 0.0
 30
0.0
 70
     128
 71
-44
 72
-40
 73
45
  0
VERTEX
  8
Layer0
10
0.0
 20
 0.0
 30
0.0
 70
     128
 71
-45
 72
-40
 73
46
  0
VERTEX
  8
Layer0
10
0.0
 20
 0.0
 30
0.0
 70
     128
 71
-46
 72
-40
 73
47
  0
VERTEX
  8
Layer0
10
0.0
 20
 0.0
 30
0.0
 70
     128
 71
-47
 72
-40
 73
48
  0
VERTEX
  8
Layer0
10
0.0
 20
 0.0
 30
0.0
 70
     128
 71
-48
 72
-40
 73
49
  0
VERTEX
  8
Layer0
10
0.0
 20
 0.0
 30
0.0
 70
     128
 71
-49
 72
-40
 73
50
  0
VERTEX
  8
Layer0
10
0.0
 20
 0.0
 30
0.0
 70
     128
 71
-50
 72
-40
 73
51
  0
VERTEX
  8
Layer0
10
0.0
 20
 0.0
 30
0.0
 70
     128
 71
-51
 72
-40
 73
52
  0
VERTEX
  8
Layer0
10
0.0
 20
 0.0
 30
0.0
 70
     128
 71
-52
 72
-40
 73
53
  0
VERTEX
  8
Layer0
10
0.0
 20
 0.0
 30
0.0
 70
     128
 71
-53
 72
-40
 73
54
  0
VERTEX
  8
Layer0
10
0.0
 20
 0.0
 30
0.0
 70
     128
 71
-54
 72
-40
 73
55
  0
VERTEX
  8
Layer0
10
0.0
 20
 0.0
 30
0.0
 70
     128
 71
-55
 72
-40
 73
56
  0
VERTEX
  8
Layer0
10
0.0
 20
 0.0
 30
0.0
 70
     128
 71
-56
 72
-40
 73
57
  0
VERTEX
  8
Layer0
10
0.0
 20
 0.0
 30
0.0
 70
     128
 71
-57
 72
-40
 73
58
  0
VERTEX
  8
Layer0
10
0.0
 20
 0.0
 30
0.0
 70
     128
 71
-58
 72
-40
 73
59
  0
VERTEX
  8
Layer0
10
0.0
 20
 0.0
 30
0.0
 70
     128
 71
-59
 72
-40
 73
60
  0
VERTEX
  8
Layer0
10
0.0
 20
 0.0
 30
0.0
 70
     128
 71
-60
 72
-40
 73
61
  0
VERTEX
  8
Layer0
10
0.0
 20
 0.0
 30
0.0
 70
     128
 71
-61
 72
-40
 73
62
  0
VERTEX
  8
Layer0
10
0.0
 20
 0.0
 30
0.0
 70
     128
 71
-62
 72
-40
 73
63
  0
VERTEX
  8
Layer0
10
0.0
 20
 0.0
 30
0.0
 70
     128
 71
-63
 72
-40
 73
-64
  0
VERTEX
  8
Layer0
10
0.0
 20
 0.0
 30
0.0
 70
     128
 71
-64
 72
-40
 73
65
  0
VERTEX
  8
Layer0
10
0.0
 20
 0.0
 30
0.0
 70
     128
 71
-65
 72
-40
 73
66
  0
VERTEX
  8
Layer0
10
0.0
 20
 0.0
 30
0.0
 70
     128
 71
-66
 72
-40
 73
67
  0
VERTEX
  8
Layer0
10
0.0
 20
 0.0
 30
0.0
 70
     128
 71
-67
 72
-40
 73
68
  0
VERTEX
  8
Layer0
10
0.0
 20
 0.0
 30
0.0
 70
     128
 71
-69
 72
-70
 73
71
  0
VERTEX
  8
Layer0
10
0.0
 20
 0.0
 30
0.0
 70
     128
 71
-70
 72
-69
 73
72
  0
VERTEX
  8
Layer0
10
0.0
 20
 0.0
 30
0.0
 70
     128
 71
-72
 72
-69
 73
73
  0
VERTEX
  8
Layer0
10
0.0
 20
 0.0
 30
0.0
 70
     128
 71
-73
 72
-69
 73
74
  0
VERTEX
  8
Layer0
10
0.0
 20
 0.0
 30
0.0
 70
     128
 71
-74
 72
-69
 73
75
  0
VERTEX
  8
Layer0
10
0.0
 20
 0.0
 30
0.0
 70
     128
 71
-75
 72
-69
 73
76
  0
VERTEX
  8
Layer0
10
0.0
 20
 0.0
 30
0.0
 70
     128
 71
-76
 72
-69
 73
77
  0
VERTEX
  8
Layer0
10
0.0
 20
 0.0
 30
0.0
 70
     128
 71
-77
 72
-69
 73
78
  0
VERTEX
  8
Layer0
10
0.0
 20
 0.0
 30
0.0
 70
     128
 71
-78
 72
69
 73
-79
  0
VERTEX
  8
Layer0
10
0.0
 20
 0.0
 30
0.0
 70
     128
 71
-78
 72
-79
 73
80
  0
VERTEX
  8
Layer0
10
0.0
 20
 0.0
 30
0.0
 70
     128
 71
-80
 72
-79
 73
81
  0
VERTEX
  8
Layer0
10
0.0
 20
 0.0
 30
0.0
 70
     128
 71
-81
 72
-79
 73
82
  0
VERTEX
  8
Layer0
10
0.0
 20
 0.0
 30
0.0
 70
     128
 71
-82
 72
-79
 73
83
  0
VERTEX
  8
Layer0
10
0.0
 20
 0.0
 30
0.0
 70
     128
 71
-83
 72
-79
 73
84
  0
VERTEX
  8
Layer0
10
0.0
 20
 0.0
 30
0.0
 70
     128
 71
-85
 72
86
 73
-87
  0
VERTEX
  8
Layer0
10
0.0
 20
 0.0
 30
0.0
 70
     128
 71
-86
 72
-85
 73
88
  0
VERTEX
  8
Layer0
10
0.0
 20
 0.0
 30
0.0
 70
     128
 71
-88
 72
-85
 73
89
  0
VERTEX
  8
Layer0
10
0.0
 20
 0.0
 30
0.0
 70
     128
 71
-89
 72
-85
 73
90
  0
VERTEX
  8
Layer0
10
0.0
 20
 0.0
 30
0.0
 70
     128
 71
-90
 72
-85
 73
91
  0
VERTEX
  8
Layer0
10
0.0
 20
 0.0
 30
0.0
 70
     128
 71
-91
 72
-85
 73
92
  0
VERTEX
  8
Layer0
10
0.0
 20
 0.0
 30
0.0
 70
     128
 71
-92
 72
85
 73
-93
  0
VERTEX
  8
Layer0
10
0.0
 20
 0.0
 30
0.0
 70
     128
 71
-92
 72
-93
 73
94
  0
VERTEX
  8
Layer0
10
0.0
 20
 0.0
 30
0.0
 70
     128
 71
-94
 72
-93
 73
95
  0
VERTEX
  8
Layer0
10
0.0
 20
 0.0
 30
0.0
 70
     128
 71
-95
 72
-93
 73
96
  0
VERTEX
  8
Layer0
10
0.0
 20
 0.0
 30
0.0
 70
     128
 71
-96
 72
-93
 73
97
  0
VERTEX
  8
Layer0
10
0.0
 20
 0.0
 30
0.0
 70
     128
 71
-97
 72
-93
 73
98
  0
VERTEX
  8
Layer0
10
0.0
 20
 0.0
 30
0.0
 70
     128
 71
-98
 72
-93
 73
99
  0
VERTEX
  8
Layer0
10
0.0
 20
 0.0
 30
0.0
 70
     128
 71
-99
 72
-93
 73
-100
  0
VERTEX
  8
Layer0
10
0.0
 20
 0.0
 30
0.0
 70
     128
 71
-99
 72
-100
 73
-101
  0
VERTEX
  8
Layer0
10
0.0
 20
 0.0
 30
0.0
 70
     128
 71
-101
 72
100
 73
-102
  0
VERTEX
  8
Layer0
10
0.0
 20
 0.0
 30
0.0
 70
     128
 71
-101
 72
-102
 73
-103
  0
VERTEX
  8
Layer0
10
0.0
 20
 0.0
 30
0.0
 70
     128
 71
-101
 72
103
 73
-104
  0
VERTEX
  8
Layer0
10
0.0
 20
 0.0
 30
0.0
 70
     128
 71
-101
 72
104
 73
-105
  0
VERTEX
  8
Layer0
10
0.0
 20
 0.0
 30
0.0
 70
     128
 71
-101
 72
105
 73
-106
  0
VERTEX
  8
Layer0
10
0.0
 20
 0.0
 30
0.0
 70
     128
 71
-103
 72
-102
 73
107
  0
VERTEX
  8
Layer0
10
0.0
 20
 0.0
 30
0.0
 70
     128
 71
-107
 72
-102
 73
108
  0
VERTEX
  8
Layer0
10
0.0
 20
 0.0
 30
0.0
 70
     128
 71
-108
 72
-102
 73
109
  0
VERTEX
  8
Layer0
10
0.0
 20
 0.0
 30
0.0
 70
     128
 71
-109
 72
-102
 73
110
  0
VERTEX
  8
Layer0
10
0.0
 20
 0.0
 30
0.0
 70
     128
 71
-110
 72
-102
 73
111
  0
VERTEX
  8
Layer0
10
0.0
 20
 0.0
 30
0.0
 70
     128
 71
-111
 72
-102
 73
112
  0
VERTEX
  8
Layer0
10
0.0
 20
 0.0
 30
0.0
 70
     128
 71
-112
 72
-102
 73
113
  0
VERTEX
  8
Layer0
10
0.0
 20
 0.0
 30
0.0
 70
     128
 71
-113
 72
-102
 73
114
  0
VERTEX
  8
Layer0
10
0.0
 20
 0.0
 30
0.0
 70
     128
 71
-114
 72
-102
 73
115
  0
VERTEX
  8
Layer0
10
0.0
 20
 0.0
 30
0.0
 70
     128
 71
-115
 72
-102
 73
116
  0
VERTEX
  8
Layer0
10
0.0
 20
 0.0
 30
0.0
 70
     128
 71
-116
 72
-102
 73
117
  0
VERTEX
  8
Layer0
10
0.0
 20
 0.0
 30
0.0
 70
     128
 71
-117
 72
-102
 73
118
  0
VERTEX
  8
Layer0
10
0.0
 20
 0.0
 30
0.0
 70
     128
 71
-118
 72
-102
 73
119
  0
VERTEX
  8
Layer0
10
0.0
 20
 0.0
 30
0.0
 70
     128
 71
-119
 72
-102
 73
120
  0
VERTEX
  8
Layer0
10
0.0
 20
 0.0
 30
0.0
 70
     128
 71
-120
 72
-102
 73
121
  0
VERTEX
  8
Layer0
10
0.0
 20
 0.0
 30
0.0
 70
     128
 71
-121
 72
-102
 73
122
  0
VERTEX
  8
Layer0
10
0.0
 20
 0.0
 30
0.0
 70
     128
 71
-122
 72
-102
 73
123
  0
VERTEX
  8
Layer0
10
0.0
 20
 0.0
 30
0.0
 70
     128
 71
-123
 72
-102
 73
124
  0
VERTEX
  8
Layer0
10
0.0
 20
 0.0
 30
0.0
 70
     128
 71
-124
 72
-102
 73
125
  0
VERTEX
  8
Layer0
10
0.0
 20
 0.0
 30
0.0
 70
     128
 71
-125
 72
102
 73
-126
  0
VERTEX
  8
Layer0
10
0.0
 20
 0.0
 30
0.0
 70
     128
 71
-125
 72
-126
 73
127
  0
VERTEX
  8
Layer0
10
0.0
 20
 0.0
 30
0.0
 70
     128
 71
-127
 72
-126
 73
128
  0
VERTEX
  8
Layer0
10
0.0
 20
 0.0
 30
0.0
 70
     128
 71
-128
 72
-126
 73
129
  0
VERTEX
  8
Layer0
10
0.0
 20
 0.0
 30
0.0
 70
     128
 71
-129
 72
-126
 73
-130
  0
VERTEX
  8
Layer0
10
0.0
 20
 0.0
 30
0.0
 70
     128
 71
-129
 72
-130
 73
-131
  0
VERTEX
  8
Layer0
10
0.0
 20
 0.0
 30
0.0
 70
     128
 71
-131
 72
130
 73
-132
  0
VERTEX
  8
Layer0
10
0.0
 20
 0.0
 30
0.0
 70
     128
 71
-130
 72
-126
 73
133
  0
VERTEX
  8
Layer0
10
0.0
 20
 0.0
 30
0.0
 70
     128
 71
-133
 72
-126
 73
134
  0
VERTEX
  8
Layer0
10
0.0
 20
 0.0
 30
0.0
 70
     128
 71
-134
 72
-126
 73
135
  0
VERTEX
  8
Layer0
10
0.0
 20
 0.0
 30
0.0
 70
     128
 71
-135
 72
-126
 73
136
  0
VERTEX
  8
Layer0
10
0.0
 20
 0.0
 30
0.0
 70
     128
 71
-136
 72
-126
 73
137
  0
VERTEX
  8
Layer0
10
0.0
 20
 0.0
 30
0.0
 70
     128
 71
-137
 72
-126
 73
138
  0
VERTEX
  8
Layer0
10
0.0
 20
 0.0
 30
0.0
 70
     128
 71
-138
 72
-126
 73
139
  0
VERTEX
  8
Layer0
10
0.0
 20
 0.0
 30
0.0
 70
     128
 71
-139
 72
-126
 73
140
  0
VERTEX
  8
Layer0
10
0.0
 20
 0.0
 30
0.0
 70
     128
 71
-140
 72
-126
 73
141
  0
VERTEX
  8
Layer0
10
0.0
 20
 0.0
 30
0.0
 70
     128
 71
-141
 72
-126
 73
-142
  0
VERTEX
  8
Layer0
10
0.0
 20
 0.0
 30
0.0
 70
     128
 71
-141
 72
-142
 73
143
  0
VERTEX
  8
Layer0
10
0.0
 20
 0.0
 30
0.0
 70
     128
 71
-143
 72
-142
 73
144
  0
VERTEX
  8
Layer0
10
0.0
 20
 0.0
 30
0.0
 70
     128
 71
-144
 72
142
 73
-145
  0
VERTEX
  8
Layer0
10
0.0
 20
 0.0
 30
0.0
 70
     128
 71
-144
 72
145
 73
-146
  0
VERTEX
  8
Layer0
10
0.0
 20
 0.0
 30
0.0
 70
     128
 71
-142
 72
-126
 73
147
  0
VERTEX
  8
Layer0
10
0.0
 20
 0.0
 30
0.0
 70
     128
 71
-147
 72
-126
 73
148
  0
VERTEX
  8
Layer0
10
0.0
 20
 0.0
 30
0.0
 70
     128
 71
-148
 72
-126
 73
149
  0
VERTEX
  8
Layer0
10
0.0
 20
 0.0
 30
0.0
 70
     128
 71
-149
 72
-126
 73
150
  0
VERTEX
  8
Layer0
10
0.0
 20
 0.0
 30
0.0
 70
     128
 71
-150
 72
-126
 73
151
  0
VERTEX
  8
Layer0
10
0.0
 20
 0.0
 30
0.0
 70
     128
 71
-151
 72
-126
 73
152
  0
VERTEX
  8
Layer0
10
0.0
 20
 0.0
 30
0.0
 70
     128
 71
-152
 72
-126
 73
153
  0
VERTEX
  8
Layer0
10
0.0
 20
 0.0
 30
0.0
 70
     128
 71
-153
 72
-126
 73
154
  0
VERTEX
  8
Layer0
10
0.0
 20
 0.0
 30
0.0
 70
     128
 71
-154
 72
-126
 73
155
  0
VERTEX
  8
Layer0
10
0.0
 20
 0.0
 30
0.0
 70
     128
 71
-155
 72
-126
 73
156
  0
VERTEX
  8
Layer0
10
0.0
 20
 0.0
 30
0.0
 70
     128
 71
-156
 72
-126
 73
157
  0
VERTEX
  8
Layer0
10
0.0
 20
 0.0
 30
0.0
 70
     128
 71
-157
 72
-126
 73
158
  0
VERTEX
  8
Layer0
10
0.0
 20
 0.0
 30
0.0
 70
     128
 71
-158
 72
-126
 73
159
  0
VERTEX
  8
Layer0
10
0.0
 20
 0.0
 30
0.0
 70
     128
 71
-159
 72
-126
 73
160
  0
VERTEX
  8
Layer0
10
0.0
 20
 0.0
 30
0.0
 70
     128
 71
-160
 72
-126
 73
161
  0
VERTEX
  8
Layer0
10
0.0
 20
 0.0
 30
0.0
 70
     128
 71
-161
 72
-126
 73
162
  0
VERTEX
  8
Layer0
10
0.0
 20
 0.0
 30
0.0
 70
     128
 71
-162
 72
-126
 73
163
  0
VERTEX
  8
Layer0
10
0.0
 20
 0.0
 30
0.0
 70
     128
 71
-163
 72
-126
 73
164
  0
VERTEX
  8
Layer0
10
0.0
 20
 0.0
 30
0.0
 70
     128
 71
-164
 72
-126
 73
165
  0
VERTEX
  8
Layer0
10
0.0
 20
 0.0
 30
0.0
 70
     128
 71
-165
 72
-126
 73
166
  0
VERTEX
  8
Layer0
10
0.0
 20
 0.0
 30
0.0
 70
     128
 71
-166
 72
-126
 73
167
  0
VERTEX
  8
Layer0
10
0.0
 20
 0.0
 30
0.0
 70
     128
 71
-167
 72
-126
 73
168
  0
VERTEX
  8
Layer0
10
0.0
 20
 0.0
 30
0.0
 70
     128
 71
-168
 72
-126
 73
169
  0
VERTEX
  8
Layer0
10
0.0
 20
 0.0
 30
0.0
 70
     128
 71
-169
 72
-126
 73
-170
  0
VERTEX
  8
Layer0
10
0.0
 20
 0.0
 30
0.0
 70
     128
 71
-170
 72
126
 73
-171
  0
VERTEX
  8
Layer0
10
0.0
 20
 0.0
 30
0.0
 70
     128
 71
-170
 72
-171
 73
-172
  0
VERTEX
  8
Layer0
10
0.0
 20
 0.0
 30
0.0
 70
     128
 71
-172
 72
-171
 73
173
  0
VERTEX
  8
Layer0
10
0.0
 20
 0.0
 30
0.0
 70
     128
 71
-173
 72
-171
 73
174
  0
VERTEX
  8
Layer0
10
0.0
 20
 0.0
 30
0.0
 70
     128
 71
-174
 72
-171
 73
175
  0
VERTEX
  8
Layer0
10
0.0
 20
 0.0
 30
0.0
 70
     128
 71
-175
 72
-171
 73
176
  0
VERTEX
  8
Layer0
10
0.0
 20
 0.0
 30
0.0
 70
     128
 71
-176
 72
-171
 73
177
  0
VERTEX
  8
Layer0
10
0.0
 20
 0.0
 30
0.0
 70
     128
 71
-177
 72
-171
 73
178
  0
VERTEX
  8
Layer0
10
0.0
 20
 0.0
 30
0.0
 70
     128
 71
-178
 72
-171
 73
179
  0
VERTEX
  8
Layer0
10
0.0
 20
 0.0
 30
0.0
 70
     128
 71
-179
 72
-171
 73
180
  0
VERTEX
  8
Layer0
10
0.0
 20
 0.0
 30
0.0
 70
     128
 71
-180
 72
-171
 73
181
  0
VERTEX
  8
Layer0
10
0.0
 20
 0.0
 30
0.0
 70
     128
 71
-181
 72
-171
 73
182
  0
VERTEX
  8
Layer0
10
0.0
 20
 0.0
 30
0.0
 70
     128
 71
-182
 72
-171
 73
183
  0
VERTEX
  8
Layer0
10
0.0
 20
 0.0
 30
0.0
 70
     128
 71
-183
 72
-171
 73
184
  0
VERTEX
  8
Layer0
10
0.0
 20
 0.0
 30
0.0
 70
     128
 71
-184
 72
-171
 73
-185
  0
VERTEX
  8
Layer0
10
0.0
 20
 0.0
 30
0.0
 70
     128
 71
-100
 72
-93
 73
186
  0
VERTEX
  8
Layer0
10
0.0
 20
 0.0
 30
0.0
 70
     128
 71
-186
 72
-93
 73
187
  0
VERTEX
  8
Layer0
10
0.0
 20
 0.0
 30
0.0
 70
     128
 71
-187
 72
-93
 73
188
  0
VERTEX
  8
Layer0
10
0.0
 20
 0.0
 30
0.0
 70
     128
 71
-188
 72
-93
 73
189
  0
VERTEX
  8
Layer0
10
0.0
 20
 0.0
 30
0.0
 70
     128
 71
-189
 72
-93
 73
190
  0
VERTEX
  8
Layer0
10
0.0
 20
 0.0
 30
0.0
 70
     128
 71
-190
 72
-93
 73
191
  0
VERTEX
  8
Layer0
10
0.0
 20
 0.0
 30
0.0
 70
     128
 71
-191
 72
-93
 73
192
  0
VERTEX
  8
Layer0
10
0.0
 20
 0.0
 30
0.0
 70
     128
 71
-192
 72
-93
 73
193
  0
VERTEX
  8
Layer0
10
0.0
 20
 0.0
 30
0.0
 70
     128
 71
-193
 72
-93
 73
194
  0
VERTEX
  8
Layer0
10
0.0
 20
 0.0
 30
0.0
 70
     128
 71
-194
 72
-93
 73
-195
  0
VERTEX
  8
Layer0
10
0.0
 20
 0.0
 30
0.0
 70
     128
 71
-194
 72
-195
 73
-196
  0
VERTEX
  8
Layer0
10
0.0
 20
 0.0
 30
0.0
 70
     128
 71
-196
 72
-195
 73
197
  0
VERTEX
  8
Layer0
10
0.0
 20
 0.0
 30
0.0
 70
     128
 71
-197
 72
195
 73
-198
  0
VERTEX
  8
Layer0
10
0.0
 20
 0.0
 30
0.0
 70
     128
 71
-197
 72
-198
 73
199
  0
VERTEX
  8
Layer0
10
0.0
 20
 0.0
 30
0.0
 70
     128
 71
-199
 72
-198
 73
-200
  0
VERTEX
  8
Layer0
10
0.0
 20
 0.0
 30
0.0
 70
     128
 71
-199
 72
200
 73
-201
  0
VERTEX
  8
Layer0
10
0.0
 20
 0.0
 30
0.0
 70
     128
 71
-200
 72
-198
 73
202
  0
VERTEX
  8
Layer0
10
0.0
 20
 0.0
 30
0.0
 70
     128
 71
-202
 72
-198
 73
203
  0
VERTEX
  8
Layer0
10
0.0
 20
 0.0
 30
0.0
 70
     128
 71
-203
 72
-198
 73
204
  0
VERTEX
  8
Layer0
10
0.0
 20
 0.0
 30
0.0
 70
     128
 71
-204
 72
-198
 73
205
  0
VERTEX
  8
Layer0
10
0.0
 20
 0.0
 30
0.0
 70
     128
 71
-205
 72
-198
 73
206
  0
VERTEX
  8
Layer0
10
0.0
 20
 0.0
 30
0.0
 70
     128
 71
-206
 72
-198
 73
207
  0
VERTEX
  8
Layer0
10
0.0
 20
 0.0
 30
0.0
 70
     128
 71
-207
 72
-198
 73
208
  0
VERTEX
  8
Layer0
10
0.0
 20
 0.0
 30
0.0
 70
     128
 71
-208
 72
-198
 73
209
  0
VERTEX
  8
Layer0
10
0.0
 20
 0.0
 30
0.0
 70
     128
 71
-209
 72
-198
 73
210
  0
VERTEX
  8
Layer0
10
0.0
 20
 0.0
 30
0.0
 70
     128
 71
-210
 72
-198
 73
211
  0
VERTEX
  8
Layer0
10
0.0
 20
 0.0
 30
0.0
 70
     128
 71
-211
 72
-198
 73
212
  0
VERTEX
  8
Layer0
10
0.0
 20
 0.0
 30
0.0
 70
     128
 71
-212
 72
-198
 73
-213
  0
VERTEX
  8
Layer0
10
0.0
 20
 0.0
 30
0.0
 70
     128
 71
-213
 72
-198
 73
-214
  0
VERTEX
  8
Layer0
10
0.0
 20
 0.0
 30
0.0
 70
     128
 71
-213
 72
214
 73
-215
  0
VERTEX
  8
Layer0
10
0.0
 20
 0.0
 30
0.0
 70
     128
 71
-214
 72
-198
 73
216
  0
VERTEX
  8
Layer0
10
0.0
 20
 0.0
 30
0.0
 70
     128
 71
-216
 72
-198
 73
217
  0
VERTEX
  8
Layer0
10
0.0
 20
 0.0
 30
0.0
 70
     128
 71
-217
 72
-198
 73
218
  0
VERTEX
  8
Layer0
10
0.0
 20
 0.0
 30
0.0
 70
     128
 71
-218
 72
-198
 73
219
  0
VERTEX
  8
Layer0
10
0.0
 20
 0.0
 30
0.0
 70
     128
 71
-219
 72
-198
 73
220
  0
VERTEX
  8
Layer0
10
0.0
 20
 0.0
 30
0.0
 70
     128
 71
-220
 72
-198
 73
221
  0
VERTEX
  8
Layer0
10
0.0
 20
 0.0
 30
0.0
 70
     128
 71
-221
 72
-198
 73
222
  0
VERTEX
  8
Layer0
10
0.0
 20
 0.0
 30
0.0
 70
     128
 71
-222
 72
-198
 73
223
  0
VERTEX
  8
Layer0
10
0.0
 20
 0.0
 30
0.0
 70
     128
 71
-223
 72
-198
 73
224
  0
VERTEX
  8
Layer0
10
0.0
 20
 0.0
 30
0.0
 70
     128
 71
-224
 72
-198
 73
225
  0
VERTEX
  8
Layer0
10
0.0
 20
 0.0
 30
0.0
 70
     128
 71
-225
 72
-198
 73
226
  0
VERTEX
  8
Layer0
10
0.0
 20
 0.0
 30
0.0
 70
     128
 71
-226
 72
-198
 73
227
  0
VERTEX
  8
Layer0
10
0.0
 20
 0.0
 30
0.0
 70
     128
 71
-227
 72
-198
 73
228
  0
VERTEX
  8
Layer0
10
0.0
 20
 0.0
 30
0.0
 70
     128
 71
-228
 72
-198
 73
229
  0
VERTEX
  8
Layer0
10
0.0
 20
 0.0
 30
0.0
 70
     128
 71
-229
 72
-198
 73
230
  0
VERTEX
  8
Layer0
10
0.0
 20
 0.0
 30
0.0
 70
     128
 71
-230
 72
-198
 73
231
  0
VERTEX
  8
Layer0
10
0.0
 20
 0.0
 30
0.0
 70
     128
 71
-231
 72
-198
 73
232
  0
VERTEX
  8
Layer0
10
0.0
 20
 0.0
 30
0.0
 70
     128
 71
-232
 72
-198
 73
233
  0
VERTEX
  8
Layer0
10
0.0
 20
 0.0
 30
0.0
 70
     128
 71
-233
 72
-198
 73
234
  0
VERTEX
  8
Layer0
10
0.0
 20
 0.0
 30
0.0
 70
     128
 71
-234
 72
-198
 73
235
  0
VERTEX
  8
Layer0
10
0.0
 20
 0.0
 30
0.0
 70
     128
 71
-235
 72
-198
 73
236
  0
VERTEX
  8
Layer0
10
0.0
 20
 0.0
 30
0.0
 70
     128
 71
-236
 72
-198
 73
237
  0
VERTEX
  8
Layer0
10
0.0
 20
 0.0
 30
0.0
 70
     128
 71
-237
 72
-198
 73
238
  0
VERTEX
  8
Layer0
10
0.0
 20
 0.0
 30
0.0
 70
     128
 71
-238
 72
-198
 73
239
  0
VERTEX
  8
Layer0
10
0.0
 20
 0.0
 30
0.0
 70
     128
 71
-239
 72
-198
 73
240
  0
VERTEX
  8
Layer0
10
0.0
 20
 0.0
 30
0.0
 70
     128
 71
-240
 72
-198
 73
241
  0
VERTEX
  8
Layer0
10
0.0
 20
 0.0
 30
0.0
 70
     128
 71
-241
 72
-198
 73
-242
  0
VERTEX
  8
Layer0
10
0.0
 20
 0.0
 30
0.0
 70
     128
 71
-242
 72
-198
 73
-243
  0
VERTEX
  8
Layer0
10
0.0
 20
 0.0
 30
0.0
 70
     128
 71
-242
 72
-243
 73
-244
  0
VERTEX
  8
Layer0
10
0.0
 20
 0.0
 30
0.0
 70
     128
 71
-244
 72
-243
 73
245
  0
VERTEX
  8
Layer0
10
0.0
 20
 0.0
 30
0.0
 70
     128
 71
-245
 72
243
 73
246
  0
VERTEX
  8
Layer0
10
0.0
 20
 0.0
 30
0.0
 70
     128
 71
-243
 72
-198
 73
247
  0
VERTEX
  8
Layer0
10
0.0
 20
 0.0
 30
0.0
 70
     128
 71
-247
 72
-198
 73
248
  0
VERTEX
  8
Layer0
10
0.0
 20
 0.0
 30
0.0
 70
     128
 71
-248
 72
-198
 73
249
  0
VERTEX
  8
Layer0
10
0.0
 20
 0.0
 30
0.0
 70
     128
 71
-249
 72
-198
 73
250
  0
VERTEX
  8
Layer0
10
0.0
 20
 0.0
 30
0.0
 70
     128
 71
-250
 72
-198
 73
251
  0
VERTEX
  8
Layer0
10
0.0
 20
 0.0
 30
0.0
 70
     128
 71
-251
 72
-198
 73
252
  0
VERTEX
  8
Layer0
10
0.0
 20
 0.0
 30
0.0
 70
     128
 71
-252
 72
198
 73
-253
  0
VERTEX
  8
Layer0
10
0.0
 20
 0.0
 30
0.0
 70
     128
 71
-252
 72
-253
 73
254
  0
VERTEX
  8
Layer0
10
0.0
 20
 0.0
 30
0.0
 70
     128
 71
-254
 72
-253
 73
255
  0
VERTEX
  8
Layer0
10
0.0
 20
 0.0
 30
0.0
 70
     128
 71
-255
 72
-253
 73
256
  0
VERTEX
  8
Layer0
10
0.0
 20
 0.0
 30
0.0
 70
     128
 71
-256
 72
-253
 73
257
  0
VERTEX
  8
Layer0
10
0.0
 20
 0.0
 30
0.0
 70
     128
 71
-257
 72
-253
 73
258
  0
VERTEX
  8
Layer0
10
0.0
 20
 0.0
 30
0.0
 70
     128
 71
-258
 72
-253
 73
259
  0
VERTEX
  8
Layer0
10
0.0
 20
 0.0
 30
0.0
 70
     128
 71
-259
 72
-253
 73
260
  0
VERTEX
  8
Layer0
10
0.0
 20
 0.0
 30
0.0
 70
     128
 71
-260
 72
-253
 73
261
  0
VERTEX
  8
Layer0
10
0.0
 20
 0.0
 30
0.0
 70
     128
 71
-261
 72
-253
 73
262
  0
VERTEX
  8
Layer0
10
0.0
 20
 0.0
 30
0.0
 70
     128
 71
-262
 72
-253
 73
263
  0
VERTEX
  8
Layer0
10
0.0
 20
 0.0
 30
0.0
 70
     128
 71
-263
 72
-253
 73
264
  0
VERTEX
  8
Layer0
10
0.0
 20
 0.0
 30
0.0
 70
     128
 71
-264
 72
-253
 73
265
  0
VERTEX
  8
Layer0
10
0.0
 20
 0.0
 30
0.0
 70
     128
 71
-265
 72
-253
 73
266
  0
VERTEX
  8
Layer0
10
0.0
 20
 0.0
 30
0.0
 70
     128
 71
-266
 72
-253
 73
267
  0
VERTEX
  8
Layer0
10
0.0
 20
 0.0
 30
0.0
 70
     128
 71
-267
 72
-253
 73
268
  0
VERTEX
  8
Layer0
10
0.0
 20
 0.0
 30
0.0
 70
     128
 71
-268
 72
-253
 73
269
  0
VERTEX
  8
Layer0
10
0.0
 20
 0.0
 30
0.0
 70
     128
 71
-269
 72
-253
 73
270
  0
VERTEX
  8
Layer0
10
0.0
 20
 0.0
 30
0.0
 70
     128
 71
-270
 72
-253
 73
271
  0
VERTEX
  8
Layer0
10
0.0
 20
 0.0
 30
0.0
 70
     128
 71
-271
 72
-253
 73
272
  0
VERTEX
  8
Layer0
10
0.0
 20
 0.0
 30
0.0
 70
     128
 71
-272
 72
-253
 73
273
  0
VERTEX
  8
Layer0
10
0.0
 20
 0.0
 30
0.0
 70
     128
 71
-273
 72
-253
 73
274
  0
VERTEX
  8
Layer0
10
0.0
 20
 0.0
 30
0.0
 70
     128
 71
-274
 72
-253
 73
275
  0
VERTEX
  8
Layer0
10
0.0
 20
 0.0
 30
0.0
 70
     128
 71
-275
 72
-253
 73
276
  0
VERTEX
  8
Layer0
10
0.0
 20
 0.0
 30
0.0
 70
     128
 71
-276
 72
-253
 73
277
  0
VERTEX
  8
Layer0
10
0.0
 20
 0.0
 30
0.0
 70
     128
 71
-277
 72
-253
 73
278
  0
VERTEX
  8
Layer0
10
0.0
 20
 0.0
 30
0.0
 70
     128
 71
-278
 72
-253
 73
279
  0
VERTEX
  8
Layer0
10
0.0
 20
 0.0
 30
0.0
 70
     128
 71
-279
 72
-253
 73
280
  0
VERTEX
  8
Layer0
10
0.0
 20
 0.0
 30
0.0
 70
     128
 71
-280
 72
-253
 73
-281
  0
VERTEX
  8
Layer0
10
0.0
 20
 0.0
 30
0.0
 70
     128
 71
-280
 72
281
 73
-282
  0
VERTEX
  8
Layer0
10
0.0
 20
 0.0
 30
0.0
 70
     128
 71
-281
 72
-253
 73
283
  0
VERTEX
  8
Layer0
10
0.0
 20
 0.0
 30
0.0
 70
     128
 71
-283
 72
-253
 73
284
  0
VERTEX
  8
Layer0
10
0.0
 20
 0.0
 30
0.0
 70
     128
 71
-284
 72
-253
 73
285
  0
VERTEX
  8
Layer0
10
0.0
 20
 0.0
 30
0.0
 70
     128
 71
-285
 72
-253
 73
286
  0
VERTEX
  8
Layer0
10
0.0
 20
 0.0
 30
0.0
 70
     128
 71
-286
 72
-253
 73
287
  0
VERTEX
  8
Layer0
10
0.0
 20
 0.0
 30
0.0
 70
     128
 71
-287
 72
-253
 73
288
  0
VERTEX
  8
Layer0
10
0.0
 20
 0.0
 30
0.0
 70
     128
 71
-288
 72
-253
 73
289
  0
VERTEX
  8
Layer0
10
0.0
 20
 0.0
 30
0.0
 70
     128
 71
-289
 72
-253
 73
290
  0
VERTEX
  8
Layer0
10
0.0
 20
 0.0
 30
0.0
 70
     128
 71
-290
 72
-253
 73
291
  0
VERTEX
  8
Layer0
10
0.0
 20
 0.0
 30
0.0
 70
     128
 71
-291
 72
-253
 73
292
  0
VERTEX
  8
Layer0
10
0.0
 20
 0.0
 30
0.0
 70
     128
 71
-292
 72
-253
 73
293
  0
VERTEX
  8
Layer0
10
0.0
 20
 0.0
 30
0.0
 70
     128
 71
-293
 72
-253
 73
294
  0
VERTEX
  8
Layer0
10
0.0
 20
 0.0
 30
0.0
 70
     128
 71
-294
 72
-253
 73
295
  0
VERTEX
  8
Layer0
10
0.0
 20
 0.0
 30
0.0
 70
     128
 71
-295
 72
-253
 73
296
  0
VERTEX
  8
Layer0
10
0.0
 20
 0.0
 30
0.0
 70
     128
 71
-296
 72
-253
 73
297
  0
VERTEX
  8
Layer0
10
0.0
 20
 0.0
 30
0.0
 70
     128
 71
-297
 72
-253
 73
298
  0
VERTEX
  8
Layer0
10
0.0
 20
 0.0
 30
0.0
 70
     128
 71
-298
 72
-253
 73
299
  0
VERTEX
  8
Layer0
10
0.0
 20
 0.0
 30
0.0
 70
     128
 71
-299
 72
-253
 73
300
  0
VERTEX
  8
Layer0
10
0.0
 20
 0.0
 30
0.0
 70
     128
 71
-300
 72
-253
 73
301
  0
VERTEX
  8
Layer0
10
0.0
 20
 0.0
 30
0.0
 70
     128
 71
-301
 72
-253
 73
302
  0
VERTEX
  8
Layer0
10
0.0
 20
 0.0
 30
0.0
 70
     128
 71
-302
 72
-253
 73
303
  0
VERTEX
  8
Layer0
10
0.0
 20
 0.0
 30
0.0
 70
     128
 71
-303
 72
-253
 73
304
  0
VERTEX
  8
Layer0
10
0.0
 20
 0.0
 30
0.0
 70
     128
 71
-304
 72
-253
 73
305
  0
VERTEX
  8
Layer0
10
0.0
 20
 0.0
 30
0.0
 70
     128
 71
-305
 72
-253
 73
306
  0
VERTEX
  8
Layer0
10
0.0
 20
 0.0
 30
0.0
 70
     128
 71
-306
 72
-253
 73
307
  0
VERTEX
  8
Layer0
10
0.0
 20
 0.0
 30
0.0
 70
     128
 71
-307
 72
-253
 73
308
  0
VERTEX
  8
Layer0
10
0.0
 20
 0.0
 30
0.0
 70
     128
 71
-308
 72
-253
 73
-309
  0
VERTEX
  8
Layer0
10
0.0
 20
 0.0
 30
0.0
 70
     128
 71
-195
 72
-93
 73
310
  0
VERTEX
  8
Layer0
10
0.0
 20
 0.0
 30
0.0
 70
     128
 71
-310
 72
-93
 73
311
  0
VERTEX
  8
Layer0
10
0.0
 20
 0.0
 30
0.0
 70
     128
 71
-311
 72
-93
 73
312
  0
VERTEX
  8
Layer0
10
0.0
 20
 0.0
 30
0.0
 70
     128
 71
-312
 72
-93
 73
313
  0
VERTEX
  8
Layer0
10
0.0
 20
 0.0
 30
0.0
 70
     128
 71
-313
 72
-93
 73
314
  0
VERTEX
  8
Layer0
10
0.0
 20
 0.0
 30
0.0
 70
     128
 71
-314
 72
-93
 73
315
  0
VERTEX
  8
Layer0
10
0.0
 20
 0.0
 30
0.0
 70
     128
 71
-315
 72
-93
 73
316
  0
VERTEX
  8
Layer0
10
0.0
 20
 0.0
 30
0.0
 70
     128
 71
-316
 72
-93
 73
317
  0
VERTEX
  8
Layer0
10
0.0
 20
 0.0
 30
0.0
 70
     128
 71
-317
 72
-93
 73
318
  0
VERTEX
  8
Layer0
10
0.0
 20
 0.0
 30
0.0
 70
     128
 71
-318
 72
-93
 73
319
  0
VERTEX
  8
Layer0
10
0.0
 20
 0.0
 30
0.0
 70
     128
 71
-319
 72
93
 73
-320
  0
VERTEX
  8
Layer0
10
0.0
 20
 0.0
 30
0.0
 70
     128
 71
-319
 72
-320
 73
-321
  0
VERTEX
  8
Layer0
10
0.0
 20
 0.0
 30
0.0
 70
     128
 71
-321
 72
-320
 73
-322
  0
VERTEX
  8
Layer0
10
0.0
 20
 0.0
 30
0.0
 70
     128
 71
-322
 72
-320
 73
323
  0
VERTEX
  8
Layer0
10
0.0
 20
 0.0
 30
0.0
 70
     128
 71
-323
 72
320
 73
-324
  0
VERTEX
  8
Layer0
10
0.0
 20
 0.0
 30
0.0
 70
     128
 71
-323
 72
-324
 73
325
  0
VERTEX
  8
Layer0
10
0.0
 20
 0.0
 30
0.0
 70
     128
 71
-325
 72
324
 73
-326
  0
VERTEX
  8
Layer0
10
0.0
 20
 0.0
 30
0.0
 70
     128
 71
-325
 72
-326
 73
327
  0
VERTEX
  8
Layer0
10
0.0
 20
 0.0
 30
0.0
 70
     128
 71
-327
 72
326
 73
-328
  0
VERTEX
  8
Layer0
10
0.0
 20
 0.0
 30
0.0
 70
     128
 71
-327
 72
-328
 73
329
  0
VERTEX
  8
Layer0
10
0.0
 20
 0.0
 30
0.0
 70
     128
 71
-329
 72
328
 73
-330
  0
VERTEX
  8
Layer0
10
0.0
 20
 0.0
 30
0.0
 70
     128
 71
-329
 72
-330
 73
331
  0
VERTEX
  8
Layer0
10
0.0
 20
 0.0
 30
0.0
 70
     128
 71
-331
 72
330
 73
-332
  0
VERTEX
  8
Layer0
10
0.0
 20
 0.0
 30
0.0
 70
     128
 71
-331
 72
332
 73
333
  0
VERTEX
  8
Layer0
10
0.0
 20
 0.0
 30
0.0
 70
     128
 71
-334
 72
335
 73
336
  0
VERTEX
  8
Layer0
10
0.0
 20
 0.0
 30
0.0
 70
     128
 71
-335
 72
-334
 73
337
  0
VERTEX
  8
Layer0
10
0.0
 20
 0.0
 30
0.0
 70
     128
 71
-337
 72
334
 73
-338
  0
VERTEX
  8
Layer0
10
0.0
 20
 0.0
 30
0.0
 70
     128
 71
-337
 72
-338
 73
339
  0
VERTEX
  8
Layer0
10
0.0
 20
 0.0
 30
0.0
 70
     128
 71
-339
 72
338
 73
-340
  0
VERTEX
  8
Layer0
10
0.0
 20
 0.0
 30
0.0
 70
     128
 71
-339
 72
-340
 73
341
  0
VERTEX
  8
Layer0
10
0.0
 20
 0.0
 30
0.0
 70
     128
 71
-341
 72
340
 73
-342
  0
VERTEX
  8
Layer0
10
0.0
 20
 0.0
 30
0.0
 70
     128
 71
-341
 72
-342
 73
343
  0
VERTEX
  8
Layer0
10
0.0
 20
 0.0
 30
0.0
 70
     128
 71
-343
 72
342
 73
-344
  0
VERTEX
  8
Layer0
10
0.0
 20
 0.0
 30
0.0
 70
     128
 71
-343
 72
-344
 73
345
  0
VERTEX
  8
Layer0
10
0.0
 20
 0.0
 30
0.0
 70
     128
 71
-345
 72
344
 73
-85
  0
VERTEX
  8
Layer0
10
0.0
 20
 0.0
 30
0.0
 70
     128
 71
-345
 72
-85
 73
346
  0
VERTEX
  8
Layer0
10
0.0
 20
 0.0
 30
0.0
 70
     128
 71
-346
 72
-85
 73
-87
  0
VERTEX
  8
Layer0
10
0.0
 20
 0.0
 30
0.0
 70
     128
 71
-346
 72
-87
 73
-347
  0
VERTEX
  8
Layer0
10
0.0
 20
 0.0
 30
0.0
 70
     128
 71
-346
 72
347
 73
-348
  0
VERTEX
  8
Layer0
10
0.0
 20
 0.0
 30
0.0
 70
     128
 71
-346
 72
-348
 73
-349
  0
VERTEX
  8
Layer0
10
0.0
 20
 0.0
 30
0.0
 70
     128
 71
-346
 72
349
 73
-350
  0
VERTEX
  8
Layer0
10
0.0
 20
 0.0
 30
0.0
 70
     128
 71
-346
 72
350
 73
-351
  0
VERTEX
  8
Layer0
10
0.0
 20
 0.0
 30
0.0
 70
     128
 71
-346
 72
351
 73
-352
  0
VERTEX
  8
Layer0
10
0.0
 20
 0.0
 30
0.0
 70
     128
 71
-346
 72
352
 73
-353
  0
VERTEX
  8
Layer0
10
0.0
 20
 0.0
 30
0.0
 70
     128
 71
-346
 72
353
 73
-354
  0
VERTEX
  8
Layer0
10
0.0
 20
 0.0
 30
0.0
 70
     128
 71
-346
 72
354
 73
-355
  0
VERTEX
  8
Layer0
10
0.0
 20
 0.0
 30
0.0
 70
     128
 71
-346
 72
355
 73
-356
  0
VERTEX
  8
Layer0
10
0.0
 20
 0.0
 30
0.0
 70
     128
 71
-346
 72
356
 73
-357
  0
VERTEX
  8
Layer0
10
0.0
 20
 0.0
 30
0.0
 70
     128
 71
-346
 72
357
 73
-358
  0
VERTEX
  8
Layer0
10
0.0
 20
 0.0
 30
0.0
 70
     128
 71
-346
 72
358
 73
-359
  0
VERTEX
  8
Layer0
10
0.0
 20
 0.0
 30
0.0
 70
     128
 71
-346
 72
-359
 73
322
  0
VERTEX
  8
Layer0
10
0.0
 20
 0.0
 30
0.0
 70
     128
 71
-349
 72
348
 73
-360
  0
VERTEX
  8
Layer0
10
0.0
 20
 0.0
 30
0.0
 70
     128
 71
-349
 72
360
 73
-361
  0
VERTEX
  8
Layer0
10
0.0
 20
 0.0
 30
0.0
 70
     128
 71
-349
 72
361
 73
-362
  0
VERTEX
  8
Layer0
10
0.0
 20
 0.0
 30
0.0
 70
     128
 71
-349
 72
362
 73
-363
  0
VERTEX
  8
Layer0
10
0.0
 20
 0.0
 30
0.0
 70
     128
 71
-349
 72
363
 73
-364
  0
VERTEX
  8
Layer0
10
0.0
 20
 0.0
 30
0.0
 70
     128
 71
-349
 72
364
 73
-365
  0
VERTEX
  8
Layer0
10
0.0
 20
 0.0
 30
0.0
 70
     128
 71
-349
 72
365
 73
-366
  0
VERTEX
  8
Layer0
10
0.0
 20
 0.0
 30
0.0
 70
     128
 71
-349
 72
366
 73
-367
  0
VERTEX
  8
Layer0
10
0.0
 20
 0.0
 30
0.0
 70
     128
 71
-349
 72
367
 73
-368
  0
VERTEX
  8
Layer0
10
0.0
 20
 0.0
 30
0.0
 70
     128
 71
-349
 72
368
 73
-369
  0
VERTEX
  8
Layer0
10
0.0
 20
 0.0
 30
0.0
 70
     128
 71
-349
 72
369
 73
-101
  0
VERTEX
  8
Layer0
10
0.0
 20
 0.0
 30
0.0
 70
     128
 71
-349
 72
-101
 73
370
  0
VERTEX
  8
Layer0
10
0.0
 20
 0.0
 30
0.0
 70
     128
 71
-370
 72
-101
 73
371
  0
VERTEX
  8
Layer0
10
0.0
 20
 0.0
 30
0.0
 70
     128
 71
-371
 72
-101
 73
-106
  0
VERTEX
  8
Layer0
10
0.0
 20
 0.0
 30
0.0
 70
     128
 71
-322
 72
359
 73
-372
  0
VERTEX
  8
Layer0
10
0.0
 20
 0.0
 30
0.0
 70
     128
 71
-322
 72
372
 73
-373
  0
VERTEX
  8
Layer0
10
0.0
 20
 0.0
 30
0.0
 70
     128
 71
-322
 72
373
 73
-374
  0
VERTEX
  8
Layer0
10
0.0
 20
 0.0
 30
0.0
 70
     128
 71
-322
 72
374
 73
-375
  0
VERTEX
  8
Layer0
10
0.0
 20
 0.0
 30
0.0
 70
     128
 71
-322
 72
-375
 73
-376
  0
VERTEX
  8
Layer0
10
0.0
 20
 0.0
 30
0.0
 70
     128
 71
-376
 72
375
 73
-377
  0
VERTEX
  8
Layer0
10
0.0
 20
 0.0
 30
0.0
 70
     128
 71
-376
 72
377
 73
-378
  0
VERTEX
  8
Layer0
10
0.0
 20
 0.0
 30
0.0
 70
     128
 71
-376
 72
378
 73
-379
  0
VERTEX
  8
Layer0
10
0.0
 20
 0.0
 30
0.0
 70
     128
 71
-376
 72
379
 73
-380
  0
VERTEX
  8
Layer0
10
0.0
 20
 0.0
 30
0.0
 70
     128
 71
-376
 72
380
 73
-381
  0
VERTEX
  8
Layer0
10
0.0
 20
 0.0
 30
0.0
 70
     128
 71
-376
 72
-381
 73
382
  0
VERTEX
  8
Layer0
10
0.0
 20
 0.0
 30
0.0
 70
     128
 71
-382
 72
381
 73
-383
  0
VERTEX
  8
Layer0
10
0.0
 20
 0.0
 30
0.0
 70
     128
 71
-382
 72
383
 73
-384
  0
VERTEX
  8
Layer0
10
0.0
 20
 0.0
 30
0.0
 70
     128
 71
-382
 72
384
 73
-385
  0
VERTEX
  8
Layer0
10
0.0
 20
 0.0
 30
0.0
 70
     128
 71
-382
 72
385
 73
-131
  0
VERTEX
  8
Layer0
10
0.0
 20
 0.0
 30
0.0
 70
     128
 71
-382
 72
-131
 73
386
  0
VERTEX
  8
Layer0
10
0.0
 20
 0.0
 30
0.0
 70
     128
 71
-386
 72
-131
 73
387
  0
VERTEX
  8
Layer0
10
0.0
 20
 0.0
 30
0.0
 70
     128
 71
-387
 72
-131
 73
388
  0
VERTEX
  8
Layer0
10
0.0
 20
 0.0
 30
0.0
 70
     128
 71
-388
 72
-131
 73
-389
  0
VERTEX
  8
Layer0
10
0.0
 20
 0.0
 30
0.0
 70
     128
 71
-389
 72
-131
 73
390
  0
VERTEX
  8
Layer0
10
0.0
 20
 0.0
 30
0.0
 70
     128
 71
-390
 72
-131
 73
391
  0
VERTEX
  8
Layer0
10
0.0
 20
 0.0
 30
0.0
 70
     128
 71
-391
 72
-131
 73
392
  0
VERTEX
  8
Layer0
10
0.0
 20
 0.0
 30
0.0
 70
     128
 71
-392
 72
-131
 73
132
  0
VERTEX
  8
Layer0
10
0.0
 20
 0.0
 30
0.0
 70
     128
 71
-388
 72
389
 73
-393
  0
VERTEX
  8
Layer0
10
0.0
 20
 0.0
 30
0.0
 70
     128
 71
-388
 72
393
 73
-394
  0
VERTEX
  8
Layer0
10
0.0
 20
 0.0
 30
0.0
 70
     128
 71
-388
 72
-394
 73
395
  0
VERTEX
  8
Layer0
10
0.0
 20
 0.0
 30
0.0
 70
     128
 71
-395
 72
394
 73
-396
  0
VERTEX
  8
Layer0
10
0.0
 20
 0.0
 30
0.0
 70
     128
 71
-395
 72
-396
 73
397
  0
VERTEX
  8
Layer0
10
0.0
 20
 0.0
 30
0.0
 70
     128
 71
-397
 72
396
 73
-398
  0
VERTEX
  8
Layer0
10
0.0
 20
 0.0
 30
0.0
 70
     128
 71
-397
 72
-398
 73
399
  0
VERTEX
  8
Layer0
10
0.0
 20
 0.0
 30
0.0
 70
     128
 71
-399
 72
-398
 73
400
  0
VERTEX
  8
Layer0
10
0.0
 20
 0.0
 30
0.0
 70
     128
 71
-400
 72
-398
 73
401
  0
VERTEX
  8
Layer0
10
0.0
 20
 0.0
 30
0.0
 70
     128
 71
-401
 72
-398
 73
402
  0
VERTEX
  8
Layer0
10
0.0
 20
 0.0
 30
0.0
 70
     128
 71
-402
 72
398
 73
-403
  0
VERTEX
  8
Layer0
10
0.0
 20
 0.0
 30
0.0
 70
     128
 71
-402
 72
-403
 73
-404
  0
VERTEX
  8
Layer0
10
0.0
 20
 0.0
 30
0.0
 70
     128
 71
-404
 72
403
 73
-405
  0
VERTEX
  8
Layer0
10
0.0
 20
 0.0
 30
0.0
 70
     128
 71
-404
 72
-405
 73
406
  0
VERTEX
  8
Layer0
10
0.0
 20
 0.0
 30
0.0
 70
     128
 71
-406
 72
405
 73
-407
  0
VERTEX
  8
Layer0
10
0.0
 20
 0.0
 30
0.0
 70
     128
 71
-406
 72
407
 73
-144
  0
VERTEX
  8
Layer0
10
0.0
 20
 0.0
 30
0.0
 70
     128
 71
-406
 72
-144
 73
408
  0
VERTEX
  8
Layer0
10
0.0
 20
 0.0
 30
0.0
 70
     128
 71
-408
 72
-144
 73
409
  0
VERTEX
  8
Layer0
10
0.0
 20
 0.0
 30
0.0
 70
     128
 71
-409
 72
-144
 73
-146
  0
VERTEX
  8
Layer0
10
0.0
 20
 0.0
 30
0.0
 70
     128
 71
-402
 72
404
 73
410
  0
VERTEX
  8
Layer0
10
0.0
 20
 0.0
 30
0.0
 70
     128
 71
-322
 72
376
 73
-411
  0
VERTEX
  8
Layer0
10
0.0
 20
 0.0
 30
0.0
 70
     128
 71
-322
 72
411
 73
-412
  0
VERTEX
  8
Layer0
10
0.0
 20
 0.0
 30
0.0
 70
     128
 71
-322
 72
412
 73
-413
  0
VERTEX
  8
Layer0
10
0.0
 20
 0.0
 30
0.0
 70
     128
 71
-322
 72
413
 73
-414
  0
VERTEX
  8
Layer0
10
0.0
 20
 0.0
 30
0.0
 70
     128
 71
-322
 72
414
 73
-415
  0
VERTEX
  8
Layer0
10
0.0
 20
 0.0
 30
0.0
 70
     128
 71
-322
 72
415
 73
-416
  0
VERTEX
  8
Layer0
10
0.0
 20
 0.0
 30
0.0
 70
     128
 71
-322
 72
416
 73
-417
  0
VERTEX
  8
Layer0
10
0.0
 20
 0.0
 30
0.0
 70
     128
 71
-322
 72
417
 73
-418
  0
VERTEX
  8
Layer0
10
0.0
 20
 0.0
 30
0.0
 70
     128
 71
-322
 72
418
 73
-419
  0
VERTEX
  8
Layer0
10
0.0
 20
 0.0
 30
0.0
 70
     128
 71
-322
 72
419
 73
-420
  0
VERTEX
  8
Layer0
10
0.0
 20
 0.0
 30
0.0
 70
     128
 71
-322
 72
420
 73
-421
  0
VERTEX
  8
Layer0
10
0.0
 20
 0.0
 30
0.0
 70
     128
 71
-322
 72
421
 73
-170
  0
VERTEX
  8
Layer0
10
0.0
 20
 0.0
 30
0.0
 70
     128
 71
-322
 72
-170
 73
-422
  0
VERTEX
  8
Layer0
10
0.0
 20
 0.0
 30
0.0
 70
     128
 71
-422
 72
-170
 73
423
  0
VERTEX
  8
Layer0
10
0.0
 20
 0.0
 30
0.0
 70
     128
 71
-423
 72
-170
 73
-424
  0
VERTEX
  8
Layer0
10
0.0
 20
 0.0
 30
0.0
 70
     128
 71
-424
 72
-170
 73
425
  0
VERTEX
  8
Layer0
10
0.0
 20
 0.0
 30
0.0
 70
     128
 71
-425
 72
-170
 73
426
  0
VERTEX
  8
Layer0
10
0.0
 20
 0.0
 30
0.0
 70
     128
 71
-426
 72
-170
 73
427
  0
VERTEX
  8
Layer0
10
0.0
 20
 0.0
 30
0.0
 70
     128
 71
-427
 72
-170
 73
428
  0
VERTEX
  8
Layer0
10
0.0
 20
 0.0
 30
0.0
 70
     128
 71
-428
 72
-170
 73
429
  0
VERTEX
  8
Layer0
10
0.0
 20
 0.0
 30
0.0
 70
     128
 71
-429
 72
-170
 73
430
  0
VERTEX
  8
Layer0
10
0.0
 20
 0.0
 30
0.0
 70
     128
 71
-430
 72
-170
 73
-431
  0
VERTEX
  8
Layer0
10
0.0
 20
 0.0
 30
0.0
 70
     128
 71
-431
 72
-170
 73
432
  0
VERTEX
  8
Layer0
10
0.0
 20
 0.0
 30
0.0
 70
     128
 71
-432
 72
-170
 73
433
  0
VERTEX
  8
Layer0
10
0.0
 20
 0.0
 30
0.0
 70
     128
 71
-433
 72
-170
 73
434
  0
VERTEX
  8
Layer0
10
0.0
 20
 0.0
 30
0.0
 70
     128
 71
-434
 72
-170
 73
-172
  0
VERTEX
  8
Layer0
10
0.0
 20
 0.0
 30
0.0
 70
     128
 71
-430
 72
431
 73
-435
  0
VERTEX
  8
Layer0
10
0.0
 20
 0.0
 30
0.0
 70
     128
 71
-430
 72
435
 73
-436
  0
VERTEX
  8
Layer0
10
0.0
 20
 0.0
 30
0.0
 70
     128
 71
-430
 72
436
 73
-437
  0
VERTEX
  8
Layer0
10
0.0
 20
 0.0
 30
0.0
 70
     128
 71
-430
 72
437
 73
-438
  0
VERTEX
  8
Layer0
10
0.0
 20
 0.0
 30
0.0
 70
     128
 71
-430
 72
438
 73
-439
  0
VERTEX
  8
Layer0
10
0.0
 20
 0.0
 30
0.0
 70
     128
 71
-430
 72
439
 73
-440
  0
VERTEX
  8
Layer0
10
0.0
 20
 0.0
 30
0.0
 70
     128
 71
-430
 72
440
 73
-441
  0
VERTEX
  8
Layer0
10
0.0
 20
 0.0
 30
0.0
 70
     128
 71
-430
 72
-441
 73
442
  0
VERTEX
  8
Layer0
10
0.0
 20
 0.0
 30
0.0
 70
     128
 71
-442
 72
441
 73
-443
  0
VERTEX
  8
Layer0
10
0.0
 20
 0.0
 30
0.0
 70
     128
 71
-442
 72
443
 73
-185
  0
VERTEX
  8
Layer0
10
0.0
 20
 0.0
 30
0.0
 70
     128
 71
-442
 72
-185
 73
444
  0
VERTEX
  8
Layer0
10
0.0
 20
 0.0
 30
0.0
 70
     128
 71
-444
 72
-185
 73
445
  0
VERTEX
  8
Layer0
10
0.0
 20
 0.0
 30
0.0
 70
     128
 71
-445
 72
-185
 73
446
  0
VERTEX
  8
Layer0
10
0.0
 20
 0.0
 30
0.0
 70
     128
 71
-446
 72
-185
 73
-447
  0
VERTEX
  8
Layer0
10
0.0
 20
 0.0
 30
0.0
 70
     128
 71
-447
 72
-185
 73
35
  0
VERTEX
  8
Layer0
10
0.0
 20
 0.0
 30
0.0
 70
     128
 71
-35
 72
-185
 73
-448
  0
VERTEX
  8
Layer0
10
0.0
 20
 0.0
 30
0.0
 70
     128
 71
-448
 72
-185
 73
-171
  0
VERTEX
  8
Layer0
10
0.0
 20
 0.0
 30
0.0
 70
     128
 71
-448
 72
-171
 73
-449
  0
VERTEX
  8
Layer0
10
0.0
 20
 0.0
 30
0.0
 70
     128
 71
-448
 72
449
 73
-450
  0
VERTEX
  8
Layer0
10
0.0
 20
 0.0
 30
0.0
 70
     128
 71
-35
 72
448
 73
-33
  0
VERTEX
  8
Layer0
10
0.0
 20
 0.0
 30
0.0
 70
     128
 71
-446
 72
447
 73
-451
  0
VERTEX
  8
Layer0
10
0.0
 20
 0.0
 30
0.0
 70
     128
 71
-446
 72
451
 73
-3
  0
VERTEX
  8
Layer0
10
0.0
 20
 0.0
 30
0.0
 70
     128
 71
-446
 72
-3
 73
2
  0
VERTEX
  8
Layer0
10
0.0
 20
 0.0
 30
0.0
 70
     128
 71
-423
 72
424
 73
-452
  0
VERTEX
  8
Layer0
10
0.0
 20
 0.0
 30
0.0
 70
     128
 71
-423
 72
452
 73
-453
  0
VERTEX
  8
Layer0
10
0.0
 20
 0.0
 30
0.0
 70
     128
 71
-423
 72
453
 73
-454
  0
VERTEX
  8
Layer0
10
0.0
 20
 0.0
 30
0.0
 70
     128
 71
-423
 72
454
 73
-455
  0
VERTEX
  8
Layer0
10
0.0
 20
 0.0
 30
0.0
 70
     128
 71
-423
 72
455
 73
-456
  0
VERTEX
  8
Layer0
10
0.0
 20
 0.0
 30
0.0
 70
     128
 71
-423
 72
456
 73
-457
  0
VERTEX
  8
Layer0
10
0.0
 20
 0.0
 30
0.0
 70
     128
 71
-423
 72
457
 73
-458
  0
VERTEX
  8
Layer0
10
0.0
 20
 0.0
 30
0.0
 70
     128
 71
-423
 72
458
 73
-459
  0
VERTEX
  8
Layer0
10
0.0
 20
 0.0
 30
0.0
 70
     128
 71
-423
 72
459
 73
-460
  0
VERTEX
  8
Layer0
10
0.0
 20
 0.0
 30
0.0
 70
     128
 71
-423
 72
460
 73
-461
  0
VERTEX
  8
Layer0
10
0.0
 20
 0.0
 30
0.0
 70
     128
 71
-423
 72
461
 73
-462
  0
VERTEX
  8
Layer0
10
0.0
 20
 0.0
 30
0.0
 70
     128
 71
-423
 72
462
 73
-463
  0
VERTEX
  8
Layer0
10
0.0
 20
 0.0
 30
0.0
 70
     128
 71
-423
 72
463
 73
-31
  0
VERTEX
  8
Layer0
10
0.0
 20
 0.0
 30
0.0
 70
     128
 71
-423
 72
-31
 73
464
  0
VERTEX
  8
Layer0
10
0.0
 20
 0.0
 30
0.0
 70
     128
 71
-464
 72
-31
 73
465
  0
VERTEX
  8
Layer0
10
0.0
 20
 0.0
 30
0.0
 70
     128
 71
-465
 72
-31
 73
-32
  0
VERTEX
  8
Layer0
10
0.0
 20
 0.0
 30
0.0
 70
     128
 71
-465
 72
-32
 73
-466
  0
VERTEX
  8
Layer0
10
0.0
 20
 0.0
 30
0.0
 70
     128
 71
-466
 72
-32
 73
467
  0
VERTEX
  8
Layer0
10
0.0
 20
 0.0
 30
0.0
 70
     128
 71
-467
 72
32
 73
-468
  0
VERTEX
  8
Layer0
10
0.0
 20
 0.0
 30
0.0
 70
     128
 71
-467
 72
468
 73
-469
  0
VERTEX
  8
Layer0
10
0.0
 20
 0.0
 30
0.0
 70
     128
 71
-467
 72
-469
 73
470
  0
VERTEX
  8
Layer0
10
0.0
 20
 0.0
 30
0.0
 70
     128
 71
-470
 72
469
 73
-68
  0
VERTEX
  8
Layer0
10
0.0
 20
 0.0
 30
0.0
 70
     128
 71
-470
 72
-68
 73
471
  0
VERTEX
  8
Layer0
10
0.0
 20
 0.0
 30
0.0
 70
     128
 71
-471
 72
-68
 73
472
  0
VERTEX
  8
Layer0
10
0.0
 20
 0.0
 30
0.0
 70
     128
 71
-472
 72
-68
 73
473
  0
VERTEX
  8
Layer0
10
0.0
 20
 0.0
 30
0.0
 70
     128
 71
-473
 72
-68
 73
-40
  0
VERTEX
  8
Layer0
10
0.0
 20
 0.0
 30
0.0
 70
     128
 71
-473
 72
40
 73
-474
  0
VERTEX
  8
Layer0
10
0.0
 20
 0.0
 30
0.0
 70
     128
 71
-473
 72
474
 73
-199
  0
VERTEX
  8
Layer0
10
0.0
 20
 0.0
 30
0.0
 70
     128
 71
-473
 72
-199
 73
-201
  0
VERTEX
  8
Layer0
10
0.0
 20
 0.0
 30
0.0
 70
     128
 71
-465
 72
466
 73
-475
  0
VERTEX
  8
Layer0
10
0.0
 20
 0.0
 30
0.0
 70
     128
 71
-465
 72
475
 73
-476
  0
VERTEX
  8
Layer0
10
0.0
 20
 0.0
 30
0.0
 70
     128
 71
-465
 72
476
 73
-477
  0
VERTEX
  8
Layer0
10
0.0
 20
 0.0
 30
0.0
 70
     128
 71
-465
 72
477
 73
-478
  0
VERTEX
  8
Layer0
10
0.0
 20
 0.0
 30
0.0
 70
     128
 71
-465
 72
478
 73
-479
  0
VERTEX
  8
Layer0
10
0.0
 20
 0.0
 30
0.0
 70
     128
 71
-465
 72
479
 73
-480
  0
VERTEX
  8
Layer0
10
0.0
 20
 0.0
 30
0.0
 70
     128
 71
-465
 72
480
 73
-213
  0
VERTEX
  8
Layer0
10
0.0
 20
 0.0
 30
0.0
 70
     128
 71
-465
 72
-213
 73
481
  0
VERTEX
  8
Layer0
10
0.0
 20
 0.0
 30
0.0
 70
     128
 71
-481
 72
-213
 73
482
  0
VERTEX
  8
Layer0
10
0.0
 20
 0.0
 30
0.0
 70
     128
 71
-482
 72
-213
 73
483
  0
VERTEX
  8
Layer0
10
0.0
 20
 0.0
 30
0.0
 70
     128
 71
-483
 72
-213
 73
484
  0
VERTEX
  8
Layer0
10
0.0
 20
 0.0
 30
0.0
 70
     128
 71
-484
 72
-213
 73
485
  0
VERTEX
  8
Layer0
10
0.0
 20
 0.0
 30
0.0
 70
     128
 71
-485
 72
-213
 73
486
  0
VERTEX
  8
Layer0
10
0.0
 20
 0.0
 30
0.0
 70
     128
 71
-486
 72
-213
 73
487
  0
VERTEX
  8
Layer0
10
0.0
 20
 0.0
 30
0.0
 70
     128
 71
-487
 72
-213
 73
488
  0
VERTEX
  8
Layer0
10
0.0
 20
 0.0
 30
0.0
 70
     128
 71
-488
 72
-213
 73
489
  0
VERTEX
  8
Layer0
10
0.0
 20
 0.0
 30
0.0
 70
     128
 71
-489
 72
-213
 73
-215
  0
VERTEX
  8
Layer0
10
0.0
 20
 0.0
 30
0.0
 70
     128
 71
-322
 72
422
 73
-490
  0
VERTEX
  8
Layer0
10
0.0
 20
 0.0
 30
0.0
 70
     128
 71
-322
 72
490
 73
-491
  0
VERTEX
  8
Layer0
10
0.0
 20
 0.0
 30
0.0
 70
     128
 71
-322
 72
491
 73
-492
  0
VERTEX
  8
Layer0
10
0.0
 20
 0.0
 30
0.0
 70
     128
 71
-322
 72
492
 73
-493
  0
VERTEX
  8
Layer0
10
0.0
 20
 0.0
 30
0.0
 70
     128
 71
-322
 72
493
 73
-494
  0
VERTEX
  8
Layer0
10
0.0
 20
 0.0
 30
0.0
 70
     128
 71
-322
 72
494
 73
-495
  0
VERTEX
  8
Layer0
10
0.0
 20
 0.0
 30
0.0
 70
     128
 71
-322
 72
495
 73
-496
  0
VERTEX
  8
Layer0
10
0.0
 20
 0.0
 30
0.0
 70
     128
 71
-322
 72
496
 73
-497
  0
VERTEX
  8
Layer0
10
0.0
 20
 0.0
 30
0.0
 70
     128
 71
-322
 72
497
 73
-498
  0
VERTEX
  8
Layer0
10
0.0
 20
 0.0
 30
0.0
 70
     128
 71
-322
 72
498
 73
-499
  0
VERTEX
  8
Layer0
10
0.0
 20
 0.0
 30
0.0
 70
     128
 71
-322
 72
499
 73
-500
  0
VERTEX
  8
Layer0
10
0.0
 20
 0.0
 30
0.0
 70
     128
 71
-322
 72
500
 73
-501
  0
VERTEX
  8
Layer0
10
0.0
 20
 0.0
 30
0.0
 70
     128
 71
-322
 72
501
 73
-502
  0
VERTEX
  8
Layer0
10
0.0
 20
 0.0
 30
0.0
 70
     128
 71
-322
 72
502
 73
-503
  0
VERTEX
  8
Layer0
10
0.0
 20
 0.0
 30
0.0
 70
     128
 71
-322
 72
-503
 73
-504
  0
VERTEX
  8
Layer0
10
0.0
 20
 0.0
 30
0.0
 70
     128
 71
-504
 72
503
 73
-242
  0
VERTEX
  8
Layer0
10
0.0
 20
 0.0
 30
0.0
 70
     128
 71
-504
 72
-242
 73
505
  0
VERTEX
  8
Layer0
10
0.0
 20
 0.0
 30
0.0
 70
     128
 71
-505
 72
-242
 73
506
  0
VERTEX
  8
Layer0
10
0.0
 20
 0.0
 30
0.0
 70
     128
 71
-506
 72
-242
 73
507
  0
VERTEX
  8
Layer0
10
0.0
 20
 0.0
 30
0.0
 70
     128
 71
-507
 72
-242
 73
-508
  0
VERTEX
  8
Layer0
10
0.0
 20
 0.0
 30
0.0
 70
     128
 71
-508
 72
-242
 73
509
  0
VERTEX
  8
Layer0
10
0.0
 20
 0.0
 30
0.0
 70
     128
 71
-509
 72
-242
 73
-510
  0
VERTEX
  8
Layer0
10
0.0
 20
 0.0
 30
0.0
 70
     128
 71
-510
 72
-242
 73
-511
  0
VERTEX
  8
Layer0
10
0.0
 20
 0.0
 30
0.0
 70
     128
 71
-511
 72
-242
 73
512
  0
VERTEX
  8
Layer0
10
0.0
 20
 0.0
 30
0.0
 70
     128
 71
-512
 72
-242
 73
-513
  0
VERTEX
  8
Layer0
10
0.0
 20
 0.0
 30
0.0
 70
     128
 71
-513
 72
-242
 73
514
  0
VERTEX
  8
Layer0
10
0.0
 20
 0.0
 30
0.0
 70
     128
 71
-514
 72
-242
 73
-244
  0
VERTEX
  8
Layer0
10
0.0
 20
 0.0
 30
0.0
 70
     128
 71
-514
 72
244
 73
-515
  0
VERTEX
  8
Layer0
10
0.0
 20
 0.0
 30
0.0
 70
     128
 71
-514
 72
515
 73
516
  0
VERTEX
  8
Layer0
10
0.0
 20
 0.0
 30
0.0
 70
     128
 71
-512
 72
513
 73
517
  0
VERTEX
  8
Layer0
10
0.0
 20
 0.0
 30
0.0
 70
     128
 71
-510
 72
511
 73
518
  0
VERTEX
  8
Layer0
10
0.0
 20
 0.0
 30
0.0
 70
     128
 71
-509
 72
510
 73
519
  0
VERTEX
  8
Layer0
10
0.0
 20
 0.0
 30
0.0
 70
     128
 71
-507
 72
508
 73
-520
  0
VERTEX
  8
Layer0
10
0.0
 20
 0.0
 30
0.0
 70
     128
 71
-507
 72
520
 73
-521
  0
VERTEX
  8
Layer0
10
0.0
 20
 0.0
 30
0.0
 70
     128
 71
-507
 72
521
 73
-522
  0
VERTEX
  8
Layer0
10
0.0
 20
 0.0
 30
0.0
 70
     128
 71
-507
 72
522
 73
-523
  0
VERTEX
  8
Layer0
10
0.0
 20
 0.0
 30
0.0
 70
     128
 71
-507
 72
-523
 73
524
  0
VERTEX
  8
Layer0
10
0.0
 20
 0.0
 30
0.0
 70
     128
 71
-524
 72
523
 73
-525
  0
VERTEX
  8
Layer0
10
0.0
 20
 0.0
 30
0.0
 70
     128
 71
-524
 72
525
 73
-526
  0
VERTEX
  8
Layer0
10
0.0
 20
 0.0
 30
0.0
 70
     128
 71
-524
 72
526
 73
-527
  0
VERTEX
  8
Layer0
10
0.0
 20
 0.0
 30
0.0
 70
     128
 71
-524
 72
527
 73
-528
  0
VERTEX
  8
Layer0
10
0.0
 20
 0.0
 30
0.0
 70
     128
 71
-524
 72
-528
 73
529
  0
VERTEX
  8
Layer0
10
0.0
 20
 0.0
 30
0.0
 70
     128
 71
-529
 72
528
 73
-530
  0
VERTEX
  8
Layer0
10
0.0
 20
 0.0
 30
0.0
 70
     128
 71
-529
 72
530
 73
-531
  0
VERTEX
  8
Layer0
10
0.0
 20
 0.0
 30
0.0
 70
     128
 71
-529
 72
-531
 73
-532
  0
VERTEX
  8
Layer0
10
0.0
 20
 0.0
 30
0.0
 70
     128
 71
-532
 72
531
 73
-533
  0
VERTEX
  8
Layer0
10
0.0
 20
 0.0
 30
0.0
 70
     128
 71
-532
 72
533
 73
-534
  0
VERTEX
  8
Layer0
10
0.0
 20
 0.0
 30
0.0
 70
     128
 71
-532
 72
534
 73
-535
  0
VERTEX
  8
Layer0
10
0.0
 20
 0.0
 30
0.0
 70
     128
 71
-532
 72
-535
 73
536
  0
VERTEX
  8
Layer0
10
0.0
 20
 0.0
 30
0.0
 70
     128
 71
-536
 72
535
 73
-537
  0
VERTEX
  8
Layer0
10
0.0
 20
 0.0
 30
0.0
 70
     128
 71
-536
 72
537
 73
-538
  0
VERTEX
  8
Layer0
10
0.0
 20
 0.0
 30
0.0
 70
     128
 71
-536
 72
-538
 73
-539
  0
VERTEX
  8
Layer0
10
0.0
 20
 0.0
 30
0.0
 70
     128
 71
-539
 72
538
 73
-540
  0
VERTEX
  8
Layer0
10
0.0
 20
 0.0
 30
0.0
 70
     128
 71
-539
 72
540
 73
-541
  0
VERTEX
  8
Layer0
10
0.0
 20
 0.0
 30
0.0
 70
     128
 71
-539
 72
541
 73
-542
  0
VERTEX
  8
Layer0
10
0.0
 20
 0.0
 30
0.0
 70
     128
 71
-539
 72
542
 73
-543
  0
VERTEX
  8
Layer0
10
0.0
 20
 0.0
 30
0.0
 70
     128
 71
-539
 72
-543
 73
544
  0
VERTEX
  8
Layer0
10
0.0
 20
 0.0
 30
0.0
 70
     128
 71
-544
 72
543
 73
-545
  0
VERTEX
  8
Layer0
10
0.0
 20
 0.0
 30
0.0
 70
     128
 71
-544
 72
545
 73
-546
  0
VERTEX
  8
Layer0
10
0.0
 20
 0.0
 30
0.0
 70
     128
 71
-544
 72
546
 73
-547
  0
VERTEX
  8
Layer0
10
0.0
 20
 0.0
 30
0.0
 70
     128
 71
-544
 72
547
 73
-548
  0
VERTEX
  8
Layer0
10
0.0
 20
 0.0
 30
0.0
 70
     128
 71
-544
 72
-548
 73
549
  0
VERTEX
  8
Layer0
10
0.0
 20
 0.0
 30
0.0
 70
     128
 71
-549
 72
548
 73
-280
  0
VERTEX
  8
Layer0
10
0.0
 20
 0.0
 30
0.0
 70
     128
 71
-549
 72
-280
 73
550
  0
VERTEX
  8
Layer0
10
0.0
 20
 0.0
 30
0.0
 70
     128
 71
-550
 72
-280
 73
-282
  0
VERTEX
  8
Layer0
10
0.0
 20
 0.0
 30
0.0
 70
     128
 71
-536
 72
539
 73
-551
  0
VERTEX
  8
Layer0
10
0.0
 20
 0.0
 30
0.0
 70
     128
 71
-536
 72
551
 73
552
  0
VERTEX
  8
Layer0
10
0.0
 20
 0.0
 30
0.0
 70
     128
 71
-529
 72
532
 73
-553
  0
VERTEX
  8
Layer0
10
0.0
 20
 0.0
 30
0.0
 70
     128
 71
-529
 72
553
 73
554
  0
VERTEX
  8
Layer0
10
0.0
 20
 0.0
 30
0.0
 70
     128
 71
-322
 72
504
 73
-555
  0
VERTEX
  8
Layer0
10
0.0
 20
 0.0
 30
0.0
 70
     128
 71
-322
 72
555
 73
-556
  0
VERTEX
  8
Layer0
10
0.0
 20
 0.0
 30
0.0
 70
     128
 71
-322
 72
556
 73
-557
  0
VERTEX
  8
Layer0
10
0.0
 20
 0.0
 30
0.0
 70
     128
 71
-322
 72
557
 73
-558
  0
VERTEX
  8
Layer0
10
0.0
 20
 0.0
 30
0.0
 70
     128
 71
-322
 72
558
 73
-559
  0
VERTEX
  8
Layer0
10
0.0
 20
 0.0
 30
0.0
 70
     128
 71
-322
 72
559
 73
-560
  0
VERTEX
  8
Layer0
10
0.0
 20
 0.0
 30
0.0
 70
     128
 71
-322
 72
560
 73
-561
  0
VERTEX
  8
Layer0
10
0.0
 20
 0.0
 30
0.0
 70
     128
 71
-322
 72
561
 73
-562
  0
VERTEX
  8
Layer0
10
0.0
 20
 0.0
 30
0.0
 70
     128
 71
-322
 72
562
 73
-563
  0
VERTEX
  8
Layer0
10
0.0
 20
 0.0
 30
0.0
 70
     128
 71
-322
 72
563
 73
-564
  0
VERTEX
  8
Layer0
10
0.0
 20
 0.0
 30
0.0
 70
     128
 71
-322
 72
564
 73
-565
  0
VERTEX
  8
Layer0
10
0.0
 20
 0.0
 30
0.0
 70
     128
 71
-322
 72
565
 73
-566
  0
VERTEX
  8
Layer0
10
0.0
 20
 0.0
 30
0.0
 70
     128
 71
-322
 72
566
 73
-309
  0
VERTEX
  8
Layer0
10
0.0
 20
 0.0
 30
0.0
 70
     128
 71
-322
 72
-309
 73
-567
  0
VERTEX
  8
Layer0
10
0.0
 20
 0.0
 30
0.0
 70
     128
 71
-567
 72
-309
 73
-253
  0
VERTEX
  8
Layer0
10
0.0
 20
 0.0
 30
0.0
 70
     128
 71
-322
 72
567
 73
-568
  0
VERTEX
  8
Layer0
10
0.0
 20
 0.0
 30
0.0
 70
     128
 71
-322
 72
568
 73
-569
  0
VERTEX
  8
Layer0
10
0.0
 20
 0.0
 30
0.0
 70
     128
 71
-322
 72
569
 73
-570
  0
VERTEX
  8
Layer0
10
0.0
 20
 0.0
 30
0.0
 70
     128
 71
-322
 72
570
 73
-571
  0
VERTEX
  8
Layer0
10
0.0
 20
 0.0
 30
0.0
 70
     128
 71
-322
 72
571
 73
-572
  0
VERTEX
  8
Layer0
10
0.0
 20
 0.0
 30
0.0
 70
     128
 71
-322
 72
572
 73
-573
  0
VERTEX
  8
Layer0
10
0.0
 20
 0.0
 30
0.0
 70
     128
 71
-322
 72
573
 73
-574
  0
VERTEX
  8
Layer0
10
0.0
 20
 0.0
 30
0.0
 70
     128
 71
-322
 72
574
 73
-575
  0
VERTEX
  8
Layer0
10
0.0
 20
 0.0
 30
0.0
 70
     128
 71
-322
 72
575
 73
-576
  0
VERTEX
  8
Layer0
10
0.0
 20
 0.0
 30
0.0
 70
     128
 71
-322
 72
576
 73
-577
  0
VERTEX
  8
Layer0
10
0.0
 20
 0.0
 30
0.0
 70
     128
 71
-322
 72
577
 73
-578
  0
VERTEX
  8
Layer0
10
0.0
 20
 0.0
 30
0.0
 70
     128
 71
-322
 72
578
 73
-321
  0
VERTEX
  8
Layer0
10
0.0
 20
 0.0
 30
0.0
 70
     128
 71
-579
 72
-567
 73
253
  0
VERTEX
  8
Layer0
10
0.0
 20
 0.0
 30
0.0
 70
     128
 71
-567
 72
-579
 73
580
  0
VERTEX
  8
Layer0
10
0.0
 20
 0.0
 30
0.0
 70
     128
 71
-580
 72
579
 73
-581
  0
VERTEX
  8
Layer0
10
0.0
 20
 0.0
 30
0.0
 70
     128
 71
-580
 72
-581
 73
582
  0
VERTEX
  8
Layer0
10
0.0
 20
 0.0
 30
0.0
 70
     128
 71
-582
 72
581
 73
-583
  0
VERTEX
  8
Layer0
10
0.0
 20
 0.0
 30
0.0
 70
     128
 71
-582
 72
-583
 73
584
  0
VERTEX
  8
Layer0
10
0.0
 20
 0.0
 30
0.0
 70
     128
 71
-584
 72
583
 73
-585
  0
VERTEX
  8
Layer0
10
0.0
 20
 0.0
 30
0.0
 70
     128
 71
-584
 72
-585
 73
586
  0
VERTEX
  8
Layer0
10
0.0
 20
 0.0
 30
0.0
 70
     128
 71
-586
 72
585
 73
-587
  0
VERTEX
  8
Layer0
10
0.0
 20
 0.0
 30
0.0
 70
     128
 71
-586
 72
-587
 73
588
  0
VERTEX
  8
Layer0
10
0.0
 20
 0.0
 30
0.0
 70
     128
 71
-588
 72
587
 73
-589
  0
VERTEX
  8
Layer0
10
0.0
 20
 0.0
 30
0.0
 70
     128
 71
-588
 72
-589
 73
590
  0
VERTEX
  8
Layer0
10
0.0
 20
 0.0
 30
0.0
 70
     128
 71
-590
 72
589
 73
-591
  0
VERTEX
  8
Layer0
10
0.0
 20
 0.0
 30
0.0
 70
     128
 71
-590
 72
-591
 73
592
  0
VERTEX
  8
Layer0
10
0.0
 20
 0.0
 30
0.0
 70
     128
 71
-592
 72
591
 73
-593
  0
VERTEX
  8
Layer0
10
0.0
 20
 0.0
 30
0.0
 70
     128
 71
-592
 72
-593
 73
594
  0
VERTEX
  8
Layer0
10
0.0
 20
 0.0
 30
0.0
 70
     128
 71
-594
 72
593
 73
-595
  0
VERTEX
  8
Layer0
10
0.0
 20
 0.0
 30
0.0
 70
     128
 71
-594
 72
-595
 73
596
  0
VERTEX
  8
Layer0
10
0.0
 20
 0.0
 30
0.0
 70
     128
 71
-596
 72
595
 73
-597
  0
VERTEX
  8
Layer0
10
0.0
 20
 0.0
 30
0.0
 70
     128
 71
-596
 72
-597
 73
598
  0
VERTEX
  8
Layer0
10
0.0
 20
 0.0
 30
0.0
 70
     128
 71
-598
 72
597
 73
-599
  0
VERTEX
  8
Layer0
10
0.0
 20
 0.0
 30
0.0
 70
     128
 71
-598
 72
-599
 73
600
  0
VERTEX
  8
Layer0
10
0.0
 20
 0.0
 30
0.0
 70
     128
 71
-600
 72
599
 73
-319
  0
VERTEX
  8
Layer0
10
0.0
 20
 0.0
 30
0.0
 70
     128
 71
-600
 72
-319
 73
321
  0
VERTEX
  8
Layer0
10
0.0
 20
 0.0
 30
0.0
 70
     128
 71
-601
 72
-550
 73
282
  0
VERTEX
  8
Layer0
10
0.0
 20
 0.0
 30
0.0
 70
     128
 71
-550
 72
-601
 73
602
  0
VERTEX
  8
Layer0
10
0.0
 20
 0.0
 30
0.0
 70
     128
 71
-602
 72
601
 73
-603
  0
VERTEX
  8
Layer0
10
0.0
 20
 0.0
 30
0.0
 70
     128
 71
-602
 72
-603
 73
604
  0
VERTEX
  8
Layer0
10
0.0
 20
 0.0
 30
0.0
 70
     128
 71
-604
 72
603
 73
-605
  0
VERTEX
  8
Layer0
10
0.0
 20
 0.0
 30
0.0
 70
     128
 71
-604
 72
-605
 73
606
  0
VERTEX
  8
Layer0
10
0.0
 20
 0.0
 30
0.0
 70
     128
 71
-606
 72
605
 73
-607
  0
VERTEX
  8
Layer0
10
0.0
 20
 0.0
 30
0.0
 70
     128
 71
-606
 72
-607
 73
608
  0
VERTEX
  8
Layer0
10
0.0
 20
 0.0
 30
0.0
 70
     128
 71
-608
 72
607
 73
-609
  0
VERTEX
  8
Layer0
10
0.0
 20
 0.0
 30
0.0
 70
     128
 71
-608
 72
-609
 73
610
  0
VERTEX
  8
Layer0
10
0.0
 20
 0.0
 30
0.0
 70
     128
 71
-610
 72
609
 73
-611
  0
VERTEX
  8
Layer0
10
0.0
 20
 0.0
 30
0.0
 70
     128
 71
-610
 72
-611
 73
612
  0
VERTEX
  8
Layer0
10
0.0
 20
 0.0
 30
0.0
 70
     128
 71
-612
 72
611
 73
-613
  0
VERTEX
  8
Layer0
10
0.0
 20
 0.0
 30
0.0
 70
     128
 71
-612
 72
-613
 73
614
  0
VERTEX
  8
Layer0
10
0.0
 20
 0.0
 30
0.0
 70
     128
 71
-614
 72
613
 73
-615
  0
VERTEX
  8
Layer0
10
0.0
 20
 0.0
 30
0.0
 70
     128
 71
-614
 72
-615
 73
616
  0
VERTEX
  8
Layer0
10
0.0
 20
 0.0
 30
0.0
 70
     128
 71
-616
 72
615
 73
-617
  0
VERTEX
  8
Layer0
10
0.0
 20
 0.0
 30
0.0
 70
     128
 71
-616
 72
-617
 73
618
  0
VERTEX
  8
Layer0
10
0.0
 20
 0.0
 30
0.0
 70
     128
 71
-618
 72
617
 73
-619
  0
VERTEX
  8
Layer0
10
0.0
 20
 0.0
 30
0.0
 70
     128
 71
-618
 72
-619
 73
620
  0
VERTEX
  8
Layer0
10
0.0
 20
 0.0
 30
0.0
 70
     128
 71
-620
 72
619
 73
-621
  0
VERTEX
  8
Layer0
10
0.0
 20
 0.0
 30
0.0
 70
     128
 71
-620
 72
-621
 73
622
  0
VERTEX
  8
Layer0
10
0.0
 20
 0.0
 30
0.0
 70
     128
 71
-622
 72
621
 73
-623
  0
VERTEX
  8
Layer0
10
0.0
 20
 0.0
 30
0.0
 70
     128
 71
-622
 72
-623
 73
624
  0
VERTEX
  8
Layer0
10
0.0
 20
 0.0
 30
0.0
 70
     128
 71
-624
 72
623
 73
-625
  0
VERTEX
  8
Layer0
10
0.0
 20
 0.0
 30
0.0
 70
     128
 71
-624
 72
-625
 73
626
  0
VERTEX
  8
Layer0
10
0.0
 20
 0.0
 30
0.0
 70
     128
 71
-626
 72
625
 73
-627
  0
VERTEX
  8
Layer0
10
0.0
 20
 0.0
 30
0.0
 70
     128
 71
-626
 72
-627
 73
628
  0
VERTEX
  8
Layer0
10
0.0
 20
 0.0
 30
0.0
 70
     128
 71
-628
 72
627
 73
-629
  0
VERTEX
  8
Layer0
10
0.0
 20
 0.0
 30
0.0
 70
     128
 71
-628
 72
-629
 73
630
  0
VERTEX
  8
Layer0
10
0.0
 20
 0.0
 30
0.0
 70
     128
 71
-630
 72
-629
 73
631
  0
VERTEX
  8
Layer0
10
0.0
 20
 0.0
 30
0.0
 70
     128
 71
-631
 72
-629
 73
632
  0
VERTEX
  8
Layer0
10
0.0
 20
 0.0
 30
0.0
 70
     128
 71
-632
 72
629
 73
-633
  0
VERTEX
  8
Layer0
10
0.0
 20
 0.0
 30
0.0
 70
     128
 71
-632
 72
633
 73
-634
  0
VERTEX
  8
Layer0
10
0.0
 20
 0.0
 30
0.0
 70
     128
 71
-632
 72
-634
 73
635
  0
VERTEX
  8
Layer0
10
0.0
 20
 0.0
 30
0.0
 70
     128
 71
-635
 72
634
 73
-636
  0
VERTEX
  8
Layer0
10
0.0
 20
 0.0
 30
0.0
 70
     128
 71
-635
 72
-636
 73
637
  0
VERTEX
  8
Layer0
10
0.0
 20
 0.0
 30
0.0
 70
     128
 71
-637
 72
636
 73
-638
  0
VERTEX
  8
Layer0
10
0.0
 20
 0.0
 30
0.0
 70
     128
 71
-637
 72
-638
 73
639
  0
VERTEX
  8
Layer0
10
0.0
 20
 0.0
 30
0.0
 70
     128
 71
-639
 72
638
 73
-640
  0
VERTEX
  8
Layer0
10
0.0
 20
 0.0
 30
0.0
 70
     128
 71
-639
 72
-640
 73
641
  0
VERTEX
  8
Layer0
10
0.0
 20
 0.0
 30
0.0
 70
     128
 71
-641
 72
640
 73
-642
  0
VERTEX
  8
Layer0
10
0.0
 20
 0.0
 30
0.0
 70
     128
 71
-641
 72
-642
 73
643
  0
VERTEX
  8
Layer0
10
0.0
 20
 0.0
 30
0.0
 70
     128
 71
-643
 72
642
 73
-644
  0
VERTEX
  8
Layer0
10
0.0
 20
 0.0
 30
0.0
 70
     128
 71
-643
 72
-644
 73
645
  0
VERTEX
  8
Layer0
10
0.0
 20
 0.0
 30
0.0
 70
     128
 71
-645
 72
644
 73
-646
  0
VERTEX
  8
Layer0
10
0.0
 20
 0.0
 30
0.0
 70
     128
 71
-645
 72
-646
 73
647
  0
VERTEX
  8
Layer0
10
0.0
 20
 0.0
 30
0.0
 70
     128
 71
-647
 72
646
 73
-648
  0
VERTEX
  8
Layer0
10
0.0
 20
 0.0
 30
0.0
 70
     128
 71
-647
 72
-648
 73
649
  0
VERTEX
  8
Layer0
10
0.0
 20
 0.0
 30
0.0
 70
     128
 71
-649
 72
648
 73
-650
  0
VERTEX
  8
Layer0
10
0.0
 20
 0.0
 30
0.0
 70
     128
 71
-649
 72
-650
 73
651
  0
VERTEX
  8
Layer0
10
0.0
 20
 0.0
 30
0.0
 70
     128
 71
-651
 72
650
 73
-652
  0
VERTEX
  8
Layer0
10
0.0
 20
 0.0
 30
0.0
 70
     128
 71
-651
 72
-652
 73
653
  0
VERTEX
  8
Layer0
10
0.0
 20
 0.0
 30
0.0
 70
     128
 71
-653
 72
652
 73
-308
  0
VERTEX
  8
Layer0
10
0.0
 20
 0.0
 30
0.0
 70
     128
 71
-653
 72
-308
 73
309
  0
VERTEX
  8
Layer0
10
0.0
 20
 0.0
 30
0.0
 70
     128
 71
-654
 72
-489
 73
215
  0
VERTEX
  8
Layer0
10
0.0
 20
 0.0
 30
0.0
 70
     128
 71
-489
 72
-654
 73
655
  0
VERTEX
  8
Layer0
10
0.0
 20
 0.0
 30
0.0
 70
     128
 71
-655
 72
654
 73
-656
  0
VERTEX
  8
Layer0
10
0.0
 20
 0.0
 30
0.0
 70
     128
 71
-655
 72
-656
 73
657
  0
VERTEX
  8
Layer0
10
0.0
 20
 0.0
 30
0.0
 70
     128
 71
-657
 72
656
 73
-658
  0
VERTEX
  8
Layer0
10
0.0
 20
 0.0
 30
0.0
 70
     128
 71
-657
 72
-658
 73
659
  0
VERTEX
  8
Layer0
10
0.0
 20
 0.0
 30
0.0
 70
     128
 71
-659
 72
658
 73
-660
  0
VERTEX
  8
Layer0
10
0.0
 20
 0.0
 30
0.0
 70
     128
 71
-659
 72
-660
 73
661
  0
VERTEX
  8
Layer0
10
0.0
 20
 0.0
 30
0.0
 70
     128
 71
-661
 72
660
 73
-662
  0
VERTEX
  8
Layer0
10
0.0
 20
 0.0
 30
0.0
 70
     128
 71
-661
 72
-662
 73
663
  0
VERTEX
  8
Layer0
10
0.0
 20
 0.0
 30
0.0
 70
     128
 71
-663
 72
662
 73
-664
  0
VERTEX
  8
Layer0
10
0.0
 20
 0.0
 30
0.0
 70
     128
 71
-663
 72
-664
 73
665
  0
VERTEX
  8
Layer0
10
0.0
 20
 0.0
 30
0.0
 70
     128
 71
-665
 72
664
 73
-666
  0
VERTEX
  8
Layer0
10
0.0
 20
 0.0
 30
0.0
 70
     128
 71
-665
 72
-666
 73
667
  0
VERTEX
  8
Layer0
10
0.0
 20
 0.0
 30
0.0
 70
     128
 71
-667
 72
666
 73
-668
  0
VERTEX
  8
Layer0
10
0.0
 20
 0.0
 30
0.0
 70
     128
 71
-667
 72
-668
 73
669
  0
VERTEX
  8
Layer0
10
0.0
 20
 0.0
 30
0.0
 70
     128
 71
-669
 72
-668
 73
670
  0
VERTEX
  8
Layer0
10
0.0
 20
 0.0
 30
0.0
 70
     128
 71
-670
 72
668
 73
-671
  0
VERTEX
  8
Layer0
10
0.0
 20
 0.0
 30
0.0
 70
     128
 71
-670
 72
671
 73
-672
  0
VERTEX
  8
Layer0
10
0.0
 20
 0.0
 30
0.0
 70
     128
 71
-670
 72
-672
 73
673
  0
VERTEX
  8
Layer0
10
0.0
 20
 0.0
 30
0.0
 70
     128
 71
-673
 72
672
 73
-674
  0
VERTEX
  8
Layer0
10
0.0
 20
 0.0
 30
0.0
 70
     128
 71
-673
 72
-674
 73
675
  0
VERTEX
  8
Layer0
10
0.0
 20
 0.0
 30
0.0
 70
     128
 71
-675
 72
674
 73
-676
  0
VERTEX
  8
Layer0
10
0.0
 20
 0.0
 30
0.0
 70
     128
 71
-675
 72
-676
 73
677
  0
VERTEX
  8
Layer0
10
0.0
 20
 0.0
 30
0.0
 70
     128
 71
-677
 72
-676
 73
678
  0
VERTEX
  8
Layer0
10
0.0
 20
 0.0
 30
0.0
 70
     128
 71
-678
 72
676
 73
-679
  0
VERTEX
  8
Layer0
10
0.0
 20
 0.0
 30
0.0
 70
     128
 71
-678
 72
679
 73
-680
  0
VERTEX
  8
Layer0
10
0.0
 20
 0.0
 30
0.0
 70
     128
 71
-678
 72
-680
 73
681
  0
VERTEX
  8
Layer0
10
0.0
 20
 0.0
 30
0.0
 70
     128
 71
-681
 72
680
 73
-682
  0
VERTEX
  8
Layer0
10
0.0
 20
 0.0
 30
0.0
 70
     128
 71
-681
 72
-682
 73
683
  0
VERTEX
  8
Layer0
10
0.0
 20
 0.0
 30
0.0
 70
     128
 71
-683
 72
682
 73
-684
  0
VERTEX
  8
Layer0
10
0.0
 20
 0.0
 30
0.0
 70
     128
 71
-683
 72
-684
 73
685
  0
VERTEX
  8
Layer0
10
0.0
 20
 0.0
 30
0.0
 70
     128
 71
-685
 72
684
 73
-686
  0
VERTEX
  8
Layer0
10
0.0
 20
 0.0
 30
0.0
 70
     128
 71
-685
 72
-686
 73
687
  0
VERTEX
  8
Layer0
10
0.0
 20
 0.0
 30
0.0
 70
     128
 71
-687
 72
686
 73
-688
  0
VERTEX
  8
Layer0
10
0.0
 20
 0.0
 30
0.0
 70
     128
 71
-687
 72
-688
 73
689
  0
VERTEX
  8
Layer0
10
0.0
 20
 0.0
 30
0.0
 70
     128
 71
-689
 72
688
 73
-690
  0
VERTEX
  8
Layer0
10
0.0
 20
 0.0
 30
0.0
 70
     128
 71
-689
 72
-690
 73
691
  0
VERTEX
  8
Layer0
10
0.0
 20
 0.0
 30
0.0
 70
     128
 71
-691
 72
690
 73
-692
  0
VERTEX
  8
Layer0
10
0.0
 20
 0.0
 30
0.0
 70
     128
 71
-691
 72
-692
 73
693
  0
VERTEX
  8
Layer0
10
0.0
 20
 0.0
 30
0.0
 70
     128
 71
-693
 72
692
 73
-694
  0
VERTEX
  8
Layer0
10
0.0
 20
 0.0
 30
0.0
 70
     128
 71
-693
 72
-694
 73
695
  0
VERTEX
  8
Layer0
10
0.0
 20
 0.0
 30
0.0
 70
     128
 71
-695
 72
694
 73
-696
  0
VERTEX
  8
Layer0
10
0.0
 20
 0.0
 30
0.0
 70
     128
 71
-695
 72
-696
 73
697
  0
VERTEX
  8
Layer0
10
0.0
 20
 0.0
 30
0.0
 70
     128
 71
-697
 72
696
 73
-698
  0
VERTEX
  8
Layer0
10
0.0
 20
 0.0
 30
0.0
 70
     128
 71
-697
 72
-698
 73
699
  0
VERTEX
  8
Layer0
10
0.0
 20
 0.0
 30
0.0
 70
     128
 71
-699
 72
698
 73
-700
  0
VERTEX
  8
Layer0
10
0.0
 20
 0.0
 30
0.0
 70
     128
 71
-699
 72
-700
 73
701
  0
VERTEX
  8
Layer0
10
0.0
 20
 0.0
 30
0.0
 70
     128
 71
-701
 72
700
 73
-702
  0
VERTEX
  8
Layer0
10
0.0
 20
 0.0
 30
0.0
 70
     128
 71
-701
 72
-702
 73
703
  0
VERTEX
  8
Layer0
10
0.0
 20
 0.0
 30
0.0
 70
     128
 71
-703
 72
702
 73
-704
  0
VERTEX
  8
Layer0
10
0.0
 20
 0.0
 30
0.0
 70
     128
 71
-703
 72
-704
 73
705
  0
VERTEX
  8
Layer0
10
0.0
 20
 0.0
 30
0.0
 70
     128
 71
-705
 72
704
 73
-241
  0
VERTEX
  8
Layer0
10
0.0
 20
 0.0
 30
0.0
 70
     128
 71
-705
 72
-241
 73
242
  0
VERTEX
  8
Layer0
10
0.0
 20
 0.0
 30
0.0
 70
     128
 71
-706
 72
-473
 73
201
  0
VERTEX
  8
Layer0
10
0.0
 20
 0.0
 30
0.0
 70
     128
 71
-473
 72
-706
 73
707
  0
VERTEX
  8
Layer0
10
0.0
 20
 0.0
 30
0.0
 70
     128
 71
-707
 72
706
 73
-708
  0
VERTEX
  8
Layer0
10
0.0
 20
 0.0
 30
0.0
 70
     128
 71
-707
 72
-708
 73
709
  0
VERTEX
  8
Layer0
10
0.0
 20
 0.0
 30
0.0
 70
     128
 71
-709
 72
708
 73
-710
  0
VERTEX
  8
Layer0
10
0.0
 20
 0.0
 30
0.0
 70
     128
 71
-709
 72
-710
 73
711
  0
VERTEX
  8
Layer0
10
0.0
 20
 0.0
 30
0.0
 70
     128
 71
-711
 72
710
 73
-712
  0
VERTEX
  8
Layer0
10
0.0
 20
 0.0
 30
0.0
 70
     128
 71
-711
 72
-712
 73
713
  0
VERTEX
  8
Layer0
10
0.0
 20
 0.0
 30
0.0
 70
     128
 71
-713
 72
712
 73
-714
  0
VERTEX
  8
Layer0
10
0.0
 20
 0.0
 30
0.0
 70
     128
 71
-713
 72
-714
 73
715
  0
VERTEX
  8
Layer0
10
0.0
 20
 0.0
 30
0.0
 70
     128
 71
-715
 72
714
 73
-716
  0
VERTEX
  8
Layer0
10
0.0
 20
 0.0
 30
0.0
 70
     128
 71
-715
 72
-716
 73
717
  0
VERTEX
  8
Layer0
10
0.0
 20
 0.0
 30
0.0
 70
     128
 71
-717
 72
716
 73
-718
  0
VERTEX
  8
Layer0
10
0.0
 20
 0.0
 30
0.0
 70
     128
 71
-717
 72
-718
 73
719
  0
VERTEX
  8
Layer0
10
0.0
 20
 0.0
 30
0.0
 70
     128
 71
-719
 72
718
 73
-720
  0
VERTEX
  8
Layer0
10
0.0
 20
 0.0
 30
0.0
 70
     128
 71
-719
 72
-720
 73
721
  0
VERTEX
  8
Layer0
10
0.0
 20
 0.0
 30
0.0
 70
     128
 71
-721
 72
720
 73
-722
  0
VERTEX
  8
Layer0
10
0.0
 20
 0.0
 30
0.0
 70
     128
 71
-721
 72
-722
 73
723
  0
VERTEX
  8
Layer0
10
0.0
 20
 0.0
 30
0.0
 70
     128
 71
-723
 72
722
 73
-724
  0
VERTEX
  8
Layer0
10
0.0
 20
 0.0
 30
0.0
 70
     128
 71
-723
 72
-724
 73
725
  0
VERTEX
  8
Layer0
10
0.0
 20
 0.0
 30
0.0
 70
     128
 71
-725
 72
724
 73
-726
  0
VERTEX
  8
Layer0
10
0.0
 20
 0.0
 30
0.0
 70
     128
 71
-725
 72
-726
 73
727
  0
VERTEX
  8
Layer0
10
0.0
 20
 0.0
 30
0.0
 70
     128
 71
-727
 72
726
 73
-212
  0
VERTEX
  8
Layer0
10
0.0
 20
 0.0
 30
0.0
 70
     128
 71
-727
 72
-212
 73
213
  0
VERTEX
  8
Layer0
10
0.0
 20
 0.0
 30
0.0
 70
     128
 71
-728
 72
-449
 73
171
  0
VERTEX
  8
Layer0
10
0.0
 20
 0.0
 30
0.0
 70
     128
 71
-449
 72
-728
 73
729
  0
VERTEX
  8
Layer0
10
0.0
 20
 0.0
 30
0.0
 70
     128
 71
-729
 72
728
 73
-730
  0
VERTEX
  8
Layer0
10
0.0
 20
 0.0
 30
0.0
 70
     128
 71
-729
 72
-730
 73
-731
  0
VERTEX
  8
Layer0
10
0.0
 20
 0.0
 30
0.0
 70
     128
 71
-729
 72
731
 73
-732
  0
VERTEX
  8
Layer0
10
0.0
 20
 0.0
 30
0.0
 70
     128
 71
-729
 72
732
 73
-733
  0
VERTEX
  8
Layer0
10
0.0
 20
 0.0
 30
0.0
 70
     128
 71
-729
 72
733
 73
-734
  0
VERTEX
  8
Layer0
10
0.0
 20
 0.0
 30
0.0
 70
     128
 71
-729
 72
734
 73
-735
  0
VERTEX
  8
Layer0
10
0.0
 20
 0.0
 30
0.0
 70
     128
 71
-729
 72
735
 73
-736
  0
VERTEX
  8
Layer0
10
0.0
 20
 0.0
 30
0.0
 70
     128
 71
-729
 72
-736
 73
737
  0
VERTEX
  8
Layer0
10
0.0
 20
 0.0
 30
0.0
 70
     128
 71
-731
 72
730
 73
-738
  0
VERTEX
  8
Layer0
10
0.0
 20
 0.0
 30
0.0
 70
     128
 71
-737
 72
736
 73
-739
  0
VERTEX
  8
Layer0
10
0.0
 20
 0.0
 30
0.0
 70
     128
 71
-737
 72
739
 73
-740
  0
VERTEX
  8
Layer0
10
0.0
 20
 0.0
 30
0.0
 70
     128
 71
-737
 72
740
 73
-741
  0
VERTEX
  8
Layer0
10
0.0
 20
 0.0
 30
0.0
 70
     128
 71
-737
 72
741
 73
-742
  0
VERTEX
  8
Layer0
10
0.0
 20
 0.0
 30
0.0
 70
     128
 71
-737
 72
742
 73
-743
  0
VERTEX
  8
Layer0
10
0.0
 20
 0.0
 30
0.0
 70
     128
 71
-737
 72
743
 73
-744
  0
VERTEX
  8
Layer0
10
0.0
 20
 0.0
 30
0.0
 70
     128
 71
-737
 72
744
 73
-745
  0
VERTEX
  8
Layer0
10
0.0
 20
 0.0
 30
0.0
 70
     128
 71
-737
 72
-745
 73
-746
  0
VERTEX
  8
Layer0
10
0.0
 20
 0.0
 30
0.0
 70
     128
 71
-746
 72
-745
 73
747
  0
VERTEX
  8
Layer0
10
0.0
 20
 0.0
 30
0.0
 70
     128
 71
-747
 72
-745
 73
748
  0
VERTEX
  8
Layer0
10
0.0
 20
 0.0
 30
0.0
 70
     128
 71
-748
 72
-745
 73
70
  0
VERTEX
  8
Layer0
10
0.0
 20
 0.0
 30
0.0
 70
     128
 71
-70
 72
-745
 73
-749
  0
VERTEX
  8
Layer0
10
0.0
 20
 0.0
 30
0.0
 70
     128
 71
-70
 72
749
 73
-750
  0
VERTEX
  8
Layer0
10
0.0
 20
 0.0
 30
0.0
 70
     128
 71
-70
 72
750
 73
-71
  0
VERTEX
  8
Layer0
10
0.0
 20
 0.0
 30
0.0
 70
     128
 71
-737
 72
746
 73
-751
  0
VERTEX
  8
Layer0
10
0.0
 20
 0.0
 30
0.0
 70
     128
 71
-737
 72
751
 73
-752
  0
VERTEX
  8
Layer0
10
0.0
 20
 0.0
 30
0.0
 70
     128
 71
-737
 72
752
 73
-753
  0
VERTEX
  8
Layer0
10
0.0
 20
 0.0
 30
0.0
 70
     128
 71
-737
 72
753
 73
-754
  0
VERTEX
  8
Layer0
10
0.0
 20
 0.0
 30
0.0
 70
     128
 71
-737
 72
754
 73
-755
  0
VERTEX
  8
Layer0
10
0.0
 20
 0.0
 30
0.0
 70
     128
 71
-737
 72
755
 73
-756
  0
VERTEX
  8
Layer0
10
0.0
 20
 0.0
 30
0.0
 70
     128
 71
-737
 72
756
 73
-757
  0
VERTEX
  8
Layer0
10
0.0
 20
 0.0
 30
0.0
 70
     128
 71
-737
 72
757
 73
-758
  0
VERTEX
  8
Layer0
10
0.0
 20
 0.0
 30
0.0
 70
     128
 71
-737
 72
758
 73
-84
  0
VERTEX
  8
Layer0
10
0.0
 20
 0.0
 30
0.0
 70
     128
 71
-737
 72
-84
 73
-79
  0
VERTEX
  8
Layer0
10
0.0
 20
 0.0
 30
0.0
 70
     128
 71
-737
 72
79
 73
-759
  0
VERTEX
  8
Layer0
10
0.0
 20
 0.0
 30
0.0
 70
     128
 71
-737
 72
759
 73
-760
  0
VERTEX
  8
Layer0
10
0.0
 20
 0.0
 30
0.0
 70
     128
 71
-737
 72
-760
 73
196
  0
VERTEX
  8
Layer0
10
0.0
 20
 0.0
 30
0.0
 70
     128
 71
-196
 72
760
 73
-194
  0
VERTEX
  8
Layer0
10
0.0
 20
 0.0
 30
0.0
 70
     128
 71
-43
 72
761
 73
-42
  0
VERTEX
  8
Layer0
10
0.0
 20
 0.0
 30
0.0
 70
     128
 71
-761
 72
43
 73
-762
  0
VERTEX
  8
Layer0
10
0.0
 20
 0.0
 30
0.0
 70
     128
 71
-761
 72
-762
 73
763
  0
VERTEX
  8
Layer0
10
0.0
 20
 0.0
 30
0.0
 70
     128
 71
-763
 72
762
 73
-764
  0
VERTEX
  8
Layer0
10
0.0
 20
 0.0
 30
0.0
 70
     128
 71
-763
 72
764
 73
-765
  0
VERTEX
  8
Layer0
10
0.0
 20
 0.0
 30
0.0
 70
     128
 71
-763
 72
765
 73
-766
  0
VERTEX
  8
Layer0
10
0.0
 20
 0.0
 30
0.0
 70
     128
 71
-763
 72
766
 73
-767
  0
VERTEX
  8
Layer0
10
0.0
 20
 0.0
 30
0.0
 70
     128
 71
-763
 72
767
 73
-768
  0
VERTEX
  8
Layer0
10
0.0
 20
 0.0
 30
0.0
 70
     128
 71
-763
 72
768
 73
-769
  0
VERTEX
  8
Layer0
10
0.0
 20
 0.0
 30
0.0
 70
     128
 71
-763
 72
769
 73
-770
  0
VERTEX
  8
Layer0
10
0.0
 20
 0.0
 30
0.0
 70
     128
 71
-763
 72
-770
 73
771
  0
VERTEX
  8
Layer0
10
0.0
 20
 0.0
 30
0.0
 70
     128
 71
-771
 72
770
 73
-772
  0
VERTEX
  8
Layer0
10
0.0
 20
 0.0
 30
0.0
 70
     128
 71
-771
 72
772
 73
-773
  0
VERTEX
  8
Layer0
10
0.0
 20
 0.0
 30
0.0
 70
     128
 71
-771
 72
773
 73
-774
  0
VERTEX
  8
Layer0
10
0.0
 20
 0.0
 30
0.0
 70
     128
 71
-771
 72
774
 73
-775
  0
VERTEX
  8
Layer0
10
0.0
 20
 0.0
 30
0.0
 70
     128
 71
-771
 72
775
 73
-776
  0
VERTEX
  8
Layer0
10
0.0
 20
 0.0
 30
0.0
 70
     128
 71
-771
 72
-776
 73
777
  0
VERTEX
  8
Layer0
10
0.0
 20
 0.0
 30
0.0
 70
     128
 71
-777
 72
776
 73
-778
  0
VERTEX
  8
Layer0
10
0.0
 20
 0.0
 30
0.0
 70
     128
 71
-777
 72
778
 73
-779
  0
VERTEX
  8
Layer0
10
0.0
 20
 0.0
 30
0.0
 70
     128
 71
-777
 72
779
 73
-780
  0
VERTEX
  8
Layer0
10
0.0
 20
 0.0
 30
0.0
 70
     128
 71
-777
 72
780
 73
-781
  0
VERTEX
  8
Layer0
10
0.0
 20
 0.0
 30
0.0
 70
     128
 71
-777
 72
-781
 73
64
  0
VERTEX
  8
Layer0
10
0.0
 20
 0.0
 30
0.0
 70
     128
 71
-64
 72
781
 73
-782
  0
VERTEX
  8
Layer0
10
0.0
 20
 0.0
 30
0.0
 70
     128
 71
-64
 72
782
 73
-783
  0
VERTEX
  8
Layer0
10
0.0
 20
 0.0
 30
0.0
 70
     128
 71
-64
 72
783
 73
-784
  0
VERTEX
  8
Layer0
10
0.0
 20
 0.0
 30
0.0
 70
     128
 71
-64
 72
784
 73
-785
  0
VERTEX
  8
Layer0
10
0.0
 20
 0.0
 30
0.0
 70
     128
 71
-64
 72
785
 73
-786
  0
VERTEX
  8
Layer0
10
0.0
 20
 0.0
 30
0.0
 70
     128
 71
-64
 72
786
 73
-787
  0
VERTEX
  8
Layer0
10
0.0
 20
 0.0
 30
0.0
 70
     128
 71
-64
 72
787
 73
-63
  0
VERTEX
  8
Layer0
10
0.0
 20
 0.0
 30
0.0
 70
     128
 71
788
 72
-448
 73
450
  0
VERTEX
  8
Layer0
10
0.0
 20
 0.0
 30
0.0
 70
     128
 71
-789
 72
-731
 73
738
  0
VERTEX
  8
Layer0
10
0.0
 20
 0.0
 30
0.0
 70
     128
 71
-731
 72
-789
 73
790
  0
VERTEX
  8
Layer0
10
0.0
 20
 0.0
 30
0.0
 70
     128
 71
-790
 72
-789
 73
791
  0
VERTEX
  8
Layer0
10
0.0
 20
 0.0
 30
0.0
 70
     128
 71
-791
 72
-789
 73
792
  0
VERTEX
  8
Layer0
10
0.0
 20
 0.0
 30
0.0
 70
     128
 71
-792
 72
-789
 73
793
  0
VERTEX
  8
Layer0
10
0.0
 20
 0.0
 30
0.0
 70
     128
 71
-793
 72
-789
 73
794
  0
VERTEX
  8
Layer0
10
0.0
 20
 0.0
 30
0.0
 70
     128
 71
-794
 72
-789
 73
795
  0
VERTEX
  8
Layer0
10
0.0
 20
 0.0
 30
0.0
 70
     128
 71
-795
 72
-789
 73
796
  0
VERTEX
  8
Layer0
10
0.0
 20
 0.0
 30
0.0
 70
     128
 71
-796
 72
789
 73
-749
  0
VERTEX
  8
Layer0
10
0.0
 20
 0.0
 30
0.0
 70
     128
 71
-796
 72
-749
 73
797
  0
VERTEX
  8
Layer0
10
0.0
 20
 0.0
 30
0.0
 70
     128
 71
-797
 72
-749
 73
798
  0
VERTEX
  8
Layer0
10
0.0
 20
 0.0
 30
0.0
 70
     128
 71
-798
 72
-749
 73
799
  0
VERTEX
  8
Layer0
10
0.0
 20
 0.0
 30
0.0
 70
     128
 71
-799
 72
-749
 73
800
  0
VERTEX
  8
Layer0
10
0.0
 20
 0.0
 30
0.0
 70
     128
 71
-800
 72
-749
 73
745
  0
VERTEX
  8
Layer0
10
0.0
 20
 0.0
 30
0.0
 70
     128
 71
-801
 72
-434
 73
172
  0
VERTEX
  8
Layer0
10
0.0
 20
 0.0
 30
0.0
 70
     128
 71
-434
 72
-801
 73
802
  0
VERTEX
  8
Layer0
10
0.0
 20
 0.0
 30
0.0
 70
     128
 71
-802
 72
801
 73
-803
  0
VERTEX
  8
Layer0
10
0.0
 20
 0.0
 30
0.0
 70
     128
 71
-802
 72
-803
 73
804
  0
VERTEX
  8
Layer0
10
0.0
 20
 0.0
 30
0.0
 70
     128
 71
-804
 72
803
 73
-805
  0
VERTEX
  8
Layer0
10
0.0
 20
 0.0
 30
0.0
 70
     128
 71
-804
 72
-805
 73
806
  0
VERTEX
  8
Layer0
10
0.0
 20
 0.0
 30
0.0
 70
     128
 71
-806
 72
805
 73
-807
  0
VERTEX
  8
Layer0
10
0.0
 20
 0.0
 30
0.0
 70
     128
 71
-806
 72
-807
 73
808
  0
VERTEX
  8
Layer0
10
0.0
 20
 0.0
 30
0.0
 70
     128
 71
-808
 72
807
 73
-809
  0
VERTEX
  8
Layer0
10
0.0
 20
 0.0
 30
0.0
 70
     128
 71
-808
 72
-809
 73
810
  0
VERTEX
  8
Layer0
10
0.0
 20
 0.0
 30
0.0
 70
     128
 71
-810
 72
809
 73
-811
  0
VERTEX
  8
Layer0
10
0.0
 20
 0.0
 30
0.0
 70
     128
 71
-810
 72
-811
 73
812
  0
VERTEX
  8
Layer0
10
0.0
 20
 0.0
 30
0.0
 70
     128
 71
-812
 72
811
 73
-813
  0
VERTEX
  8
Layer0
10
0.0
 20
 0.0
 30
0.0
 70
     128
 71
-812
 72
-813
 73
814
  0
VERTEX
  8
Layer0
10
0.0
 20
 0.0
 30
0.0
 70
     128
 71
-814
 72
813
 73
-815
  0
VERTEX
  8
Layer0
10
0.0
 20
 0.0
 30
0.0
 70
     128
 71
-814
 72
-815
 73
816
  0
VERTEX
  8
Layer0
10
0.0
 20
 0.0
 30
0.0
 70
     128
 71
-816
 72
815
 73
-817
  0
VERTEX
  8
Layer0
10
0.0
 20
 0.0
 30
0.0
 70
     128
 71
-816
 72
-817
 73
818
  0
VERTEX
  8
Layer0
10
0.0
 20
 0.0
 30
0.0
 70
     128
 71
-818
 72
817
 73
-819
  0
VERTEX
  8
Layer0
10
0.0
 20
 0.0
 30
0.0
 70
     128
 71
-818
 72
-819
 73
820
  0
VERTEX
  8
Layer0
10
0.0
 20
 0.0
 30
0.0
 70
     128
 71
-820
 72
819
 73
-821
  0
VERTEX
  8
Layer0
10
0.0
 20
 0.0
 30
0.0
 70
     128
 71
-820
 72
-821
 73
822
  0
VERTEX
  8
Layer0
10
0.0
 20
 0.0
 30
0.0
 70
     128
 71
-822
 72
821
 73
-184
  0
VERTEX
  8
Layer0
10
0.0
 20
 0.0
 30
0.0
 70
     128
 71
-822
 72
-184
 73
185
  0
VERTEX
  8
Layer0
10
0.0
 20
 0.0
 30
0.0
 70
     128
 71
-823
 72
-409
 73
146
  0
VERTEX
  8
Layer0
10
0.0
 20
 0.0
 30
0.0
 70
     128
 71
-409
 72
-823
 73
824
  0
VERTEX
  8
Layer0
10
0.0
 20
 0.0
 30
0.0
 70
     128
 71
-824
 72
823
 73
-825
  0
VERTEX
  8
Layer0
10
0.0
 20
 0.0
 30
0.0
 70
     128
 71
-824
 72
-825
 73
826
  0
VERTEX
  8
Layer0
10
0.0
 20
 0.0
 30
0.0
 70
     128
 71
-826
 72
825
 73
-827
  0
VERTEX
  8
Layer0
10
0.0
 20
 0.0
 30
0.0
 70
     128
 71
-826
 72
-827
 73
828
  0
VERTEX
  8
Layer0
10
0.0
 20
 0.0
 30
0.0
 70
     128
 71
-828
 72
827
 73
-829
  0
VERTEX
  8
Layer0
10
0.0
 20
 0.0
 30
0.0
 70
     128
 71
-828
 72
-829
 73
830
  0
VERTEX
  8
Layer0
10
0.0
 20
 0.0
 30
0.0
 70
     128
 71
-830
 72
829
 73
-831
  0
VERTEX
  8
Layer0
10
0.0
 20
 0.0
 30
0.0
 70
     128
 71
-830
 72
-831
 73
832
  0
VERTEX
  8
Layer0
10
0.0
 20
 0.0
 30
0.0
 70
     128
 71
-832
 72
831
 73
-833
  0
VERTEX
  8
Layer0
10
0.0
 20
 0.0
 30
0.0
 70
     128
 71
-832
 72
-833
 73
834
  0
VERTEX
  8
Layer0
10
0.0
 20
 0.0
 30
0.0
 70
     128
 71
-834
 72
833
 73
-835
  0
VERTEX
  8
Layer0
10
0.0
 20
 0.0
 30
0.0
 70
     128
 71
-834
 72
-835
 73
836
  0
VERTEX
  8
Layer0
10
0.0
 20
 0.0
 30
0.0
 70
     128
 71
-836
 72
835
 73
-837
  0
VERTEX
  8
Layer0
10
0.0
 20
 0.0
 30
0.0
 70
     128
 71
-836
 72
-837
 73
838
  0
VERTEX
  8
Layer0
10
0.0
 20
 0.0
 30
0.0
 70
     128
 71
-838
 72
837
 73
-839
  0
VERTEX
  8
Layer0
10
0.0
 20
 0.0
 30
0.0
 70
     128
 71
-838
 72
-839
 73
840
  0
VERTEX
  8
Layer0
10
0.0
 20
 0.0
 30
0.0
 70
     128
 71
-840
 72
839
 73
-841
  0
VERTEX
  8
Layer0
10
0.0
 20
 0.0
 30
0.0
 70
     128
 71
-840
 72
-841
 73
842
  0
VERTEX
  8
Layer0
10
0.0
 20
 0.0
 30
0.0
 70
     128
 71
-842
 72
841
 73
-843
  0
VERTEX
  8
Layer0
10
0.0
 20
 0.0
 30
0.0
 70
     128
 71
-842
 72
-843
 73
844
  0
VERTEX
  8
Layer0
10
0.0
 20
 0.0
 30
0.0
 70
     128
 71
-844
 72
843
 73
-845
  0
VERTEX
  8
Layer0
10
0.0
 20
 0.0
 30
0.0
 70
     128
 71
-844
 72
-845
 73
846
  0
VERTEX
  8
Layer0
10
0.0
 20
 0.0
 30
0.0
 70
     128
 71
-846
 72
845
 73
-847
  0
VERTEX
  8
Layer0
10
0.0
 20
 0.0
 30
0.0
 70
     128
 71
-846
 72
-847
 73
848
  0
VERTEX
  8
Layer0
10
0.0
 20
 0.0
 30
0.0
 70
     128
 71
-848
 72
847
 73
-849
  0
VERTEX
  8
Layer0
10
0.0
 20
 0.0
 30
0.0
 70
     128
 71
-848
 72
-849
 73
850
  0
VERTEX
  8
Layer0
10
0.0
 20
 0.0
 30
0.0
 70
     128
 71
-850
 72
849
 73
-851
  0
VERTEX
  8
Layer0
10
0.0
 20
 0.0
 30
0.0
 70
     128
 71
-850
 72
-851
 73
852
  0
VERTEX
  8
Layer0
10
0.0
 20
 0.0
 30
0.0
 70
     128
 71
-852
 72
-851
 73
853
  0
VERTEX
  8
Layer0
10
0.0
 20
 0.0
 30
0.0
 70
     128
 71
-853
 72
851
 73
-854
  0
VERTEX
  8
Layer0
10
0.0
 20
 0.0
 30
0.0
 70
     128
 71
-853
 72
-854
 73
855
  0
VERTEX
  8
Layer0
10
0.0
 20
 0.0
 30
0.0
 70
     128
 71
-855
 72
854
 73
-856
  0
VERTEX
  8
Layer0
10
0.0
 20
 0.0
 30
0.0
 70
     128
 71
-855
 72
-856
 73
857
  0
VERTEX
  8
Layer0
10
0.0
 20
 0.0
 30
0.0
 70
     128
 71
-857
 72
856
 73
-858
  0
VERTEX
  8
Layer0
10
0.0
 20
 0.0
 30
0.0
 70
     128
 71
-857
 72
-858
 73
859
  0
VERTEX
  8
Layer0
10
0.0
 20
 0.0
 30
0.0
 70
     128
 71
-859
 72
-858
 73
860
  0
VERTEX
  8
Layer0
10
0.0
 20
 0.0
 30
0.0
 70
     128
 71
-860
 72
858
 73
-861
  0
VERTEX
  8
Layer0
10
0.0
 20
 0.0
 30
0.0
 70
     128
 71
-860
 72
-861
 73
862
  0
VERTEX
  8
Layer0
10
0.0
 20
 0.0
 30
0.0
 70
     128
 71
-862
 72
861
 73
-863
  0
VERTEX
  8
Layer0
10
0.0
 20
 0.0
 30
0.0
 70
     128
 71
-862
 72
-863
 73
864
  0
VERTEX
  8
Layer0
10
0.0
 20
 0.0
 30
0.0
 70
     128
 71
-864
 72
863
 73
-865
  0
VERTEX
  8
Layer0
10
0.0
 20
 0.0
 30
0.0
 70
     128
 71
-864
 72
-865
 73
866
  0
VERTEX
  8
Layer0
10
0.0
 20
 0.0
 30
0.0
 70
     128
 71
-866
 72
865
 73
-867
  0
VERTEX
  8
Layer0
10
0.0
 20
 0.0
 30
0.0
 70
     128
 71
-866
 72
-867
 73
868
  0
VERTEX
  8
Layer0
10
0.0
 20
 0.0
 30
0.0
 70
     128
 71
-868
 72
867
 73
-869
  0
VERTEX
  8
Layer0
10
0.0
 20
 0.0
 30
0.0
 70
     128
 71
-868
 72
-869
 73
870
  0
VERTEX
  8
Layer0
10
0.0
 20
 0.0
 30
0.0
 70
     128
 71
-870
 72
869
 73
-871
  0
VERTEX
  8
Layer0
10
0.0
 20
 0.0
 30
0.0
 70
     128
 71
-870
 72
-871
 73
872
  0
VERTEX
  8
Layer0
10
0.0
 20
 0.0
 30
0.0
 70
     128
 71
-872
 72
871
 73
-169
  0
VERTEX
  8
Layer0
10
0.0
 20
 0.0
 30
0.0
 70
     128
 71
-872
 72
-169
 73
170
  0
VERTEX
  8
Layer0
10
0.0
 20
 0.0
 30
0.0
 70
     128
 71
-873
 72
-371
 73
106
  0
VERTEX
  8
Layer0
10
0.0
 20
 0.0
 30
0.0
 70
     128
 71
-371
 72
-873
 73
874
  0
VERTEX
  8
Layer0
10
0.0
 20
 0.0
 30
0.0
 70
     128
 71
-874
 72
873
 73
-875
  0
VERTEX
  8
Layer0
10
0.0
 20
 0.0
 30
0.0
 70
     128
 71
-874
 72
-875
 73
876
  0
VERTEX
  8
Layer0
10
0.0
 20
 0.0
 30
0.0
 70
     128
 71
-876
 72
875
 73
-877
  0
VERTEX
  8
Layer0
10
0.0
 20
 0.0
 30
0.0
 70
     128
 71
-876
 72
-877
 73
878
  0
VERTEX
  8
Layer0
10
0.0
 20
 0.0
 30
0.0
 70
     128
 71
-878
 72
877
 73
-879
  0
VERTEX
  8
Layer0
10
0.0
 20
 0.0
 30
0.0
 70
     128
 71
-878
 72
-879
 73
880
  0
VERTEX
  8
Layer0
10
0.0
 20
 0.0
 30
0.0
 70
     128
 71
-880
 72
879
 73
-881
  0
VERTEX
  8
Layer0
10
0.0
 20
 0.0
 30
0.0
 70
     128
 71
-880
 72
-881
 73
882
  0
VERTEX
  8
Layer0
10
0.0
 20
 0.0
 30
0.0
 70
     128
 71
-882
 72
881
 73
-883
  0
VERTEX
  8
Layer0
10
0.0
 20
 0.0
 30
0.0
 70
     128
 71
-882
 72
-883
 73
884
  0
VERTEX
  8
Layer0
10
0.0
 20
 0.0
 30
0.0
 70
     128
 71
-884
 72
883
 73
-885
  0
VERTEX
  8
Layer0
10
0.0
 20
 0.0
 30
0.0
 70
     128
 71
-884
 72
-885
 73
886
  0
VERTEX
  8
Layer0
10
0.0
 20
 0.0
 30
0.0
 70
     128
 71
-886
 72
885
 73
-887
  0
VERTEX
  8
Layer0
10
0.0
 20
 0.0
 30
0.0
 70
     128
 71
-886
 72
-887
 73
888
  0
VERTEX
  8
Layer0
10
0.0
 20
 0.0
 30
0.0
 70
     128
 71
-888
 72
887
 73
-889
  0
VERTEX
  8
Layer0
10
0.0
 20
 0.0
 30
0.0
 70
     128
 71
-888
 72
-889
 73
890
  0
VERTEX
  8
Layer0
10
0.0
 20
 0.0
 30
0.0
 70
     128
 71
-890
 72
889
 73
-891
  0
VERTEX
  8
Layer0
10
0.0
 20
 0.0
 30
0.0
 70
     128
 71
-890
 72
-891
 73
892
  0
VERTEX
  8
Layer0
10
0.0
 20
 0.0
 30
0.0
 70
     128
 71
-892
 72
891
 73
-893
  0
VERTEX
  8
Layer0
10
0.0
 20
 0.0
 30
0.0
 70
     128
 71
-892
 72
-893
 73
894
  0
VERTEX
  8
Layer0
10
0.0
 20
 0.0
 30
0.0
 70
     128
 71
-894
 72
893
 73
-895
  0
VERTEX
  8
Layer0
10
0.0
 20
 0.0
 30
0.0
 70
     128
 71
-894
 72
-895
 73
896
  0
VERTEX
  8
Layer0
10
0.0
 20
 0.0
 30
0.0
 70
     128
 71
-896
 72
895
 73
-897
  0
VERTEX
  8
Layer0
10
0.0
 20
 0.0
 30
0.0
 70
     128
 71
-896
 72
-897
 73
898
  0
VERTEX
  8
Layer0
10
0.0
 20
 0.0
 30
0.0
 70
     128
 71
-898
 72
897
 73
-899
  0
VERTEX
  8
Layer0
10
0.0
 20
 0.0
 30
0.0
 70
     128
 71
-898
 72
-899
 73
900
  0
VERTEX
  8
Layer0
10
0.0
 20
 0.0
 30
0.0
 70
     128
 71
-900
 72
899
 73
-901
  0
VERTEX
  8
Layer0
10
0.0
 20
 0.0
 30
0.0
 70
     128
 71
-900
 72
-901
 73
902
  0
VERTEX
  8
Layer0
10
0.0
 20
 0.0
 30
0.0
 70
     128
 71
-902
 72
901
 73
-903
  0
VERTEX
  8
Layer0
10
0.0
 20
 0.0
 30
0.0
 70
     128
 71
-902
 72
-903
 73
904
  0
VERTEX
  8
Layer0
10
0.0
 20
 0.0
 30
0.0
 70
     128
 71
-904
 72
903
 73
-905
  0
VERTEX
  8
Layer0
10
0.0
 20
 0.0
 30
0.0
 70
     128
 71
-904
 72
-905
 73
906
  0
VERTEX
  8
Layer0
10
0.0
 20
 0.0
 30
0.0
 70
     128
 71
-906
 72
905
 73
-907
  0
VERTEX
  8
Layer0
10
0.0
 20
 0.0
 30
0.0
 70
     128
 71
-906
 72
-907
 73
908
  0
VERTEX
  8
Layer0
10
0.0
 20
 0.0
 30
0.0
 70
     128
 71
-908
 72
907
 73
-909
  0
VERTEX
  8
Layer0
10
0.0
 20
 0.0
 30
0.0
 70
     128
 71
-908
 72
-909
 73
910
  0
VERTEX
  8
Layer0
10
0.0
 20
 0.0
 30
0.0
 70
     128
 71
-910
 72
909
 73
-911
  0
VERTEX
  8
Layer0
10
0.0
 20
 0.0
 30
0.0
 70
     128
 71
-910
 72
-911
 73
912
  0
VERTEX
  8
Layer0
10
0.0
 20
 0.0
 30
0.0
 70
     128
 71
-912
 72
911
 73
-913
  0
VERTEX
  8
Layer0
10
0.0
 20
 0.0
 30
0.0
 70
     128
 71
-912
 72
-913
 73
914
  0
VERTEX
  8
Layer0
10
0.0
 20
 0.0
 30
0.0
 70
     128
 71
-914
 72
913
 73
-915
  0
VERTEX
  8
Layer0
10
0.0
 20
 0.0
 30
0.0
 70
     128
 71
-914
 72
-915
 73
916
  0
VERTEX
  8
Layer0
10
0.0
 20
 0.0
 30
0.0
 70
     128
 71
-916
 72
915
 73
-917
  0
VERTEX
  8
Layer0
10
0.0
 20
 0.0
 30
0.0
 70
     128
 71
-916
 72
-917
 73
918
  0
VERTEX
  8
Layer0
10
0.0
 20
 0.0
 30
0.0
 70
     128
 71
-918
 72
917
 73
-919
  0
VERTEX
  8
Layer0
10
0.0
 20
 0.0
 30
0.0
 70
     128
 71
-918
 72
-919
 73
920
  0
VERTEX
  8
Layer0
10
0.0
 20
 0.0
 30
0.0
 70
     128
 71
-920
 72
919
 73
-129
  0
VERTEX
  8
Layer0
10
0.0
 20
 0.0
 30
0.0
 70
     128
 71
-920
 72
-129
 73
131
  0
VERTEX
  8
Layer0
10
0.0
 20
 0.0
 30
0.0
 70
     128
 71
-921
 72
-347
 73
87
  0
VERTEX
  8
Layer0
10
0.0
 20
 0.0
 30
0.0
 70
     128
 71
-347
 72
-921
 73
922
  0
VERTEX
  8
Layer0
10
0.0
 20
 0.0
 30
0.0
 70
     128
 71
-922
 72
921
 73
-923
  0
VERTEX
  8
Layer0
10
0.0
 20
 0.0
 30
0.0
 70
     128
 71
-922
 72
-923
 73
924
  0
VERTEX
  8
Layer0
10
0.0
 20
 0.0
 30
0.0
 70
     128
 71
-924
 72
923
 73
-925
  0
VERTEX
  8
Layer0
10
0.0
 20
 0.0
 30
0.0
 70
     128
 71
-924
 72
-925
 73
926
  0
VERTEX
  8
Layer0
10
0.0
 20
 0.0
 30
0.0
 70
     128
 71
-926
 72
925
 73
-927
  0
VERTEX
  8
Layer0
10
0.0
 20
 0.0
 30
0.0
 70
     128
 71
-926
 72
-927
 73
928
  0
VERTEX
  8
Layer0
10
0.0
 20
 0.0
 30
0.0
 70
     128
 71
-928
 72
927
 73
-929
  0
VERTEX
  8
Layer0
10
0.0
 20
 0.0
 30
0.0
 70
     128
 71
-928
 72
-929
 73
930
  0
VERTEX
  8
Layer0
10
0.0
 20
 0.0
 30
0.0
 70
     128
 71
-930
 72
929
 73
-931
  0
VERTEX
  8
Layer0
10
0.0
 20
 0.0
 30
0.0
 70
     128
 71
-930
 72
-931
 73
932
  0
VERTEX
  8
Layer0
10
0.0
 20
 0.0
 30
0.0
 70
     128
 71
-932
 72
931
 73
-933
  0
VERTEX
  8
Layer0
10
0.0
 20
 0.0
 30
0.0
 70
     128
 71
-932
 72
-933
 73
934
  0
VERTEX
  8
Layer0
10
0.0
 20
 0.0
 30
0.0
 70
     128
 71
-934
 72
933
 73
-935
  0
VERTEX
  8
Layer0
10
0.0
 20
 0.0
 30
0.0
 70
     128
 71
-934
 72
-935
 73
936
  0
VERTEX
  8
Layer0
10
0.0
 20
 0.0
 30
0.0
 70
     128
 71
-936
 72
935
 73
-937
  0
VERTEX
  8
Layer0
10
0.0
 20
 0.0
 30
0.0
 70
     128
 71
-936
 72
-937
 73
938
  0
VERTEX
  8
Layer0
10
0.0
 20
 0.0
 30
0.0
 70
     128
 71
-938
 72
937
 73
-939
  0
VERTEX
  8
Layer0
10
0.0
 20
 0.0
 30
0.0
 70
     128
 71
-938
 72
-939
 73
940
  0
VERTEX
  8
Layer0
10
0.0
 20
 0.0
 30
0.0
 70
     128
 71
-940
 72
939
 73
-941
  0
VERTEX
  8
Layer0
10
0.0
 20
 0.0
 30
0.0
 70
     128
 71
-940
 72
-941
 73
942
  0
VERTEX
  8
Layer0
10
0.0
 20
 0.0
 30
0.0
 70
     128
 71
-942
 72
941
 73
-99
  0
VERTEX
  8
Layer0
10
0.0
 20
 0.0
 30
0.0
 70
     128
 71
-942
 72
-99
 73
101
  0
SEQEND
 0
ENDSEC
 0
EOF
